<?xml version="1.0" encoding="UTF-8" standalone="no"?>
<!-- Created with Inkscape (http://www.inkscape.org/) -->

<svg
   xmlns:dc="http://purl.org/dc/elements/1.1/"
   xmlns:cc="http://creativecommons.org/ns#"
   xmlns:rdf="http://www.w3.org/1999/02/22-rdf-syntax-ns#"
   xmlns:svg="http://www.w3.org/2000/svg"
   xmlns="http://www.w3.org/2000/svg"
   xmlns:sodipodi="http://sodipodi.sourceforge.net/DTD/sodipodi-0.dtd"
   xmlns:inkscape="http://www.inkscape.org/namespaces/inkscape"
   width="1024"
   height="768"
   id="svg4160"
   version="1.1"
   inkscape:version="0.48.4 r9939"
   sodipodi:docname="einleitung.svg">
  <defs
     id="defs4162" />
  <sodipodi:namedview
     id="base"
     pagecolor="#ffffff"
     bordercolor="#666666"
     borderopacity="1.0"
     inkscape:pageopacity="0.0"
     inkscape:pageshadow="2"
     inkscape:zoom="0.86588542"
     inkscape:cx="512"
     inkscape:cy="371.18049"
     inkscape:document-units="px"
     inkscape:current-layer="layer1"
     showgrid="false"
     inkscape:window-width="1600"
     inkscape:window-height="886"
     inkscape:window-x="0"
     inkscape:window-y="14"
     inkscape:window-maximized="0" />
  <metadata
     id="metadata4165">
    <rdf:RDF>
      <cc:Work
         rdf:about="">
        <dc:format>image/svg+xml</dc:format>
        <dc:type
           rdf:resource="http://purl.org/dc/dcmitype/StillImage" />
        <dc:title></dc:title>
      </cc:Work>
    </rdf:RDF>
  </metadata>
  <g
     inkscape:label="Ebene 1"
     inkscape:groupmode="layer"
     id="layer1"
     transform="translate(0,-284.36218)">
    <g
       id="g3372"
       style="fill:#ff0000"
       transform="matrix(0.9992144,0.03963069,-0.03963069,0.9992144,58.449791,-20.054268)">
      <path
         inkscape:connector-curvature="0"
         d="m 97.35921,361.20245 c -2.39135,-1.41328 -4.4643,-3.26455 -6.74258,-4.84079 -1.00439,-0.62739 -1.8945,-1.4207 -2.91472,-2.02207 -0.4061,-0.26063 -0.87382,-0.3582 -1.32465,-0.50788 -0.12149,-0.0408 -0.24132,-0.0651 -0.36701,-0.0812 5.67444,-5.15559 4.33351,-6.1027 8.12681,-2.32573 5.8623,6.47033 10.3755,14.01094 14.92372,21.42147 8.77388,14.71957 16.87122,29.82843 24.80705,45.01177 7.06116,13.31466 13.06668,27.12922 18.44383,41.19638 3.00535,8.15611 5.74795,16.40523 8.42429,24.67401 0.80751,2.38085 1.5154,4.80102 2.44328,7.13979 1.21606,2.27998 0.82396,1.41828 -5.85442,4.43707 -0.47035,0.21261 -0.083,-1.02921 -0.10726,-1.54482 -0.15496,-3.2934 -0.0851,-6.58943 -0.0444,-9.88436 0.31329,-13.48173 0.88154,-26.95575 1.55233,-40.42388 0.5782,-14.68029 2.57189,-29.21379 5.7901,-43.53451 1.93977,-7.97133 4.5333,-15.79185 8.33859,-23.07182 0.83268,-1.59864 1.82772,-3.05697 3.16794,-4.25959 0,0 4.73863,-3.46529 4.73863,-3.46529 l 0,0 c 0.70385,-0.3982 -1.76931,2.66666 -1.63872,2.88384 -3.9826,7.25068 -6.68506,15.10164 -8.71716,23.10718 -3.30996,14.28962 -5.38366,28.80021 -5.92589,43.47544 -0.66475,13.41589 -1.141,26.84124 -1.4195,40.27092 -0.0202,3.04399 -0.0568,4.54165 0.0117,7.45481 0.018,0.76658 0.0508,1.53283 0.0903,2.29861 0.0262,0.50806 0.40717,1.11171 0.10699,1.52245 -5.43286,7.43391 -4.89089,8.86705 -5.83427,5.99388 -0.79441,-2.44094 -1.41267,-4.93959 -2.22731,-7.37483 -2.59932,-8.31518 -5.23848,-16.62018 -8.21814,-24.80888 -5.27942,-14.09836 -11.22067,-27.93763 -18.24573,-41.26568 -7.87341,-15.20748 -15.88592,-30.35958 -24.68625,-45.05591 -4.54271,-7.32322 -9.04586,-14.81453 -15.01707,-21.08881 -3.6588,-3.50635 -3.85434,-0.85672 1.76184,-7.17748 -0.12557,0.0626 -0.13531,0.0975 -0.12971,0.26529 0.0426,0.47908 0.19581,0.90011 0.46169,1.306 0.54214,1.04745 1.29028,1.96086 2.00466,2.89388 1.71107,2.13231 3.86401,3.8712 5.58418,5.99793 0,0 -1.36308,1.38281 -1.36308,1.38281 z"
         id="path3260"
         style="fill:#ff0000;fill-opacity:1;fill-rule:nonzero;stroke:none" />
      <path
         inkscape:connector-curvature="0"
         d="m 189.03292,455.07361 c 4.37912,-0.57407 8.56957,-1.76407 12.49,-3.79056 -0.83767,1.36756 4.75478,-3.93044 3.61333,-2.89247 -1.30524,1.18691 -2.3518,2.73256 -3.90065,3.57722 -0.72932,0.39773 0.9151,-1.39301 1.27146,-2.1434 1.04747,-2.20567 0.98916,-2.83734 1.41828,-5.24767 0.14796,-4.42892 -0.39955,-9.83221 -4.21059,-12.79057 -0.62033,-0.48154 -1.37936,-0.75106 -2.06904,-1.12659 -4.05804,-0.9206 -7.75568,0.71637 -10.94585,3.19426 -1.01471,0.78815 -2.65486,1.31546 -2.86035,2.58377 -0.19452,1.20066 1.87829,-1.54589 2.81743,-2.31884 -4.95642,7.10323 -6.92617,15.62315 -6.57506,24.2256 0.0755,1.84936 0.37083,3.68319 0.55624,5.52478 1.51829,7.8557 4.55769,15.97676 11.36499,20.785 1.12478,0.79447 2.40802,1.33669 3.61203,2.00504 7.28856,2.75156 14.43162,0.65757 21.19829,-2.44279 1.79701,-0.66917 1.00814,-0.30129 2.39501,-1.04063 0,0 -0.0957,0.1303 -0.0957,0.1303 l 0,0 c -3.48783,3.60618 -1.59892,1.81547 -5.70419,5.33235 -6.0338,3.79162 -11.84894,6.40422 -19.18962,4.9633 -1.37171,-0.26926 -2.67154,-0.82411 -4.00731,-1.23617 -1.24095,-0.70857 -2.56259,-1.29155 -3.72284,-2.12572 -6.91944,-4.97478 -10.11004,-13.20307 -11.71688,-21.25301 -0.20494,-1.86496 -0.51852,-3.72118 -0.61482,-5.5949 -0.44557,-8.66938 1.37969,-17.30322 6.18046,-24.59745 4.7275,-5.02996 11.52406,-14.79618 19.99797,-14.2413 0.86892,0.0569 1.69732,0.39008 2.54598,0.58511 0.73343,0.4393 1.53834,0.77686 2.2003,1.3179 3.87143,3.16429 4.7452,8.55939 4.73786,13.24083 -0.31645,2.39624 -0.25583,3.17505 -1.17201,5.40185 -2.19444,5.33364 -7.20927,9.19753 -11.89682,12.32106 -3.9241,1.85375 -8.07601,3.03511 -12.42977,3.28846 0,0 4.7119,-5.63476 4.7119,-5.63476 z"
         id="path3262"
         style="fill:#ff0000;fill-opacity:1;fill-rule:nonzero;stroke:none" />
      <path
         inkscape:connector-curvature="0"
         d="m 240.23506,482.70109 c -2.45585,-7.01605 -4.90052,-14.03311 -7.16385,-21.11417 -2.13376,-7.10036 -4.24666,-14.31179 -4.30211,-21.77516 0.64918,-6.48976 6.17776,-11.58096 12.31249,-13.38828 4.18469,-0.89293 8.4857,-0.90047 12.74463,-0.96652 2.83725,0.0178 5.75054,-0.52816 8.472,0.47395 0.62257,1.35209 0.43399,0.58373 0.38463,2.34211 0,0 -0.10755,0.12072 -0.10755,0.12072 l 0,0 c -2.64997,1.29678 -1.34679,0.68973 -3.9061,1.82851 -3.28073,0.95901 -6.58269,1.46883 -10.01585,1.31023 -4.20229,0.0639 -8.46257,0.0753 -12.56115,1.11952 -3.78089,1.35427 -6.0546,4.04885 0.94039,-3.00164 0.39637,-0.39953 -0.77599,0.82586 -1.07134,1.30492 -0.86623,1.40508 -0.82852,2.06629 -1.1443,3.69874 -0.16524,7.42112 1.95857,14.60793 4.0482,21.66564 2.25724,7.0507 4.69405,14.0384 7.28996,20.97188 0,0 -5.92005,5.40955 -5.92005,5.40955 z"
         id="path3264"
         style="fill:#ff0000;fill-opacity:1;fill-rule:nonzero;stroke:none" />
      <path
         inkscape:connector-curvature="0"
         d="m 274.16264,424.08974 c 3.79595,10.40791 7.83608,20.71263 12.22572,30.8842 4.61241,10.15856 9.26469,20.37923 15.29934,29.79056 -3.4532,2.897 2.57266,0.85156 1.98986,1.42147 -1.588,1.55285 -3.07393,3.40885 -5.12733,4.2554 -0.75703,0.3121 0.46436,-1.57551 0.58971,-2.3847 0.36103,-2.3305 0.42918,-5.76527 0.52475,-8.03832 0.2017,-4.44245 0.0311,-8.93566 0.63083,-13.35562 0.15771,-1.16227 0.61348,-4.10029 1.65192,-5.15163 2.25022,-2.27821 4.82605,-4.21001 7.23908,-6.31502 0.77607,0.23085 1.60457,0.32932 2.3282,0.69254 5.07226,2.54593 11.02269,10.8409 14.53312,15.31354 2.29077,2.6722 4.12158,5.76859 6.59498,8.29112 0.39832,0.40624 0.79787,0.85636 1.3203,1.08166 0.25552,0.11019 1.01958,-0.35229 0.81955,-0.15885 -1.58553,1.5333 -3.37465,2.84102 -5.06198,4.26153 0.21308,-0.81593 0.49865,-1.6163 0.63925,-2.44779 0.40574,-2.39949 0.58999,-6.4016 0.67416,-8.68859 0.21725,-5.90334 0.16937,-11.81459 0.16215,-17.72047 0.44588,-6.72012 -0.88491,-13.92712 1.2175,-20.45635 0.73391,-1.79949 2.24898,-2.98854 3.65796,-4.23848 0,0 0.12942,-0.0969 0.12942,-0.0969 l 0,0 c 0.45694,-0.28101 1.90971,-1.62267 1.85617,-0.27756 -0.16815,2.07715 -0.5285,4.11378 -0.66603,6.19867 -0.30353,4.60173 -0.27436,9.2184 -0.29097,13.82697 0.009,9.67032 0.38077,19.4492 -1.01439,29.04098 -2.18043,2.22835 -4.14823,4.68677 -6.54129,6.68503 -0.70789,0.59111 -2.51968,-1.39973 -2.56279,-1.4456 -2.42778,-2.58324 -4.25492,-5.68529 -6.5387,-8.38428 -3.28645,-4.1994 -9.33358,-12.71692 -14.2442,-14.85064 -0.60041,-0.26089 -1.29012,-0.22318 -1.93517,-0.33476 1.33215,-1.6102 2.55654,-3.316 3.99647,-4.8306 0.51494,-0.54164 -0.93057,1.19611 -1.20285,1.8921 -2.01552,5.1518 -0.80994,11.11769 -1.48203,16.46014 -0.0994,2.82959 -0.13795,5.28806 -0.40179,8.08515 -0.0801,0.8495 0.17617,1.85576 -0.33691,2.53753 -1.95688,2.6002 -5.05443,8.16195 -7.59743,6.1313 -0.51804,-0.41367 -0.84941,-1.01805 -1.27412,-1.52707 -5.90337,-9.5663 -10.6097,-19.82922 -15.16711,-30.0856 -4.27359,-10.23111 -8.38088,-20.52843 -12.19284,-30.94151 0,0 5.55749,-5.11953 5.55749,-5.11953 z"
         id="path3266"
         style="fill:#ff0000;fill-opacity:1;fill-rule:nonzero;stroke:none" />
      <path
         inkscape:connector-curvature="0"
         d="m 375.34741,456.52826 c 2.21819,-5.2743 1.3329,-10.92683 -0.0418,-16.28315 -1.52797,-4.23022 -3.83207,-9.32277 -8.66458,-10.56709 -0.79687,-0.20519 -1.63832,-0.1559 -2.45748,-0.23385 -2.53211,0.5125 -3.02365,0.38778 -5.32966,1.83227 -0.97458,0.61047 -2.86168,3.24796 -2.73323,2.10517 0.14194,-1.26289 2.42041,-3.81588 2.7888,-2.59961 0.41617,1.374 -1.76576,2.27141 -2.51781,3.4943 -0.82706,1.34486 -1.47202,2.79354 -2.20804,4.19031 -3.44619,8.21407 -4.79739,17.20073 -3.68759,26.06278 0.20536,1.63984 0.59959,3.25046 0.89939,4.87568 1.53196,5.06568 4.08829,13.09762 10.67732,13.34005 1.01551,0.0374 2.00562,-0.32876 3.00843,-0.49313 1.72216,-0.94139 5.29754,-2.56292 6.14344,-4.53507 0.40124,-0.93546 -1.69831,1.12252 -2.54746,1.68378 0.8781,-1.53649 1.84552,-3.02527 2.63431,-4.60947 2.06017,-4.1376 2.57227,-6.18369 4.03391,-10.56078 2.22005,-7.47978 3.35028,-15.20738 3.8291,-22.97748 0.17817,-3.19784 -0.0914,-2.87693 6.27435,-5.22702 0.59916,-0.22119 0.12405,1.27144 0.19893,1.90572 0.10745,0.91013 0.21248,1.82085 0.34803,2.72722 0.52376,3.50218 0.66342,3.86086 1.43982,7.50127 2.21771,9.7949 6.49761,18.8183 12.02517,27.14173 2.22817,4.11071 6.96431,6.86236 9.44432,10.70017 0.18525,0.28667 1.24428,2.88913 1.48515,3.47419 0,0 -0.10752,0.12076 -0.10752,0.12076 l 0,0 c -2.00278,0.57131 -3.47095,1.22961 -5.64211,0.80904 -4.89455,-0.94813 -7.88407,-6.26988 -10.82508,-9.68005 -5.56348,-8.39795 -9.91053,-17.48304 -12.2467,-27.33204 -0.76465,-3.39616 -1.46493,-6.75973 -1.93269,-10.21018 -0.0839,-0.6189 -0.58762,-1.35153 -0.2251,-1.86011 1.66331,-2.33344 3.82178,-4.28825 5.96423,-6.19125 0.24505,-0.21766 -0.0638,0.6524 -0.0957,0.9786 -0.59831,7.85193 -1.64346,15.67735 -3.86202,23.25788 -1.42641,4.41595 -3.60704,11.67302 -6.47072,15.34694 -2.57011,3.2973 -5.48167,6.31842 -8.37861,9.33261 -2.78302,2.89565 -3.1367,2.70069 -6.55203,4.28614 -1.08346,0.0976 -2.16781,0.40007 -3.25036,0.29295 -6.8312,-0.67601 -9.56253,-8.55556 -11.21893,-14.0367 -0.3149,-1.65058 -0.72416,-3.28592 -0.94469,-4.95173 -1.18608,-8.95941 0.0744,-18.05513 3.44636,-26.41652 3.9398,-7.88461 5.32481,-9.20123 12.73894,-16.06152 1.44908,-1.34084 3.76973,-2.63831 5.70413,-3.14636 0.88744,-0.23307 1.82374,-0.20365 2.73561,-0.30548 0.8447,0.16493 1.72328,0.20617 2.5341,0.49479 4.84433,1.72434 7.11098,6.9963 8.67221,11.44123 1.35788,5.66732 2.09955,11.56305 -0.21318,17.10774 0,0 -4.87294,3.77527 -4.87294,3.77527 z"
         id="path3268"
         style="fill:#ff0000;fill-opacity:1;fill-rule:nonzero;stroke:none" />
      <path
         inkscape:connector-curvature="0"
         d="m 416.07625,373.15544 c -0.62185,9.24718 -0.16345,18.5031 0.41286,27.73767 1.17227,13.54835 3.20163,27.10109 7.13425,40.14823 0.73022,2.42263 1.60713,4.79861 2.4107,7.19791 3.44173,8.21198 7.15297,17.52498 14.7787,22.83916 0.93628,0.65247 2.00533,1.08997 3.008,1.63496 4.76202,1.66699 9.28428,0.62424 13.39588,-2.03887 1.47163,-1.23821 0.33058,0.20367 1.56084,-1.94828 0,0 0.12795,-0.0988 0.12795,-0.0988 l 0,0 c -1.15972,2.35726 -2.89095,4.32505 -4.7646,6.15204 -4.88655,3.9324 -9.51556,5.97953 -15.74725,3.67056 -1.03307,-0.58919 -2.13386,-1.07298 -3.09922,-1.76758 -7.6656,-5.5156 -11.45856,-14.8872 -14.93347,-23.27194 -0.80736,-2.41603 -1.68708,-4.80907 -2.42208,-7.24808 -3.94122,-13.07842 -6.01292,-26.65379 -7.27482,-40.22731 -0.65127,-9.34092 -1.16853,-18.74378 -0.18525,-28.08401 0,0 5.59751,-4.69561 5.59751,-4.69561 z"
         id="path3270"
         style="fill:#ff0000;fill-opacity:1;fill-rule:nonzero;stroke:none" />
      <path
         inkscape:connector-curvature="0"
         d="m 461.59955,364.40275 c -0.0472,9.74716 0.61414,19.46426 1.40226,29.17293 1.46355,15.89676 3.98507,31.66818 6.72533,47.3868 1.29508,9.39304 4.11225,18.51657 5.45084,27.89258 0.35607,2.06091 0.0596,3.01256 -0.61579,4.82756 0,0 -0.0977,0.12883 -0.0977,0.12883 l 0,0 c -1.88511,1.61511 -2.96709,2.07927 -4.41931,-0.34338 -3.45319,-8.72342 -4.04986,-18.32048 -6.07747,-27.41336 -2.70287,-15.74149 -5.2195,-31.52749 -6.77782,-47.42993 -0.86736,-9.9014 -1.58553,-19.86553 -0.7998,-29.80041 0,0 5.20947,-4.42162 5.20947,-4.42162 z"
         id="path3272"
         style="fill:#ff0000;fill-opacity:1;fill-rule:nonzero;stroke:none" />
      <path
         inkscape:connector-curvature="0"
         d="m 472.64117,422.17615 c -6.02957,0.50768 -12.06773,0.90294 -18.10128,1.35904 -6.49115,0.47992 -12.93884,1.41269 -19.36455,2.42951 -1.88898,-0.15509 -1.11063,0.13234 -2.41179,-0.61578 0,0 0.10014,-0.12694 0.10014,-0.12694 l 0,0 c 3.79613,-2.67687 1.82444,-1.43319 5.91899,-3.72481 2.67135,-1.01534 3.56417,-1.4441 6.37957,-2.14124 4.72843,-1.17084 9.62487,-1.38427 14.45248,-1.85477 6.06313,-0.46379 12.13208,-0.86717 18.18348,-1.47069 0,0 -5.15704,6.14568 -5.15704,6.14568 z"
         id="path3274"
         style="fill:#ff0000;fill-opacity:1;fill-rule:nonzero;stroke:none" />
      <path
         inkscape:connector-curvature="0"
         d="m 500.45562,417.98526 c 0.25916,8.13423 1.92958,16.09928 4.01708,23.93401 2.10094,6.37565 4.23799,13.15483 8.63836,18.39532 0.582,0.69311 1.27704,1.28285 1.91556,1.92428 2.43889,1.83947 5.06502,2.18873 7.55137,0.18088 0.65977,-0.5328 2.48586,-2.28418 1.77343,-1.82415 -1.37076,0.88514 -2.51657,2.07769 -3.77486,3.11653 4.07818,-7.04916 5.18548,-15.15678 5.77067,-23.14295 0.24281,-5.57629 -0.0315,-11.17397 -0.94357,-16.68129 -0.63696,-3.59651 -1.15878,-3.39764 5.90901,-5.79455 0.59809,-0.20283 0.18536,1.24945 0.28696,1.87277 0.14028,0.86062 0.29245,1.71927 0.43868,2.5789 1.58943,9.38369 4.23549,18.527 7.17497,27.56292 2.92799,8.74209 6.57213,17.22024 10.80794,25.40343 0.64853,1.54354 2.12901,3.83243 1.3102,5.6549 -0.27063,0.60237 -0.80606,1.04624 -1.2091,1.56935 0,0 -0.10909,0.11934 -0.10909,0.11934 l 0,0 c -0.60664,0.45166 -1.11548,1.07975 -1.81993,1.355 -1.91421,0.74793 -3.28648,-2.24067 -3.93951,-3.2809 -4.18023,-8.26956 -7.83322,-16.79834 -10.79374,-25.58417 -2.96818,-9.03373 -5.65622,-18.16856 -7.37097,-27.53489 -0.15853,-0.85411 -0.32196,-1.70731 -0.47558,-2.56232 -0.11108,-0.61821 -0.66327,-1.3322 -0.31849,-1.85722 6.30626,-9.60291 5.44373,-8.83916 6.10823,-4.79621 0.89134,5.58717 1.1728,11.2588 0.95661,16.91186 -0.53672,8.05558 -1.59859,16.2105 -5.45616,23.43824 -2.4138,2.68896 -4.76393,5.43646 -7.24139,8.06687 -3.23342,3.43304 -6.54134,3.59714 -10.25106,0.83486 -0.66039,-0.67655 -1.37778,-1.3018 -1.98116,-2.02964 -4.42981,-5.3436 -6.62683,-12.19037 -8.7723,-18.66081 -2.12276,-7.84367 -3.81953,-15.80686 -4.26851,-23.94453 0,0 6.06635,-5.22583 6.06635,-5.22583 z"
         id="path3276"
         style="fill:#ff0000;fill-opacity:1;fill-rule:nonzero;stroke:none" />
      <path
         inkscape:connector-curvature="0"
         d="m 550.41616,431.39048 c 2.71745,4.9277 4.74049,10.19758 6.76693,15.43542 1.82805,4.69224 3.51683,9.43949 4.99597,14.25342 1.00799,3.6608 1.7436,3.14458 -5.68331,5.94729 -0.53101,0.20039 -0.208,-1.11618 -0.2905,-1.67772 -0.11152,-0.75917 -0.19428,-1.52228 -0.29142,-2.28342 -0.79164,-7.38057 -0.83252,-14.80897 -0.53091,-22.21697 0.32636,-6.0058 1.06669,-11.66766 4.52408,-16.70274 5.97257,-6.63458 8.88119,-9.81653 17.38869,-9.92714 6.73443,0.58034 9.2966,5.11615 11.8766,10.76215 3.06644,8.23171 3.77173,17.04173 4.57269,25.71567 0.29014,3.41094 0.71088,6.80783 0.85266,10.23011 0.0442,1.06772 0.16,3.65508 -0.15988,4.77743 -0.24367,0.85496 -0.73927,1.61703 -1.10891,2.42555 -0.0432,0.31496 -0.0864,0.62991 -0.12957,0.94487 0,0 -0.11631,0.11232 -0.11631,0.11232 l 0,0 c -0.28108,-0.0249 -0.56217,-0.0498 -0.84325,-0.0746 -0.58571,0.0322 -1.2242,0.34157 -1.75712,0.0965 -0.80638,-0.37089 -1.36175,-2.95317 -1.46417,-3.40242 -0.74535,-3.26926 -0.87347,-6.6265 -1.20437,-9.95087 -0.76266,-8.59699 -1.41458,-17.33225 -4.41299,-25.50281 -2.4444,-5.39714 -4.77876,-9.70927 -11.26228,-10.06094 -2.89771,0.12907 -5.65325,0.5334 -8.20148,2.03947 -0.59188,0.34981 -2.10731,1.73439 -1.68134,1.19472 1.19549,-1.51457 2.68224,-2.77454 4.02335,-4.16182 -3.86447,4.9742 -4.43565,10.25244 -4.89017,16.39974 -0.3396,7.35692 -0.3001,14.73302 0.5045,22.06303 0.094,0.74935 0.17598,1.50031 0.28197,2.24806 0.078,0.55045 0.584,1.1871 0.26997,1.64587 -7.04526,10.29265 -5.07511,8.31929 -5.98988,4.52978 -1.30668,-4.91668 -2.92521,-9.74457 -4.58249,-14.55233 -1.91172,-5.36259 -3.8169,-10.73533 -6.0561,-15.97199 0,0 4.59904,-4.33555 4.59904,-4.33555 z"
         id="path3278"
         style="fill:#ff0000;fill-opacity:1;fill-rule:nonzero;stroke:none" />
      <path
         inkscape:connector-curvature="0"
         d="m 624.36278,441.10568 c 2.12743,0.3943 4.49567,1.07962 6.56151,0.0301 0.4548,-0.23106 1.591,-1.2707 1.23083,-0.90944 -1.34758,1.35167 -2.80138,2.59313 -4.20207,3.88969 2.30835,-4.40808 0.78174,-9.26006 -1.0975,-13.51758 -2.15952,-3.79966 -5.66825,-6.90472 -10.31241,-6.66328 -0.91361,0.0475 -1.80002,0.32814 -2.70003,0.49221 0.24591,-2.34598 -6.29537,5.0704 -5.32664,3.23312 0.60526,-1.14793 2.04655,-3.54461 2.91514,-2.58044 0.90169,1.00092 -1.54341,2.21743 -2.16586,3.41219 -1.77065,3.39863 -1.90554,4.77133 -2.88652,8.48772 -1.09596,6.99442 -1.12411,14.56621 1.96278,21.11858 0.41925,0.88993 1.00901,1.68906 1.51351,2.53359 2.50355,2.69971 4.75436,2.81998 7.66588,0.51821 0.7394,-0.58454 2.80283,-2.50738 2.02846,-1.97002 -1.2101,0.83972 -2.23131,1.92331 -3.34697,2.88497 3.78469,-5.32174 6.13792,-11.44571 8.57858,-17.45376 1.21245,-2.97309 2.39958,-6.01321 4.52481,-8.46414 4.90637,-4.79671 5.87017,-8.53814 11.12461,-4.60854 5.74384,6.04196 8.68248,14.17245 11.69621,21.79296 3.49487,9.75938 6.92322,19.72844 8.02933,30.09854 0.19948,1.87016 0.22874,3.75459 0.34311,5.63188 0.21957,11.39643 -4.26466,21.64198 -9.51063,31.48185 -2.80539,4.67236 -5.718,9.40274 -9.52343,13.35295 -3.77946,3.92326 -7.95517,8.74148 -12.94644,11.55852 -1.30769,0.73806 -2.74081,1.22764 -4.11121,1.84146 -1.44208,0.30177 -2.85906,0.77087 -4.32622,0.90531 -6.74427,0.61799 -13.06877,-2.42876 -18.28301,-6.43399 -1.54033,-1.18318 -2.93116,-2.54921 -4.39674,-3.82382 -7.2761,-7.31967 -13.54322,-15.72552 -17.52138,-25.28042 -1.2799,-4.95078 -1.26181,-4.76221 1.28122,-9.09392 0,0 0.1235,-0.10436 0.1235,-0.10436 l 0,0 c 0.56913,0.003 1.22416,-0.29096 1.70741,0.01 1.34391,0.83618 0.87229,3.4683 2.26378,4.17408 4.72476,9.01348 10.21251,17.66166 17.60354,24.75805 1.44622,1.2472 2.81745,2.58707 4.33868,3.7416 5.10112,3.8715 11.28905,6.76003 17.84849,5.97247 1.42669,-0.17129 2.79457,-0.67045 4.19185,-1.00568 1.33093,-0.63917 2.72503,-1.16074 3.99279,-1.9175 1.33426,-0.79647 2.31143,-2.22489 3.78297,-2.72409 0.8684,-0.2946 -2.4113,2.76365 -1.82389,2.05949 3.50742,-4.20449 7.07612,-8.3429 9.64079,-13.23569 5.27421,-9.71889 9.85064,-19.84726 9.7779,-31.14805 -0.0956,-1.86269 -0.10441,-3.73186 -0.28679,-5.58807 -1.01493,-10.32949 -4.40942,-20.26463 -7.90561,-29.96737 -2.98335,-7.47239 -5.84557,-15.46504 -11.45774,-21.42081 -0.84218,-0.61873 -1.16622,-1.01977 -2.15589,-1.23944 -2.73494,-0.60705 -7.43705,6.31433 2.77093,-4.36153 -2.37977,2.2533 -3.57804,5.34343 -4.81211,8.31833 -2.46347,6.0175 -4.77971,12.16302 -8.4103,17.6014 -2.45778,2.63997 -4.85429,5.33836 -7.37335,7.91993 -2.30428,2.36145 -5.70265,4.43398 -8.93135,2.40211 -0.72822,-0.45828 -1.26878,-1.16255 -1.90316,-1.74382 -0.5338,-0.88376 -1.16188,-1.71704 -1.60138,-2.65129 -3.15155,-6.69923 -2.98624,-14.52312 -2.03467,-21.67192 0.36714,-1.51281 0.63413,-3.05351 1.10141,-4.53845 2.25407,-7.16294 5.7171,-10.22668 11.50003,-15.66648 0.81271,-0.76449 1.77198,-1.37389 2.7563,-1.89933 0.89641,-0.47852 1.89755,-0.72763 2.84633,-1.09145 0.94152,-0.11135 1.87649,-0.33992 2.82455,-0.33405 4.86585,0.0301 8.47324,3.31018 10.79698,7.28553 2.05218,4.47048 3.57235,9.41458 1.56714,14.19239 -5.84182,6.00643 -6.52032,8.82728 -14.16089,6.53011 0,0 4.62284,-5.1203 4.62284,-5.1203 z"
         id="path3280"
         style="fill:#ff0000;fill-opacity:1;fill-rule:nonzero;stroke:none" />
    </g>
    <g
       id="g3385"
       transform="matrix(0.99794644,0.06405397,-0.06405397,0.99794644,-83.187134,-132.97478)">
      <path
         transform="translate(0,284.36218)"
         inkscape:connector-curvature="0"
         d="m 306.71925,368.41655 c 3.37572,4.37778 5.93375,9.29955 8.40731,14.22133 2.15191,4.40964 4.0244,8.9461 5.87248,13.48884 0.5912,1.28355 1.00845,2.67432 1.78667,3.86616 -0.14548,-0.13874 0.18445,0.2168 0.13602,0.16463 -2.03961,-2.19699 0.4044,0.12375 -5.86609,4.44428 -0.30389,0.20939 0.0982,-0.73155 0.14223,-1.09796 0.0571,-0.47474 0.1074,-0.95026 0.1611,-1.4254 0.39816,-4.612 1.47218,-9.09186 2.93821,-13.46968 1.5683,-4.4146 3.94004,-8.44745 6.717,-12.19713 3.14498,-3.85382 6.63568,-7.45161 10.40839,-10.69523 0.52054,-0.39045 1.03476,-0.79755 0.44981,0.0928 -0.70648,1.27966 -0.26857,0.56928 -1.38194,2.08755 0,0 -0.10927,0.11917 -0.10927,0.11917 l 0,0 c -1.34006,1.45235 -0.79395,0.75515 -1.70011,2.04172 -0.60388,0.76869 -1.26483,1.48203 -2.01166,2.1163 -2.02027,1.83113 -5.0717,4.9722 3.67978,-3.78224 0.29571,-0.29581 -0.59113,0.59204 -0.87866,0.8958 -0.99131,1.04729 -1.092,1.19945 -2.06311,2.34391 -2.84553,3.67245 -5.27274,7.64915 -6.90168,12.01984 -1.51247,4.30758 -2.63172,8.72605 -3.0027,13.29181 -0.009,0.0904 -0.25327,2.52524 -0.25833,2.53181 -1.06674,1.38504 -4.6021,9.22038 -6.28851,5.94439 -0.43153,-1.41671 -1.02139,-2.78146 -1.5098,-4.17829 -1.7443,-4.5917 -3.52902,-9.17133 -5.65804,-13.60232 -2.39033,-4.9158 -4.8625,-9.84005 -8.19259,-14.20184 0,0 5.12349,-5.02027 5.12349,-5.02027 z"
         id="path3282"
         style="fill:#000000;fill-opacity:1;fill-rule:nonzero;stroke:none" />
      <path
         transform="translate(0,284.36218)"
         inkscape:connector-curvature="0"
         d="m 353.61953,384.77233 c 1.03527,-3.34716 1.44714,-6.88353 0.22493,-10.21724 -1.80234,-2.88845 -4.82338,-1.39494 -7.13676,3.8e-4 -0.51142,0.43432 -2.00427,1.78179 -1.53426,1.30296 1.27354,-1.29746 2.46513,-2.71145 3.94853,-3.76256 0.62463,-0.4426 -0.92171,1.22713 -1.30532,1.88962 -1.32334,2.28541 -1.83886,4.64653 -2.2927,7.21119 -0.40469,4.32844 0.0928,8.7406 2.64844,12.34673 2.36643,2.28934 4.7137,0.46464 6.56285,-1.47365 -1.49632,1.39995 -2.82869,2.99887 -4.48896,4.19984 -0.51488,0.37245 0.67642,-1.07837 0.95994,-1.64708 1.36153,-2.73101 1.88501,-5.74221 2.372,-8.72217 0.53455,-3.60051 0.6151,-7.24711 1.08529,-10.85404 0.19235,-1.36736 1.07545,-2.10563 1.9445,-3.10939 0,0 0.1022,-0.1253 0.1022,-0.1253 l 0,0 c 0.62115,-0.52958 2.13295,-2.36983 2.77143,-0.8734 0.47995,3.32496 0.21407,6.71164 0.0126,10.04789 -0.30143,2.69621 -1.04926,8.38807 -2.85207,10.49644 -2.09469,2.44971 -4.41528,4.69685 -6.62292,7.04528 -2.54344,2.20622 -4.87685,3.1756 -7.59699,0.57662 -2.69445,-3.77538 -3.38197,-8.34749 -2.94767,-12.91534 1.36972,-8.3359 4.43356,-12.32438 11.88612,-17.66756 3.04801,-1.49677 5.76638,-2.18404 7.79394,1.16478 1.28994,3.50697 1.08234,7.12876 -0.0208,10.68307 0,0 -5.51435,4.40293 -5.51435,4.40293 z"
         id="path3284"
         style="fill:#000000;fill-opacity:1;fill-rule:nonzero;stroke:none" />
      <path
         transform="translate(0,284.36218)"
         inkscape:connector-curvature="0"
         d="m 374.12625,369.75547 c 1.45341,4.3258 2.77427,8.69391 4.26221,13.00841 0.86505,2.47277 1.59491,4.99525 2.57083,7.42837 1.14766,2.70623 1.8075,0.77096 -5.88523,4.96988 -0.25862,0.14116 -0.7169,-3.58409 -0.74157,-3.78816 -0.37942,-3.96806 0.1371,-7.8702 1.49328,-11.6018 2.92351,-5.73158 7.97233,-10.38715 13.94011,-12.71646 3.81017,-1.28597 7.6296,-1.08039 11.34182,0.33793 3.71653,1.84192 5.03082,5.3951 5.98983,9.1743 0.78204,3.95881 1.16866,7.98138 1.7205,11.97607 0.08,1.67838 0.70247,3.41033 0.17667,5.08555 -0.26259,0.83663 -0.73424,1.59264 -1.10137,2.38895 0,0 -0.11791,0.11063 -0.11791,0.11063 l 0,0 c -0.68101,0.17311 -1.34041,0.52652 -2.04304,0.51933 -1.54385,-0.0158 -2.00702,-2.07625 -2.54832,-3.08775 -1.09788,-3.81896 -1.29266,-7.77482 -2.02231,-11.66998 -0.84322,-3.53453 -1.92953,-6.93587 -5.45507,-8.60846 -3.56896,-1.26975 -7.2232,-1.32949 -10.82319,-0.0399 -1.52831,0.65242 -2.00935,0.77307 -3.39577,1.70175 -0.51863,0.3474 -1.88927,1.61652 -1.48506,1.14084 7.76572,-9.13896 3.25298,-3.31415 1.92719,-1.14615 -1.49439,3.59183 -2.04415,7.39537 -1.70568,11.28306 0.0813,0.71652 0.70018,3.52649 0.64363,3.60202 -8.21811,10.97542 -4.68933,8.36432 -5.59577,5.56344 -0.76094,-2.56501 -1.55006,-5.12103 -2.32233,-7.68267 -1.28596,-4.46326 -2.6141,-8.91455 -3.84624,-13.39313 0,0 5.02279,-4.55604 5.02279,-4.55604 z"
         id="path3286"
         style="fill:#000000;fill-opacity:1;fill-rule:nonzero;stroke:none" />
    </g>
    <g
       id="g3390"
       style="fill:#008000"
       transform="matrix(0.99792805,0.06433983,-0.06433983,0.99792805,83.121315,-25.915804)">
      <path
         inkscape:connector-curvature="0"
         d="m 163.94873,649.55699 c -0.92702,-2.2671 -2.01783,-4.44917 -3.29454,-6.53779 -0.28728,-0.4134 -0.58292,-0.99075 -1.11034,-1.09395 0.0105,-0.0656 -0.16401,0.12828 -0.12286,0.0964 5.43246,-4.21052 4.94508,-6.38494 5.49392,-3.23168 0.29483,1.6939 0.29498,1.76341 0.59352,3.68846 1.24782,9.38318 2.54228,18.75858 3.96449,28.11714 1.37551,9.1059 3.10466,18.15295 5.2749,27.10233 0.26538,3.06518 2.67281,6.18287 1.98361,9.30322 -1.01247,1.28646 -0.55654,0.68909 -1.37584,1.78594 0,0 -0.0966,0.12965 -0.0966,0.12965 l 0,0 c -1.70021,1.73829 -0.76497,0.99792 -2.79303,2.23703 -0.26016,-0.0221 -0.54288,0.042 -0.78047,-0.0662 -1.74837,-0.79668 -2.10296,-6.58463 -2.8292,-8.11364 -2.12324,-9.00289 -3.82627,-18.09628 -5.21666,-27.2412 -1.4354,-9.34295 -2.82738,-18.69347 -4.03434,-28.06909 -0.81214,-6.51716 -1.72649,-3.65197 4.58738,-10.2063 0.0453,-0.047 -0.12976,0.23597 -0.0755,0.18053 -0.15644,0.63919 0.13248,1.33053 0.24813,1.94838 0.64968,2.45363 1.53797,4.81952 2.66425,7.09722 0,0 -3.08077,2.87359 -3.08077,2.87359 z"
         id="path3288"
         style="fill:#008000;fill-opacity:1;fill-rule:nonzero;stroke:none" />
      <path
         inkscape:connector-curvature="0"
         d="m 125.5471,662.83768 c -2.76226,-2.60402 -4.97903,-5.57414 -6.26906,-9.14883 -1.07971,-4.72835 0.74591,-7.96534 3.88824,-11.34265 2.54034,-2.33162 4.95092,-4.81302 7.62102,-6.99484 0.82779,-0.67642 1.8487,-1.0797 2.81641,-1.53393 5.6538,-2.65379 10.83416,-3.22717 16.99009,-3.56622 11.50611,0.25194 22.37368,4.31196 32.12384,10.27047 2.23369,1.36505 4.33864,2.93035 6.50796,4.39553 9.42039,7.34023 18.00977,16.44789 21.73611,28.06515 0.60787,1.8951 0.8949,3.87849 1.34236,5.81774 0.80588,7.22957 -0.68326,14.18132 -5.20949,19.9937 -2.9651,3.80764 -10.99308,10.2108 -13.22631,12.14843 -8.05523,4.37245 -17.06904,5.23 -25.99438,3.4902 -1.72197,-0.33567 -3.40255,-0.85679 -5.10383,-1.28519 -7.76313,-2.41824 -15.23084,-5.82568 -21.59192,-10.93107 -1.71369,-2.61435 -1.11023,-1.22592 -1.86144,-4.14272 0,0 0.112,-0.11661 0.112,-0.11661 l 0,0 c 3.57877,-0.0607 1.76049,-0.16045 5.45296,0.33188 7.85557,2.63567 15.17822,6.59223 23.09991,9.0491 1.67891,0.41101 3.33754,0.91603 5.03671,1.23302 8.82695,1.64671 17.69595,0.63621 25.54295,-3.86837 -0.43293,0.806 -2.11218,2.83688 -1.29878,2.418 1.51197,-0.77862 2.52462,-2.29639 3.60813,-3.60724 4.63,-5.60147 6.30807,-12.38728 5.63959,-19.54025 -0.41301,-1.91347 -0.66344,-3.86942 -1.23903,-5.74043 -3.54732,-11.53071 -12.05447,-20.54772 -21.36047,-27.79163 -2.15385,-1.44702 -4.24275,-2.99575 -6.46155,-4.34106 -9.62291,-5.83457 -20.43175,-9.78841 -31.75276,-10.04535 -6.16957,0.39117 -11.12022,0.96714 -16.72559,3.78905 -0.94859,0.47754 -2.94289,2.65461 -2.74906,1.61043 0.28997,-1.56213 2.07943,-2.40278 3.11915,-3.60418 -3.22739,3.13578 -5.29918,6.20195 -4.61592,10.89043 0.98834,3.63484 3.04429,6.67369 5.36122,9.61341 0,0 -4.53906,4.48403 -4.53906,4.48403 z"
         id="path3290"
         style="fill:#008000;fill-opacity:1;fill-rule:nonzero;stroke:none" />
      <path
         inkscape:connector-curvature="0"
         d="m 246.81544,690.8176 c 0.13438,-3.61762 -0.75501,-6.98608 -2.97982,-9.84227 -3.33681,-3.05478 -7.52766,-1.79708 -11.3884,-0.57137 -0.91775,0.39229 -1.85508,0.74163 -2.75325,1.17689 -1.94008,0.94016 -3.82104,2.05491 -5.52791,3.37671 -0.88878,0.68828 -3.3023,3.04442 -2.54085,2.21746 0.9903,-1.07552 1.77307,-2.85206 3.23058,-2.96653 1.15309,-0.0906 -1.3037,1.91092 -1.95555,2.86638 -2.8153,5.3424 -3.53013,11.49058 -1.49502,17.25174 0.38306,1.0844 0.96132,2.08962 1.44198,3.13443 3.40466,5.15003 8.01429,7.36395 14.19867,6.32469 1.20124,-0.20186 2.35426,-0.62642 3.53139,-0.93963 2.93466,-1.33149 3.83815,-1.52586 6.38345,-3.53142 0.91813,-0.72343 3.59109,-2.94914 2.56255,-2.39378 -1.30474,0.7045 -1.93069,2.89097 -3.41299,2.85298 -1.10363,-0.0283 1.14434,-1.8942 1.60076,-2.89942 0.44797,-0.98661 0.73598,-2.03829 1.10397,-3.05743 1.04755,-3.9177 1.15734,-7.99154 1.20406,-12.02176 0.0101,-0.87502 -0.0679,-1.75344 0.008,-2.62521 0.0819,-0.94058 0.30919,-1.86279 0.46379,-2.79419 0.19965,-0.88183 0.3993,-1.76365 0.59895,-2.64547 0,0 0.11971,-0.10868 0.11971,-0.10868 l 0,0 c 0.5432,0.21756 1.0864,0.43512 1.6296,0.65268 0.46645,0.39246 1.05491,0.67442 1.39934,1.17737 0.40345,0.58913 0.56951,1.31319 0.77464,1.99713 1.12604,3.7545 0.88257,7.66145 -0.018,11.4339 -0.56731,1.73673 -1.35801,4.69576 -2.55071,6.16722 -4.99959,6.16812 -9.47728,11.1681 -16.84099,13.91578 -1.21726,0.28268 -2.41324,0.68183 -3.65178,0.84806 -6.47499,0.86906 -11.31472,-1.6369 -14.87903,-6.96777 -0.5109,-1.08053 -1.11955,-2.12004 -1.5327,-3.24159 -2.16056,-5.86517 -1.63024,-12.18883 1.06674,-17.75885 0.62713,-0.98698 1.10834,-2.08356 1.88141,-2.96095 5.50174,-6.24414 11.01485,-11.87293 18.93302,-14.66485 4.17408,-1.213 8.72303,-2.279 12.04322,1.29966 2.20685,3.22662 2.99045,6.91018 2.69918,10.81032 0,0 -5.3481,4.48777 -5.3481,4.48777 z"
         id="path3292"
         style="fill:#008000;fill-opacity:1;fill-rule:nonzero;stroke:none" />
      <path
         inkscape:connector-curvature="0"
         d="m 273.55608,634.91594 c 2.18147,9.54357 4.09211,19.14552 6.27324,28.69063 2.51357,10.96093 5.66021,21.75699 9.25816,32.40697 0.8969,2.61325 1.86817,5.19843 2.92717,7.74986 0.32202,0.77581 0.78246,1.56337 0.76499,2.42391 -1.97896,-0.55677 -4.98865,5.36491 -2.3156,0.72265 0,0 0.1226,-0.10541 0.1226,-0.10541 l 0,0 c 0.36055,0.004 1.23581,-0.31378 1.08164,0.0122 -2.00129,4.23088 -1.53294,3.98339 -3.81766,4.31075 -0.18177,-0.0443 -0.39021,-0.0284 -0.5453,-0.13304 -1.71156,-1.15501 -3.07013,-7.93062 -4.02459,-9.68837 -3.53839,-10.71103 -6.6705,-21.55088 -9.21907,-32.54326 -2.2023,-9.49717 -4.1793,-19.04326 -6.41253,-28.53268 0,0 5.90695,-5.31417 5.90695,-5.31417 z"
         id="path3294"
         style="fill:#008000;fill-opacity:1;fill-rule:nonzero;stroke:none" />
      <path
         inkscape:connector-curvature="0"
         d="m 304.31953,661.38904 c -2.52052,3.99322 -5.59208,7.59085 -8.66998,11.1573 -2.02881,2.33564 -4.05117,4.6815 -5.88573,7.17466 -0.58627,0.74748 -0.90334,1.47548 -0.8542,2.42229 0.0673,1.53364 0.90416,2.79409 1.76135,4.00809 2.39827,3.11609 5.47939,5.58459 8.57945,7.96111 4.2192,3.18031 8.85258,5.72106 13.51098,8.18444 3.07526,1.66088 6.59498,2.8314 8.39512,6.00485 -0.28606,1.89964 -0.005,0.95295 -0.90849,2.81976 0,0 -0.11209,0.11653 -0.11209,0.11653 l 0,0 c -2.01192,1.13935 -0.98158,0.71747 -3.07184,1.31142 -3.58471,-0.71213 -6.52536,-2.85215 -9.75572,-4.4655 -4.68635,-2.50063 -9.3458,-5.07949 -13.60392,-8.27655 -3.16862,-2.41727 -6.31368,-4.92721 -8.79724,-8.0753 -0.96377,-1.31383 -1.8846,-2.67711 -2.10367,-4.33191 -0.0332,-1.12819 0.0235,-2.11877 0.77302,-3.03745 1.8813,-2.57978 3.97075,-4.99741 6.07552,-7.39588 3.17087,-3.60424 6.35568,-7.22672 8.99078,-11.25195 0,0 5.67666,-4.32591 5.67666,-4.32591 z"
         id="path3296"
         style="fill:#008000;fill-opacity:1;fill-rule:nonzero;stroke:none" />
      <path
         inkscape:connector-curvature="0"
         d="m 331.50917,658.25208 c -1.06074,6.95734 -0.21469,13.96121 1.03954,20.82443 1.48361,6.1858 3.57159,12.56297 7.99469,17.32833 0.67166,0.72363 1.45764,1.33204 2.18647,1.99806 5.16399,3.41319 8.55405,3.2415 13.69453,0.039 0.65207,-0.59083 2.60671,-2.36504 1.9562,-1.77249 -1.24985,1.13849 -2.20556,2.73218 -3.75424,3.41032 -0.89375,0.39136 1.11229,-1.60721 1.5853,-2.46057 1.59554,-2.87855 2.40138,-5.91086 3.165,-9.08222 1.20518,-6.3511 0.79394,-12.82052 0.0738,-19.19763 -0.25141,-1.86005 -0.50189,-3.72461 -0.91748,-5.5569 -0.0695,-0.30649 -0.14568,-0.61184 -0.23712,-0.91251 -0.0404,-0.13292 -0.26453,-0.29695 -0.15772,-0.38579 1.89614,-1.57714 3.95625,-2.94601 5.93438,-4.41901 0.0216,6.44843 1.30655,12.83874 2.56555,19.1399 1.53946,7.5528 3.96413,14.86578 7.20859,21.84838 0.56938,1.77334 4.06272,5.84255 3.21028,7.85735 -0.22394,0.52928 -0.66284,0.93904 -0.99426,1.40857 0,0 -1.0988,1.19341 -1.0988,1.19341 l 0,0 c -0.56201,0.37932 -1.05338,0.89406 -1.68604,1.13796 -2.22791,0.85893 -4.5623,-5.00773 -5.22662,-6.19619 -3.24881,-7.05128 -5.69661,-14.42392 -7.27975,-22.03284 -1.29896,-6.34098 -2.53974,-12.73238 -2.87105,-19.21038 2.04909,-2.06864 3.97926,-4.26227 6.14727,-6.20591 0.13479,-0.12083 0.167,0.32309 0.22244,0.49541 0.68622,2.13274 0.77357,4.4253 1.15851,6.61527 0.72879,6.44877 1.1741,12.98652 0.0735,19.425 -2.13377,9.65955 -5.40635,14.79526 -13.91454,21.20872 -0.75033,0.40746 -1.46313,0.89331 -2.25099,1.22239 -4.25277,1.77635 -8.58717,0.70947 -12.18548,-1.94415 -0.75361,-0.69868 -1.56494,-1.33985 -2.26083,-2.09604 -4.4881,-4.87698 -6.67188,-11.3398 -8.21511,-17.64862 -1.31072,-6.89125 -2.21974,-13.91883 -1.33316,-20.93166 0,0 6.16716,-5.09955 6.16716,-5.09955 z"
         id="path3298"
         style="fill:#008000;fill-opacity:1;fill-rule:nonzero;stroke:none" />
      <path
         inkscape:connector-curvature="0"
         d="m 382.8198,659.16206 c 2.04664,6.22289 3.86831,12.51631 5.80827,18.7727 1.75752,5.64335 3.77031,11.20229 5.89754,16.71548 2.26891,5.91917 2.94372,2.93177 -4.5954,8.45363 -1.1703,-4.67632 -1.57252,-9.49432 -1.86678,-14.29116 -0.32337,-6.20089 0.0353,-12.39996 1.43105,-18.45161 0.88667,-2.94338 2.11251,-5.89453 4.33594,-8.09974 7.00303,-6.94565 4.32468,-5.35404 8.83979,-7.69444 4.8999,-1.71131 7.60227,-0.7651 11.47544,2.47279 4.94231,5.47625 6.87254,12.751 8.72903,19.7106 1.53903,6.29812 2.73042,12.68295 3.60165,19.10711 0.39529,4.19976 -0.006,4.0124 -6.38154,7.17594 -0.5894,0.29247 -1.63865,-5.52153 -1.71009,-5.90205 -1.06061,-6.81024 -0.5409,-13.6499 0.89664,-20.35026 2.25893,-8.38073 7.82265,-14.74514 14.90363,-19.75912 3.45328,-1.95057 7.47041,-2.67388 11.00534,-0.43275 0.77597,0.49196 1.42784,1.15668 2.14175,1.73502 5.34773,5.99626 6.93968,14.00621 8.31607,21.67829 0.61242,3.71004 0.98743,7.44429 1.05084,11.20359 0.0159,0.94053 0.0462,4.32871 -0.22644,5.38062 -0.24392,0.94109 -0.74932,1.79419 -1.12398,2.69128 -0.18792,0.54878 -0.37583,1.09756 -0.56375,1.64633 0,0 -0.12113,0.1071 -0.12113,0.1071 l 0,0 c -0.304,-0.12088 -0.60799,-0.24177 -0.91199,-0.36266 -0.47682,-0.15643 -1.09174,-0.099 -1.43044,-0.46929 -0.47654,-0.52098 -1.03848,-3.89344 -1.09756,-4.2276 -0.63118,-3.57002 -0.9327,-7.17892 -1.45851,-10.76437 -1.29947,-7.48416 -2.78102,-15.34906 -7.98644,-21.20566 -0.66872,-0.52775 -1.27724,-1.14238 -2.00617,-1.58325 -3.39854,-2.05552 -7.2157,-0.98293 -10.35657,0.96558 -0.6508,0.50171 -2.44626,2.16193 -1.95241,1.50514 1.04598,-1.3911 2.30901,-2.62144 3.63737,-3.74604 0.71069,-0.60167 -1.22802,1.40427 -1.76766,2.16314 -1.82522,2.56669 -3.06173,5.46377 -3.93399,8.47713 -1.52471,6.59631 -2.09269,13.34371 -1.06679,20.07638 0.33671,1.84211 0.40921,2.64167 0.96448,4.34331 0.12541,0.38432 0.6941,0.78847 0.46368,1.12064 -7.23017,10.42328 -5.03959,7.45178 -5.28113,3.78701 -0.75199,-6.42878 -1.94853,-12.80611 -3.44975,-19.1006 -1.79119,-6.79899 -3.63576,-13.93977 -8.45634,-19.29208 -3.72012,-3.04037 -6.23268,-3.71414 -10.77121,-1.82499 -3.31057,1.99726 -1.98108,1.39267 2.4517,-3.35403 0.47291,-0.50639 -0.99498,0.9694 -1.42913,1.50938 -1.49455,1.85886 -2.4516,4.04603 -3.17235,6.30066 -1.51143,5.9795 -1.90199,12.13262 -1.60447,18.28973 0.27857,4.72957 0.67434,9.47999 1.84833,14.08589 -6.72528,7.55219 -4.91546,8.51698 -7.1893,2.26229 -2.00381,-5.67047 -3.86163,-11.39512 -5.44822,-17.19739 -1.75108,-6.44594 -3.35729,-12.92946 -5.1223,-19.37159 0,0 4.6833,-4.25608 4.6833,-4.25608 z"
         id="path3300"
         style="fill:#008000;fill-opacity:1;fill-rule:nonzero;stroke:none" />
      <path
         inkscape:connector-curvature="0"
         d="m 460.5493,671.32914 c 4.13526,1.04061 8.26185,1.00456 12.43458,0.29888 4.38578,-0.9335 8.27947,-2.96782 11.63144,-5.90462 -1.41685,1.38273 -2.75133,2.85523 -4.25056,4.14819 -0.46959,0.40498 0.79662,-0.95343 1.14272,-1.46796 1.34189,-1.99491 1.77824,-3.94529 1.66415,-6.30608 -0.79627,-3.50749 -2.90709,-4.7922 -6.34472,-4.96882 -1.46649,0.25815 -1.87127,0.20224 -3.20955,0.97103 -0.54207,0.3114 -1.93745,1.5653 -1.51711,1.10256 1.29997,-1.43111 2.6213,-2.87536 4.17397,-4.02743 0.62941,-0.46702 -0.95544,1.24847 -1.34515,1.92847 -0.44547,0.77731 -0.76786,1.61895 -1.15179,2.42843 -2.35487,6.39997 -2.24418,13.1719 -0.98162,19.77577 1.14489,4.26439 3.41819,8.21461 7.82978,9.68964 0.80786,0.27011 1.66342,0.36801 2.49513,0.55202 5.30363,0.40817 10.46025,-1.16512 15.66268,-1.94346 4.14913,0.24924 -0.22374,-0.46487 2.32,1.17392 0.34266,0.22076 0.81002,0.092 1.21503,0.13797 0,0 -0.1032,0.12446 -0.1032,0.12446 l 0,0 c -0.60111,0.19379 -1.23848,0.29881 -1.80332,0.58137 -9.64874,4.8268 2.76251,-0.65345 -5.68131,2.97651 -5.45256,1.87833 -11.06689,3.57478 -16.90788,2.86771 -0.87425,-0.22044 -1.77556,-0.35283 -2.62276,-0.66131 -4.58166,-1.66827 -7.0694,-5.74713 -8.31849,-10.24601 -1.3464,-6.69711 -1.52676,-13.56521 0.64735,-20.13112 2.57547,-6.10307 7.49788,-12.74081 14.51064,-13.2976 3.77151,0.45038 6.13411,1.89561 7.17148,5.72452 0.7774,7.17849 -4.43249,10.46622 -9.33915,15.27804 -3.49937,2.81311 -7.48424,4.80914 -11.94289,5.58824 -4.09431,0.49589 -8.1781,0.34158 -12.0518,-1.23442 0,0 4.67235,-5.1589 4.67235,-5.1589 z"
         id="path3302"
         style="fill:#008000;fill-opacity:1;fill-rule:nonzero;stroke:none" />
      <path
         inkscape:connector-curvature="0"
         d="m 512.7885,662.61596 c 1.03299,6.35971 2.82019,12.55245 4.77534,18.67968 1.31705,3.98993 2.70912,7.95594 4.37993,11.81253 1.4057,3.04365 1.26878,1.55439 -5.57782,5.68831 -0.29193,0.17627 -0.32944,-0.59722 -0.49043,-0.89785 -0.22841,-0.42654 -0.45182,-0.85575 -0.67773,-1.28362 -2.82817,-5.16635 -4.3132,-10.83493 -5.3554,-16.58863 -0.64195,-5.516 -1.00432,-11.42716 1.17214,-16.68646 0.34367,-0.83047 0.8256,-1.59673 1.23841,-2.39509 4.01168,-5.43635 8.96903,-11.1941 16.18047,-10.92738 0.87911,0.0325 1.74528,0.22262 2.61792,0.33392 6.99613,1.79498 10.502,6.68095 13.74546,12.74063 3.16206,6.82845 4.72389,14.21977 6.29396,21.53531 0.47559,3.3911 1.91479,6.91414 1.62252,10.39868 -0.16221,1.93402 -0.80336,3.1021 -1.52764,4.86878 0,0 -0.12016,0.10818 -0.12016,0.10818 l 0,0 c -1.16772,-0.0316 -2.11241,0.19591 -3.01208,-0.79902 -1.53186,-1.69404 -2.29089,-7.1569 -2.86775,-9.31579 -1.52239,-7.26146 -3.01949,-14.60342 -6.1254,-21.38911 -3.1022,-5.84345 -6.43007,-10.59181 -13.23582,-12.16262 -2.56461,-0.2388 -4.79328,-0.31419 -7.22363,0.7308 -0.73039,0.31405 -2.46894,1.85582 -2.08389,1.16025 0.8799,-1.5895 2.42001,-2.71124 3.67152,-4.02823 0.5768,-0.60697 -1.09762,1.26479 -1.64642,1.89719 -0.44351,0.76546 -0.95865,1.49368 -1.33052,2.29639 -2.37828,5.13373 -2.1584,11.02265 -1.56531,16.49884 0.97467,5.68535 2.42364,11.27339 5.242,16.35736 0.22862,0.42001 0.45457,0.8415 0.68587,1.26005 0.16729,0.30274 0.70753,0.61991 0.50986,0.90376 -4.52363,6.49591 -4.40394,8.35595 -5.87257,4.9793 -1.46135,-4.01434 -2.88707,-8.04441 -4.12173,-12.13512 -1.8149,-6.3104 -3.45756,-12.68872 -4.35162,-19.20396 0,0 5.05052,-4.43708 5.05052,-4.43708 z"
         id="path3304"
         style="fill:#008000;fill-opacity:1;fill-rule:nonzero;stroke:none" />
      <path
         inkscape:connector-curvature="0"
         d="m 568.3154,617.79775 c -0.79172,9.25825 0.21601,18.53566 1.39323,27.71267 1.33817,10.1077 3.88326,19.94857 8.3841,29.10413 2.44266,4.92058 6.29795,8.74752 10.03243,12.66194 2.04476,2.37504 2.52116,2.56995 1.13439,5.48307 0,0 -0.10824,0.12011 -0.10824,0.12011 l 0,0 c -2.83041,1.78284 -3.62055,1.6679 -6.39545,-0.18144 -4.35381,-3.42334 -7.74265,-7.86735 -10.40861,-12.70459 -4.52812,-9.24524 -7.09874,-19.17206 -8.47238,-29.3684 -1.22105,-9.21168 -2.33811,-18.53262 -1.56404,-27.83523 0,0 6.00457,-4.99226 6.00457,-4.99226 z"
         id="path3306"
         style="fill:#008000;fill-opacity:1;fill-rule:nonzero;stroke:none" />
      <path
         inkscape:connector-curvature="0"
         d="m 580.005,653.87776 c -5.96322,0.9128 -11.89471,2.00458 -17.8193,3.13761 -4.25143,0.45047 -9.56263,2.58665 -13.79131,1.48584 -0.22183,-1.60045 0.25718,-1.28856 -1.08905,-1.3246 0,0 0.10295,-0.12467 0.10295,-0.12467 l 0,0 c 2.27022,-0.70284 0.88335,-0.15043 3.94237,-2.12475 5.03483,-1.97891 10.41427,-2.77476 15.69984,-3.82964 5.90548,-1.11899 11.8192,-2.21698 17.77582,-3.03062 0,0 -4.82132,5.81083 -4.82132,5.81083 z"
         id="path3308"
         style="fill:#008000;fill-opacity:1;fill-rule:nonzero;stroke:none" />
      <path
         inkscape:connector-curvature="0"
         d="m 607.13659,671.03002 c 4.44609,0.0977 8.611,-1.01158 12.53558,-3.0275 0.5967,-0.41184 1.22485,-0.78147 1.79011,-1.2355 0.54164,-0.43506 2.02963,-1.89818 1.52147,-1.42445 -1.39988,1.30503 -2.62001,2.83341 -4.19662,3.91835 -0.54443,0.37465 0.72134,-1.11337 0.9948,-1.71503 0.7152,-1.57359 0.66102,-2.10038 0.88838,-3.78607 -0.28678,-5.22399 -2.87992,-6.38748 -7.66654,-6.82632 -5.86166,0.1587 -10.70046,2.36241 -15.10126,6.11427 1.27472,-1.18388 2.28695,-2.73711 3.82416,-3.55164 0.78156,-0.41413 -1.00513,1.46409 -1.38862,2.26112 -1.89964,3.9481 -1.52641,7.99839 -0.87903,12.17559 1.89498,7.43284 5.06268,12.42113 10.98252,17.22227 4.83471,3.40411 10.46849,3.62063 16.15319,3.32168 2.22504,-0.20271 3.43053,-0.70903 5.51123,0.12567 0,0 -0.1004,0.12673 -0.1004,0.12673 l 0,0 c -3.02638,2.0108 -5.99425,3.94589 -9.59322,4.79055 -6.90266,1.53309 -11.45166,1.27244 -17.51033,-2.71235 -0.83111,-0.68285 -1.71044,-1.31092 -2.49334,-2.04855 -4.45134,-4.19392 -7.30123,-9.74759 -8.86999,-15.59944 -0.74848,-4.2684 -1.23436,-8.44012 0.49951,-12.56843 0.35003,-0.83342 0.70257,-1.69976 1.2946,-2.38286 2.29098,-2.64341 4.86828,-5.02442 7.30242,-7.53662 4.48952,-3.49002 9.67595,-5.67108 15.45493,-5.5579 5.12364,0.69613 7.87498,2.18245 8.54276,7.65388 -0.11469,1.81203 -0.0101,2.2605 -0.65484,3.98979 -1.87679,5.034 -6.79632,8.52083 -11.12551,11.43893 -4.00221,1.87124 -8.23801,2.928 -12.69186,2.59243 0,0 4.9759,-5.7586 4.9759,-5.7586 z"
         id="path3310"
         style="fill:#008000;fill-opacity:1;fill-rule:nonzero;stroke:none" />
      <path
         inkscape:connector-curvature="0"
         d="m 637.54446,669.68546 c 2.30027,4.2405 4.57393,8.49175 6.99758,12.66398 1.1712,1.68967 1.95515,3.68897 3.23515,5.3073 -1.84565,1.53463 -3.51604,3.30874 -5.53696,4.60389 -0.25275,0.16198 -0.24203,-0.54952 -0.35608,-0.8272 -0.18094,-0.44054 -0.36516,-0.88004 -0.52882,-1.32729 -0.88995,-2.43211 -1.49762,-4.90475 -2.09029,-7.42288 -1.45264,-7.07959 -2.10962,-14.30838 -1.44571,-21.51074 0.4213,-2.31229 0.98816,-4.73296 2.74335,-6.44536 5.53656,-5.40156 5.62182,-7.11514 11.5965,-7.25333 6.09544,0.71704 10.24077,4.82699 13.68422,9.55897 3.7115,5.94462 4.99524,12.82833 6.07395,19.63794 0.12325,3.04246 1.19351,6.06684 1.18199,9.11921 -0.0274,7.25889 -0.84039,-0.067 0.006,5.97191 0,0 -0.1176,0.11096 -0.1176,0.11096 l 0,0 c -0.58249,-0.441 -1.13218,-0.92906 -1.74747,-1.323 -0.67867,-0.43452 -1.55878,-0.58063 -2.12358,-1.15543 -1.73046,-1.7611 -2.01152,-5.54663 -2.82329,-7.73583 -1.44448,-6.54592 -2.56535,-13.31603 -6.13261,-19.11945 -3.27975,-4.53297 -7.25231,-8.52784 -13.14266,-8.97953 -0.70563,0.0615 -1.42486,0.0335 -2.1169,0.18442 -3.1862,0.69487 -3.97762,3.18706 2.06925,-3.76154 0.45082,-0.51804 -1.00921,0.94761 -1.39633,1.51483 -1.11221,1.62968 -1.23725,2.76501 -1.76008,4.66941 -0.94069,7.19087 -0.40829,14.41471 1.0453,21.51518 0.56352,2.49948 1.15487,4.93117 2.01409,7.34649 0.15828,0.44492 0.32893,0.8854 0.50054,1.32536 0.10939,0.28044 0.5259,0.59705 0.34237,0.83566 -1.52771,1.9862 -3.45153,3.63353 -5.17729,5.4503 -0.87479,-1.95201 -1.87167,-3.84955 -2.77698,-5.78718 -2.16198,-4.48814 -4.27248,-9.01332 -5.91952,-13.72085 0,0 3.702,-3.4462 3.702,-3.4462 z"
         id="path3312"
         style="fill:#008000;fill-opacity:1;fill-rule:nonzero;stroke:none" />
    </g>
    <g
       id="g3405"
       transform="translate(-159.02105,-98.022106)">
      <path
         transform="translate(0,284.36218)"
         inkscape:connector-curvature="0"
         d="m 359.3148,591.41813 c -3.03817,-2.38511 -5.31432,-3.29617 -9.05783,-2.04094 -0.5183,0.31801 -1.07276,0.58347 -1.55489,0.95403 -0.54038,0.41532 -1.9967,1.85613 -1.49759,1.39203 1.32271,-1.22997 2.437,-2.73191 3.96841,-3.6896 0.68793,-0.43021 -0.9286,1.33357 -1.32922,2.03914 -1.07493,1.89313 -1.26349,2.65707 -2.01704,4.69301 -1.06361,3.57624 -1.71129,7.38016 -0.79627,11.05217 1.01764,2.28745 3.65267,1.00541 5.40457,0.3465 4.01167,-1.09095 12.76455,-10.06719 3.12625,-0.72247 1.81582,-2.12445 2.78194,-4.61338 2.90078,-7.3821 0.006,-1.22724 -0.29421,-2.36088 -1.03209,-3.33898 -0.92804,-1.54445 0.72003,-3.11662 1.52979,-4.32436 0,0 0.1161,-0.11253 0.1161,-0.11253 l 0,0 c 1.1527,-0.71961 2.78625,-2.36576 4.12965,-1.18736 0.85193,1.1021 1.31968,2.35336 1.37057,3.75992 0.0177,2.8869 -0.7881,5.54316 -2.57688,7.85421 -4.55429,4.64751 -8.37822,9.4131 -14.55372,11.70779 -2.33718,0.74972 -5.0822,1.46654 -6.37582,-1.23435 -1.07362,-3.78623 -0.48672,-7.76104 0.56859,-11.49387 2.47281,-6.99362 6.51385,-12.85021 13.45298,-16.2927 3.95408,-0.87729 6.40301,0.17155 9.4856,2.69629 0,0 -5.26194,5.32417 -5.26194,5.32417 z"
         id="path3314"
         style="fill:#000000;fill-opacity:1;fill-rule:nonzero;stroke:none" />
      <path
         transform="translate(0,284.36218)"
         inkscape:connector-curvature="0"
         d="m 388.87695,595.68565 c -1.68728,-3.08703 -3.83096,-5.9527 -7.28835,-7.02393 -1.5835,-0.11504 -2.91888,0.37738 -4.15058,1.37704 -0.48537,0.39393 -1.80884,1.72513 -1.33765,1.31435 4.105,-3.57877 4.68785,-5.01343 2.51227,-1.35037 -2.50766,5.10405 -2.97028,10.70859 -2.63282,16.29704 0.30984,1.38773 0.5655,6.51481 2.31289,7.09949 0.24579,0.0823 0.51814,-0.0155 0.77722,-0.0233 0.35338,-0.15139 0.72426,-0.26714 1.06014,-0.45416 1.00317,-0.55857 2.05741,-1.4069 2.87954,-2.17995 0.58197,-0.54724 2.27995,-2.2346 1.66933,-1.71953 -3.74308,3.1573 -5.20793,5.43471 -1.92938,1.03103 4.05917,-5.75915 6.79767,-12.24753 8.97528,-18.90867 1.74771,-5.64401 2.50787,-11.48494 2.57044,-17.37421 -0.0639,-2.92672 -0.35488,-5.86815 -1.27139,-8.65946 -0.36036,-1.23834 -0.35418,0.21449 -0.2716,0.14638 1.71138,-1.41158 3.06261,-3.23335 4.81216,-4.59733 0.27212,-0.21215 -0.16359,0.6714 -0.21424,1.0127 -0.0777,0.52343 -0.11349,1.05223 -0.17024,1.57834 -0.39634,6.54699 0.3569,13.08792 1.30787,19.55457 0.97046,6.37414 2.92575,12.48396 5.99651,18.14346 0.92739,2.03465 3.52626,4.62786 4.11135,6.76008 0.33103,1.20636 0.0198,2.27418 -0.17593,3.45469 0,0 -0.11195,0.11666 -0.11195,0.11666 l 0,0 c -1.3134,0.39524 -2.49927,0.94636 -3.91982,0.64785 -2.47523,-0.52014 -4.46208,-3.59821 -5.68199,-5.52447 -3.11932,-5.7401 -5.12207,-11.93242 -6.12872,-18.39666 -0.99621,-6.568 -1.80148,-13.21612 -1.25477,-19.86862 0.0269,-0.22051 0.28239,-2.66726 0.45391,-2.88553 0.47541,-0.60504 4.65621,-8.55938 6.44271,-4.88544 1.00391,2.80243 1.41944,5.77515 1.53547,8.74129 0.0471,5.89263 -0.66122,11.74133 -2.28186,17.42186 -1.99756,6.61248 -4.54273,13.05529 -8.44154,18.80649 -3.67896,5.18235 -1.42444,2.25368 -9.0297,10.11956 -1.72963,1.7889 -3.66045,3.64273 -6.23203,3.95549 -0.36934,-0.0945 -0.76987,-0.10739 -1.108,-0.28346 -2.22224,-1.15715 -2.23889,-5.71333 -2.56685,-7.75041 -0.24589,-5.79771 0.30239,-11.60345 2.75178,-16.94465 2.54518,-4.68744 0.97775,-2.23603 7.53486,-8.90771 1.61124,-1.63939 3.61027,-2.46247 5.88335,-1.96356 3.45993,1.46848 5.60509,4.42204 7.36486,7.66138 0,0 -4.75253,4.46168 -4.75253,4.46168 z"
         id="path3316"
         style="fill:#000000;fill-opacity:1;fill-rule:nonzero;stroke:none" />
      <path
         transform="translate(0,284.36218)"
         inkscape:connector-curvature="0"
         d="m 415.30288,595.65786 c 3.92388,0.72991 7.82766,0.75916 11.72038,-0.0917 0.65675,-0.23987 1.33212,-0.43389 1.97027,-0.71962 1.33063,-0.59578 2.5106,-1.34168 3.61447,-2.29578 0.5568,-0.48126 2.1157,-2.04515 1.56169,-1.5607 -4.37417,3.82498 -5.18953,5.58791 -3.05742,2.00171 0.85161,-2.01127 2.25808,-5.59636 -0.0371,-7.28681 -0.34522,-0.25426 -0.78491,-0.34528 -1.17736,-0.51792 -2.66135,-0.35319 -5.14537,0.73289 -7.21915,2.35836 -0.65413,0.51271 -2.44936,2.24778 -1.83305,1.69019 1.26843,-1.14756 2.52627,-2.30675 3.78941,-3.46013 -2.78146,4.14935 -3.71294,7.89991 -2.04421,12.66172 2.13033,4.02977 6.23091,4.86633 10.39425,5.38747 3.86755,0.46236 7.71906,-0.22683 11.5905,-0.099 1.08793,0.17213 0.69204,-0.0819 1.28887,0.57468 0,0 -0.10054,0.12662 -0.10054,0.12662 l 0,0 c -2.29227,1.62757 -1.10688,0.8914 -3.55323,2.21328 -4.55167,1.98572 -9.34217,3.10298 -14.33911,3.04728 -4.53992,-0.38486 -8.80459,-1.61341 -11.16009,-5.85979 -1.9575,-5.11254 -1.16794,-8.79704 1.67409,-13.42165 4.3666,-4.5806 9.31293,-12.12146 16.73398,-10.79688 0.46271,0.24653 0.97484,0.41699 1.38812,0.73959 2.47016,1.92821 1.7352,5.38742 0.79258,7.87913 -2.45311,4.72059 -0.7557,1.87032 -7.78979,9.14015 -2.06743,2.13671 -4.6507,3.58676 -7.51892,4.33584 -3.92681,0.7489 -7.8576,0.68352 -11.73674,-0.37871 0,0 5.04811,-5.66735 5.04811,-5.66735 z"
         id="path3318"
         style="fill:#000000;fill-opacity:1;fill-rule:nonzero;stroke:none" />
      <path
         transform="translate(0,284.36218)"
         inkscape:connector-curvature="0"
         d="m 451.06823,610.50535 c -1.27494,-4.68637 -2.15824,-9.45251 -2.27572,-14.31088 0.16088,-2.35535 0.58671,-4.91072 2.3328,-6.67045 6.65824,-6.71026 4.21409,-5.25719 8.55485,-7.48874 4.19673,-1.72215 8.74781,-2.06835 13.23427,-2.14253 3.39765,0.21156 7.33851,0.18909 10.14082,2.37906 1.95254,2.36607 0.67481,3.74476 -0.83536,5.95492 0,0 -0.12538,0.10209 -0.12538,0.10209 l 0,0 c -0.9555,-0.01 -0.38795,-0.0603 -1.67809,0.32543 -0.90482,0.073 -1.66456,-0.87126 -2.56458,-0.85787 -3.29396,-1.05702 -6.56705,-2.03599 -10.09253,-1.84013 -4.41014,0.12642 -8.90397,0.50007 -12.95096,2.40874 -3.28678,1.98702 -1.97929,1.382 2.74326,-3.59805 0.38588,-0.40693 -0.81272,0.78025 -1.14836,1.22951 -1.15134,1.54113 -1.59021,3.37669 -1.8054,5.25287 -0.24243,4.92488 0.38706,9.79371 1.70002,14.55054 0,0 -5.22964,4.70549 -5.22964,4.70549 z"
         id="path3320"
         style="fill:#000000;fill-opacity:1;fill-rule:nonzero;stroke:none" />
    </g>
    <g
       id="g3411"
       transform="matrix(0.99985065,0.01728225,-0.01728225,0.99985065,-46.281839,-60.747005)"
       style="fill:#ff6600">
      <path
         transform="translate(0,284.36218)"
         inkscape:connector-curvature="0"
         d="m 278.99756,645.59532 c -2.53907,-4.2646 -6.36412,-7.08104 -10.72953,-9.24921 -5.62786,-2.45608 -11.6638,-2.71266 -17.68259,-2.14481 -5.60544,0.65039 -10.45176,3.02575 -14.75473,6.56938 -0.61296,0.63072 -2.54775,2.41273 -1.83887,1.89214 1.20751,-0.88678 1.96874,-2.41232 3.34696,-2.99966 0.80876,-0.34466 -1.01046,1.44087 -1.46084,2.19588 -1.32443,2.22024 -2.10613,4.47749 -2.79085,6.95071 -0.95662,4.76544 0.11572,8.12758 3.26617,11.7082 4.08769,3.70029 9.47359,5.2699 14.63911,6.833 6.34493,1.69338 12.64542,3.49289 18.72139,5.99809 5.68686,2.41524 9.73734,6.05223 13.12795,11.13438 1.95269,3.55246 3.40051,7.6506 2.33936,11.73491 -0.20391,0.78485 -0.56676,1.51956 -0.85014,2.27935 -1.42725,2.26245 -1.34687,2.43519 -3.36841,4.34769 -2.4779,2.34426 -4.9104,4.74917 -7.56456,6.89184 -2.66466,2.15114 -7.00632,3.23479 -10.21565,4.16015 -6.75418,1.44208 -13.77302,1.16004 -20.19765,-1.53058 -1.25146,-0.52412 -2.42377,-1.22014 -3.63566,-1.83021 -4.82665,-3.61912 -1.72582,-0.92246 -5.72138,-5.39984 -0.84921,-0.95162 -1.75255,-1.85353 -2.62882,-2.7803 0,0 0.11237,-0.11625 0.11237,-0.11625 l 0,0 c 1.22522,0.56003 2.40491,1.2329 3.67567,1.68007 2.76129,0.97169 5.75063,1.2012 8.44757,2.39969 8.02057,2.40818 16.1736,4.09677 24.48671,1.94361 3.13117,-0.94519 4.09702,-1.08687 7.00583,-2.54549 1.02329,-0.51313 2.57575,-2.80273 2.9682,-1.72736 0.44957,1.23188 -1.9781,1.8401 -2.48581,3.04918 -0.70913,1.68875 4.55988,-5.1684 3.58069,-4.16787 0.31934,-0.72434 0.71635,-1.41919 0.95801,-2.17301 1.25568,-3.91694 -0.0882,-7.90734 -1.95092,-11.36915 -3.2875,-4.9991 -7.28389,-8.47369 -12.84869,-10.81901 -6.09535,-2.44419 -12.41263,-4.17475 -18.75307,-5.86352 -5.33073,-1.58107 -10.8574,-3.13854 -15.06392,-6.97318 -3.28732,-3.72753 -4.57456,-7.28839 -3.68722,-12.29176 2.05781,-8.15769 6.14534,-12.57622 12.66749,-18.36788 4.42099,-3.42297 9.35809,-5.65568 14.98825,-6.1889 6.11427,-0.44251 12.21275,-0.063 17.88795,2.49241 4.43349,2.29408 8.32328,5.22337 10.96833,9.55392 0,0 -4.9587,4.72339 -4.9587,4.72339 z"
         id="path3324"
         style="fill:#ff6600;fill-opacity:1;fill-rule:nonzero;stroke:none" />
      <path
         transform="translate(0,284.36218)"
         inkscape:connector-curvature="0"
         d="m 320.80219,686.64482 c -1.19101,-3.9559 -3.39472,-6.19519 -7.14827,-7.76081 -4.75213,-1.33258 -8.95491,0.47244 -12.81306,3.15963 -0.67383,0.64672 -2.76553,2.5047 -2.02149,1.94016 1.24941,-0.94799 2.01413,-2.74847 3.54369,-3.09513 0.99271,-0.22498 -1.09636,1.72131 -1.53492,2.63987 -1.45838,3.05452 -1.82068,6.06664 -2.04988,9.39113 0.16367,4.9516 1.5554,10.25045 5.84921,13.25578 0.75958,0.53164 1.64042,0.86452 2.46063,1.29678 7.26319,2.01731 12.52528,-1.04281 18.03174,-5.50184 -1.00372,0.97168 -1.64977,2.60168 -3.01118,2.91503 -1.13041,0.26018 1.4935,-1.77824 2.16904,-2.72119 2.17636,-3.03791 3.59586,-6.29162 4.49282,-9.89409 0.69798,-3.76835 -1.33315,-4.97451 -3.33219,-7.63952 -0.35051,-0.39907 -0.70101,-0.79814 -1.05151,-1.1972 0,0 0.10746,-0.12081 0.10746,-0.12081 l 0,0 c 0.84829,-0.15416 1.69657,-0.30831 2.54486,-0.46247 4.14103,-0.61174 7.43512,-0.45303 7.65701,4.55719 -1.31791,8.87405 -7.98046,15.05505 -14.28959,20.89014 -5.86495,4.4728 -11.29691,7.27677 -18.76051,4.94307 -0.86655,-0.4771 -1.79565,-0.85502 -2.59966,-1.43131 -4.43708,-3.18033 -6.04242,-8.59706 -6.31235,-13.79335 0.0659,-1.12792 0.0531,-2.26321 0.19776,-3.38376 1.06579,-8.25653 6.17574,-13.46105 12.54491,-18.70828 4.23985,-2.67616 8.26791,-4.09696 13.23757,-2.49009 3.8796,1.79299 6.19596,4.25184 7.44059,8.4058 0,0 -5.35268,4.80527 -5.35268,4.80527 z"
         id="path3326"
         style="fill:#ff6600;fill-opacity:1;fill-rule:nonzero;stroke:none" />
      <path
         transform="translate(0,284.36218)"
         inkscape:connector-curvature="0"
         d="m 385.26326,664.26059 c -0.0742,-5.01632 -1.46321,-8.33118 -4.95214,-11.90039 -4.4603,-3.52903 -8.75739,-3.49194 -13.97096,-1.89159 -2.20786,1.06985 -2.83229,1.23389 -4.80057,2.7518 -0.76124,0.58706 -2.84633,2.58394 -2.16084,1.90997 5.91624,-5.81674 3.15771,-3.17086 1.82252,-0.763 -0.47833,0.86261 -0.81542,1.79629 -1.22313,2.69444 -2.48477,7.49053 -0.55983,15.02816 1.8589,22.24547 3.10457,8.15962 7.68544,15.62846 11.99827,23.18291 3.42141,5.93392 6.47453,12.06639 9.02856,18.42112 0.97335,3.30775 2.45321,7.13972 1.57254,10.65941 -0.17355,0.6936 -0.52103,1.33165 -0.78155,1.99748 -0.50587,0.71717 -1.01174,1.43433 -1.5176,2.1515 0,0 -0.12485,0.10274 -0.12485,0.10274 l 0,0 c -0.38035,0.0389 -0.76069,0.0777 -1.14103,0.11659 -0.24875,-0.20558 -0.56863,-0.3473 -0.74625,-0.61672 -0.26835,-0.40703 -0.84959,-2.48142 -0.95322,-2.81204 -0.65592,-2.09274 -1.33929,-4.17945 -2.14337,-6.22074 -2.49089,-6.35078 -5.50346,-12.47313 -8.89938,-18.39066 -4.32307,-7.60524 -8.92383,-15.11514 -12.09124,-23.30108 -2.52607,-7.35695 -4.57957,-15.02398 -2.19521,-22.71966 0.40133,-0.94664 0.72778,-1.92864 1.20399,-2.83991 3.10654,-5.94463 9.42611,-11.56914 15.77354,-14.11103 5.58737,-1.37649 9.62642,-1.06315 14.12039,2.83964 3.40274,3.88205 4.84722,7.5388 4.76004,12.74506 0,0 -4.43741,3.74869 -4.43741,3.74869 z"
         id="path3328"
         style="fill:#ff6600;fill-opacity:1;fill-rule:nonzero;stroke:none" />
      <path
         transform="translate(0,284.36218)"
         inkscape:connector-curvature="0"
         d="m 384.54799,700.15832 c -7.38047,0.0534 -14.74596,0.53589 -22.10755,1.0213 -7.61481,0.52811 -15.23363,1.02816 -22.86486,1.23477 -1.7871,0.0783 -3.02562,0.0193 -4.09202,-1.41105 0,0 0.10225,-0.12525 0.10225,-0.12525 l 0,0 c 2.56558,-1.53821 5.11067,-2.97815 8.13305,-3.41757 7.86299,-1.34032 15.82142,-1.7693 23.77371,-2.27605 7.33274,-0.48809 14.68248,-1.10144 22.03711,-0.833 0,0 -4.98169,5.80685 -4.98169,5.80685 z"
         id="path3330"
         style="fill:#ff6600;fill-opacity:1;fill-rule:nonzero;stroke:none" />
      <path
         transform="translate(0,284.36218)"
         inkscape:connector-curvature="0"
         d="m 425.18273,647.23815 c -3.80507,6.10532 -5.35764,13.16559 -6.42998,20.18241 -0.65747,6.51428 -0.475,13.28554 2.05297,19.42442 0.41964,1.01905 0.97181,1.97835 1.45771,2.96753 3.19267,5.49274 7.76424,8.28378 13.53936,10.4587 3.76207,1.34141 7.92345,1.60158 11.46835,3.52308 0.68079,1.2261 0.52823,0.52861 0.23186,2.12936 0,0 -0.10507,0.12289 -0.10507,0.12289 l 0,0 c -2.52136,1.61125 -1.2489,1.01346 -3.76823,1.89443 -4.50253,0.4797 -8.93925,-0.32151 -13.19592,-1.82976 -5.9256,-2.30241 -10.63592,-5.25705 -13.93889,-10.89454 -0.50609,-1.01613 -1.07911,-2.0016 -1.51827,-3.04841 -2.61185,-6.22579 -2.87605,-13.10399 -2.26654,-19.7379 1.00865,-7.09513 2.48019,-14.24235 6.2156,-20.46843 0,0 6.25705,-4.72378 6.25705,-4.72378 z"
         id="path3332"
         style="fill:#ff6600;fill-opacity:1;fill-rule:nonzero;stroke:none" />
      <path
         transform="translate(0,284.36218)"
         inkscape:connector-curvature="0"
         d="m 435.72806,681.0373 c -6.86532,0.22693 -13.73591,-0.003 -20.60361,-0.0126 -6.90588,-0.0434 -13.82653,0.50709 -20.72255,-0.01 -1.88855,-0.72206 -1.40437,-0.0377 -1.53313,-1.99349 0,0 0.10408,-0.12373 0.10408,-0.12373 l 0,0 c 3.4586,-2.1013 1.69967,-1.3725 5.2103,-2.34046 7.17777,-0.89845 14.4255,-0.99559 21.65152,-1.04666 6.70796,1.7e-4 13.42766,0.0651 20.11653,0.61656 0,0 -4.22314,4.91026 -4.22314,4.91026 z"
         id="path3334"
         style="fill:#ff6600;fill-opacity:1;fill-rule:nonzero;stroke:none" />
      <path
         transform="translate(0,284.36218)"
         inkscape:connector-curvature="0"
         d="m 455.09843,665.76207 c -1.09271,5.75305 -0.49384,11.47496 0.88122,17.10743 1.58591,4.68612 3.85371,9.6239 8.2064,12.37577 0.67834,0.42887 1.44352,0.7018 2.16527,1.0527 2.22845,0.63832 4.37699,0.64541 6.4697,-0.46781 0.69191,-0.36806 2.41259,-1.96637 1.92034,-1.35653 -1.08364,1.3425 -2.27986,2.65144 -3.72557,3.59299 -0.76298,0.49691 1.06922,-1.4741 1.60384,-2.21116 2.53078,-4.11822 3.60493,-8.82877 4.80367,-13.44603 4.3697,-11.42771 6.84883,-6.72894 10.38861,-2.19027 2.40478,2.87599 5.07585,5.84808 8.73347,7.10095 0.70623,0.24191 1.45258,0.3452 2.17886,0.5178 5.61419,0.4938 9.47927,-2.04884 13.27879,-5.8711 -1.23824,1.09645 -2.15983,2.72562 -3.71471,3.28936 -0.92898,0.33681 1.09709,-1.64672 1.57286,-2.51281 1.96577,-3.57849 2.79262,-7.22172 3.10511,-11.24979 -0.22059,-6.31379 -2.41773,-9.08614 -7.78531,-12.02192 -2.52024,-1.69937 -6.102,-1.57406 -8.50672,-3.45383 -0.55664,-0.43512 -1.23941,-1.64936 -1.61897,-2.26861 0,0 0.1066,-0.12157 0.1066,-0.12157 l 0,0 c 1.25797,-0.3962 3.58241,-1.17229 4.83134,-1.36579 3.55414,-0.55066 7.21932,0.38465 10.55466,1.51104 5.91449,3.01611 7.96222,5.8928 8.4815,12.61035 -0.22016,4.11854 -0.97132,7.84128 -2.87158,11.54851 -0.45579,0.88919 -0.86534,1.82617 -1.51036,2.58929 -2.3105,2.73352 -4.87935,5.23777 -7.31902,7.85665 -4.08031,3.78813 -8.16734,6.13068 -13.92343,5.38303 -0.76283,-0.20609 -1.54738,-0.34416 -2.28849,-0.61828 -3.72985,-1.37958 -6.53799,-4.37401 -8.98984,-7.3776 -0.73885,-0.95213 -1.45394,-1.92296 -2.21091,-2.86075 -2.30076,-2.8504 -3.13283,0.74162 4.06223,-6.25864 0.22181,-0.2158 -0.29178,0.54583 -0.43767,0.81874 -1.3622,4.64022 -2.28827,9.45924 -4.72123,13.71082 -2.76681,4.2583 -7.72824,10.6324 -13.19022,11.467 -2.10317,0.32137 -2.69453,-0.0412 -4.71675,-0.54435 -0.75861,-0.39136 -1.56173,-0.7064 -2.27583,-1.17407 -4.44895,-2.91364 -6.8584,-7.92182 -8.53817,-12.77593 -1.46879,-5.72992 -2.03985,-11.55812 -0.99971,-17.43171 0,0 6.00002,-4.95388 6.00002,-4.95388 z"
         id="path3336"
         style="fill:#ff6600;fill-opacity:1;fill-rule:nonzero;stroke:none" />
      <path
         transform="translate(0,284.36218)"
         inkscape:connector-curvature="0"
         d="m 540.60573,676.62829 c -0.99828,-4.20076 -2.63071,-6.36557 -6.76946,-7.70751 -2.82793,-0.42852 -5.57926,0.23161 -7.91228,1.91167 -0.65039,0.46836 -2.39276,2.13304 -1.80989,1.58293 1.16239,-1.09704 2.36602,-2.14954 3.54903,-3.22431 -3.18181,4.65632 -3.68649,9.30296 -2.29378,14.65773 2.08592,4.73127 4.34133,6.23629 9.47235,5.67246 0.68749,-0.22206 1.39737,-0.38405 2.06247,-0.66617 1.43586,-0.60906 2.73773,-1.47325 3.93294,-2.4667 0.61608,-0.51209 2.32747,-2.20251 1.75161,-1.64558 -1.30389,1.26105 -2.49211,2.65979 -3.93581,3.758 -0.62325,0.4741 0.95856,-1.23854 1.43784,-1.85781 1.9985,-2.77456 3.41123,-5.88315 4.48229,-9.11442 0.94626,-3.31164 0.66295,-2.05473 6.29971,-5.65088 0.20544,-0.13107 -0.10901,0.47599 -0.13773,0.71798 -0.0384,0.32311 -0.0421,0.64939 -0.0631,0.97409 0.0187,3.35196 1.50168,6.30365 3.27958,9.05071 2.43574,3.16665 5.59306,5.68208 9.14991,7.46707 1.86853,0.81755 2.49554,1.02228 3.37453,2.83949 0,0 -0.10537,0.12263 -0.10537,0.12263 l 0,0 c -2.43455,1.03498 -4.59891,1.89911 -7.30758,1.47138 -4.63599,-0.91599 -8.04298,-2.40352 -10.86764,-6.37708 -1.88157,-2.84861 -3.45039,-5.89959 -3.64535,-9.37781 -5e-5,-0.0463 -0.0465,-1.73964 0.10464,-1.8905 6.72784,-6.71685 7.00193,-7.95358 5.9671,-4.20479 -0.95564,3.27041 -2.27995,6.40823 -4.20726,9.23809 -3.2286,4.4643 -1.46639,2.22231 -8.52718,9.23579 -2.2656,2.25042 -5.02595,3.87437 -8.17525,4.47736 -5.53949,0.26062 -7.91782,-1.4239 -10.25267,-6.4514 -1.64216,-5.94022 -0.94063,-10.26063 2.23668,-15.56397 5.23846,-5.47157 8.75896,-11.39683 16.90117,-9.88998 4.28877,1.64691 6.0106,3.9217 7.1877,8.33437 0,0 -5.17917,4.57716 -5.17917,4.57716 z"
         id="path3338"
         style="fill:#ff6600;fill-opacity:1;fill-rule:nonzero;stroke:none" />
      <path
         transform="translate(0,284.36218)"
         inkscape:connector-curvature="0"
         d="m 568.10376,693.81987 c -2.40429,-4.56981 -4.58711,-9.23833 -6.505,-14.03193 -0.93342,-2.87815 -2.59077,-6.4705 -1.17202,-9.49669 0.21353,-0.45548 0.55609,-0.83844 0.83413,-1.25766 2.31123,-2.20013 4.50494,-4.53074 6.9337,-6.60039 1.88119,-1.60305 9.23527,-2.78027 11.7386,-3.17238 4.0913,-0.57346 8.26463,-1.00723 12.17683,0.55721 1.75362,1.18743 -0.70404,1.53356 1.00366,2.99555 0,0 -0.11115,0.11741 -0.11115,0.11741 l 0,0 c -2.17993,-0.74677 -2.42923,1.30397 -4.67418,1.21903 -4.48314,0.42648 -8.98481,0.65459 -13.45215,1.22838 -3.31,0.55599 -6.70597,1.10516 -9.78193,2.52494 -0.58348,0.26931 -2.05857,1.45724 -1.68726,0.93273 1.20719,-1.70528 2.84877,-3.05706 4.27316,-4.58559 -0.3278,0.35355 -0.71481,0.66028 -0.9834,1.06067 -1.82625,2.72235 -0.0411,6.47662 0.58774,9.25781 1.69935,4.88402 3.7905,9.60808 6.25442,14.1577 0,0 -5.43515,5.09321 -5.43515,5.09321 z"
         id="path3340"
         style="fill:#ff6600;fill-opacity:1;fill-rule:nonzero;stroke:none" />
      <path
         transform="translate(0,284.36218)"
         inkscape:connector-curvature="0"
         d="m 605.45917,672.58571 c 3.76035,1.1198 7.42414,1.05529 11.06381,-0.36059 0.53171,-0.32461 1.09732,-0.5993 1.59513,-0.97383 0.49051,-0.36903 1.80762,-1.66167 1.35573,-1.24624 -1.32859,1.22138 -2.47239,2.681 -3.9858,3.6641 -0.4854,0.31532 0.57567,-1.01364 0.75356,-1.56445 0.48036,-1.48738 0.26051,-1.70422 -0.003,-3.16901 -0.29394,-0.4534 -0.50426,-0.97365 -0.88183,-1.3602 -3.11187,-3.18595 -8.44858,-2.15556 -12.23032,-1.33077 -2.74993,1.05924 -3.57772,1.19486 -6.04346,2.89171 -0.93083,0.64057 -3.24032,3.08983 -2.62974,2.13905 0.73758,-1.14855 1.67356,-2.5813 3.02709,-2.75779 1.01887,-0.13286 -1.20738,1.6717 -1.68293,2.58252 -0.45541,0.87223 -0.73095,1.82714 -1.09642,2.74071 -1.08107,4.74861 0.13149,9.4842 3.62391,12.96201 0.67916,0.67632 1.48199,1.2159 2.22298,1.82384 5.63327,3.54407 12.14288,3.39387 18.49373,2.52471 2.03897,-0.48679 4.01244,-0.68061 6.07244,-0.38287 0,0 -0.0999,0.12714 -0.0999,0.12714 l 0,0 c -3.18992,2.15226 -6.35745,4.3123 -10.13564,5.32016 -7.0575,1.6772 -13.49662,2.13602 -19.88113,-1.93079 -0.77707,-0.64284 -1.61669,-1.2168 -2.33122,-1.92852 -3.69605,-3.6815 -5.1138,-8.63339 -4.04057,-13.70054 0.35903,-0.97294 0.62126,-1.98729 1.07708,-2.91882 3.34739,-6.8409 10.65549,-12.715 17.95141,-15.00781 4.93111,-0.8727 10.84496,-1.36594 13.84956,3.50363 0.15149,0.56806 0.39231,1.11957 0.45446,1.70419 0.55667,5.23682 -5.83964,9.63086 -10.0108,12.03285 -3.78454,1.23184 -7.57616,1.28578 -11.38601,0.0149 0,0 4.89813,-5.39927 4.89813,-5.39927 z"
         id="path3342"
         style="fill:#ff6600;fill-opacity:1;fill-rule:nonzero;stroke:none" />
      <path
         transform="translate(0,284.36218)"
         inkscape:connector-curvature="0"
         d="m 670.35046,665.18593 c -6.16202,-0.51534 -12.34012,-0.26778 -18.49753,0.15287 -2.91581,0.23401 -5.82459,0.54687 -8.74058,0.77868 -1.57255,0.12501 -3.07004,0.45634 -4.51212,-0.23829 0.38023,-1.61848 0.83237,-1.46993 -0.20093,-1.41356 0,0 0.10432,-0.12352 0.10432,-0.12352 l 0,0 c 1.51424,-0.0863 0.39608,0.0791 2.86072,-1.82067 4.82919,-2.27707 10.23479,-2.65818 15.49407,-3.12312 6.12721,-0.40044 12.31406,-0.72738 18.4154,0.1759 0,0 -4.92335,5.61171 -4.92335,5.61171 z"
         id="path3344"
         style="fill:#ff6600;fill-opacity:1;fill-rule:nonzero;stroke:none" />
      <path
         transform="translate(0,284.36218)"
         inkscape:connector-curvature="0"
         d="m 685.12303,619.89947 c -0.039,10.1251 0.52377,20.23233 1.26158,30.32604 0.73266,9.15038 1.91851,18.26129 3.64511,27.27671 0.15999,2.1687 1.4031,4.66576 0.71724,6.86027 -0.64489,0.48807 -1.01022,1.2098 -1.42472,1.88338 0,0 -0.0994,0.12747 -0.0994,0.12747 l 0,0 c -0.79117,0.82992 -1.60499,1.95218 -2.82327,2.0872 -1.68589,-0.29793 -1.90156,-4.52781 -2.30262,-5.69858 -1.65675,-9.08616 -2.82239,-18.25538 -3.56576,-27.46189 -0.76183,-10.17825 -1.37191,-20.38632 -1.05359,-30.59792 0,0 5.64548,-4.80268 5.64548,-4.80268 z"
         id="path3346"
         style="fill:#ff6600;fill-opacity:1;fill-rule:nonzero;stroke:none" />
      <path
         transform="translate(0,284.36218)"
         inkscape:connector-curvature="0"
         d="m 660.61041,626.16504 c -2.03376,-0.84077 -4.95598,-2.27325 -4.58764,-4.97575 0.0661,-0.48526 0.32457,-0.92415 0.48686,-1.38622 7.29361,-9.11171 11.30672,-9.85922 21.64528,-10.79931 7.82117,-0.31197 15.76917,0.77813 22.82626,4.33793 1.33687,0.67436 2.57763,1.52439 3.86645,2.28658 4.36378,3.31029 9.54673,7.94898 8.871,14.06898 -0.10755,0.97403 -0.50775,1.89298 -0.76162,2.83948 -1.62885,2.77917 -1.46054,2.91893 -3.86894,5.22309 -7.54774,7.22103 -8.91468,9.03512 -17.78033,11.9365 -1.36673,0.29577 -3.72583,0.98001 -5.22831,0.70022 -0.64509,-0.12012 -2.39412,-1.38446 -2.9354,-1.75248 0,0 0.1052,-0.12278 0.1052,-0.12278 l 0,0 c 4.22643,-1.27494 8.28701,-3.01126 12.48015,-4.39978 2.7226,-1.16696 4.02336,-1.63936 6.62139,-3.09891 1.05686,-0.59374 2.79383,-3.08993 3.09169,-1.91487 0.35205,1.38882 -2.20481,1.98394 -2.73698,3.31419 -0.79023,1.97536 5.28317,-6.0924 4.07074,-4.91605 0.30585,-0.88206 0.75357,-1.72712 0.91755,-2.64619 1.04601,-5.86243 -4.13212,-10.4036 -8.2525,-13.54476 -1.26099,-0.74135 -2.47421,-1.57072 -3.78297,-2.22404 -6.97986,-3.48431 -14.84351,-4.46199 -22.55301,-4.05552 -3.2028,0.3416 -4.49265,0.36389 -7.55644,1.11204 -0.99797,0.2437 -1.98516,0.54035 -2.94802,0.89845 -0.80673,0.30004 -2.70366,1.85607 -2.34925,1.0717 0.79847,-1.76717 2.63328,-2.8522 3.83972,-4.3704 0.35453,-0.44614 -0.84884,0.7605 -1.27327,1.14075 -0.24452,0.38093 -0.56625,0.7222 -0.73357,1.14281 -0.9278,2.33227 2.03509,3.76007 3.64432,4.57303 0,0 -5.11836,5.56131 -5.11836,5.56131 z"
         id="path3348"
         style="fill:#ff6600;fill-opacity:1;fill-rule:nonzero;stroke:none" />
      <path
         transform="translate(0,284.36218)"
         inkscape:connector-curvature="0"
         d="m 717.64505,684.74181 c -2.51259,-3.25118 -4.41002,-6.8767 -6.00227,-10.6473 -1.6211,-4.10259 -2.92398,-8.32008 -4.25038,-12.52421 -0.38416,-2.13729 -1.95664,-4.15858 -1.68502,-6.38009 2.00702,-2.0607 3.92461,-4.21245 6.02106,-6.18211 0.8433,-0.7923 7.32492,-1.87517 8.50662,-2.07887 5.05673,-0.67084 10.17192,-1.49124 15.26924,-0.88682 1.96653,0.38356 2.27011,0.58917 2.59285,2.48944 0,0 -0.10502,0.12293 -0.10502,0.12293 l 0,0 c -2.20124,1.17209 -4.35479,2.32102 -6.88923,2.5745 -5.28833,0.80488 -10.64877,0.91401 -15.92356,1.83756 -2.08373,0.39133 -4.17391,0.76136 -6.18996,1.43732 -3.12973,1.04935 -5.88895,4.73664 3.02658,-4.32325 -1.03111,1.29165 0.80498,4.82582 1.03355,6.25477 1.28694,4.19557 2.59712,8.39048 4.19098,12.48155 1.54901,3.75566 3.37121,7.37471 5.67343,10.7335 0,0 -5.26887,5.09108 -5.26887,5.09108 z"
         id="path3350"
         style="fill:#ff6600;fill-opacity:1;fill-rule:nonzero;stroke:none" />
      <path
         transform="translate(0,284.36218)"
         inkscape:connector-curvature="0"
         d="m 767.52134,661.92091 c 0.39566,-0.36104 1.58682,-1.43951 1.18697,-1.08312 -1.0677,0.95164 -1.89277,2.26782 -3.19057,2.86892 -0.60927,0.2822 0.67168,-1.17153 0.89386,-1.80515 0.77658,-2.21462 0.46019,-4.08554 -0.11505,-6.27558 -0.35127,-0.60109 -0.61474,-1.26297 -1.05382,-1.80326 -2.11535,-2.60297 -5.6576,-2.97393 -8.72105,-2.16767 -1.01217,0.2664 -1.96,0.73501 -2.94,1.10251 -3.67348,2.22164 -2.46667,1.27012 -5.78242,4.20765 -0.74955,0.66405 2.04315,-2.91753 2.28822,-1.94659 0.29749,1.17866 -1.4227,1.97841 -2.0118,3.04175 -1.50027,2.70806 -1.48489,3.39301 -2.23389,6.30884 -0.49609,4.42384 0.47632,9.33869 4.87445,11.46678 0.75477,0.3652 1.59648,0.51325 2.39472,0.76988 3.61956,0.47027 7.12721,-0.40682 10.10961,-2.52731 0.66212,-0.47077 2.42256,-2.16358 1.84731,-1.58989 -1.20496,1.20169 -2.49258,2.31754 -3.73888,3.47631 2.25983,-3.22403 3.76788,-6.88172 5.67402,-10.31936 0,0 0.12423,-0.10347 0.12423,-0.10347 l 0,0 c 0.44039,0.24371 1.039,0.31433 1.32115,0.73113 1.03129,1.52348 -0.61065,3.98844 -1.15942,5.28226 -6.42962,6.73818 -9.70878,12.1419 -19.53291,10.91847 -0.8519,-0.30562 -1.75145,-0.50176 -2.55571,-0.91686 -4.6922,-2.42182 -5.936,-7.5428 -5.25635,-12.40841 0.30609,-1.13114 0.5179,-2.29211 0.91827,-3.39342 2.1697,-5.9682 6.42694,-9.82413 10.98132,-14.24844 0.87678,-0.85175 1.84952,-1.60833 2.86381,-2.29057 0.96066,-0.64616 2.0265,-1.12022 3.03975,-1.68033 1.00875,-0.32473 1.9884,-0.76 3.02626,-0.97419 4.38113,-0.90414 8.30424,0.76049 10.22993,4.82323 0.20525,0.73274 0.49207,1.4474 0.61574,2.19822 0.9704,5.89177 -3.50296,9.96129 -7.90073,13.31296 0,0 3.80298,-4.97529 3.80298,-4.97529 z"
         id="path3352"
         style="fill:#ff6600;fill-opacity:1;fill-rule:nonzero;stroke:none" />
      <path
         transform="translate(0,284.36218)"
         inkscape:connector-curvature="0"
         d="m 788.58645,647.93297 c 2.28238,6.77797 4.31871,13.63406 6.31563,20.50033 2.56188,8.62789 4.97891,17.3042 6.33649,26.21068 0.27614,3.49516 0.62588,7.82386 -2.06185,10.61194 -7.07791,7.34215 -4.67815,6.00712 -10.25616,8.22057 -7.4583,1.79497 -14.84605,-0.30507 -21.88602,-2.74685 -4.58234,-2.0027 -9.70322,-3.82171 -13.28681,-7.49041 -0.52883,-0.54139 -0.95894,-1.17111 -1.4384,-1.75666 -2.02596,-2.86905 -1.76227,-3.67738 -1.25304,-7.07591 0,0 0.11628,-0.11234 0.11628,-0.11234 l 0,0 c 3.25127,0.0452 3.58164,0.0984 6.12911,2.16136 4.7262,3.33388 9.49695,6.60278 15.04445,8.45725 6.91482,2.36637 14.2112,4.41184 21.47475,2.3261 3.69443,-1.74849 3.9877,-2.29485 -0.99766,2.80201 -0.56042,0.57295 1.08577,-1.19848 1.47367,-1.89981 1.40731,-2.54442 1.22102,-5.50919 1.02016,-8.28876 -1.25424,-8.90194 -3.64615,-17.56547 -6.22031,-26.1681 -2.04335,-6.94936 -3.97535,-13.92697 -5.8027,-20.93619 0,0 5.29241,-4.81521 5.29241,-4.81521 z"
         id="path3354"
         style="fill:#ff6600;fill-opacity:1;fill-rule:nonzero;stroke:none" />
      <path
         transform="translate(0,284.36218)"
         inkscape:connector-curvature="0"
         d="m 778.58532,631.19424 c 2.87872,-4.33351 6.33747,-10.44319 11.68078,-11.38282 2.28473,0.17724 3.72582,1.83991 4.65614,3.78805 1.18945,4.07061 -4.13101,8.06485 -7.42822,9.19086 -2.50663,0.63167 -5.04032,0.30445 -7.49112,-0.38047 -0.95265,-0.50458 -3.2536,-1.00419 -3.56473,-2.31741 -0.058,-0.24477 0.0241,-0.50252 0.0361,-0.75378 0.95391,-1.90506 2.90637,-3.04522 4.52748,-4.31365 0,0 -0.096,0.13013 -0.096,0.13013 l 0,0 c 1.08511,-0.72781 0.98727,-1.06218 1.31104,-0.72103 0.57501,1.17475 2.00578,1.58274 3.15083,2.01628 2.33576,0.59211 4.7743,0.86222 7.09209,0.0221 2.91665,-1.5628 0.72871,-0.48999 -4.26414,4.75745 -0.44704,0.46983 0.92955,-0.60504 0.94271,-1.47347 0.004,-0.23113 -0.0692,-0.4571 -0.10379,-0.68565 -0.67583,-1.65165 -1.86676,-3.18515 -3.82629,-3.02484 -2.71753,0.97191 -5.5621,4.5148 2.6212,-3.64104 0.38197,-0.3807 -0.73848,0.78743 -1.07765,1.2067 -0.35389,0.43746 -0.68297,0.89513 -0.99916,1.36057 -0.28956,0.42624 -0.54452,0.87499 -0.81678,1.31248 0,0 -6.35053,4.90954 -6.35053,4.90954 z"
         id="path3356"
         style="fill:#ff6600;fill-opacity:1;fill-rule:nonzero;stroke:none" />
      <path
         transform="translate(0,284.36218)"
         inkscape:connector-curvature="0"
         d="m 810.01126,655.13693 c 4.49771,0.98593 9.08167,1.31193 13.67421,1.21381 4.64508,-0.14237 8.76675,-1.59883 12.3108,-4.57116 -1.42006,1.37234 -2.72889,2.87002 -4.26019,4.11703 -0.47259,0.38485 0.74645,-0.96884 1.04603,-1.49959 1.26561,-2.24223 1.19181,-3.84669 0.17605,-6.11099 -3.22386,-3.77131 -8.28983,-3.25647 -12.67488,-2.33134 -0.92197,0.34386 -1.87274,0.61862 -2.76591,1.03157 -1.88559,0.87179 -3.68947,2.05791 -5.24805,3.42919 -0.83576,0.73532 -3.37117,2.81189 -2.3469,2.37591 2.83377,-1.20621 5.29499,-5.97359 1.51302,0.22692 -2.34452,4.82094 -4.19683,10.26305 -3.48187,15.71195 0.11086,0.84493 0.3769,1.66214 0.56536,2.49322 2.4992,6.10487 7.62508,6.51846 13.5234,6.6473 6.46898,-0.11215 12.81629,-1.65833 19.26762,-1.86946 1.79172,0.70971 0.86434,0.53643 2.78103,0.5257 0,0 -0.10209,0.12538 -0.10209,0.12538 l 0,0 c -3.18419,1.26789 -1.43833,0.49432 -5.19025,2.42473 -7.03298,2.55864 -14.40108,4.43482 -21.90228,4.78285 -6.29566,-0.23368 -11.55715,-0.9517 -14.29584,-7.33774 -0.216,-0.8691 -0.51282,-1.72202 -0.64799,-2.6073 -0.84628,-5.54281 0.93842,-11.12742 3.21572,-16.09866 3.5254,-6.13207 1.40544,-2.9698 9.40711,-11.41512 2.9713,-3.13603 6.5491,-5.45444 10.74226,-6.57559 4.81838,-0.86132 10.00985,-1.05871 13.46493,3.01353 0.27423,0.53204 0.62964,1.02955 0.8227,1.59612 1.96283,5.76044 -5.39745,10.75885 -8.37059,13.74134 -3.74812,2.80255 -8.00311,4.15171 -12.7033,4.22754 -4.65502,0.0427 -9.29151,-0.33284 -13.85839,-1.2745 0,0 5.33829,-5.99264 5.33829,-5.99264 z"
         id="path3358"
         style="fill:#ff6600;fill-opacity:1;fill-rule:nonzero;stroke:none" />
      <path
         transform="translate(0,284.36218)"
         inkscape:connector-curvature="0"
         d="m 852.32623,612.44019 c 0.0787,8.73266 -0.19909,17.46454 -0.26584,26.19734 -0.0827,9.63091 0.526,19.25157 2.15545,28.74494 0.19826,3.27808 2.05235,6.26916 2.30772,9.51115 0.0246,0.75685 -0.37807,1.14868 -0.86333,1.66605 0,0 -2.92597,2.824 -2.92597,2.824 l 0,0 c -0.50807,0.38822 -0.88077,0.78648 -1.51373,0.41675 -2.12816,-2.11698 -2.03526,-6.51931 -2.92429,-9.18745 -1.60538,-9.56012 -2.20886,-19.24257 -2.1447,-28.93525 0.0436,-8.78865 0.23221,-17.57393 0.48496,-26.35892 0,0 5.68973,-4.87861 5.68973,-4.87861 z"
         id="path3360"
         style="fill:#ff6600;fill-opacity:1;fill-rule:nonzero;stroke:none" />
      <path
         transform="translate(0,284.36218)"
         inkscape:connector-curvature="0"
         d="m 872.96911,637.17405 c -5.01619,5.78477 -10.83334,10.65532 -16.92372,15.22557 -3.08299,2.26087 -6.25753,4.39196 -9.38311,6.59261 -2.34856,1.7737 -6.3888,4.03809 4.37194,-4.39369 0.18357,-0.14385 0.27072,0.38082 0.42434,0.5563 0.22281,0.2545 0.46879,0.48774 0.70319,0.73162 3.46252,3.37364 7.02834,6.63965 10.61226,9.88332 4.41763,4.02278 9.1464,7.67618 14.00428,11.14653 1.15245,0.97974 4.54589,2.83466 3.63137,4.89054 -0.25244,0.5675 -0.66244,1.05086 -0.99367,1.57629 0,0 -0.11191,0.11669 -0.11191,0.11669 l 0,0 c -0.54482,0.38659 -1.04697,0.84176 -1.63447,1.15977 -2.13962,1.15816 -4.75168,-0.98496 -6.42852,-2.02525 -4.84819,-3.52855 -9.58219,-7.21656 -14.03074,-11.24316 -3.6096,-3.24277 -7.2071,-6.50059 -10.73209,-9.83545 -0.53474,-0.54093 -1.38465,-1.36976 -1.32631,-1.46329 3.00047,-4.81008 3.15352,-5.25983 6.06744,-7.13628 3.11643,-2.08303 6.20297,-4.21243 9.22269,-6.43382 2.32295,-1.7583 4.63659,-3.52323 6.8385,-5.43363 0.67293,-0.58383 2.56299,-2.46777 1.98453,-1.79022 -1.06646,1.24913 -2.29727,2.34807 -3.45525,3.51287 -0.42023,0.42271 0.82797,-0.85769 1.24195,-1.28653 0,0 5.9173,-4.35079 5.9173,-4.35079 z"
         id="path3362"
         style="fill:#ff6600;fill-opacity:1;fill-rule:nonzero;stroke:none" />
      <path
         transform="translate(0,284.36218)"
         inkscape:connector-curvature="0"
         d="m 892.67099,610.63982 c -0.75424,8.5707 -1.10606,17.16271 -1.18343,25.76395 -0.007,9.18465 0.66788,18.3685 3.23673,27.21048 1.46984,4.67665 4.26281,8.38086 8.08463,11.35493 1.54872,0.95996 3.05505,1.99233 4.62226,2.92274 0.44581,0.26466 2.12951,1.11803 2.51342,1.58068 0.28478,0.34319 0.36418,0.81419 0.54627,1.22129 0.25879,0.2111 0.51758,0.42219 0.77637,0.63329 0,0 -0.10386,0.12391 -0.10386,0.12391 l 0,0 c -0.70513,0.30078 -1.41025,0.60157 -2.11537,0.90235 -0.84097,0.31673 -1.6473,0.74804 -2.52291,0.95019 -3.20954,0.74099 -6.71135,-0.92215 -9.28602,-2.62842 -3.93043,-3.09999 -6.84756,-6.92574 -8.37751,-11.75958 -2.59794,-8.92443 -3.27431,-18.19321 -3.29248,-27.46418 0.0439,-8.69437 0.31893,-17.38627 1.39653,-26.02334 0,0 5.70537,-4.78829 5.70537,-4.78829 z"
         id="path3364"
         style="fill:#ff6600;fill-opacity:1;fill-rule:nonzero;stroke:none" />
      <path
         transform="translate(0,284.36218)"
         inkscape:connector-curvature="0"
         d="m 905.69536,651.74544 c -6.29873,0.52014 -12.62469,0.26499 -18.93023,0.0359 -4.75004,-0.21033 -9.51377,-0.15482 -14.25274,-0.57345 -2.05444,-0.24346 -1.65189,-0.79963 -0.61286,-2.14449 0,0 0.0978,-0.12876 0.0978,-0.12876 l 0,0 c 1.30536,-1.44521 2.58094,-2.41034 4.60442,-2.53024 4.96023,-0.51456 9.94899,-0.3917 14.92404,-0.15702 6.20246,0.21678 12.4087,0.42286 18.61523,0.23003 0,0 -4.44565,5.26801 -4.44565,5.26801 z"
         id="path3366"
         style="fill:#ff6600;fill-opacity:1;fill-rule:nonzero;stroke:none" />
      <path
         transform="translate(0,284.36218)"
         inkscape:connector-curvature="0"
         d="m 917.38254,655.11992 c 4.04936,1.15351 8.08521,1.34523 12.18058,0.42849 1.9877,-0.61757 3.86494,-1.52995 5.43978,-2.91244 0.48663,-0.4272 1.83976,-1.81936 1.34461,-1.40206 -4.21525,3.55256 -4.87707,5.45193 -3.25966,2.06646 1.06298,-4.53541 -1.29373,-6.06436 -5.3832,-6.88658 -2.69308,-0.0826 -5.15911,0.66111 -7.40523,2.16389 -0.88942,0.59507 -3.0785,2.91953 -2.49128,2.02491 0.68675,-1.04625 1.67557,-3.04347 2.80227,-2.4987 1.04932,0.50736 -1.26833,1.95583 -1.90249,2.93375 -2.58532,5.22931 -3.47829,11.18045 -1.3748,16.75418 0.37886,1.00389 0.94091,1.92874 1.41137,2.8931 4.20972,6.29905 9.25972,7.69994 16.4191,8.49453 3.90217,0.39987 7.78696,-0.43751 11.67684,-0.44522 0.97688,-0.002 1.94761,0.15563 2.92238,0.2198 0,0 -0.1004,0.12674 -0.1004,0.12674 l 0,0 c -1.98935,1.20644 -3.5077,2.21326 -5.67215,3.1487 -4.33805,1.87484 -9.09083,2.5707 -13.78199,2.65229 -1.19837,-0.0749 -2.4057,-0.0604 -3.59511,-0.22481 -5.69448,-0.78689 -10.48007,-3.77505 -13.63988,-8.56539 -0.50143,-1.00043 -1.0946,-1.95992 -1.50428,-3.00129 -2.29309,-5.82886 -1.46514,-12.00695 1.26813,-17.51314 3.51891,-5.59684 2.08872,-3.80735 9.38556,-10.75676 2.78813,-2.65538 6.48183,-3.90318 10.27592,-3.66471 4.40138,1.0695 6.93184,2.74191 6.37278,7.66648 -1.60278,4.46069 -0.31598,1.55592 -6.76398,8.37458 -1.94553,2.05737 -4.42903,3.36976 -7.1499,4.09019 -4.12257,0.75417 -8.19762,0.55256 -12.11345,-1.08197 0,0 4.63848,-5.08502 4.63848,-5.08502 z"
         id="path3368"
         style="fill:#ff6600;fill-opacity:1;fill-rule:nonzero;stroke:none" />
      <path
         transform="translate(0,284.36218)"
         inkscape:connector-curvature="0"
         d="m 948.31369,644.26083 c 2.2562,5.21196 4.25015,10.52489 6.59137,15.70288 1.84569,3.98358 3.80647,7.91421 5.89151,11.7779 1.40247,2.42893 1.95276,1.36054 -4.8883,5.1165 -0.38615,0.21202 -0.0684,-0.87857 -0.0875,-1.31869 -0.0247,-0.56947 -0.0291,-1.13964 -0.0437,-1.70946 -0.003,-5.6069 1.35924,-11.06118 3.01516,-16.37724 1.22109,-2.98506 2.1628,-6.44643 4.50749,-8.81613 6.69155,-6.76294 3.98694,-5.54389 8.50504,-7.15865 5.45198,-0.43198 8.66655,4.30741 11.36866,8.3318 3.87631,6.24543 5.49258,13.2886 6.17315,20.51263 0.31942,4.78679 0.10355,9.5723 -1.16508,14.20672 -1.47696,2.75547 -0.81381,1.44257 -2.01071,3.9279 0,0 -0.12235,0.1057 -0.12235,0.1057 l 0,0 c -1.33226,-0.30447 -0.62993,-0.15696 -2.10863,-0.43458 -1.49655,-3.97822 0.009,-8.49218 -0.55993,-12.61842 -0.58191,-7.11768 -2.09054,-14.06283 -5.90594,-20.21709 -2.44022,-3.62803 -5.51237,-8.41958 -10.52855,-7.65133 -3.13416,1.49584 -2.15139,1.24329 2.59002,-3.63227 0.47623,-0.48971 -0.93867,0.99761 -1.34044,1.55004 -1.58522,2.17965 -2.59862,4.71629 -3.5601,7.20999 -1.73867,5.24009 -3.12783,10.63457 -3.18325,16.19296 0.0101,0.55836 0.007,1.11709 0.0302,1.67507 0.018,0.43677 0.33847,0.94683 0.0924,1.30817 -3.82337,5.61544 -4.23522,8.55238 -6.23843,4.93015 -1.97849,-4.00123 -3.87153,-8.04538 -5.53395,-12.18996 -2.10243,-5.40838 -3.94516,-10.90855 -5.83812,-16.39283 0,0 4.34989,-4.03176 4.34989,-4.03176 z"
         id="path3370"
         style="fill:#ff6600;fill-opacity:1;fill-rule:nonzero;stroke:none" />
    </g>
  </g>
</svg>
