<?xml version="1.0" encoding="UTF-8" standalone="no"?>
<!-- Created with Inkscape (http://www.inkscape.org/) -->

<svg
   xmlns:dc="http://purl.org/dc/elements/1.1/"
   xmlns:cc="http://creativecommons.org/ns#"
   xmlns:rdf="http://www.w3.org/1999/02/22-rdf-syntax-ns#"
   xmlns:svg="http://www.w3.org/2000/svg"
   xmlns="http://www.w3.org/2000/svg"
   xmlns:sodipodi="http://sodipodi.sourceforge.net/DTD/sodipodi-0.dtd"
   xmlns:inkscape="http://www.inkscape.org/namespaces/inkscape"
   width="1024"
   height="768"
   id="svg4160"
   version="1.1"
   inkscape:version="0.48.4 r9939"
   sodipodi:docname="git-befehle7.svg">
  <defs
     id="defs4162" />
  <sodipodi:namedview
     id="base"
     pagecolor="#ffffff"
     bordercolor="#666666"
     borderopacity="1.0"
     inkscape:pageopacity="0.0"
     inkscape:pageshadow="2"
     inkscape:zoom="0.86588542"
     inkscape:cx="512"
     inkscape:cy="464.12054"
     inkscape:document-units="px"
     inkscape:current-layer="layer1"
     showgrid="false"
     inkscape:window-width="1600"
     inkscape:window-height="886"
     inkscape:window-x="0"
     inkscape:window-y="14"
     inkscape:window-maximized="0" />
  <metadata
     id="metadata4165">
    <rdf:RDF>
      <cc:Work
         rdf:about="">
        <dc:format>image/svg+xml</dc:format>
        <dc:type
           rdf:resource="http://purl.org/dc/dcmitype/StillImage" />
        <dc:title></dc:title>
      </cc:Work>
    </rdf:RDF>
  </metadata>
  <g
     inkscape:label="Ebene 1"
     inkscape:groupmode="layer"
     id="layer1"
     transform="translate(0,-284.36218)">
    <g
       id="g4338"
       transform="matrix(0.87560596,0.05350148,-0.05350148,0.87560596,-5.8337817,89.75078)">
      <path
         inkscape:connector-curvature="0"
         d="m 173.48605,320.23425 c -0.78642,12.84646 0.33054,25.72346 1.34654,38.52505 1.57859,17.36163 3.68424,34.6683 5.38326,52.01797 0.42523,5.53921 1.00879,11.08125 1.14403,16.63966 0.0405,1.66451 0.0455,4.73861 -0.29831,6.50257 -0.13679,0.7018 -0.44626,1.35859 -0.6694,2.03788 -0.2393,0.31455 -0.47861,0.6291 -0.71792,0.94365 0,0 -0.12565,0.10175 -0.12565,0.10175 l 0,0 c -0.16447,0.0353 -0.32894,0.0705 -0.4934,0.10575 -0.26051,-0.25617 -0.61159,-0.44506 -0.78152,-0.76849 -0.60758,-1.15636 -1.12995,-4.0906 -1.29952,-5.10647 -0.87818,-5.26083 -1.30951,-10.59085 -2.00955,-15.87485 -1.95813,-17.25649 -4.01701,-34.50334 -5.66731,-51.79289 -1.08574,-12.8063 -2.27193,-25.69352 -1.52301,-38.55309 0,0 5.71176,-4.77849 5.71176,-4.77849 z"
         id="path4306"
         style="fill:#ff6600;fill-opacity:1;fill-rule:nonzero;stroke:none"
         transform="translate(0,284.36218)" />
      <path
         inkscape:connector-curvature="0"
         d="m 136.65357,319.18112 c 0.0663,11.19765 1.73717,22.29997 3.34011,33.35638 2.8672,18.01852 6.50301,35.90097 9.65593,53.86965 0.7312,4.47233 1.3645,8.12562 1.9649,12.56979 0.54284,4.0181 1.21981,8.04146 -0.0567,11.97148 0,0 -0.11861,0.10988 -0.11861,0.10988 l 0,0 c -0.33393,-0.0124 -0.70818,0.1225 -1.00177,-0.0371 -1.43556,-0.78023 -1.86404,-2.47217 -2.30656,-3.87792 -1.65838,-5.26817 -2.35864,-10.8029 -3.6444,-16.15824 -3.56121,-17.8309 -7.02864,-35.68624 -9.96663,-53.63182 -1.6732,-11.115 -3.45299,-22.32292 -3.26662,-33.59684 0,0 5.40036,-4.57529 5.40036,-4.57529 z"
         id="path4308"
         style="fill:#ff6600;fill-opacity:1;fill-rule:nonzero;stroke:none"
         transform="translate(0,284.36218)" />
      <path
         inkscape:connector-curvature="0"
         d="m 199.57986,350.08561 c -13.56204,0.25791 -27.00865,2.16959 -40.39443,4.21027 -18.87396,3.079 -37.5657,7.12241 -56.07225,11.92093 -6.05743,1.71031 -5.022841,1.32839 -10.349911,3.12423 -2.912032,0.98169 -1.906008,0.43736 -3.765728,1.72694 0,0 0.09584,-0.13022 0.09584,-0.13022 l 0,0 c 0.761467,-0.74717 1.436687,-1.59384 2.284401,-2.24151 4.512665,-3.44776 10.059738,-5.03888 15.318408,-6.91539 18.78691,-5.68128 37.94067,-10.10255 57.30827,-13.30451 13.48311,-2.08337 27.03643,-4.09567 40.70009,-4.39758 0,0 -5.12469,6.00684 -5.12469,6.00684 z"
         id="path4310"
         style="fill:#ff6600;fill-opacity:1;fill-rule:nonzero;stroke:none"
         transform="translate(0,284.36218)" />
      <path
         inkscape:connector-curvature="0"
         d="m 213.76446,376.32482 c -12.38773,3.45607 -25.21772,5.12631 -37.89905,7.1491 -18.2222,2.94446 -36.5045,5.56721 -54.49982,9.72027 -3.35104,1.63481 -7.31926,1.3929 -10.74321,2.79626 -1.47837,0.60592 -2.76642,1.59932 -4.14963,2.39898 0,0 0.0982,-0.12845 0.0982,-0.12845 l 0,0 c 5.75603,-3.5908 11.48296,-7.28314 18.09712,-9.14125 2.66361,-0.78119 5.30853,-1.62917 7.99082,-2.34357 15.76864,-4.19984 31.96329,-6.48072 48.03605,-9.14364 12.61103,-2.05941 25.23988,-4.08138 37.68341,-7.02115 0,0 -4.61389,5.71345 -4.61389,5.71345 z"
         id="path4312"
         style="fill:#ff6600;fill-opacity:1;fill-rule:nonzero;stroke:none"
         transform="translate(0,284.36218)" />
      <path
         inkscape:connector-curvature="0"
         d="m 346.81423,656.19798 c -2.76375,-4.6407 -6.26294,-8.68183 -10.40122,-12.12996 -3.57463,-2.57964 -7.80904,-4.26201 -12.27218,-3.32541 -0.82591,0.17332 -1.60876,0.51042 -2.41314,0.76563 0.68237,-1.75193 -5.61666,4.36303 -4.43802,3.01735 0.97285,-1.11071 1.83627,-2.57467 3.24585,-3.01421 0.97641,-0.30447 -1.21872,1.64912 -1.72253,2.53921 -1.40935,2.48988 -1.46286,3.27818 -2.25502,6.01456 -0.98918,5.58256 0.0277,11.2215 3.19294,15.97324 0.5855,0.87898 1.30776,1.65874 1.96164,2.48811 4.76375,4.5552 7.49943,5.33997 13.19551,1.93409 0.6344,-0.52661 2.44037,-2.20529 1.90319,-1.57982 -1.05006,1.22265 -2.20389,2.36596 -3.45302,3.38438 -0.64677,0.52732 1.1084,-1.24869 1.63124,-1.89908 1.43964,-1.79082 2.67246,-3.73174 3.924,-5.65423 3.05277,-4.64937 7.40645,-10.23173 12.26686,-12.63074 4.17171,-1.40541 7.46813,1.00058 10.49571,3.62215 5.77048,5.81758 8.90188,13.38675 11.52879,20.99942 2.78194,9.51335 3.91218,19.51401 2.6973,29.38585 -0.26228,2.13115 -0.73229,4.23157 -1.09843,6.34735 -3.60627,14.51877 -10.06211,22.81567 -21.2816,32.79016 -1.59221,1.41553 -3.50329,2.42537 -5.25494,3.63806 -10.08665,5.5478 -21.41976,6.70924 -32.5573,3.92573 -2.27066,-0.56749 -4.45778,-1.42827 -6.68667,-2.14241 -8.73219,-3.8296 -17.73757,-8.53984 -24.08556,-15.89123 -0.81542,-0.94431 -1.46306,-2.02138 -2.19459,-3.03207 -2.68122,-5.44196 -1.48982,-7.6571 1.30406,-12.66122 0,0 0.12575,-0.10163 0.12575,-0.10163 l 0,0 c 1.20093,2.57592 2.09149,5.31687 3.90639,7.55388 7.03991,8.2848 15.98193,14.46937 26.12923,18.4255 2.20398,0.69107 4.36683,1.5304 6.61192,2.07322 11.04407,2.67022 22.2283,1.32722 32.10474,-4.3354 1.71668,-1.23318 3.35583,-2.58217 5.15005,-3.69954 0.35176,-0.21906 -1.02849,1.29996 -0.77301,0.97368 1.32413,-1.6911 2.7667,-3.29513 3.97897,-5.06813 3.68516,-5.38971 6.17682,-11.4215 7.78942,-17.72621 0.3951,-2.10775 0.89735,-4.19819 1.18529,-6.32323 1.32647,-9.78973 0.30672,-19.75112 -2.44913,-29.20357 -2.56778,-7.49159 -5.66538,-14.93782 -11.29858,-20.69137 -2.82197,-2.49949 -5.90754,-4.79 -9.77299,-3.10275 -2.99208,1.74683 -1.28456,0.91054 2.58694,-3.33471 0.37149,-0.40735 -0.81681,0.74267 -1.19166,1.14692 -1.29275,1.39414 -2.30485,3.016 -3.34022,4.60007 -3.93229,6.11431 -8.34439,11.95787 -14.45044,16.14807 -0.73861,0.38716 -1.43844,0.85962 -2.21582,1.16148 -4.56902,1.77416 -8.73108,-0.35665 -11.89673,-3.6823 -0.66752,-0.87022 -1.40345,-1.69201 -2.00257,-2.61067 -3.21064,-4.92304 -4.37493,-10.71142 -3.48757,-16.49478 0.28312,-1.07522 0.48875,-2.1739 0.84938,-3.22567 2.37669,-6.93154 8.2691,-12.65967 14.77669,-15.78352 0.83508,-0.21672 1.65338,-0.51358 2.50524,-0.65017 4.6333,-0.74291 8.99972,1.03452 12.66717,3.74535 4.16266,3.5458 7.78098,7.63198 10.42729,12.45111 0,0 -5.14862,4.88946 -5.14862,4.88946 z"
         id="path4314"
         style="fill:#ff6600;fill-opacity:1;fill-rule:nonzero;stroke:none" />
      <path
         inkscape:connector-curvature="0"
         d="m 394.03558,631.8844 c -1.72386,7.57925 -0.21561,15.21246 1.90175,22.5298 2.45968,6.69022 6.02824,13.32883 12.07828,17.4399 0.98466,0.66908 2.08217,1.15474 3.12325,1.73211 5.29005,2.3583 10.56055,1.12866 15.91382,-0.10895 1.25879,-0.35701 1.20092,-0.24504 1.03075,0.74112 0,0 -0.0951,0.13078 -0.0951,0.13078 l 0,0 c -1.45936,1.68081 -2.96995,3.33382 -5.0356,4.28455 -5.78392,2.68769 -11.21845,3.18391 -17.23863,0.68114 -1.07034,-0.61194 -2.19786,-1.13325 -3.21102,-1.83582 -6.13561,-4.25474 -9.8226,-10.97934 -12.37223,-17.81157 -2.21109,-7.42171 -3.8923,-15.20618 -2.14333,-22.92271 0,0 6.04803,-4.86035 6.04803,-4.86035 z"
         id="path4316"
         style="fill:#ff6600;fill-opacity:1;fill-rule:nonzero;stroke:none" />
      <path
         inkscape:connector-curvature="0"
         d="m 381.20554,611.05726 c -2.34393,-1.78831 -4.66134,-3.56581 -4.61698,-6.73669 3.50296,-8.26291 8.77777,-8.51472 15.58205,-6.71775 4.0635,1.5725 8.67156,3.86604 10.5071,8.13378 0.28346,0.65905 0.3611,1.38866 0.54165,2.083 -0.18251,1.63948 -0.0265,2.63074 -1.27575,3.94218 -6.81139,7.15047 -7.82298,8.69741 -16.56805,8.27862 -4.54006,-0.91441 -10.4179,-2.73892 -12.23243,-7.60159 -0.25888,-0.69376 -0.25891,-1.45817 -0.38836,-2.18725 0.32936,-2.78729 1.81648,-4.68106 3.87241,-6.49469 5.15851,-4.55058 2.98022,-4.70067 6.32517,-3.9367 0,0 -0.0997,0.12731 -0.0997,0.12731 l 0,0 c -1.0649,0.76644 -1.97376,1.81893 -3.19469,2.29931 -0.55178,0.2171 1.46797,-1.0462 1.03244,-1.44857 -0.17873,-0.16513 -3.34943,3.73382 -2.30101,4.44787 0.13366,0.60479 0.15734,1.24491 0.40097,1.81436 1.93636,4.52599 7.35044,6.23146 11.74043,6.98336 2.66727,0.0437 3.65111,0.2745 6.21273,-0.50092 0.86923,-0.26312 2.81329,-1.95116 2.49184,-1.10177 -0.65053,1.71896 -2.37116,2.812 -3.64167,4.14009 -0.4727,0.49412 0.94325,-1.01747 1.24258,-1.63229 0.27254,-0.55979 0.29089,-1.21076 0.43633,-1.81615 -0.12181,-0.63694 -0.13411,-1.30499 -0.36541,-1.91081 -1.56798,-4.10683 -6.14715,-6.31005 -9.89418,-7.88953 -1.92675,-0.51839 -2.80202,-0.89107 -4.77719,-0.92139 -0.64181,-0.01 -1.29088,0.042 -1.91682,0.18418 -0.50959,0.11573 -1.75356,1.01113 -1.45574,0.58174 0.96498,-1.39135 6.10841,-6.70979 3.49797,-3.68342 -0.62428,2.89556 1.94673,4.65279 3.92105,6.32951 0,0 -5.07677,5.23421 -5.07677,5.23421 z"
         id="path4318"
         style="fill:#ff6600;fill-opacity:1;fill-rule:nonzero;stroke:none" />
      <path
         inkscape:connector-curvature="0"
         d="m 447.50583,571.90946 c -2.73319,8.87083 -3.10405,18.14508 -3.02951,27.35187 0.60661,13.15808 3.61155,26.11289 8.7664,38.23375 1.05284,2.4756 2.2879,4.86967 3.43185,7.3045 4.95484,8.92141 10.55119,18.41985 19.51892,23.90007 1.2197,0.74536 2.5623,1.2679 3.84344,1.90186 5.9043,2.21863 11.90846,1.27014 17.77883,-0.44177 1.22602,-0.0992 0.69812,-0.0847 1.58203,-0.0851 0,0 -0.0964,0.12984 -0.0964,0.12984 l 0,0 c -3.1099,3.11727 -1.4547,1.6506 -4.97262,4.39207 -7.09492,3.77165 -11.89301,4.36979 -19.6642,1.7307 -1.30592,-0.67075 -2.67461,-1.23126 -3.91774,-2.01224 -9.008,-5.65907 -14.65867,-15.24161 -19.66584,-24.29595 -1.15361,-2.45101 -2.39667,-4.86188 -3.46083,-7.35303 -5.198,-12.16826 -8.29874,-25.16079 -9.02045,-38.37515 -0.117,-9.42907 0.32946,-18.91521 3.34549,-27.94143 0,0 5.56059,-4.43995 5.56059,-4.43995 z"
         id="path4320"
         style="fill:#ff6600;fill-opacity:1;fill-rule:nonzero;stroke:none" />
      <path
         inkscape:connector-curvature="0"
         d="m 469.20026,634.88913 c -7.15889,-0.4096 -14.30795,-0.42284 -21.47136,-0.10118 -6.88089,0.35943 -13.7293,1.11227 -20.57948,1.82409 -2.55266,-0.0223 -4.04527,0.79194 -5.48366,-1.64673 0,0 0.10272,-0.12485 0.10272,-0.12485 l 0,0 c 3.27891,-1.93202 6.54494,-3.6834 10.37861,-4.22207 6.85303,-0.91349 13.75585,-1.40182 20.65447,-1.8223 7.12896,-0.29997 14.32851,-0.53478 21.42624,0.32141 0,0 -5.02754,5.77163 -5.02754,5.77163 z"
         id="path4322"
         style="fill:#ff6600;fill-opacity:1;fill-rule:nonzero;stroke:none" />
    </g>
    <path
       style="fill:#000080;fill-opacity:1;fill-rule:nonzero;stroke:none"
       id="path4858"
       d="m 72.75381,42.621677 c -0.02039,10.884755 1.317082,21.712127 2.658365,32.49505 1.724239,12.980414 3.699271,25.926343 5.808943,38.849263 0.08427,3.383 2.141448,7.80526 1.314334,11.19379 -0.680587,0.95142 -0.214291,0.42147 -1.571955,1.41897 0,0 -1.1862,1.59206 -1.1862,1.59206 l 0,0 c -1.45487,1.07565 -0.793189,0.7649 -1.854033,1.17133 -1.831289,-0.85669 -2.059724,-8.51208 -2.579855,-10.19403 -1.998348,-12.97622 -3.935451,-25.962543 -5.706367,-38.971952 -1.3929,-10.83844 -3.010261,-21.760913 -2.62245,-32.716304 0,0 5.739218,-4.838177 5.739218,-4.838177 z"
       inkscape:connector-curvature="0"
       transform="translate(0,284.36218)" />
    <path
       style="fill:#000080;fill-opacity:1;fill-rule:nonzero;stroke:none"
       id="path4860"
       d="m 51.149428,61.869968 c -2.571781,-0.771468 -5.214722,-2.39859 -5.363499,-5.391874 -0.03111,-0.625921 0.133128,-1.246298 0.199692,-1.869447 0.273895,-0.668099 0.467821,-1.374889 0.821685,-2.004298 3.064341,-5.450482 9.319468,-10.484529 15.153502,-13.06337 1.292918,-0.571513 2.642384,-1.005418 3.963575,-1.508128 7.835093,-2.344089 16.184536,-2.971758 24.220665,-1.230245 1.602841,0.347353 3.156728,0.891109 4.735093,1.336663 5.444889,2.106852 10.813699,5.197955 13.417659,10.712593 1.59001,3.367292 1.27104,4.501391 1.44018,8.164238 -0.28418,1.518347 -0.4212,3.071773 -0.85253,4.555041 -3.21944,11.070941 -13.15065,19.867331 -21.825719,26.661479 -6.225753,4.091784 -13.390245,7.641284 -21.061261,7.198085 -1.016276,-0.05872 -2.012046,-0.311016 -3.018069,-0.466524 -4.744639,-1.698867 -4.013065,-2.327887 -4.379443,-6.796383 0,0 0.116316,-0.112305 0.116316,-0.112305 l 0,0 c 3.425746,1.124658 -0.357424,0.09705 4.180157,0.431578 1.681121,0.123936 3.265218,0.956545 4.983927,0.856865 9.497508,0.508461 15.98404,-1.946695 23.825929,-7.357401 1.443897,-1.164838 2.799212,-2.448956 4.331691,-3.494515 0.558647,-0.381146 -1.78657,2.026898 -1.384057,1.483445 1.103229,-1.489525 2.422073,-2.814063 3.491126,-4.328304 2.879193,-4.078185 4.934873,-8.541368 5.631563,-13.507844 -0.0567,-3.479971 0.28957,-4.621253 -1.16484,-7.845454 C 100.1967,48.937775 94.921941,45.935639 89.729528,43.843429 88.186423,43.405292 86.667568,42.870392 85.100214,42.529017 77.168,40.801354 68.948893,41.47843 61.255252,43.931106 c -3.271774,1.312703 -4.317585,1.55723 -7.260247,3.391169 -0.959584,0.598035 -3.03854,3.076831 -2.752,1.983057 0.382421,-1.459772 1.972173,-2.296123 3.097423,-3.301604 1.130516,-1.010186 -3.797365,4.093156 -2.524908,3.783083 -0.122221,0.560399 -0.33203,1.108673 -0.366663,1.681199 -0.167545,2.769709 2.347632,4.193402 4.62399,4.928883 0,0 -4.923419,5.473075 -4.923419,5.473075 z"
       inkscape:connector-curvature="0"
       transform="translate(0,284.36218)" />
    <path
       style="fill:#000080;fill-opacity:1;fill-rule:nonzero;stroke:none"
       id="path4862"
       d="m 114.60227,85.377111 c 0.8576,6.935194 2.81098,13.646423 5.08162,20.232049 2.5649,6.91699 5.8034,13.61624 10.8069,19.09217 2.52706,2.29847 5.86748,3.54735 8.86686,1.25109 0.58196,-0.44553 1.0397,-1.0333 1.55955,-1.54996 -1.35085,1.15061 -2.33327,3.01274 -4.05255,3.45183 -0.98089,0.25051 0.94179,-1.79849 1.29448,-2.74744 1.91159,-5.14332 1.91646,-10.63141 1.85033,-16.03104 -0.32141,-6.82359 -1.5809,-13.555962 -3.43445,-20.118593 -0.1627,-0.50599 -0.31194,-1.016505 -0.48809,-1.51797 -0.12179,-0.346729 -0.26003,-0.687726 -0.40529,-1.0253 -0.0909,-0.211171 -0.18067,-0.424839 -0.30256,-0.619759 -0.044,-0.07034 -0.25088,-0.110387 -0.18739,-0.163782 6.2384,-5.246322 5.6118,-7.115472 6.10982,-3.379231 1.57029,6.865163 4.66786,13.254583 7.73851,19.549375 3.44779,6.99694 7.55402,13.62549 12.07244,19.97327 0.94191,1.64124 2.267,3.33372 1.96008,5.36776 -0.10486,0.69498 -0.43989,1.33508 -0.65984,2.00263 0,0 -0.1142,0.11445 -0.1142,0.11445 l 0,0 c -3.72047,1.22229 -4.08979,0.73617 -6.83893,-2.00924 -4.64101,-6.31823 -8.5876,-13.10998 -12.13873,-20.09449 -3.12207,-6.32857 -6.24526,-12.736532 -8.02244,-19.59792 -0.84537,-4.083572 -0.71464,-1.552028 5.64845,-7.54996 0.10525,-0.0992 0.16474,0.238586 0.23232,0.366452 0.55406,1.04825 0.85976,2.205933 1.22357,3.326474 1.81825,6.642025 3.10231,13.431893 3.50417,20.317744 0.12572,4.30003 0.20005,8.50127 -0.6291,12.74989 -0.22694,1.16283 -1.22285,5.19877 -2.07302,6.2994 -2.12914,2.75642 -4.66899,5.16961 -7.00349,7.75442 -0.58272,0.47469 -1.10601,1.0335 -1.74816,1.42406 -3.38204,2.05695 -6.96383,0.46603 -9.60053,-1.96057 -5.03572,-5.59031 -8.34323,-12.3668 -10.96382,-19.38112 -2.32283,-6.63441 -4.38135,-13.389103 -5.15559,-20.405534 0,0 5.86908,-5.121155 5.86908,-5.121155 z"
       inkscape:connector-curvature="0"
       transform="translate(0,284.36218)" />
    <path
       style="fill:#ff6600;fill-opacity:1;fill-rule:nonzero;stroke:none"
       id="path4868"
       d="m 450.0634,374.70829 c 0.19485,9.81612 1.59496,19.54885 3.02426,29.24492 2.20245,14.03856 5.05008,27.96456 7.79421,41.90428 1.8166,9.1797 3.48535,18.38951 4.61733,27.68039 0.12721,3.72688 1.26644,7.67782 0.34811,11.38031 -0.92687,1.24971 -0.24697,0.57751 -2.44491,1.49978 0,0 0.12236,-0.10569 0.12236,-0.10569 l 0,0 c -1.95799,2.58798 -0.89444,2.06939 -2.37066,2.64207 -0.50248,-0.8707 -0.49835,-1.87709 -0.583,-2.86458 -0.21943,-2.55966 -0.34974,-5.12701 -0.64195,-7.68048 -1.06033,-9.31547 -2.67383,-18.55063 -4.4504,-27.75452 -2.69354,-14.00811 -5.4679,-28.00652 -7.6092,-42.11283 -1.40312,-9.76878 -2.86097,-19.58578 -2.90816,-29.47612 0,0 5.10201,-4.35753 5.10201,-4.35753 z"
       inkscape:connector-curvature="0"
       transform="translate(0,284.36218)" />
    <path
       style="fill:#ff6600;fill-opacity:1;fill-rule:nonzero;stroke:none"
       id="path4870"
       d="m 444.91174,392.72722 c -0.95705,-3.45141 -1.02233,-7.2798 1.12491,-10.33879 0.4821,-0.68681 1.12465,-1.24567 1.68698,-1.86851 2.32313,-2.01914 4.47499,-4.25415 6.96941,-6.05741 0.8264,-0.59741 1.88704,-0.78864 2.871,-1.05636 4.73082,-1.28716 9.27857,-0.6231 13.94981,0.46888 5.75149,1.95428 11.27762,5.55739 12.84688,11.82293 0.31441,1.25537 0.31234,2.56937 0.46852,3.85405 -0.14436,1.3946 -0.15629,2.80934 -0.43308,4.18379 -2.21753,11.01157 -10.24434,17.19384 -18.09702,24.43895 -5.02516,3.01559 -11.57278,5.84778 -17.41826,3.23694 -0.88146,-0.3937 -1.62401,-1.04426 -2.43601,-1.56639 -2.82513,-3.8914 -1.15093,-0.84158 -2.38556,-5.97811 -0.25592,-1.06471 -0.65405,-2.09013 -0.98108,-3.1352 0,0 0.11782,-0.11073 0.11782,-0.11073 l 0,0 c 0.60809,0.76983 1.02655,1.7385 1.82428,2.3095 1.66075,1.18872 4.09427,0.92913 5.63303,2.41023 0.93217,0.31183 1.83815,0.71704 2.7965,0.93551 6.23663,1.42171 12.35754,-0.94156 17.49276,-4.35594 -0.64776,0.85786 -2.82966,3.18172 -1.94328,2.57357 1.28716,-0.88312 2.21089,-2.21272 3.18968,-3.42872 3.80201,-4.72346 6.26991,-10.3124 6.74515,-16.3741 -0.10156,-1.24485 -0.053,-2.51118 -0.30467,-3.73455 -1.25439,-6.0986 -6.36473,-9.76482 -11.88701,-11.7553 -3.47082,-0.86081 -6.69842,-1.50344 -10.30146,-1.09186 -1.04238,0.11908 -2.08001,0.31675 -3.08875,0.60515 -0.92394,0.26415 -2.53977,1.99568 -2.68643,1.04598 -0.19894,-1.28824 1.57819,-2.07506 2.36729,-3.11259 -0.6077,0.58878 -1.29017,1.10912 -1.82309,1.76635 -2.32079,2.86218 -2.56265,6.62615 -1.64102,10.05687 0,0 -4.6573,4.25586 -4.6573,4.25586 z"
       inkscape:connector-curvature="0"
       transform="translate(0,284.36218)" />
    <path
       style="fill:#ff6600;fill-opacity:1;fill-rule:nonzero;stroke:none"
       id="path4872"
       d="m 496.63496,370.84117 c 1.34165,8.53198 3.90981,16.79365 6.70364,24.94327 3.03773,8.39705 6.75214,16.59827 12.3794,23.58148 2.69237,2.88884 6.44414,4.81326 9.983,2.01118 0.69524,-0.55049 1.2329,-1.27497 1.84935,-1.91245 -1.16965,0.88373 -2.19367,3.29861 -3.50894,2.65121 -1.17566,-0.57869 1.1541,-2.35847 1.60152,-3.59008 0.51011,-1.40419 0.92215,-2.84562 1.26468,-4.2998 1.16856,-4.96098 1.33331,-9.86694 1.37171,-14.93324 -0.16448,-7.85376 -1.93504,-15.46031 -5.39702,-22.49261 -0.41133,-0.65838 -3.21743,-6.11963 -4.53199,-4.58899 1.64331,-1.51743 3.15336,-3.19332 4.92994,-4.5523 0.2532,-0.19367 -0.18491,0.61659 -0.201,0.93496 -0.0254,0.50182 0.0118,1.00727 0.0777,1.50539 0.35707,2.69788 1.35097,5.22293 2.2782,7.75986 3.03608,7.72552 7.19816,14.91172 11.75116,21.82549 1.73729,3.1357 4.85411,5.83705 5.47914,9.5075 0.12426,0.72968 0.0676,1.47883 0.10141,2.21825 0,0 -0.11219,0.11644 -0.11219,0.11644 l 0,0 c -0.87948,0.11535 -1.75191,0.37504 -2.63846,0.34606 -3.9412,-0.12886 -6.276,-4.06476 -8.45636,-6.78215 -4.63459,-6.93671 -8.79515,-14.21147 -11.8352,-22.00132 -0.94172,-2.63569 -1.92501,-5.23396 -2.31019,-8.02296 -6.6e-4,-0.005 -0.26505,-2.57887 -0.042,-2.85191 1.68424,-2.06188 3.71329,-3.81621 5.56994,-5.72432 2.56275,0.22374 3.83231,3.72166 5.06826,5.50671 3.51554,7.11338 5.33299,14.80409 5.59456,22.74876 0.0208,5.02175 -0.0401,9.94071 -1.02388,14.89109 -0.26813,1.34921 -1.54552,6.57666 -2.49038,7.88706 -2.11772,2.937 -4.74346,5.47197 -7.11519,8.20795 -0.71064,0.63182 -1.33823,1.37177 -2.13192,1.89547 -3.93398,2.59572 -7.98142,0.2898 -10.7795,-2.73117 -5.63811,-7.09402 -9.39407,-15.37468 -12.48113,-23.85573 -2.8392,-8.1895 -5.44635,-16.49164 -6.76954,-25.08214 0,0 5.82132,-5.11696 5.82132,-5.11696 z"
       inkscape:connector-curvature="0"
       transform="translate(0,284.36218)" />
    <path
       style="fill:#000080;fill-opacity:1;fill-rule:nonzero;stroke:none"
       id="path4920"
       d="m 176.79697,39.833225 c -1.05196,6.082712 -1.44024,12.248303 -1.70516,18.406795 -0.41248,10.223409 0.54708,20.408593 2.07928,30.502406 1.41456,8.478473 3.60307,16.819274 7.59787,24.456054 1.19042,1.98679 2.63396,3.8325 4.43195,5.30917 1.22724,1.00793 2.58874,1.6704 3.76235,2.74693 0.18978,1.74395 -0.20728,1.13622 0.79534,2.0274 0,0 -0.10755,0.12072 -0.10755,0.12072 l 0,0 c -2.08707,0.25507 -0.88166,0.004 -3.55162,1.01417 -5.13087,0.10524 -7.78332,-2.12901 -10.55004,-6.30418 -4.07842,-7.7144 -6.16565,-16.21102 -7.58607,-24.786091 -1.51911,-10.176393 -2.48633,-20.446385 -2.00061,-30.748884 0.34245,-6.313323 0.84991,-12.62716 2.08073,-18.83958 0,0 4.75353,-3.90491 4.75353,-3.90491 z"
       inkscape:connector-curvature="0"
       transform="translate(0,284.36218)" />
    <path
       style="fill:#000080;fill-opacity:1;fill-rule:nonzero;stroke:none"
       id="path4922"
       d="m 206.4768,40.793199 c -0.94765,7.101151 -0.88693,14.277342 -0.69789,21.421973 0.44993,10.87334 1.83837,21.675216 3.73966,32.381559 1.2303,7.133079 3.62742,13.901979 6.93759,20.311889 1.0248,2.57711 3.29576,4.69835 3.99482,7.42094 0.36345,1.41548 0.12924,2.09313 -0.0604,3.51402 0,0 -0.11402,0.11463 -0.11402,0.11463 l 0,0 c -0.61887,0.0899 -1.2313,0.27779 -1.85661,0.26967 -3.48213,-0.0452 -5.34934,-4.09587 -7.08907,-6.4845 -3.57329,-6.37792 -5.87902,-13.26369 -7.07951,-20.486743 -1.88299,-10.777067 -3.20141,-21.653193 -3.65437,-32.590975 -0.2071,-7.266529 -0.24021,-14.561827 0.91574,-21.763182 0,0 4.96411,-4.109281 4.96411,-4.109281 z"
       inkscape:connector-curvature="0"
       transform="translate(0,284.36218)" />
    <path
       style="fill:#ff6600;fill-opacity:1;fill-rule:nonzero;stroke:none"
       id="path4934"
       d="m 559.92821,319.87697 c -1.84472,5.64777 -2.56173,11.56232 -3.21617,17.44088 -1.04236,10.74517 -0.91756,21.53371 -0.23451,32.29213 0.55999,6.89456 1.62986,13.77748 3.81648,20.35935 1.24913,3.75997 1.77868,4.63684 3.42366,8.16157 2.7019,5.56825 6.87787,10.05784 11.08251,14.49464 0.40321,0.47942 1.72072,1.91511 1.93679,2.62829 0.24417,0.80593 0.0776,1.68429 0.18472,2.51956 0,0 -0.11145,0.11714 -0.11145,0.11714 l 0,0 c -2.83583,0.37959 -3.58216,0.61954 -6.10933,-1.1267 -4.91106,-3.85297 -8.66737,-8.86387 -11.51744,-14.4052 -4.33389,-9.32883 -6.57702,-18.54548 -7.22549,-28.8398 -0.66278,-10.89206 -0.73897,-21.83893 0.54881,-32.69435 0.76269,-6.06776 1.62863,-12.16078 3.67474,-17.95454 0,0 3.74668,-2.99297 3.74668,-2.99297 z"
       inkscape:connector-curvature="0"
       transform="translate(0,284.36218)" />
    <path
       style="fill:#ff6600;fill-opacity:1;fill-rule:nonzero;stroke:none"
       id="path4936"
       d="m 591.34069,321.26422 c -3.51287,7.30197 -4.41501,15.4148 -5.11256,23.38181 -0.84194,11.98796 0.74235,23.86675 3.47374,35.51048 1.81123,7.81625 5.32521,15.00006 8.81554,22.16102 1.56684,2.88399 2.0712,5.93736 2.35478,9.14996 0,0 -0.11787,0.11066 -0.11787,0.11066 l 0,0 c -2.27901,-1.60901 -4.58463,-3.1338 -6.27198,-5.42101 -4.68962,-6.52185 -7.47219,-14.0509 -9.48273,-21.79428 -2.72924,-11.75116 -4.29916,-23.74406 -3.4025,-35.83353 0.76863,-8.17889 1.7808,-16.52787 5.48457,-23.98213 0,0 4.25901,-3.28298 4.25901,-3.28298 z"
       inkscape:connector-curvature="0"
       transform="translate(0,284.36218)" />
  </g>
</svg>
