<?xml version="1.0" encoding="UTF-8" standalone="no"?>
<!-- Created with Inkscape (http://www.inkscape.org/) -->

<svg
   xmlns:dc="http://purl.org/dc/elements/1.1/"
   xmlns:cc="http://creativecommons.org/ns#"
   xmlns:rdf="http://www.w3.org/1999/02/22-rdf-syntax-ns#"
   xmlns:svg="http://www.w3.org/2000/svg"
   xmlns="http://www.w3.org/2000/svg"
   xmlns:sodipodi="http://sodipodi.sourceforge.net/DTD/sodipodi-0.dtd"
   xmlns:inkscape="http://www.inkscape.org/namespaces/inkscape"
   width="1024"
   height="768"
   id="svg4160"
   version="1.1"
   inkscape:version="0.48.4 r9939"
   sodipodi:docname="git-begriffe1.svg">
  <defs
     id="defs4162" />
  <sodipodi:namedview
     id="base"
     pagecolor="#ffffff"
     bordercolor="#666666"
     borderopacity="1.0"
     inkscape:pageopacity="0.0"
     inkscape:pageshadow="2"
     inkscape:zoom="0.86588542"
     inkscape:cx="512"
     inkscape:cy="371.18049"
     inkscape:document-units="px"
     inkscape:current-layer="layer1"
     showgrid="false"
     inkscape:window-width="1600"
     inkscape:window-height="886"
     inkscape:window-x="0"
     inkscape:window-y="14"
     inkscape:window-maximized="0" />
  <metadata
     id="metadata4165">
    <rdf:RDF>
      <cc:Work
         rdf:about="">
        <dc:format>image/svg+xml</dc:format>
        <dc:type
           rdf:resource="http://purl.org/dc/dcmitype/StillImage" />
        <dc:title></dc:title>
      </cc:Work>
    </rdf:RDF>
  </metadata>
  <g
     inkscape:label="Ebene 1"
     inkscape:groupmode="layer"
     id="layer1"
     transform="translate(0,-284.36218)">
    <g
       id="g4356"
       transform="matrix(0.99916797,0.04078434,-0.04078434,0.99916797,18.677246,9.9886709)">
      <path
         transform="translate(0,284.36218)"
         inkscape:connector-curvature="0"
         d="m 71.713064,52.49582 c -0.814777,10.742431 0.474101,21.535318 1.461546,32.226405 1.548681,15.230834 2.786668,30.488865 3.782938,45.765045 0.218396,7.12524 1.158349,14.23786 1.097365,21.3711 0.15655,1.56377 -0.545881,2.83923 -1.127872,4.21753 0,0 -0.104188,0.12364 -0.104188,0.12364 l 0,0 c -1.303077,0.86468 -2.952814,2.08078 -3.9716,0.23431 -0.732029,-2.15451 -0.8745,-4.20784 -1.010449,-6.48658 -0.286276,-4.79846 -0.421232,-9.60525 -0.730341,-14.40256 C 70.193507,120.26005 68.983674,104.99586 67.379662,89.766775 66.343793,79.048272 64.928609,68.225413 65.720871,57.44769 c 0,0 5.992193,-4.95187 5.992193,-4.95187 z"
         id="path4250"
         style="fill:#000080;fill-opacity:1;fill-rule:nonzero;stroke:none" />
      <path
         transform="translate(0,284.36218)"
         inkscape:connector-curvature="0"
         d="m 41.206224,71.166875 c -3.996269,0.377091 -6.103066,-0.168127 -7.707461,-4.031143 -0.786929,-5.550511 2.754375,-10.291145 5.866953,-14.521221 6.144078,-6.95178 12.791595,-14.792629 22.131149,-17.352417 1.455558,-0.398939 2.970967,-0.533443 4.45645,-0.800164 8.743141,-0.39477 16.827413,3.00801 23.415615,8.663287 1.391689,1.194619 2.619661,2.567689 3.929492,3.851533 5.786378,6.731171 9.704758,14.923803 9.949698,23.916165 0.0451,1.654759 -0.16318,3.306723 -0.24477,4.960084 -2.36451,14.012749 -8.987597,19.155306 -18.916575,28.647431 -4.613789,3.64587 -9.912873,6.19609 -15.326099,8.40266 -3.388982,1.31042 -6.92692,4.43309 3.326178,-4.83376 0.015,-0.0136 1.797252,0.36416 2.132535,0.43428 7.644308,1.5971 14.699033,5.03718 21.642705,8.48928 9.822626,5.21155 19.472066,10.84564 28.151736,17.82368 3.02039,2.67866 3.58544,3.57344 4.02262,7.42187 0,0 -0.1136,0.11505 -0.1136,0.11505 l 0,0 c -3.24138,-0.0962 -6.01534,-0.58145 -8.77435,-2.50084 -9.4833,-5.81221 -18.6144,-12.23122 -28.607492,-17.17818 -6.936595,-3.38817 -13.99287,-6.73932 -21.631824,-8.20288 -0.470838,-0.0953 -0.945167,-0.17464 -1.412512,-0.28577 -0.315186,-0.0749 -1.098513,0.007 -0.93309,-0.27198 3.299726,-5.55644 3.144125,-5.75837 7.041198,-7.14403 5.376284,-2.14794 10.561386,-4.79198 15.058656,-8.487957 -0.755747,0.873168 -3.165076,3.345777 -2.267242,2.619507 1.130001,-0.914078 2.04785,-2.068646 2.972506,-3.190005 4.01551,-4.86973 6.647398,-10.580286 7.65853,-16.81395 0.108818,-1.624205 0.344307,-3.244868 0.326453,-4.872616 -0.09707,-8.849287 -3.915463,-16.895119 -9.530931,-23.565101 -1.27652,-1.268424 -2.470347,-2.625889 -3.829559,-3.805271 -6.401937,-5.55493 -14.288567,-8.884294 -22.825248,-8.374298 -5.080237,0.996594 -7.696999,1.668115 -12.058696,4.659913 -1.173668,0.805048 -1.979149,2.283697 -3.357722,2.637439 -1.02966,0.264211 2.811921,-3.183601 2.173577,-2.333587 -0.783828,1.043737 -1.741347,1.944943 -2.612021,2.917415 -3.067628,4.046711 -6.549507,8.535142 -6.261044,13.888398 1.104407,3.659317 3.112799,3.926943 6.648923,3.659167 0,0 -4.494738,5.458011 -4.494738,5.458011 z"
         id="path4252"
         style="fill:#000080;fill-opacity:1;fill-rule:nonzero;stroke:none" />
      <path
         transform="translate(0,284.36218)"
         inkscape:connector-curvature="0"
         d="m 136.18204,118.99467 c 4.54143,0.26311 8.82074,-0.78519 12.88668,-2.73061 2.0144,-1.2757 8.91783,-6.64107 -0.0287,1.01934 -0.54173,0.46386 0.94039,-1.07536 1.35673,-1.6544 1.08338,-1.50674 1.07132,-1.74451 1.75798,-3.41273 0.77772,-3.12516 -0.12434,-6.41596 -2.81239,-8.38155 -0.5902,-0.43157 -1.28484,-0.69823 -1.92727,-1.04735 -6.8111,-1.86406 -12.04524,2.01715 -16.89017,6.33057 0.95836,-0.84775 1.90467,-3.37717 2.87507,-2.54324 0.96674,0.8308 -1.52537,2.04881 -2.17252,3.14699 -1.93637,3.28592 -3.14338,6.95694 -3.26913,10.78689 -0.0421,1.28161 0.14304,2.56062 0.21455,3.84093 1.17553,6.57372 4.48027,12.60572 9.88345,16.66234 1.03369,0.77608 2.19202,1.3705 3.28804,2.05575 7.097,3.57617 14.72072,1.99466 22.241,1.34548 3.06953,0.81297 1.40058,0.75449 5.002,-0.28151 0,0 -0.10152,0.12584 -0.10152,0.12584 l 0,0 c -4.59828,1.32298 -2.02517,0.34759 -7.52462,3.39565 -8.89509,3.52971 -15.97132,5.31694 -25.0586,1.10432 -1.12676,-0.71637 -2.31643,-1.34228 -3.38028,-2.14913 -5.53209,-4.19565 -8.97816,-10.36514 -10.30349,-17.10418 -0.1025,-1.31488 -0.31908,-2.62582 -0.3075,-3.94464 0.0878,-10.00063 6.35423,-16.0728 13.2059,-22.66594 5.15551,-4.313846 10.5285,-7.834597 17.45803,-5.559524 0.68848,0.393977 1.42709,0.711052 2.06545,1.181933 2.83466,2.090961 4.14651,5.438901 3.59477,8.869101 -2.1921,6.62012 -8.12892,11.51248 -13.96928,15.01443 -4.13467,1.78878 -8.46664,2.78249 -12.99891,2.25657 0,0 4.91472,-5.66133 4.91472,-5.66133 z"
         id="path4254"
         style="fill:#000080;fill-opacity:1;fill-rule:nonzero;stroke:none" />
      <path
         transform="translate(0,284.36218)"
         inkscape:connector-curvature="0"
         d="m 175.67739,106.14285 c 4.76563,8.22885 7.494,17.4736 10.51339,26.4406 4.49865,13.86746 9.16889,27.67531 14.18426,41.36454 3.17175,8.71044 6.84478,17.2566 9.47915,26.1539 0.53193,1.95182 0.27608,3.38669 -0.55736,5.1414 0,0 -0.11853,0.10997 -0.11853,0.10997 l 0,0 c -1.85041,0.4658 -2.21912,0.0971 -3.47643,-1.39985 -4.68353,-7.76567 -7.75746,-16.36934 -11.01014,-24.79636 -4.99126,-13.70096 -9.66564,-27.51041 -14.20985,-41.36581 -3.06644,-8.9938 -6.06378,-18.04462 -10.00129,-26.70453 0,0 5.1968,-4.94386 5.1968,-4.94386 z"
         id="path4256"
         style="fill:#000080;fill-opacity:1;fill-rule:nonzero;stroke:none" />
      <path
         transform="translate(0,284.36218)"
         inkscape:connector-curvature="0"
         d="m 171.17442,135.35992 c -2.29438,-4.04384 -3.78177,-8.3642 -3.85579,-13.02161 0.30313,-2.26678 1.04293,-4.48763 2.66371,-6.18329 5.63684,-5.89723 6.44848,-7.25771 12.74839,-9.76068 6.29397,-1.76729 12.82383,-1.00048 18.65693,1.94305 1.1981,0.6046 2.30083,1.38206 3.45125,2.07308 3.80664,2.90149 7.19608,6.6947 7.34532,11.7591 0.0916,3.10951 -0.62671,4.05622 -1.75041,6.89794 -5.2622,8.08198 -12.90491,14.92361 -22.62347,16.51778 -1.36529,0.22396 -2.75743,0.23065 -4.13614,0.34597 -3.73674,-0.11932 -7.28615,-0.53114 -10.15305,-3.16414 -0.76566,-0.7032 -1.32427,-1.60287 -1.98641,-2.40431 0,0 0.11006,-0.11845 0.11006,-0.11845 l 0,0 c 5.53254,0.32705 11.10671,0.57376 16.63825,0.14945 4.39272,-0.74824 8.54186,-1.60244 12.50063,-3.77822 1.24487,-0.68419 2.2201,-2.82678 3.55706,-2.34683 1.15274,0.4138 -2.05296,3.91077 -2.43863,2.74833 -0.40467,-1.21971 1.5546,-2.04669 2.3319,-3.07003 1.19314,-2.63317 1.97419,-3.60808 2.01913,-6.5474 0.0745,-4.8762 -3.20721,-8.52088 -6.84114,-11.28723 -1.12112,-0.6653 -2.19479,-1.41801 -3.36338,-1.9959 -5.68664,-2.81219 -12.06736,-3.42019 -18.13976,-1.60953 -0.94558,0.40154 -1.9264,0.72853 -2.83672,1.20461 -2.12058,1.10902 -5.87942,4.48627 1.00253,-2.1095 0.57173,-0.54795 -1.06624,1.17913 -1.50393,1.83908 -1.11343,1.67884 -1.0677,2.1503 -1.55592,4.05163 -0.26695,4.77455 1.05394,9.02018 2.97342,13.35956 0,0 -4.81383,4.50754 -4.81383,4.50754 z"
         id="path4258"
         style="fill:#000080;fill-opacity:1;fill-rule:nonzero;stroke:none" />
      <path
         transform="translate(0,284.36218)"
         inkscape:connector-curvature="0"
         d="m 268.23703,119.94754 c -3.32726,-4.03324 -7.65462,-6.60712 -12.50857,-8.36168 -5.17959,-1.39918 -10.70061,-1.22953 -15.61834,1.06781 -0.99145,0.46316 -1.89962,1.0869 -2.84943,1.63035 -0.8352,0.71409 -3.34418,2.85239 -2.5056,2.14227 1.14967,-0.97354 1.93284,-2.97001 3.43887,-2.93257 1.11828,0.0278 -1.14648,1.93402 -1.54387,2.97969 -1.44339,3.79801 -0.98163,6.68939 -0.24253,10.53589 2.23299,6.2481 6.8032,11.55994 13.23813,13.72354 1.18824,0.39952 2.45006,0.53224 3.67508,0.79836 1.20397,-0.0473 2.42488,0.0648 3.6119,-0.14198 2.33468,-0.40666 4.50075,-1.45797 6.32466,-2.95673 0.89709,-0.73716 3.55616,-2.6425 2.40118,-2.52345 -1.49735,0.15433 -2.18122,2.9608 -3.65462,2.65265 -1.10212,-0.2305 0.76504,-2.11799 1.14756,-3.17699 1.60985,-6.2314 -1.2473,-12.06414 -2.0031,-18.11022 -0.24822,-0.63709 -0.49644,-1.27418 -0.74466,-1.91127 0,0 0.11238,-0.11625 0.11238,-0.11625 l 0,0 c 0.7939,0.10107 1.5878,0.20213 2.38169,0.30319 0.8444,0.2158 1.78123,0.20682 2.53321,0.6474 0.72655,0.42569 1.23856,1.15851 1.72377,1.84675 2.55487,3.62384 2.77881,8.17655 2.16778,12.40697 -2.08126,6.6548 -0.51659,3.17443 -8.3074,11.84545 -3.4348,3.82287 -7.82925,5.53089 -12.94527,5.10874 -1.26439,-0.30545 -2.56786,-0.47977 -3.79316,-0.91635 -6.60948,-2.35503 -11.34291,-7.80515 -13.7581,-14.24105 -0.69329,-3.20205 -1.17006,-4.17002 -0.84448,-7.45493 0.73649,-7.4306 6.76502,-12.50025 12.41384,-16.77166 0.98347,-0.51696 1.9288,-1.11414 2.95043,-1.55087 5.10633,-2.18289 10.72046,-2.2197 15.98854,-0.65228 4.9057,1.93865 9.35298,4.61424 12.52856,8.94467 0,0 -5.31845,5.18455 -5.31845,5.18455 z"
         id="path4260"
         style="fill:#000080;fill-opacity:1;fill-rule:nonzero;stroke:none" />
      <path
         transform="translate(0,284.36218)"
         inkscape:connector-curvature="0"
         d="m 314.51267,106.95057 c -4.69322,-1.83067 -9.73907,-2.69593 -14.74925,-1.80761 -1.11137,0.19705 -2.18845,0.55372 -3.28268,0.83057 -2.62681,1.08688 -3.39522,1.23608 -5.71902,2.84593 -0.78325,0.54261 -2.8366,2.52827 -2.2172,1.80421 7.22517,-8.44596 2.79345,-2.4868 2.37813,-1.48663 -0.21626,0.5208 -0.24279,1.10139 -0.36418,1.65208 0.12378,0.51974 0.11935,1.08811 0.37136,1.55922 2.09098,3.90876 10.69245,5.2138 14.46107,6.07347 7.68661,1.85178 16.12067,2.5272 23.05379,6.68272 1.09118,0.65403 2.03669,1.52501 3.05504,2.28751 0.68879,0.91021 1.54075,1.71741 2.06637,2.73064 4.55982,8.78997 -6.20531,16.67341 -11.1747,21.59544 -5.40048,3.68482 -12.8766,6.99207 -19.55854,4.88203 -1.08138,-0.34148 -2.0054,-1.05942 -3.00809,-1.58913 -0.72849,-0.84642 -1.45698,-1.69284 -2.18547,-2.53925 0,0 0.10997,-0.11853 0.10997,-0.11853 l 0,0 c 1.40558,0.0852 2.81116,0.17039 4.21673,0.25559 2.87547,-0.0109 5.74344,0.071 8.60551,-0.31061 6.03522,-0.80468 11.6642,-3.13684 16.44396,-6.90992 -0.80125,0.87741 -2.19724,3.80238 -2.40377,2.63224 -0.22469,-1.27313 1.66551,-1.99317 2.31977,-3.10821 1.63602,-2.78824 2.43679,-6.22738 0.96285,-9.28077 -0.46418,-0.9616 -1.25999,-1.72424 -1.88999,-2.58636 -0.97491,-0.73366 -1.87797,-1.57408 -2.92473,-2.20099 -6.88655,-4.12434 -15.28493,-4.73649 -22.91432,-6.5757 -4.46911,-1.02684 -12.45348,-2.22779 -14.91688,-6.80306 -0.30547,-0.56736 -0.36571,-1.23577 -0.54856,-1.85365 0.0971,-0.64031 0.0769,-1.30983 0.29136,-1.92092 0.24442,-0.69644 0.57353,-1.3904 1.06423,-1.94175 4.48229,-5.03626 8.39008,-9.0994 14.77148,-11.10918 1.10755,-0.24138 2.20059,-0.56317 3.32265,-0.724121 4.99843,-0.71698 10.10147,0.203771 14.52735,2.611511 0,0 -4.16424,4.42323 -4.16424,4.42323 z"
         id="path4262"
         style="fill:#000080;fill-opacity:1;fill-rule:nonzero;stroke:none" />
      <path
         transform="translate(0,284.36218)"
         inkscape:connector-curvature="0"
         d="m 357.08866,94.702213 c -0.58362,7.860687 0.97419,15.659897 2.82083,23.255727 1.97064,6.50009 4.37567,13.30696 9.25804,18.25612 0.67826,0.68754 1.46783,1.25559 2.20174,1.88338 3.2374,2.3243 6.84278,2.20886 10.58329,1.70798 -0.21898,0.69035 -0.17714,0.70237 -0.13003,-0.0122 0,0 0.12681,-0.1003 0.12681,-0.1003 l 0,0 c -1.21098,2.33466 -0.3815,1.0204 -2.79517,3.73161 -5.00173,3.49267 -8.11011,3.59241 -13.34865,0.31763 -0.75737,-0.66215 -1.57082,-1.26518 -2.27211,-1.98646 -4.93142,-5.072 -7.42442,-11.95534 -9.44643,-18.57719 -1.8934,-7.62884 -3.46635,-15.42667 -3.15815,-23.332618 0,0 6.15983,-5.143719 6.15983,-5.143719 z"
         id="path4264"
         style="fill:#000080;fill-opacity:1;fill-rule:nonzero;stroke:none" />
      <path
         transform="translate(0,284.36218)"
         inkscape:connector-curvature="0"
         d="m 350.27855,63.647372 c 3.65354,-2.082658 6.97545,-1.575985 10.18384,0.970248 2.02146,2.382281 1.8085,5.278 -0.46495,7.437979 -2.38357,2.264605 -4.86748,4.421208 -7.30122,6.631812 -4.01812,1.772131 -8.13728,1.42068 -11.86541,-0.780212 -3.57313,-2.970204 -0.25965,-5.502856 2.20962,-7.787591 0,0 0.13025,-0.0958 0.13025,-0.0958 l 0,0 c 0.26577,-0.05542 0.82656,-0.216136 1.09005,-0.07168 0.78145,0.428419 1.14448,1.890516 2.07562,2.15714 3.56643,2.04024 7.49714,2.144688 11.17987,0.221608 -1.32152,1.480581 -2.69758,2.914222 -3.96454,4.441744 -0.38026,0.458464 0.9202,-0.76749 1.29857,-1.227508 1.37782,-1.675094 1.37322,-3.548562 0.0262,-5.207947 -2.90161,-2.266268 -6.06074,-2.564208 -9.18888,-0.465881 0,0 4.59094,-6.223905 4.59094,-6.223905 z"
         id="path4266"
         style="fill:#000080;fill-opacity:1;fill-rule:nonzero;stroke:none" />
      <path
         transform="translate(0,284.36218)"
         inkscape:connector-curvature="0"
         d="m 393.09291,31.244749 c 0.006,11.615321 2.27541,23.002059 5.05416,34.223397 4.19363,15.58526 10.99808,30.225098 19.04402,44.154624 4.48998,7.30234 9.51013,14.40363 16.22344,19.82157 1.26783,0.80334 2.55152,1.72848 4.06314,2.0135 0.61701,0.11634 1.34102,-0.23127 1.88158,0.0882 0.19195,0.11342 0.1535,0.41865 0.23025,0.62798 0.308,-0.16989 0.616,-0.33978 0.924,-0.50967 0,0 -0.0968,0.1295 -0.0968,0.1295 l 0,0 c -0.54758,0.48031 -1.09516,0.96062 -1.64275,1.44093 -3.84401,3.35105 -6.30876,5.17244 -10.92609,1.88665 -6.69927,-5.58831 -11.74793,-12.77778 -16.24635,-20.19616 -8.0241,-14.01722 -14.8618,-28.71489 -19.1606,-44.33593 -2.85024,-11.233551 -5.28102,-22.647522 -5.27038,-34.299217 0,0 5.92238,-5.045334 5.92238,-5.045334 z"
         id="path4268"
         style="fill:#000080;fill-opacity:1;fill-rule:nonzero;stroke:none" />
      <path
         transform="translate(0,284.36218)"
         inkscape:connector-curvature="0"
         d="m 419.62116,80.384839 c -6.91035,1.647238 -13.99084,2.483903 -21.02938,3.383906 -4.89228,0.6968 -9.82114,1.036191 -14.74396,1.417842 -3.10577,0.240781 -1.57992,0.353744 -3.93253,7.94e-4 -0.24945,-0.05658 -0.4989,-0.113164 -0.74835,-0.169747 0,0 0.0984,-0.128272 0.0984,-0.128272 l 0,0 c 0.84993,-0.691265 1.69986,-1.382531 2.54979,-2.073796 1.01817,-0.561831 1.98407,-1.231095 3.05451,-1.685493 5.49575,-2.332926 12.90867,-2.344188 18.74477,-3.397154 7.01823,-0.91244 14.04868,-1.840618 20.95042,-3.440872 0,0 -4.9437,6.092792 -4.9437,6.092792 z"
         id="path4270"
         style="fill:#000080;fill-opacity:1;fill-rule:nonzero;stroke:none" />
      <path
         transform="translate(0,284.36218)"
         inkscape:connector-curvature="0"
         d="m 481.0998,102.83423 c -3.77937,-4.660995 -8.58813,-7.102866 -14.25096,-8.743578 -5.01132,-0.994714 -10.34771,-0.520823 -14.49885,2.738437 -0.77671,0.609832 -1.41424,1.378631 -2.12136,2.067946 1.26677,-1.013818 2.17783,-3.030127 3.80029,-3.041455 1.08319,-0.0076 -0.91793,1.975199 -1.19172,3.023244 -0.30265,1.158526 -0.47672,2.357056 -0.52634,3.553436 -0.18784,4.52921 1.2598,8.37909 2.91638,12.49454 3.36126,6.03888 8.38545,12.8157 15.86292,13.71051 1.20063,0.14368 2.41623,-0.1021 3.62435,-0.15315 3.14383,0.97942 3.92829,-3.51361 6.38077,-3.71012 1.26287,-0.10119 -2.16449,3.34794 -2.97079,2.37071 -0.87091,-1.05553 1.41208,-2.35516 1.94296,-3.61642 1.37664,-3.27061 1.31439,-4.50064 1.78494,-7.95886 0.23491,-3.63171 -0.15283,-7.25121 -0.91136,-10.80096 -0.26615,-1.24555 -1.07969,-3.8052 -1.14554,-5.152352 -0.0417,-0.853078 0.13932,-1.702503 0.20897,-2.553755 0,0 0.11427,-0.114388 0.11427,-0.114388 l 0,0 c 0.87749,-0.0519 1.77835,-0.363442 2.63248,-0.155703 4.24888,1.033399 5.15104,10.449448 5.14432,13.743978 -1.21299,10.70529 -3.00927,12.32929 -11.52247,20.54312 -0.93425,0.9014 -2.02825,1.65355 -3.18759,2.23774 -1.12165,0.56519 -2.38721,0.78188 -3.58081,1.17282 -1.26584,-0.004 -2.54673,0.18182 -3.79751,-0.0129 -7.64806,-1.19066 -12.80963,-7.9752 -16.33551,-14.23439 -2.26585,-5.44902 -4.11259,-10.42863 -2.82355,-16.44159 0.23334,-1.08847 0.40868,-2.26647 1.06597,-3.1649 2.13747,-2.921619 4.79904,-5.421044 7.19855,-8.131565 0.75166,-0.655971 1.43958,-1.393087 2.25497,-1.967913 4.40275,-3.103813 9.87856,-3.430613 14.98066,-2.280418 5.55457,1.891862 10.73264,4.648232 14.10928,9.637452 0,0 -5.15772,4.940484 -5.15772,4.940484 z"
         id="path4272"
         style="fill:#000080;fill-opacity:1;fill-rule:nonzero;stroke:none" />
      <path
         transform="translate(0,284.36218)"
         inkscape:connector-curvature="0"
         d="m 523.5078,132.41705 c -4.33786,-4.47234 -7.43195,-9.90546 -10.29336,-15.38759 -3.56105,-7.10263 -6.02968,-14.62328 -6.87621,-22.52271 0.0296,-3.508615 0.27488,-7.667105 2.83994,-10.409825 6.71892,-7.184291 4.63538,-5.815086 9.68998,-8.438218 5.8784,-2.231271 12.09994,-1.511321 18.13701,-0.458946 1.84366,0.478266 7.05153,1.204004 8.19069,3.037797 0.27142,0.436914 0.33949,2.357303 0.37374,2.894566 0,0 -0.10944,0.119018 -0.10944,0.119018 l 0,0 c -0.47774,0.155135 -3.92054,1.282406 -4.1861,1.324517 -3.18958,0.505773 -6.42201,-1.032817 -9.51495,-1.440367 -5.92959,-0.996435 -12.05621,-1.646854 -17.737,0.820497 -2.58003,1.550287 -5.21827,3.409194 1.50581,-2.647129 0.60241,-0.542584 -1.05056,1.245996 -1.45709,1.947444 -1.42935,2.466306 -1.75415,5.281124 -1.77577,8.074838 0.50195,7.918033 2.87979,15.433048 6.40937,22.533498 2.8237,5.42422 5.89551,10.76736 10.16853,15.20356 0,0 -5.36515,5.34905 -5.36515,5.34905 z"
         id="path4274"
         style="fill:#000080;fill-opacity:1;fill-rule:nonzero;stroke:none" />
      <path
         transform="translate(0,284.36218)"
         inkscape:connector-curvature="0"
         d="m 560.9049,84.744644 c 2.44962,7.221028 5.67775,14.121896 9.1784,20.882836 3.60958,6.19991 7.3102,12.87059 13.10835,17.34352 0.76004,0.58633 1.61715,1.0347 2.42572,1.55206 1.80619,0.58824 2.52618,1.11777 4.43842,0.64996 2.38178,-0.58268 4.56724,-3.16271 3.91362,-2.62486 -4.40659,3.62618 -4.68268,4.8908 -2.18071,0.39663 2.86863,-6.43302 3.82834,-13.44732 4.37555,-20.40668 0.17984,-2.14323 0.13219,-4.294292 0.19524,-6.441269 0.007,-0.236434 0.0487,-1.63458 0.1739,-1.725308 2.22305,-1.610739 4.60649,-2.987637 6.90973,-4.481456 4.4537,6.396662 8.03229,13.384953 11.73513,20.234583 4.99291,9.46438 9.97591,19.04105 13.20095,29.2849 0.67084,2.1308 1.18715,4.3072 1.78072,6.4608 2.65346,11.86886 2.41353,24.18489 -1.11611,35.86108 -0.73401,2.42813 -1.74163,4.76497 -2.61245,7.14745 -2.92079,6.6118 -6.84643,12.58529 -12.22,17.4621 -3.4659,3.1455 -6.86848,6.40664 -10.70988,9.08061 -3.64827,2.53953 -7.49472,2.61141 -11.66822,3.22292 -2.00839,-0.22015 -4.05964,-0.19267 -6.02516,-0.66047 -8.60876,-2.04892 -15.59779,-8.47166 -20.26895,-15.73976 -1.17909,-1.8346 -2.06887,-3.83976 -3.10331,-5.75964 -2.88095,-6.92556 -4.32449,-14.43347 -1.96139,-21.7525 1.29755,-4.0188 2.2148,-4.74152 4.63086,-8.07347 2.69574,-2.59088 5.22289,-5.36945 8.08721,-7.77263 3.13302,-2.62862 9.86307,-4.46031 13.91688,-3.72324 0.87208,0.15856 1.65615,0.63232 2.48423,0.94848 0.70459,0.40084 1.40918,0.80169 2.11377,1.20254 0,0 -0.10674,0.12144 -0.10674,0.12144 l 0,0 c -1.16271,0.13448 -2.32542,0.26895 -3.48813,0.40343 -3.8478,0.80659 -7.87515,1.34267 -11.5969,2.65194 -1.2942,0.45529 -2.57436,0.97098 -3.78576,1.61498 -1.26013,0.66989 -2.18593,2.1427 -3.60287,2.31289 -0.90326,0.10849 1.16947,-1.3939 1.7542,-2.09085 -0.85199,1.13885 -1.83228,2.19215 -2.55597,3.41654 -4.69035,7.93547 -3.54151,17.24225 -0.25996,25.43306 1.00463,1.89353 1.86295,3.87224 3.0139,5.68057 4.52783,7.11401 11.38191,13.40605 19.82989,15.27302 1.91975,0.42426 3.91621,0.35368 5.87431,0.53052 1.93439,-0.32826 3.92435,-0.4194 5.80316,-0.98478 1.94072,-0.58401 3.56481,-2.14325 5.56999,-2.43767 0.54658,-0.0803 -0.6396,1.96059 -0.18483,1.64696 1.86931,-1.28913 3.33871,-3.09538 4.80241,-4.8314 3.99223,-4.73502 4.76101,-6.92458 7.64546,-12.3998 0.88929,-2.35974 1.91612,-4.67214 2.66788,-7.07923 3.60532,-11.54401 3.91131,-23.75522 1.33323,-35.53179 -0.58168,-2.13898 -1.08527,-4.30074 -1.74503,-6.41693 -3.18365,-10.21166 -8.14637,-19.75359 -13.15718,-29.15857 -3.68787,-6.74277 -7.27584,-13.61026 -11.72292,-19.889234 1.68246,-2.07098 3.34775,-4.156018 5.04737,-6.21294 0.11287,-0.136595 -0.24108,0.277193 -0.28464,0.448948 -0.0907,0.35765 -0.0884,0.733161 -0.1086,1.101579 -0.11932,2.172362 -0.0194,4.355015 -0.2234,6.524331 -0.53185,7.028756 -1.46918,14.102556 -4.17976,20.667216 -2.92167,5.7611 -1.36013,3.34969 -8.8125,10.82158 -2.61787,2.62472 -5.87447,2.84089 -9.1046,1.31338 -0.83126,-0.55333 -1.71106,-1.0399 -2.49377,-1.66 -5.81307,-4.60536 -9.58772,-11.31438 -13.23788,-17.61215 -3.48763,-6.8188 -6.68417,-13.783904 -9.17005,-21.038383 0,0 5.67719,-5.187843 5.67719,-5.187843 z"
         id="path4276"
         style="fill:#000080;fill-opacity:1;fill-rule:nonzero;stroke:none" />
    </g>
    <g
       id="g4338"
       transform="matrix(0.99813847,0.06098849,-0.06098849,0.99813847,-3.8142562,33.336085)">
      <path
         transform="translate(0,284.36218)"
         inkscape:connector-curvature="0"
         d="m 173.48605,320.23425 c -0.78642,12.84646 0.33054,25.72346 1.34654,38.52505 1.57859,17.36163 3.68424,34.6683 5.38326,52.01797 0.42523,5.53921 1.00879,11.08125 1.14403,16.63966 0.0405,1.66451 0.0455,4.73861 -0.29831,6.50257 -0.13679,0.7018 -0.44626,1.35859 -0.6694,2.03788 -0.2393,0.31455 -0.47861,0.6291 -0.71792,0.94365 0,0 -0.12565,0.10175 -0.12565,0.10175 l 0,0 c -0.16447,0.0353 -0.32894,0.0705 -0.4934,0.10575 -0.26051,-0.25617 -0.61159,-0.44506 -0.78152,-0.76849 -0.60758,-1.15636 -1.12995,-4.0906 -1.29952,-5.10647 -0.87818,-5.26083 -1.30951,-10.59085 -2.00955,-15.87485 -1.95813,-17.25649 -4.01701,-34.50334 -5.66731,-51.79289 -1.08574,-12.8063 -2.27193,-25.69352 -1.52301,-38.55309 0,0 5.71176,-4.77849 5.71176,-4.77849 z"
         id="path4306"
         style="fill:#ff6600;fill-opacity:1;fill-rule:nonzero;stroke:none" />
      <path
         transform="translate(0,284.36218)"
         inkscape:connector-curvature="0"
         d="m 136.65357,319.18112 c 0.0663,11.19765 1.73717,22.29997 3.34011,33.35638 2.8672,18.01852 6.50301,35.90097 9.65593,53.86965 0.7312,4.47233 1.3645,8.12562 1.9649,12.56979 0.54284,4.0181 1.21981,8.04146 -0.0567,11.97148 0,0 -0.11861,0.10988 -0.11861,0.10988 l 0,0 c -0.33393,-0.0124 -0.70818,0.1225 -1.00177,-0.0371 -1.43556,-0.78023 -1.86404,-2.47217 -2.30656,-3.87792 -1.65838,-5.26817 -2.35864,-10.8029 -3.6444,-16.15824 -3.56121,-17.8309 -7.02864,-35.68624 -9.96663,-53.63182 -1.6732,-11.115 -3.45299,-22.32292 -3.26662,-33.59684 0,0 5.40036,-4.57529 5.40036,-4.57529 z"
         id="path4308"
         style="fill:#ff6600;fill-opacity:1;fill-rule:nonzero;stroke:none" />
      <path
         transform="translate(0,284.36218)"
         inkscape:connector-curvature="0"
         d="m 199.57986,350.08561 c -13.56204,0.25791 -27.00865,2.16959 -40.39443,4.21027 -18.87396,3.079 -37.5657,7.12241 -56.07225,11.92093 -6.05743,1.71031 -5.022841,1.32839 -10.349911,3.12423 -2.912032,0.98169 -1.906008,0.43736 -3.765728,1.72694 0,0 0.09584,-0.13022 0.09584,-0.13022 l 0,0 c 0.761467,-0.74717 1.436687,-1.59384 2.284401,-2.24151 4.512665,-3.44776 10.059738,-5.03888 15.318408,-6.91539 18.78691,-5.68128 37.94067,-10.10255 57.30827,-13.30451 13.48311,-2.08337 27.03643,-4.09567 40.70009,-4.39758 0,0 -5.12469,6.00684 -5.12469,6.00684 z"
         id="path4310"
         style="fill:#ff6600;fill-opacity:1;fill-rule:nonzero;stroke:none" />
      <path
         transform="translate(0,284.36218)"
         inkscape:connector-curvature="0"
         d="m 213.76446,376.32482 c -12.38773,3.45607 -25.21772,5.12631 -37.89905,7.1491 -18.2222,2.94446 -36.5045,5.56721 -54.49982,9.72027 -3.35104,1.63481 -7.31926,1.3929 -10.74321,2.79626 -1.47837,0.60592 -2.76642,1.59932 -4.14963,2.39898 0,0 0.0982,-0.12845 0.0982,-0.12845 l 0,0 c 5.75603,-3.5908 11.48296,-7.28314 18.09712,-9.14125 2.66361,-0.78119 5.30853,-1.62917 7.99082,-2.34357 15.76864,-4.19984 31.96329,-6.48072 48.03605,-9.14364 12.61103,-2.05941 25.23988,-4.08138 37.68341,-7.02115 0,0 -4.61389,5.71345 -4.61389,5.71345 z"
         id="path4312"
         style="fill:#ff6600;fill-opacity:1;fill-rule:nonzero;stroke:none" />
      <path
         transform="translate(0,284.36218)"
         inkscape:connector-curvature="0"
         d="m 379.97611,365.93303 c -2.76375,-4.6407 -6.26294,-8.68183 -10.40122,-12.12996 -3.57463,-2.57964 -7.80904,-4.26201 -12.27218,-3.32541 -0.82591,0.17332 -1.60876,0.51042 -2.41314,0.76563 0.68237,-1.75193 -5.61666,4.36303 -4.43802,3.01735 0.97285,-1.11071 1.83627,-2.57467 3.24585,-3.01421 0.97641,-0.30447 -1.21872,1.64912 -1.72253,2.53921 -1.40935,2.48988 -1.46286,3.27818 -2.25502,6.01456 -0.98918,5.58256 0.0277,11.2215 3.19294,15.97324 0.5855,0.87898 1.30776,1.65874 1.96164,2.48811 4.76375,4.5552 7.49943,5.33997 13.19551,1.93409 0.6344,-0.52661 2.44037,-2.20529 1.90319,-1.57982 -1.05006,1.22265 -2.20389,2.36596 -3.45302,3.38438 -0.64677,0.52732 1.1084,-1.24869 1.63124,-1.89908 1.43964,-1.79082 2.67246,-3.73174 3.924,-5.65423 3.05277,-4.64937 7.40645,-10.23173 12.26686,-12.63074 4.17171,-1.40541 7.46813,1.00058 10.49571,3.62215 5.77048,5.81758 8.90188,13.38675 11.52879,20.99942 2.78194,9.51335 3.91218,19.51401 2.6973,29.38585 -0.26228,2.13115 -0.73229,4.23157 -1.09843,6.34735 -3.60627,14.51877 -10.06211,22.81567 -21.2816,32.79016 -1.59221,1.41553 -3.50329,2.42537 -5.25494,3.63806 -10.08665,5.5478 -21.41976,6.70924 -32.5573,3.92573 -2.27066,-0.56749 -4.45778,-1.42827 -6.68667,-2.14241 -8.73219,-3.8296 -17.73757,-8.53984 -24.08556,-15.89123 -0.81542,-0.94431 -1.46306,-2.02138 -2.19459,-3.03207 -2.68122,-5.44196 -1.48982,-7.6571 1.30406,-12.66122 0,0 0.12575,-0.10163 0.12575,-0.10163 l 0,0 c 1.20093,2.57592 2.09149,5.31687 3.90639,7.55388 7.03991,8.2848 15.98193,14.46937 26.12923,18.4255 2.20398,0.69107 4.36683,1.5304 6.61192,2.07322 11.04407,2.67022 22.2283,1.32722 32.10474,-4.3354 1.71668,-1.23318 3.35583,-2.58217 5.15005,-3.69954 0.35176,-0.21906 -1.02849,1.29996 -0.77301,0.97368 1.32413,-1.6911 2.7667,-3.29513 3.97897,-5.06813 3.68516,-5.38971 6.17682,-11.4215 7.78942,-17.72621 0.3951,-2.10775 0.89735,-4.19819 1.18529,-6.32323 1.32647,-9.78973 0.30672,-19.75112 -2.44913,-29.20357 -2.56778,-7.49159 -5.66538,-14.93782 -11.29858,-20.69137 -2.82197,-2.49949 -5.90754,-4.79 -9.77299,-3.10275 -2.99208,1.74683 -1.28456,0.91054 2.58694,-3.33471 0.37149,-0.40735 -0.81681,0.74267 -1.19166,1.14692 -1.29275,1.39414 -2.30485,3.016 -3.34022,4.60007 -3.93229,6.11431 -8.34439,11.95787 -14.45044,16.14807 -0.73861,0.38716 -1.43844,0.85962 -2.21582,1.16148 -4.56902,1.77416 -8.73108,-0.35665 -11.89673,-3.6823 -0.66752,-0.87022 -1.40345,-1.69201 -2.00257,-2.61067 -3.21064,-4.92304 -4.37493,-10.71142 -3.48757,-16.49478 0.28312,-1.07522 0.48875,-2.1739 0.84938,-3.22567 2.37669,-6.93154 8.2691,-12.65967 14.77669,-15.78352 0.83508,-0.21672 1.65338,-0.51358 2.50524,-0.65017 4.6333,-0.74291 8.99972,1.03452 12.66717,3.74535 4.16266,3.5458 7.78098,7.63198 10.42729,12.45111 0,0 -5.14862,4.88946 -5.14862,4.88946 z"
         id="path4314"
         style="fill:#ff6600;fill-opacity:1;fill-rule:nonzero;stroke:none" />
      <path
         transform="translate(0,284.36218)"
         inkscape:connector-curvature="0"
         d="m 427.19746,341.61945 c -1.72386,7.57925 -0.21561,15.21246 1.90175,22.5298 2.45968,6.69022 6.02824,13.32883 12.07828,17.4399 0.98466,0.66908 2.08217,1.15474 3.12325,1.73211 5.29005,2.3583 10.56055,1.12866 15.91382,-0.10895 1.25879,-0.35701 1.20092,-0.24504 1.03075,0.74112 0,0 -0.0951,0.13078 -0.0951,0.13078 l 0,0 c -1.45936,1.68081 -2.96995,3.33382 -5.0356,4.28455 -5.78392,2.68769 -11.21845,3.18391 -17.23863,0.68114 -1.07034,-0.61194 -2.19786,-1.13325 -3.21102,-1.83582 -6.13561,-4.25474 -9.8226,-10.97934 -12.37223,-17.81157 -2.21109,-7.42171 -3.8923,-15.20618 -2.14333,-22.92271 0,0 6.04803,-4.86035 6.04803,-4.86035 z"
         id="path4316"
         style="fill:#ff6600;fill-opacity:1;fill-rule:nonzero;stroke:none" />
      <path
         transform="translate(0,284.36218)"
         inkscape:connector-curvature="0"
         d="m 414.36742,320.79231 c -2.34393,-1.78831 -4.66134,-3.56581 -4.61698,-6.73669 3.50296,-8.26291 8.77777,-8.51472 15.58205,-6.71775 4.0635,1.5725 8.67156,3.86604 10.5071,8.13378 0.28346,0.65905 0.3611,1.38866 0.54165,2.083 -0.18251,1.63948 -0.0265,2.63074 -1.27575,3.94218 -6.81139,7.15047 -7.82298,8.69741 -16.56805,8.27862 -4.54006,-0.91441 -10.4179,-2.73892 -12.23243,-7.60159 -0.25888,-0.69376 -0.25891,-1.45817 -0.38836,-2.18725 0.32936,-2.78729 1.81648,-4.68106 3.87241,-6.49469 5.15851,-4.55058 2.98022,-4.70067 6.32517,-3.9367 0,0 -0.0997,0.12731 -0.0997,0.12731 l 0,0 c -1.0649,0.76644 -1.97376,1.81893 -3.19469,2.29931 -0.55178,0.2171 1.46797,-1.0462 1.03244,-1.44857 -0.17873,-0.16513 -3.34943,3.73382 -2.30101,4.44787 0.13366,0.60479 0.15734,1.24491 0.40097,1.81436 1.93636,4.52599 7.35044,6.23146 11.74043,6.98336 2.66727,0.0437 3.65111,0.2745 6.21273,-0.50092 0.86923,-0.26312 2.81329,-1.95116 2.49184,-1.10177 -0.65053,1.71896 -2.37116,2.812 -3.64167,4.14009 -0.4727,0.49412 0.94325,-1.01747 1.24258,-1.63229 0.27254,-0.55979 0.29089,-1.21076 0.43633,-1.81615 -0.12181,-0.63694 -0.13411,-1.30499 -0.36541,-1.91081 -1.56798,-4.10683 -6.14715,-6.31005 -9.89418,-7.88953 -1.92675,-0.51839 -2.80202,-0.89107 -4.77719,-0.92139 -0.64181,-0.01 -1.29088,0.042 -1.91682,0.18418 -0.50959,0.11573 -1.75356,1.01113 -1.45574,0.58174 0.96498,-1.39135 6.10841,-6.70979 3.49797,-3.68342 -0.62428,2.89556 1.94673,4.65279 3.92105,6.32951 0,0 -5.07677,5.23421 -5.07677,5.23421 z"
         id="path4318"
         style="fill:#ff6600;fill-opacity:1;fill-rule:nonzero;stroke:none" />
      <path
         transform="translate(0,284.36218)"
         inkscape:connector-curvature="0"
         d="m 480.66771,281.64451 c -2.73319,8.87083 -3.10405,18.14508 -3.02951,27.35187 0.60661,13.15808 3.61155,26.11289 8.7664,38.23375 1.05284,2.4756 2.2879,4.86967 3.43185,7.3045 4.95484,8.92141 10.55119,18.41985 19.51892,23.90007 1.2197,0.74536 2.5623,1.2679 3.84344,1.90186 5.9043,2.21863 11.90846,1.27014 17.77883,-0.44177 1.22602,-0.0992 0.69812,-0.0847 1.58203,-0.0851 0,0 -0.0964,0.12984 -0.0964,0.12984 l 0,0 c -3.1099,3.11727 -1.4547,1.6506 -4.97262,4.39207 -7.09492,3.77165 -11.89301,4.36979 -19.6642,1.7307 -1.30592,-0.67075 -2.67461,-1.23126 -3.91774,-2.01224 -9.008,-5.65907 -14.65867,-15.24161 -19.66584,-24.29595 -1.15361,-2.45101 -2.39667,-4.86188 -3.46083,-7.35303 -5.198,-12.16826 -8.29874,-25.16079 -9.02045,-38.37515 -0.117,-9.42907 0.32946,-18.91521 3.34549,-27.94143 0,0 5.56059,-4.43995 5.56059,-4.43995 z"
         id="path4320"
         style="fill:#ff6600;fill-opacity:1;fill-rule:nonzero;stroke:none" />
      <path
         transform="translate(0,284.36218)"
         inkscape:connector-curvature="0"
         d="m 502.36214,344.62418 c -7.15889,-0.4096 -14.30795,-0.42284 -21.47136,-0.10118 -6.88089,0.35943 -13.7293,1.11227 -20.57948,1.82409 -2.55266,-0.0223 -4.04527,0.79194 -5.48366,-1.64673 0,0 0.10272,-0.12485 0.10272,-0.12485 l 0,0 c 3.27891,-1.93202 6.54494,-3.6834 10.37861,-4.22207 6.85303,-0.91349 13.75585,-1.40182 20.65447,-1.8223 7.12896,-0.29997 14.32851,-0.53478 21.42624,0.32141 0,0 -5.02754,5.77163 -5.02754,5.77163 z"
         id="path4322"
         style="fill:#ff6600;fill-opacity:1;fill-rule:nonzero;stroke:none" />
      <path
         transform="translate(0,284.36218)"
         inkscape:connector-curvature="0"
         d="m 612.26816,330.51413 c -1.58029,7.42171 -0.63695,14.90791 0.83524,22.24931 2.1386,9.06542 6.16468,17.43713 11.57215,24.97562 3.57893,4.27037 6.35457,6.71445 12.06628,5.7211 0.74939,0.19259 2.62385,-1.01922 3.37398,-0.83764 0.32068,0.0776 -0.004,0.89678 -0.0146,0.93588 0,0 -0.0963,0.1299 -0.0963,0.1299 l 0,0 c -2.36878,2.59276 -4.85261,5.01569 -8.36502,5.91518 -5.94586,0.63045 -8.94902,-1.9102 -12.6258,-6.38715 -5.43368,-7.64562 -9.52798,-16.10187 -11.75841,-25.25018 -1.54552,-7.36902 -2.56965,-14.87727 -1.18354,-22.37127 0,0 6.19604,-5.08075 6.19604,-5.08075 z"
         id="path4324"
         style="fill:#ff6600;fill-opacity:1;fill-rule:nonzero;stroke:none" />
      <path
         transform="translate(0,284.36218)"
         inkscape:connector-curvature="0"
         d="m 597.81656,306.35333 c 6.64938,-6.61134 8.61378,-9.58954 17.57618,-6.68139 2.61161,1.30315 6.52438,3.00226 7.03971,6.33726 0.0746,0.48283 -0.0347,0.97651 -0.052,1.46477 -0.62531,1.44338 -0.52454,1.59331 -1.73214,2.73175 -6.21957,5.86341 -6.56698,7.94399 -13.89871,7.254 -5.11588,-1.24596 -8.63908,-4.87893 -10.88716,-9.47785 -0.28348,-1.01091 -0.68443,-1.94314 -0.50586,-3.02165 0.47862,-2.89067 4.53292,-8.04407 7.48229,-6.82626 0.42188,0.1742 0.76644,0.49586 1.14966,0.74379 1.30227,2.13071 0.63633,1.01389 1.99147,3.35424 0,0 -0.11069,0.11785 -0.11069,0.11785 l 0,0 c -3.48843,-0.0957 -1.77568,-0.18213 -5.13933,0.23662 -0.60591,0.10833 -1.22876,0.14615 -1.81772,0.32501 -0.46169,0.1402 -1.59819,1.00785 -1.30626,0.62368 7.98017,-10.50183 3.56221,-4.76444 3.74845,-2.53121 0.0435,0.52209 0.22607,1.02312 0.33911,1.53469 2.01491,4.42161 5.3653,7.879 10.26758,8.90689 2.00179,0.0962 2.48701,0.28835 4.41994,-0.26696 0.64782,-0.1861 2.2095,-1.35435 1.86848,-0.77297 -1.02342,1.74473 -2.76413,2.9568 -4.06033,4.50966 -0.35692,0.4276 0.86706,-0.70736 1.2353,-1.12525 0.31551,-0.35804 0.53437,-0.79081 0.80156,-1.18622 0.0905,-0.40502 0.27724,-0.80011 0.27135,-1.21507 -0.044,-3.09987 -4.24,-4.71518 -6.45118,-5.82744 -2.88644,-0.86422 -5.71152,-1.51825 -8.62896,-0.31669 -0.5653,0.23282 -1.95515,1.39324 -1.60095,0.89493 1.08655,-1.52864 2.5791,-2.72352 3.86865,-4.08528 0,0 -5.86845,4.2991 -5.86845,4.2991 z"
         id="path4326"
         style="fill:#ff6600;fill-opacity:1;fill-rule:nonzero;stroke:none" />
      <path
         transform="translate(0,284.36218)"
         inkscape:connector-curvature="0"
         d="m 643.7195,330.69131 c 3.00265,7.87822 5.92947,15.78559 8.85879,23.6914 2.98882,8.04462 5.97014,16.09206 8.97642,24.13019 0.28685,0.77639 0.57561,1.55209 0.86054,2.32919 0.32602,0.88919 0.70439,1.91894 1.00878,2.83649 0.0628,0.18939 0.32425,0.43966 0.17525,0.57239 -6.36875,5.67321 -5.51605,7.1948 -6.55036,3.51091 -1.38361,-5.7544 -2.13619,-11.63318 -2.73053,-17.51346 -0.50408,-6.32805 -0.54348,-12.87162 1.7618,-18.89333 0.46145,-1.20539 1.08458,-2.3425 1.62687,-3.51375 3.36397,-5.70508 8.07348,-10.04785 13.0138,-14.48646 1.42271,-1.27823 4.32054,-2.92698 6.12913,-3.61756 0.98614,-0.37654 2.03758,-0.55256 3.05636,-0.82885 0.98662,-0.0143 1.9826,-0.17916 2.95985,-0.0428 6.63027,0.92509 9.28916,7.87203 11.42478,13.2458 2.90655,8.87689 4.31958,18.14078 5.79063,27.33755 0.34885,3.35533 1.49888,6.95246 0.78494,10.35755 -0.39126,1.86606 -1.06199,2.61262 -2.0628,4.24067 0,0 -0.12267,0.10533 -0.12267,0.10533 l 0,0 c -0.46347,0.068 -0.92656,0.26926 -1.3904,0.20392 -2.41635,-0.34037 -2.72255,-8.02667 -3.12092,-9.69742 -1.40239,-9.16382 -2.76718,-18.39277 -5.64408,-27.23493 -1.97847,-5.01486 -4.44929,-11.89127 -10.78846,-12.51062 -0.93059,-0.0909 -1.86707,0.10546 -2.8006,0.15819 -2.89167,0.89732 -3.24843,0.81163 -5.91367,2.48297 -1.03339,0.64803 -2.47923,3.27431 -2.95901,2.15286 -0.51379,-1.20095 1.88056,-3.95584 2.64179,-2.89434 1.51897,2.11814 -6.78684,3.67106 -4.78581,6.18386 -0.56393,1.14194 -1.20841,2.24752 -1.69179,3.42581 -2.42321,5.90679 -2.45242,12.38425 -1.96551,18.64499 0.57978,5.81982 1.32915,11.6375 2.73631,17.32366 1.06545,3.79234 0.78161,1.45719 -5.3885,7.24311 -0.13845,0.12983 -0.067,-0.37419 -0.11767,-0.55711 -0.21852,-0.78917 -0.7033,-2.1869 -0.94012,-2.86463 -0.27472,-0.78619 -0.55841,-1.56921 -0.83761,-2.35382 -2.80978,-8.17035 -5.65967,-16.32725 -8.62927,-24.44109 -2.88839,-7.96595 -5.75788,-15.9386 -8.58162,-23.92768 0,0 5.21536,-4.79899 5.21536,-4.79899 z"
         id="path4328"
         style="fill:#ff6600;fill-opacity:1;fill-rule:nonzero;stroke:none" />
      <path
         transform="translate(0,284.36218)"
         inkscape:connector-curvature="0"
         d="m 723.74485,333.40312 c -1.85691,6.8861 -2.33467,13.97596 -2.1493,21.07299 0.49936,6.88609 2.36043,13.66533 6.38512,19.359 0.72048,1.01925 1.57034,1.94059 2.35552,2.91089 4.4898,4.85498 9.70931,6.94996 16.10646,7.85563 0.7166,0.38358 3.9071,0.10473 4.17273,1.41607 0.0934,0.46125 -0.21105,0.91727 -0.31657,1.37591 0,0 -0.1029,0.12471 -0.1029,0.12471 l 0,0 c -3.35795,2.52058 -4.7331,3.13078 -9.00555,3.04841 -6.53881,-1.06017 -11.90313,-3.32344 -16.48516,-8.30689 -0.80593,-0.99608 -1.67651,-1.94317 -2.41779,-2.98826 -4.10635,-5.78932 -6.08102,-12.66473 -6.6478,-19.67687 -0.25367,-7.17629 0.1293,-14.35373 2.0673,-21.31086 0,0 6.03794,-4.88073 6.03794,-4.88073 z"
         id="path4330"
         style="fill:#ff6600;fill-opacity:1;fill-rule:nonzero;stroke:none" />
      <path
         transform="translate(0,284.36218)"
         inkscape:connector-curvature="0"
         d="m 715.39471,315.28722 c -2.99759,-7.25851 0.0669,-7.99221 5.92668,-13.63205 4.66186,-1.51397 9.1878,0.2466 13.23043,2.56578 2.30187,1.58072 5.01152,4.17843 3.46967,7.24084 -0.2623,0.52099 -0.69145,0.93959 -1.03718,1.40938 -2.4156,2.21813 -4.67815,4.61544 -7.24679,6.65439 -0.57641,0.45755 -1.36435,0.56555 -2.07752,0.74713 -3.17256,0.80779 -6.12012,0.21876 -9.14759,-0.78489 -1.77277,-0.78997 -4.55233,-2.14917 -4.02523,-4.64381 0.35792,-1.69398 1.58498,-2.94273 2.587,-4.24983 0,0 0.12683,-0.10028 0.12683,-0.10028 l 0,0 c 0.19929,0.016 1.69176,0.13016 1.77625,0.16239 0.31047,0.11847 0.52962,0.40209 0.80506,0.58798 1.30372,0.87987 2.62393,1.75988 4.09103,2.34797 2.90896,0.90302 5.73856,1.39082 8.72769,0.42931 0.67604,-0.21746 2.30021,-1.47766 1.94895,-0.86047 -0.98695,1.73417 -2.66391,2.9714 -3.99587,4.4571 3.40765,-3.39554 1.9716,-5.01858 -1.47725,-7.62083 -3.65597,-2.06493 -8.01214,-4.02905 -12.19604,-2.41288 1.30738,-1.43257 2.55992,-2.91719 3.92213,-4.29772 0.32257,-0.32691 -0.61173,0.70469 -0.79312,1.12662 -0.8262,1.9218 0.0773,4.14538 0.65294,5.98178 0,0 -5.26807,4.89209 -5.26807,4.89209 z"
         id="path4332"
         style="fill:#ff6600;fill-opacity:1;fill-rule:nonzero;stroke:none" />
      <path
         transform="translate(0,284.36218)"
         inkscape:connector-curvature="0"
         d="m 766.6781,287.05433 c -2.83487,8.73855 -1.9707,17.95972 -0.92453,26.91414 1.93658,13.64221 6.20856,26.74112 11.77395,39.29694 3.25692,6.60959 7.13777,13.20456 13.25313,17.5681 0.85661,0.61123 1.79162,1.10436 2.68742,1.65653 2.32302,1.24093 4.81855,2.03877 7.39486,2.54323 1.66531,0.32608 3.20718,0.41316 4.7773,1.07 0.56672,1.24246 0.46485,0.50995 -0.30043,2.19826 0,0 -0.10232,0.12518 -0.10232,0.12518 l 0,0 c -2.54241,2.17326 -1.22967,1.34643 -3.84759,2.61888 -0.60735,0.1163 -1.20545,0.30187 -1.82203,0.34892 -4.00741,0.30579 -8.04845,-1.56152 -11.56648,-3.18389 -0.91557,-0.57966 -1.87103,-1.10067 -2.74672,-1.739 -6.173,-4.4998 -10.12253,-11.18487 -13.40907,-17.92915 -5.56456,-12.62839 -9.86506,-25.78652 -11.91846,-39.47471 -1.13107,-8.97383 -2.073,-18.18502 0.49156,-27.01937 0,0 6.25941,-4.99406 6.25941,-4.99406 z"
         id="path4334"
         style="fill:#ff6600;fill-opacity:1;fill-rule:nonzero;stroke:none" />
      <path
         transform="translate(0,284.36218)"
         inkscape:connector-curvature="0"
         d="m 787.84512,330.33877 c -8.45556,-0.64287 -16.81749,-2.13881 -25.19817,-3.38479 -8.38432,-1.32981 -16.84896,-1.73414 -25.31009,-1.14792 -0.64636,-0.09 -6.35969,1.37664 -6.06365,-0.65306 0.0614,-0.42103 0.35443,-0.77365 0.53164,-1.16047 0,0 0.10139,-0.12594 0.10139,-0.12594 l 0,0 c 3.44782,-3.11661 5.86568,-3.8784 10.53135,-4.10913 8.48669,-0.47803 16.9672,-0.007 25.36759,1.3343 8.39109,1.24516 16.77744,2.75046 25.26176,3.17333 0,0 -5.22182,6.07368 -5.22182,6.07368 z"
         id="path4336"
         style="fill:#ff6600;fill-opacity:1;fill-rule:nonzero;stroke:none" />
    </g>
  </g>
</svg>
