<?xml version="1.0" encoding="UTF-8" standalone="no"?>
<!-- Created with Inkscape (http://www.inkscape.org/) -->

<svg
   xmlns:dc="http://purl.org/dc/elements/1.1/"
   xmlns:cc="http://creativecommons.org/ns#"
   xmlns:rdf="http://www.w3.org/1999/02/22-rdf-syntax-ns#"
   xmlns:svg="http://www.w3.org/2000/svg"
   xmlns="http://www.w3.org/2000/svg"
   xmlns:sodipodi="http://sodipodi.sourceforge.net/DTD/sodipodi-0.dtd"
   xmlns:inkscape="http://www.inkscape.org/namespaces/inkscape"
   width="1024"
   height="768"
   id="svg4160"
   version="1.1"
   inkscape:version="0.48.4 r9939"
   sodipodi:docname="git-befehle5.svg">
  <defs
     id="defs4162" />
  <sodipodi:namedview
     id="base"
     pagecolor="#ffffff"
     bordercolor="#666666"
     borderopacity="1.0"
     inkscape:pageopacity="0.0"
     inkscape:pageshadow="2"
     inkscape:zoom="0.86588542"
     inkscape:cx="512"
     inkscape:cy="371.18049"
     inkscape:document-units="px"
     inkscape:current-layer="layer1"
     showgrid="false"
     inkscape:window-width="1600"
     inkscape:window-height="886"
     inkscape:window-x="0"
     inkscape:window-y="14"
     inkscape:window-maximized="0" />
  <metadata
     id="metadata4165">
    <rdf:RDF>
      <cc:Work
         rdf:about="">
        <dc:format>image/svg+xml</dc:format>
        <dc:type
           rdf:resource="http://purl.org/dc/dcmitype/StillImage" />
        <dc:title></dc:title>
      </cc:Work>
    </rdf:RDF>
  </metadata>
  <g
     inkscape:label="Ebene 1"
     inkscape:groupmode="layer"
     id="layer1"
     transform="translate(0,-284.36218)">
    <g
       id="g4338"
       transform="matrix(0.87560596,0.05350148,-0.05350148,0.87560596,-5.8337817,89.75078)">
      <path
         inkscape:connector-curvature="0"
         d="m 173.48605,320.23425 c -0.78642,12.84646 0.33054,25.72346 1.34654,38.52505 1.57859,17.36163 3.68424,34.6683 5.38326,52.01797 0.42523,5.53921 1.00879,11.08125 1.14403,16.63966 0.0405,1.66451 0.0455,4.73861 -0.29831,6.50257 -0.13679,0.7018 -0.44626,1.35859 -0.6694,2.03788 -0.2393,0.31455 -0.47861,0.6291 -0.71792,0.94365 0,0 -0.12565,0.10175 -0.12565,0.10175 l 0,0 c -0.16447,0.0353 -0.32894,0.0705 -0.4934,0.10575 -0.26051,-0.25617 -0.61159,-0.44506 -0.78152,-0.76849 -0.60758,-1.15636 -1.12995,-4.0906 -1.29952,-5.10647 -0.87818,-5.26083 -1.30951,-10.59085 -2.00955,-15.87485 -1.95813,-17.25649 -4.01701,-34.50334 -5.66731,-51.79289 -1.08574,-12.8063 -2.27193,-25.69352 -1.52301,-38.55309 0,0 5.71176,-4.77849 5.71176,-4.77849 z"
         id="path4306"
         style="fill:#ff6600;fill-opacity:1;fill-rule:nonzero;stroke:none"
         transform="translate(0,284.36218)" />
      <path
         inkscape:connector-curvature="0"
         d="m 136.65357,319.18112 c 0.0663,11.19765 1.73717,22.29997 3.34011,33.35638 2.8672,18.01852 6.50301,35.90097 9.65593,53.86965 0.7312,4.47233 1.3645,8.12562 1.9649,12.56979 0.54284,4.0181 1.21981,8.04146 -0.0567,11.97148 0,0 -0.11861,0.10988 -0.11861,0.10988 l 0,0 c -0.33393,-0.0124 -0.70818,0.1225 -1.00177,-0.0371 -1.43556,-0.78023 -1.86404,-2.47217 -2.30656,-3.87792 -1.65838,-5.26817 -2.35864,-10.8029 -3.6444,-16.15824 -3.56121,-17.8309 -7.02864,-35.68624 -9.96663,-53.63182 -1.6732,-11.115 -3.45299,-22.32292 -3.26662,-33.59684 0,0 5.40036,-4.57529 5.40036,-4.57529 z"
         id="path4308"
         style="fill:#ff6600;fill-opacity:1;fill-rule:nonzero;stroke:none"
         transform="translate(0,284.36218)" />
      <path
         inkscape:connector-curvature="0"
         d="m 199.57986,350.08561 c -13.56204,0.25791 -27.00865,2.16959 -40.39443,4.21027 -18.87396,3.079 -37.5657,7.12241 -56.07225,11.92093 -6.05743,1.71031 -5.022841,1.32839 -10.349911,3.12423 -2.912032,0.98169 -1.906008,0.43736 -3.765728,1.72694 0,0 0.09584,-0.13022 0.09584,-0.13022 l 0,0 c 0.761467,-0.74717 1.436687,-1.59384 2.284401,-2.24151 4.512665,-3.44776 10.059738,-5.03888 15.318408,-6.91539 18.78691,-5.68128 37.94067,-10.10255 57.30827,-13.30451 13.48311,-2.08337 27.03643,-4.09567 40.70009,-4.39758 0,0 -5.12469,6.00684 -5.12469,6.00684 z"
         id="path4310"
         style="fill:#ff6600;fill-opacity:1;fill-rule:nonzero;stroke:none"
         transform="translate(0,284.36218)" />
      <path
         inkscape:connector-curvature="0"
         d="m 213.76446,376.32482 c -12.38773,3.45607 -25.21772,5.12631 -37.89905,7.1491 -18.2222,2.94446 -36.5045,5.56721 -54.49982,9.72027 -3.35104,1.63481 -7.31926,1.3929 -10.74321,2.79626 -1.47837,0.60592 -2.76642,1.59932 -4.14963,2.39898 0,0 0.0982,-0.12845 0.0982,-0.12845 l 0,0 c 5.75603,-3.5908 11.48296,-7.28314 18.09712,-9.14125 2.66361,-0.78119 5.30853,-1.62917 7.99082,-2.34357 15.76864,-4.19984 31.96329,-6.48072 48.03605,-9.14364 12.61103,-2.05941 25.23988,-4.08138 37.68341,-7.02115 0,0 -4.61389,5.71345 -4.61389,5.71345 z"
         id="path4312"
         style="fill:#ff6600;fill-opacity:1;fill-rule:nonzero;stroke:none"
         transform="translate(0,284.36218)" />
      <path
         inkscape:connector-curvature="0"
         d="m 346.81423,656.19798 c -2.76375,-4.6407 -6.26294,-8.68183 -10.40122,-12.12996 -3.57463,-2.57964 -7.80904,-4.26201 -12.27218,-3.32541 -0.82591,0.17332 -1.60876,0.51042 -2.41314,0.76563 0.68237,-1.75193 -5.61666,4.36303 -4.43802,3.01735 0.97285,-1.11071 1.83627,-2.57467 3.24585,-3.01421 0.97641,-0.30447 -1.21872,1.64912 -1.72253,2.53921 -1.40935,2.48988 -1.46286,3.27818 -2.25502,6.01456 -0.98918,5.58256 0.0277,11.2215 3.19294,15.97324 0.5855,0.87898 1.30776,1.65874 1.96164,2.48811 4.76375,4.5552 7.49943,5.33997 13.19551,1.93409 0.6344,-0.52661 2.44037,-2.20529 1.90319,-1.57982 -1.05006,1.22265 -2.20389,2.36596 -3.45302,3.38438 -0.64677,0.52732 1.1084,-1.24869 1.63124,-1.89908 1.43964,-1.79082 2.67246,-3.73174 3.924,-5.65423 3.05277,-4.64937 7.40645,-10.23173 12.26686,-12.63074 4.17171,-1.40541 7.46813,1.00058 10.49571,3.62215 5.77048,5.81758 8.90188,13.38675 11.52879,20.99942 2.78194,9.51335 3.91218,19.51401 2.6973,29.38585 -0.26228,2.13115 -0.73229,4.23157 -1.09843,6.34735 -3.60627,14.51877 -10.06211,22.81567 -21.2816,32.79016 -1.59221,1.41553 -3.50329,2.42537 -5.25494,3.63806 -10.08665,5.5478 -21.41976,6.70924 -32.5573,3.92573 -2.27066,-0.56749 -4.45778,-1.42827 -6.68667,-2.14241 -8.73219,-3.8296 -17.73757,-8.53984 -24.08556,-15.89123 -0.81542,-0.94431 -1.46306,-2.02138 -2.19459,-3.03207 -2.68122,-5.44196 -1.48982,-7.6571 1.30406,-12.66122 0,0 0.12575,-0.10163 0.12575,-0.10163 l 0,0 c 1.20093,2.57592 2.09149,5.31687 3.90639,7.55388 7.03991,8.2848 15.98193,14.46937 26.12923,18.4255 2.20398,0.69107 4.36683,1.5304 6.61192,2.07322 11.04407,2.67022 22.2283,1.32722 32.10474,-4.3354 1.71668,-1.23318 3.35583,-2.58217 5.15005,-3.69954 0.35176,-0.21906 -1.02849,1.29996 -0.77301,0.97368 1.32413,-1.6911 2.7667,-3.29513 3.97897,-5.06813 3.68516,-5.38971 6.17682,-11.4215 7.78942,-17.72621 0.3951,-2.10775 0.89735,-4.19819 1.18529,-6.32323 1.32647,-9.78973 0.30672,-19.75112 -2.44913,-29.20357 -2.56778,-7.49159 -5.66538,-14.93782 -11.29858,-20.69137 -2.82197,-2.49949 -5.90754,-4.79 -9.77299,-3.10275 -2.99208,1.74683 -1.28456,0.91054 2.58694,-3.33471 0.37149,-0.40735 -0.81681,0.74267 -1.19166,1.14692 -1.29275,1.39414 -2.30485,3.016 -3.34022,4.60007 -3.93229,6.11431 -8.34439,11.95787 -14.45044,16.14807 -0.73861,0.38716 -1.43844,0.85962 -2.21582,1.16148 -4.56902,1.77416 -8.73108,-0.35665 -11.89673,-3.6823 -0.66752,-0.87022 -1.40345,-1.69201 -2.00257,-2.61067 -3.21064,-4.92304 -4.37493,-10.71142 -3.48757,-16.49478 0.28312,-1.07522 0.48875,-2.1739 0.84938,-3.22567 2.37669,-6.93154 8.2691,-12.65967 14.77669,-15.78352 0.83508,-0.21672 1.65338,-0.51358 2.50524,-0.65017 4.6333,-0.74291 8.99972,1.03452 12.66717,3.74535 4.16266,3.5458 7.78098,7.63198 10.42729,12.45111 0,0 -5.14862,4.88946 -5.14862,4.88946 z"
         id="path4314"
         style="fill:#ff6600;fill-opacity:1;fill-rule:nonzero;stroke:none" />
      <path
         inkscape:connector-curvature="0"
         d="m 394.03558,631.8844 c -1.72386,7.57925 -0.21561,15.21246 1.90175,22.5298 2.45968,6.69022 6.02824,13.32883 12.07828,17.4399 0.98466,0.66908 2.08217,1.15474 3.12325,1.73211 5.29005,2.3583 10.56055,1.12866 15.91382,-0.10895 1.25879,-0.35701 1.20092,-0.24504 1.03075,0.74112 0,0 -0.0951,0.13078 -0.0951,0.13078 l 0,0 c -1.45936,1.68081 -2.96995,3.33382 -5.0356,4.28455 -5.78392,2.68769 -11.21845,3.18391 -17.23863,0.68114 -1.07034,-0.61194 -2.19786,-1.13325 -3.21102,-1.83582 -6.13561,-4.25474 -9.8226,-10.97934 -12.37223,-17.81157 -2.21109,-7.42171 -3.8923,-15.20618 -2.14333,-22.92271 0,0 6.04803,-4.86035 6.04803,-4.86035 z"
         id="path4316"
         style="fill:#ff6600;fill-opacity:1;fill-rule:nonzero;stroke:none" />
      <path
         inkscape:connector-curvature="0"
         d="m 381.20554,611.05726 c -2.34393,-1.78831 -4.66134,-3.56581 -4.61698,-6.73669 3.50296,-8.26291 8.77777,-8.51472 15.58205,-6.71775 4.0635,1.5725 8.67156,3.86604 10.5071,8.13378 0.28346,0.65905 0.3611,1.38866 0.54165,2.083 -0.18251,1.63948 -0.0265,2.63074 -1.27575,3.94218 -6.81139,7.15047 -7.82298,8.69741 -16.56805,8.27862 -4.54006,-0.91441 -10.4179,-2.73892 -12.23243,-7.60159 -0.25888,-0.69376 -0.25891,-1.45817 -0.38836,-2.18725 0.32936,-2.78729 1.81648,-4.68106 3.87241,-6.49469 5.15851,-4.55058 2.98022,-4.70067 6.32517,-3.9367 0,0 -0.0997,0.12731 -0.0997,0.12731 l 0,0 c -1.0649,0.76644 -1.97376,1.81893 -3.19469,2.29931 -0.55178,0.2171 1.46797,-1.0462 1.03244,-1.44857 -0.17873,-0.16513 -3.34943,3.73382 -2.30101,4.44787 0.13366,0.60479 0.15734,1.24491 0.40097,1.81436 1.93636,4.52599 7.35044,6.23146 11.74043,6.98336 2.66727,0.0437 3.65111,0.2745 6.21273,-0.50092 0.86923,-0.26312 2.81329,-1.95116 2.49184,-1.10177 -0.65053,1.71896 -2.37116,2.812 -3.64167,4.14009 -0.4727,0.49412 0.94325,-1.01747 1.24258,-1.63229 0.27254,-0.55979 0.29089,-1.21076 0.43633,-1.81615 -0.12181,-0.63694 -0.13411,-1.30499 -0.36541,-1.91081 -1.56798,-4.10683 -6.14715,-6.31005 -9.89418,-7.88953 -1.92675,-0.51839 -2.80202,-0.89107 -4.77719,-0.92139 -0.64181,-0.01 -1.29088,0.042 -1.91682,0.18418 -0.50959,0.11573 -1.75356,1.01113 -1.45574,0.58174 0.96498,-1.39135 6.10841,-6.70979 3.49797,-3.68342 -0.62428,2.89556 1.94673,4.65279 3.92105,6.32951 0,0 -5.07677,5.23421 -5.07677,5.23421 z"
         id="path4318"
         style="fill:#ff6600;fill-opacity:1;fill-rule:nonzero;stroke:none" />
      <path
         inkscape:connector-curvature="0"
         d="m 447.50583,571.90946 c -2.73319,8.87083 -3.10405,18.14508 -3.02951,27.35187 0.60661,13.15808 3.61155,26.11289 8.7664,38.23375 1.05284,2.4756 2.2879,4.86967 3.43185,7.3045 4.95484,8.92141 10.55119,18.41985 19.51892,23.90007 1.2197,0.74536 2.5623,1.2679 3.84344,1.90186 5.9043,2.21863 11.90846,1.27014 17.77883,-0.44177 1.22602,-0.0992 0.69812,-0.0847 1.58203,-0.0851 0,0 -0.0964,0.12984 -0.0964,0.12984 l 0,0 c -3.1099,3.11727 -1.4547,1.6506 -4.97262,4.39207 -7.09492,3.77165 -11.89301,4.36979 -19.6642,1.7307 -1.30592,-0.67075 -2.67461,-1.23126 -3.91774,-2.01224 -9.008,-5.65907 -14.65867,-15.24161 -19.66584,-24.29595 -1.15361,-2.45101 -2.39667,-4.86188 -3.46083,-7.35303 -5.198,-12.16826 -8.29874,-25.16079 -9.02045,-38.37515 -0.117,-9.42907 0.32946,-18.91521 3.34549,-27.94143 0,0 5.56059,-4.43995 5.56059,-4.43995 z"
         id="path4320"
         style="fill:#ff6600;fill-opacity:1;fill-rule:nonzero;stroke:none" />
      <path
         inkscape:connector-curvature="0"
         d="m 469.20026,634.88913 c -7.15889,-0.4096 -14.30795,-0.42284 -21.47136,-0.10118 -6.88089,0.35943 -13.7293,1.11227 -20.57948,1.82409 -2.55266,-0.0223 -4.04527,0.79194 -5.48366,-1.64673 0,0 0.10272,-0.12485 0.10272,-0.12485 l 0,0 c 3.27891,-1.93202 6.54494,-3.6834 10.37861,-4.22207 6.85303,-0.91349 13.75585,-1.40182 20.65447,-1.8223 7.12896,-0.29997 14.32851,-0.53478 21.42624,0.32141 0,0 -5.02754,5.77163 -5.02754,5.77163 z"
         id="path4322"
         style="fill:#ff6600;fill-opacity:1;fill-rule:nonzero;stroke:none" />
    </g>
    <path
       style="fill:#000080;fill-opacity:1;fill-rule:nonzero;stroke:none"
       id="path4759"
       d="M 93.157868,23.632575 C 88.322405,32.935096 84.739739,42.819003 81.14658,52.647241 75.352203,69.22443 69.913478,85.923766 64.403186,102.59697 c -3.48918,10.64372 -7.059454,21.2606 -10.577598,31.89471 -0.641596,0.64789 -1.292365,5.28049 -2.050768,5.8208 -0.09713,0.0692 -0.201955,-0.12688 -0.302932,-0.19033 -0.670226,0.60788 -1.340452,1.21577 -2.010679,1.82365 2.522299,-3.43139 1.328855,-1.56818 3.517634,-5.62931 0,0 0.127267,-0.0997 0.127267,-0.0997 l 0,0 c -0.970378,2.89801 -0.7035,1.62615 -1.026532,3.76111 -1.13551,1.25492 -2.143166,2.63866 -3.406529,3.76478 -0.09064,0.0808 -1.285372,0.4916 -1.439498,-0.0995 -0.403676,-1.5481 1.182488,-3.42693 1.240964,-4.86961 3.541414,-10.66918 7.16228,-21.31183 10.690502,-31.98544 5.561337,-16.687575 11.029029,-33.407893 16.804358,-50.022982 3.649138,-10.053979 7.326119,-20.164806 12.525153,-29.545975 0,0 4.66334,-3.586598 4.66334,-3.586598 z"
       inkscape:connector-curvature="0"
       transform="translate(0,284.36218)" />
    <path
       style="fill:#000080;fill-opacity:1;fill-rule:nonzero;stroke:none"
       id="path4761"
       d="m 88.658173,38.907674 c -0.872598,-2.889494 -1.799686,-5.764178 -2.816909,-8.606228 -0.01027,-0.02666 -0.412927,-1.095321 -0.489674,-1.221959 -0.05182,-0.08551 -0.119842,-0.185414 -0.217585,-0.206466 -0.0588,-0.01267 -0.169582,0.169558 -0.121484,0.133436 3.525023,-2.64732 3.296463,-3.890998 3.268206,-1.57641 0.407754,7.015181 2.234667,13.858928 3.913019,20.651519 4.077475,15.64174 9.633624,30.839006 15.096314,46.035205 4.07802,11.172679 7.99923,22.406499 11.03878,33.910449 0.33072,2.56214 2.08297,5.86845 0.86883,8.47381 -0.21365,0.45848 -0.59672,0.81689 -0.89508,1.22533 0,0 -0.11507,0.11358 -0.11507,0.11358 l 0,0 c -0.43361,0.25429 -0.80767,0.66555 -1.30084,0.76287 -1.69396,0.33428 -2.868,-5.43218 -3.27749,-6.30936 C 110.05656,120.99836 106.5253,109.69532 102.40394,98.589588 96.959782,83.347325 91.351116,68.118661 87.350929,52.417325 85.733003,45.345921 83.928793,38.107512 84.260828,30.798427 c 0.516776,-3.248112 4.223764,-7.886438 4.280796,-2.935216 0.659239,3.060173 1.313709,6.126362 2.237388,9.120372 0,0 -2.120839,1.924091 -2.120839,1.924091 z"
       inkscape:connector-curvature="0"
       transform="translate(0,284.36218)" />
    <path
       style="fill:#000080;fill-opacity:1;fill-rule:nonzero;stroke:none"
       id="path4763"
       d="m 106.02912,104.78737 c -8.624,-0.40513 -17.230707,-1.05733 -25.861418,-1.35084 -7.943774,-0.32383 -15.850862,0.33265 -23.713855,1.37864 -1.54401,0.58984 -1.749259,-0.0138 -1.124636,-1.00446 0,0 -0.130621,0.0953 -0.130621,0.0953 l 0,0 c 1.546594,-1.79991 3.095444,-3.56037 5.470828,-4.252417 7.96317,-2.375448 16.332632,-2.269285 24.574739,-2.119851 8.495672,0.292012 17.030023,0.59777 25.440223,1.915708 0,0 -4.65526,5.33793 -4.65526,5.33793 z"
       inkscape:connector-curvature="0"
       transform="translate(0,284.36218)" />
    <path
       style="fill:#000080;fill-opacity:1;fill-rule:nonzero;stroke:none"
       id="path4765"
       d="m 134.08912,131.94902 c -2.33121,-4.00034 -3.83576,-8.33131 -4.97087,-12.79698 -1.45934,-6.21747 -0.82506,-11.92495 1.14877,-17.91987 2.78706,-6.521541 7.93434,-11.004454 13.37782,-15.497394 1.39804,-1.153914 4.28282,-2.087258 5.92078,-2.706633 5.81286,-1.759377 11.87317,-1.738586 17.82507,-0.853891 1.4974,0.488858 4.03614,0.769407 5.07241,2.219988 0.53333,0.746552 0.50857,2.339754 0.55995,3.166596 0,0 -0.11101,0.11755 -0.11101,0.11755 l 0,0 c -0.58557,0.134226 -3.73523,0.874278 -4.26368,0.918301 -2.12451,0.17698 -4.30825,-0.475029 -6.42138,-0.528373 -5.9028,-0.618124 -11.86347,-0.788676 -17.56885,1.16353 -0.99404,0.409291 -2.01899,0.750356 -2.98211,1.227873 -0.95582,0.473898 -2.9138,2.675194 -2.76064,1.619391 0.22343,-1.540274 2.1848,-2.243608 3.03984,-3.544099 0.5819,-0.885044 -1.535,1.466874 -2.21051,2.282708 -1.77764,2.146898 -2.04212,3.008688 -3.29588,5.477904 -2.09343,5.879909 -2.86488,11.558509 -1.62151,17.746229 0.97798,4.45906 2.39542,8.79884 4.68847,12.77325 0,0 -5.42667,5.13392 -5.42667,5.13392 z"
       inkscape:connector-curvature="0"
       transform="translate(0,284.36218)" />
    <path
       style="fill:#000080;fill-opacity:1;fill-rule:nonzero;stroke:none"
       id="path4793"
       d="m 189.2227,25.248183 c 0.80972,7.372405 1.48897,14.758516 2.25426,22.135849 1.22844,10.475861 2.29316,20.966389 3.03066,31.488337 0.54008,8.963344 0.85142,17.93698 1.39046,26.900451 0.45997,6.58832 0.97129,13.17418 1.61885,19.74695 0.73002,6.69508 1.80939,3.75459 -5.60752,9.63801 -0.57449,-2.96981 -0.79741,-5.99139 -0.98641,-9.00546 -0.34978,-5.50815 0.35225,-10.92531 1.88265,-16.20632 2.9126,-7.97284 8.98685,-14.262493 15.81641,-19.163858 3.8502,-2.223582 8.52518,-4.063736 13.02782,-2.741184 0.83837,0.246253 1.59932,0.704417 2.39898,1.056625 0.70651,0.606676 1.51145,1.114727 2.11953,1.820028 4.63208,5.372674 3.72295,13.344799 3.00134,19.799239 -1.17729,6.22662 -3.05291,12.48108 -6.76482,17.71253 -2.86393,4.03631 -8.00689,8.05347 -11.18941,10.96472 -1.14493,0.47676 -2.23773,1.10588 -3.43478,1.43027 -5.10285,1.38284 -10.51288,-0.25172 -14.39266,-3.7297 -1.00588,-0.9017 -1.79606,-2.0183 -2.69409,-3.02745 -2.16806,-5.37303 -1.43891,-2.53775 -2.09458,-8.52921 0,0 0.1179,-0.11064 0.1179,-0.11064 l 0,0 c 3.96743,2.99035 1.92446,1.5112 6.1343,4.42999 5.30276,3.62851 11.14282,6.87973 17.79769,4.76121 1.15063,-0.36629 2.18645,-1.02562 3.27968,-1.53843 -0.82957,1.05238 -3.7051,2.59491 -2.48871,3.15714 1.23698,0.57174 1.90616,-1.95839 2.72408,-3.04835 3.82462,-5.09676 5.75286,-11.30108 6.99851,-17.46195 0.75296,-6.11336 1.82853,-14.024 -2.50895,-19.211102 -0.54604,-0.652998 -1.29043,-1.110429 -1.93565,-1.665643 -0.74395,-0.309166 -1.45203,-0.725238 -2.23186,-0.927499 -4.38059,-1.136174 -8.88382,0.867318 -12.53169,3.088049 -0.76146,0.582772 -2.77464,2.572367 -2.28436,1.748317 0.80974,-1.360983 2.10682,-2.374137 3.28578,-3.431494 0.73082,-0.655442 -1.33013,1.44695 -1.93506,2.220097 -1.20053,1.534356 -2.21925,3.172315 -3.07412,4.922355 -0.41804,0.85578 -0.74684,1.75234 -1.12026,2.62851 -1.58883,5.16219 -2.32686,10.46616 -1.92619,15.8778 0.21712,2.9497 0.47367,5.90498 1.0217,8.81481 -7.42859,7.22106 -5.70167,7.73224 -6.34123,0.89308 -0.56374,-6.6252 -1.06911,-13.25538 -1.49068,-19.89125 -0.52765,-9.00659 -0.72746,-18.026356 -1.22733,-27.034453 -0.66825,-10.628286 -1.59869,-21.234761 -2.59906,-31.836606 -0.64314,-7.552663 -1.29174,-15.108707 -1.64173,-22.681781 0,0 4.60055,-3.991987 4.60055,-3.991987 z"
       inkscape:connector-curvature="0"
       transform="translate(0,284.36218)" />
    <path
       style="fill:#000080;fill-opacity:1;fill-rule:nonzero;stroke:none"
       id="path4795"
       d="m 252.55603,99.022713 c 4.74723,3.335127 9.96043,5.860337 15.39153,7.851787 4.5663,1.43692 9.57767,2.07158 13.94138,-0.36762 0.76019,-0.42493 1.42588,-1.00035 2.13883,-1.50052 0.60788,-0.62193 2.52353,-2.38195 1.82363,-1.86577 -1.38522,1.02162 -2.31056,2.71538 -3.89317,3.39207 -0.78016,0.33358 0.8593,-1.46735 1.20449,-2.24245 1.00455,-2.25562 1.27204,-4.405485 1.3505,-6.835946 -0.30698,-3.424589 -1.84181,-6.793353 -5.25514,-8.108028 -0.69757,-0.268676 -1.45213,-0.355658 -2.17819,-0.533488 -6.48353,-0.386628 -12.03595,2.966256 -17.08114,6.643307 -0.8813,0.783565 -3.36376,3.284743 -2.64389,2.350696 0.867,-1.124953 1.72679,-2.539435 3.09178,-2.931853 1.06913,-0.307359 -1.41847,1.71755 -2.051,2.632644 -1.95207,2.824088 -3.01574,5.683468 -3.95315,8.950658 -1.52158,7.57358 0.57708,14.05676 3.97195,20.75139 2.76727,4.26793 5.99706,9.35377 11.06764,11.17336 0.74771,0.26832 1.55425,0.32953 2.33138,0.4943 0.79174,-0.0695 1.6007,-0.0301 2.37521,-0.20845 4.55238,-1.04823 8.33021,-4.95517 11.84159,-7.79589 1.93674,-1.2878 1.00859,-1.02246 2.61762,-1.23889 0,0 -0.0965,0.12971 -0.0965,0.12971 l 0,0 c -4.11643,4.07805 -2.10019,2.11819 -6.04233,5.88613 -3.8146,3.50686 -8.04941,8.21931 -13.45197,9.09385 -0.83814,0.13568 -1.69765,0.0396 -2.54647,0.0594 -0.82337,-0.2119 -1.67907,-0.32412 -2.47012,-0.63569 -5.16355,-2.03379 -8.50006,-7.12695 -11.36852,-11.56412 -3.49933,-6.80026 -5.73626,-13.42738 -4.37647,-21.17126 0.27749,-1.07715 0.48008,-2.17641 0.83247,-3.23143 2.65096,-7.93668 9.34225,-13.638853 15.50171,-18.899278 5.20533,-3.610257 10.94373,-6.818428 17.50765,-6.108837 0.77574,0.219736 1.5836,0.347606 2.3272,0.659207 3.57173,1.496701 5.41673,4.930975 5.91257,8.602102 0.14308,8.863836 -4.27254,12.802646 -11.09583,18.816926 -0.75925,0.47381 -1.47504,1.02567 -2.27774,1.42143 -4.6,2.26795 -9.71583,1.5355 -14.40621,0.002 -5.39206,-2.14577 -10.56898,-4.81054 -15.11412,-8.46266 0,0 5.07285,-5.209087 5.07285,-5.209087 z"
       inkscape:connector-curvature="0"
       transform="translate(0,284.36218)" />
    <path
       style="fill:#000080;fill-opacity:1;fill-rule:nonzero;stroke:none"
       id="path4797"
       d="m 304.53228,77.903297 c -0.24357,7.040515 0.30436,14.065948 1.09089,21.055584 0.92634,7.245019 2.38452,14.441429 5.33752,21.145019 1.74703,3.24404 2.95006,5.17107 6.76974,5.40941 2.17355,0.13816 3.70741,-1.08336 4.09163,1.6576 0,0 -0.10254,0.125 -0.10254,0.125 l 0,0 c -2.82116,1.92206 -5.60352,3.85953 -9.11459,4.15504 -3.97925,-0.17751 -5.7101,-2.58237 -7.46329,-5.94441 -2.9944,-6.81388 -4.47356,-14.11382 -5.30918,-21.49146 -0.75922,-7.101607 -1.32941,-14.252286 -0.87304,-21.397075 0,0 5.57286,-4.714708 5.57286,-4.714708 z"
       inkscape:connector-curvature="0"
       transform="translate(0,284.36218)" />
    <path
       style="fill:#000080;fill-opacity:1;fill-rule:nonzero;stroke:none"
       id="path4799"
       d="m 303.56849,50.892766 c 3.89986,-1.322064 6.63017,-1.148075 9.62021,1.807428 2.16264,3.449837 1.39645,6.481725 -1.1243,9.425249 -2.25785,2.061203 -4.37898,4.282939 -6.77354,6.183609 -0.47871,0.379982 -1.14274,0.450392 -1.74112,0.574884 -2.59426,0.539731 -4.67713,-0.29023 -6.80053,-1.679782 -3.12283,-2.899474 -3.25234,-6.013416 -2.15193,-9.8976 1.05356,-2.964168 3.3843,-5.008291 5.39157,-7.307839 0,0 0.13013,-0.09597 0.13013,-0.09597 l 0,0 c -0.31003,0.360464 -0.75582,0.639031 -0.93008,1.081393 -0.0619,0.157097 0.34966,0.181912 0.36623,0.349945 0.0772,0.783349 -0.65812,1.516344 -0.48672,2.310743 -0.35679,3.163317 0.28284,6.036123 2.90126,8.097888 1.49959,0.895443 2.82411,1.527825 4.63046,1.45822 0.56393,-0.02173 1.12939,-0.107991 1.67309,-0.259294 0.54646,-0.152076 1.87644,-1.125023 1.57489,-0.64458 -1.01476,1.616803 -2.55862,2.833486 -3.83793,4.250228 2.66851,-2.53245 4.03107,-5.423818 2.27582,-8.961743 -2.6421,-2.887544 -5.2966,-2.767478 -8.79244,-1.435958 0,0 4.07493,-5.256825 4.07493,-5.256825 z"
       inkscape:connector-curvature="0"
       transform="translate(0,284.36218)" />
    <path
       style="fill:#000080;fill-opacity:1;fill-rule:nonzero;stroke:none"
       id="path4805"
       d="m 349.11682,24.776556 c -1.44989,5.418386 -2.16432,10.978842 -2.64052,16.554956 -0.69552,9.35691 -0.0151,18.725065 0.83057,28.045125 1.01043,10.813072 2.75489,21.535686 4.57667,32.235753 1.32858,7.88984 2.79818,15.79776 6.03455,23.15149 1.82072,3.85525 4.75717,6.38743 8.58425,8.07527 1.08352,0.71642 2.72592,0.61277 3.72866,1.48241 0.49937,0.88041 0.19466,0.57092 0.79871,1.02943 0,0 -0.0992,0.12772 -0.0992,0.12772 l 0,0 c -3.07737,2.40195 -5.48706,3.74001 -9.47312,2.85085 -4.45832,-1.45429 -7.16746,-4.02837 -9.27252,-8.24538 -3.24865,-7.48325 -4.56124,-15.54236 -5.86959,-23.55351 -1.78758,-10.787809 -3.50698,-21.600129 -4.35598,-32.510492 -0.70045,-9.505155 -1.3044,-19.068606 -0.38851,-28.583175 0.68094,-5.928754 1.5925,-11.850318 3.60565,-17.49668 0,0 3.94033,-3.163767 3.94033,-3.163767 z"
       inkscape:connector-curvature="0"
       transform="translate(0,284.36218)" />
    <path
       style="fill:#000080;fill-opacity:1;fill-rule:nonzero;stroke:none"
       id="path4807"
       d="m 362.42267,82.226396 c -6.29579,-0.831468 -12.52305,-2.093293 -18.80069,-3.049293 -2.89444,-0.428201 -5.80962,-0.655069 -8.72612,-0.857297 -0.43349,-0.03006 -2.88069,-0.125048 -3.16322,-0.408668 -0.25744,-0.258435 -0.0708,-0.726113 -0.10619,-1.089169 0,0 0.10148,-0.125877 0.10148,-0.125877 l 0,0 c 0.85177,-0.621902 1.63542,-1.349902 2.55532,-1.865708 3.95278,-2.216387 9.67073,-1.130132 13.91414,-0.856974 6.26387,0.860884 12.49284,1.956277 18.69516,3.183831 0,0 -4.46988,5.069155 -4.46988,5.069155 z"
       inkscape:connector-curvature="0"
       transform="translate(0,284.36218)" />
    <path
       style="fill:#000080;fill-opacity:1;fill-rule:nonzero;stroke:none"
       id="path4809"
       d="m 404.78543,78.181623 c -1.89675,-2.918067 -4.44442,-5.600048 -7.98498,-6.363947 -0.73511,-0.158606 -1.49674,-0.148229 -2.24511,-0.222344 -3.54278,0.227738 -6.70028,1.800959 -9.41805,4.031552 -0.71183,0.584229 -2.7338,2.466445 -2.02001,1.884613 0.97995,-0.798789 1.87986,-1.691031 2.8198,-2.536547 -3.45036,4.977306 -3.50027,7.870622 -0.65259,13.106539 3.87442,5.509699 9.91964,8.462886 15.82632,11.288727 5.31832,2.635554 11.25191,4.721434 15.52874,9.027084 0.69955,0.70427 1.26562,1.52958 1.89843,2.29437 0.41651,0.84396 0.94351,1.64188 1.24954,2.53187 1.87293,5.44683 -0.76632,9.80332 -3.95238,13.97173 -5.57878,5.98667 -11.72198,12.63563 -20.66298,11.86822 -1.19832,-0.10285 -2.36102,-0.46016 -3.54153,-0.69024 -4.79268,-1.81959 -9.627,-4.72253 -12.25093,-9.32744 -0.6668,-1.17021 -0.97879,-2.51012 -1.50918,-3.74815 -0.47359,-1.10547 -1.0013,-2.18697 -1.50195,-3.28046 0,0 0.11605,-0.11258 0.11605,-0.11258 l 0,0 c 4.32383,3.79336 0.63839,0.91048 5.97002,4.04184 4.50941,2.64845 8.61195,6.07269 13.92602,7.03628 3.8092,0.44654 6.612,0.63469 10.28978,-0.77172 1.06143,-0.4059 2.08417,-0.92015 3.06127,-1.50038 0.98147,-0.58283 2.79709,-3.11912 2.79566,-1.97765 -0.002,1.36832 -1.86464,2.00307 -2.79695,3.0046 3.15229,-3.81314 6.16794,-8.21645 4.63837,-13.45677 -0.24963,-0.85523 -0.72907,-1.62585 -1.0936,-2.43878 -0.58519,-0.7493 -1.09898,-1.56031 -1.75558,-2.24791 -4.13556,-4.33078 -10.09777,-6.34276 -15.30385,-8.98734 -6.02503,-2.91526 -12.19474,-5.974364 -16.07936,-11.666458 -3.03062,-5.616295 -3.02064,-8.65444 0.52697,-14.071631 5.20702,-5.452308 10.00966,-11.816704 18.13847,-12.126225 0.78273,0.11052 1.5834,0.131603 2.34819,0.331561 3.61209,0.944407 6.23578,3.830414 8.07156,6.923011 0,0 -4.43616,4.184575 -4.43616,4.184575 z"
       inkscape:connector-curvature="0"
       transform="translate(0,284.36218)" />
    <path
       style="fill:#000080;fill-opacity:1;fill-rule:nonzero;stroke:none"
       id="path4811"
       d="m 434.86723,21.674509 c 0.62546,7.099809 1.37521,14.185048 2.22761,21.261399 1.40066,12.071626 3.29114,24.076827 5.18824,36.07786 1.92286,11.672083 3.46966,23.398272 4.58271,35.174352 0.52814,6.4567 1.00771,12.92764 1.10873,19.40761 -0.10325,0.57109 0.19989,2.15115 -0.46912,2.60366 -0.20496,0.13863 -0.52169,0.001 -0.72995,0.13498 -0.47273,0.30335 -0.83123,0.75568 -1.24685,1.13352 0,0 0.12734,-0.0996 0.12734,-0.0996 l 0,0 c -0.68087,0.95778 -1.22094,2.03324 -2.04262,2.87335 -0.3104,0.31737 -1.06541,0.45831 -1.32799,0.10037 -0.18585,-0.25335 -0.1805,-1.69412 -0.18113,-1.70882 -0.2023,-6.49672 -0.36227,-12.99725 -0.95062,-19.47475 -1.06313,-11.81677 -2.49036,-23.595282 -4.35487,-35.314186 -1.80413,-12.117319 -3.62537,-24.23871 -4.83077,-36.433738 -0.68958,-7.281518 -1.39259,-14.574861 -1.54257,-21.891624 0,0 4.44186,-3.844343 4.44186,-3.844343 z"
       inkscape:connector-curvature="0"
       transform="translate(0,284.36218)" />
    <path
       style="fill:#000080;fill-opacity:1;fill-rule:nonzero;stroke:none"
       id="path4815"
       d="m 473.81507,71.689502 c 0.79631,5.1627 0.47078,10.341229 -0.34271,15.471166 -1.10542,6.117531 -4.05651,11.311099 -8.2382,15.813672 -5.63128,6.17091 -10.12205,9.53061 -17.97486,11.2428 -2.72441,0.51236 -5.47142,0.39101 -8.13044,-0.35756 -0.94719,-0.37991 -1.90837,-0.70469 -2.88322,-1.00292 -0.65482,-0.112 -0.99304,-0.21867 -1.40584,-0.74424 6.55417,-6.19648 4.75585,-5.55496 11.19703,-5.82481 3.65267,-0.10293 7.30712,-0.10662 10.96091,-0.12361 3.35288,0.0286 6.71293,-0.14336 10.05375,0.19865 2.848,0.37966 4.58189,2.18676 6.10858,4.45978 2.15067,3.77636 3.47574,7.94389 4.76641,12.07233 1.35607,4.27944 2.12844,8.69943 2.53446,13.16107 0.13648,2.32673 0.18848,4.67599 -0.15933,6.98686 -0.31288,1.35379 -1.88453,1.76334 -2.29788,3.12891 0,0 -0.10213,0.12535 -0.10213,0.12535 l 0,0 c -0.65129,0.50025 -3.37076,3.32404 -3.55151,1.70776 0.19279,-2.27617 0.39918,-4.55697 0.22761,-6.84379 -0.2938,-4.44401 -1.06649,-8.83358 -2.34172,-13.10585 -1.22448,-4.08386 -2.53209,-8.19014 -4.57781,-11.9488 -1.38556,-2.14045 -2.97118,-3.73804 -5.64625,-3.95005 -3.32193,-0.26204 -6.65653,-0.14878 -9.98573,-0.16723 -3.65302,0.008 -7.30779,0.0156 -10.95814,0.17025 -1.17221,0.0578 -2.34389,0.11481 -3.5119,0.23415 -1.24648,0.12736 -1.57004,0.23995 -1.52754,0.18677 1.49248,-1.86737 3.23027,-3.52472 4.8454,-5.28709 -0.74584,-0.66054 0.0481,0.027 0.38733,0.0321 0.96888,0.29607 1.91259,0.65528 2.8656,0.99735 2.51955,0.70814 5.12589,0.78852 7.703,0.30137 2.94804,-0.65983 5.73097,-1.57885 8.33816,-3.14948 0.75455,-0.45456 2.47537,-2.31133 2.19097,-1.47761 -0.44272,1.29788 -1.82345,2.04865 -2.73518,3.07298 4.32599,-4.39676 7.43358,-9.554571 8.70288,-15.662712 0.94381,-5.15933 1.35433,-10.374232 0.79833,-15.611552 0,0 4.68997,-4.105984 4.68997,-4.105984 z"
       inkscape:connector-curvature="0"
       transform="translate(0,284.36218)" />
    <path
       style="fill:#000080;fill-opacity:1;fill-rule:nonzero;stroke:none"
       id="path4817"
       d="m 519.48212,98.273002 c -3.66367,-3.770388 -8.3631,-5.821299 -13.34878,-7.18135 -4.80892,-0.935509 -9.80363,-0.47349 -14.04418,2.144228 -0.81948,0.505865 -1.54639,1.148231 -2.31958,1.722347 0.98602,-0.94991 1.67777,-2.364518 2.95805,-2.849729 0.90295,-0.342203 -1.19316,1.52668 -1.67501,2.363475 -2.45651,4.266024 -2.53179,8.826607 -2.32265,13.594687 0.97316,7.10153 3.63223,14.00964 8.37278,19.47483 0.81053,0.93443 1.75279,1.74591 2.62918,2.61886 4.72316,3.56264 9.41823,4.29566 14.38799,0.62218 0.95468,-0.70567 1.75683,-1.5972 2.63525,-2.3958 -1.04624,0.86536 -1.97509,3.29567 -3.13872,2.59608 -1.09765,-0.65991 1.39328,-2.15583 1.96342,-3.30268 2.33322,-4.69329 2.81699,-9.598 2.96505,-14.74567 0.13266,-4.08919 -0.98395,-8.05377 -1.40113,-12.08375 -0.22601,-2.183227 -0.12291,-2.805284 -0.0336,-4.977927 0,0 0.11627,-0.112353 0.11627,-0.112353 l 0,0 c 0.70352,0.130125 1.44742,0.121815 2.11055,0.390375 4.00444,1.621753 4.48426,8.258525 5.02969,11.812285 0.1428,5.20488 -0.31824,10.11933 -2.53853,14.92013 -0.54379,1.17579 -1.06088,2.39885 -1.88409,3.39911 -2.44734,2.97372 -5.24859,5.63758 -7.87289,8.45637 -0.92684,0.76781 -1.77655,1.63963 -2.78051,2.30341 -5.3201,3.51741 -10.34014,2.38602 -15.13269,-1.30847 -0.90016,-0.90562 -1.88115,-1.73751 -2.70047,-2.71688 -4.74877,-5.67643 -7.11064,-12.98839 -8.25786,-20.17777 -0.32462,-5.58536 -0.31528,-12.09982 3.76858,-16.543182 2.22639,-2.422373 4.68005,-4.625568 7.02008,-6.938352 0.78075,-0.518563 1.51985,-1.106103 2.34226,-1.555689 4.35385,-2.380122 9.37307,-2.574004 14.12136,-1.484516 4.98198,1.555398 9.63016,3.925789 13.08514,7.955543 0,0 -4.05497,4.000208 -4.05497,4.000208 z"
       inkscape:connector-curvature="0"
       transform="translate(0,284.36218)" />
    <path
       style="fill:#000080;fill-opacity:1;fill-rule:nonzero;stroke:none"
       id="path4819"
       d="m 539.49537,88.177242 c 1.35493,8.188656 2.78522,16.362028 4.33254,24.516888 2.10188,10.97724 4.47514,21.89949 6.85259,32.81952 0.92195,4.49713 2.06594,8.94651 3.02161,13.43575 0.30487,1.98649 -0.33867,0.93319 -0.69565,1.2002 -2.47489,1.85111 -3.28142,3.90824 -1.70399,0.77238 0,0 0.12308,-0.10485 0.12308,-0.10485 l 0,0 c 0.26212,0.0959 0.90558,0.0352 0.78636,0.28756 -0.12114,0.25641 -3.0667,6.0756 -4.3218,3.0597 -1.27445,-4.42663 -1.97271,-9.00038 -3.00771,-13.48366 -2.30268,-10.97773 -4.6124,-21.95473 -6.70607,-32.97478 -1.5435,-8.25629 -3.20029,-16.52036 -3.96381,-24.894092 0,0 5.28285,-4.634616 5.28285,-4.634616 z"
       inkscape:connector-curvature="0"
       transform="translate(0,284.36218)" />
    <path
       style="fill:#000080;fill-opacity:1;fill-rule:nonzero;stroke:none"
       id="path4821"
       d="m 528.88788,103.91312 c -0.12774,-4.506024 1.22853,-8.483511 3.65184,-12.217959 4.67821,-5.785401 10.10013,-10.766653 17.47134,-12.373942 1.12362,-0.245006 2.27454,-0.341621 3.41181,-0.512431 5.54428,-0.249688 11.63994,0.721997 15.71469,4.878439 0.72226,0.736739 1.24831,1.643021 1.87246,2.464532 0.37473,0.985459 0.88594,1.929347 1.12419,2.956377 1.47707,6.367403 -1.623,12.556614 -4.74861,17.850864 -4.57547,5.76189 -10.85215,14.45316 -19.19504,14.47381 -1.01613,0.003 -2.0163,-0.25428 -3.02445,-0.38142 -2.81569,-0.97485 -6.00939,-2.19679 -7.79824,-4.78271 -0.0174,-0.0251 -2.28628,-5.27969 -2.37053,-5.47469 0,0 0.11427,-0.11438 0.11427,-0.11438 l 0,0 c 6.23623,2.61343 -1.39549,-0.40763 5.85774,1.82662 3.04237,0.93716 5.84001,2.7034 9.11224,2.87226 3.40625,0.0594 5.80768,-0.0496 8.86163,-1.80618 0.95816,-0.55111 2.89787,-3.01055 2.7017,-1.92275 -0.24938,1.38281 -1.52098,2.81523 -2.90569,3.05388 -1.25116,0.21563 1.59377,-1.97675 2.39066,-2.96512 3.14599,-5.0627 6.38411,-11.06142 5.1643,-17.27992 -0.1899,-0.968078 -0.64237,-1.865559 -0.96355,-2.798339 -0.55748,-0.790645 -1.00887,-1.667958 -1.67243,-2.371936 -3.82021,-4.052881 -9.78431,-4.860168 -15.03891,-4.68245 -3.23353,0.484618 -6.16747,1.071855 -9.0904,2.623548 -0.85033,0.45141 -2.59138,2.483276 -2.44887,1.531165 0.20053,-1.33978 1.88656,-1.957642 2.67733,-3.057596 0.5329,-0.741254 -1.26559,1.316065 -1.89839,1.974098 -2.72386,3.799978 -4.18288,7.620207 -4.38048,12.33098 0,0 -4.59061,3.90525 -4.59061,3.90525 z"
       inkscape:connector-curvature="0"
       transform="translate(0,284.36218)" />
    <path
       style="fill:#000080;fill-opacity:1;fill-rule:nonzero;stroke:none"
       id="path4823"
       d="m 593.41575,76.161555 c -0.68365,6.809767 0.1627,13.608279 1.41712,20.29496 1.26781,5.709245 3.06864,11.355935 6.58445,16.088045 1.94179,2.34658 4.40269,2.88091 7.29812,2.75614 0.40858,0.0301 2.76822,-0.56948 3.06584,0.16653 0.22445,0.55507 -0.14619,1.19225 -0.13753,1.79092 0,0 -0.10057,0.1266 -0.10057,0.1266 l 0,0 c -2.42618,1.92898 -4.72958,4.04928 -8.01941,4.01943 -3.11849,-0.005 -5.77378,-0.79692 -7.82987,-3.30392 -3.56753,-4.84655 -5.44096,-10.58709 -6.75277,-16.41698 -1.29565,-6.714917 -2.17428,-13.528994 -1.6703,-20.382957 0,0 6.14492,-5.138768 6.14492,-5.138768 z"
       inkscape:connector-curvature="0"
       transform="translate(0,284.36218)" />
    <path
       style="fill:#000080;fill-opacity:1;fill-rule:nonzero;stroke:none"
       id="path4825"
       d="m 589.31434,43.500088 c 4.01453,-1.126727 7.08278,-0.971797 10.45309,1.579248 2.97045,3.307605 2.18978,7.238473 0.34716,10.877702 -3.61597,4.662413 -8.13595,10.535471 -14.62459,10.453851 -0.70716,-0.0089 -1.40443,-0.167875 -2.10665,-0.251813 -4.954,-1.489671 -7.18735,-4.957017 -8.40563,-9.752985 -0.76635,-7.77891 2.48372,-9.612333 8.06097,-14.606178 2.43639,0.755761 -0.61069,-0.491921 1.32179,1.786797 0.33821,0.398803 0.95803,0.4194 1.43704,0.6291 0,0 -0.10996,0.118534 -0.10996,0.118534 l 0,0 c -0.47905,-0.207183 -0.92029,-0.694166 -1.43714,-0.621548 -0.66858,0.09394 -3.52576,1.739902 -4.30529,2.173975 0.90661,-1.001826 1.79086,-2.024352 2.71983,-3.005479 0.31892,-0.336832 -0.6447,0.676432 -0.88834,1.071161 -1.34217,2.174513 -1.45109,4.831575 -1.05475,7.277507 1.21991,4.176579 3.3788,7.838298 7.89835,8.915242 2.13999,0.152415 3.91269,0.08533 5.89822,-0.863527 0.63335,-0.302668 2.20018,-1.662928 1.80697,-1.081443 -1.0704,1.582925 -2.58817,2.812292 -3.91032,4.191907 -0.50015,0.521892 0.9625,-1.078749 1.44375,-1.618124 1.95123,-3.22062 3.2615,-6.984405 0.57828,-10.217689 -3.16309,-2.412944 -6.16275,-2.282485 -9.8461,-1.095832 0,0 4.72332,-5.960406 4.72332,-5.960406 z"
       inkscape:connector-curvature="0"
       transform="translate(0,284.36218)" />
    <path
       style="fill:#000080;fill-opacity:1;fill-rule:nonzero;stroke:none"
       id="path4827"
       d="m 617.67868,87.207376 c 4.72957,1.151638 9.5238,1.718834 14.38184,1.826761 3.78669,-0.144296 7.77552,-0.547677 10.41346,-3.516055 -1.62085,1.500803 -3.07785,3.200729 -4.86256,4.502408 -0.1413,0.103052 0.64868,-0.893027 0.43949,-2.62519 -0.2146,-1.776979 -1.19657,-2.870382 -2.38254,-4.099714 -4.55714,-3.304497 -10.00176,-2.574751 -15.09443,-1.139835 -2.3899,1.070793 -3.34978,1.329228 -5.4365,2.943951 -0.80766,0.624978 -3.07358,2.683669 -2.25169,2.077526 1.25018,-0.922005 2.00373,-2.810137 3.54165,-3.028869 1.00686,-0.143202 -1.02265,1.768965 -1.37937,2.721335 -0.37872,1.0111 -0.54282,2.090061 -0.81423,3.135092 -0.95251,8.367361 2.1869,15.527914 6.61667,22.399924 3.26322,4.2897 7.48112,8.07995 13.12426,8.3871 0.91502,0.0498 1.83106,-0.0786 2.74659,-0.11784 1.8269,0.18761 6.80216,-2.15646 8.35931,-1.47043 0.30853,0.13593 0.34556,0.57903 0.51833,0.86854 0,0 -0.10037,0.12676 -0.10037,0.12676 l 0,0 c -4.18716,3.14204 -8.57162,5.95783 -13.9156,6.52054 -0.95301,0.005 -1.90988,0.10194 -2.85905,0.0162 -5.80973,-0.52478 -10.17108,-4.43269 -13.55247,-8.88759 -4.53253,-7.00354 -7.8052,-14.33236 -7.04359,-22.875593 0.25088,-1.098884 0.39411,-2.228034 0.75263,-3.296654 1.59071,-4.741283 4.66766,-6.717181 8.56932,-10.696359 2.17212,-2.215289 4.93094,-3.622894 7.82713,-4.628187 5.37397,-1.336748 11.03194,-1.844602 15.79767,1.533789 1.7054,1.625736 3.19505,3.328218 3.129,5.849443 -0.0124,0.475155 0.0541,1.031149 -0.23832,1.405899 -1.89553,2.429502 -4.13669,4.568357 -6.20504,6.852536 -3.03268,2.59823 -6.99661,3.013744 -10.87597,3.066384 -4.77179,-0.170367 -9.51367,-0.902466 -14.02107,-2.534982 0,0 4.81545,-5.31689 4.81545,-5.31689 z"
       inkscape:connector-curvature="0"
       transform="translate(0,284.36218)" />
    <path
       style="fill:#ff6600;fill-opacity:1;fill-rule:nonzero;stroke:none"
       id="path4829"
       d="m 483.19023,378.23302 c -3.81811,-2.30072 -7.94936,-3.67911 -12.37492,-4.06679 -5.2225,-0.0672 -9.43009,2.6414 -13.39074,5.73675 -0.70263,0.63464 -2.71952,2.62668 -2.1079,1.90392 0.88344,-1.04395 1.79965,-2.10136 2.92841,-2.87351 0.76998,-0.52672 -1.25182,1.38563 -1.82703,2.1201 -1.80409,2.30355 -2.91697,4.65001 -3.94897,7.36455 -1.94007,6.96991 0.0398,13.80571 2.48211,20.35775 2.5531,6.24006 6.19984,11.83531 11.4602,16.07493 3.68269,2.59232 7.93744,2.96094 12.29371,2.82321 2.22786,-0.0164 2.79446,-0.58677 4.65439,0.69772 0,0 -0.10121,0.12609 -0.10121,0.12609 l 0,0 c -2.7444,1.72736 -5.38927,3.39974 -8.62184,4.05939 -5.14667,1.01739 -9.29895,1.12703 -13.78254,-2.03393 -5.34089,-4.38564 -9.04007,-10.10498 -11.61334,-16.50861 -2.49517,-6.77827 -4.45325,-13.82179 -2.5245,-21.02475 0.33283,-0.92775 0.60309,-1.88038 0.99848,-2.78324 2.85845,-6.52719 8.82543,-11.1978 13.89125,-15.89859 4.0607,-3.01101 8.36208,-5.54467 13.61356,-5.1827 4.41246,0.60659 8.49311,2.18903 12.22073,4.65198 0,0 -4.24985,4.45573 -4.24985,4.45573 z"
       inkscape:connector-curvature="0"
       transform="translate(0,284.36218)" />
    <path
       style="fill:#ff6600;fill-opacity:1;fill-rule:nonzero;stroke:none"
       id="path4831"
       d="m 505.76721,333.88211 c -0.0442,9.56457 -0.48356,19.12233 -0.94337,28.67423 -0.82472,11.30182 -0.64057,22.57779 0.9591,33.79181 1.33991,8.04948 3.93024,15.7844 7.9001,22.90518 2.01299,3.14189 3.43931,5.19528 7.23723,5.72799 0.83164,1.13162 0.24658,0.77985 2.01654,-0.35758 0,0 -0.0978,0.12876 -0.0978,0.12876 l 0,0 c -2.54579,1.65466 -1.08045,0.63535 -4.31175,3.17568 -0.71234,0.31866 -1.38895,0.73382 -2.13704,0.95597 -3.69946,1.09855 -6.27384,-1.78172 -7.99393,-4.63397 -3.95766,-7.26722 -6.46854,-15.17101 -7.80753,-23.33764 -1.59718,-11.31853 -1.7398,-22.69933 -0.80637,-34.09691 0.56894,-9.63157 1.08835,-19.26681 1.2731,-28.91493 0,0 4.7117,-4.01859 4.7117,-4.01859 z"
       inkscape:connector-curvature="0"
       transform="translate(0,284.36218)" />
    <path
       style="fill:#ff6600;fill-opacity:1;fill-rule:nonzero;stroke:none"
       id="path4833"
       d="m 551.13548,398.73073 c -1.98079,-4.72542 -5.02995,-8.64823 -9.07538,-11.74728 -3.53248,-2.16877 -7.72172,-3.00484 -11.52161,-0.91339 -0.76251,0.41968 -1.4195,1.0076 -2.12925,1.5114 0.81583,-0.75 1.4567,-2.74641 2.44748,-2.25 0.93057,0.46623 -1.20167,1.71003 -1.66129,2.6439 -0.50819,1.03256 -0.91804,2.11843 -1.22803,3.22674 -1.14204,4.08318 -0.84453,7.95217 -0.41343,12.09976 1.38858,6.38494 3.84222,12.99809 8.66934,17.63678 0.69538,0.66823 1.51501,1.19376 2.27252,1.79064 2.18295,1.17183 4.31736,1.6323 6.6065,0.39403 0.71748,-0.3881 2.49772,-2.08302 1.95002,-1.47852 -5.82864,6.43316 -3.16274,2.68573 -1.82261,0.54159 3.23747,-6.17528 2.92718,-13.0969 3.34614,-19.83966 0.10817,-1.1712 0.21633,-2.3424 0.32449,-3.5136 0,0 0.11955,-0.10885 0.11955,-0.10885 l 0,0 c 0.6548,0.49379 1.30959,0.98758 1.96439,1.48137 0.457,0.73189 1.04839,1.3954 1.371,2.19567 1.91008,4.73819 0.41314,10.80399 -1.3155,15.33343 -2.81785,5.12841 -1.57311,3.41024 -8.49444,9.88096 -2.72021,2.54311 -6.30583,2.20201 -9.29322,0.46959 -0.77671,-0.64233 -1.62043,-1.21132 -2.33014,-1.927 -4.92633,-4.96777 -6.99618,-11.95129 -8.2071,-18.64192 -0.48429,-5.36992 -0.76163,-10.68511 1.51232,-15.74269 0.43376,-0.96475 0.88889,-1.95174 1.58175,-2.75102 1.97391,-2.27711 4.24456,-4.27901 6.36684,-6.41852 0.74866,-0.4738 1.44804,-1.03635 2.24598,-1.42141 4.0211,-1.9404 8.29366,-0.8521 11.86587,1.47018 4.10763,3.29564 7.18527,7.40371 8.77205,12.48575 0,0 -3.92424,3.59207 -3.92424,3.59207 z"
       inkscape:connector-curvature="0"
       transform="translate(0,284.36218)" />
    <path
       style="fill:#ff6600;fill-opacity:1;fill-rule:nonzero;stroke:none"
       id="path4835"
       d="m 569.17778,379.27891 c 3.30023,7.28682 6.33831,14.68902 9.44016,22.06157 2.76099,6.51616 5.33864,13.1105 7.63575,19.80463 1.3259,4.35892 1.15488,4.34345 -5.48958,7.43642 -0.34794,0.16196 -1.32699,-1.56451 -2.07222,-2.76642 -2.90127,-5.81911 -3.43784,-12.25648 -3.17323,-18.64841 0.87692,-8.30047 3.61922,-13.88438 9.04916,-20.09391 5.20358,-5.27815 11.12236,-11.7828 19.26509,-11.67724 1.00914,0.0131 2.00323,0.24737 3.00484,0.37105 8.06069,2.53274 11.46131,10.15825 14.23743,17.47588 2.65497,7.8085 3.45891,15.9627 2.48778,24.12294 -0.33603,2.58566 -1.72324,4.7406 -2.86082,7.0152 0,0 -0.12535,0.10213 -0.12535,0.10213 l 0,0 c -0.47394,-1.36581 -1.77581,-1.5105 -1.44346,-3.36245 -0.46266,-7.72906 -0.92411,-15.51483 -3.46773,-22.90769 -2.65821,-7.02083 -5.84081,-14.58393 -13.65125,-16.92625 -0.95134,-0.0983 -1.8977,-0.30644 -2.85403,-0.29475 -3.01525,0.0369 -5.97715,1.18654 -8.53169,2.71257 -0.94102,0.56215 -2.36834,2.91287 -2.70514,1.86975 -0.37507,-1.16167 1.61461,-1.83131 2.42191,-2.74696 -5.55136,6.03673 -8.44895,11.49881 -9.41219,19.75513 -0.27517,6.23594 0.23647,12.51924 3.01153,18.22034 0.31476,0.51611 0.58816,1.05983 0.94427,1.54833 0.25018,0.34318 1.07342,0.56419 0.86582,0.9347 -1.13382,2.02355 -2.91917,3.60577 -4.407,5.3853 -0.10432,0.12477 0.2347,-0.25552 0.25318,-0.41711 0.0728,-0.63646 -0.36232,-1.951 -0.48899,-2.42522 -2.15504,-6.77567 -4.75235,-13.39672 -7.33472,-20.01844 -2.95727,-7.49442 -6.06074,-14.92933 -9.04197,-22.41418 0,0 4.44245,-4.11691 4.44245,-4.11691 z"
       inkscape:connector-curvature="0"
       transform="translate(0,284.36218)" />
    <path
       style="fill:#ff6600;fill-opacity:1;fill-rule:nonzero;stroke:none"
       id="path4837"
       d="m 652.46577,392.59009 c 3.96489,-0.68463 7.51816,-2.3661 10.70596,-4.77435 3.62902,-3.55529 -2.3399,2.30501 -3.14009,2.93772 -0.31792,0.25138 0.41014,-0.70689 0.53145,-1.0936 0.43221,-1.37783 -0.0956,-2.32248 -0.76347,-3.48612 -3.11984,-3.46119 -7.68769,-3.47693 -11.95391,-2.76633 -2.24696,0.81025 -3.11269,0.93542 -5.06714,2.41039 -0.8032,0.60615 -3.11595,2.49422 -2.2098,2.05666 1.20433,-0.58155 1.87686,-2.95639 3.13525,-2.50354 1.07777,0.38785 -1.10068,2.01839 -1.49713,3.09304 -0.43511,1.17943 -0.65785,2.42668 -0.98677,3.64002 -1.07774,7.43005 0.35234,14.9611 3.61979,21.7013 0.64094,1.32214 1.44144,2.56079 2.16216,3.84118 3.49807,5.16123 8.30536,9.52153 14.88056,9.60601 1.19944,0.0154 2.38864,-0.22349 3.58296,-0.33524 3.56745,-0.57135 6.85958,-2.04097 10.21257,-3.29558 0.93116,-0.34842 1.83877,-0.79094 2.81189,-0.99466 0.56773,-0.11885 3.41606,0.0578 3.98356,0.0857 0,0 -0.1017,0.12569 -0.1017,0.12569 l 0,0 c -7.30217,3.41587 -13.8297,8.70568 -21.9828,10.11649 -1.23876,0.0765 -2.47633,0.28371 -3.71627,0.22967 -6.77067,-0.29511 -11.7425,-4.80152 -15.36697,-10.14288 -0.73944,-1.3053 -1.55806,-2.56882 -2.21831,-3.91591 -3.40518,-6.94752 -4.73656,-14.68443 -3.635,-22.34639 0.48742,-1.91736 1.13028,-5.36271 2.4283,-7.04489 4.17657,-5.41265 7.96612,-9.98366 14.49708,-11.79213 4.73471,-0.59708 9.10412,-0.33936 12.6362,3.24833 0.28896,0.43036 0.63417,0.82787 0.86689,1.29107 2.42134,4.81945 -4.16033,8.4189 -7.14725,11.24261 -3.24094,2.24647 -6.83592,3.82 -10.78129,4.31331 0,0 4.51328,-5.44755 4.51328,-5.44755 z"
       inkscape:connector-curvature="0"
       transform="translate(0,284.36218)" />
  </g>
</svg>
