<?xml version="1.0" encoding="UTF-8" standalone="no"?>
<!-- Created with Inkscape (http://www.inkscape.org/) -->

<svg
   xmlns:dc="http://purl.org/dc/elements/1.1/"
   xmlns:cc="http://creativecommons.org/ns#"
   xmlns:rdf="http://www.w3.org/1999/02/22-rdf-syntax-ns#"
   xmlns:svg="http://www.w3.org/2000/svg"
   xmlns="http://www.w3.org/2000/svg"
   xmlns:sodipodi="http://sodipodi.sourceforge.net/DTD/sodipodi-0.dtd"
   xmlns:inkscape="http://www.inkscape.org/namespaces/inkscape"
   width="1024"
   height="768"
   id="svg4160"
   version="1.1"
   inkscape:version="0.48.4 r9939"
   sodipodi:docname="git-befehle8.svg">
  <defs
     id="defs4162" />
  <sodipodi:namedview
     id="base"
     pagecolor="#ffffff"
     bordercolor="#666666"
     borderopacity="1.0"
     inkscape:pageopacity="0.0"
     inkscape:pageshadow="2"
     inkscape:zoom="0.86588542"
     inkscape:cx="512"
     inkscape:cy="464.12054"
     inkscape:document-units="px"
     inkscape:current-layer="layer1"
     showgrid="false"
     inkscape:window-width="1600"
     inkscape:window-height="886"
     inkscape:window-x="0"
     inkscape:window-y="14"
     inkscape:window-maximized="0" />
  <metadata
     id="metadata4165">
    <rdf:RDF>
      <cc:Work
         rdf:about="">
        <dc:format>image/svg+xml</dc:format>
        <dc:type
           rdf:resource="http://purl.org/dc/dcmitype/StillImage" />
        <dc:title />
      </cc:Work>
    </rdf:RDF>
  </metadata>
  <g
     inkscape:label="Ebene 1"
     inkscape:groupmode="layer"
     id="layer1"
     transform="translate(0,-284.36218)">
    <path
       style="fill:#000080;fill-opacity:1;fill-rule:nonzero;stroke:none"
       id="path5215"
       d="m 89.098312,33.377999 c -4.839483,-1.249943 -9.795926,-1.096103 -14.703632,-0.449483 -6.27541,0.921975 -11.785277,3.684063 -16.806619,7.439252 -0.825163,0.747992 -3.19705,3.092349 -2.475488,2.243978 0.827188,-0.972562 1.519839,-2.688875 2.794702,-2.619293 1.128138,0.06157 -1.444146,1.740221 -2.104501,2.656964 -2.053644,2.850986 -3.447306,5.853902 -4.774467,9.085459 -2.071486,5.975823 -2.518931,12.342918 -1.250608,18.548876 0.292325,1.430361 0.737081,2.82529 1.105621,4.237935 2.729969,8.032307 7.599163,15.136228 14.1704,20.528144 1.388803,1.139559 2.908127,2.11004 4.362191,3.165059 6.870085,4.03226 14.845062,7.30299 23.000551,6.58483 1.234374,-0.1087 2.433318,-0.47004 3.649978,-0.70506 -1.42473,1.99359 7.47596,-4.474397 5.43331,-3.68779 -1.43747,0.55356 -2.216288,3.06441 -3.721895,2.739 -1.134402,-0.24517 0.857129,-2.17098 1.080545,-3.309864 0.614337,-3.131654 0.213631,-4.486907 -0.135821,-7.635747 -1.514153,-7.012307 -5.111234,-13.131633 -10.51344,-17.803654 -3.808085,-2.714591 -7.126317,-2.437142 -11.373025,-1.158256 -1.461854,0.485241 -2.858438,1.135561 -4.268959,1.747857 -0.952302,0.413386 -1.336011,0.615882 -1.383667,0.401895 -0.05971,-0.268115 0.201268,-0.511172 0.301902,-0.766758 0,0 0.329159,-0.435406 0.329159,-0.435406 l 0,0 c 2.656268,-2.802518 5.837444,-4.884195 9.393521,-6.415255 4.6799,-1.70855 8.328441,-2.143333 12.576109,0.975458 5.490023,4.846145 9.203441,11.102728 10.860211,18.270262 0.38373,2.869656 1.22797,8.718956 -0.57898,11.338155 -0.61013,0.884389 -6.56466,8.567373 -9.820724,10.493393 -0.992295,0.58697 -2.128784,0.88599 -3.193176,1.32898 -1.24917,0.19706 -2.485214,0.51458 -3.74751,0.59118 -8.297394,0.50346 -16.338081,-2.8034 -23.311735,-6.95703 -1.476157,-1.0762 -3.017377,-2.06841 -4.428472,-3.22862 C 52.892822,95.097582 47.905998,87.907154 45.050925,79.772421 44.659652,78.341013 44.189996,76.928758 43.877106,75.478199 42.509585,69.13837 42.980442,62.615546 45.019425,56.479303 c 1.184036,-2.959007 1.341225,-3.65379 2.931156,-6.423426 3.48862,-6.077123 8.676478,-10.957474 13.972852,-15.461414 5.08281,-3.573478 10.615418,-6.148747 16.85149,-6.913782 4.948263,-0.473157 9.932728,-0.51319 14.784664,0.743865 0,0 -4.461275,4.953453 -4.461275,4.953453 z"
       inkscape:connector-curvature="0"
       transform="translate(0,284.36218)" />
    <path
       style="fill:#000080;fill-opacity:1;fill-rule:nonzero;stroke:none"
       id="path5217"
       d="m 122.38944,36.382666 c -2.61078,6.943595 -2.25983,14.555797 -1.75035,21.823949 0.98665,8.830272 3.21145,17.615947 7.63952,25.388053 0.83542,1.466316 1.82914,2.836593 2.74371,4.254889 4.51948,5.828998 10.55262,10.918991 18.20653,11.582394 1.30812,0.113382 2.62546,-0.05556 3.93819,-0.08335 4.27505,-0.548392 7.39707,-2.631453 10.574,-5.372425 0.86344,-0.744951 -2.49213,3.278803 -2.66043,2.150906 -0.22653,-1.518225 1.70433,-2.56249 2.39443,-3.933655 0.72255,-1.435656 1.22027,-2.973837 1.8304,-4.460755 2.99644,-9.29519 2.23426,-18.860037 0.12277,-28.221555 -1.29377,-5.381104 -3.74678,-10.334762 -6.01536,-15.343342 -1.48713,-2.588216 -0.76881,-3.918476 -0.58119,-6.624933 0,0 0.11662,-0.111984 0.11662,-0.111984 l 0,0 c 2.64144,0.4608 3.30666,-0.227697 5.20654,2.218324 3.41145,4.323258 5.66005,9.349783 7.09076,14.661268 2.21903,9.450062 3.04072,19.122532 0.19753,28.568963 -0.58221,1.516335 -1.05374,3.079946 -1.74664,4.549007 -2.66206,5.644005 -5.53943,7.894286 -10.65162,12.851677 -1.91273,1.85481 -4.52296,3.39011 -7.04904,4.22669 -1.27284,0.42153 -2.62396,0.55317 -3.93594,0.82976 -1.35259,-0.01 -2.71348,0.12089 -4.05776,-0.0291 -7.83645,-0.87449 -13.96223,-6.061985 -18.56116,-12.113191 -0.92011,-1.451624 -1.92305,-2.853951 -2.76034,-4.354871 -4.43333,-7.947117 -6.55742,-16.950462 -7.46975,-25.936469 -0.42968,-7.456709 -0.76573,-15.192419 1.79298,-22.341264 0,0 5.3856,-4.178969 5.3856,-4.178969 z"
       inkscape:connector-curvature="0"
       transform="translate(0,284.36218)" />
    <path
       style="fill:#000080;fill-opacity:1;fill-rule:nonzero;stroke:none"
       id="path5219"
       d="m 209.5623,32.235935 c -1.05797,6.916796 -0.94943,13.931387 -0.72556,20.902071 0.47903,10.40976 2.06769,20.719753 3.80877,30.979915 1.19149,6.80757 2.49443,13.594889 3.75993,20.388929 0.0251,1.27197 1.01132,3.2392 0.26084,4.49823 -0.0716,0.12012 -0.23437,0.15392 -0.34076,0.24467 -0.6976,0.59507 -1.37993,1.20779 -2.0699,1.81169 0.21353,-0.34004 0.42705,-0.68007 0.64058,-1.02011 0,0 0.12669,-0.10045 0.12669,-0.10045 l 0,0 c 0.023,0.15893 0.0459,0.31786 0.0689,0.47679 -0.89675,0.9758 -1.71028,2.03522 -2.69026,2.92741 -1.35246,1.23131 -2.04935,-3.28416 -1.95864,-3.55833 -1.1996,-6.83394 -2.47271,-13.654579 -3.65817,-20.491029 -1.73986,-10.330576 -3.32462,-20.711031 -3.72432,-31.195789 -0.17866,-7.197656 -0.2681,-14.473533 1.23971,-21.555597 0,0 5.26218,-4.3084 5.26218,-4.3084 z"
       inkscape:connector-curvature="0"
       transform="translate(0,284.36218)" />
    <path
       style="fill:#000080;fill-opacity:1;fill-rule:nonzero;stroke:none"
       id="path5221"
       d="m 228.86343,110.18924 c -7.06369,-3.8255 -15.24987,-3.39646 -23.0035,-2.8882 -8.88718,0.90729 -17.65434,2.70508 -26.38469,4.5557 -0.64587,-0.74458 -2.46174,1.0406 -3.35106,0.35445 -0.21783,-0.16807 0.0565,-0.54736 0.0847,-0.82104 0,0 1.33278,-1.68917 1.33278,-1.68917 l 0,0 c 2.05709,-1.71789 3.69947,-2.74401 6.39074,-3.3174 8.8478,-2.3325 17.83334,-4.22488 26.95928,-5.04958 7.92387,-0.4791 16.31436,-0.85407 23.49704,3.11768 0,0 -5.5253,5.73756 -5.5253,5.73756 z"
       inkscape:connector-curvature="0"
       transform="translate(0,284.36218)" />
    <path
       style="fill:#000080;fill-opacity:1;fill-rule:nonzero;stroke:none"
       id="path5223"
       d="m 226.62004,35.436771 c -8.74627,0.927433 -17.50439,1.723813 -26.26928,2.452185 -9.59596,0.715978 -19.1784,1.92428 -28.81418,1.490989 -0.37215,-0.467536 -0.74429,-0.935073 -1.11644,-1.402609 0,0 0.10297,-0.124658 0.10297,-0.124658 l 0,0 c 1.40027,-0.762103 2.80054,-1.524207 4.20081,-2.28631 10.07054,-2.272204 20.35616,-2.841596 30.62654,-3.631989 8.81731,-0.753886 17.62897,-1.573643 26.41423,-2.645671 0,0 -5.14465,6.148063 -5.14465,6.148063 z"
       inkscape:connector-curvature="0"
       transform="translate(0,284.36218)" />
    <g
       id="g5247"
       transform="translate(-10.66969,105.53309)">
      <path
         inkscape:connector-curvature="0"
         d="m 128.30406,511.87333 c 0.71165,-4.37446 0.86593,-8.80204 1.45544,-13.18968 0.0692,-0.66067 0.18485,-1.31811 0.20769,-1.98201 0.0192,-0.55786 -0.0977,-1.11461 -0.0818,-1.67259 0.0586,-2.05862 0.42713,-4.10567 0.48288,-6.17266 0.0268,-1.42489 0.16823,-2.8725 -0.19344,-4.26617 -0.0252,-0.74894 -0.47008,0.41958 -0.33298,0.32459 1.44231,-0.9993 2.66814,-2.2928 4.12754,-3.26697 0.24667,-0.16465 -0.29194,0.51727 -0.41349,0.78779 -0.22123,0.49239 -0.40919,0.99908 -0.61379,1.49862 -2.95526,8.64635 -4.02348,17.785 -5.03549,26.82075 -1.25564,12.21768 -1.09326,24.50573 -0.34451,36.74547 0.16896,5.33392 1.28252,10.75756 0.50376,16.09069 -1.74112,1.67838 -3.15326,3.42915 -2.16059,-0.0253 0,0 0.12907,-0.0974 0.12907,-0.0974 l 0,0 c 1.92529,1.38595 0.59949,1.5666 -1.57755,2.81549 -2.3649,-4.36962 -1.94169,-9.79236 -2.6476,-14.54277 -0.74478,-12.33976 -0.81469,-24.72297 0.53043,-37.03115 1.08723,-9.21055 2.27037,-18.5192 5.4049,-27.29941 0.7685,-1.79982 5.39186,-10.44785 6.27124,-5.67076 -0.0515,1.72349 -0.59872,3.39711 -0.81209,5.10233 -0.42865,2.21958 -0.65848,4.53068 -1.22904,6.71676 -0.19708,0.75508 -0.5102,1.47645 -0.71119,2.2305 -0.18941,0.71056 -0.30572,1.43861 -0.45857,2.15792 -0.79689,4.46076 -1.9308,8.89695 -1.85339,13.46067 0,0 -0.64748,0.46529 -0.64748,0.46529 z"
         id="path5225"
         style="fill:#ff6600;fill-opacity:1;fill-rule:nonzero;stroke:none" />
      <path
         inkscape:connector-curvature="0"
         d="m 99.006882,462.77845 c -2.884814,8.12438 -3.220524,16.83397 -3.568688,25.36039 -0.262408,16.28516 1.549324,32.49705 3.612246,48.62229 0.775819,5.89814 1.58937,11.79738 2.1186,17.72464 0.28558,3.19837 0.37625,5.98792 -0.2592,9.1204 -0.45726,0.64716 -0.914515,1.29432 -1.371775,1.94148 0,0 -0.131349,0.0943 -0.131349,0.0943 l 0,0 c -0.414464,-10e-4 -0.828937,-0.002 -1.243397,-0.003 -1.276924,-2.28734 -1.763676,-4.61432 -2.280449,-7.18913 -1.144073,-5.70033 -2.039789,-11.45077 -2.824768,-17.21012 -2.058912,-16.22116 -3.802527,-32.53834 -3.419967,-48.91705 0.385906,-8.74882 0.83969,-17.67979 4.003503,-25.95163 0,0 5.365244,-3.5926 5.365244,-3.5926 z"
         id="path5227"
         style="fill:#ff6600;fill-opacity:1;fill-rule:nonzero;stroke:none" />
      <path
         inkscape:connector-curvature="0"
         d="m 154.21982,497.50038 c -9.62362,-2.04674 -19.48147,-1.16361 -29.14988,-0.0118 -14.5567,2.16885 -28.655523,6.49919 -42.54514,11.24898 -6.245878,1.91846 -12.086086,4.87685 -18.133016,7.28661 0.140288,-0.19472 0.280576,-0.38945 0.420863,-0.58417 0,0 1.712202,-1.9684 1.712202,-1.9684 l 0,0 c 0.485661,-0.4778 0.971323,-0.95559 1.456984,-1.43339 5.994351,-3.96532 12.976654,-6.16886 19.626844,-8.73976 13.939623,-4.75483 28.099573,-9.06359 42.711673,-11.19257 9.69239,-1.10557 19.63353,-2.02596 29.22901,0.32585 0,0 -5.32954,5.06864 -5.32954,5.06864 z"
         id="path5229"
         style="fill:#ff6600;fill-opacity:1;fill-rule:nonzero;stroke:none" />
      <path
         inkscape:connector-curvature="0"
         d="m 147.32244,521.23775 c -6.57402,-2.56659 -13.61859,-3.66289 -20.663,-3.64906 -2.15409,0.004 -4.30412,0.18734 -6.45617,0.28102 -13.41254,1.13366 -26.251328,5.18948 -38.629132,10.28147 -6.599041,2.64378 -12.502533,6.53274 -18.423972,10.37854 0.141895,-0.21626 0.283789,-0.43251 0.425683,-0.64877 0,0 -0.137993,0.0843 -0.137993,0.0843 l 0,0 c 0.824905,-0.8673 1.649812,-1.73461 2.474719,-2.60192 6.176617,-5.38367 13.239274,-9.54955 20.780655,-12.754 12.427828,-5.04778 25.33371,-9.0455 38.78577,-10.06539 9.11239,-0.31248 18.67715,-0.31239 26.96587,4.04321 0,0 -5.12244,4.65064 -5.12244,4.65064 z"
         id="path5231"
         style="fill:#ff6600;fill-opacity:1;fill-rule:nonzero;stroke:none" />
      <path
         inkscape:connector-curvature="0"
         d="m 245.30579,524.45197 c -0.16118,-5.62396 -2.12668,-10.44987 -5.39305,-14.9524 -2.96662,-3.28655 -7.07643,-5.28949 -11.49136,-3.61965 -0.94477,0.35734 -1.78638,0.94341 -2.67956,1.41512 -0.87317,0.7529 -2.68542,1.10763 -2.6195,2.25868 0.0576,1.0053 2.4338,-2.39678 2.66768,-1.41737 0.32068,1.34291 -1.52639,2.30728 -2.16255,3.53265 -2.03129,3.91267 -2.89858,7.8781 -3.58565,12.1825 -0.22594,5.03726 0.0852,11.69759 4.87047,14.79844 0.69585,0.4509 1.52957,0.64073 2.29435,0.96109 2.90219,0.42668 5.45855,-0.36846 7.91636,-1.91823 0.88579,-0.55853 3.39394,-2.4482 2.50138,-1.90058 -1.09289,0.67053 -1.83766,2.46676 -3.10479,2.27079 -1.03323,-0.15979 1.30762,-1.63174 1.96142,-2.44761 2.66204,-3.7744 4.33231,-8.07323 5.39555,-12.53836 0.80613,-3.86227 0.99427,-3.41994 6.71172,-6.48728 0.19825,-0.10636 1.03122,1.02832 1.66668,1.835 4.28353,6.84868 6.96178,14.55237 9.65254,22.1242 3.12767,9.64303 6.18811,19.58084 6.35752,29.81449 0.0315,1.90111 -0.15989,3.79939 -0.23983,5.69909 -0.89938,4.67425 -0.87997,6.22015 -2.96811,10.54539 -3.60705,7.4714 -10.29359,12.73147 -16.85605,17.49501 -1.58264,1.1488 -3.45889,1.82591 -5.18833,2.73887 -10.27287,3.92701 -20.39424,3.33447 -30.41327,-1.13387 -2.00003,-0.89198 -3.87406,-2.04317 -5.81109,-3.06475 -1.78176,-1.20835 -3.63998,-2.31099 -5.34528,-3.62503 -4.91727,-3.78909 -11.09992,-10.05835 -13.57348,-15.88353 -0.49723,-1.17098 -0.68889,-2.44931 -1.03333,-3.67396 0.60844,-4.91176 0.24195,-2.60625 1.04871,-6.92441 0,0 0.13088,-0.0949 0.13088,-0.0949 l 0,0 c 0.66955,3.11648 -0.0476,1.68097 2.36532,4.19283 1.48448,2.06324 2.93393,4.15962 4.59641,6.08857 5.01223,5.81562 11.05766,10.63028 17.53333,14.71639 1.91421,0.99575 3.76566,2.12274 5.74262,2.98724 9.93334,4.34372 19.90888,4.73339 29.96977,0.65003 1.69736,-0.94443 3.27455,-2.14807 5.09209,-2.83331 0.62005,-0.23376 -1.8173,1.92897 -1.37784,1.43301 1.22967,-1.38778 2.62434,-2.63522 3.74918,-4.10924 3.37015,-4.41632 5.24253,-9.49166 6.02593,-14.95599 0.10098,-1.87747 0.31575,-3.7523 0.30285,-5.63243 -0.0706,-10.19162 -3.14431,-20.0925 -6.13514,-29.72574 -2.57956,-7.54771 -5.11971,-15.25967 -9.28299,-22.11066 -0.26623,-0.35092 -0.50575,-0.72381 -0.79869,-1.05276 -0.15295,-0.17175 -0.68597,-0.27048 -0.53105,-0.44043 7.80172,-8.55819 5.25265,-5.79419 4.51506,-2.6597 -1.11109,4.53047 -2.65847,8.95334 -5.3054,12.84162 -3.70331,4.8998 -1.9399,2.90976 -9.55103,9.30206 -3.16809,2.66075 -6.9329,4.18135 -11.07451,3.41822 -0.82698,-0.37354 -1.72566,-0.61767 -2.48096,-1.12064 -5.02628,-3.34701 -5.39737,-10.11618 -5.11236,-15.50762 1.98853,-12.54721 5.33261,-17.632 16.07481,-25.66897 0.93971,-0.43252 1.83203,-0.98809 2.81912,-1.29755 4.67035,-1.46416 8.83592,0.8886 11.76385,4.4095 3.17059,4.63486 5.28976,9.74183 5.41737,15.43776 0,0 -5.02777,3.64844 -5.02777,3.64844 z"
         id="path5233"
         style="fill:#ff6600;fill-opacity:1;fill-rule:nonzero;stroke:none" />
      <path
         inkscape:connector-curvature="0"
         d="m 290.29317,504.54957 c -3.05958,6.56914 -3.19292,13.76842 -2.76932,20.85773 0.78764,6.4804 2.72207,12.95054 7.13365,17.92811 0.7125,0.80391 1.54212,1.49585 2.31318,2.24377 2.19488,1.69487 4.61809,3.09713 7.25136,3.99309 1.64797,0.56071 3.20501,0.57929 4.60214,1.64406 0,0 -0.11049,0.11808 -0.11049,0.11808 l 0,0 c -1.16118,0.69318 -2.25218,1.52044 -3.48354,2.07955 -4.98931,2.26544 -10.22111,0.57565 -14.263,-2.68652 -0.79233,-0.77948 -1.64372,-1.50316 -2.377,-2.33843 -4.48574,-5.10961 -6.52934,-11.69164 -7.38278,-18.32172 -0.5076,-7.2875 -0.24496,-14.68564 2.8819,-21.43584 0,0 6.20387,-4.08188 6.20387,-4.08188 z"
         id="path5235"
         style="fill:#ff6600;fill-opacity:1;fill-rule:nonzero;stroke:none" />
      <path
         inkscape:connector-curvature="0"
         d="m 285.20646,479.88642 c -0.242,-1.9042 -0.29456,-4.44584 1.33139,-5.85147 5.97423,-5.16469 3.77344,-4.54682 7.93327,-5.17374 4.3094,0.18896 7.48236,2.82916 9.56493,6.42259 0.88868,2.42042 0.52968,5.02644 -1.4975,6.81489 -6.89484,6.08287 -4.78735,4.94493 -9.70131,7.01345 -4.96502,1.36473 -9.19244,1.23449 -13.4488,-1.80404 -3.10952,-3.29293 -1.8929,-7.13638 0.0306,-10.68996 1.54649,-2.49923 3.91596,-3.93197 6.31804,-5.48703 0,0 -0.10732,0.12092 -0.10732,0.12092 l 0,0 c 1.03117,-0.52722 -0.80306,1.34835 -0.7187,1.74301 -1.3502,3.07706 -2.30548,6.47203 0.24903,9.20903 3.9094,2.80892 8.19951,2.88764 12.70311,1.42641 3.27021,-1.58939 3.64086,-2.02084 -1.62022,2.39391 -0.51442,0.43167 0.9987,-0.91011 1.40072,-1.44802 1.10808,-1.48268 1.30991,-3.01651 0.78083,-4.7551 -1.75374,-3.29099 -4.70364,-5.93419 -8.57672,-6.15507 -3.00229,0.68459 -2.10169,0.73697 2.19627,-3.0876 0.36798,-0.32744 -0.74438,0.66192 -1.01663,1.07242 -0.87496,1.31928 -0.90608,2.90995 -0.79305,4.42213 0,0 -5.02795,3.81327 -5.02795,3.81327 z"
         id="path5237"
         style="fill:#ff6600;fill-opacity:1;fill-rule:nonzero;stroke:none" />
      <path
         inkscape:connector-curvature="0"
         d="m 350.48006,456.25553 c -5.29932,7.24725 -7.70737,16.03098 -9.75565,24.63515 -2.14094,10.9614 -2.44354,22.2584 -0.66541,33.29751 0.34034,2.11291 0.84618,4.19582 1.26926,6.29374 2.11267,8.30479 5.459,16.41806 11.47405,22.68189 0.89455,0.93155 1.90027,1.74955 2.8504,2.62432 2.42319,2.01878 5.1825,3.54833 7.95409,5.02278 2.03347,1.08179 3.2225,1.34023 4.76049,3.06137 0.013,0.47707 0.026,0.95414 0.039,1.43121 0,0 -0.11489,0.11375 -0.11489,0.11375 l 0,0 c -0.94926,0.42088 -1.89852,0.84177 -2.84778,1.26266 -0.83805,0.11132 -1.66875,0.33745 -2.51415,0.33397 -4.97286,-0.0205 -9.48797,-3.23504 -13.2411,-6.08453 -2.64706,-2.47658 -3.47443,-3.04302 -5.71056,-6.02705 -4.38236,-5.8481 -7.03114,-12.70744 -8.81425,-19.74222 -0.43102,-2.11656 -0.94412,-4.21805 -1.29308,-6.34967 -1.82292,-11.13518 -1.54614,-22.52606 0.60375,-33.59108 2.10805,-8.80592 4.6392,-17.70363 9.9628,-25.17942 0,0 6.04304,-3.78438 6.04304,-3.78438 z"
         id="path5239"
         style="fill:#ff6600;fill-opacity:1;fill-rule:nonzero;stroke:none" />
      <path
         inkscape:connector-curvature="0"
         d="m 356.64426,516.92903 c -7.64386,0.37038 -15.30206,0.0549 -22.93815,-0.33905 -4.09678,-0.38962 -8.25799,-0.54874 -12.29445,-1.42606 -1.00689,-0.21885 -2.05904,-0.37155 -2.97261,-0.84812 -0.67926,-0.35434 -1.1156,-1.05034 -1.67339,-1.5755 0,0 0.11509,-0.11356 0.11509,-0.11356 l 0,0 c 1.46893,-0.37227 2.91078,-0.87532 4.40678,-1.11678 5.72928,-0.92477 11.62633,0.27993 17.37261,0.16255 7.59247,0.29835 15.18856,0.50754 22.78789,0.40612 0,0 -4.80377,4.8504 -4.80377,4.8504 z"
         id="path5241"
         style="fill:#ff6600;fill-opacity:1;fill-rule:nonzero;stroke:none" />
      <path
         inkscape:connector-curvature="0"
         d="m 393.98963,454.60169 c 0.21765,8.26979 0.93179,16.51324 1.72606,24.74397 1.43839,13.7675 3.26324,27.49098 5.09291,41.21083 1.10779,9.65065 2.99313,19.21182 3.81466,28.89456 0.14804,2.95866 1.172,6.44908 -3.9436,6.35549 -0.68996,-0.0126 0.42279,-1.31763 0.54944,-1.99597 0.12877,-0.68992 0.14284,-1.39639 0.21432,-2.09457 0,0 0.12924,-0.0971 0.12924,-0.0971 l 0,0 c 0.24936,0.45371 0.39719,0.98045 0.74805,1.36113 0.29621,0.32137 1.33146,0.28635 1.12586,0.67202 -3.69226,6.92617 -3.56355,2.99362 -4.44534,0.0242 -2.1678,-9.37005 -2.96535,-18.99884 -4.36988,-28.49791 -1.81641,-13.75308 -3.71261,-27.50186 -5.00757,-41.31641 -0.67368,-8.44043 -1.25646,-16.90386 -0.97179,-25.37712 0,0 5.33766,-3.88309 5.33766,-3.88309 z"
         id="path5243"
         style="fill:#ff6600;fill-opacity:1;fill-rule:nonzero;stroke:none" />
      <path
         inkscape:connector-curvature="0"
         d="m 429.32753,498.95775 c -6.174,6.10633 -13.11351,11.33868 -20.41235,16.00678 -2.48485,1.57657 -5.07739,2.96944 -7.62899,4.43149 -0.57488,0.32939 -1.15348,0.65327 -1.71399,1.00658 -0.42025,0.26489 -1.6033,1.17039 -1.22637,0.84682 1.54138,-1.32316 3.1496,-2.56641 4.7244,-3.8496 -0.053,0.11629 -0.205,0.22953 -0.15917,0.34886 0.27732,0.72228 3.29011,1.61944 3.675,1.77419 1.95753,0.78699 3.92689,1.54425 5.88832,2.3215 8.61123,3.23453 16.71231,7.53128 24.45667,12.46117 5.62207,3.94153 11.34925,7.92876 15.89097,13.12998 1.65634,1.94888 1.22437,2.78427 -0.0326,4.76327 0,0 -0.12519,0.1023 -0.12519,0.1023 l 0,0 c -2.127,0.84633 -3.11819,1.1538 -5.07201,-0.34736 -5.58596,-4.01774 -10.59395,-8.80565 -16.43064,-12.49083 -7.68755,-4.91619 -15.74865,-9.15901 -24.28451,-12.4273 -1.90542,-0.78719 -8.79196,-3.09808 -9.76918,-5.12485 -0.11735,-0.24338 -0.0523,-0.53784 -0.0785,-0.80677 1.98939,-1.69322 3.93874,-3.43464 5.96816,-5.07967 0.80907,-0.65582 1.80648,-1.03717 2.71783,-1.54127 2.54141,-1.40575 5.07592,-2.82618 7.52963,-4.3824 2.66533,-1.7264 3.53964,-2.2445 6.13288,-4.12203 0.99296,-0.7189 1.76798,-1.84559 2.93766,-2.21251 0.97923,-0.30718 -1.53348,1.36502 -2.32367,2.01991 -1.27962,1.06052 4.41108,-3.75316 3.69736,-3.34495 0,0 5.63827,-3.4833 5.63827,-3.4833 z"
         id="path5245"
         style="fill:#ff6600;fill-opacity:1;fill-rule:nonzero;stroke:none" />
    </g>
  </g>
</svg>
