<?xml version="1.0" encoding="UTF-8" standalone="no"?>
<!-- Created with Inkscape (http://www.inkscape.org/) -->

<svg
   xmlns:dc="http://purl.org/dc/elements/1.1/"
   xmlns:cc="http://creativecommons.org/ns#"
   xmlns:rdf="http://www.w3.org/1999/02/22-rdf-syntax-ns#"
   xmlns:svg="http://www.w3.org/2000/svg"
   xmlns="http://www.w3.org/2000/svg"
   xmlns:sodipodi="http://sodipodi.sourceforge.net/DTD/sodipodi-0.dtd"
   xmlns:inkscape="http://www.inkscape.org/namespaces/inkscape"
   width="1024"
   height="768"
   id="svg4160"
   version="1.1"
   inkscape:version="0.48.4 r9939"
   sodipodi:docname="git-befehle4.svg">
  <defs
     id="defs4162" />
  <sodipodi:namedview
     id="base"
     pagecolor="#ffffff"
     bordercolor="#666666"
     borderopacity="1.0"
     inkscape:pageopacity="0.0"
     inkscape:pageshadow="2"
     inkscape:zoom="0.86588542"
     inkscape:cx="512"
     inkscape:cy="371.18049"
     inkscape:document-units="px"
     inkscape:current-layer="layer1"
     showgrid="false"
     inkscape:window-width="1600"
     inkscape:window-height="886"
     inkscape:window-x="0"
     inkscape:window-y="14"
     inkscape:window-maximized="0" />
  <metadata
     id="metadata4165">
    <rdf:RDF>
      <cc:Work
         rdf:about="">
        <dc:format>image/svg+xml</dc:format>
        <dc:type
           rdf:resource="http://purl.org/dc/dcmitype/StillImage" />
        <dc:title></dc:title>
      </cc:Work>
    </rdf:RDF>
  </metadata>
  <g
     inkscape:label="Ebene 1"
     inkscape:groupmode="layer"
     id="layer1"
     transform="translate(0,-284.36218)">
    <g
       id="g4338"
       transform="matrix(0.87560596,0.05350148,-0.05350148,0.87560596,-5.8337817,89.75078)">
      <path
         inkscape:connector-curvature="0"
         d="m 173.48605,320.23425 c -0.78642,12.84646 0.33054,25.72346 1.34654,38.52505 1.57859,17.36163 3.68424,34.6683 5.38326,52.01797 0.42523,5.53921 1.00879,11.08125 1.14403,16.63966 0.0405,1.66451 0.0455,4.73861 -0.29831,6.50257 -0.13679,0.7018 -0.44626,1.35859 -0.6694,2.03788 -0.2393,0.31455 -0.47861,0.6291 -0.71792,0.94365 0,0 -0.12565,0.10175 -0.12565,0.10175 l 0,0 c -0.16447,0.0353 -0.32894,0.0705 -0.4934,0.10575 -0.26051,-0.25617 -0.61159,-0.44506 -0.78152,-0.76849 -0.60758,-1.15636 -1.12995,-4.0906 -1.29952,-5.10647 -0.87818,-5.26083 -1.30951,-10.59085 -2.00955,-15.87485 -1.95813,-17.25649 -4.01701,-34.50334 -5.66731,-51.79289 -1.08574,-12.8063 -2.27193,-25.69352 -1.52301,-38.55309 0,0 5.71176,-4.77849 5.71176,-4.77849 z"
         id="path4306"
         style="fill:#ff6600;fill-opacity:1;fill-rule:nonzero;stroke:none"
         transform="translate(0,284.36218)" />
      <path
         inkscape:connector-curvature="0"
         d="m 136.65357,319.18112 c 0.0663,11.19765 1.73717,22.29997 3.34011,33.35638 2.8672,18.01852 6.50301,35.90097 9.65593,53.86965 0.7312,4.47233 1.3645,8.12562 1.9649,12.56979 0.54284,4.0181 1.21981,8.04146 -0.0567,11.97148 0,0 -0.11861,0.10988 -0.11861,0.10988 l 0,0 c -0.33393,-0.0124 -0.70818,0.1225 -1.00177,-0.0371 -1.43556,-0.78023 -1.86404,-2.47217 -2.30656,-3.87792 -1.65838,-5.26817 -2.35864,-10.8029 -3.6444,-16.15824 -3.56121,-17.8309 -7.02864,-35.68624 -9.96663,-53.63182 -1.6732,-11.115 -3.45299,-22.32292 -3.26662,-33.59684 0,0 5.40036,-4.57529 5.40036,-4.57529 z"
         id="path4308"
         style="fill:#ff6600;fill-opacity:1;fill-rule:nonzero;stroke:none"
         transform="translate(0,284.36218)" />
      <path
         inkscape:connector-curvature="0"
         d="m 199.57986,350.08561 c -13.56204,0.25791 -27.00865,2.16959 -40.39443,4.21027 -18.87396,3.079 -37.5657,7.12241 -56.07225,11.92093 -6.05743,1.71031 -5.022841,1.32839 -10.349911,3.12423 -2.912032,0.98169 -1.906008,0.43736 -3.765728,1.72694 0,0 0.09584,-0.13022 0.09584,-0.13022 l 0,0 c 0.761467,-0.74717 1.436687,-1.59384 2.284401,-2.24151 4.512665,-3.44776 10.059738,-5.03888 15.318408,-6.91539 18.78691,-5.68128 37.94067,-10.10255 57.30827,-13.30451 13.48311,-2.08337 27.03643,-4.09567 40.70009,-4.39758 0,0 -5.12469,6.00684 -5.12469,6.00684 z"
         id="path4310"
         style="fill:#ff6600;fill-opacity:1;fill-rule:nonzero;stroke:none"
         transform="translate(0,284.36218)" />
      <path
         inkscape:connector-curvature="0"
         d="m 213.76446,376.32482 c -12.38773,3.45607 -25.21772,5.12631 -37.89905,7.1491 -18.2222,2.94446 -36.5045,5.56721 -54.49982,9.72027 -3.35104,1.63481 -7.31926,1.3929 -10.74321,2.79626 -1.47837,0.60592 -2.76642,1.59932 -4.14963,2.39898 0,0 0.0982,-0.12845 0.0982,-0.12845 l 0,0 c 5.75603,-3.5908 11.48296,-7.28314 18.09712,-9.14125 2.66361,-0.78119 5.30853,-1.62917 7.99082,-2.34357 15.76864,-4.19984 31.96329,-6.48072 48.03605,-9.14364 12.61103,-2.05941 25.23988,-4.08138 37.68341,-7.02115 0,0 -4.61389,5.71345 -4.61389,5.71345 z"
         id="path4312"
         style="fill:#ff6600;fill-opacity:1;fill-rule:nonzero;stroke:none"
         transform="translate(0,284.36218)" />
      <path
         inkscape:connector-curvature="0"
         d="m 346.81423,656.19798 c -2.76375,-4.6407 -6.26294,-8.68183 -10.40122,-12.12996 -3.57463,-2.57964 -7.80904,-4.26201 -12.27218,-3.32541 -0.82591,0.17332 -1.60876,0.51042 -2.41314,0.76563 0.68237,-1.75193 -5.61666,4.36303 -4.43802,3.01735 0.97285,-1.11071 1.83627,-2.57467 3.24585,-3.01421 0.97641,-0.30447 -1.21872,1.64912 -1.72253,2.53921 -1.40935,2.48988 -1.46286,3.27818 -2.25502,6.01456 -0.98918,5.58256 0.0277,11.2215 3.19294,15.97324 0.5855,0.87898 1.30776,1.65874 1.96164,2.48811 4.76375,4.5552 7.49943,5.33997 13.19551,1.93409 0.6344,-0.52661 2.44037,-2.20529 1.90319,-1.57982 -1.05006,1.22265 -2.20389,2.36596 -3.45302,3.38438 -0.64677,0.52732 1.1084,-1.24869 1.63124,-1.89908 1.43964,-1.79082 2.67246,-3.73174 3.924,-5.65423 3.05277,-4.64937 7.40645,-10.23173 12.26686,-12.63074 4.17171,-1.40541 7.46813,1.00058 10.49571,3.62215 5.77048,5.81758 8.90188,13.38675 11.52879,20.99942 2.78194,9.51335 3.91218,19.51401 2.6973,29.38585 -0.26228,2.13115 -0.73229,4.23157 -1.09843,6.34735 -3.60627,14.51877 -10.06211,22.81567 -21.2816,32.79016 -1.59221,1.41553 -3.50329,2.42537 -5.25494,3.63806 -10.08665,5.5478 -21.41976,6.70924 -32.5573,3.92573 -2.27066,-0.56749 -4.45778,-1.42827 -6.68667,-2.14241 -8.73219,-3.8296 -17.73757,-8.53984 -24.08556,-15.89123 -0.81542,-0.94431 -1.46306,-2.02138 -2.19459,-3.03207 -2.68122,-5.44196 -1.48982,-7.6571 1.30406,-12.66122 0,0 0.12575,-0.10163 0.12575,-0.10163 l 0,0 c 1.20093,2.57592 2.09149,5.31687 3.90639,7.55388 7.03991,8.2848 15.98193,14.46937 26.12923,18.4255 2.20398,0.69107 4.36683,1.5304 6.61192,2.07322 11.04407,2.67022 22.2283,1.32722 32.10474,-4.3354 1.71668,-1.23318 3.35583,-2.58217 5.15005,-3.69954 0.35176,-0.21906 -1.02849,1.29996 -0.77301,0.97368 1.32413,-1.6911 2.7667,-3.29513 3.97897,-5.06813 3.68516,-5.38971 6.17682,-11.4215 7.78942,-17.72621 0.3951,-2.10775 0.89735,-4.19819 1.18529,-6.32323 1.32647,-9.78973 0.30672,-19.75112 -2.44913,-29.20357 -2.56778,-7.49159 -5.66538,-14.93782 -11.29858,-20.69137 -2.82197,-2.49949 -5.90754,-4.79 -9.77299,-3.10275 -2.99208,1.74683 -1.28456,0.91054 2.58694,-3.33471 0.37149,-0.40735 -0.81681,0.74267 -1.19166,1.14692 -1.29275,1.39414 -2.30485,3.016 -3.34022,4.60007 -3.93229,6.11431 -8.34439,11.95787 -14.45044,16.14807 -0.73861,0.38716 -1.43844,0.85962 -2.21582,1.16148 -4.56902,1.77416 -8.73108,-0.35665 -11.89673,-3.6823 -0.66752,-0.87022 -1.40345,-1.69201 -2.00257,-2.61067 -3.21064,-4.92304 -4.37493,-10.71142 -3.48757,-16.49478 0.28312,-1.07522 0.48875,-2.1739 0.84938,-3.22567 2.37669,-6.93154 8.2691,-12.65967 14.77669,-15.78352 0.83508,-0.21672 1.65338,-0.51358 2.50524,-0.65017 4.6333,-0.74291 8.99972,1.03452 12.66717,3.74535 4.16266,3.5458 7.78098,7.63198 10.42729,12.45111 0,0 -5.14862,4.88946 -5.14862,4.88946 z"
         id="path4314"
         style="fill:#ff6600;fill-opacity:1;fill-rule:nonzero;stroke:none" />
      <path
         inkscape:connector-curvature="0"
         d="m 394.03558,631.8844 c -1.72386,7.57925 -0.21561,15.21246 1.90175,22.5298 2.45968,6.69022 6.02824,13.32883 12.07828,17.4399 0.98466,0.66908 2.08217,1.15474 3.12325,1.73211 5.29005,2.3583 10.56055,1.12866 15.91382,-0.10895 1.25879,-0.35701 1.20092,-0.24504 1.03075,0.74112 0,0 -0.0951,0.13078 -0.0951,0.13078 l 0,0 c -1.45936,1.68081 -2.96995,3.33382 -5.0356,4.28455 -5.78392,2.68769 -11.21845,3.18391 -17.23863,0.68114 -1.07034,-0.61194 -2.19786,-1.13325 -3.21102,-1.83582 -6.13561,-4.25474 -9.8226,-10.97934 -12.37223,-17.81157 -2.21109,-7.42171 -3.8923,-15.20618 -2.14333,-22.92271 0,0 6.04803,-4.86035 6.04803,-4.86035 z"
         id="path4316"
         style="fill:#ff6600;fill-opacity:1;fill-rule:nonzero;stroke:none" />
      <path
         inkscape:connector-curvature="0"
         d="m 381.20554,611.05726 c -2.34393,-1.78831 -4.66134,-3.56581 -4.61698,-6.73669 3.50296,-8.26291 8.77777,-8.51472 15.58205,-6.71775 4.0635,1.5725 8.67156,3.86604 10.5071,8.13378 0.28346,0.65905 0.3611,1.38866 0.54165,2.083 -0.18251,1.63948 -0.0265,2.63074 -1.27575,3.94218 -6.81139,7.15047 -7.82298,8.69741 -16.56805,8.27862 -4.54006,-0.91441 -10.4179,-2.73892 -12.23243,-7.60159 -0.25888,-0.69376 -0.25891,-1.45817 -0.38836,-2.18725 0.32936,-2.78729 1.81648,-4.68106 3.87241,-6.49469 5.15851,-4.55058 2.98022,-4.70067 6.32517,-3.9367 0,0 -0.0997,0.12731 -0.0997,0.12731 l 0,0 c -1.0649,0.76644 -1.97376,1.81893 -3.19469,2.29931 -0.55178,0.2171 1.46797,-1.0462 1.03244,-1.44857 -0.17873,-0.16513 -3.34943,3.73382 -2.30101,4.44787 0.13366,0.60479 0.15734,1.24491 0.40097,1.81436 1.93636,4.52599 7.35044,6.23146 11.74043,6.98336 2.66727,0.0437 3.65111,0.2745 6.21273,-0.50092 0.86923,-0.26312 2.81329,-1.95116 2.49184,-1.10177 -0.65053,1.71896 -2.37116,2.812 -3.64167,4.14009 -0.4727,0.49412 0.94325,-1.01747 1.24258,-1.63229 0.27254,-0.55979 0.29089,-1.21076 0.43633,-1.81615 -0.12181,-0.63694 -0.13411,-1.30499 -0.36541,-1.91081 -1.56798,-4.10683 -6.14715,-6.31005 -9.89418,-7.88953 -1.92675,-0.51839 -2.80202,-0.89107 -4.77719,-0.92139 -0.64181,-0.01 -1.29088,0.042 -1.91682,0.18418 -0.50959,0.11573 -1.75356,1.01113 -1.45574,0.58174 0.96498,-1.39135 6.10841,-6.70979 3.49797,-3.68342 -0.62428,2.89556 1.94673,4.65279 3.92105,6.32951 0,0 -5.07677,5.23421 -5.07677,5.23421 z"
         id="path4318"
         style="fill:#ff6600;fill-opacity:1;fill-rule:nonzero;stroke:none" />
      <path
         inkscape:connector-curvature="0"
         d="m 447.50583,571.90946 c -2.73319,8.87083 -3.10405,18.14508 -3.02951,27.35187 0.60661,13.15808 3.61155,26.11289 8.7664,38.23375 1.05284,2.4756 2.2879,4.86967 3.43185,7.3045 4.95484,8.92141 10.55119,18.41985 19.51892,23.90007 1.2197,0.74536 2.5623,1.2679 3.84344,1.90186 5.9043,2.21863 11.90846,1.27014 17.77883,-0.44177 1.22602,-0.0992 0.69812,-0.0847 1.58203,-0.0851 0,0 -0.0964,0.12984 -0.0964,0.12984 l 0,0 c -3.1099,3.11727 -1.4547,1.6506 -4.97262,4.39207 -7.09492,3.77165 -11.89301,4.36979 -19.6642,1.7307 -1.30592,-0.67075 -2.67461,-1.23126 -3.91774,-2.01224 -9.008,-5.65907 -14.65867,-15.24161 -19.66584,-24.29595 -1.15361,-2.45101 -2.39667,-4.86188 -3.46083,-7.35303 -5.198,-12.16826 -8.29874,-25.16079 -9.02045,-38.37515 -0.117,-9.42907 0.32946,-18.91521 3.34549,-27.94143 0,0 5.56059,-4.43995 5.56059,-4.43995 z"
         id="path4320"
         style="fill:#ff6600;fill-opacity:1;fill-rule:nonzero;stroke:none" />
      <path
         inkscape:connector-curvature="0"
         d="m 469.20026,634.88913 c -7.15889,-0.4096 -14.30795,-0.42284 -21.47136,-0.10118 -6.88089,0.35943 -13.7293,1.11227 -20.57948,1.82409 -2.55266,-0.0223 -4.04527,0.79194 -5.48366,-1.64673 0,0 0.10272,-0.12485 0.10272,-0.12485 l 0,0 c 3.27891,-1.93202 6.54494,-3.6834 10.37861,-4.22207 6.85303,-0.91349 13.75585,-1.40182 20.65447,-1.8223 7.12896,-0.29997 14.32851,-0.53478 21.42624,0.32141 0,0 -5.02754,5.77163 -5.02754,5.77163 z"
         id="path4322"
         style="fill:#ff6600;fill-opacity:1;fill-rule:nonzero;stroke:none" />
    </g>
    <path
       style="fill:#000080;fill-opacity:1;fill-rule:nonzero;stroke:none"
       id="path4533"
       d="m 47.959672,310.86596 c 1.581638,9.7443 3.601389,19.41118 5.319972,29.13285 2.385921,14.11388 3.87638,28.35419 5.378504,42.58243 0.767557,7.52581 1.542317,15.05198 2.72362,22.52584 0.05681,0.4695 0.83862,4.01918 0.201886,4.35184 -0.777076,0.40597 -1.616274,0.67995 -2.424406,1.01993 0,0 0.127737,-0.0991 0.127737,-0.0991 l 0,0 c -0.743973,0.94035 -1.418906,1.93969 -2.23191,2.82103 -0.763523,0.8277 -1.496703,-3.44343 -1.525618,-3.49873 -1.285085,-7.49875 -1.848154,-15.09591 -2.627029,-22.65795 -1.426556,-14.24754 -2.912082,-28.49728 -5.235564,-42.63261 -1.633344,-9.85427 -3.535724,-19.67138 -4.830643,-29.57686 0,0 5.123451,-3.96864 5.123451,-3.96864 z"
       inkscape:connector-curvature="0" />
    <path
       style="fill:#000080;fill-opacity:1;fill-rule:nonzero;stroke:none"
       id="path4535"
       d="m 81.686736,357.54011 c -7.639668,1.06153 -15.321866,1.7803 -22.975395,2.73627 -7.172024,0.95673 -14.350137,2.20113 -21.137826,4.76785 2.652558,-1.25643 -2.756534,1.22471 -2.021559,1.04005 0.240851,-0.0605 0.429798,-0.2489 0.644691,-0.37335 0,0 -0.133485,0.0913 -0.133485,0.0913 l 0,0 c 1.621942,-2.25231 3.072677,-4.24102 5.66848,-5.44975 6.985935,-3.11071 14.4613,-4.62522 22.041054,-5.48678 7.607808,-0.94224 15.229683,-1.77022 22.85016,-2.60236 0,0 -4.936122,5.27685 -4.936122,5.27685 z"
       inkscape:connector-curvature="0" />
    <path
       style="fill:#000080;fill-opacity:1;fill-rule:nonzero;stroke:none"
       id="path4537"
       d="m 73.785739,316.20569 c -0.798675,9.86047 -0.717385,19.72461 -0.228823,29.5955 0.930493,14.91168 3.445745,29.65221 6.088416,44.33677 1.593265,9.34245 3.797931,18.59681 4.82823,28.02758 0.407193,2.2907 -0.2868,3.55964 -1.567536,5.35542 0,0 -0.122551,0.10546 -0.122551,0.10546 l 0,0 c -2.32698,0.96053 -2.66866,1.27973 -3.585344,-1.29934 -2.492606,-8.99931 -3.735997,-18.29026 -5.599388,-27.42801 -2.622103,-14.71829 -5.192151,-29.48505 -6.135868,-44.42573 -0.465863,-10.0291 -0.656946,-20.10621 0.7042,-30.08295 0,0 5.618664,-4.1847 5.618664,-4.1847 z"
       inkscape:connector-curvature="0" />
    <path
       style="fill:#000080;fill-opacity:1;fill-rule:nonzero;stroke:none"
       id="path4539"
       d="m 112.26239,361.84234 c 0.54169,7.59707 2.42654,15.01706 4.30169,22.37221 2.1504,8.4454 5.03994,16.67702 7.30643,25.08831 0.76227,2.22748 0.2217,3.95926 -0.64748,6.00482 0,0 -0.12303,0.10491 -0.12303,0.10491 l 0,0 c -2.405,0.37762 -3.04365,0.31644 -4.27329,-2.00933 -3.42027,-7.9519 -5.54905,-16.37375 -7.89819,-24.68509 -1.89636,-7.46318 -3.95607,-15.02332 -4.07858,-22.77224 0,0 5.41245,-4.10359 5.41245,-4.10359 z"
       inkscape:connector-curvature="0" />
    <path
       style="fill:#000080;fill-opacity:1;fill-rule:nonzero;stroke:none"
       id="path4541"
       d="m 101.45246,346.71718 c 2.34756,-4.1602 6.7173,-8.88833 11.86179,-7.59834 0.65833,0.16508 1.2687,0.48271 1.90305,0.72406 2.62627,1.5299 5.46693,4.12963 4.96189,7.52455 -0.088,0.59177 -0.3735,1.13677 -0.56025,1.70516 -3.96389,5.63799 -9.52472,9.86489 -16.42509,8.42041 -0.86611,-0.18131 -1.6903,-0.5243 -2.53546,-0.78644 -3.354569,-1.60414 -6.400069,-4.65722 -5.349916,-8.71708 0.197108,-0.76203 0.615046,-1.44908 0.922574,-2.17363 2.536316,-3.22021 1.100635,-1.65477 4.365242,-4.64226 0,0 0.13557,-0.0881 0.13557,-0.0881 l 0,0 c -0.27435,1.06729 -0.146,0.47859 -0.35772,1.77184 -0.474697,4.43372 1.91843,6.68819 5.839,8.37463 2.54764,0.68658 4.86135,1.16389 7.49844,0.51893 0.75424,-0.18447 2.57116,-1.4877 2.18185,-0.81588 -0.9373,1.61747 -2.65786,2.62961 -3.9918,3.93931 -0.46059,0.45221 0.91444,-0.9112 1.37166,-1.36681 0.2603,-0.50936 0.61293,-0.98129 0.78089,-1.5281 0.95543,-3.11065 -1.70497,-5.61805 -4.07045,-7.07282 -1.31972,-0.53825 -1.89817,-0.93711 -3.34626,-0.91552 -0.51266,0.008 -1.7837,0.71038 -1.51342,0.27468 0.88558,-1.42759 2.39316,-2.35893 3.55756,-3.56991 0.37352,-0.38846 -0.8349,0.69038 -1.18374,1.10115 -0.31293,0.36848 -0.52421,0.81242 -0.78632,1.21863 0,0 -5.25909,3.70159 -5.25909,3.70159 z"
       inkscape:connector-curvature="0" />
    <path
       style="fill:#000080;fill-opacity:1;fill-rule:nonzero;stroke:none"
       id="path4543"
       d="m 154.32956,363.79208 c -4.3079,-2.39654 -8.96208,-2.57778 -13.71071,-1.80196 -2.60438,0.62971 -5.09488,1.63512 -7.3594,3.07567 -0.69292,0.4408 -2.57402,2.02816 -1.99469,1.44609 6.53748,-6.56831 3.81062,-3.30278 2.58768,-1.75515 -0.20648,0.47918 -0.49962,0.92972 -0.61944,1.43756 -0.90876,3.85137 3.72132,7.00389 6.16243,9.0396 5.39275,4.15268 11.56534,7.20876 16.80181,11.57717 0.98215,0.81934 1.87827,1.73663 2.8174,2.60495 3.67959,4.0191 5.58222,9.1349 3.18154,14.35888 -0.41734,0.90817 -1.03996,1.70713 -1.55994,2.56069 -5.1103,5.5725 -11.31929,11.8777 -19.35852,9.21006 -0.96134,-0.31899 -1.83039,-0.868 -2.74558,-1.302 -4.56408,-3.14846 -5.10318,-5.60728 -5.64204,-10.8597 0,0 0.12359,-0.10425 0.12359,-0.10425 l 0,0 c 3.41909,2.17666 6.84129,4.42172 10.53675,6.0941 3.05435,0.87373 5.77952,1.54033 8.9659,0.78274 0.95215,-0.22639 2.993,-1.94774 2.76168,-0.99678 -0.38979,1.60246 -2.39354,2.28865 -3.3947,3.59916 -0.59823,0.78307 1.44988,-1.33491 2.17483,-2.00237 0.5544,-0.80214 1.20506,-1.54568 1.66319,-2.40645 2.60574,-4.89579 0.96432,-9.78465 -2.57076,-13.66902 -0.91755,-0.85266 -1.79171,-1.75452 -2.75265,-2.55796 -5.24337,-4.38402 -11.44665,-7.42182 -16.85736,-11.57465 -2.82464,-2.3371 -7.30753,-5.69368 -6.52132,-10.00048 0.10853,-0.59471 0.42507,-1.13189 0.63762,-1.69784 4.37625,-5.85568 10.51012,-10.20384 17.60227,-11.8413 4.82526,-0.61701 9.48069,-0.24802 13.64926,2.51639 0,0 -4.57884,4.26685 -4.57884,4.26685 z"
       inkscape:connector-curvature="0" />
    <path
       style="fill:#000080;fill-opacity:1;fill-rule:nonzero;stroke:none"
       id="path4545"
       d="m 175.67678,317.68135 c 1.42819,8.22198 2.51825,16.50062 3.74696,24.75459 1.98271,12.69566 3.63596,25.43725 5.07874,38.20446 1.06275,9.85593 1.90137,19.73651 2.36385,29.63915 -0.19836,3.23794 0.66897,6.78102 -0.22279,9.97688 -0.39923,1.43077 -0.81778,1.76479 -1.68679,2.92404 0,0 -0.12513,0.10241 -0.12513,0.10241 l 0,0 c -0.45087,0.16351 -0.87401,0.45963 -1.35262,0.49052 -2.20126,0.14205 -2.32988,-7.57359 -2.6115,-8.87587 -0.87961,-9.83016 -1.36314,-19.69432 -2.48407,-29.50367 -1.41693,-12.75816 -3.05402,-25.49046 -5.07692,-38.16819 -1.27307,-8.31137 -2.5947,-16.62042 -3.4453,-24.98866 0,0 5.81557,-4.55566 5.81557,-4.55566 z"
       inkscape:connector-curvature="0" />
    <path
       style="fill:#000080;fill-opacity:1;fill-rule:nonzero;stroke:none"
       id="path4547"
       d="m 194.73872,369.17969 c -6.10484,0.90326 -12.22654,1.68948 -18.33673,2.55847 -3.24383,0.48518 -6.49549,0.92125 -9.73589,1.42955 -1.979,0.31044 -3.58497,0.90582 -5.50217,0.25932 -0.30997,-0.0306 -0.61994,-0.0612 -0.9299,-0.0918 0,0 0.10735,-0.12087 0.10735,-0.12087 l 0,0 c 0.74406,-0.45106 1.48813,-0.90213 2.23219,-1.35319 0.96505,-0.54895 1.89692,-1.16085 2.89515,-1.64685 5.01012,-2.43923 10.73292,-3.05143 16.13498,-4.05804 5.99258,-0.86843 11.99413,-1.82979 18.04245,-2.19167 0,0 -4.90748,5.2151 -4.90748,5.2151 z"
       inkscape:connector-curvature="0" />
    <path
       style="fill:#000080;fill-opacity:1;fill-rule:nonzero;stroke:none"
       id="path4549"
       d="m 231.64033,388.28991 c -1.53763,-4.78223 -4.80455,-8.55701 -8.60197,-11.70975 -5.06724,-3.26149 -8.21519,-3.46921 -13.57462,-0.83473 -0.68658,0.52259 -2.72764,2.11406 -2.05975,1.56778 1.25217,-1.02417 2.24329,-2.61154 3.81315,-3.00192 0.95454,-0.23737 -1.16931,1.59063 -1.63086,2.45924 -1.72591,3.24805 -2.06915,6.57074 -2.37317,10.16529 0.0961,6.53347 1.5149,13.2896 5.33329,18.72963 0.64546,0.91958 1.44288,1.72254 2.16432,2.58381 4.0013,3.55948 8.48529,4.71511 13.17085,1.498 0.88284,-0.60616 1.61144,-1.41087 2.41715,-2.11631 -1.2407,0.84687 -2.26923,2.92216 -3.72213,2.54058 -1.13425,-0.29789 1.23437,-2.00069 1.72873,-3.06411 1.97914,-4.25731 2.40873,-8.75849 2.52645,-13.3778 0.18258,-3.40145 -0.834,-6.72388 -0.97636,-10.09376 -0.13729,-3.25026 0.5436,-1.28772 -0.64224,-3.72236 0,0 0.11962,-0.10879 0.11962,-0.10879 l 0,0 c 0.58035,0.18196 1.15075,0.39934 1.74104,0.54587 0.7227,0.17938 1.51322,0.12437 2.19205,0.4304 2.96134,1.33518 3.37985,5.52692 3.78028,8.23646 0.0704,4.69331 -0.35498,9.25902 -2.22406,13.63445 -0.46815,1.09591 -0.86495,2.27362 -1.64606,3.17364 -2.44494,2.81712 -5.2976,5.25271 -7.9464,7.87907 -0.85768,0.66556 -1.64057,1.44075 -2.57304,1.99671 -4.8553,2.89477 -9.99127,1.42819 -13.89146,-2.24966 -0.74534,-0.89668 -1.56697,-1.73508 -2.23603,-2.69003 -3.93294,-5.6136 -5.31472,-12.49587 -5.46593,-19.23057 0.0878,-1.29257 0.0913,-2.59358 0.26248,-3.87776 1.10136,-8.25634 6.0638,-13.1768 13.1785,-17.6291 5.654,-2.30421 8.79824,-1.73146 13.77862,1.81276 3.79016,3.38655 7.07611,7.32748 8.60041,12.2696 0,0 -5.24291,4.18329 -5.24291,4.18329 z"
       inkscape:connector-curvature="0" />
    <path
       style="fill:#000080;fill-opacity:1;fill-rule:nonzero;stroke:none"
       id="path4551"
       d="m 249.05442,412.20622 c -3.27528,-6.02439 -5.71455,-12.43236 -7.68508,-18.98544 -1.21334,-4.89176 -2.42281,-10.201 -0.79912,-15.16004 0.25131,-0.76757 0.63826,-1.48391 0.95739,-2.22585 4.10726,-6.50021 10.63825,-11.15082 17.59826,-14.17603 4.75301,-1.94196 9.78594,-2.61266 14.88222,-2.45139 2.35053,0.30665 6.33151,0.75525 7.88436,2.88968 0.25394,0.34906 0.33838,0.79423 0.50757,1.19134 -0.51553,2.21143 -0.483,1.21212 -0.33006,2.98131 0,0 -0.12417,0.10356 -0.12417,0.10356 l 0,0 c -1.23414,-0.94211 -0.43524,-0.61332 -2.57455,-0.29793 -3.48958,-0.52286 -6.89368,-1.65494 -10.47401,-1.55212 -5.04964,0.0263 -10.03875,0.72749 -14.7144,2.74468 -2.11351,0.97265 -2.84012,1.22702 -4.818,2.45511 -0.74264,0.46113 -2.70157,2.17131 -2.1631,1.48269 0.9915,-1.26799 2.31701,-2.23955 3.55724,-3.26557 0.62555,-0.51751 -1.18214,1.11777 -1.70837,1.73601 -0.51148,0.60092 -0.93095,1.27445 -1.39642,1.91167 -0.3485,0.70835 -0.76434,1.38738 -1.04549,2.12506 -1.83844,4.82349 -0.76496,10.13333 0.39894,14.9643 1.92713,6.51114 4.28615,12.89071 7.63635,18.82148 0,0 -5.58956,4.70748 -5.58956,4.70748 z"
       inkscape:connector-curvature="0" />
    <path
       style="fill:#000080;fill-opacity:1;fill-rule:nonzero;stroke:none"
       id="path4553"
       d="m 291.2385,368.70027 c 0.39609,6.72267 2.37412,13.18692 4.61982,19.48847 2.42256,5.82298 5.0831,11.84683 9.79284,16.19231 1.51174,0.95924 2.82123,1.07351 4.35862,0.0464 0.5627,-0.37593 2.08901,-1.71688 1.53339,-1.33055 -4.25641,2.95949 -4.92912,4.64428 -2.31934,0.51814 2.92665,-5.49123 3.90087,-11.62384 4.38795,-17.74719 -0.0996,-2.14013 0.43734,-4.39169 0.12812,-6.52764 2.03561,-1.13843 3.87608,-2.73445 6.10682,-3.4153 0.4822,-0.14718 0.48417,0.88463 0.71344,1.33365 1.95374,3.82632 3.75477,7.73553 5.58525,11.62126 5.02697,10.45372 9.05876,21.31479 12.24776,32.45667 2.41654,9.3498 3.06244,19.11778 0.0157,28.41555 -0.60252,1.83873 -1.45363,3.58648 -2.18044,5.37971 -2.62423,5.23338 -6.1129,9.90838 -10.60219,13.6935 -5.67893,4.78816 -8.72284,8.16939 -15.19152,10.26439 -1.71336,0.5549 -3.52258,0.75196 -5.28387,1.12794 -1.82911,-0.0226 -3.67136,0.15232 -5.48733,-0.0677 -10.60482,-1.28481 -18.46716,-8.12978 -25.76399,-15.27122 -3.766,-4.50479 -10.65468,-12.18806 -10.67013,-18.53269 -0.003,-1.01063 0.35597,-1.98967 0.53395,-2.9845 0.19285,-0.72274 0.38569,-1.44547 0.57854,-2.16822 0,0 0.12877,-0.0978 0.12877,-0.0978 l 0,0 c 0.19321,0.41506 0.38642,0.83011 0.57963,1.24517 0.48803,0.43966 1.04772,0.81094 1.46412,1.31896 1.27898,1.56042 2.14945,3.41613 3.28572,5.08333 1.9338,2.83737 3.27793,4.63703 5.59243,7.26817 1.23523,1.40421 2.55342,2.73323 3.83013,4.09985 7.29016,6.71829 15.42564,13.47582 25.71945,14.53744 1.77395,0.18296 3.56664,-0.0228 5.34997,-0.0343 1.71474,-0.40164 3.48012,-0.62834 5.1442,-1.20493 1.69605,-0.58767 3.10655,-2.01441 4.88331,-2.26953 0.65373,-0.0939 -1.54117,2.08716 -0.99789,1.71164 4.78708,-3.30894 7.99544,-8.59629 10.85458,-13.49067 0.75595,-1.77247 1.63452,-3.49752 2.26782,-5.31742 3.19889,-9.19251 2.68711,-18.94576 0.43988,-28.28146 -3.08092,-11.13866 -7.12147,-21.95737 -12.18166,-32.35872 -1.52777,-3.23545 -3.06648,-6.46485 -4.62312,-9.68649 -0.30986,-0.64129 -0.61553,-1.28465 -0.93124,-1.92309 -0.21702,-0.43887 -0.94597,-0.90641 -0.66687,-1.30865 1.36505,-1.96728 3.39416,-3.37845 5.09125,-5.06766 -0.0747,0.001 -0.18951,-0.0618 -0.22434,0.004 -0.32578,0.61891 0.51867,5.75563 -0.0697,6.21222 -0.44522,6.14123 -1.33939,12.3159 -4.05317,17.9165 -2.87136,5.07353 -1.17504,2.63013 -8.45457,9.23332 -2.08957,1.89543 -4.41053,2.23706 -6.7702,0.66417 -4.74918,-4.53842 -7.2169,-10.81932 -9.59827,-16.8187 -2.22153,-6.4039 -4.25715,-12.9498 -4.62622,-19.7665 0,0 5.46259,-4.16229 5.46259,-4.16229 z"
       inkscape:connector-curvature="0" />
    <path
       style="fill:#ff6600;fill-opacity:1;fill-rule:nonzero;stroke:none"
       id="path4555"
       d="m 450.5851,332.56328 c -1.33099,7.90285 -0.5005,15.92106 0.53987,23.79985 1.66237,11.47407 5.20563,22.51056 9.56631,33.21272 3.13956,7.3529 6.97064,14.06197 13.21758,19.15324 1.70189,1.20326 3.5811,2.04164 5.62493,2.45042 1.1863,0.23727 2.195,0.11476 3.23873,0.74937 0.0714,0.21003 0.14273,0.42007 0.2141,0.63011 0,0 -0.10026,0.12684 -0.10026,0.12684 l 0,0 c -0.63851,0.49319 -1.27702,0.98639 -1.91553,1.47958 -4.57838,2.69925 -7.72893,2.81332 -12.3673,-0.0192 -6.57969,-5.3057 -10.02984,-11.88568 -13.34305,-19.56098 -4.29707,-10.85335 -7.76879,-22.04083 -9.36316,-33.64145 -0.98839,-8.05397 -1.76973,-16.23667 -0.30184,-24.29068 0,0 4.98962,-4.08979 4.98962,-4.08979 z"
       inkscape:connector-curvature="0"
       transform="translate(0,284.36218)" />
    <path
       style="fill:#ff6600;fill-opacity:1;fill-rule:nonzero;stroke:none"
       id="path4557"
       d="m 507.55688,389.62724 c 2.65228,-4.32903 1.79966,-7.52213 -0.81758,-11.5793 -3.05802,-3.44908 -7.39008,-5.10636 -11.98547,-4.24585 -0.96422,0.18056 -1.88125,0.55697 -2.82188,0.83545 1.35376,-0.0625 -7.15558,2.90122 -5.16514,3.51163 1.03373,0.31701 1.86552,-2.90818 2.51743,-2.04557 0.71514,0.94628 -1.24481,2.03051 -1.70152,3.12519 -1.28907,3.0898 -1.1858,4.26239 -1.5768,7.58355 0.0866,6.63733 1.92188,13.61417 7.03073,18.22801 0.87834,0.79323 1.92812,1.373 2.89219,2.0595 4.32726,2.051 8.90561,1.95581 12.93727,-0.80293 0.98897,-0.67673 3.86089,-2.66046 2.69636,-2.37781 -1.31638,0.31951 -2.13546,1.66722 -3.20319,2.50082 3.82819,-6.51533 3.13273,-13.74429 1.85088,-20.85522 -1.06292,-1.77639 0.0748,-3.71345 -0.26861,-5.52505 -0.0993,-0.52369 -0.61037,-0.87399 -0.91555,-1.31099 0,0 0.11401,-0.11465 0.11401,-0.11465 l 0,0 c 0.46191,0.28856 0.87734,0.67033 1.38573,0.86568 3.66613,1.40873 1.16761,-0.70851 3.86479,2.29465 3.09143,6.81521 3.47323,13.12304 0.17915,19.9983 -5.54772,6.10153 -11.06297,14.81486 -20.70185,12.22888 -1.14975,-0.30846 -2.19499,-0.92212 -3.29248,-1.38318 -0.98577,-0.74602 -2.06346,-1.38406 -2.95729,-2.23807 -5.19629,-4.96479 -6.77946,-12.30118 -6.83621,-19.20797 0.38389,-3.46139 0.27944,-4.62129 1.53086,-7.86419 1.81259,-4.69704 4.34107,-6.47492 8.41476,-10.48574 0.75757,-0.74587 1.62886,-1.37936 2.53484,-1.93562 0.87472,-0.53708 1.85252,-0.88461 2.77878,-1.32691 0.96629,-0.23902 1.91345,-0.57639 2.89888,-0.71707 4.81046,-0.68676 9.24872,1.18773 12.3878,4.80237 2.73133,4.12707 3.83378,7.53627 1.36575,12.13155 0,0 -5.13664,3.85054 -5.13664,3.85054 z"
       inkscape:connector-curvature="0"
       transform="translate(0,284.36218)" />
    <path
       style="fill:#ff6600;fill-opacity:1;fill-rule:nonzero;stroke:none"
       id="path4559"
       d="m 551.23024,391.50733 c -0.47175,0.76561 3.45035,-3.03721 2.55353,-2.31802 -1.26501,1.01445 -2.18156,2.52108 -3.64281,3.22399 -0.61331,0.29502 0.6274,-1.2165 0.82401,-1.86806 0.5639,-1.8688 0.36963,-2.55025 0.29631,-4.49864 -0.82957,-4.37586 -3.01729,-8.61001 -6.84313,-11.10466 -0.73472,-0.47908 -1.56163,-0.79915 -2.34244,-1.19872 -6.39431,-1.83953 -10.17672,0.19153 -14.61067,4.72518 1.00098,-0.79383 1.7373,-2.55556 3.00293,-2.38149 0.96386,0.13256 -0.94218,1.70926 -1.29332,2.61662 -1.47274,3.80574 -1.16626,7.41169 -0.22519,11.27127 1.26368,3.20839 3.42225,7.49776 7.50948,7.41542 0.68965,-0.0139 1.35436,-0.26259 2.03153,-0.39389 0.70468,-0.35361 1.44498,-0.64373 2.11404,-1.06083 0.74756,-0.46604 1.44542,-1.01148 2.11961,-1.57849 0.71041,-0.59747 2.69345,-2.55561 2.02729,-1.90918 -6.56737,6.37287 -1.46935,1.03204 -0.0366,-0.77453 2.8007,-3.13574 6.15739,-9.9002 10.31722,-9.41866 4.58208,2.41877 7.51028,7.33236 10.42612,11.43878 5.19562,7.85233 9.81921,16.22051 12.51011,25.2932 0.62416,2.10445 1.04687,4.26347 1.5703,6.39521 1.96654,11.67593 0.729,23.75621 -4.65966,34.42026 -1.05737,2.09252 -2.42658,4.01228 -3.63987,6.01843 -7.37071,9.00944 -15.00471,17.17463 -26.94184,18.97751 -5.49728,0.83026 -7.42906,0.20664 -12.89562,-0.472 -11.77777,-2.61672 -22.25091,-8.61742 -31.68781,-15.95158 -3.72693,-3.2995 -8.18153,-7.28413 -8.19309,-12.71998 -0.002,-0.81105 0.19924,-1.60982 0.29886,-2.41473 0.84645,-3.19427 3.11429,-5.49324 5.23789,-7.8877 0,0 0.12927,-0.0971 0.12927,-0.0971 l 0,0 c -0.42673,1.31489 -0.37507,2.53545 -0.54885,3.91593 0.19262,6.4123 3.85198,9.63683 8.47269,13.66655 9.38103,7.18345 19.69368,13.20206 31.38435,15.66475 2.13047,0.23703 4.2483,0.66411 6.39139,0.71108 4.25816,0.0933 8.35401,-0.54273 12.33202,-2.09523 1.96779,-0.76797 3.60727,-2.30911 5.63627,-2.89657 0.43694,-0.12651 -0.60165,1.63943 -0.2594,1.33979 1.70191,-1.49 3.01017,-3.37715 4.51526,-5.06572 1.24209,-1.98009 2.63546,-3.87297 3.72628,-5.94025 5.56638,-10.54915 7.01609,-22.54823 5.1851,-34.23417 -0.49049,-2.1287 -0.8755,-4.2845 -1.47146,-6.38612 -2.56675,-9.05151 -7.14672,-17.39625 -12.31609,-25.19502 -2.37798,-3.41739 -5.86694,-9.35187 -9.83376,-11.07456 -2.38459,0.31676 -5.11578,4.22657 2.98195,-3.88506 0.28462,-0.28511 -0.55171,0.58776 -0.81083,0.89622 -0.45586,0.54265 -1.7661,2.25856 -2.13207,2.7338 -3.09437,3.94446 -6.17982,7.09335 -9.88389,10.75756 -1.21178,1.19875 -2.81524,2.53407 -4.32376,3.35858 -0.72723,0.39748 -1.5271,0.6445 -2.29065,0.96675 -0.75088,0.0921 -1.49666,0.30429 -2.25265,0.27625 -4.43003,-0.1643 -6.70821,-4.4583 -7.97576,-8.10944 -0.90526,-4.01376 -1.28689,-7.80235 0.11259,-11.7817 0.32953,-0.93701 0.62004,-1.92914 1.22675,-2.71558 1.9582,-2.53828 4.26925,-4.78365 6.40388,-7.17547 4.82861,-4.52849 8.65315,-6.15787 15.21443,-4.1263 0.81114,0.43366 1.67013,0.78776 2.43342,1.30098 3.91873,2.63482 6.29305,6.9231 7.30041,11.43834 0.0668,0.81714 0.21317,1.63166 0.20052,2.45144 -0.0898,5.8195 -5.30714,9.60485 -9.54915,12.92255 0,0 4.17453,-5.46697 4.17453,-5.46697 z"
       inkscape:connector-curvature="0"
       transform="translate(0,284.36218)" />
  </g>
</svg>
