<?xml version="1.0" encoding="UTF-8" standalone="no"?>
<!-- Created with Inkscape (http://www.inkscape.org/) -->

<svg
   xmlns:dc="http://purl.org/dc/elements/1.1/"
   xmlns:cc="http://creativecommons.org/ns#"
   xmlns:rdf="http://www.w3.org/1999/02/22-rdf-syntax-ns#"
   xmlns:svg="http://www.w3.org/2000/svg"
   xmlns="http://www.w3.org/2000/svg"
   xmlns:sodipodi="http://sodipodi.sourceforge.net/DTD/sodipodi-0.dtd"
   xmlns:inkscape="http://www.inkscape.org/namespaces/inkscape"
   width="1024"
   height="768"
   id="svg4160"
   version="1.1"
   inkscape:version="0.48.4 r9939"
   sodipodi:docname="git-befehle.svg">
  <defs
     id="defs4162" />
  <sodipodi:namedview
     id="base"
     pagecolor="#ffffff"
     bordercolor="#666666"
     borderopacity="1.0"
     inkscape:pageopacity="0.0"
     inkscape:pageshadow="2"
     inkscape:zoom="0.86588542"
     inkscape:cx="512"
     inkscape:cy="371.18049"
     inkscape:document-units="px"
     inkscape:current-layer="layer1"
     showgrid="false"
     inkscape:window-width="1600"
     inkscape:window-height="886"
     inkscape:window-x="0"
     inkscape:window-y="14"
     inkscape:window-maximized="0" />
  <metadata
     id="metadata4165">
    <rdf:RDF>
      <cc:Work
         rdf:about="">
        <dc:format>image/svg+xml</dc:format>
        <dc:type
           rdf:resource="http://purl.org/dc/dcmitype/StillImage" />
        <dc:title></dc:title>
      </cc:Work>
    </rdf:RDF>
  </metadata>
  <g
     inkscape:label="Ebene 1"
     inkscape:groupmode="layer"
     id="layer1"
     transform="translate(0,-284.36218)">
    <path
       style="fill:#000080;fill-opacity:1;fill-rule:nonzero;stroke:none"
       id="path4582"
       d="m 203.63842,452.13185 c 0.36091,10.29785 0.67462,20.59638 1.1027,30.89203 0.85694,18.28815 1.9539,36.5636 2.82569,54.85103 0.57011,12.33747 0.89027,24.68425 0.83621,37.03475 -0.42234,2.46535 0.58984,6.27149 -0.70508,8.59045 -0.28972,0.51885 -0.73855,0.93119 -1.10783,1.39678 0,0 -1.36572,1.17265 -1.36572,1.17265 l 0,0 c -0.37699,0.17187 -0.71738,0.54014 -1.13097,0.5156 -0.81613,-0.0484 -0.77253,-6.6921 -0.81191,-7.29104 -0.34282,-12.2496 -0.58289,-24.50288 -1.13517,-36.74564 -0.84103,-18.29922 -1.99514,-36.5817 -2.79688,-54.88277 -0.38761,-10.38569 -0.85939,-20.77783 -0.8174,-31.1726 0,0 5.10636,-4.36124 5.10636,-4.36124 z"
       inkscape:connector-curvature="0" />
    <path
       style="fill:#000080;fill-opacity:1;fill-rule:nonzero;stroke:none"
       id="path4584"
       d="m 164.87409,471.56106 c 0.0342,-5.33766 1.83501,-9.65025 4.67744,-14.06737 5.14257,-6.43903 11.24436,-12.4585 18.90764,-15.77649 1.37096,-0.59359 2.80504,-1.02921 4.20756,-1.54381 8.44405,-2.44351 17.28036,-2.17254 25.71056,0.21782 1.77868,0.50434 3.50141,1.1884 5.25212,1.7826 7.95688,3.32929 15.62436,8.13529 20.11475,15.7504 0.80871,1.37148 1.36789,2.87553 2.05184,4.31329 2.50039,7.54674 2.03169,15.53689 -1.79177,22.58082 -0.73047,1.34573 -1.67417,2.56428 -2.51125,3.84643 -7.80645,9.55687 -14.66639,14.29176 -25.90727,17.90139 -1.09191,0.19948 -7.46479,2.19627 -8.43641,1.4461 -0.19273,-0.1488 -0.24998,-0.41791 -0.37497,-0.62686 1.85219,-1.95137 3.61551,-3.99111 5.55657,-5.85411 0.30739,-0.29502 0.75338,-0.39936 1.14166,-0.57475 3.01664,-1.36263 6.11341,-1.93747 9.37415,-2.37869 9.90241,-0.7475 17.76772,2.98311 26.18386,7.70252 8.86368,5.72942 17.3723,12.46855 23.7925,20.94163 1.16089,1.5321 2.14157,3.19275 3.21235,4.78912 3.30885,6.13034 4.84919,12.91588 1.81831,19.52864 -2.6925,5.8745 -7.80743,9.57454 -12.31477,14.09765 -10.23055,7.43444 -22.67776,10.38086 -35.18756,10.68409 -2.79314,0.0677 -5.58631,-0.13449 -8.37946,-0.20173 -12.03829,-1.05125 -23.98689,-3.91933 -34.84519,-9.31903 -1.50801,-0.74991 -2.95038,-1.62516 -4.42557,-2.43774 -3.15131,-2.16182 -8.06915,-5.09178 -8.02669,-9.61762 0.009,-1.01148 0.43783,-1.97509 0.65674,-2.96264 0,0 0.12087,-0.10739 0.12087,-0.10739 l 0,0 c 2.9569,2.01566 -0.11154,-0.20066 2.94505,2.46118 2.58984,2.25538 5.56367,4.02563 8.51473,5.75266 12.62932,6.28268 25.67022,9.90494 39.82115,10.67608 2.79189,0.0321 5.58542,0.19726 8.37567,0.0963 12.46871,-0.4512 24.849,-3.4872 34.88818,-11.14847 -2.78844,3.27453 0.62534,-0.63778 1.92005,-3.21645 2.2659,-4.51298 2.4363,-9.53382 0.88346,-14.29481 -0.5452,-1.67157 -1.4368,-3.20955 -2.1552,-4.81433 -1.03344,-1.59415 -1.97707,-3.25025 -3.1003,-4.78246 -6.23998,-8.51197 -14.62849,-15.24786 -23.4246,-20.93701 -8.46011,-4.73769 -15.95467,-8.26109 -25.89492,-7.31828 -2.64578,0.41211 -5.1405,0.86826 -7.63119,1.88612 -0.5468,0.22346 -1.08324,0.47483 -1.60279,0.75587 -0.36714,0.19859 -1.31314,1.00519 -1.05153,0.67994 1.39269,-1.73155 2.98481,-3.29277 4.47722,-4.93916 -0.119,-0.034 -0.46488,-0.0414 -0.357,-0.10208 0.14298,-0.0804 0.32742,0.0314 0.49138,0.0265 0.34613,-0.0103 0.69204,-0.035 1.03634,-0.0719 2.17356,-0.23306 4.30778,-0.72195 6.40693,-1.32418 3.64429,-1.21212 7.182,-2.51759 10.51664,-4.46524 1.27045,-0.74203 2.23962,-2.19176 3.69365,-2.4164 0.84187,-0.13007 -2.16984,2.58981 -1.49038,2.076 1.20774,-0.91329 2.07733,-2.20353 3.116,-3.3053 0.86073,-1.25191 1.82602,-2.43802 2.58219,-3.75573 3.91409,-6.82073 4.54774,-14.66999 2.18468,-22.10761 -0.65045,-1.41327 -1.18192,-2.88762 -1.95134,-4.2398 -4.29067,-7.5404 -11.67109,-12.45972 -19.47223,-15.79138 -1.7219,-0.59276 -3.41591,-1.27376 -5.1657,-1.77829 -8.27499,-2.38602 -16.94488,-2.66434 -25.2311,-0.20531 -3.68086,1.40007 -4.49107,1.52505 -7.84701,3.50352 -1.13474,0.66897 -2.22797,1.41038 -3.28649,2.1944 -0.9955,0.73734 -1.7546,1.82028 -2.86777,2.3639 -0.75755,0.36996 2.14678,-2.56746 1.75548,-1.82071 -0.5038,0.96145 -1.40256,1.657 -2.10383,2.48551 -2.86079,4.22481 -4.93712,8.70019 -5.01446,13.9062 0,0 -4.53897,3.85646 -4.53897,3.85646 z"
       inkscape:connector-curvature="0" />
    <path
       style="fill:#000080;fill-opacity:1;fill-rule:nonzero;stroke:none"
       id="path4586"
       d="m 292.26676,532.35387 c 6.32982,-0.80892 12.6238,-1.84184 18.88797,-3.05387 7.99032,-1.55417 15.76598,-3.95949 22.90798,-7.88603 0.79117,-0.59379 2.94236,-2.59068 2.3735,-1.78139 -0.84303,1.19934 -1.90284,2.35594 -3.22398,2.99133 -0.62629,0.30121 0.7391,-1.20281 0.90724,-1.87711 0.66914,-2.68343 -1.12349,-4.30269 -2.7987,-6.02905 -6.11256,-4.23533 -13.7116,-5.38675 -21.01701,-4.56471 -1.71539,0.19302 -3.39797,0.61078 -5.09695,0.91618 -4.13325,1.37142 -5.56316,1.57166 -9.27242,3.8731 -1.34982,0.83751 -2.47879,1.9983 -3.82099,2.84797 -0.68893,0.43613 2.00672,-2.40045 1.85004,-1.60027 -0.27218,1.39 -1.63738,2.32853 -2.24332,3.60877 -0.61198,1.29302 -0.92462,2.70753 -1.38694,4.0613 -0.16088,1.48579 -0.46981,2.96296 -0.48264,4.45738 -0.0795,9.25444 4.3974,16.93188 9.40572,24.30573 4.92734,6.17022 11.18361,12.01484 19.37772,13.0423 1.39925,0.17545 2.81987,0.0549 4.2298,0.0824 5.92778,-0.11372 10.90067,-3.71701 16.52952,-4.8876 0,0 -0.0983,0.12837 -0.0983,0.12837 l 0,0 c -6.31307,4.8865 -12.94769,9.26251 -21.08983,10.20565 -4.00133,0.0159 -5.07292,0.33378 -8.94764,-0.90562 -6.53807,-2.09132 -11.45854,-7.02598 -15.60195,-12.27426 -1.04647,-1.5526 -2.1753,-3.05275 -3.1394,-4.65779 -3.63677,-6.05448 -6.43381,-13.07383 -6.40338,-20.24057 0.007,-1.55773 0.30964,-3.10007 0.46446,-4.6501 0.45686,-1.41983 0.75581,-2.90055 1.37058,-4.25948 3.2097,-7.09489 11.23938,-13.88018 18.58578,-16.74619 1.59226,-0.62118 3.26587,-1.00934 4.8988,-1.51401 1.72223,-0.28735 3.42922,-0.68935 5.1667,-0.86206 7.49569,-0.74508 15.25357,0.51721 21.50529,4.86109 1.50675,1.53284 2.61221,2.25319 3.2733,4.34167 1.65993,5.24398 -5.92169,10.01723 -9.57837,12.65271 -7.2218,3.86582 -15.03235,6.26491 -23.08104,7.75661 -6.18524,1.15257 -12.40349,2.12032 -18.67058,2.70861 0,0 4.21904,-5.05101 4.21904,-5.05101 z"
       inkscape:connector-curvature="0" />
    <path
       style="fill:#000080;fill-opacity:1;fill-rule:nonzero;stroke:none"
       id="path4594"
       d="m 420.156,474.35455 c -2.27719,-5.52893 -5.64395,-10.48055 -9.10773,-15.31693 -4.68173,-6.48422 -10.12914,-12.27787 -16.34999,-17.28738 -4.42499,-3.15561 -9.53332,-5.72178 -15.12991,-5.18656 -0.91178,0.0872 -1.79947,0.34301 -2.6992,0.51452 -2.19387,0.89325 -2.91827,0.99699 -4.77951,2.51794 -0.73477,0.60043 -2.89691,2.36797 -2.01976,2.00601 1.2032,-0.49651 1.78406,-2.71695 3.05432,-2.43293 1.01953,0.22795 -1.01509,1.83238 -1.40435,2.80185 -0.43841,1.09188 -0.71408,2.24227 -1.07113,3.3634 -2.19493,12.00685 0.46795,24.25788 2.59764,36.08625 3.93521,19.97183 9.37934,39.59874 14.3363,59.33038 4.16634,16.2463 7.12255,32.76466 8.45465,49.48187 0.0198,6.63896 1.05708,13.62752 -0.61421,20.15889 -0.13768,0.30157 -1.53028,2.70318 -0.62691,0.48778 0,0 0.12746,-0.0995 0.12746,-0.0995 l 0,0 c -0.53672,1.02257 -1.12166,2.36243 -2.51265,2.20107 -0.89232,-1.57654 -0.6532,-3.35095 -0.71073,-5.12555 -0.14201,-4.38018 -0.43196,-8.75362 -0.84079,-13.11709 -1.75243,-16.55414 -4.56902,-32.96942 -8.71884,-49.10243 -4.98239,-19.75296 -10.38902,-39.41703 -14.30997,-59.41926 -2.18192,-11.93351 -4.9157,-24.27605 -2.75214,-36.40505 2.08316,-7.03427 3.05229,-7.41376 9.01546,-13.71286 1.91041,-2.01802 4.19679,-3.34302 6.89216,-4.00429 0.91465,-0.12852 1.8213,-0.34297 2.74396,-0.38557 5.65758,-0.26118 10.80689,2.44988 15.24985,5.67119 6.21097,5.11424 11.59766,11.05758 16.18891,17.6758 3.44244,4.96819 6.67379,10.1105 8.78189,15.80902 0,0 -3.79478,3.4894 -3.79478,3.4894 z"
       inkscape:connector-curvature="0" />
    <path
       style="fill:#000080;fill-opacity:1;fill-rule:nonzero;stroke:none"
       id="path4596"
       d="m 396.8897,536.32356 c -7.40323,0.0252 -14.80463,-0.0345 -22.20642,0.14273 -6.6233,0.12803 -13.18836,1.01523 -19.757,1.78516 -1.97292,0.0375 -3.01611,0.63817 -2.91972,-1.70007 0,0 0.10521,-0.12276 0.10521,-0.12276 l 0,0 c 2.12058,-1.28379 4.19825,-2.48102 6.69677,-2.87732 6.71013,-1.41439 13.51784,-2.21949 20.37967,-2.38591 7.41951,-0.18673 14.8402,-0.17948 22.26172,-0.1892 0,0 -4.56023,5.34737 -4.56023,5.34737 z"
       inkscape:connector-curvature="0" />
    <path
       style="fill:#000080;fill-opacity:1;fill-rule:nonzero;stroke:none"
       id="path4598"
       d="m 431.40779,533.24293 c 5.08918,-0.66376 10.0523,-1.84977 14.88133,-3.57197 2.88782,-1.20696 5.66329,-2.6926 8.1626,-4.58762 0.77849,-0.59026 2.85861,-2.64598 2.24075,-1.88921 -0.91738,1.12363 -1.86211,2.33482 -3.1498,3.00264 -0.76596,0.39724 0.97952,-1.42073 1.46928,-2.1311 2.10113,-4.33431 1.15436,-9.02307 -2.11837,-12.54737 -0.73576,-0.79232 -1.64178,-1.4075 -2.46267,-2.11126 -0.99783,-0.5086 -1.93908,-1.14822 -2.99349,-1.52579 -6.97026,-2.49598 -13.13921,0.60627 -19.03052,4.0377 -1.47039,1.12459 -5.90904,4.27319 -6.86895,5.98959 -0.48213,0.86209 2.25824,-2.70529 2.4067,-1.72877 0.20965,1.37908 -1.5129,2.35203 -2.12111,3.60737 -1.6005,3.30343 -1.57297,4.2808 -2.30921,7.8407 -0.66827,7.48376 1.45225,14.7873 5.4603,21.10548 0.81202,1.28005 1.77791,2.45573 2.66686,3.6836 4.3972,5.20187 10.13511,9.10962 17.22488,8.56849 1.30082,-0.0993 2.56885,-0.45714 3.85327,-0.68571 4.94599,-1.19146 9.11398,-4.15432 13.63002,-6.30984 4.68338,-2.23539 -0.90601,1.04059 4.33945,-2.22323 0,0 -0.0973,0.1291 -0.0973,0.1291 l 0,0 c -7.15672,5.41746 -13.47041,11.29381 -22.35873,13.86056 -3.42036,0.68319 -4.75234,1.24325 -8.25135,0.8012 -5.78538,-0.73089 -10.31601,-4.40117 -13.97186,-8.68904 -0.89898,-1.26131 -1.87405,-2.47172 -2.69695,-3.78394 -4.06721,-6.48563 -6.27113,-13.9507 -5.69493,-21.61652 0.699,-3.70002 0.64191,-4.66093 2.251,-8.11212 2.48941,-5.33928 5.36932,-7.50794 9.97541,-12.3545 1.02082,-1.0741 2.09254,-2.105 3.23268,-3.05149 1.16673,-0.96856 2.44948,-1.78819 3.67422,-2.68228 1.31638,-0.7227 2.58521,-1.53972 3.94914,-2.16809 4.84002,-2.22982 10.43924,-3.28671 15.57136,-1.36216 1.10012,0.41255 2.0854,1.08301 3.1281,1.62452 0.8601,0.73901 1.80135,1.39294 2.58031,2.21704 3.44348,3.64304 4.69111,8.48883 2.74841,13.15031 -4.39169,7.09053 -11.20732,12.39838 -18.86434,15.4907 -4.73042,1.62729 -9.58651,2.74804 -14.60303,2.98316 0,0 4.14657,-4.96015 4.14657,-4.96015 z"
       inkscape:connector-curvature="0" />
    <path
       style="fill:#000080;fill-opacity:1;fill-rule:nonzero;stroke:none"
       id="path4600"
       d="m 456.91996,429.50264 c 4.57991,8.29485 8.80306,16.7849 13.02614,25.26564 7.54637,15.01286 14.31509,30.39168 20.68941,45.9326 5.03413,12.27732 9.41357,24.80593 12.75713,37.64752 1.25473,5.17215 2.14388,10.43195 2.64486,15.73007 0.29306,3.10724 0.7788,2.05393 -5.73065,5.09723 -0.42372,0.1981 -0.005,-0.93548 -0.007,-1.40323 -0.006,-2.13532 -0.002,-2.12388 0.005,-4.43782 -0.13046,-7.55566 0.85371,-15.00739 2.5348,-22.35454 1.99374,-7.47816 4.66685,-13.61691 10.03955,-19.24344 2.47492,-2.24162 4.80337,-4.65645 7.42478,-6.72488 2.45461,-1.93681 7.13422,-1.5852 9.73135,-0.21813 0.88832,0.4676 1.65688,1.13392 2.48532,1.70088 6.55784,6.2995 8.72526,15.26537 10.56716,23.85202 1.54212,7.93462 2.06143,16.00422 2.21866,24.06976 -0.11079,1.4543 -0.16285,3.65343 -0.69464,5.07691 -1.41531,2.62369 -1.01729,1.524 -1.52893,3.15786 0,0 -0.12495,0.10262 -0.12495,0.10262 l 0,0 c 0.007,-0.19344 0.18772,-0.47987 0.0222,-0.58031 -0.36516,-0.22165 -0.9333,0.0872 -1.26927,-0.17663 -0.66205,-0.51985 -1.05245,-2.96979 -1.16541,-3.45947 -0.90721,-7.76048 -1.63625,-15.55112 -3.00516,-23.24851 -1.76135,-8.39525 -3.81149,-17.23575 -10.20291,-23.40952 -3.14929,-2.10385 -5.45617,-3.3097 -9.30142,-1.97441 -0.77105,0.26775 -2.46899,1.83261 -2.20762,1.05937 0.50526,-1.49479 2.04534,-2.4032 3.06801,-3.6048 -0.70053,0.68495 -1.45433,1.31935 -2.1016,2.05485 -4.18501,4.75546 -6.42374,10.87129 -8.17504,16.85183 -1.69461,7.26413 -2.71345,14.63595 -2.51772,22.11682 8.3e-4,0.19787 0.11835,5.70286 0.0541,5.78347 -1.71894,2.15786 -3.8313,3.97224 -5.81663,5.88786 -0.24525,0.23664 0.6969,-2.16885 -0.0114,-1.02235 -0.33313,-5.32253 -1.16185,-10.59609 -2.38727,-15.78756 -3.21068,-12.88226 -7.54906,-25.43959 -12.48657,-37.76011 -6.31569,-15.58695 -13.03224,-31.00601 -20.41891,-46.11931 -4.13675,-8.56465 -8.17125,-17.18469 -12.62968,-25.58875 0,0 4.51347,-4.27354 4.51347,-4.27354 z"
       inkscape:connector-curvature="0" />
    <path
       style="fill:#000080;fill-opacity:1;fill-rule:nonzero;stroke:none"
       id="path4602"
       d="m 561.76854,437.11211 c -1.67818,10.28241 -0.83744,20.71195 0.30279,30.99595 1.95435,15.69555 6.37228,30.86157 12.16338,45.5309 4.4702,10.64505 9.96672,19.62576 18.04154,27.85206 2.29196,2.12964 4.78587,4.01564 7.5253,5.53031 1.68773,0.93316 3.46578,1.62855 5.13701,2.59104 0.59401,1.60882 0.0195,1.23093 1.54374,1.36849 0,0 -0.10352,0.12421 -0.10352,0.12421 l 0,0 c -2.44718,0.66377 -1.03645,0.19576 -4.16089,1.60306 -0.76845,0.083 -1.53244,0.25043 -2.30536,0.24898 -4.98161,-0.009 -9.34073,-3.06584 -12.94013,-6.17088 -8.0579,-8.172 -13.71255,-17.61361 -18.08873,-28.21925 -5.77753,-14.79916 -10.1981,-30.10711 -11.98997,-45.94363 -1.01002,-10.49275 -1.7825,-21.10879 0.0695,-31.56464 0,0 4.80535,-3.9466 4.80535,-3.9466 z"
       inkscape:connector-curvature="0" />
    <path
       style="fill:#000080;fill-opacity:1;fill-rule:nonzero;stroke:none"
       id="path4604"
       d="m 614.80505,523.21937 c 5.29004,-0.73185 10.16082,-2.72528 14.75224,-5.37512 -1.68829,0.60138 6.85692,-4.18014 4.80976,-3.90629 -1.06506,0.14247 -1.6414,2.85469 -2.42705,2.12161 -0.79238,-0.73936 1.26708,-1.76417 1.7969,-2.7096 1.53827,-2.74494 1.44129,-3.13802 2.22544,-6.12721 0.66536,-4.85316 -0.4042,-10.13619 -5.34091,-12.31221 -0.91175,-0.40189 -1.91664,-0.54564 -2.87497,-0.81846 -4.92704,-0.49429 -9.69015,0.84681 -13.59869,3.94007 -1.07884,0.85382 -2.40841,1.60996 -2.97046,2.86575 -0.3624,0.80971 1.52847,-0.90094 2.2927,-1.35141 -3.64427,6.82961 -4.27295,14.60883 -2.00418,22.0097 0.43993,1.43506 1.08734,2.7981 1.63101,4.19715 3.19464,6.52578 8.43139,11.10942 15.37879,13.26458 1.3178,0.40879 2.68218,0.64866 4.02327,0.97299 3.97737,0.74776 8.01784,0.89125 12.05234,0.90811 1.09269,0.005 5.26705,-0.16403 6.5391,0.22986 0.66341,0.20542 1.14259,0.78976 1.71388,1.18464 0.7949,-0.0509 1.5898,-0.10179 2.3847,-0.15268 0,0 -0.1038,0.12396 -0.1038,0.12396 l 0,0 c -0.84426,0.11001 -1.68852,0.22001 -2.53279,0.33002 -1.40838,0.60417 -2.77156,1.32706 -4.22515,1.81251 -6.43199,2.14809 -14.2584,1.87629 -20.90107,1.23553 -1.39984,-0.31266 -2.827,-0.52145 -4.19952,-0.938 -7.15328,-2.17095 -12.52932,-7.11268 -15.77656,-13.78168 -0.54203,-1.45107 -1.19584,-2.86515 -1.62608,-4.3532 -2.22486,-7.69497 -1.53594,-15.77152 2.12153,-22.88856 7.5052,-8.58286 11.87165,-15.57806 24.14999,-14.4118 1.00281,0.31305 2.05498,0.49805 3.00842,0.93917 5.08021,2.3504 6.48981,7.74184 5.91682,12.88897 -0.70959,2.82286 -0.75409,3.70653 -2.1078,6.30119 -2.95144,5.65702 -8.17667,9.95155 -13.31191,13.56994 -4.64701,2.55428 -9.56616,4.52337 -14.87777,5.13586 0,0 4.08182,-4.90539 4.08182,-4.90539 z"
       inkscape:connector-curvature="0" />
    <path
       style="fill:#000080;fill-opacity:1;fill-rule:nonzero;stroke:none"
       id="path4606"
       d="m 336.70924,658.03068 c -0.13894,7.65714 0.65018,15.26587 1.79674,22.82353 1.67697,10.08647 4.76175,19.84668 9.37201,28.96399 2.08479,3.31308 4.64133,7.52093 9.0057,7.96628 2.30494,0.23521 3.12034,-0.45675 5.18842,-1.35709 0.88498,-0.67649 3.45628,-2.8032 2.65494,-2.02946 -0.95943,0.92636 -2.32995,3.55556 -3.1318,2.48988 -0.83894,-1.11498 1.70953,-2.21123 2.45302,-3.39201 2.48779,-3.95099 3.90339,-8.15416 5.25103,-12.58318 2.05812,-7.92056 1.95459,-16.0792 1.18811,-24.15645 -0.47695,-3.13991 -0.77554,-6.36352 -1.56933,-9.43727 1.97809,-1.46454 3.74521,-3.26858 5.93428,-4.39361 0.39698,-0.20401 -0.0148,0.89331 0.009,1.33898 0.0402,0.73936 0.10667,1.47733 0.18373,2.21377 0.40378,3.85829 1.09629,7.65573 1.7977,11.4686 1.91649,10.28721 5.00739,20.28229 8.58135,30.09894 1.11046,3.47778 2.79105,6.75006 3.88483,10.23311 0.24362,0.77576 0.5904,1.55166 0.59874,2.36474 0.009,0.86347 -0.40741,1.6799 -0.54853,2.53181 -0.072,0.43458 -0.0595,0.87899 -0.0893,1.31849 0,0 -0.12017,0.10818 -0.12017,0.10818 l 0,0 c -0.40717,-0.0565 -0.81294,-0.12453 -1.22155,-0.16957 -0.71323,-0.0786 -1.50206,0.12089 -2.14319,-0.20131 -2.39267,-1.20239 -5.17037,-8.92246 -6.27368,-11.17156 -3.6672,-9.81742 -6.68922,-19.8682 -8.70983,-30.16225 -0.73067,-3.83435 -1.44156,-7.65169 -1.84233,-11.53749 -0.0779,-0.75528 -0.12788,-1.51325 -0.17831,-2.27085 -0.0311,-0.46747 -0.37275,-1.0496 -0.0663,-1.40394 1.77697,-2.05443 4.01712,-3.65733 6.02567,-5.48598 0.39321,0.6966 0.43361,1.72013 0.56479,2.47431 0.42252,2.42929 0.82776,4.86177 1.10805,7.31274 0.82099,8.12142 1.03168,16.32523 -0.92418,24.32305 -3.38326,11.99166 -7.45517,18.87018 -18.57579,26.13705 -2.33711,0.81084 -3.09612,1.41549 -5.59814,1.00216 -4.51166,-0.74533 -7.18003,-4.93268 -9.36618,-8.48572 -4.64063,-9.23218 -7.72322,-19.09701 -9.33472,-29.31514 -1.14724,-7.63336 -1.97259,-15.31558 -1.71571,-23.04975 0,0 5.81047,-4.56699 5.81047,-4.56699 z"
       inkscape:connector-curvature="0" />
    <path
       style="fill:#000080;fill-opacity:1;fill-rule:nonzero;stroke:none"
       id="path4608"
       d="m 399.13042,678.06443 c 3.05718,4.5428 5.7271,9.32441 8.28751,14.1593 3.12965,5.77618 5.58822,11.86076 7.62142,18.09752 1.01214,3.63722 2.22435,7.26158 2.87265,10.99054 -1.99698,1.35246 -3.74052,3.18981 -5.99094,4.05739 -0.51009,0.19665 -0.53165,-0.9574 -0.74893,-1.45904 -1.81903,-4.19968 -2.65338,-8.74019 -3.49376,-13.20794 -1.17047,-7.93521 -1.38113,-16.14254 0.81571,-23.93389 0.4011,-1.42255 0.97427,-2.79086 1.4614,-4.18629 1.59735,-3.62593 3.71702,-6.96515 6.68786,-9.62615 4.04449,-3.62267 6.57442,-6.72795 11.31003,-8.43724 1.02339,-0.36939 2.11106,-0.52776 3.16659,-0.79164 8.56688,-0.59583 12.81346,3.95093 17.57043,10.36569 5.17734,8.17486 7.99053,17.47556 10.22856,26.80749 0.64378,4.41126 2.36456,9.31162 0.99781,13.78809 -0.27688,0.90685 -0.81658,1.71154 -1.22487,2.56731 0,0 -0.12687,0.10023 -0.12687,0.10023 l 0,0 c -0.4148,-0.18936 -0.92422,-0.24344 -1.24441,-0.56808 -2.0224,-2.05053 -2.85498,-8.69711 -3.90559,-11.31165 -2.58557,-9.08249 -5.2075,-18.30331 -10.35961,-26.32711 -4.52694,-6.22602 -8.54223,-10.65372 -16.82513,-9.84264 -1.01353,0.28919 -2.0607,0.47942 -3.0406,0.86759 -1.03107,0.40845 -2.55924,2.54359 -2.9641,1.51111 -0.45224,-1.15329 3.53938,-2.16027 2.46662,-2.77977 -0.68704,-0.39676 -5.05616,5.79885 -5.0737,5.82644 -0.75027,1.18038 -1.33084,2.46042 -1.99627,3.69063 -0.52014,1.38454 -1.12981,2.73868 -1.56041,4.15362 -2.33673,7.67821 -2.172,15.81341 -0.94284,23.66441 0.71253,3.66205 1.439,7.26447 2.66232,10.79729 0.25155,0.72644 0.53333,1.44273 0.83541,2.14963 0.19247,0.45038 0.9146,0.90907 0.64696,1.31925 -1.31858,2.02082 -3.30174,3.51967 -4.95261,5.2795 0.18182,-3.4514 -1.86756,-7.7277 -2.47376,-11.09065 -1.98447,-6.23207 -4.37841,-12.31542 -7.43268,-18.10995 -2.50665,-4.89342 -4.96738,-9.8176 -7.72059,-14.57849 0,0 4.44643,-3.9425 4.44643,-3.9425 z"
       inkscape:connector-curvature="0" />
    <path
       style="fill:#000080;fill-opacity:1;fill-rule:nonzero;stroke:none"
       id="path4610"
       d="m 501.59977,685.7064 c 1.69243,-0.29943 3.43017,-0.69674 4.9192,-1.60357 0.47622,-0.29002 1.73993,-1.39415 1.32069,-1.02655 -4.50677,3.95161 -4.737,4.96123 -3.46939,2.13287 0.36279,-4.46492 -2.93344,-6.5284 -6.65891,-7.93015 -6.67176,-1.30056 -11.57483,2.06007 -16.36022,6.27808 0.85968,-0.6158 2.33186,-2.8756 2.57904,-1.84741 0.311,1.29357 -1.56876,2.15603 -2.22688,3.31227 -0.68111,1.19665 -1.28133,2.44411 -1.78006,3.72752 -1.73952,4.47648 -1.87362,7.87172 -1.79149,12.58158 0.97402,6.87842 4.36657,13.41767 10.9614,16.42949 1.24471,0.56845 2.60846,0.82809 3.91269,1.24213 1.40863,0.0559 2.82302,0.30678 4.22591,0.16785 4.75708,-0.47103 9.54625,-3.07358 12.80599,-6.52323 0.46479,-0.49186 -2.02777,1.54493 -1.81916,0.90117 0.59375,-1.83236 2.07074,-3.24845 3.10611,-4.87268 6.29092,-12.77194 5.23604,-24.43138 2.98729,-38.00827 -2.40689,-12.0089 -6.18569,-23.67797 -10.19038,-35.23276 -1.33328,-3.90095 -2.83289,-7.74199 -4.23209,-11.61886 -0.73848,-2.61126 -0.2025,-1.60313 5.49935,-4.50986 0.33071,-0.16859 0.0204,0.74231 0.0447,1.11271 0.12228,1.86137 0.2146,2.36768 0.45554,4.40045 1.62354,11.3369 5.16511,22.25619 8.81384,33.07047 4.93841,14.11034 10.5962,27.95176 16.37154,41.73559 2.05071,5.0174 4.37896,9.92448 6.30936,14.99178 0.9953,2.61265 1.6488,4.0577 1.63036,6.84106 -0.006,0.93782 -0.27462,1.85547 -0.41192,2.78321 0,0 -0.12221,0.10586 -0.12221,0.10586 l 0,0 c -0.69704,-0.20443 -1.4575,-0.25809 -2.09114,-0.61331 -2.07552,-1.16353 -2.88006,-2.73168 -4.05462,-4.76267 -2.68592,-4.64441 -4.70577,-9.63633 -6.90008,-14.51821 -5.85547,-13.76121 -11.48228,-27.6273 -16.4612,-41.73298 -3.65277,-10.89992 -7.15625,-21.92345 -8.70398,-33.35506 -0.003,-0.0263 -0.66236,-5.44739 -0.58049,-5.54186 4.46205,-5.14901 4.565,-7.53605 5.8419,-4.80233 1.55214,3.83344 2.80382,7.78445 4.20996,11.67141 3.94504,11.61519 7.70374,23.32692 10.24425,35.34198 2.39456,13.61349 3.56434,25.37728 -2.4954,38.31138 -4.76171,7.85673 -2.75742,5.43143 -12.21121,14.1966 -3.63092,3.36644 -8.21934,5.85726 -13.23632,6.18678 -1.46095,0.096 -2.92149,-0.19825 -4.38223,-0.29739 -1.34287,-0.46323 -2.75257,-0.76551 -4.02861,-1.38968 -6.75308,-3.30324 -10.11547,-10.15107 -11.08737,-17.28423 -0.0314,-1.47031 -0.17528,-2.94254 -0.0943,-4.41096 0.27192,-4.92919 2.2908,-11.92158 5.64941,-15.68355 2.39959,-2.68775 5.10999,-5.08096 7.66498,-7.62146 5.14043,-4.30563 9.9424,-7.35228 16.8783,-5.70624 3.97662,1.70895 7.32159,4.04376 7.31097,8.78497 -1.67635,5.39836 -7.37641,8.74462 -12.68262,9.36942 0,0 4.32947,-4.78338 4.32947,-4.78338 z"
       inkscape:connector-curvature="0" />
    <path
       style="fill:#000080;fill-opacity:1;fill-rule:nonzero;stroke:none"
       id="path4612"
       d="m 407.84711,760.91629 c 1.9211,6.80131 2.11394,13.98797 2.75073,20.99453 1.35176,15.10821 3.73798,30.09131 6.09042,45.06762 2.11186,13.35447 4.24915,26.70588 6.00903,40.1121 0.60853,6.12216 1.75005,12.34797 0.90561,18.50279 -0.53285,2.11786 -1.36749,3.20197 -4.13394,3.85915 -0.49368,0.11727 0.32407,-0.9617 0.48609,-1.44254 0,0 0.12407,-0.10369 0.12407,-0.10369 l 0,0 c 0.36708,-0.011 1.29654,-0.34383 1.10124,-0.0328 -2.35959,3.75773 -2.72091,3.73907 -2.97573,1.84204 -0.64064,-5.92421 -0.82957,-11.89162 -1.62331,-17.80207 -1.68277,-13.43217 -3.7897,-26.80457 -5.89299,-40.17631 -2.34581,-14.9846 -4.81301,-29.97004 -6.14942,-45.08715 -0.60628,-7.08423 -0.94253,-14.22842 -2.1975,-21.23487 0,0 5.5057,-4.49879 5.5057,-4.49879 z"
       inkscape:connector-curvature="0" />
    <path
       style="fill:#000080;fill-opacity:1;fill-rule:nonzero;stroke:none"
       id="path4614"
       d="m 451.29394,776.00874 c -4.71008,4.81287 -8.93093,10.05228 -13.00559,15.40357 -5.84092,7.9237 -10.901,16.37863 -15.79487,24.90772 -2.76817,4.97934 -5.51223,9.98409 -7.87061,15.17367 -0.78023,2.32894 -1.30803,1.79738 -0.0389,1.54915 4.16795,-0.69904 8.22563,0.2855 12.17927,1.53409 7.60239,2.89191 13.76122,8.2761 19.69818,13.66692 5.98354,5.67718 11.73694,11.62055 16.92957,18.03378 1.2311,1.80153 3.10363,3.61262 2.92802,6.00444 -0.0428,0.58465 -0.33194,1.12446 -0.49791,1.68668 0,0 -0.11964,0.10876 -0.11964,0.10876 l 0,0 c -0.62248,0.14348 -1.22866,0.42508 -1.86744,0.43042 -2.43724,0.0204 -4.04986,-2.10781 -5.72625,-3.51592 -5.85084,-5.78414 -11.23091,-12.03231 -17.28302,-17.6176 -5.86462,-5.3045 -11.94246,-10.59109 -19.41926,-13.48207 -3.90127,-1.23501 -7.83588,-2.10712 -11.93515,-1.35437 -2.6298,0.0263 -1.36244,-1.52875 -0.66246,-2.97197 2.55448,-5.24233 5.28559,-10.39722 8.18166,-15.45925 4.9908,-8.59788 10.09816,-17.14965 16.0111,-25.15544 4.19744,-5.49433 8.57919,-10.8427 13.44242,-15.76829 0,0 4.85087,-3.17429 4.85087,-3.17429 z"
       inkscape:connector-curvature="0" />
    <path
       style="fill:#000080;fill-opacity:1;fill-rule:nonzero;stroke:none"
       id="path4616"
       d="m 488.40917,839.82159 c 0.58657,-0.3036 1.18536,-0.58467 1.75972,-0.9108 0.678,-0.38498 1.35435,-0.77675 1.99496,-1.22119 0.67959,-0.47148 2.57151,-2.0788 1.95953,-1.52236 -6.13251,5.57583 -2.98358,2.6774 -1.91755,0.82581 0.40186,-0.698 0.64962,-1.47403 0.97443,-2.21105 0.9358,-3.80269 0.56508,-8.61976 -3.02558,-11.03089 -0.65561,-0.44025 -1.4442,-0.63944 -2.1663,-0.95917 -4.57577,-0.68176 -8.73597,1.28498 -12.35107,3.96657 -1.15703,0.85827 -2.42519,1.6491 -3.29297,2.79902 -0.56203,0.74475 1.55995,-1.02407 2.33992,-1.5361 -4.62741,5.857 -7.6287,12.92259 -7.26262,20.50498 0.0651,1.34855 0.365,2.67546 0.5475,4.0132 1.24178,4.38779 3.53955,8.8816 8.31351,10.19929 2.81562,0.77714 3.95953,0.21138 6.76712,-0.3209 3.05025,0.28403 4.27464,-3.35621 6.84257,-3.91019 1.16793,-0.25195 -2.30213,3.30261 -2.81237,2.22225 -0.56165,-1.18921 1.67054,-2.04022 2.37333,-3.15187 1.74678,-2.76304 1.78702,-3.55652 2.73128,-6.57836 0.74537,-4.05844 -0.11434,-8.12082 -0.43185,-12.1741 0,0 0.12197,-0.10614 0.12197,-0.10614 l 0,0 c 0.91845,0.36477 1.93233,0.5473 2.75538,1.09431 2.48277,1.65006 2.89675,4.57674 2.89801,7.28127 -0.17602,1.02875 -0.23309,2.08511 -0.52805,3.08628 -1.85407,6.29324 -7.28645,10.21607 -12.10035,14.26557 -1.05297,0.88577 -2.2322,1.62651 -3.45123,2.2647 -1.17438,0.61481 -2.46195,0.98358 -3.69292,1.47539 -3.01226,0.41962 -4.15315,0.93635 -7.11657,-0.0156 -4.95654,-1.59224 -7.33836,-6.28604 -8.59032,-10.95723 -0.18432,-1.38859 -0.48266,-2.76678 -0.55297,-4.16579 -0.38704,-7.70144 2.46388,-14.9595 7.06825,-21.01441 5.61068,-5.40452 12.94278,-14.60891 21.89127,-14.71016 0.94016,-0.0106 1.86199,0.2627 2.79299,0.39406 0.76585,0.39236 1.60616,0.6648 2.29756,1.1771 3.65977,2.71171 4.21179,7.71135 3.37558,11.82651 -0.30887,0.78755 -0.53397,1.61332 -0.92659,2.36264 -2.8084,5.35961 -8.59278,9.09493 -13.92339,11.684 0,0 4.33782,-4.94661 4.33782,-4.94661 z"
       inkscape:connector-curvature="0" />
    <path
       style="fill:#000080;fill-opacity:1;fill-rule:nonzero;stroke:none"
       id="path4618"
       d="m 505.52687,827.05209 c 2.16516,7.93954 4.44433,15.84693 6.7774,23.73857 2.30263,7.74467 4.68467,15.4653 7.12144,23.16873 0.20479,0.65101 0.41102,1.30159 0.61439,1.95305 0.13729,0.43977 0.27111,0.88062 0.40759,1.32064 0.0724,0.2334 0.13437,0.47039 0.219,0.69962 0.0254,0.0687 0.16946,0.14823 0.10956,0.1903 -6.59327,4.6303 -5.66623,6.51628 -6.60752,2.78697 -1.52519,-6.58214 -1.64304,-13.34419 -1.42859,-20.06138 0.50295,-7.25683 1.82777,-14.6017 5.32329,-21.06936 0.64069,-1.18546 1.42423,-2.28796 2.13635,-3.43194 0.81036,-0.99983 1.55718,-2.05472 2.43111,-2.9995 0.8358,-0.90357 1.74488,-1.74062 2.68663,-2.53314 4.51664,-3.80096 8.65774,-8.60208 14.90615,-8.91996 1.02359,-0.0521 2.04295,0.16779 3.06443,0.25168 0.97887,0.37081 2.01725,0.61197 2.9366,1.11244 6.24653,3.40046 8.53487,10.72828 10.4575,17.03972 2.40122,9.32571 2.82246,18.96904 3.58421,28.52111 -0.0113,2.95958 0.60036,6.18087 -0.17517,9.11183 -0.0222,0.0838 -1.3394,3.16683 -1.58871,3.75131 0,0 -0.12636,0.10087 -0.12636,0.10087 l 0,0 c -0.50494,-0.12169 -1.99506,-0.44415 -2.26539,-0.72694 -1.2878,-1.34717 -1.47335,-5.98728 -1.79268,-7.5895 -0.81381,-9.44831 -1.50694,-18.97151 -3.69973,-28.22084 -1.81282,-6.01484 -3.96117,-13.30457 -10.03974,-16.43128 -0.87064,-0.44785 -1.85231,-0.63504 -2.77846,-0.95255 -2.73675,-0.11697 -3.18233,-0.38357 -5.8633,0.52479 -1.02398,0.34695 -2.89995,2.43344 -2.94766,1.35333 -0.0625,-1.41551 2.71491,-1.72801 2.8689,-3.13652 0.27651,-2.52907 -6.2182,7.68123 -5.34866,5.44482 -0.74263,1.12762 -1.5569,2.21119 -2.22788,3.38285 -3.63755,6.35177 -5.05198,13.6333 -5.56299,20.85465 -0.20557,6.63025 -0.14455,13.31796 1.39904,19.81032 1.02337,3.86728 0.63099,0.84611 -5.53585,6.62182 -0.0343,0.0321 0.13685,0.0881 0.13466,0.0412 -0.0114,-0.24431 -0.10139,-0.47883 -0.16617,-0.71468 -0.12182,-0.44348 -0.25847,-0.88279 -0.39342,-1.32244 -0.20065,-0.65371 -0.40891,-1.30505 -0.61337,-1.95757 -2.35836,-7.77271 -4.61107,-15.57712 -6.8929,-23.37251 -2.2618,-7.9481 -4.52415,-15.8968 -6.61009,-23.89335 0,0 5.48639,-4.44723 5.48639,-4.44723 z"
       inkscape:connector-curvature="0" />
    <path
       style="fill:#000080;fill-opacity:1;fill-rule:nonzero;stroke:none"
       id="path4620"
       d="m 569.79265,819.14696 c 4.43366,-3.42988 9.63378,-5.23387 15.11454,-6.06242 3.95349,-0.21512 8.38255,0.19162 11.44679,3.02269 0.48548,0.44854 0.85425,1.00883 1.28138,1.51325 2.65136,4.79514 0.69173,10.00471 -1.04699,14.76062 -2.71853,6.16354 -5.40861,12.30977 -7.38631,18.75655 -1.62822,5.5726 -2.26598,11.30958 -1.52309,17.06623 1.00037,5.05547 3.65393,6.67091 8.39087,7.85807 3.80293,1.03923 7.83026,-0.0282 11.65743,0.56874 6.32205,0.98603 -2.38425,0.66713 4.6828,0.71832 0,0 -0.1092,0.11923 -0.1092,0.11923 l 0,0 c -5.02352,1.52485 -2.38888,0.63451 -7.88233,2.73399 -4.39161,1.35819 -9.10775,1.60564 -13.65586,1.20537 -5.32505,-1.17119 -8.01148,-2.75775 -9.25298,-8.33791 -0.75957,-5.87279 -0.17112,-11.73922 1.46722,-17.43523 1.93842,-6.48789 4.61278,-12.67074 7.40555,-18.83246 1.74018,-4.49422 3.91305,-9.52478 1.63272,-14.20729 -0.38068,-0.46387 -0.70444,-0.981 -1.14203,-1.39163 -2.90181,-2.72296 -7.17968,-2.96188 -10.91764,-2.73116 -5.30885,0.8532 -10.36771,2.62712 -14.59691,6.05841 0,0 4.43404,-5.38337 4.43404,-5.38337 z"
       inkscape:connector-curvature="0" />
    <path
       style="fill:#000080;fill-opacity:1;fill-rule:nonzero;stroke:none"
       id="path4622"
       d="m 597.61762,846.10365 c -7.66861,-0.50106 -15.34797,-0.6507 -23.03105,-0.59999 -3.94551,0.0182 -7.89017,0.16372 -11.83596,0.15069 -1.27966,-0.004 -3.87164,0.11048 -5.21759,-0.49289 -0.45519,-0.20406 -0.73043,-0.67957 -1.09565,-1.01934 0,0 0.10964,-0.11884 0.10964,-0.11884 l 0,0 c 1.1952,-0.55267 2.3521,-1.19713 3.58559,-1.65801 6.17072,-2.30562 13.05067,-1.82065 19.49986,-2.18932 7.59216,-0.0266 15.21077,0.014 22.75346,0.98714 0,0 -4.7683,4.94056 -4.7683,4.94056 z"
       inkscape:connector-curvature="0" />
    <path
       style="fill:#000080;fill-opacity:1;fill-rule:nonzero;stroke:none"
       id="path4624"
       d="m 621.38074,843.75379 c 6.4515,1.1358 12.97088,1.0816 19.46383,0.43847 4.61364,-0.7651 9.38491,-1.87445 13.2621,-4.64695 0.75359,-0.53887 2.89909,-2.28284 2.08928,-1.83287 -1.39736,0.77644 -2.58348,1.88348 -3.87522,2.82522 0.27683,-0.71295 0.67978,-1.38906 0.8305,-2.13888 0.69019,-3.43357 -1.77488,-6.17463 -4.80791,-7.33159 -0.99575,-0.37984 -2.06895,-0.51244 -3.10343,-0.76867 -5.50539,-0.51362 -10.92277,0.8134 -15.73325,3.52477 -1.29467,0.72972 -2.32476,1.93165 -3.70746,2.47647 -0.9406,0.37062 1.55664,-1.29045 2.33496,-1.93567 -5.07949,5.69804 -7.15578,12.96449 -6.32273,20.53347 0.17085,1.55228 0.57188,3.07052 0.85782,4.60579 2.12882,7.35027 6.40822,13.95403 13.42852,17.45193 1.32604,0.6607 2.76383,1.06813 4.14574,1.60219 1.46424,0.29429 2.91201,0.68766 4.39271,0.88286 2.97253,0.3919 5.76429,0.31745 8.74269,0.13068 1.30901,-0.0821 2.61302,-0.23134 3.91797,-0.36304 1.12068,-0.11308 2.2326,-0.39811 3.35866,-0.37129 0.68581,0.0163 1.33112,0.33255 1.99668,0.49883 0.72817,-0.12426 1.45634,-0.24852 2.18451,-0.37278 0,0 -0.10753,0.12075 -0.10753,0.12075 l 0,0 c -1.00913,0.43647 -2.01826,0.87293 -3.02739,1.30941 -1.50738,0.75757 -2.95963,1.63657 -4.52215,2.2727 -7.11575,2.89699 -15.16342,3.28824 -22.54182,1.37674 -1.41563,-0.56877 -2.88899,-1.01085 -4.24687,-1.7063 -7.15899,-3.66653 -11.58856,-10.41194 -13.84012,-17.94559 -0.31045,-1.56499 -0.73472,-3.11164 -0.93135,-4.69496 -0.96666,-7.7835 1.04308,-15.26249 6.15546,-21.24032 2.93901,-2.60927 5.76089,-5.35674 8.817,-7.8278 5.39603,-4.36302 12.76414,-5.837 19.5024,-5.19143 1.07267,0.3002 2.18723,0.47844 3.21803,0.9006 3.19654,1.3091 5.95825,4.21396 5.63841,7.89166 -0.0673,0.77424 -0.40125,1.50165 -0.60187,2.25247 -1.00724,1.01945 -6.24614,6.83578 -9.08071,8.73194 -4.03879,2.70174 -8.88342,3.8302 -13.61116,4.55698 -6.48549,0.59868 -13.01781,0.64688 -19.41122,-0.79756 0,0 5.13492,-5.21823 5.13492,-5.21823 z"
       inkscape:connector-curvature="0" />
    <path
       style="fill:#000080;fill-opacity:1;fill-rule:nonzero;stroke:none"
       id="path4626"
       d="m 677.45555,823.45124 c 1.70706,9.23921 3.05633,18.54164 4.67837,27.79795 2.85095,15.41857 5.72329,30.84948 9.46828,46.07952 1.82173,8.28082 5.72607,17.14955 5.6408,25.73501 -0.32754,0.46224 -0.65507,0.92449 -0.98262,1.38672 0,0 -0.12869,0.0979 -0.12869,0.0979 l 0,0 c -0.30786,0.0543 -0.61572,0.10849 -0.92357,0.16275 -4.77115,-6.87621 -6.58962,-15.28539 -8.75659,-23.22441 -3.75616,-15.1862 -7.18943,-30.44098 -9.80034,-45.87292 -1.63111,-9.30255 -3.22314,-18.61668 -4.42615,-27.98609 0,0 5.23051,-4.1764 5.23051,-4.1764 z"
       inkscape:connector-curvature="0" />
    <path
       style="fill:#000080;fill-opacity:1;fill-rule:nonzero;stroke:none"
       id="path4628"
       d="m 671.65505,847.90414 c -1.22661,-3.57791 -1.60783,-7.49332 -0.34538,-11.12959 0.29779,-0.85772 0.75004,-1.65375 1.12506,-2.48061 4.56997,-6.78472 11.23957,-11.84693 19.51878,-11.97 1.36306,-0.0203 2.72098,0.17205 4.08146,0.25818 6.51293,1.20024 13.38439,3.84374 17.23153,9.60164 0.64883,0.97109 1.05036,2.08631 1.57552,3.12947 0.2181,1.11498 0.59736,2.21026 0.65427,3.34494 0.47251,9.42058 -9.39307,15.39006 -15.50192,20.44489 -5.66571,3.05596 -12.56218,5.05671 -18.95863,3.02111 -1.11839,-0.35592 -2.12312,-1.00111 -3.18468,-1.50166 -0.90672,-0.68986 -1.81345,-1.37972 -2.72017,-2.06957 0,0 0.11468,-0.11398 0.11468,-0.11398 l 0,0 c 1.52949,0.0562 3.059,0.11233 4.58849,0.16855 9.16563,-0.0616 17.1085,-0.27931 25.1135,-5.4347 -0.82108,0.90069 -3.66997,2.87302 -2.46323,2.70206 1.30591,-0.185 1.97776,-1.75712 2.83978,-2.75541 3.15629,-3.65523 4.66894,-7.95651 3.4784,-12.7113 -0.48024,-0.99685 -0.83568,-2.06411 -1.44072,-2.99052 -3.66375,-5.60979 -10.43382,-8.07269 -16.6973,-9.24107 -3.78756,-0.23311 -7.2317,-0.36877 -10.81286,1.15622 -0.96819,0.41228 -3.02068,2.56357 -2.75249,1.546 0.36717,-1.39304 1.88122,-2.26216 3.13038,-2.97978 0.83315,-0.47862 -1.21731,1.48695 -1.82597,2.23043 -0.43364,0.81405 -0.94191,1.59252 -1.30092,2.44212 -1.52208,3.60198 -1.43064,7.57943 -0.57461,11.32415 0,0 -4.87297,4.00845 -4.87297,4.00845 z"
       inkscape:connector-curvature="0" />
    <path
       style="fill:#000080;fill-opacity:1;fill-rule:nonzero;stroke:none"
       id="path4630"
       d="m 729.53978,773.54602 c -1.41666,9.95587 -0.99474,20.03672 -0.46019,30.03965 0.73088,12.78194 2.99298,25.37767 6.38788,37.70244 1.56882,6.7651 5.13376,12.75065 7.71687,19.10528 0.12211,2.86135 -0.22904,1.63805 0.74617,3.7445 0,0 -0.11881,0.10966 -0.11881,0.10966 l 0,0 c -2.50579,-0.66493 -1.11503,-0.39092 -4.19359,-0.70541 -0.63631,-0.4266 -1.34228,-0.76424 -1.90892,-1.27979 -4.3984,-4.00186 -6.19229,-10.84951 -8.1317,-16.19176 -3.45246,-12.39617 -5.61487,-25.09206 -6.33516,-37.95348 -0.50062,-10.10556 -0.94616,-20.32657 0.61505,-30.36652 0,0 5.6824,-4.20457 5.6824,-4.20457 z"
       inkscape:connector-curvature="0" />
    <path
       style="fill:#000080;fill-opacity:1;fill-rule:nonzero;stroke:none"
       id="path4632"
       d="m 743.29715,820.10261 c -7.44802,0.64925 -14.90429,1.2026 -22.35633,1.80505 -6.9954,0.31422 -14.1372,1.53914 -21.10268,0.3665 -1.8511,-1.27734 -0.86496,-0.83204 -2.93574,-1.38502 0,0 0.11068,-0.11787 0.11068,-0.11787 l 0,0 c 3.63539,-0.8823 1.65866,-0.32411 5.90198,-1.77139 7.66198,-1.4901 15.48878,-1.8861 23.2435,-2.68697 7.44691,-0.62162 14.89454,-1.24472 22.34754,-1.78732 0,0 -5.20895,5.57702 -5.20895,5.57702 z"
       inkscape:connector-curvature="0" />
    <path
       style="fill:#000080;fill-opacity:1;fill-rule:nonzero;stroke:none"
       id="path4634"
       d="m 757.96671,833.67584 c 4.15227,0.99347 8.40732,1.9744 12.69076,2.17616 2.51804,0.11858 5.173,-0.17143 7.6765,-0.37068 4.39786,-0.68047 8.9622,-1.40513 12.99363,-3.41451 0.77029,-0.38393 2.73983,-2.01538 2.2077,-1.33894 -0.91738,1.16616 -2.27164,1.90938 -3.40746,2.86407 0.35582,-0.59643 0.82956,-1.13679 1.06746,-1.78927 1.17502,-3.22268 -0.85358,-6.64609 -3.32588,-8.60047 -0.82531,-0.65241 -1.79243,-1.10197 -2.68864,-1.65295 -6.09872,-2.48972 -12.70722,-1.63031 -18.25502,1.89153 -1.203,0.76368 -2.2589,1.73752 -3.38835,2.60628 0.7461,-0.4787 2.24088,-2.32256 2.23831,-1.4361 -0.004,1.40485 -1.62064,2.30845 -2.24448,3.5672 -0.63709,1.28548 -1.14663,2.64158 -1.51926,4.02704 -1.30017,4.83427 -0.72906,8.84771 0.0865,13.66543 1.99798,7.22623 5.84392,14.15908 12.43836,18.1436 1.12808,0.68162 2.37783,1.13779 3.56675,1.70668 6.77854,2.37986 13.54506,0.78471 20.18726,-1.14408 4.33028,-1.81043 -0.0227,1.58212 3.92828,-0.61075 0,0 -0.10515,0.12282 -0.10515,0.12282 l 0,0 c -2.83779,1.57376 -4.98008,4.07727 -8.05399,5.27849 -7.379,3.18113 -13.77634,4.49773 -21.62382,1.81241 -1.22027,-0.6067 -2.50279,-1.10166 -3.6608,-1.8201 -6.70668,-4.16091 -10.68626,-11.21923 -12.80419,-18.62023 -0.26302,-1.61105 -0.65804,-3.20604 -0.78902,-4.83316 -0.44041,-5.47104 0.91966,-13.22428 4.73277,-17.45332 2.47725,-2.74746 5.34429,-5.11663 8.01643,-7.67495 1.12104,-0.79473 2.17357,-1.6962 3.3631,-2.38419 5.74506,-3.32282 12.45885,-3.78539 18.56191,-1.25972 0.93841,0.58153 1.94578,1.06425 2.81521,1.74459 2.62254,2.05215 4.93422,5.58056 4.07764,9.0713 -0.17016,0.6934 -0.59998,1.2958 -0.89997,1.9437 -2.24562,2.00806 -4.39632,4.12764 -6.73687,6.0242 -3.61964,2.93303 -11.0359,4.01532 -15.50853,4.61711 -6.79273,0.33019 -13.5187,-0.30247 -19.98755,-2.53016 0,0 4.35039,-4.32903 4.35039,-4.32903 z"
       inkscape:connector-curvature="0" />
  </g>
</svg>
