<?xml version="1.0" encoding="UTF-8" standalone="no"?>
<!-- Created with Inkscape (http://www.inkscape.org/) -->

<svg
   xmlns:dc="http://purl.org/dc/elements/1.1/"
   xmlns:cc="http://creativecommons.org/ns#"
   xmlns:rdf="http://www.w3.org/1999/02/22-rdf-syntax-ns#"
   xmlns:svg="http://www.w3.org/2000/svg"
   xmlns="http://www.w3.org/2000/svg"
   xmlns:sodipodi="http://sodipodi.sourceforge.net/DTD/sodipodi-0.dtd"
   xmlns:inkscape="http://www.inkscape.org/namespaces/inkscape"
   width="1024"
   height="768"
   id="svg4160"
   version="1.1"
   inkscape:version="0.48.4 r9939"
   sodipodi:docname="git1.svg">
  <defs
     id="defs4162" />
  <sodipodi:namedview
     id="base"
     pagecolor="#ffffff"
     bordercolor="#666666"
     borderopacity="1.0"
     inkscape:pageopacity="0.0"
     inkscape:pageshadow="2"
     inkscape:zoom="0.86588542"
     inkscape:cx="512"
     inkscape:cy="371.18049"
     inkscape:document-units="px"
     inkscape:current-layer="layer1"
     showgrid="false"
     inkscape:window-width="1600"
     inkscape:window-height="886"
     inkscape:window-x="0"
     inkscape:window-y="14"
     inkscape:window-maximized="0" />
  <metadata
     id="metadata4165">
    <rdf:RDF>
      <cc:Work
         rdf:about="">
        <dc:format>image/svg+xml</dc:format>
        <dc:type
           rdf:resource="http://purl.org/dc/dcmitype/StillImage" />
        <dc:title></dc:title>
      </cc:Work>
    </rdf:RDF>
  </metadata>
  <g
     inkscape:label="Ebene 1"
     inkscape:groupmode="layer"
     id="layer1"
     transform="translate(0,-284.36218)">
    <g
       id="g3478"
       transform="matrix(1.5265413,0.11856049,-0.11856049,1.5265413,-365.30637,-381.85292)">
      <path
         transform="translate(0,284.36218)"
         inkscape:connector-curvature="0"
         d="m 394.04891,328.10814 c -2.63323,-3.14708 -6.18074,-4.49136 -10.16973,-4.76204 -4.54926,0.0978 -8.44074,2.32228 -12.13501,4.75631 -0.62925,0.46754 -1.26965,0.92045 -1.88777,1.4026 -1.20036,0.93632 -2.3816,1.9439 -3.48079,2.99811 -0.5217,0.50035 -2.05122,2.03705 -1.52112,1.54561 3.64248,-3.37683 4.95091,-5.10773 2.46024,-2.04734 -2.83939,3.46601 -4.01413,7.58414 -4.66757,11.92896 -0.7977,7.12657 1.08533,13.94005 3.60611,20.52444 3.32097,7.81924 7.77254,13.70638 14.28062,19.0915 5.63354,4.17401 12.25194,5.55336 19.1061,5.88643 5.25203,0.033 10.35075,-0.91603 14.69776,-3.93723 0.45867,-0.46917 1.87155,-1.83755 1.37601,-1.40751 -1.50792,1.30862 -2.75437,2.93998 -4.41651,4.04614 -0.51964,0.34582 0.61762,-1.08961 0.84654,-1.67031 0.72974,-1.85119 0.66932,-3.48322 0.43481,-5.41016 -1.14672,-4.47703 -4.65308,-7.35854 -8.27685,-9.8959 -3.35119,-2.19699 -7.1025,-3.50684 -11.03964,-4.11685 -4.88859,-0.57699 -5.93584,2.99279 2.38794,-5.76183 2.51837,-0.0317 5.01736,-0.48269 7.50962,-0.81481 1.25832,-0.13368 6.3933,-1.07833 6.92907,0.77432 0.11921,0.4122 -0.0462,0.85694 -0.0693,1.28541 0,0 -0.10414,0.12368 -0.10414,0.12368 l 0,0 c -3.90446,2.52846 -7.22852,3.57738 -11.86103,3.95925 -2.57844,0.3525 -5.25418,0.9755 -7.85247,0.61098 4.90317,-6.42176 2.89133,-6.81831 8.25759,-6.06243 4.02325,0.7177 7.85033,2.11699 11.29234,4.35732 3.80377,2.65024 7.41932,5.6816 8.78768,10.29721 1.32958,7.76195 -2.89351,10.71905 -9.02013,16.0373 -4.55458,2.79636 -9.7326,3.69251 -15.04895,3.57053 -6.9956,-0.43881 -13.73192,-1.93957 -19.43593,-6.26887 -0.95792,-0.79646 -1.96215,-1.54032 -2.87376,-2.38939 -5.09513,-4.74559 -8.77551,-10.799 -11.52632,-17.14047 -2.54353,-6.70684 -4.51016,-13.64064 -3.76233,-20.89716 0.61271,-4.46577 1.70367,-8.74212 4.56199,-12.3491 4.16476,-5.26083 9.13079,-10.02484 14.60202,-13.91988 3.77924,-2.37519 7.77002,-4.43525 12.36391,-4.30445 4.1213,0.46184 7.74211,2.01179 10.50634,5.21446 0,0 -4.85735,4.74517 -4.85735,4.74517 z"
         id="path3468"
         style="fill:#ff6600;fill-opacity:1;fill-rule:nonzero;stroke:none" />
      <path
         transform="translate(0,284.36218)"
         inkscape:connector-curvature="0"
         d="m 444.27088,354.97289 c 0.96194,5.81729 2.91117,11.3646 5.29497,16.73397 2.09473,4.62316 5.05321,8.68979 8.66761,12.2224 0.94442,1.45607 3.60306,1.93888 4.01551,3.69493 -0.25957,0.96378 -1.15951,1.76315 -1.78281,2.49045 0,0 -0.0981,0.12852 -0.0981,0.12852 l 0,0 c -0.80862,0.9013 -1.56986,1.97861 -2.77773,2.35985 -2.08172,0.22508 -3.50983,-1.85379 -4.99924,-3.02322 -3.65476,-3.6322 -6.67183,-7.78192 -8.81461,-12.49236 -2.42129,-5.40287 -4.45358,-10.98845 -5.47905,-16.84152 0,0 5.97345,-5.27302 5.97345,-5.27302 z"
         id="path3470"
         style="fill:#ff6600;fill-opacity:1;fill-rule:nonzero;stroke:none" />
      <path
         transform="translate(0,284.36218)"
         inkscape:connector-curvature="0"
         d="m 434.07222,333.29074 c 0.0743,-5.3563 3.43148,-10.42835 8.77411,-12.29747 3.37051,-0.28571 5.74094,1.9667 7.57821,4.51133 1.63072,2.84882 1.38353,5.8182 0.0244,8.68899 -3.78803,5.44537 -6.77371,8.83838 -12.90868,8.13181 -2.73039,-0.52983 -5.03401,-1.92023 -6.84367,-3.99837 -1.72992,-2.38568 -1.6638,-4.96662 -0.69245,-7.62322 1.08681,-2.05571 7.03515,-9.16522 7.72662,-7.0169 0.1548,0.48097 -0.007,1.01052 -0.0101,1.51577 0,0 -0.10568,0.12237 -0.10568,0.12237 l 0,0 c -0.76977,0.46301 -1.55197,0.90597 -2.30931,1.38903 -0.52655,0.33584 -1.91683,1.56484 -1.54046,1.06647 0.97622,-1.29267 2.23663,-2.34405 3.37533,-3.49615 0.21291,-0.21541 -0.42478,0.43585 -0.59692,0.68506 -0.21136,0.306 -0.36512,0.64802 -0.54769,0.97203 -0.8523,2.29357 -1.03292,4.64397 0.41495,6.75472 1.66276,1.94736 3.83225,3.19098 6.38467,3.58605 1.38662,0.0858 2.64054,0.10633 3.9532,-0.44439 0.38778,-0.1627 1.37368,-0.9314 1.10586,-0.60719 -1.09267,1.32272 -6.74724,7.05949 -3.56257,3.71478 1.59163,-2.60246 2.10275,-5.41448 0.76517,-8.27222 -1.49623,-2.35435 -3.70593,-4.54096 -6.72753,-3.93139 -2.59817,1.38498 -2.19642,1.31081 3.01893,-3.69556 0.33919,-0.3256 -0.59884,0.73182 -0.82535,1.14384 -0.74343,1.3523 -0.93508,2.88637 -0.99171,4.40056 0,0 -5.45928,4.70005 -5.45928,4.70005 z"
         id="path3472"
         style="fill:#ff6600;fill-opacity:1;fill-rule:nonzero;stroke:none" />
      <path
         transform="translate(0,284.36218)"
         inkscape:connector-curvature="0"
         d="m 483.90852,310.69323 c -0.72337,6.34108 -0.86435,12.71147 -0.78367,19.08623 0.12409,8.91107 1.50047,17.6919 3.90701,26.25463 2.16488,7.00605 5.49204,12.45487 10.85115,17.40448 3.64436,3.05839 7.97144,4.88858 12.54449,6.01585 2.24593,0.73164 4.7497,0.19994 6.96985,0.94753 0.98382,0.815 -0.41727,2.06761 -0.90815,2.73356 0,0 -0.10398,0.12381 -0.10398,0.12381 l 0,0 c -1.12277,1.16008 -2.16679,2.34922 -3.79878,2.73763 -2.49846,0.41058 -5.03607,-0.14495 -7.49318,-0.60473 -4.66601,-1.23645 -9.07891,-3.1733 -12.7923,-6.32966 -5.4394,-5.06915 -8.87631,-10.62344 -11.10101,-17.76297 -2.45089,-8.62392 -3.89194,-17.47057 -3.99033,-26.45627 -0.0666,-6.45244 0.0461,-12.91704 0.92332,-19.32131 0,0 5.77558,-4.82878 5.77558,-4.82878 z"
         id="path3474"
         style="fill:#ff6600;fill-opacity:1;fill-rule:nonzero;stroke:none" />
      <path
         transform="translate(0,284.36218)"
         inkscape:connector-curvature="0"
         d="m 498.21893,348.24042 c -5.74001,0.0149 -11.46172,0.53488 -17.17595,1.02451 -5.38421,0.47728 -10.76,1.04232 -16.13605,1.60248 -0.14562,-0.003 -3.06335,0.42766 -3.11795,-0.41715 -0.0484,-0.7492 0.49704,-1.41711 0.72432,-2.13265 0,0 0.10526,-0.12273 0.10526,-0.12273 l 0,0 c 2.71515,-1.99095 3.86934,-3.22553 7.40918,-3.44668 5.3649,-0.52328 10.72773,-1.0691 16.09779,-1.53791 5.743,-0.4892 11.49936,-1.04581 17.26859,-1.00062 0,0 -5.17519,6.03075 -5.17519,6.03075 z"
         id="path3476"
         style="fill:#ff6600;fill-opacity:1;fill-rule:nonzero;stroke:none" />
    </g>
    <g
       id="g3653"
       transform="translate(5.2921661,-1.7449756)">
      <g
         transform="matrix(-0.19735448,0.98033219,-0.98033219,-0.19735448,1006.2037,376.67722)"
         id="g3590">
        <path
           style="fill:#000000;fill-opacity:1;fill-rule:nonzero;stroke:none"
           id="path3485"
           d="m 407.52902,268.92302 c 0.97785,-5.98753 0.41529,-12.01229 -0.43414,-17.97067 -1.37718,-8.71249 -4.71184,-16.85703 -8.36087,-24.8227 -4.5519,-9.52675 -9.89646,-18.63588 -15.49367,-27.57757 -3.35502,-5.29096 -6.98793,-10.40467 -11.00224,-15.21546 -0.54846,-1.23105 -2.48008,-1.96325 -2.81179,-3.30532 0.0365,-0.0697 0.073,-0.13948 0.10948,-0.20923 0,0 3.69721,-3.83638 3.69721,-3.83638 l 0,0 c 0.0871,-0.0351 0.17423,-0.0701 0.26135,-0.10518 1.41443,0.22563 2.28181,2.20101 3.28919,2.99373 4.01718,4.85729 7.57554,10.05853 10.96005,15.37311 5.62155,8.95085 10.96869,18.08617 15.58168,27.60426 3.70934,7.97838 7.12007,16.13887 8.57128,24.87611 0.91639,5.96934 1.52408,12.00426 0.66103,18.02599 0,0 -5.02856,4.16931 -5.02856,4.16931 z"
           inkscape:connector-curvature="0"
           transform="translate(0,284.36218)" />
        <path
           style="fill:#000000;fill-opacity:1;fill-rule:nonzero;stroke:none"
           id="path3487"
           d="m 391.03981,181.50064 c -5.25398,-4.53503 -11.24685,-8.03923 -17.36886,-11.24887 -6.59343,-3.40373 -13.63086,-5.67123 -20.93933,-6.84999 -2.96012,-0.36123 -5.98075,-0.53069 -8.92863,0.0111 -2.97387,1.75 1.76747,-6.22728 5.18243,-4.59342 2.18036,1.22007 3.29217,3.52588 4.3834,5.6597 2.94696,6.44637 4.36778,13.42101 5.466,20.38092 0.74174,5.06205 0.90848,10.17884 0.53515,15.27641 0.0715,0.0277 -0.23787,2.41465 -0.38342,2.3586 -0.24277,-0.0935 -0.45591,-0.25071 -0.68387,-0.37607 -2.27339,2.73083 -2.64655,3.44116 -1.6408,1.76129 0,0 0.12724,-0.0998 0.12724,-0.0998 l 0,0 c -0.38916,1.86631 -7.3e-4,0.35212 -2.67862,3.84941 -0.30372,-0.11816 -0.84786,-0.0732 -0.89401,-0.39579 -0.10543,-0.73708 0.74038,-1.633 0.51497,-2.38269 0.69049,-5.11175 0.53763,-10.27653 -0.12218,-15.38881 -1.03267,-6.91284 -2.34491,-13.85623 -5.27584,-20.25384 -1.01517,-1.98792 -2.04913,-4.17983 -4.13787,-5.24129 -3.33436,-1.41952 1.335,-6.15519 4.0595,-5.88319 2.90933,-0.0808 5.82552,0.0995 8.70352,0.5351 7.3124,1.32688 14.35362,3.67765 20.95315,7.13122 6.12344,3.28542 12.07031,6.9171 17.35472,11.46469 0,0 -4.22665,4.28531 -4.22665,4.28531 z"
           inkscape:connector-curvature="0"
           transform="translate(0,284.36218)" />
      </g>
    </g>
    <g
       id="g3573"
       transform="matrix(0.99995705,0.00926825,-0.00926825,0.99995705,4.036057,-4.4770873)">
      <path
         transform="translate(0,284.36218)"
         inkscape:connector-curvature="0"
         d="m 47.008838,35.566565 c 4.087523,6.289555 7.487819,12.985841 10.856004,19.677288 4.531049,8.966715 8.712543,18.100821 12.760365,27.293626 3.008509,6.89178 5.85813,13.854646 9.264429,20.562991 1.347612,2.19809 2.342873,4.70616 4.010404,6.70228 0.19332,0.10498 0.161914,0.12652 0.07442,-0.0867 -1.882371,1.71418 -3.694011,3.5094 -5.647113,5.14253 -0.17345,0.14503 0.174799,-0.41728 0.250748,-0.63024 0.351883,-0.98668 0.474733,-1.49795 0.782529,-2.57516 1.80169,-7.45663 2.93414,-15.055562 4.383401,-22.585678 1.502001,-7.298022 3.319737,-14.564673 6.106313,-21.491563 1.753839,-4.359703 2.29017,-5.120449 4.451392,-9.196994 4.455534,-8.196716 11.19695,-14.417957 17.78381,-20.851077 0.8606,-0.647702 2.82358,-2.264314 0.59801,0.624159 -0.28867,0.374651 -0.71242,0.622281 -1.06863,0.933422 0,0 -0.13049,0.09547 -0.13049,0.09547 l 0,0 c -0.0569,-0.0086 -0.14035,-0.07468 -0.1706,-0.02577 -0.24913,0.402708 -0.35641,0.882724 -0.60779,1.284028 -0.72134,1.151549 -2.04612,1.856812 -2.87521,2.906299 1.25929,-1.26639 2.51932,-2.532047 3.77788,-3.799168 0.57049,-0.574378 -1.15493,1.135139 -1.7137,1.720935 -3.57902,3.752165 -6.76852,7.86063 -9.40438,12.332998 -2.198605,4.03157 -2.758653,4.807119 -4.541618,9.129455 -2.836925,6.877386 -4.678699,14.111832 -6.175525,21.382704 -1.433977,7.497193 -2.549263,15.055361 -4.195298,22.50981 -0.737597,2.85469 -3.62305,12.19772 -7.423066,8.77198 -1.538829,-2.19457 -2.567557,-4.72918 -3.849285,-7.06914 C 71.106811,101.47275 68.243823,94.473633 65.241694,87.5342 61.22692,78.325079 57.068295,69.178269 52.602937,60.177424 49.281145,53.483107 46.021026,46.722754 41.935493,40.450293 c 0,0 5.073345,-4.883728 5.073345,-4.883728 z"
         id="path3489"
         style="fill:#000080;fill-opacity:1;fill-rule:nonzero;stroke:none" />
      <path
         transform="translate(0,284.36218)"
         inkscape:connector-curvature="0"
         d="m 115.96783,87.003642 c 4.32189,1.55287 8.73492,2.27882 13.30599,1.886654 2.23332,-0.389659 4.39422,-1.089175 6.27853,-2.383649 0.5768,-0.396251 2.10973,-1.835371 1.6192,-1.336273 -5.00093,5.088313 -4.69842,4.94868 -2.91641,1.964414 1.16198,-3.015892 1.49469,-6.914418 -1.04285,-9.397577 -0.4498,-0.440153 -1.03069,-0.722404 -1.54604,-1.083606 -5.4164,-1.853636 -10.75619,0.706405 -15.42636,3.349952 1.31691,-1.749362 -6.70945,5.48823 -5.03756,4.109506 1.12259,-0.925736 1.80445,-2.777259 3.2534,-2.910338 1.10859,-0.101818 -1.30046,1.812494 -1.84879,2.781333 -1.55359,2.745013 -1.62476,3.544074 -2.56941,6.562533 -1.24533,6.242293 -0.70726,12.817809 2.08824,18.602399 0.51612,1.06798 1.19806,2.04755 1.79708,3.07133 5.28563,6.48942 10.0321,6.98185 17.8758,5.61112 5.61826,-1.33827 10.64279,-4.22694 15.77167,-6.7657 2.10954,-1.15423 0.48179,-0.21144 1.54765,0.0206 0,0 -0.0957,0.1303 -0.0957,0.1303 l 0,0 c -1.65682,1.78642 -3.31458,3.59639 -5.36016,4.95479 -5.1906,3.46866 -10.74833,6.38626 -16.89424,7.74501 -8.3012,1.23363 -13.00091,0.48622 -18.56402,-6.25991 -0.62433,-1.05519 -1.33199,-2.06533 -1.87298,-3.16558 -2.89429,-5.88635 -3.5503,-12.59134 -2.43861,-18.996378 0.88189,-3.10754 0.92628,-3.915032 2.45483,-6.75899 3.28296,-6.10813 8.87315,-10.849381 14.51558,-14.725886 4.91206,-2.574623 10.48031,-4.989662 15.95921,-2.681924 0.56874,0.417592 1.20614,0.755 1.7062,1.252774 2.64221,2.630131 2.73171,6.613796 1.70014,9.9474 -3.1312,6.322727 -8.99532,11.118474 -15.90236,12.240079 -4.62232,0.265617 -9.09246,-0.468278 -13.37238,-2.295531 0,0 5.01437,-5.468802 5.01437,-5.468802 z"
         id="path3491"
         style="fill:#000080;fill-opacity:1;fill-rule:nonzero;stroke:none" />
      <path
         transform="translate(0,284.36218)"
         inkscape:connector-curvature="0"
         d="m 173.33091,108.89384 c -1.78707,-4.85762 -3.75353,-9.641031 -5.368,-14.561056 -1.37686,-4.607803 -1.96544,-8.370843 -0.1105,-12.892978 1.04033,-1.611762 0.9589,-1.691365 2.38152,-3.042862 6.73638,-6.399561 6.77251,-7.310615 14.20595,-9.558384 4.65888,-1.199709 9.47405,-1.634753 14.27153,-1.416962 1.60933,0.274601 4.76572,0.249838 5.59338,2.109991 0.15731,0.353556 0.14992,0.759288 0.22488,1.138932 -0.13065,0.574324 -0.26131,1.148648 -0.39197,1.722972 0,0 -0.1128,0.115832 -0.1128,0.115832 l 0,0 c -0.60706,0.209906 -1.21411,0.419812 -1.82116,0.629717 -2.84783,0.507035 -5.71882,0.203072 -8.60102,0.244415 -4.75923,0.05754 -9.53754,0.285978 -14.135,1.650922 -2.0357,0.671 -2.82025,0.842691 -4.71945,1.802629 -0.67908,0.343237 -2.3747,1.793397 -1.97375,1.146714 1.01832,-1.642413 2.66798,-2.799644 3.91428,-4.276542 0.81569,-0.966609 -3.58643,3.386272 -2.5506,2.809182 -2.09883,4.235909 -1.76801,8.146838 -0.46151,12.622936 1.52931,4.937326 3.50816,9.707205 5.37127,14.525242 0,0 -5.71705,5.2293 -5.71705,5.2293 z"
         id="path3493"
         style="fill:#000080;fill-opacity:1;fill-rule:nonzero;stroke:none" />
      <path
         transform="translate(0,284.36218)"
         inkscape:connector-curvature="0"
         d="m 239.24508,79.03081 c -0.0329,-2.802121 -0.78866,-6.089294 -3.88279,-6.946578 -0.58007,-0.160722 -1.19577,-0.139348 -1.79365,-0.209022 -2.94857,0.216092 -5.71879,1.385236 -8.05019,3.196436 -0.59019,0.458498 -2.20313,2.020349 -1.66189,1.504988 1.22833,-1.169592 2.48229,-2.31197 3.72343,-3.467955 -3.17546,4.733914 -1.55007,8.227657 1.48927,12.469395 5.52173,5.899652 12.09044,10.650337 17.83876,16.325406 3.67534,4.07485 7.36717,9.3292 5.34324,15.09807 -0.35762,1.01933 -0.99331,1.9186 -1.48996,2.8779 -6.12253,7.27527 -12.02809,13.15097 -21.81623,13.08618 -1.24607,-0.008 -2.48054,-0.2407 -3.72081,-0.36105 -4.62545,-1.08528 -11.21079,-4.17953 -12.93986,-9.06597 -0.3302,-0.93313 -0.2748,-1.9605 -0.4122,-2.94075 0.11371,-1.00776 0.22741,-2.01551 0.34112,-3.02327 0,0 0.11929,-0.10914 0.11929,-0.10914 l 0,0 c 0.59049,0.33497 1.18098,0.66994 1.77148,1.0049 0.70117,0.39986 1.43883,0.74163 2.10353,1.19958 4.78626,3.29754 -0.75433,0.10406 4.57391,3.42664 2.93267,1.82876 6.08464,3.12308 9.51162,3.66899 4.01873,0.2575 7.16862,0.2634 11.00625,-1.246 1.16965,-0.46005 2.78483,-2.79814 3.37218,-1.68696 0.64613,1.22238 -2.33119,1.92247 -2.524,3.29159 -0.16036,1.13876 1.60556,-1.64685 2.40834,-2.47027 1.34225,-2.21919 2.13377,-2.97066 2.43686,-5.60283 0.53866,-4.67795 -2.47012,-8.58907 -5.33169,-11.89606 -5.75694,-5.7299 -12.37787,-10.474561 -17.93911,-16.395037 -3.35029,-4.549787 -5.06468,-7.99298 -2.0381,-13.291076 4.8788,-5.072636 9.08647,-10.855207 16.65167,-10.99682 0.64609,0.131901 1.32084,0.164157 1.93826,0.395704 3.19089,1.196649 4.13678,4.666053 4.22561,7.731363 0,0 -5.25434,4.431646 -5.25434,4.431646 z"
         id="path3495"
         style="fill:#000080;fill-opacity:1;fill-rule:nonzero;stroke:none" />
      <path
         transform="translate(0,284.36218)"
         inkscape:connector-curvature="0"
         d="m 290.59227,70.721638 c -2.9205,5.567804 -2.90033,11.819206 -2.34818,17.914132 0.93992,6.894761 3.36516,12.80112 7.89531,18.0628 2.56927,2.81016 6.16976,4.10826 9.32924,6.05074 0.16888,0.72407 0.17166,0.42249 0.12336,0.89632 0,0 -0.0955,0.13045 -0.0955,0.13045 l 0,0 c -1.997,2.16377 -0.87712,1.2082 -3.36968,2.85487 -0.58407,0.13307 -1.15519,0.35004 -1.75221,0.3992 -3.89897,0.32102 -7.23557,-2.26288 -9.88464,-4.76679 -4.69653,-5.47506 -7.11011,-11.30317 -8.1903,-18.450284 -0.64019,-6.191994 -0.79376,-12.598977 2.05279,-18.323156 0,0 6.23983,-4.768282 6.23983,-4.768282 z"
         id="path3497"
         style="fill:#000080;fill-opacity:1;fill-rule:nonzero;stroke:none" />
      <path
         transform="translate(0,284.36218)"
         inkscape:connector-curvature="0"
         d="m 290.56217,46.376168 c 3.08499,-2.062582 5.9334,-2.241678 8.67359,0.379093 0.56775,1.02377 0.85831,1.248919 0.88167,2.456303 0.073,3.774952 -5.37843,8.160907 -8.36572,9.477762 -2.57635,0.574262 -5.12811,-0.341774 -6.47729,-2.629213 -0.4487,-2.105385 0.90535,-3.222218 2.16061,-4.787974 0,0 0.12484,-0.102745 0.12484,-0.102745 l 0,0 c 1.23117,-0.563806 1.7833,-1.040032 2.94724,-0.293681 1.89663,1.261655 3.82815,2.424623 6.14495,1.469188 2.72335,-1.762143 2.23998,-1.559163 -3.61353,4.139007 -0.28965,0.281962 0.52353,-0.623846 0.71308,-0.980877 0.58014,-1.092767 0.50984,-2.1327 -0.0615,-3.199439 -2.37547,-2.480777 -5.1337,-1.74903 -7.61595,0.231235 0,0 4.488,-6.158659 4.488,-6.158659 z"
         id="path3499"
         style="fill:#000080;fill-opacity:1;fill-rule:nonzero;stroke:none" />
      <path
         transform="translate(0,284.36218)"
         inkscape:connector-curvature="0"
         d="m 347.60466,84.15136 c -1.86959,-4.257868 -4.27779,-6.355455 -8.63297,-7.854682 -5.28889,-1.14557 -10.42202,0.455982 -15.29878,2.413076 -1.98348,0.98685 -2.8444,1.314571 -4.6446,2.605055 -0.69544,0.498524 -2.55712,2.262102 -1.99037,1.621048 8.49977,-9.614201 2.89603,-2.577299 2.34301,-1.611657 -0.44163,0.771157 -0.73513,1.618172 -1.10269,2.427258 -1.61953,5.668415 -0.6418,11.64014 1.82437,16.935272 0.57542,1.23549 1.31218,2.38921 1.96827,3.58382 4.22617,6.29024 10.56147,10.14878 18.12444,10.96748 1.62974,0.17642 3.27729,0.0898 4.91593,0.13472 6.84112,-0.49798 13.36253,-2.7132 18.66529,-7.17013 1.28367,-1.07892 2.79282,-2.06308 3.56039,-3.55396 0.44304,-0.86053 -1.66346,0.98998 -2.49519,1.48497 3.53176,-6.255456 5.91641,-13.962911 3.03938,-20.988497 -0.43894,-1.071896 -1.15049,-2.010701 -1.72573,-3.016051 -2.04618,-2.687527 -4.71808,-4.215827 -7.82154,-5.383024 -0.93806,-0.352799 -1.94596,-0.516779 -2.85957,-0.928754 -4.57202,-2.061646 0.39769,-0.908457 -4.68438,-1.750713 0,0 0.10442,-0.123446 0.10442,-0.123446 l 0,0 c 1.16692,-0.236005 2.34385,-0.427046 3.50077,-0.708016 1.48138,-0.359766 2.90198,-0.986537 4.40949,-1.213067 3.5022,-0.526268 7.58239,0.268063 10.51529,2.295321 0.95834,0.662417 1.70719,1.585665 2.56079,2.378498 0.61559,1.056706 1.36956,2.044135 1.84678,3.17012 3.03286,7.155848 0.85067,15.065327 -2.63302,21.574899 -2.06396,2.3513 -8.24438,9.98014 -12.02501,12.99622 -5.47649,4.36899 -12.13083,6.46588 -19.05624,6.8628 -1.67285,-0.0704 -3.35663,-0.008 -5.01857,-0.21132 -7.75988,-0.94956 -14.26117,-4.97682 -18.63653,-11.41582 -0.68129,-1.21864 -1.44239,-2.39596 -2.04387,-3.6559 -2.57823,-5.4007 -3.66966,-11.490877 -2.27515,-17.355178 0.33483,-0.847881 0.59218,-1.73062 1.0045,-2.543644 3.13847,-6.188539 9.39452,-10.743838 15.55686,-13.629552 4.98349,-1.865212 10.23027,-3.286995 15.51575,-1.77835 4.45955,1.961885 6.80272,4.319618 8.3972,8.97622 0,0 -4.90872,4.464984 -4.90872,4.464984 z"
         id="path3501"
         style="fill:#000080;fill-opacity:1;fill-rule:nonzero;stroke:none" />
      <path
         transform="translate(0,284.36218)"
         inkscape:connector-curvature="0"
         d="m 383.92371,71.710396 c 2.4093,5.735801 4.81819,11.471822 7.2447,17.20058 2.24337,5.151409 4.41814,10.332576 6.64984,15.488924 1.63579,3.64427 1.98566,2.23723 -5.24375,6.35185 -0.33161,0.18873 -0.11421,-0.75452 -0.17032,-1.13193 -0.0721,-0.48466 -0.14279,-0.96952 -0.21419,-1.45428 -0.6433,-4.36149 -1.09046,-8.746037 -1.31661,-13.148181 -0.30998,-4.733086 0.32605,-9.234331 2.58919,-13.411724 5.40962,-7.778208 11.30677,-11.371014 19.82172,-14.006412 5.33986,-1.235669 11.28738,-1.793304 16.27228,1.021355 0.90052,0.508467 1.67716,1.210398 2.51573,1.815597 5.52146,5.610383 6.28631,13.50678 7.08809,20.95752 0.5929,7.3987 1.04209,14.805995 1.99789,22.169265 0.15182,2.38958 1.24724,5.152 0.56326,7.5667 -0.2097,0.74029 -1.05809,2.2053 -1.46069,2.93541 0,0 -0.11605,0.11257 -0.11605,0.11257 l 0,0 c -0.62415,0.26561 -1.89574,0.91631 -2.62572,0.76589 -1.63528,-0.33697 -2.14473,-5.05412 -2.3249,-6.15391 -0.93309,-7.38508 -1.38097,-14.81112 -1.95453,-22.23037 -0.74778,-7.212463 -1.37171,-14.958161 -6.677,-20.429684 -0.79504,-0.564527 -1.53039,-1.224321 -2.38513,-1.693581 -4.87531,-2.676599 -10.6859,-1.947365 -15.83566,-0.673307 -3.06921,1.014462 -6.02436,2.057923 -8.78198,3.787387 -0.74488,0.467158 -2.63376,2.266934 -2.1438,1.53685 1.02192,-1.522754 2.48266,-2.701845 3.78923,-3.988694 0.51801,-0.510186 -0.94682,1.103634 -1.42023,1.655451 -2.5261,4.118113 -3.13401,8.268908 -2.89033,13.070215 0.19983,4.371634 0.64051,8.724939 1.30428,13.051513 0.0743,0.47945 0.14617,0.95931 0.22305,1.43837 0.0602,0.37504 0.41865,0.82197 0.18814,1.12386 -5.80818,7.60704 -4.89124,8.46184 -6.65285,4.3858 -2.13713,-5.2336 -4.29692,-10.457823 -6.43981,-15.689061 -2.35497,-5.821126 -4.68345,-11.653172 -6.88727,-17.533573 0,0 5.29342,-4.8904 5.29342,-4.8904 z"
         id="path3503"
         style="fill:#000080;fill-opacity:1;fill-rule:nonzero;stroke:none" />
      <path
         transform="translate(0,284.36218)"
         inkscape:connector-curvature="0"
         d="m 461.66248,70.369871 c -3.39279,5.02104 -3.60365,10.404397 -3.03283,16.242041 1.09695,6.71029 4.02973,12.714671 8.52515,17.762678 2.50971,2.73364 5.91157,3.89699 9.20788,5.31026 0.8844,0.6697 0.11705,1.35401 -0.11434,2.17174 0,0 -0.10029,0.12683 -0.10029,0.12683 l 0,0 c -1.1962,1.01004 -2.32679,2.16667 -3.94069,2.43997 -4.18706,0.25102 -7.73464,-1.54545 -10.69545,-4.47311 -4.69049,-5.31043 -7.5545,-11.264492 -8.65217,-18.312509 -0.59236,-6.081729 -0.36289,-11.659893 3.05492,-16.948994 0,0 5.74782,-4.318906 5.74782,-4.318906 z"
         id="path3505"
         style="fill:#000080;fill-opacity:1;fill-rule:nonzero;stroke:none" />
      <path
         transform="translate(0,284.36218)"
         inkscape:connector-curvature="0"
         d="m 456.61618,42.443077 c 2.54876,-1.896665 5.72901,-2.741221 8.68917,-1.185765 0.62286,0.32729 1.15245,0.807548 1.72868,1.211323 3.42878,3.430701 4.43011,7.312505 3.46437,11.984868 -2.20359,4.534966 -6.83329,10.751744 -12.35406,9.973195 -0.63901,-0.09011 -1.24316,-0.346956 -1.86474,-0.520434 -3.92506,-1.920969 -5.79709,-5.611701 -6.24719,-9.800937 0.17017,-4.072096 2.84991,-6.311331 6.36563,-8.591307 0.22826,-0.148028 0.54156,0.789526 1.03566,2.0683 0,0 -0.10775,0.120552 -0.10775,0.120552 l 0,0 c -0.7078,0.226243 -1.44215,0.381978 -2.12341,0.67873 -0.63502,0.276613 -2.13511,1.640072 -1.80365,1.031879 0.70928,-1.301421 1.99745,-2.190603 3.01994,-3.263581 0.18288,-0.191903 -0.3879,0.378343 -0.49956,0.618763 -0.38458,0.828063 -0.26646,1.507245 -0.26354,2.402248 0.62452,3.771681 2.13127,7.298802 5.82776,8.945396 1.44533,0.340105 1.8479,0.609667 3.3334,0.280798 0.54241,-0.120081 1.85306,-1.06572 1.5564,-0.596023 -1.04066,1.647646 -2.6363,2.871185 -3.91966,4.337703 -0.4024,0.459824 0.90846,-0.828016 1.27567,-1.316396 0.37943,-0.504621 0.63156,-1.093417 0.94734,-1.640126 1.35594,-4.533221 0.55286,-8.019058 -2.61836,-11.576741 -0.50911,-0.381043 -0.97101,-0.835058 -1.52732,-1.143131 -2.74444,-1.519825 -5.67855,-0.416557 -7.91707,1.42912 0,0 4.00229,-5.448434 4.00229,-5.448434 z"
         id="path3507"
         style="fill:#000080;fill-opacity:1;fill-rule:nonzero;stroke:none" />
      <path
         transform="translate(0,284.36218)"
         inkscape:connector-curvature="0"
         d="m 482.78257,83.178618 c 5.20922,1.411952 10.52545,2.041767 15.91027,2.022518 5.73419,-0.415013 10.41267,-1.582251 14.68555,-5.55929 -1.39196,1.255013 -2.56148,2.813059 -4.1759,3.76504 -0.55124,0.325052 0.60045,-1.141266 0.77192,-1.757808 0.16772,-0.603039 0.24988,-1.237253 0.23512,-1.863007 -0.0538,-2.279127 -1.20488,-3.573531 -2.72213,-5.091078 -5.31819,-3.342063 -11.34694,-1.817368 -16.80706,0.300402 0.92387,-2.404462 -6.48846,5.180395 -5.32735,3.418636 0.86432,-1.311446 1.98834,-2.575103 3.40139,-3.260832 0.86376,-0.419165 -1.16499,1.53797 -1.60721,2.39015 -1.21535,2.342029 -1.13203,3.234661 -1.53778,5.832006 -0.0701,6.152904 2.1467,12.117489 6.32581,16.680525 0.85586,0.93448 1.86178,1.71951 2.79267,2.57927 7.30994,5.26431 14.89225,4.53776 23.25778,2.89746 3.22802,-0.76011 6.42477,-1.64195 9.63237,-2.48086 1.58296,-0.41401 2.73446,-1.1566 3.83552,0.2546 0,0 -0.10039,0.12674 -0.10039,0.12674 l 0,0 c -1.90172,1.39526 -2.8974,2.22393 -5.00525,3.35689 -4.1672,2.23986 -8.80709,3.61973 -13.35412,4.81349 -8.62523,1.57104 -16.36203,2.08204 -23.8142,-3.37669 -0.96114,-0.89051 -1.99743,-1.70623 -2.88342,-2.67153 -4.30503,-4.69036 -6.65382,-10.792773 -6.77288,-17.121611 0.1231,-1.072473 0.13549,-2.16353 0.36931,-3.217419 1.60042,-7.213521 9.1278,-13.091414 15.53729,-16.198349 5.76719,-2.03263 11.9782,-3.307441 17.4224,0.307317 2.21348,2.174722 3.75854,4.228165 3.1559,7.541955 -0.11971,0.658249 -0.21674,1.381982 -0.63527,1.903953 -2.01656,2.514954 -4.38439,4.726861 -6.57658,7.090291 -4.39987,3.62464 -9.43855,4.973089 -15.09751,5.182144 -5.39505,-0.06299 -10.72503,-0.73599 -15.89549,-2.34453 0,0 4.97924,-5.520383 4.97924,-5.520383 z"
         id="path3509"
         style="fill:#000080;fill-opacity:1;fill-rule:nonzero;stroke:none" />
      <path
         transform="translate(0,284.36218)"
         inkscape:connector-curvature="0"
         d="m 537.39481,102.2772 c -1.36161,-5.483657 -2.94767,-10.892082 -4.06273,-16.436007 -1.0461,-5.625458 -1.15863,-10.899353 1.0726,-16.220531 1.14251,-1.786797 1.13894,-2.013892 2.68844,-3.498033 6.67101,-6.389614 7.10519,-7.609236 14.60796,-9.935681 5.14652,-1.401809 10.37357,-1.122318 15.5244,0.0038 3.89936,0.993789 7.46502,2.763452 9.66259,6.218544 0.24061,2.42761 0.33567,1.160381 -0.46222,3.784243 0,0 -0.11666,0.111941 -0.11666,0.111941 l 0,0 c -2.31134,0.423147 -1.17706,0.384817 -3.40087,0.163132 -3.65945,-1.440533 -7.13228,-3.388784 -10.9756,-4.337519 -5.06123,-1.045406 -10.18276,-1.236296 -15.19701,0.252663 -2.15118,0.727918 -2.85644,0.871102 -4.86166,1.922504 -0.72079,0.377938 -2.50005,1.961259 -2.09374,1.256066 0.9285,-1.611504 2.55882,-2.703099 3.75029,-4.131189 0.92852,-1.112909 -4.11897,4.025491 -2.85648,3.278239 -2.57225,5.319419 -2.36067,10.186951 -1.4978,15.940749 1.06556,5.544529 2.61673,10.95057 4.12464,16.387094 0,0 -5.90615,5.239975 -5.90615,5.239975 z"
         id="path3511"
         style="fill:#000080;fill-opacity:1;fill-rule:nonzero;stroke:none" />
      <path
         transform="translate(0,284.36218)"
         inkscape:connector-curvature="0"
         d="m 580.22714,63.465883 c 0.62435,6.858328 2.29306,13.522155 4.56449,20.003418 2.00494,4.60481 4.40068,9.771206 8.97709,12.388944 0.66554,0.380695 1.41487,0.591298 2.12231,0.886947 2.30752,0.46681 4.39089,0.105439 6.34011,-1.267483 0.69293,-0.488067 2.54562,-2.238404 1.893,-1.697606 -3.98513,3.30233 -4.25085,4.427385 -1.79225,0.213738 2.94795,-6.153267 3.69837,-12.917955 3.91252,-19.648305 -0.2857,-2.951899 0.2303,-6.272536 -0.85858,-9.114724 -1.35287,1.825307 3.11007,-2.835151 4.90584,-3.904281 0.35153,-0.209283 -0.2258,0.789091 -0.28375,1.194075 -0.3082,2.153836 -0.008,4.291378 0.23768,6.431405 0.99665,6.94954 3.83684,13.292998 7.35791,19.292149 3.0111,4.880266 6.97714,9.001117 11.13169,12.9038 0.70713,0.91842 2.76837,2.12528 2.55592,3.58903 -0.57278,3.94636 -1.02541,0.81666 -0.73248,2.4864 0,0 -0.11166,0.11693 -0.11166,0.11693 l 0,0 c -2.34345,0.20805 2.79085,-0.32725 -2.74154,1.08878 -1.60109,0.40981 -3.1398,-1.13666 -4.31147,-1.8833 -4.38194,-3.77808 -8.22852,-8.138036 -11.33508,-13.031184 -3.59052,-6.084239 -6.4732,-12.539198 -7.49926,-19.5933 -0.12734,-1.119333 -0.7971,-7.138436 0.004,-8.089158 5.29797,-6.28555 3.73072,-7.491089 6.04275,-5.409312 1.16502,2.913195 0.79825,6.287166 1.03357,9.338007 -0.12993,6.755026 -0.86553,13.556179 -3.57708,19.818838 -2.84253,5.423555 -1.29508,3.060899 -8.36169,10.178002 -2.47718,2.494867 -5.65325,3.405967 -9.05464,2.657017 -0.7657,-0.32013 -1.57347,-0.55401 -2.2971,-0.96038 -4.76655,-2.676756 -7.22763,-7.999685 -9.22801,-12.80777 -2.24859,-6.651681 -3.75306,-13.50556 -4.2507,-20.524992 0,0 5.35617,-4.655685 5.35617,-4.655685 z"
         id="path3513"
         style="fill:#000080;fill-opacity:1;fill-rule:nonzero;stroke:none" />
      <path
         transform="translate(0,284.36218)"
         inkscape:connector-curvature="0"
         d="m 634.21978,72.323018 c 2.957,5.090013 5.89282,10.192359 8.79103,15.316082 1.8618,3.075227 3.50705,6.294883 5.49914,9.290878 0.0668,0.05801 0.26668,0.115354 0.20045,0.174037 -1.83389,1.624943 -3.63539,3.313455 -5.67269,4.674715 -0.24249,0.16203 -4.3e-4,-0.5835 -0.0144,-0.87481 -0.085,-1.778018 -0.19088,-3.543704 -0.23152,-5.32494 -0.0728,-6.137661 0.85908,-12.198748 2.36274,-18.130909 2.01542,-6.190583 6.12575,-12.617019 12.31012,-15.368766 0.62606,-0.278563 1.30774,-0.409844 1.96161,-0.614766 5.49814,-0.747989 9.49959,2.699368 12.97897,6.486935 4.16685,5.111487 6.20901,11.288597 7.54698,17.641267 0.66405,4.510747 1.15476,9.170926 -0.13256,13.601326 -1.36276,2.464863 -0.87578,1.328483 -1.60566,3.343403 0,0 -0.12233,0.10572 -0.12233,0.10572 l 0,0 c -0.88421,-0.63021 -0.33056,-0.38712 -1.75518,-0.45826 -1.95197,-2.737156 -1.27844,-8.105811 -2.30248,-11.326811 -1.24453,-6.236127 -3.17499,-12.311334 -7.25456,-17.327103 -3.29707,-3.572837 -7.11932,-6.898167 -12.3243,-5.827985 -0.60543,0.241151 -1.24281,0.41392 -1.81631,0.723452 -0.59772,0.322609 -9.46088,6.971742 2.27623,-2.902455 0.60988,-0.513081 -0.99374,1.250955 -1.41335,1.928549 -1.21426,1.960832 -1.44778,2.900472 -2.27822,5.078919 -1.63084,5.863967 -2.59506,11.887578 -2.53797,17.991645 0.0363,1.770564 0.12046,3.521197 0.24716,5.286797 0.0232,0.323244 0.27966,0.722574 0.07,0.969702 -1.75767,2.0719 -3.75671,3.93319 -5.77368,5.75363 -0.0999,0.0902 -0.16508,-0.21267 -0.24763,-0.31901 -1.85785,-3.14159 -3.29595,-6.528065 -5.15381,-9.672069 -2.84346,-5.195591 -5.65547,-10.408513 -8.45946,-15.625444 0,0 4.85163,-4.593729 4.85163,-4.593729 z"
         id="path3515"
         style="fill:#000080;fill-opacity:1;fill-rule:nonzero;stroke:none" />
      <path
         transform="translate(0,284.36218)"
         inkscape:connector-curvature="0"
         d="m 697.52174,83.164885 c 0.47218,-3.900167 0.20703,-8.135028 -1.64325,-11.686608 -0.36152,-0.693932 -0.86084,-1.306866 -1.29126,-1.960299 -4.20981,-4.15863 -7.35568,-3.316581 -11.80955,-0.102058 1.01662,-0.957982 1.71719,-2.455344 3.04986,-2.873945 0.92463,-0.29043 -1.15368,1.566111 -1.60935,2.421473 -2.17227,4.077614 -2.09671,7.459428 -1.33368,11.854298 1.41861,4.206326 4.05845,8.760322 8.67843,10.012996 0.76379,0.207095 1.57162,0.187231 2.35742,0.280846 0.78792,-0.119725 1.59564,-0.146702 2.36376,-0.359175 1.58552,-0.438578 3.08931,-1.299143 4.39595,-2.275927 0.66245,-0.495218 2.43686,-2.232753 1.8721,-1.628499 -7.08057,7.575611 -3.3767,3.203652 -2.19927,1.771392 1.67904,-1.999337 2.69064,-4.468581 4.33214,-6.486556 6.22059,-5.940552 5.7589,-7.741699 10.0386,-1.923252 3.90744,6.170111 6.78056,12.925878 9.6409,19.624327 3.12533,7.789452 6.22692,15.800122 6.85908,24.255622 0.12231,1.63603 0.0576,3.2807 0.0864,4.92105 -0.54778,8.61562 -3.57795,16.82463 -8.67595,23.79845 -1.02101,1.39669 -2.20249,2.66868 -3.30373,4.00301 -6.10511,6.32858 -12.5576,13.50032 -21.96299,14.10353 -4.13948,0.26548 -5.20327,-0.42884 -9.13818,-1.58536 -9.62354,-4.45451 -15.83472,-12.91625 -20.79044,-21.96471 -1.96038,-4.44348 -4.55824,-10.07572 -2.07934,-14.88195 0.35221,-0.6829 0.88874,-1.2537 1.33311,-1.88054 3.26789,-3.32189 6.0621,-7.4405 11.00881,-7.50676 0.69959,-0.009 1.44073,-0.01 2.08129,0.27187 0.602,0.26448 0.99147,0.86392 1.48721,1.29588 0,0 -0.10442,0.12345 -0.10442,0.12345 l 0,0 c -12.26836,4.9551 3.39827,-1.30791 -6.96688,2.65843 -0.89783,0.34357 -1.79863,0.68651 -2.66266,1.10792 -0.77051,0.37579 -2.57849,2.06273 -2.23124,1.27894 0.66006,-1.48985 2.18218,-2.42062 3.27327,-3.63093 -0.42256,0.51937 -0.92979,0.98007 -1.26769,1.55811 -2.61442,4.47242 0.0815,10.0231 1.82855,14.22557 4.78127,8.91618 10.83856,17.26228 20.34072,21.53098 5.16224,1.41189 7.86992,2.16179 13.19521,0.41427 1.44577,-0.47443 2.8393,-1.12111 4.1658,-1.86659 1.39288,-0.7828 2.42058,-2.27369 3.96035,-2.7003 0.87146,-0.24144 -1.15773,1.38946 -1.73659,2.08419 1.12291,-1.31249 2.3261,-2.56034 3.36874,-3.93746 5.19409,-6.86038 8.39221,-15.01506 9.12909,-23.58104 -0.003,-1.62406 0.0896,-3.25114 -0.009,-4.87218 -0.51397,-8.40869 -3.57853,-16.38747 -6.70671,-24.11039 -2.83969,-6.630833 -5.67402,-13.337923 -9.6158,-19.405966 -0.70675,-0.954866 -1.43734,-2.172749 -2.49599,-2.809028 -0.70969,-0.42654 -1.01215,0.12762 -0.8453,-0.05006 1.6367,-1.742961 3.36259,-3.399956 5.04389,-5.099934 -2.02563,1.724259 -2.7758,4.578163 -4.53411,6.541672 -3.27829,4.214926 -9.03791,11.127985 -14.92784,12.408729 -0.83003,0.180489 -1.6904,0.16938 -2.5356,0.25407 -0.84099,-0.134598 -1.7065,-0.161432 -2.52298,-0.403792 -4.90465,-1.455865 -7.67357,-6.032468 -9.11891,-10.622464 -0.17988,-1.056596 -0.4559,-2.101267 -0.53965,-3.16979 -0.29465,-3.759606 0.7814,-8.989295 3.37504,-11.888587 2.16177,-2.416531 4.58613,-4.584627 6.8792,-6.87694 0.72775,-0.45408 1.40811,-0.994849 2.18324,-1.362239 3.78881,-1.795788 7.60827,-0.70426 10.26048,2.39707 2.80819,4.5155 3.78441,8.834703 3.1548,14.138964 0,0 -5.08462,4.166223 -5.08462,4.166223 z"
         id="path3517"
         style="fill:#000080;fill-opacity:1;fill-rule:nonzero;stroke:none" />
    </g>
    <g
       id="g3594"
       transform="translate(521.27836,-203.85867)">
      <path
         transform="translate(0,284.36218)"
         inkscape:connector-curvature="0"
         d="m 62.928926,484.72974 c -0.936558,8.71104 -1.563967,17.44054 -1.912001,26.19385 -0.391118,9.88172 0.359618,19.74091 1.858559,29.5014 0.152777,3.28907 1.965359,6.66784 1.440352,9.99499 -0.889772,0.66362 -0.280153,0.21691 -1.854213,1.30481 0,0 0.125161,-0.10235 0.125161,-0.10235 l 0,0 c -1.933778,2.83406 -0.782652,2.27294 -2.553855,2.87007 -2.434496,-0.75043 -2.479921,-6.93772 -3.077849,-8.85511 -1.468386,-9.83247 -2.230734,-19.75803 -1.848803,-29.70708 0.365091,-8.7678 1.017665,-17.51128 1.930255,-26.23961 0,0 5.892394,-4.96097 5.892394,-4.96097 z"
         id="path3519"
         style="fill:#000080;fill-opacity:1;fill-rule:nonzero;stroke:none" />
      <path
         transform="translate(0,284.36218)"
         inkscape:connector-curvature="0"
         d="m 28.0234,501.80155 c 3.553021,-6.52917 9.059936,-11.99467 15.189949,-16.12683 6.218201,-3.41763 13.379836,-5.05714 20.484461,-4.45523 1.742437,0.14762 3.453858,0.54989 5.180786,0.82483 9.071507,2.42191 16.650578,8.03021 21.812851,15.87373 0.991518,1.5065 1.768836,3.14354 2.653254,4.71531 3.648061,8.08111 4.025733,16.76755 0.42938,24.95245 -0.701123,1.59568 -1.643492,3.07408 -2.465237,4.61112 -1.040296,1.4197 -1.990442,2.91008 -3.120887,4.2591 -1.12185,1.33876 -2.350834,2.58869 -3.621578,3.78704 -5.675083,5.35178 -7.804848,8.17614 -13.865836,11.11618 -3.898668,1.89116 -4.942774,1.88375 -9.097685,2.82925 -10.063499,1.02668 -15.896982,-1.43758 -23.740465,-7.36835 -2.077482,-2.07571 -3.391986,-3.07656 -4.797099,-5.69426 -0.584872,-1.08961 -0.907906,-2.30064 -1.361858,-3.45096 0,0 0.113956,-0.1147 0.113956,-0.1147 l 0,0 c 3.649241,1.20798 7.123318,2.62613 10.348462,4.7738 7.759638,4.32581 15.265658,7.255 24.33628,5.83777 4.108575,-1.03081 5.093959,-1.03524 8.933715,-2.99647 1.479012,-0.75544 2.61669,-2.37272 4.265042,-2.57544 0.874697,-0.10757 -2.162908,2.70975 -1.426067,2.22629 2.295587,-1.50619 5.27287,-5.78115 6.88019,-7.88633 0.851425,-1.50946 1.820533,-2.95835 2.554276,-4.52839 3.730412,-7.98221 3.570865,-16.51257 0.09328,-24.53811 -0.84713,-1.55867 -1.58566,-3.18148 -2.54139,-4.67603 -4.940142,-7.72532 -12.288638,-13.33291 -21.131043,-15.76851 -1.683118,-0.27027 -3.350668,-0.668 -5.049355,-0.81081 -7.005778,-0.58898 -14.025633,1.06702 -20.061814,4.61476 -4.495971,3.17431 -2.205287,1.83788 0.02113,-1.04914 0.578499,-0.75015 -1.341057,1.34023 -1.966038,2.05211 -1.128273,1.28517 -1.995922,2.50766 -2.908193,3.94094 -0.330695,0.51956 -0.626647,1.06043 -0.939971,1.59065 0,0 -5.202487,4.03423 -5.202487,4.03423 z"
         id="path3521"
         style="fill:#000080;fill-opacity:1;fill-rule:nonzero;stroke:none" />
      <path
         transform="translate(0,284.36218)"
         inkscape:connector-curvature="0"
         d="m 119.33694,528.45529 c 5.24971,2.04984 10.06828,2.68469 15.62668,1.78916 2.01836,-0.63736 2.78554,-0.72308 4.55806,-1.882 0.64194,-0.41971 2.32038,-1.99993 1.78932,-1.44656 -6.67963,6.96023 -3.58631,3.66851 -2.60679,1.56423 0.31417,-0.67492 0.48872,-1.40641 0.73309,-2.10961 0.66963,-3.39125 -0.16781,-6.99148 -3.90872,-8.00212 -0.76705,-0.20723 -1.57557,-0.20697 -2.36335,-0.31046 -7.04811,0.36633 -13.39553,3.74487 -19.21379,7.48643 -0.86554,0.69405 -3.20008,3.0131 -2.59663,2.08213 0.84119,-1.29773 1.94187,-2.55557 3.33661,-3.22371 0.91335,-0.43755 -1.26304,1.59314 -1.76681,2.4717 -1.80787,3.15288 -1.90732,5.6088 -1.84047,9.13021 1.32564,6.68457 6.19684,11.41345 12.45527,13.84451 1.49585,0.58105 3.07943,0.90433 4.61915,1.35649 9.2071,1.83261 18.33411,-0.46771 27.40958,-1.85877 2.21743,8.3e-4 1.45467,-0.44391 2.56957,0.64322 0,0 -0.10056,0.1266 -0.10056,0.1266 l 0,0 c -3.66408,2.56758 -1.70983,1.40584 -5.8833,3.45042 -9.38383,3.44957 -19.2772,5.36795 -29.24633,3.43719 -1.57726,-0.47868 -3.19997,-0.82741 -4.73178,-1.43604 -6.4896,-2.5785 -11.52499,-7.51523 -13.08461,-14.40714 -0.0604,-1.13004 -0.2424,-2.26013 -0.18114,-3.39013 0.44474,-8.20428 7.74235,-13.82044 13.74081,-18.39774 5.90472,-3.61174 12.3377,-6.89747 19.42393,-6.88776 0.84325,0.14942 1.71451,0.18601 2.52975,0.44825 3.92241,1.26173 5.11526,5.05284 4.61371,8.79374 -0.20337,0.73431 -0.33434,1.49264 -0.61012,2.20293 -2.2865,5.88889 -8.40955,10.5552 -14.43863,12.09159 -5.41296,0.67945 -10.74841,0.095 -15.70259,-2.34201 0,0 4.87009,-5.22475 4.87009,-5.22475 z"
         id="path3523"
         style="fill:#000080;fill-opacity:1;fill-rule:nonzero;stroke:none" />
      <path
         transform="translate(0,284.36218)"
         inkscape:connector-curvature="0"
         d="m 171.82994,514.22559 c 5.19199,-2.14338 10.7228,-3.09164 16.30127,-3.39486 4.66297,0.0305 8.1987,1.00416 10.82879,4.98958 2.05013,4.90982 -1.7476,9.23299 -4.57151,12.93009 -4.38494,5.08607 -8.27095,10.48767 -10.86518,16.69817 -1.14672,3.32219 -1.64857,7.06994 1.47941,9.47347 0.59364,0.45615 1.28619,0.76658 1.92928,1.14987 5.92633,2.48939 12.33601,1.74118 18.52667,0.93966 1.91189,0.0983 5.3072,-1.41617 7.196,-0.84044 0.574,0.17496 0.7122,0.93259 0.85461,1.38846 0,0 -0.10206,0.1254 -0.10206,0.1254 l 0,0 c -1.26163,0.8457 -2.64557,1.82555 -4.00871,2.47159 -2.72063,1.28939 -5.76359,1.78057 -8.6463,2.54113 -6.44798,1.1624 -13.13478,1.86125 -19.31061,-0.86408 -0.69284,-0.42536 -1.43792,-0.77551 -2.07853,-1.27609 -3.33248,-2.60408 -3.27698,-6.48727 -2.06476,-10.19469 2.50777,-6.34763 6.37654,-11.86546 10.87766,-16.97979 2.8255,-3.56637 6.7441,-7.66411 5.55542,-12.58187 -2.16468,-3.97689 -5.7459,-4.63663 -10.03628,-4.71966 -5.51591,0.29264 -10.99929,1.24546 -16.06907,3.53325 0,0 4.2039,-5.38919 4.2039,-5.38919 z"
         id="path3525"
         style="fill:#000080;fill-opacity:1;fill-rule:nonzero;stroke:none" />
      <path
         transform="translate(0,284.36218)"
         inkscape:connector-curvature="0"
         d="m 192.40593,537.8926 c -5.37009,0.37394 -10.75184,0.54236 -16.12762,0.81636 -4.88512,0.0932 -9.74903,0.87666 -14.63682,0.72152 -2.20302,-0.27054 -2.27998,-0.0629 -1.72563,-2.25745 0,0 0.10389,-0.12388 0.10389,-0.12388 l 0,0 c 1.96555,-1.43988 3.61672,-2.63941 6.09602,-2.94757 5.00993,-0.90336 10.10317,-1.06827 15.17925,-1.3245 5.27314,-0.2436 10.55004,-0.47135 15.83008,-0.44654 0,0 -4.71917,5.56206 -4.71917,5.56206 z"
         id="path3527"
         style="fill:#000080;fill-opacity:1;fill-rule:nonzero;stroke:none" />
      <path
         transform="translate(0,284.36218)"
         inkscape:connector-curvature="0"
         d="m 218.76428,528.55025 c 4.78027,1.30632 9.62483,1.27347 14.47818,0.51245 3.2502,-0.75483 6.52646,-1.84878 9.16959,-3.96551 0.52263,-0.41854 1.95033,-1.83505 1.45003,-1.39006 -1.40521,1.24985 -2.77694,2.53682 -4.16541,3.80524 1.46166,-2.68495 0.96609,-5.83082 -1.87595,-7.39809 -0.61614,-0.33978 -1.31724,-0.49516 -1.97586,-0.74273 -6.15103,-0.91467 -12.00555,1.45166 -17.27689,4.39246 -0.78548,0.59404 -2.95244,2.5661 -2.35643,1.78212 1.0176,-1.33853 2.17668,-2.67075 3.64914,-3.48253 0.81022,-0.44669 -1.10082,1.49598 -1.53129,2.31493 -1.5188,2.88945 -1.76385,5.83138 -1.94949,9.02005 0.25184,5.80668 2.34901,11.39617 7.19185,14.92264 0.99174,0.72217 2.11921,1.23663 3.17881,1.85494 7.14622,2.9776 14.93769,2.44631 22.47978,1.85952 1.1808,-0.0537 2.93574,-0.21241 4.17638,-0.0213 2.07006,0.31891 0.01,0.46702 1.86952,0.21766 0,0 -0.0995,0.12741 -0.0995,0.12741 l 0,0 c -3.07123,1.98033 -6.19906,3.7455 -9.86103,4.39022 -8.03802,1.55654 -16.26314,2.60386 -23.99621,-0.86015 -1.10024,-0.65347 -2.26982,-1.20226 -3.30071,-1.96043 -4.99256,-3.67178 -7.28626,-9.40143 -7.67307,-15.42336 0.0357,-1.1262 -0.009,-2.25782 0.10724,-3.37859 0.80937,-7.81738 6.47202,-13.43016 12.91854,-17.58016 5.41526,-2.75967 11.41117,-4.95154 17.55808,-3.69364 0.71595,0.29628 1.47986,0.49621 2.14783,0.88886 2.99761,1.76202 3.91944,5.13572 2.63992,8.24525 -6.41318,6.90128 -8.24305,10.01905 -17.30089,11.89511 -4.88774,0.66616 -9.79223,0.70316 -14.50692,-0.97442 0,0 4.85481,-5.35791 4.85481,-5.35791 z"
         id="path3529"
         style="fill:#000080;fill-opacity:1;fill-rule:nonzero;stroke:none" />
      <path
         transform="translate(0,284.36218)"
         inkscape:connector-curvature="0"
         d="m 262.0993,512.83033 c 3.46812,4.49194 5.86622,9.66196 8.02873,14.87357 1.80007,4.49245 2.99781,9.18801 3.45437,14.00319 0.13844,3.90267 -0.84693,4.06599 -6.19893,6.52768 -0.33988,0.15634 -0.91727,-1.35238 -1.42754,-2.5288 -1.52874,-5.83311 0.28034,-11.72123 2.12329,-17.25402 1.71148,-4.13931 3.31633,-8.5172 6.12722,-12.07712 2.37774,-3.01135 5.60978,-5.23764 8.48601,-7.77716 4.87033,-1.65092 9.7085,-0.22713 14.23078,1.75374 6.69263,3.80499 8.79207,8.38131 10.30566,15.65931 0.88285,6.15936 0.31362,12.38376 -0.15128,18.55168 -0.43164,2.56086 -0.008,5.28812 -0.63722,7.82212 -0.30465,1.22669 -0.81867,2.39206 -1.19325,3.59924 0,0 -0.11886,0.1096 -0.11886,0.1096 l 0,0 c -0.43268,-0.0356 -2.12646,-0.13229 -2.48379,-0.3489 -1.8037,-1.09337 -1.14953,-4.70873 -1.32613,-6.32269 0.2707,-6.09043 0.96577,-12.211 0.15072,-18.29123 -1.3222,-6.859 -3.34521,-11.67105 -9.68372,-15.24361 -4.28267,-1.87762 -8.96883,-3.29707 -13.52861,-1.48294 1.12759,-1.3207 2.37646,-2.54682 3.38277,-3.96212 0.45998,-0.64692 -1.21028,1.03654 -1.72951,1.63695 -2.9953,3.46367 -4.629,7.91687 -6.42142,12.05016 -1.84419,5.36558 -3.69192,11.06512 -2.33346,16.76772 0.17979,0.44856 0.31428,0.91804 0.53935,1.34567 0.16571,0.31484 0.81797,0.56703 0.62449,0.8656 -1.25138,1.93109 -3.06705,3.43212 -4.5498,5.19182 -0.0913,0.1083 0.29332,-0.0983 0.36222,-0.22207 0.21672,-0.38914 0.15839,-1.43944 0.16216,-1.76319 -0.48444,-4.76012 -1.55611,-9.43015 -3.26223,-13.90878 -2.0502,-5.25543 -4.3821,-10.41349 -7.50575,-15.13178 0,0 4.57373,-4.44364 4.57373,-4.44364 z"
         id="path3531"
         style="fill:#000080;fill-opacity:1;fill-rule:nonzero;stroke:none" />
      <path
         transform="translate(0,284.36218)"
         inkscape:connector-curvature="0"
         d="m 329.25153,481.58227 c -1.95669,7.81601 -3.2009,15.71389 -3.78027,23.74543 -0.238,6.47784 0.27743,12.99987 2.25699,19.20334 1.13058,3.54294 1.73041,4.46364 3.34779,7.75705 3.13721,5.92773 7.68769,10.77496 12.8579,14.95939 2.33887,1.86132 5.06247,3.17374 7.36797,5.07513 0.73339,0.79852 -0.7815,1.93685 0.48886,1.76694 0,0 -0.0992,0.12766 -0.0992,0.12766 l 0,0 c -1.38126,0.92902 -2.63973,2.11757 -4.32285,2.45546 -3.45347,-0.005 -6.35294,-1.59631 -8.99645,-3.75031 -5.21933,-4.29777 -9.83293,-9.24391 -13.0333,-15.26105 -1.6529,-3.34058 -2.27153,-4.29094 -3.43697,-7.88373 -2.03345,-6.26863 -2.60062,-12.86347 -2.40001,-19.42175 0.52351,-8.0865 1.74748,-16.04804 3.82981,-23.88914 0,0 5.91976,-4.88442 5.91976,-4.88442 z"
         id="path3533"
         style="fill:#000080;fill-opacity:1;fill-rule:nonzero;stroke:none" />
      <path
         transform="translate(0,284.36218)"
         inkscape:connector-curvature="0"
         d="m 346.94557,522.5991 c -6.22477,1.48208 -12.56851,2.33201 -18.92503,2.99335 -5.68053,0.44392 -11.41446,0.81533 -17.08043,0.0452 -3.90201,-0.48789 -0.3903,-1.54979 -1.56569,-2.48806 0,0 0.10643,-0.12172 0.10643,-0.12172 l 0,0 c 1.35028,-0.29153 -0.8531,0.23922 2.32891,-1.5492 0.90791,-0.51028 2.37155,-0.62047 3.34821,-0.76235 5.88289,-0.48273 11.79734,-0.2713 17.67395,-0.87662 6.23445,-0.64468 12.42207,-1.58213 18.59011,-2.69156 0,0 -4.47646,5.45097 -4.47646,5.45097 z"
         id="path3535"
         style="fill:#000080;fill-opacity:1;fill-rule:nonzero;stroke:none" />
      <path
         transform="translate(0,284.36218)"
         inkscape:connector-curvature="0"
         d="m 364.28093,545.18471 c 0.13687,-5.11714 -0.75369,-10.18683 -1.59274,-15.21455 -0.79211,-4.48813 -1.56316,-9.0093 -0.56985,-13.5115 0.51413,-1.57381 1.37638,-2.92401 2.56521,-4.07415 5.59095,-5.40903 5.39511,-6.12393 10.66151,-8.39652 5.07993,-1.95862 10.45701,-2.27866 15.82154,-1.77643 3.38137,0.56152 6.79634,1.58871 9.06065,4.29232 0.96062,1.62521 -0.422,2.83582 -1.57968,3.89002 0,0 -0.13043,0.0956 -0.13043,0.0956 l 0,0 c -1.04281,0.88972 -1.90306,1.91774 -3.32467,1.17074 -2.97466,-1.46378 -5.83531,-3.17957 -9.2368,-3.4538 -5.28747,-0.42643 -10.57824,-0.0167 -15.52471,2.05734 -4.32487,2.05654 -5.30815,4.05082 0.71519,-2.58987 0.36144,-0.39849 -0.80922,0.71289 -1.16861,1.11324 -0.96381,1.07365 -1.00858,1.3686 -1.65927,2.64605 -1.35617,4.43012 -0.6863,8.97311 0.11292,13.46565 0.84151,5.0564 1.7491,10.13517 1.77192,15.27775 0,0 -5.92218,5.00816 -5.92218,5.00816 z"
         id="path3537"
         style="fill:#000080;fill-opacity:1;fill-rule:nonzero;stroke:none" />
      <path
         transform="translate(0,284.36218)"
         inkscape:connector-curvature="0"
         d="m 424.14938,526.79473 c -2.72903,-3.36531 -5.94638,-6.2262 -10.10265,-7.57733 -2.76098,-0.42125 -5.29735,0.44878 -7.56765,2.0128 -0.6766,0.46611 -2.45204,2.1692 -1.92623,1.53787 0.98029,-1.177 2.20316,-2.12868 3.30474,-3.19301 -4.12074,5.11212 -5.16337,9.44779 -4.45263,15.89219 1.11789,4.60665 3.97833,8.52116 8.47714,10.32306 0.86165,0.34512 1.78513,0.50938 2.67769,0.76407 3.89646,0.54782 7.6323,-0.31564 10.81938,-2.66386 0.79404,-0.58505 2.94388,-2.62636 2.21315,-1.96393 -1.1511,1.0435 -2.31619,2.07145 -3.47428,3.10718 3.37587,-4.59905 4.54355,-9.9594 4.35157,-15.56127 -0.32889,-1.64553 -0.40614,-5.49952 -2.66701,-5.83849 -2.09061,1.14802 -6.49138,4.48113 3.61852,-3.81841 0.36816,-0.30223 -0.53108,0.79838 -0.71178,1.2391 -0.61292,1.49491 -0.5518,2.24536 -0.71305,3.88739 -0.0402,5.8614 2.30367,11.03761 5.57705,15.75493 3.00983,4.08562 7.36131,6.72433 11.22424,9.88355 1.60104,0.79156 -0.43671,2.33092 0.9717,2.62016 0,0 -0.10221,0.12528 -0.10221,0.12528 l 0,0 c -1.61708,0.72403 -3.0001,1.82191 -4.89079,1.53659 -5.15083,-1.50171 -9.56588,-4.41972 -12.90352,-8.66284 -3.38386,-4.83165 -5.82412,-10.12136 -5.97039,-16.12869 0.3094,-6.4852 1.6618,-6.49966 7.48697,-11.90387 0.50686,-0.47024 1.10577,-0.34642 1.70049,-0.33271 2.45716,1.15583 2.8358,4.18208 3.22889,6.59641 0.31913,5.69203 -0.72578,11.18855 -3.96911,15.99216 -6.66165,7.00273 -10.73822,13.34894 -21.046,11.93814 -0.93513,-0.2869 -1.90372,-0.48151 -2.80538,-0.86069 -4.70696,-1.97944 -7.71293,-6.0904 -8.90489,-10.95286 -0.11881,-0.98485 -0.31821,-1.9633 -0.35643,-2.95455 -0.19366,-5.02189 1.65898,-9.78088 4.70077,-13.70628 4.65488,-4.63894 9.334,-11.31651 16.75472,-9.73224 4.11206,1.72034 7.21941,4.83539 9.78197,8.44375 0,0 -4.32499,4.1964 -4.32499,4.1964 z"
         id="path3539"
         style="fill:#000080;fill-opacity:1;fill-rule:nonzero;stroke:none" />
      <path
         transform="translate(0,284.36218)"
         inkscape:connector-curvature="0"
         d="m 454.01229,484.06307 c -2.93874,8.15327 -3.0214,16.83987 -2.51773,25.37778 0.8887,9.83107 3.60399,18.06953 8.89997,26.34745 3.35448,4.873 8.06081,8.02902 13.43762,10.2496 1.77319,1.01335 5.62851,1.0922 6.71051,2.97444 -0.50777,1.30146 -0.19258,0.6772 -0.9498,1.87064 0,0 -0.10069,0.1265 -0.10069,0.1265 l 0,0 c -1.56659,1.49576 -0.72585,0.80826 -2.52596,2.05793 -2.89163,0.82255 -5.80833,-0.1906 -8.54293,-1.18576 -5.47889,-2.35796 -10.28798,-5.6475 -13.71681,-10.64676 -5.44256,-8.52864 -8.10479,-16.68415 -8.97562,-26.8167 -0.44212,-8.77619 -0.27658,-17.69542 2.81679,-26.04501 0,0 5.46465,-4.31011 5.46465,-4.31011 z"
         id="path3541"
         style="fill:#000080;fill-opacity:1;fill-rule:nonzero;stroke:none" />
    </g>
    <g
       id="g3608"
       transform="matrix(0.99838441,0.05682056,-0.05682056,0.99838441,-264.42874,-42.745028)">
      <path
         transform="translate(0,284.36218)"
         inkscape:connector-curvature="0"
         d="m 484.42501,685.85327 c -3.15212,-6.05442 -4.97152,-12.69283 -6.86346,-19.21878 -2.52793,-9.16259 -4.81355,-18.38926 -7.20588,-27.58757 -1.51456,-5.7019 -3.00677,-11.40879 -4.39436,-17.14289 -0.40049,-1.98091 -0.96929,-3.9353 -1.26862,-5.93651 2.05693,-1.58239 3.87964,-3.52833 6.17078,-4.74718 0.38328,-0.20389 0.50689,0.70524 0.74595,1.06762 0.36218,0.54901 0.70797,1.10868 1.05735,1.66592 1.88899,3.0129 3.75268,6.03855 5.66386,9.03778 6.40986,10.16055 13.80596,19.6212 21.81427,28.55797 6.17793,6.69042 13.08842,12.65954 21.44537,16.38462 2.69441,0.86338 5.94741,1.85261 8.62696,0.30902 0.51952,-0.29927 1.82609,-1.55367 1.38499,-1.1476 -1.43224,1.31852 -2.90644,2.59073 -4.35966,3.88609 2.82774,-6.53169 1.06808,-13.89229 -0.37502,-20.56018 -1.70453,-7.23649 -4.37748,-14.17635 -7.32054,-20.98475 -1.36485,-3.25802 -3.068,-6.38119 -4.19949,-9.73382 -0.86067,-2.55967 0.97038,-3.90351 2.25856,-5.88533 0,0 0.12495,-0.10262 0.12495,-0.10262 l 0,0 c 2.07919,0.37951 1.57754,-2.14568 3.14778,0.87839 1.54657,3.14234 2.9366,6.35997 4.37837,9.55088 2.93683,6.87049 5.62501,13.86283 7.36106,21.14724 1.50837,6.80935 3.23736,14.1391 0.91117,20.95613 -0.22196,0.23841 -5.23796,6.8481 -8.26928,8.17805 -2.94201,1.29076 -6.21876,0.29807 -9.06106,-0.69982 -8.37543,-3.89581 -15.25887,-10.0522 -21.45609,-16.83593 -7.98785,-9.00671 -15.37648,-18.51496 -21.89133,-28.65079 -1.92194,-2.98553 -3.81031,-5.99058 -5.71599,-8.98619 -0.34573,-0.54348 -0.69278,-1.08632 -1.05423,-1.61948 -0.22246,-0.32814 -0.91882,-0.63511 -0.69699,-0.96368 1.44848,-2.14546 3.48396,-3.82968 5.22594,-5.74452 -0.31095,1.15966 1.19608,4.5383 1.13203,5.80865 1.28371,5.77749 2.79058,11.5012 4.26809,17.23143 2.34458,9.20687 4.60192,18.43806 7.17117,27.5858 1.89091,6.42204 3.73564,12.95234 6.91333,18.8815 0,0 -5.66998,5.42055 -5.66998,5.42055 z"
         id="path3543"
         style="fill:#000080;fill-opacity:1;fill-rule:nonzero;stroke:none" />
      <path
         transform="translate(0,284.36218)"
         inkscape:connector-curvature="0"
         d="m 543.26392,635.61304 c 1.43057,5.37587 3.22066,10.63703 5.28308,15.80044 1.7233,4.19077 3.90341,8.16615 6.80634,11.6506 1.65258,1.91521 3.76348,3.26931 5.95041,4.48568 1.83801,1.11002 1.91041,1.69244 0.77736,3.46591 0,0 -1.29816,1.45602 -1.29816,1.45602 l 0,0 c -1.62868,1.29008 -3.01817,1.93023 -4.99896,0.90723 -2.25712,-1.28624 -4.42863,-2.7218 -6.13452,-4.7161 -2.94174,-3.56258 -5.16951,-7.60714 -6.9294,-11.87586 -2.07687,-5.17689 -3.89369,-10.44976 -5.38052,-15.82834 0,0 5.92437,-5.34558 5.92437,-5.34558 z"
         id="path3545"
         style="fill:#000080;fill-opacity:1;fill-rule:nonzero;stroke:none" />
      <path
         transform="translate(0,284.36218)"
         inkscape:connector-curvature="0"
         d="m 539.34394,620.18265 c 5.14903,-5.14741 8.33386,-9.45822 15.17331,-5.48855 3.28415,2.79689 3.63383,5.98684 2.27692,9.88897 -2.34545,3.74386 -6.13292,9.14349 -11.06117,9.12953 -1.74108,-0.005 -2.27876,-0.40461 -3.87258,-1.04791 -3.86525,-2.20659 -6.0899,-5.71207 -6.63274,-10.06486 0.0274,-2.47327 0.90493,-4.70577 2.67054,-6.46337 3.33694,-3.32181 2.0079,-3.7265 3.82328,-2.98109 0,0 -0.0978,0.12873 -0.0978,0.12873 l 0,0 c -0.51564,0.47112 -2.24435,1.451 -1.54691,1.41337 0.71757,-0.0387 1.00179,-1.05849 1.62427,-1.41754 0.21566,-0.1244 -0.23119,0.44157 -0.3291,0.67046 -0.53017,1.23947 -0.78537,2.47959 -0.6754,3.83872 0.68367,3.96051 2.8569,7.18764 6.44037,9.13145 1.78544,0.62541 3.32464,1.11708 5.18967,0.38481 0.51603,-0.2026 1.77832,-1.26999 1.44137,-0.82976 -1.20116,1.56935 -2.66162,2.92645 -4.09083,4.29137 -0.42371,0.40465 0.70872,-0.9332 1.06307,-1.3998 1.60014,-3.5049 1.67852,-6.52429 -1.32834,-9.29297 -1.58114,-0.90692 -2.93344,-1.51711 -4.82012,-1.28347 -0.5788,0.0717 -1.15031,0.22423 -1.69598,0.43013 -0.53662,0.20249 -1.85618,1.25898 -1.53004,0.78718 1.0501,-1.51913 2.52234,-2.69809 3.78351,-4.04714 0,0 -5.80528,4.22174 -5.80528,4.22174 z"
         id="path3547"
         style="fill:#000080;fill-opacity:1;fill-rule:nonzero;stroke:none" />
      <path
         transform="translate(0,284.36218)"
         inkscape:connector-curvature="0"
         d="m 592.7433,636.15358 c -3.75698,-3.00005 -7.36907,-2.52287 -11.61434,-0.951 -0.76189,0.41813 -1.55321,0.78662 -2.28567,1.25441 -0.7593,0.48493 -1.49368,1.01409 -2.18008,1.59766 -0.70631,0.60049 -2.73814,2.48958 -1.9875,1.94552 1.24001,-0.89876 1.99128,-2.60116 3.46531,-3.01664 0.88667,-0.24993 -0.9691,1.57389 -1.3394,2.41741 -0.38327,0.87305 -0.608,1.80741 -0.91199,2.71112 -1.03711,5.35871 -0.0895,10.89585 2.81288,15.55561 0.61154,0.98181 1.37598,1.85968 2.06397,2.78952 5.66482,6.11166 11.92481,7.63836 19.9495,8.13574 5.67047,0.26826 11.10275,-1.39591 16.62666,-2.31282 2.05418,-1.21223 0.039,1.23077 1.17271,0.71035 0,0 -0.0955,0.13046 -0.0955,0.13046 l 0,0 c -1.52462,1.6143 -3.04047,3.28629 -5.11758,4.20015 -5.606,2.44592 -11.63104,3.35686 -17.74373,3.22701 -8.23399,-0.62365 -14.65016,-2.32689 -20.45545,-8.59019 -0.71758,-0.95934 -1.5116,-1.866 -2.15274,-2.87802 -3.07757,-4.8578 -4.11373,-10.55858 -3.03462,-16.182 2.05237,-6.52471 3.27896,-6.80919 9.10437,-12.83604 1.85239,-1.91646 4.0793,-3.36174 6.52934,-4.38959 4.5362,-1.38448 8.05958,-1.40438 11.75297,1.91533 0,0 -4.55909,4.56601 -4.55909,4.56601 z"
         id="path3549"
         style="fill:#000080;fill-opacity:1;fill-rule:nonzero;stroke:none" />
      <path
         transform="translate(0,284.36218)"
         inkscape:connector-curvature="0"
         d="m 601.7649,604.32753 c 5.9363,3.87258 10.10565,9.8229 14.19953,15.47793 5.53584,7.87497 10.37776,16.20469 14.79999,24.74637 2.61484,5.02875 4.72814,10.28509 6.7381,15.57652 0.14437,0.3873 0.2866,0.77541 0.43311,1.16191 0.17748,0.46818 0.59072,1.39315 0.57454,1.40577 -6.45719,5.03473 -5.41699,7.01029 -6.58475,3.52104 -1.17757,-3.59989 -2.13068,-7.2676 -2.99787,-10.95289 -1.28989,-5.03107 -1.23655,-10.13994 -0.61621,-15.25231 0.87276,-5.61308 2.90161,-10.86827 6.27621,-15.43048 4.27091,-4.36724 7.99489,-10.63544 14.57223,-7.08665 0.76526,0.41289 1.43856,0.97722 2.15785,1.46584 5.82141,5.18421 9.31933,12.30777 12.75986,19.16816 3.40687,7.00142 6.4357,14.17699 9.43083,21.36139 0.64346,2.13946 2.77641,6.10392 2.32204,8.41821 -0.95658,2.28501 -0.74848,1.32227 -0.97351,2.78997 0,0 -0.1165,0.11211 -0.1165,0.11211 l 0,0 c -0.79164,-0.0462 -1.57264,0.44485 -2.35659,0.32546 -1.82184,-0.27745 -3.78688,-5.11129 -4.53357,-6.39835 -3.185,-7.07455 -6.09662,-14.27183 -9.48092,-21.25625 -3.36727,-6.74489 -6.73568,-13.80291 -12.46612,-18.89076 -2.31817,-1.53046 -4.62795,-2.89221 -7.43086,-1.60133 -0.55802,0.257 -1.92631,1.48068 -1.55271,0.99297 1.13787,-1.48546 2.59422,-2.6973 3.89133,-4.04595 -3.52154,4.38651 -5.60213,9.56942 -6.54045,15.11476 -0.66342,5.0078 -0.71504,10.01289 0.53621,14.94991 0.8745,3.64486 1.84742,7.26668 3.02602,10.82641 1.26613,3.66711 0.68184,0.98681 -5.25117,7.30684 -0.0519,0.0552 -0.0363,-0.14721 -0.0586,-0.21962 -0.13341,-0.43262 -0.27901,-0.86138 -0.41999,-1.29159 -0.12988,-0.39631 -0.26157,-0.79203 -0.39235,-1.18804 -1.85044,-5.33922 -4.01112,-10.56805 -6.54211,-15.62306 -4.37966,-8.5319 -9.14363,-16.8703 -14.64223,-24.73903 -4.00752,-5.55531 -8.05303,-11.49038 -13.9253,-15.23613 0,0 5.164,-5.50913 5.164,-5.50913 z"
         id="path3551"
         style="fill:#000080;fill-opacity:1;fill-rule:nonzero;stroke:none" />
      <path
         transform="translate(0,284.36218)"
         inkscape:connector-curvature="0"
         d="m 683.27117,596.52699 c 0.62544,7.44738 3.06658,14.56695 5.45327,21.59625 3.14252,8.93049 7.08353,17.54321 11.59841,25.85586 2.65149,4.96579 6.10693,9.32689 10.23113,13.12672 1.04144,1.25705 3.90265,2.51791 3.78205,4.49564 -0.0369,0.60555 -0.35354,1.16069 -0.53031,1.74104 0,0 -0.1091,0.11933 -0.1091,0.11933 l 0,0 c -0.72758,0.38674 -1.405,0.88809 -2.18274,1.16022 -2.32649,0.81404 -4.63761,-0.72352 -6.4805,-1.92379 -4.37875,-3.67126 -7.67858,-8.33342 -10.43292,-13.31883 -4.50944,-8.36745 -8.45442,-17.02669 -11.6498,-25.98569 -2.46081,-7.12075 -4.81701,-14.38404 -5.40474,-21.94229 0,0 5.72525,-4.92446 5.72525,-4.92446 z"
         id="path3553"
         style="fill:#000080;fill-opacity:1;fill-rule:nonzero;stroke:none" />
      <path
         transform="translate(0,284.36218)"
         inkscape:connector-curvature="0"
         d="m 700.95229,631.10774 c -5.88406,-0.53672 -11.72308,0.35605 -17.46391,1.56521 -2.63307,0.56699 -5.21199,1.34818 -7.84488,1.91538 -0.3561,0.0767 -2.99059,0.71629 -3.58872,0.37131 -0.3743,-0.21588 -0.35123,-0.78959 -0.52685,-1.18438 0,0 0.10189,-0.12554 0.10189,-0.12554 l 0,0 c 1.06596,-0.71331 2.09427,-1.48636 3.19788,-2.13991 4.18107,-2.47602 9.01665,-3.73828 13.67011,-4.95022 5.79497,-1.17567 11.70486,-2.05159 17.62586,-1.35873 0,0 -5.17138,5.90688 -5.17138,5.90688 z"
         id="path3555"
         style="fill:#000080;fill-opacity:1;fill-rule:nonzero;stroke:none" />
      <path
         transform="translate(0,284.36218)"
         inkscape:connector-curvature="0"
         d="m 767.12886,633.4333 c -6.19018,-0.40393 -12.21416,0.96401 -18.12455,2.63126 -6.78371,2.05303 -13.24223,5.00898 -19.9435,7.29114 -0.13337,0.0361 -2.1335,0.88266 -2.65488,0.26488 -0.1807,-0.21412 -0.004,-0.56034 -0.007,-0.84051 0,0 0.0998,-0.12722 0.0998,-0.12722 l 0,0 c 2.05866,-1.75895 4.13011,-3.45523 6.66754,-4.50114 6.71823,-3.1519 13.62319,-5.93016 20.71677,-8.12226 5.9023,-1.6011 11.94012,-2.93488 18.09345,-2.1715 0,0 -4.84794,5.57535 -4.84794,5.57535 z"
         id="path3557"
         style="fill:#000080;fill-opacity:1;fill-rule:nonzero;stroke:none" />
      <path
         transform="translate(0,284.36218)"
         inkscape:connector-curvature="0"
         d="m 786.72927,586.6284 c 2.68814,7.78787 4.59901,15.82588 6.61314,23.8082 2.71897,10.68496 5.17829,21.43333 7.28675,32.25516 1.08081,5.0861 1.54693,10.304 2.79169,15.35594 0.47259,2.07269 2.71608,1.86142 4.46662,2.04616 4.60314,0.41696 9.20265,-0.13442 13.75601,-0.77418 4.46819,-0.53548 8.83787,-1.9511 13.34971,-2.07022 2.51208,0.31476 2.37576,0.74026 1.5071,3.02146 0,0 -0.11057,0.11796 -0.11057,0.11796 l 0,0 c -1.93923,1.18702 -3.85906,2.10649 -6.11395,2.54085 -4.52153,1.05429 -9.13227,1.70054 -13.70389,2.49541 -4.61986,0.62445 -9.28566,1.15143 -13.94981,0.697 -2.11688,-0.24776 -4.55483,-0.32001 -5.19466,-2.74561 -0.84126,-5.22041 -1.43676,-10.4823 -2.44042,-15.67795 -2.04741,-10.84913 -4.47819,-21.61704 -7.1378,-32.33255 -1.98373,-8.00854 -3.90649,-16.04273 -6.37936,-23.91823 0,0 5.25944,-4.8194 5.25944,-4.8194 z"
         id="path3559"
         style="fill:#000080;fill-opacity:1;fill-rule:nonzero;stroke:none" />
      <path
         transform="translate(0,284.36218)"
         inkscape:connector-curvature="0"
         d="m 836.54428,615.89417 c 0.85302,6.20956 3.06957,12.06621 5.60892,17.7545 2.25287,4.87028 5.16275,9.36256 8.80051,13.30046 0.61835,0.99975 2.83139,2.33452 3.02908,3.55935 0.0921,0.57097 -0.31235,1.80326 -0.45663,2.32427 0,0 -0.10806,0.12028 -0.10806,0.12028 l 0,0 c -3.54266,1.9946 -4.81268,2.26933 -8.0909,-0.41142 -3.77395,-3.93853 -6.64242,-8.60761 -8.93206,-13.5473 -2.52369,-5.83058 -4.71931,-11.83581 -5.46422,-18.18735 0,0 5.61336,-4.91279 5.61336,-4.91279 z"
         id="path3561"
         style="fill:#000080;fill-opacity:1;fill-rule:nonzero;stroke:none" />
      <path
         transform="translate(0,284.36218)"
         inkscape:connector-curvature="0"
         d="m 830.42533,596.83188 c 4.01042,-2.62885 7.84237,-2.30424 12.11775,-0.60216 2.10834,1.16415 4.9395,3.08265 4.26125,5.93522 -0.11132,0.46817 -0.38207,0.88336 -0.57311,1.32504 -4.51648,5.84617 -8.25079,9.29007 -15.29213,9.26641 -2.85047,-0.39582 -6.02184,-1.83805 -6.90519,-4.87365 -0.1652,-0.5677 -0.12882,-1.17547 -0.19323,-1.76321 0.89684,-2.94017 0.37973,-1.5266 1.53373,-4.24711 0,0 0.1234,-0.10448 0.1234,-0.10448 l 0,0 c 1.07788,0.85016 0.43801,0.48964 1.98156,0.96335 2.49617,2.10581 4.79495,4.25321 8.2926,4.34754 1.991,-0.0746 3.74534,-0.28286 5.58366,-1.12898 0.57064,-0.26265 1.99476,-1.44084 1.64543,-0.91874 -1.02908,1.53802 -2.53909,2.69375 -3.76222,4.08244 -0.35068,0.39815 0.76168,-0.73877 1.14253,-1.10816 2.21682,-3.32891 0.24839,-4.74544 -2.75589,-6.43743 -3.86404,-1.50715 -7.80027,-1.86641 -11.28736,0.79249 0,0 4.08722,-5.52857 4.08722,-5.52857 z"
         id="path3563"
         style="fill:#000080;fill-opacity:1;fill-rule:nonzero;stroke:none" />
      <path
         transform="translate(0,284.36218)"
         inkscape:connector-curvature="0"
         d="m 861.27406,612.23441 c 2.68523,7.14973 5.949,14.05762 9.33872,20.89452 3.31219,6.41696 6.71138,12.78799 9.91114,19.26236 2.11184,4.41361 2.85656,3.89339 -4.29669,7.8458 -0.36502,0.20169 -0.38864,-0.73868 -0.55815,-1.11971 -0.24654,-0.55418 -0.45945,-1.12272 -0.68918,-1.68408 -2.14137,-5.64 -3.38632,-11.54297 -4.17717,-17.50684 -0.73882,-6.05393 0.11884,-11.32758 2.95389,-16.69424 3.82066,-4.76594 8.04034,-11.13117 14.57479,-11.79605 0.7774,-0.0791 1.56276,0.0137 2.34414,0.0205 6.6726,1.05942 10.80421,6.26451 14.49188,11.45367 3.82075,5.9809 6.83842,12.45863 8.38461,19.39541 0.5384,2.23635 -0.33207,4.21401 -0.94865,6.30876 0,0 -0.11978,0.10861 -0.11978,0.10861 l 0,0 c -1.6429,-0.37485 -2.81148,-0.35672 -3.6386,-2.11104 -3.14442,-6.06934 -5.44532,-12.57958 -9.27683,-18.28686 -3.52952,-4.96273 -7.5137,-10.03844 -13.93519,-10.94786 -1.9961,0.0757 -2.39909,-0.0785 -4.28178,0.66193 -0.67721,0.26635 -2.28952,1.64081 -1.93899,1.0031 0.86522,-1.57411 2.48045,-2.60565 3.59437,-4.01477 0.99709,-1.26131 -4.65748,4.61273 -3.23668,3.57631 -3.14725,5.3543 -4.04221,10.24742 -3.40896,16.45079 0.73831,5.89941 1.96615,11.73873 4.11136,17.30221 0.22653,0.5424 0.44157,1.08973 0.67958,1.62718 0.15482,0.34959 0.71688,0.71921 0.49849,1.03303 -5.87621,8.44412 -4.3702,6.67942 -6.42765,2.33202 -3.10759,-6.55523 -6.50345,-12.96637 -9.65365,-19.50104 -3.32116,-6.94686 -6.55763,-13.94952 -9.07725,-21.23539 0,0 4.78223,-4.37829 4.78223,-4.37829 z"
         id="path3565"
         style="fill:#000080;fill-opacity:1;fill-rule:nonzero;stroke:none" />
      <path
         transform="translate(0,284.36218)"
         inkscape:connector-curvature="0"
         d="m 931.74959,631.2664 c 4.05596,0.44324 7.99645,-0.0133 11.89563,-1.13357 2.49323,-0.87471 4.8779,-2.10442 6.86014,-3.87413 0.44777,-0.39976 1.7088,-1.68607 1.2674,-1.27928 -1.43395,1.32153 -2.83066,2.6829 -4.24599,4.02434 2.56029,-3.8114 1.76097,-7.12913 -0.27842,-10.94805 -3.57635,-4.81279 -7.39731,-5.69486 -13.11208,-4.94675 -0.84683,0.25361 -1.71593,0.44215 -2.54048,0.76083 -1.69607,0.65552 -3.26903,1.55979 -4.68664,2.69899 -0.69802,0.56093 -2.65342,2.40316 -1.95603,1.84144 3.85075,-3.10166 4.41613,-4.76814 2.25104,-0.78667 -2.37935,6.19236 -0.46934,12.29373 1.94114,18.12942 2.42446,4.90369 5.80807,9.43936 10.67513,12.14252 0.88209,0.48992 1.83365,0.84271 2.75047,1.26407 5.57882,1.97216 11.40885,1.25862 17.10998,0.35078 2.25488,0.0349 1.199,-0.0388 3.17014,0.18209 0,0 -0.1,0.12709 -0.1,0.12709 l 0,0 c -4.23998,2.80532 -2.06539,1.48129 -6.52514,3.96986 -6.42955,2.43795 -12.39118,3.63803 -19.05646,1.16132 -0.94464,-0.449 -1.92489,-0.82968 -2.83391,-1.34699 -4.96878,-2.82761 -8.4645,-7.45976 -10.98593,-12.48956 -2.56088,-6.04903 -4.31135,-12.46223 -2.05879,-18.91164 2.5964,-5.2152 0.96111,-2.51711 8.00709,-9.70545 2.55224,-2.60381 5.89548,-4.12999 9.42026,-4.87638 6.164,-0.58677 9.75712,0.58218 13.83007,5.40712 2.35184,3.81609 3.48983,7.257 1.12838,11.40367 -4.60044,4.82878 -8.22161,9.67857 -14.76048,11.53619 -3.7968,0.90985 -7.66421,1.18088 -11.48981,0.19781 0,0 4.32325,-4.89907 4.32325,-4.89907 z"
         id="path3567"
         style="fill:#000080;fill-opacity:1;fill-rule:nonzero;stroke:none" />
      <path
         transform="translate(0,284.36218)"
         inkscape:connector-curvature="0"
         d="m 981.1035,628.55528 c -0.1898,-4.4823 -2.03886,-8.45377 -4.67025,-11.997 -3.01308,-3.39929 -5.87815,-4.38284 -10.2223,-3.1856 -1.62946,0.7795 -2.01653,0.8526 -3.4558,2.00515 -0.55176,0.44185 -2.07451,1.92124 -1.55706,1.43967 5.51561,-5.13314 3.58974,-3.87611 2.31834,-1.40373 -0.33901,0.65924 -0.56611,1.37026 -0.84916,2.05538 -1.60883,5.62672 0.31056,10.9453 2.95834,15.89258 2.58733,3.89057 6.14638,7.57554 11.01103,8.27391 0.82814,0.11889 1.67293,0.0334 2.50939,0.0501 2.23035,-0.5188 2.78421,-0.45144 4.76699,-1.71563 0.7493,-0.47774 2.67925,-2.32224 2.08434,-1.66212 -7.20653,7.99647 -2.88371,2.49917 -2.10206,1.02742 0.44646,-0.84063 0.74551,-1.75161 1.11827,-2.62742 1.64911,-5.09493 1.08396,-10.33896 -0.18585,-15.43268 -1.69829,-5.80972 -2.73909,-1.75238 4.1951,-8.20961 0.88846,4.03376 3.2173,7.62131 5.39828,11.06497 3.59802,5.44252 8.0469,10.21675 12.7541,14.70297 1.1204,1.35631 4.5143,3.55999 5.0156,5.34378 0.2692,0.95762 -0.2629,1.72514 -0.6223,2.53838 0,0 -0.1086,0.11974 -0.1086,0.11974 l 0,0 c -1.0603,0.65965 -1.8497,1.3684 -3.1666,1.4051 -2.3693,0.066 -4.9634,-2.55265 -6.6501,-3.84075 -4.81787,-4.46855 -9.2523,-9.35342 -12.90095,-14.837 -2.2648,-3.59329 -4.58179,-7.29113 -5.57695,-11.47195 5.95798,-6.52196 5.26902,-8.09838 7.27573,-1.85998 1.37,5.1572 2.11231,10.45008 0.62955,15.68869 -2.30776,6.20441 -3.90773,7.09266 -9.74742,12.63448 -2.00702,1.90465 -4.62342,2.7807 -7.30828,3.08955 -0.88471,-0.0543 -1.78136,-0.008 -2.65413,-0.16276 -5.03694,-0.8925 -8.71783,-4.72546 -11.30326,-8.88172 -2.64407,-5.23219 -4.54403,-10.8176 -2.98756,-16.70216 1.85396,-4.91295 3.83627,-6.26207 8.19904,-10.60492 1.44459,-1.43799 3.22782,-2.429 5.14469,-3.07715 4.77363,-0.94174 7.35296,0.32197 10.54008,3.96116 2.6614,3.71502 4.58222,7.81938 4.73696,12.46917 0,0 -4.5872,3.91002 -4.5872,3.91002 z"
         id="path3569"
         style="fill:#000080;fill-opacity:1;fill-rule:nonzero;stroke:none" />
      <path
         transform="translate(0,284.36218)"
         inkscape:connector-curvature="0"
         d="m 1015.0622,650.81856 c -2.8998,-5.76076 -5.6406,-11.59358 -7.9092,-17.63276 -1.2189,-3.84497 -2.547,-8.1626 -0.9546,-12.11864 0.2531,-0.62858 0.6371,-1.19612 0.9556,-1.79418 5.3752,-7.2461 10.2481,-10.40569 18.4244,-12.20516 4.819,-0.88035 9.7014,-0.60412 14.4586,0.45302 1.7326,0.5969 4.6665,1.47107 4.0255,3.89349 -0.1502,0.56789 -0.4568,1.08241 -0.6853,1.62362 0,0 -0.1165,0.11207 -0.1165,0.11207 l 0,0 c -0.8896,0.33556 -1.7378,0.72709 -2.6967,0.83025 -1.9021,0.20464 -3.8628,-0.46354 -5.7428,-0.58141 -4.736,-0.76404 -9.5125,-1.22059 -14.2595,-0.17921 -2.596,0.63104 -5.0739,1.30231 -7.4399,2.5888 -0.7026,0.38202 -2.4558,1.95345 -2.0323,1.27504 0.9951,-1.59422 2.5714,-2.74185 3.823,-4.14379 0.4788,-0.5364 -1.0028,1.03087 -1.5042,1.54631 -0.3775,0.57421 -0.8172,1.11206 -1.1325,1.72264 -1.9796,3.83314 -0.9635,8.31035 0.053,12.25014 1.956,6.16914 4.5349,12.09111 7.5982,17.79479 0,0 -4.8643,4.56498 -4.8643,4.56498 z"
         id="path3571"
         style="fill:#000080;fill-opacity:1;fill-rule:nonzero;stroke:none" />
    </g>
    <g
       id="g3649"
       transform="translate(4.0118033,20.332759)">
      <path
         transform="translate(0,284.36218)"
         inkscape:connector-curvature="0"
         d="m 196.62653,257.83138 c -4.30834,-4.50335 -7.70765,-9.70285 -10.70386,-15.13809 -4.13295,-7.59918 -5.63293,-16.04059 -6.70822,-24.51418 -1.20417,-10.42201 -0.49805,-20.85807 1.37032,-31.14203 1.302,-6.02808 3.3003,-11.90414 6.50557,-17.18767 2.41239,-3.2609 5.00016,-6.87883 8.70477,-8.6847 1.64954,-0.16662 0.33494,1.15668 -0.34816,1.57625 -0.44229,0.45031 -0.88459,0.90061 -1.32688,1.35091 0,0 -0.11952,0.10889 -0.11952,0.10889 l 0,0 c -0.48199,0.33094 -0.96398,0.66188 -1.44597,0.99282 -1.73198,0.53037 0.0415,0.87315 -1.00899,1.50286 -0.50188,0.3304 -2.48919,2.2144 -1.35742,1.04422 1.37355,-1.42014 2.77693,-2.81112 4.16539,-4.21669 -0.277,0.30222 -0.56945,0.59096 -0.83099,0.90664 -0.33185,0.40054 -0.63163,0.82661 -0.94744,1.23992 -3.36238,5.24088 -5.44562,11.14042 -6.89053,17.1783 -2.14429,10.26725 -2.85847,20.72199 -1.73405,31.18263 1.02432,8.37464 2.7243,16.63182 6.75086,24.14538 2.96059,5.38385 6.31711,10.5485 10.65553,14.9428 0,0 -4.73041,4.71174 -4.73041,4.71174 z"
         id="path3639"
         style="fill:#000000;fill-opacity:1;fill-rule:nonzero;stroke:none" />
      <path
         transform="translate(0,284.36218)"
         inkscape:connector-curvature="0"
         d="m 208.477,188.01179 c -1.96216,-5.20587 -3.84599,-10.4394 -5.62225,-15.71152 -1.9985,-5.80938 -3.44669,-11.77577 -4.49807,-17.82259 -0.54411,-3.33117 -0.80235,-6.69969 -0.77105,-10.07337 -0.0701,-0.67396 0.29735,-2.05951 -0.71837,-1.62084 -2.46927,1.02734 -4.86663,2.21773 -7.27637,3.37531 -5.74035,2.77745 -11.49464,5.52382 -17.31313,8.13408 -5.72494,2.53596 -11.51519,4.92265 -17.19944,7.5498 -0.90539,0.0539 -4.15239,2.64132 -4.94314,2.3262 0.26694,-1.12029 0.93128,-1.63062 1.71404,-2.54126 0,0 0.12328,-0.10461 0.12328,-0.10461 l 0,0 c 0.79144,-0.84881 1.46317,-1.64795 2.16772,-2.53341 1.68309,-1.42331 3.75541,-2.27533 5.71115,-3.24724 5.6776,-2.57343 11.44821,-4.93432 17.14365,-7.46778 5.74961,-2.56439 11.45374,-5.22556 17.13653,-7.93473 2.35477,-1.09914 4.72574,-2.41068 7.28117,-2.95292 1.33759,0.20268 1.51419,1.30558 1.47122,2.51726 -0.15424,3.40451 -0.11568,6.81286 0.44098,10.18692 0.95547,6.04656 2.37002,12.00136 4.37163,17.79371 1.7815,5.2803 3.68606,10.5165 5.53604,15.77293 0,0 -4.75559,4.35406 -4.75559,4.35406 z"
         id="path3641"
         style="fill:#000000;fill-opacity:1;fill-rule:nonzero;stroke:none" />
    </g>
    <g
       id="g3658"
       transform="translate(-12.632912,19.042994)">
      <path
         transform="translate(0,284.36218)"
         inkscape:connector-curvature="0"
         d="m 301.5044,432.21536 c 6.90636,-0.13744 13.57994,1.67272 20.13517,3.63174 12.60164,3.92831 23.98433,10.53857 34.86353,17.86922 10.87232,7.56001 20.18455,16.90728 28.2693,27.33662 4.38309,5.88619 7.88485,12.34006 10.82034,19.04806 0.77195,1.72137 1.39641,3.50291 2.10373,5.25007 0.73053,0.29285 -6.56826,7.88975 -4.64322,3.36283 1.12967,-1.85633 0.44987,-0.84606 2.11606,-2.97779 0,0 0.12539,-0.10206 0.12539,-0.10206 l 0,0 c 1.16612,-0.23117 0.66273,-0.25293 1.50732,-0.11324 3.15117,0.6874 -3.68962,8.02731 -4.79299,4.97792 -0.36107,-1.85664 -1.23088,-3.58876 -1.85126,-5.36067 -2.82561,-6.70782 -6.25395,-13.15182 -10.57037,-19.03264 -7.9664,-10.426 -17.22004,-19.7143 -27.92604,-27.36433 -10.66415,-7.40516 -21.86293,-14.09365 -34.24345,-18.2378 -6.44509,-2.01041 -13.0243,-3.76622 -19.83653,-3.67411 0,0 3.92302,-4.61382 3.92302,-4.61382 z"
         id="path3643"
         style="fill:#000000;fill-opacity:1;fill-rule:nonzero;stroke:none" />
      <path
         transform="translate(0,284.36218)"
         inkscape:connector-curvature="0"
         d="m 404.83041,488.66511 c 2.44952,7.36973 5.51504,14.50874 8.66563,21.59966 2.42313,5.30431 4.9532,10.55829 7.3307,15.8835 0.54842,1.20145 1.11218,2.39169 1.41061,3.68165 -2.1857,1.72875 -4.21968,3.66891 -6.55711,5.18623 -0.27276,0.17706 -0.61021,-0.22509 -0.91628,-0.33496 -0.45979,-0.16506 -0.92151,-0.32472 -1.38128,-0.48985 -2.8143,-1.01077 -5.59806,-2.08815 -8.38186,-3.18022 -10.83037,-4.42859 -21.46778,-9.30442 -32.30064,-13.72732 -5.84753,-2.28218 -11.77265,-4.46456 -17.92667,-5.76735 -2.76098,-0.33456 -0.16205,-2.52514 0.65132,-3.51169 0.36126,-0.43818 0.67659,-0.91228 1.01488,-1.36842 0,0 0.12554,-0.1019 0.12554,-0.1019 l 0,0 c 2.2773,0.0106 1.64274,-1.7001 3.55161,-0.99465 6.08394,1.51613 11.92961,3.88734 17.76997,6.12766 10.84963,4.4353 21.55171,9.22104 32.4467,13.54549 3.26696,1.23383 3.37689,1.29854 6.40535,2.36561 3.36942,1.18722 0.77123,0.24852 3.45042,1.18078 0.31435,0.10939 1.12992,0.0655 0.93941,0.33845 -1.47244,2.10931 -3.44879,3.8177 -5.17318,5.72655 0.8211,-0.21571 -0.76746,-3.10034 -0.79502,-3.42636 -2.21901,-5.42665 -4.7507,-10.71765 -7.09966,-16.08812 -3.0982,-7.15595 -6.06217,-14.37356 -8.60111,-21.74985 0,0 5.37067,-4.89489 5.37067,-4.89489 z"
         id="path3645"
         style="fill:#000000;fill-opacity:1;fill-rule:nonzero;stroke:none" />
    </g>
  </g>
</svg>
