<?xml version="1.0" encoding="UTF-8" standalone="no"?>
<!-- Created with Inkscape (http://www.inkscape.org/) -->

<svg
   xmlns:dc="http://purl.org/dc/elements/1.1/"
   xmlns:cc="http://creativecommons.org/ns#"
   xmlns:rdf="http://www.w3.org/1999/02/22-rdf-syntax-ns#"
   xmlns:svg="http://www.w3.org/2000/svg"
   xmlns="http://www.w3.org/2000/svg"
   xmlns:sodipodi="http://sodipodi.sourceforge.net/DTD/sodipodi-0.dtd"
   xmlns:inkscape="http://www.inkscape.org/namespaces/inkscape"
   width="1024"
   height="768"
   id="svg4160"
   version="1.1"
   inkscape:version="0.48.4 r9939"
   sodipodi:docname="git2.svg">
  <defs
     id="defs4162" />
  <sodipodi:namedview
     id="base"
     pagecolor="#ffffff"
     bordercolor="#666666"
     borderopacity="1.0"
     inkscape:pageopacity="0.0"
     inkscape:pageshadow="2"
     inkscape:zoom="0.86588542"
     inkscape:cx="512"
     inkscape:cy="371.18049"
     inkscape:document-units="px"
     inkscape:current-layer="layer1"
     showgrid="false"
     inkscape:window-width="1600"
     inkscape:window-height="886"
     inkscape:window-x="0"
     inkscape:window-y="14"
     inkscape:window-maximized="0" />
  <metadata
     id="metadata4165">
    <rdf:RDF>
      <cc:Work
         rdf:about="">
        <dc:format>image/svg+xml</dc:format>
        <dc:type
           rdf:resource="http://purl.org/dc/dcmitype/StillImage" />
        <dc:title />
      </cc:Work>
    </rdf:RDF>
  </metadata>
  <g
     inkscape:label="Ebene 1"
     inkscape:groupmode="layer"
     id="layer1"
     transform="translate(0,-284.36218)">
    <g
       id="g3573"
       transform="matrix(0.99995705,0.00926825,-0.00926825,0.99995705,4.036057,-4.4770873)">
      <path
         transform="translate(0,284.36218)"
         inkscape:connector-curvature="0"
         d="m 47.008838,35.566565 c 4.087523,6.289555 7.487819,12.985841 10.856004,19.677288 4.531049,8.966715 8.712543,18.100821 12.760365,27.293626 3.008509,6.89178 5.85813,13.854646 9.264429,20.562991 1.347612,2.19809 2.342873,4.70616 4.010404,6.70228 0.19332,0.10498 0.161914,0.12652 0.07442,-0.0867 -1.882371,1.71418 -3.694011,3.5094 -5.647113,5.14253 -0.17345,0.14503 0.174799,-0.41728 0.250748,-0.63024 0.351883,-0.98668 0.474733,-1.49795 0.782529,-2.57516 1.80169,-7.45663 2.93414,-15.055562 4.383401,-22.585678 1.502001,-7.298022 3.319737,-14.564673 6.106313,-21.491563 1.753839,-4.359703 2.29017,-5.120449 4.451392,-9.196994 4.455534,-8.196716 11.19695,-14.417957 17.78381,-20.851077 0.8606,-0.647702 2.82358,-2.264314 0.59801,0.624159 -0.28867,0.374651 -0.71242,0.622281 -1.06863,0.933422 0,0 -0.13049,0.09547 -0.13049,0.09547 l 0,0 c -0.0569,-0.0086 -0.14035,-0.07468 -0.1706,-0.02577 -0.24913,0.402708 -0.35641,0.882724 -0.60779,1.284028 -0.72134,1.151549 -2.04612,1.856812 -2.87521,2.906299 1.25929,-1.26639 2.51932,-2.532047 3.77788,-3.799168 0.57049,-0.574378 -1.15493,1.135139 -1.7137,1.720935 -3.57902,3.752165 -6.76852,7.86063 -9.40438,12.332998 -2.198605,4.03157 -2.758653,4.807119 -4.541618,9.129455 -2.836925,6.877386 -4.678699,14.111832 -6.175525,21.382704 -1.433977,7.497193 -2.549263,15.055361 -4.195298,22.50981 -0.737597,2.85469 -3.62305,12.19772 -7.423066,8.77198 -1.538829,-2.19457 -2.567557,-4.72918 -3.849285,-7.06914 C 71.106811,101.47275 68.243823,94.473633 65.241694,87.5342 61.22692,78.325079 57.068295,69.178269 52.602937,60.177424 49.281145,53.483107 46.021026,46.722754 41.935493,40.450293 c 0,0 5.073345,-4.883728 5.073345,-4.883728 z"
         id="path3489"
         style="fill:#000080;fill-opacity:1;fill-rule:nonzero;stroke:none" />
      <path
         transform="translate(0,284.36218)"
         inkscape:connector-curvature="0"
         d="m 115.96783,87.003642 c 4.32189,1.55287 8.73492,2.27882 13.30599,1.886654 2.23332,-0.389659 4.39422,-1.089175 6.27853,-2.383649 0.5768,-0.396251 2.10973,-1.835371 1.6192,-1.336273 -5.00093,5.088313 -4.69842,4.94868 -2.91641,1.964414 1.16198,-3.015892 1.49469,-6.914418 -1.04285,-9.397577 -0.4498,-0.440153 -1.03069,-0.722404 -1.54604,-1.083606 -5.4164,-1.853636 -10.75619,0.706405 -15.42636,3.349952 1.31691,-1.749362 -6.70945,5.48823 -5.03756,4.109506 1.12259,-0.925736 1.80445,-2.777259 3.2534,-2.910338 1.10859,-0.101818 -1.30046,1.812494 -1.84879,2.781333 -1.55359,2.745013 -1.62476,3.544074 -2.56941,6.562533 -1.24533,6.242293 -0.70726,12.817809 2.08824,18.602399 0.51612,1.06798 1.19806,2.04755 1.79708,3.07133 5.28563,6.48942 10.0321,6.98185 17.8758,5.61112 5.61826,-1.33827 10.64279,-4.22694 15.77167,-6.7657 2.10954,-1.15423 0.48179,-0.21144 1.54765,0.0206 0,0 -0.0957,0.1303 -0.0957,0.1303 l 0,0 c -1.65682,1.78642 -3.31458,3.59639 -5.36016,4.95479 -5.1906,3.46866 -10.74833,6.38626 -16.89424,7.74501 -8.3012,1.23363 -13.00091,0.48622 -18.56402,-6.25991 -0.62433,-1.05519 -1.33199,-2.06533 -1.87298,-3.16558 -2.89429,-5.88635 -3.5503,-12.59134 -2.43861,-18.996378 0.88189,-3.10754 0.92628,-3.915032 2.45483,-6.75899 3.28296,-6.10813 8.87315,-10.849381 14.51558,-14.725886 4.91206,-2.574623 10.48031,-4.989662 15.95921,-2.681924 0.56874,0.417592 1.20614,0.755 1.7062,1.252774 2.64221,2.630131 2.73171,6.613796 1.70014,9.9474 -3.1312,6.322727 -8.99532,11.118474 -15.90236,12.240079 -4.62232,0.265617 -9.09246,-0.468278 -13.37238,-2.295531 0,0 5.01437,-5.468802 5.01437,-5.468802 z"
         id="path3491"
         style="fill:#000080;fill-opacity:1;fill-rule:nonzero;stroke:none" />
      <path
         transform="translate(0,284.36218)"
         inkscape:connector-curvature="0"
         d="m 173.33091,108.89384 c -1.78707,-4.85762 -3.75353,-9.641031 -5.368,-14.561056 -1.37686,-4.607803 -1.96544,-8.370843 -0.1105,-12.892978 1.04033,-1.611762 0.9589,-1.691365 2.38152,-3.042862 6.73638,-6.399561 6.77251,-7.310615 14.20595,-9.558384 4.65888,-1.199709 9.47405,-1.634753 14.27153,-1.416962 1.60933,0.274601 4.76572,0.249838 5.59338,2.109991 0.15731,0.353556 0.14992,0.759288 0.22488,1.138932 -0.13065,0.574324 -0.26131,1.148648 -0.39197,1.722972 0,0 -0.1128,0.115832 -0.1128,0.115832 l 0,0 c -0.60706,0.209906 -1.21411,0.419812 -1.82116,0.629717 -2.84783,0.507035 -5.71882,0.203072 -8.60102,0.244415 -4.75923,0.05754 -9.53754,0.285978 -14.135,1.650922 -2.0357,0.671 -2.82025,0.842691 -4.71945,1.802629 -0.67908,0.343237 -2.3747,1.793397 -1.97375,1.146714 1.01832,-1.642413 2.66798,-2.799644 3.91428,-4.276542 0.81569,-0.966609 -3.58643,3.386272 -2.5506,2.809182 -2.09883,4.235909 -1.76801,8.146838 -0.46151,12.622936 1.52931,4.937326 3.50816,9.707205 5.37127,14.525242 0,0 -5.71705,5.2293 -5.71705,5.2293 z"
         id="path3493"
         style="fill:#000080;fill-opacity:1;fill-rule:nonzero;stroke:none" />
      <path
         transform="translate(0,284.36218)"
         inkscape:connector-curvature="0"
         d="m 239.24508,79.03081 c -0.0329,-2.802121 -0.78866,-6.089294 -3.88279,-6.946578 -0.58007,-0.160722 -1.19577,-0.139348 -1.79365,-0.209022 -2.94857,0.216092 -5.71879,1.385236 -8.05019,3.196436 -0.59019,0.458498 -2.20313,2.020349 -1.66189,1.504988 1.22833,-1.169592 2.48229,-2.31197 3.72343,-3.467955 -3.17546,4.733914 -1.55007,8.227657 1.48927,12.469395 5.52173,5.899652 12.09044,10.650337 17.83876,16.325406 3.67534,4.07485 7.36717,9.3292 5.34324,15.09807 -0.35762,1.01933 -0.99331,1.9186 -1.48996,2.8779 -6.12253,7.27527 -12.02809,13.15097 -21.81623,13.08618 -1.24607,-0.008 -2.48054,-0.2407 -3.72081,-0.36105 -4.62545,-1.08528 -11.21079,-4.17953 -12.93986,-9.06597 -0.3302,-0.93313 -0.2748,-1.9605 -0.4122,-2.94075 0.11371,-1.00776 0.22741,-2.01551 0.34112,-3.02327 0,0 0.11929,-0.10914 0.11929,-0.10914 l 0,0 c 0.59049,0.33497 1.18098,0.66994 1.77148,1.0049 0.70117,0.39986 1.43883,0.74163 2.10353,1.19958 4.78626,3.29754 -0.75433,0.10406 4.57391,3.42664 2.93267,1.82876 6.08464,3.12308 9.51162,3.66899 4.01873,0.2575 7.16862,0.2634 11.00625,-1.246 1.16965,-0.46005 2.78483,-2.79814 3.37218,-1.68696 0.64613,1.22238 -2.33119,1.92247 -2.524,3.29159 -0.16036,1.13876 1.60556,-1.64685 2.40834,-2.47027 1.34225,-2.21919 2.13377,-2.97066 2.43686,-5.60283 0.53866,-4.67795 -2.47012,-8.58907 -5.33169,-11.89606 -5.75694,-5.7299 -12.37787,-10.474561 -17.93911,-16.395037 -3.35029,-4.549787 -5.06468,-7.99298 -2.0381,-13.291076 4.8788,-5.072636 9.08647,-10.855207 16.65167,-10.99682 0.64609,0.131901 1.32084,0.164157 1.93826,0.395704 3.19089,1.196649 4.13678,4.666053 4.22561,7.731363 0,0 -5.25434,4.431646 -5.25434,4.431646 z"
         id="path3495"
         style="fill:#000080;fill-opacity:1;fill-rule:nonzero;stroke:none" />
      <path
         transform="translate(0,284.36218)"
         inkscape:connector-curvature="0"
         d="m 290.59227,70.721638 c -2.9205,5.567804 -2.90033,11.819206 -2.34818,17.914132 0.93992,6.894761 3.36516,12.80112 7.89531,18.0628 2.56927,2.81016 6.16976,4.10826 9.32924,6.05074 0.16888,0.72407 0.17166,0.42249 0.12336,0.89632 0,0 -0.0955,0.13045 -0.0955,0.13045 l 0,0 c -1.997,2.16377 -0.87712,1.2082 -3.36968,2.85487 -0.58407,0.13307 -1.15519,0.35004 -1.75221,0.3992 -3.89897,0.32102 -7.23557,-2.26288 -9.88464,-4.76679 -4.69653,-5.47506 -7.11011,-11.30317 -8.1903,-18.450284 -0.64019,-6.191994 -0.79376,-12.598977 2.05279,-18.323156 0,0 6.23983,-4.768282 6.23983,-4.768282 z"
         id="path3497"
         style="fill:#000080;fill-opacity:1;fill-rule:nonzero;stroke:none" />
      <path
         transform="translate(0,284.36218)"
         inkscape:connector-curvature="0"
         d="m 290.56217,46.376168 c 3.08499,-2.062582 5.9334,-2.241678 8.67359,0.379093 0.56775,1.02377 0.85831,1.248919 0.88167,2.456303 0.073,3.774952 -5.37843,8.160907 -8.36572,9.477762 -2.57635,0.574262 -5.12811,-0.341774 -6.47729,-2.629213 -0.4487,-2.105385 0.90535,-3.222218 2.16061,-4.787974 0,0 0.12484,-0.102745 0.12484,-0.102745 l 0,0 c 1.23117,-0.563806 1.7833,-1.040032 2.94724,-0.293681 1.89663,1.261655 3.82815,2.424623 6.14495,1.469188 2.72335,-1.762143 2.23998,-1.559163 -3.61353,4.139007 -0.28965,0.281962 0.52353,-0.623846 0.71308,-0.980877 0.58014,-1.092767 0.50984,-2.1327 -0.0615,-3.199439 -2.37547,-2.480777 -5.1337,-1.74903 -7.61595,0.231235 0,0 4.488,-6.158659 4.488,-6.158659 z"
         id="path3499"
         style="fill:#000080;fill-opacity:1;fill-rule:nonzero;stroke:none" />
      <path
         transform="translate(0,284.36218)"
         inkscape:connector-curvature="0"
         d="m 347.60466,84.15136 c -1.86959,-4.257868 -4.27779,-6.355455 -8.63297,-7.854682 -5.28889,-1.14557 -10.42202,0.455982 -15.29878,2.413076 -1.98348,0.98685 -2.8444,1.314571 -4.6446,2.605055 -0.69544,0.498524 -2.55712,2.262102 -1.99037,1.621048 8.49977,-9.614201 2.89603,-2.577299 2.34301,-1.611657 -0.44163,0.771157 -0.73513,1.618172 -1.10269,2.427258 -1.61953,5.668415 -0.6418,11.64014 1.82437,16.935272 0.57542,1.23549 1.31218,2.38921 1.96827,3.58382 4.22617,6.29024 10.56147,10.14878 18.12444,10.96748 1.62974,0.17642 3.27729,0.0898 4.91593,0.13472 6.84112,-0.49798 13.36253,-2.7132 18.66529,-7.17013 1.28367,-1.07892 2.79282,-2.06308 3.56039,-3.55396 0.44304,-0.86053 -1.66346,0.98998 -2.49519,1.48497 3.53176,-6.255456 5.91641,-13.962911 3.03938,-20.988497 -0.43894,-1.071896 -1.15049,-2.010701 -1.72573,-3.016051 -2.04618,-2.687527 -4.71808,-4.215827 -7.82154,-5.383024 -0.93806,-0.352799 -1.94596,-0.516779 -2.85957,-0.928754 -4.57202,-2.061646 0.39769,-0.908457 -4.68438,-1.750713 0,0 0.10442,-0.123446 0.10442,-0.123446 l 0,0 c 1.16692,-0.236005 2.34385,-0.427046 3.50077,-0.708016 1.48138,-0.359766 2.90198,-0.986537 4.40949,-1.213067 3.5022,-0.526268 7.58239,0.268063 10.51529,2.295321 0.95834,0.662417 1.70719,1.585665 2.56079,2.378498 0.61559,1.056706 1.36956,2.044135 1.84678,3.17012 3.03286,7.155848 0.85067,15.065327 -2.63302,21.574899 -2.06396,2.3513 -8.24438,9.98014 -12.02501,12.99622 -5.47649,4.36899 -12.13083,6.46588 -19.05624,6.8628 -1.67285,-0.0704 -3.35663,-0.008 -5.01857,-0.21132 -7.75988,-0.94956 -14.26117,-4.97682 -18.63653,-11.41582 -0.68129,-1.21864 -1.44239,-2.39596 -2.04387,-3.6559 -2.57823,-5.4007 -3.66966,-11.490877 -2.27515,-17.355178 0.33483,-0.847881 0.59218,-1.73062 1.0045,-2.543644 3.13847,-6.188539 9.39452,-10.743838 15.55686,-13.629552 4.98349,-1.865212 10.23027,-3.286995 15.51575,-1.77835 4.45955,1.961885 6.80272,4.319618 8.3972,8.97622 0,0 -4.90872,4.464984 -4.90872,4.464984 z"
         id="path3501"
         style="fill:#000080;fill-opacity:1;fill-rule:nonzero;stroke:none" />
      <path
         transform="translate(0,284.36218)"
         inkscape:connector-curvature="0"
         d="m 383.92371,71.710396 c 2.4093,5.735801 4.81819,11.471822 7.2447,17.20058 2.24337,5.151409 4.41814,10.332576 6.64984,15.488924 1.63579,3.64427 1.98566,2.23723 -5.24375,6.35185 -0.33161,0.18873 -0.11421,-0.75452 -0.17032,-1.13193 -0.0721,-0.48466 -0.14279,-0.96952 -0.21419,-1.45428 -0.6433,-4.36149 -1.09046,-8.746037 -1.31661,-13.148181 -0.30998,-4.733086 0.32605,-9.234331 2.58919,-13.411724 5.40962,-7.778208 11.30677,-11.371014 19.82172,-14.006412 5.33986,-1.235669 11.28738,-1.793304 16.27228,1.021355 0.90052,0.508467 1.67716,1.210398 2.51573,1.815597 5.52146,5.610383 6.28631,13.50678 7.08809,20.95752 0.5929,7.3987 1.04209,14.805995 1.99789,22.169265 0.15182,2.38958 1.24724,5.152 0.56326,7.5667 -0.2097,0.74029 -1.05809,2.2053 -1.46069,2.93541 0,0 -0.11605,0.11257 -0.11605,0.11257 l 0,0 c -0.62415,0.26561 -1.89574,0.91631 -2.62572,0.76589 -1.63528,-0.33697 -2.14473,-5.05412 -2.3249,-6.15391 -0.93309,-7.38508 -1.38097,-14.81112 -1.95453,-22.23037 -0.74778,-7.212463 -1.37171,-14.958161 -6.677,-20.429684 -0.79504,-0.564527 -1.53039,-1.224321 -2.38513,-1.693581 -4.87531,-2.676599 -10.6859,-1.947365 -15.83566,-0.673307 -3.06921,1.014462 -6.02436,2.057923 -8.78198,3.787387 -0.74488,0.467158 -2.63376,2.266934 -2.1438,1.53685 1.02192,-1.522754 2.48266,-2.701845 3.78923,-3.988694 0.51801,-0.510186 -0.94682,1.103634 -1.42023,1.655451 -2.5261,4.118113 -3.13401,8.268908 -2.89033,13.070215 0.19983,4.371634 0.64051,8.724939 1.30428,13.051513 0.0743,0.47945 0.14617,0.95931 0.22305,1.43837 0.0602,0.37504 0.41865,0.82197 0.18814,1.12386 -5.80818,7.60704 -4.89124,8.46184 -6.65285,4.3858 -2.13713,-5.2336 -4.29692,-10.457823 -6.43981,-15.689061 -2.35497,-5.821126 -4.68345,-11.653172 -6.88727,-17.533573 0,0 5.29342,-4.8904 5.29342,-4.8904 z"
         id="path3503"
         style="fill:#000080;fill-opacity:1;fill-rule:nonzero;stroke:none" />
      <path
         transform="translate(0,284.36218)"
         inkscape:connector-curvature="0"
         d="m 461.66248,70.369871 c -3.39279,5.02104 -3.60365,10.404397 -3.03283,16.242041 1.09695,6.71029 4.02973,12.714671 8.52515,17.762678 2.50971,2.73364 5.91157,3.89699 9.20788,5.31026 0.8844,0.6697 0.11705,1.35401 -0.11434,2.17174 0,0 -0.10029,0.12683 -0.10029,0.12683 l 0,0 c -1.1962,1.01004 -2.32679,2.16667 -3.94069,2.43997 -4.18706,0.25102 -7.73464,-1.54545 -10.69545,-4.47311 -4.69049,-5.31043 -7.5545,-11.264492 -8.65217,-18.312509 -0.59236,-6.081729 -0.36289,-11.659893 3.05492,-16.948994 0,0 5.74782,-4.318906 5.74782,-4.318906 z"
         id="path3505"
         style="fill:#000080;fill-opacity:1;fill-rule:nonzero;stroke:none" />
      <path
         transform="translate(0,284.36218)"
         inkscape:connector-curvature="0"
         d="m 456.61618,42.443077 c 2.54876,-1.896665 5.72901,-2.741221 8.68917,-1.185765 0.62286,0.32729 1.15245,0.807548 1.72868,1.211323 3.42878,3.430701 4.43011,7.312505 3.46437,11.984868 -2.20359,4.534966 -6.83329,10.751744 -12.35406,9.973195 -0.63901,-0.09011 -1.24316,-0.346956 -1.86474,-0.520434 -3.92506,-1.920969 -5.79709,-5.611701 -6.24719,-9.800937 0.17017,-4.072096 2.84991,-6.311331 6.36563,-8.591307 0.22826,-0.148028 0.54156,0.789526 1.03566,2.0683 0,0 -0.10775,0.120552 -0.10775,0.120552 l 0,0 c -0.7078,0.226243 -1.44215,0.381978 -2.12341,0.67873 -0.63502,0.276613 -2.13511,1.640072 -1.80365,1.031879 0.70928,-1.301421 1.99745,-2.190603 3.01994,-3.263581 0.18288,-0.191903 -0.3879,0.378343 -0.49956,0.618763 -0.38458,0.828063 -0.26646,1.507245 -0.26354,2.402248 0.62452,3.771681 2.13127,7.298802 5.82776,8.945396 1.44533,0.340105 1.8479,0.609667 3.3334,0.280798 0.54241,-0.120081 1.85306,-1.06572 1.5564,-0.596023 -1.04066,1.647646 -2.6363,2.871185 -3.91966,4.337703 -0.4024,0.459824 0.90846,-0.828016 1.27567,-1.316396 0.37943,-0.504621 0.63156,-1.093417 0.94734,-1.640126 1.35594,-4.533221 0.55286,-8.019058 -2.61836,-11.576741 -0.50911,-0.381043 -0.97101,-0.835058 -1.52732,-1.143131 -2.74444,-1.519825 -5.67855,-0.416557 -7.91707,1.42912 0,0 4.00229,-5.448434 4.00229,-5.448434 z"
         id="path3507"
         style="fill:#000080;fill-opacity:1;fill-rule:nonzero;stroke:none" />
      <path
         transform="translate(0,284.36218)"
         inkscape:connector-curvature="0"
         d="m 482.78257,83.178618 c 5.20922,1.411952 10.52545,2.041767 15.91027,2.022518 5.73419,-0.415013 10.41267,-1.582251 14.68555,-5.55929 -1.39196,1.255013 -2.56148,2.813059 -4.1759,3.76504 -0.55124,0.325052 0.60045,-1.141266 0.77192,-1.757808 0.16772,-0.603039 0.24988,-1.237253 0.23512,-1.863007 -0.0538,-2.279127 -1.20488,-3.573531 -2.72213,-5.091078 -5.31819,-3.342063 -11.34694,-1.817368 -16.80706,0.300402 0.92387,-2.404462 -6.48846,5.180395 -5.32735,3.418636 0.86432,-1.311446 1.98834,-2.575103 3.40139,-3.260832 0.86376,-0.419165 -1.16499,1.53797 -1.60721,2.39015 -1.21535,2.342029 -1.13203,3.234661 -1.53778,5.832006 -0.0701,6.152904 2.1467,12.117489 6.32581,16.680525 0.85586,0.93448 1.86178,1.71951 2.79267,2.57927 7.30994,5.26431 14.89225,4.53776 23.25778,2.89746 3.22802,-0.76011 6.42477,-1.64195 9.63237,-2.48086 1.58296,-0.41401 2.73446,-1.1566 3.83552,0.2546 0,0 -0.10039,0.12674 -0.10039,0.12674 l 0,0 c -1.90172,1.39526 -2.8974,2.22393 -5.00525,3.35689 -4.1672,2.23986 -8.80709,3.61973 -13.35412,4.81349 -8.62523,1.57104 -16.36203,2.08204 -23.8142,-3.37669 -0.96114,-0.89051 -1.99743,-1.70623 -2.88342,-2.67153 -4.30503,-4.69036 -6.65382,-10.792773 -6.77288,-17.121611 0.1231,-1.072473 0.13549,-2.16353 0.36931,-3.217419 1.60042,-7.213521 9.1278,-13.091414 15.53729,-16.198349 5.76719,-2.03263 11.9782,-3.307441 17.4224,0.307317 2.21348,2.174722 3.75854,4.228165 3.1559,7.541955 -0.11971,0.658249 -0.21674,1.381982 -0.63527,1.903953 -2.01656,2.514954 -4.38439,4.726861 -6.57658,7.090291 -4.39987,3.62464 -9.43855,4.973089 -15.09751,5.182144 -5.39505,-0.06299 -10.72503,-0.73599 -15.89549,-2.34453 0,0 4.97924,-5.520383 4.97924,-5.520383 z"
         id="path3509"
         style="fill:#000080;fill-opacity:1;fill-rule:nonzero;stroke:none" />
      <path
         transform="translate(0,284.36218)"
         inkscape:connector-curvature="0"
         d="m 537.39481,102.2772 c -1.36161,-5.483657 -2.94767,-10.892082 -4.06273,-16.436007 -1.0461,-5.625458 -1.15863,-10.899353 1.0726,-16.220531 1.14251,-1.786797 1.13894,-2.013892 2.68844,-3.498033 6.67101,-6.389614 7.10519,-7.609236 14.60796,-9.935681 5.14652,-1.401809 10.37357,-1.122318 15.5244,0.0038 3.89936,0.993789 7.46502,2.763452 9.66259,6.218544 0.24061,2.42761 0.33567,1.160381 -0.46222,3.784243 0,0 -0.11666,0.111941 -0.11666,0.111941 l 0,0 c -2.31134,0.423147 -1.17706,0.384817 -3.40087,0.163132 -3.65945,-1.440533 -7.13228,-3.388784 -10.9756,-4.337519 -5.06123,-1.045406 -10.18276,-1.236296 -15.19701,0.252663 -2.15118,0.727918 -2.85644,0.871102 -4.86166,1.922504 -0.72079,0.377938 -2.50005,1.961259 -2.09374,1.256066 0.9285,-1.611504 2.55882,-2.703099 3.75029,-4.131189 0.92852,-1.112909 -4.11897,4.025491 -2.85648,3.278239 -2.57225,5.319419 -2.36067,10.186951 -1.4978,15.940749 1.06556,5.544529 2.61673,10.95057 4.12464,16.387094 0,0 -5.90615,5.239975 -5.90615,5.239975 z"
         id="path3511"
         style="fill:#000080;fill-opacity:1;fill-rule:nonzero;stroke:none" />
      <path
         transform="translate(0,284.36218)"
         inkscape:connector-curvature="0"
         d="m 580.22714,63.465883 c 0.62435,6.858328 2.29306,13.522155 4.56449,20.003418 2.00494,4.60481 4.40068,9.771206 8.97709,12.388944 0.66554,0.380695 1.41487,0.591298 2.12231,0.886947 2.30752,0.46681 4.39089,0.105439 6.34011,-1.267483 0.69293,-0.488067 2.54562,-2.238404 1.893,-1.697606 -3.98513,3.30233 -4.25085,4.427385 -1.79225,0.213738 2.94795,-6.153267 3.69837,-12.917955 3.91252,-19.648305 -0.2857,-2.951899 0.2303,-6.272536 -0.85858,-9.114724 -1.35287,1.825307 3.11007,-2.835151 4.90584,-3.904281 0.35153,-0.209283 -0.2258,0.789091 -0.28375,1.194075 -0.3082,2.153836 -0.008,4.291378 0.23768,6.431405 0.99665,6.94954 3.83684,13.292998 7.35791,19.292149 3.0111,4.880266 6.97714,9.001117 11.13169,12.9038 0.70713,0.91842 2.76837,2.12528 2.55592,3.58903 -0.57278,3.94636 -1.02541,0.81666 -0.73248,2.4864 0,0 -0.11166,0.11693 -0.11166,0.11693 l 0,0 c -2.34345,0.20805 2.79085,-0.32725 -2.74154,1.08878 -1.60109,0.40981 -3.1398,-1.13666 -4.31147,-1.8833 -4.38194,-3.77808 -8.22852,-8.138036 -11.33508,-13.031184 -3.59052,-6.084239 -6.4732,-12.539198 -7.49926,-19.5933 -0.12734,-1.119333 -0.7971,-7.138436 0.004,-8.089158 5.29797,-6.28555 3.73072,-7.491089 6.04275,-5.409312 1.16502,2.913195 0.79825,6.287166 1.03357,9.338007 -0.12993,6.755026 -0.86553,13.556179 -3.57708,19.818838 -2.84253,5.423555 -1.29508,3.060899 -8.36169,10.178002 -2.47718,2.494867 -5.65325,3.405967 -9.05464,2.657017 -0.7657,-0.32013 -1.57347,-0.55401 -2.2971,-0.96038 -4.76655,-2.676756 -7.22763,-7.999685 -9.22801,-12.80777 -2.24859,-6.651681 -3.75306,-13.50556 -4.2507,-20.524992 0,0 5.35617,-4.655685 5.35617,-4.655685 z"
         id="path3513"
         style="fill:#000080;fill-opacity:1;fill-rule:nonzero;stroke:none" />
      <path
         transform="translate(0,284.36218)"
         inkscape:connector-curvature="0"
         d="m 634.21978,72.323018 c 2.957,5.090013 5.89282,10.192359 8.79103,15.316082 1.8618,3.075227 3.50705,6.294883 5.49914,9.290878 0.0668,0.05801 0.26668,0.115354 0.20045,0.174037 -1.83389,1.624943 -3.63539,3.313455 -5.67269,4.674715 -0.24249,0.16203 -4.3e-4,-0.5835 -0.0144,-0.87481 -0.085,-1.778018 -0.19088,-3.543704 -0.23152,-5.32494 -0.0728,-6.137661 0.85908,-12.198748 2.36274,-18.130909 2.01542,-6.190583 6.12575,-12.617019 12.31012,-15.368766 0.62606,-0.278563 1.30774,-0.409844 1.96161,-0.614766 5.49814,-0.747989 9.49959,2.699368 12.97897,6.486935 4.16685,5.111487 6.20901,11.288597 7.54698,17.641267 0.66405,4.510747 1.15476,9.170926 -0.13256,13.601326 -1.36276,2.464863 -0.87578,1.328483 -1.60566,3.343403 0,0 -0.12233,0.10572 -0.12233,0.10572 l 0,0 c -0.88421,-0.63021 -0.33056,-0.38712 -1.75518,-0.45826 -1.95197,-2.737156 -1.27844,-8.105811 -2.30248,-11.326811 -1.24453,-6.236127 -3.17499,-12.311334 -7.25456,-17.327103 -3.29707,-3.572837 -7.11932,-6.898167 -12.3243,-5.827985 -0.60543,0.241151 -1.24281,0.41392 -1.81631,0.723452 -0.59772,0.322609 -9.46088,6.971742 2.27623,-2.902455 0.60988,-0.513081 -0.99374,1.250955 -1.41335,1.928549 -1.21426,1.960832 -1.44778,2.900472 -2.27822,5.078919 -1.63084,5.863967 -2.59506,11.887578 -2.53797,17.991645 0.0363,1.770564 0.12046,3.521197 0.24716,5.286797 0.0232,0.323244 0.27966,0.722574 0.07,0.969702 -1.75767,2.0719 -3.75671,3.93319 -5.77368,5.75363 -0.0999,0.0902 -0.16508,-0.21267 -0.24763,-0.31901 -1.85785,-3.14159 -3.29595,-6.528065 -5.15381,-9.672069 -2.84346,-5.195591 -5.65547,-10.408513 -8.45946,-15.625444 0,0 4.85163,-4.593729 4.85163,-4.593729 z"
         id="path3515"
         style="fill:#000080;fill-opacity:1;fill-rule:nonzero;stroke:none" />
      <path
         transform="translate(0,284.36218)"
         inkscape:connector-curvature="0"
         d="m 697.52174,83.164885 c 0.47218,-3.900167 0.20703,-8.135028 -1.64325,-11.686608 -0.36152,-0.693932 -0.86084,-1.306866 -1.29126,-1.960299 -4.20981,-4.15863 -7.35568,-3.316581 -11.80955,-0.102058 1.01662,-0.957982 1.71719,-2.455344 3.04986,-2.873945 0.92463,-0.29043 -1.15368,1.566111 -1.60935,2.421473 -2.17227,4.077614 -2.09671,7.459428 -1.33368,11.854298 1.41861,4.206326 4.05845,8.760322 8.67843,10.012996 0.76379,0.207095 1.57162,0.187231 2.35742,0.280846 0.78792,-0.119725 1.59564,-0.146702 2.36376,-0.359175 1.58552,-0.438578 3.08931,-1.299143 4.39595,-2.275927 0.66245,-0.495218 2.43686,-2.232753 1.8721,-1.628499 -7.08057,7.575611 -3.3767,3.203652 -2.19927,1.771392 1.67904,-1.999337 2.69064,-4.468581 4.33214,-6.486556 6.22059,-5.940552 5.7589,-7.741699 10.0386,-1.923252 3.90744,6.170111 6.78056,12.925878 9.6409,19.624327 3.12533,7.789452 6.22692,15.800122 6.85908,24.255622 0.12231,1.63603 0.0576,3.2807 0.0864,4.92105 -0.54778,8.61562 -3.57795,16.82463 -8.67595,23.79845 -1.02101,1.39669 -2.20249,2.66868 -3.30373,4.00301 -6.10511,6.32858 -12.5576,13.50032 -21.96299,14.10353 -4.13948,0.26548 -5.20327,-0.42884 -9.13818,-1.58536 -9.62354,-4.45451 -15.83472,-12.91625 -20.79044,-21.96471 -1.96038,-4.44348 -4.55824,-10.07572 -2.07934,-14.88195 0.35221,-0.6829 0.88874,-1.2537 1.33311,-1.88054 3.26789,-3.32189 6.0621,-7.4405 11.00881,-7.50676 0.69959,-0.009 1.44073,-0.01 2.08129,0.27187 0.602,0.26448 0.99147,0.86392 1.48721,1.29588 0,0 -0.10442,0.12345 -0.10442,0.12345 l 0,0 c -12.26836,4.9551 3.39827,-1.30791 -6.96688,2.65843 -0.89783,0.34357 -1.79863,0.68651 -2.66266,1.10792 -0.77051,0.37579 -2.57849,2.06273 -2.23124,1.27894 0.66006,-1.48985 2.18218,-2.42062 3.27327,-3.63093 -0.42256,0.51937 -0.92979,0.98007 -1.26769,1.55811 -2.61442,4.47242 0.0815,10.0231 1.82855,14.22557 4.78127,8.91618 10.83856,17.26228 20.34072,21.53098 5.16224,1.41189 7.86992,2.16179 13.19521,0.41427 1.44577,-0.47443 2.8393,-1.12111 4.1658,-1.86659 1.39288,-0.7828 2.42058,-2.27369 3.96035,-2.7003 0.87146,-0.24144 -1.15773,1.38946 -1.73659,2.08419 1.12291,-1.31249 2.3261,-2.56034 3.36874,-3.93746 5.19409,-6.86038 8.39221,-15.01506 9.12909,-23.58104 -0.003,-1.62406 0.0896,-3.25114 -0.009,-4.87218 -0.51397,-8.40869 -3.57853,-16.38747 -6.70671,-24.11039 -2.83969,-6.630833 -5.67402,-13.337923 -9.6158,-19.405966 -0.70675,-0.954866 -1.43734,-2.172749 -2.49599,-2.809028 -0.70969,-0.42654 -1.01215,0.12762 -0.8453,-0.05006 1.6367,-1.742961 3.36259,-3.399956 5.04389,-5.099934 -2.02563,1.724259 -2.7758,4.578163 -4.53411,6.541672 -3.27829,4.214926 -9.03791,11.127985 -14.92784,12.408729 -0.83003,0.180489 -1.6904,0.16938 -2.5356,0.25407 -0.84099,-0.134598 -1.7065,-0.161432 -2.52298,-0.403792 -4.90465,-1.455865 -7.67357,-6.032468 -9.11891,-10.622464 -0.17988,-1.056596 -0.4559,-2.101267 -0.53965,-3.16979 -0.29465,-3.759606 0.7814,-8.989295 3.37504,-11.888587 2.16177,-2.416531 4.58613,-4.584627 6.8792,-6.87694 0.72775,-0.45408 1.40811,-0.994849 2.18324,-1.362239 3.78881,-1.795788 7.60827,-0.70426 10.26048,2.39707 2.80819,4.5155 3.78441,8.834703 3.1548,14.138964 0,0 -5.08462,4.166223 -5.08462,4.166223 z"
         id="path3517"
         style="fill:#000080;fill-opacity:1;fill-rule:nonzero;stroke:none" />
    </g>
    <g
       id="g4091"
       transform="matrix(1.2838912,0.03985674,-0.03985674,1.2838912,-102.52015,-151.69208)">
      <path
         transform="translate(0,284.36218)"
         inkscape:connector-curvature="0"
         d="m 145.43277,359.84327 c 2.73069,-4.22726 6.20554,-8.32835 10.40721,-11.11328 1.79031,-1.05565 3.45645,-0.88485 5.21782,0.0709 1.89096,1.24035 3.03777,3.17439 4.03072,5.14772 0.8587,1.8783 1.40578,3.86585 1.466,5.93114 -0.45509,3.91235 -4.10687,6.81904 -7.26293,8.79971 -1.70313,0.94134 -3.59695,1.34671 -5.50916,1.57609 -1.74176,0.14939 -3.4906,0.0111 -5.19636,-0.35371 -1.68336,-0.3565 -2.89205,-1.37085 -3.91564,-2.69809 -1.06607,-1.56226 -1.54442,-3.37852 -1.7677,-5.23233 -0.15381,-1.47465 0.13396,-2.83777 0.90053,-4.09586 1.91994,-2.32151 1.29987,-1.6077 5.83982,-5.75002 0.25146,-0.22944 1.15023,-0.19948 1.34713,0.11224 0.1267,0.20059 0.113,0.46086 0.1695,0.69129 0.041,1.39652 -0.31924,1.02463 1.0561,1.1391 0,0 -0.10564,0.12241 -0.10564,0.12241 l 0,0 c -1.78948,-0.0381 -0.77021,-0.21021 -2.90166,1.0942 -1.03917,0.67322 -2.1502,1.28031 -3.16664,1.98818 -0.20224,0.14084 -0.75257,0.63402 -0.5816,0.45651 3.57054,-3.7071 6.25608,-6.11904 4.21147,-4.27381 -0.87158,1.05707 -1.26405,2.29024 -1.19608,3.66774 0.10633,1.75471 0.47303,3.48241 1.43477,4.98397 0.88987,1.20834 1.95933,2.09237 3.4609,2.42242 1.6397,0.34225 3.3147,0.4366 4.98194,0.23322 1.82086,-0.25094 3.62361,-0.69033 5.18157,-1.71117 2.25605,-1.74518 0.96006,-0.78983 -3.65484,3.88451 -0.7236,0.73292 2.4309,-2.73697 1.37641,-2.54071 0.10228,-1.99 -0.42391,-3.90434 -1.21632,-5.72295 -0.87931,-1.86496 -1.92079,-3.7083 -3.69553,-4.85931 -1.64201,-0.80445 -3.08147,-0.66319 -4.61875,0.3738 -2.38639,1.75171 -1.00478,0.8149 2.84262,-3.19792 1.65747,-1.72873 -5.64502,5.89257 -3.99832,4.92063 0,0 -5.13734,3.9334 -5.13734,3.9334 z"
         id="path4051"
         style="fill:#ff6600;fill-opacity:1;fill-rule:nonzero;stroke:none" />
      <path
         transform="translate(0,284.36218)"
         inkscape:connector-curvature="0"
         d="m 181.78432,357.3388 c 5.6524,-1.38881 11.38444,-2.42437 17.09361,-3.54785 9.32055,-1.9997 18.72867,-3.47172 28.1917,-4.58988 10.86418,-1.15293 21.78705,-1.56281 32.69739,-2.01129 6.17639,-0.17616 12.35373,-0.68091 18.53567,-0.5781 3.10145,0.25334 2.56633,1.21511 0.72887,3.27483 0,0 -0.12589,0.10145 -0.12589,0.10145 l 0,0 c -1.83215,1.29541 -2.6616,1.79838 -5.06028,1.87308 -6.24222,0.44331 -12.50302,0.57951 -18.75398,0.84832 -10.89835,0.4361 -21.81025,0.8374 -32.65661,2.05092 -9.46906,1.14384 -18.87653,2.67072 -28.20181,4.68808 -5.62884,1.10648 -11.27158,2.14816 -16.88091,3.35039 0,0 4.43224,-5.45995 4.43224,-5.45995 z"
         id="path4053"
         style="fill:#ff6600;fill-opacity:1;fill-rule:nonzero;stroke:none" />
      <path
         transform="translate(0,284.36218)"
         inkscape:connector-curvature="0"
         d="m 278.31134,335.07225 c 4.74064,1.57777 9.08854,4.05599 13.3339,6.64638 3.73479,2.31535 7.24903,4.95649 10.41251,8.00567 1.33978,1.45038 2.79349,2.96593 3.41642,4.88408 0.26476,4.38595 -6.06726,6.88996 -9.54029,8.5092 -5.73613,2.61201 -11.55065,5.04344 -17.38263,7.43171 -4.53069,1.82721 -9.06464,3.65151 -13.48928,5.72541 -0.87261,0.15478 -3.1761,2.20137 -1.69947,-0.0335 0,0 2.18796,-2.85572 2.18796,-2.85572 l 0,0 c 1.18449,-1.38705 2.45138,-2.43857 4.18882,-3.0936 4.4277,-2.02031 8.94908,-3.82115 13.46342,-5.63713 5.80767,-2.36801 11.59448,-4.78889 17.30181,-7.39137 0.77936,-0.36989 2.09896,-0.97001 2.8966,-1.43226 0.27064,-0.15684 0.98955,-0.7539 0.78008,-0.5216 -1.48969,1.65211 -3.0915,3.19956 -4.63725,4.79934 0.44389,-0.32561 0.30372,-0.11947 0.46121,-0.58869 -0.31257,-1.8544 -1.97416,-3.24565 -3.11386,-4.61353 -3.10289,-3.02786 -6.57131,-5.64027 -10.21968,-7.97924 -4.13208,-2.59744 -8.3577,-5.10226 -12.93855,-6.83508 0,0 4.57828,-5.02008 4.57828,-5.02008 z"
         id="path4055"
         style="fill:#ff6600;fill-opacity:1;fill-rule:nonzero;stroke:none" />
      <path
         transform="translate(0,284.36218)"
         inkscape:connector-curvature="0"
         d="m 346.35234,352.46698 c -2.19564,-2.15855 -4.6494,-3.74158 -7.70786,-4.21818 -2.86797,-0.1613 -5.56525,0.78486 -8.10785,2.0124 -0.4225,0.24787 -0.8548,0.47974 -1.26749,0.74361 -0.81696,0.52237 -1.52846,1.05808 -2.23992,1.71744 -0.33248,0.30813 -1.28012,1.2838 -0.95135,0.97173 4.11784,-3.9088 5.03452,-5.43041 3.37668,-2.93543 -1.38711,2.5363 -0.20586,4.78384 1.24189,6.97503 2.55935,3.41497 6.04981,5.68027 9.97771,7.20484 3.95452,1.09233 6.41587,0.91565 9.24311,-2.17605 -1.50541,1.36136 -2.78422,3.02592 -4.51623,4.08408 -0.57574,0.35176 0.60926,-1.20725 0.84324,-1.84007 1.00498,-2.71812 1.16318,-5.55423 1.10378,-8.41619 -0.14372,-1.61549 -0.41839,-3.23204 -0.95393,-4.76827 -0.35812,-1.0273 -0.75968,-1.43591 -0.77734,-2.57573 -0.009,-0.58994 0.1484,-1.17066 0.2226,-1.75598 -0.32327,-0.10412 -0.64653,-0.20823 -0.96979,-0.31234 0,0 0.10794,-0.12037 0.10794,-0.12037 l 0,0 c 0.36138,0.0647 0.72277,0.12932 1.08415,0.19398 0.76064,-0.27106 1.48759,-0.66803 2.28193,-0.81319 3.03545,-0.55473 4.50745,2.64462 4.91076,5.05756 0.2227,2.915 0.12838,5.75587 -0.74551,8.57668 -0.20579,0.66428 -0.31307,1.40442 -0.74673,1.94807 -2.02379,2.53712 -4.36795,4.80123 -6.55192,7.20184 -3.22223,2.79517 -5.9339,2.80958 -9.91768,1.54116 -3.99232,-1.72956 -7.55134,-4.16536 -10.06789,-7.79092 -1.54752,-2.5042 -2.73317,-5.09104 -1.35986,-7.96263 2.47326,-4.05102 6.38017,-7.5994 10.6259,-9.7925 2.60418,-1.06536 5.32767,-1.87056 8.17371,-1.49849 3.09148,0.70262 5.51618,2.47348 7.5939,4.8537 0,0 -3.90595,3.89422 -3.90595,3.89422 z"
         id="path4057"
         style="fill:#ff6600;fill-opacity:1;fill-rule:nonzero;stroke:none" />
      <path
         transform="translate(0,284.36218)"
         inkscape:connector-curvature="0"
         d="m 372.46084,354.83546 c 6.18363,-1.07154 12.26832,-2.57589 18.30891,-4.26251 10.10342,-3.18749 20.25085,-6.15734 30.59442,-8.45946 9.14842,-2.06442 18.4789,-2.63944 27.82342,-2.369 4.56754,0.21649 9.11535,0.70229 13.66296,1.16173 1.13291,0.17845 2.56167,-0.0273 2.57027,1.39679 -0.29001,1.06944 -1.18106,1.85537 -1.84728,2.71074 0,0 -0.12713,0.0999 -0.12713,0.0999 l 0,0 c -0.45672,-0.21348 -0.77421,0.0658 -1.17983,0.3005 -1.08026,0.7946 -2.53869,0.5537 -3.79122,0.51984 -4.53954,-0.38421 -9.06342,-0.95921 -13.6181,-1.15088 -9.26425,-0.30379 -18.51345,0.31289 -27.58456,2.34031 -10.36329,2.33572 -20.5235,5.36791 -30.64674,8.57954 -6.08806,1.72316 -12.21662,3.28861 -18.45784,4.36093 0,0 4.29272,-5.22843 4.29272,-5.22843 z"
         id="path4059"
         style="fill:#ff6600;fill-opacity:1;fill-rule:nonzero;stroke:none" />
      <path
         transform="translate(0,284.36218)"
         inkscape:connector-curvature="0"
         d="m 463.42672,359.62626 c 0.42475,-0.32503 0.85694,-0.64054 1.27424,-0.97507 1.09442,-0.87733 2.0063,-1.66955 3.02555,-2.63964 0.51906,-0.49404 2.04377,-2.00961 1.52574,-1.51449 -0.99178,0.94791 -1.90417,1.98166 -2.94711,2.87298 -0.5376,0.45944 0.94984,-1.04797 1.42477,-1.57195 2.44965,-2.76589 4.7511,-5.65941 6.9751,-8.60853 0.99913,-1.52373 2.52218,-2.97354 2.73424,-4.86208 -0.76197,-2.32123 -3.23221,-3.7714 -5.11417,-5.13388 -2.90897,-2.13074 -6.05214,-3.79295 -9.54797,-4.68039 -2.66263,-0.59281 -5.41833,-0.0273 -8.07332,-0.58507 -0.80918,-0.98269 -0.50903,-0.40655 -0.82544,-1.76546 0,0 0.10446,-0.12341 0.10446,-0.12341 l 0,0 c 2.74845,-1.51615 1.39112,-0.82004 4.06518,-2.10157 3.04932,-0.87779 6.19249,-1.25581 9.32552,-0.53388 3.55499,0.96776 6.74087,2.68337 9.64963,4.95129 2.05758,1.56266 4.48169,3.16392 5.47521,5.64802 0.20163,2.07257 -1.44673,3.66314 -2.54717,5.26442 -2.28098,2.9898 -4.61896,5.93978 -7.09897,8.76782 -4.07618,4.5573 -8.36498,9.01934 -13.26913,12.69624 0,0 3.84364,-5.10535 3.84364,-5.10535 z"
         id="path4061"
         style="fill:#ff6600;fill-opacity:1;fill-rule:nonzero;stroke:none" />
      <path
         transform="translate(0,284.36218)"
         inkscape:connector-curvature="0"
         d="m 520.25926,342.52449 c -3.04623,-2.19706 -6.36042,-3.90966 -9.9064,-5.12552 -3.05409,-0.98045 -6.09798,-0.99232 -9.11544,0.0379 -0.9263,0.46614 -1.36906,0.61288 -2.15073,1.30018 -0.30285,0.26628 -1.124,1.15561 -0.82599,0.88393 1.41804,-1.29276 2.66519,-2.78215 4.18835,-3.94922 0.32656,-0.25021 -0.38038,0.73418 -0.50432,1.12647 -0.14168,0.44846 -0.19197,0.92081 -0.28795,1.38122 -0.30962,4.33462 1.47174,8.25874 3.64353,11.88569 2.89558,4.23461 6.49532,6.60048 11.45826,7.6902 2.98705,0.2969 5.88225,-0.35539 8.27598,-2.23237 0.57869,-0.45376 2.14538,-2.01165 1.59241,-1.52687 -1.39199,1.22035 -2.74031,2.48963 -4.11047,3.73444 2.423,-3.75994 2.67596,-8.02531 1.91617,-12.31027 0.0234,-1.8304 -1.66186,-3.15795 -1.97482,-4.84987 -0.36582,-1.97778 0.58668,-1.02826 -0.84204,-1.97466 0,0 0.10642,-0.12171 0.10642,-0.12171 l 0,0 c 2.29852,-0.3931 1.04704,-0.0855 3.71948,-1.05479 2.20625,-0.42604 3.59754,1.36884 4.47201,3.08675 1.3379,4.23144 1.04755,8.5745 -1.09639,12.51851 -5.63289,6.01541 -8.68809,11.52587 -17.33766,10.63061 -5.14719,-1.28317 -8.80393,-3.8426 -11.70921,-8.3411 -2.17156,-3.87692 -3.88821,-8.05884 -3.62525,-12.59437 0.68263,-4.43434 1.98652,-4.32754 6.23359,-8.73804 0.85403,-0.88689 1.96434,-1.41872 3.10659,-1.82448 3.13128,-0.82621 6.25405,-0.69522 9.33698,0.35522 3.57056,1.29992 6.92668,3.03852 9.99352,5.29919 0,0 -4.55662,4.713 -4.55662,4.713 z"
         id="path4063"
         style="fill:#ff6600;fill-opacity:1;fill-rule:nonzero;stroke:none" />
      <path
         transform="translate(0,284.36218)"
         inkscape:connector-curvature="0"
         d="m 550.29889,347.69745 c 6.10235,-0.74275 12.18018,-1.66898 18.25074,-2.63358 10.45635,-1.73229 20.87154,-3.69526 31.34449,-5.32763 6.34437,-0.87667 12.73583,-1.88564 19.15993,-1.64413 1.47872,0.10608 3.22084,0.0932 2.82641,1.96201 -1.05325,1.41264 -0.56249,0.76117 -1.46961,1.95643 0,0 -0.12634,0.1009 -0.12634,0.1009 l 0,0 c -0.65024,-0.012 -0.2429,-0.0653 -1.13474,0.48092 -1.35974,0.67925 -2.97214,0.46257 -4.43776,0.59154 -6.44003,0.32461 -12.86749,0.87388 -19.23911,1.8957 -10.49191,1.66904 -20.93339,3.62293 -31.40605,5.40597 -6.09593,0.9959 -12.19794,1.97194 -18.33421,2.689 0,0 4.56625,-5.47713 4.56625,-5.47713 z"
         id="path4065"
         style="fill:#ff6600;fill-opacity:1;fill-rule:nonzero;stroke:none" />
      <path
         transform="translate(0,284.36218)"
         inkscape:connector-curvature="0"
         d="m 629.18295,359.73618 c 2.41535,-1.92977 4.74497,-3.96653 6.97099,-6.11212 0.60396,-0.58214 2.39084,-2.35419 1.7902,-1.76863 -0.95257,0.92865 -1.89734,1.86529 -2.84601,2.79793 2.56561,-2.66499 4.96067,-5.48665 7.21819,-8.41548 1.1591,-1.50797 2.34273,-2.91134 1.64819,-4.84399 -1.5756,-2.53192 -4.39632,-3.41701 -7.137,-4.08705 -3.91037,-0.61622 -7.86145,-0.71376 -11.57081,-2.19396 -1.4446,-1.84553 -0.69368,-0.9713 -2.24542,-2.62897 0,0 0.1075,-0.12077 0.1075,-0.12077 l 0,0 c 3.6062,-0.60835 1.75645,-0.24146 5.54506,-1.12156 4.29331,-0.13488 8.62717,0.0566 12.85858,0.83443 2.95626,0.76101 5.90001,1.83407 7.63834,4.5161 1.06891,2.34168 0.24839,3.53596 -1.23957,5.46453 -2.36774,3.04058 -4.8624,5.98307 -7.54457,8.75265 -4.80885,4.8307 -9.52471,9.79619 -14.94684,13.95905 0,0 3.75317,-5.03216 3.75317,-5.03216 z"
         id="path4067"
         style="fill:#ff6600;fill-opacity:1;fill-rule:nonzero;stroke:none" />
      <path
         transform="translate(0,284.36218)"
         inkscape:connector-curvature="0"
         d="m 688.3362,335.11675 c -3.22204,-1.90466 -6.76938,-2.90763 -10.48595,-3.09846 -3.29301,-0.006 -6.21867,1.22741 -8.90528,3.02865 -0.5184,0.43603 -8.4937,7.19334 2.63857,-2.7438 0.32891,-0.29361 -0.56756,0.67794 -0.8057,1.04899 -0.80603,1.25589 -0.99707,2.4314 -1.1147,3.88667 0.24899,3.76166 2.55083,6.42522 5.60244,8.36818 4.49205,2.12935 9.03919,1.0028 13.30484,-1.0468 -0.9337,1.50938 4.69377,-3.84989 3.57097,-2.82779 -1.35582,1.23423 -2.50398,2.73559 -4.04878,3.72309 -0.569,0.36373 0.71958,-1.1488 0.98985,-1.76768 0.66763,-1.52874 0.63395,-2.14941 0.84738,-3.77379 0.20169,-3.26547 -1.10715,-6.0738 -2.54535,-8.88686 -0.73117,-1.77796 0.7955,-2.28178 -1.2716,-2.65624 0,0 0.10597,-0.12212 0.10597,-0.12212 l 0,0 c 1.79178,-0.0152 2.98674,-1.02585 4.79635,-0.91741 0.43848,0.16028 0.91299,0.24422 1.31545,0.48083 2.44089,1.43505 3.15823,4.66197 3.42125,7.22157 -0.0958,1.73546 -0.002,2.27826 -0.60015,3.95051 -1.83861,5.14114 -6.87877,8.74454 -11.32012,11.63007 -4.53004,1.95364 -9.28071,2.88483 -13.88062,0.52668 -3.41702,-2.32854 -5.405,-5.06337 -5.77151,-9.28115 0.30065,-5.66526 4.19569,-8.67412 8.78991,-12.09765 2.7529,-1.60748 5.70668,-2.60362 8.94135,-2.42194 3.73089,0.40638 7.21095,1.62353 10.44086,3.55467 0,0 -4.01543,4.22178 -4.01543,4.22178 z"
         id="path4069"
         style="fill:#ff6600;fill-opacity:1;fill-rule:nonzero;stroke:none" />
      <path
         transform="translate(0,284.36218)"
         inkscape:connector-curvature="0"
         d="m 720.97099,338.32178 c 5.0684,-0.4165 10.0943,-1.20993 15.12467,-1.9354 7.8291,-1.16028 15.70543,-1.95161 23.58009,-2.72493 7.06165,-0.63781 14.09179,-1.56128 21.1234,-2.46085 2.09814,0.0379 5.97885,-1.3427 7.83229,0.0681 0.83571,1.73912 -1.32926,3.82174 -2.10402,5.34335 0,0 -0.12578,0.10159 -0.12578,0.10159 l 0,0 c -0.11924,-0.80336 -0.62388,-1.42028 -1.45803,-1.28987 -2.82657,0.46046 -5.6863,0.65862 -8.52392,1.03802 -7.02727,0.89033 -14.05579,1.77462 -21.11133,2.41677 -7.87739,0.78862 -15.75688,1.58622 -23.58563,2.78016 -5.02519,0.7364 -10.05668,1.46821 -15.12266,1.86344 0,0 4.37092,-5.20036 4.37092,-5.20036 z"
         id="path4071"
         style="fill:#ff6600;fill-opacity:1;fill-rule:nonzero;stroke:none" />
      <path
         transform="translate(0,284.36218)"
         inkscape:connector-curvature="0"
         d="m 791.33586,350.87876 c 3.47422,-3.16923 6.87886,-6.41426 10.27196,-9.66992 3.04966,-2.88531 6.13667,-5.72905 9.09927,-8.7046 -8.14487,7.46085 -2.09359,2.91534 -1.4309,0.76382 -1.9301,-1.29591 -4.73897,-1.53926 -6.98459,-2.00049 -3.76282,-0.87089 -7.9022,-1.16268 -11.02405,-3.61285 -0.89287,-1.58392 -0.44293,-0.84619 -1.33556,-2.2218 0,0 0.10836,-0.12 0.10836,-0.12 l 0,0 c 2.51017,-0.4105 1.18783,-0.18206 3.96557,-0.69361 4.2999,-0.0709 8.4847,0.95392 12.70661,1.6754 2.53694,0.49977 5.73523,0.69526 7.68394,2.55371 0.83803,3.64827 -9.56623,6.11858 -7.59029,9.02093 -2.87526,2.82103 -5.87458,5.50958 -8.80237,8.27538 -3.3576,3.18271 -6.71459,6.36768 -10.14947,9.46717 0,0 3.48152,-4.73314 3.48152,-4.73314 z"
         id="path4073"
         style="fill:#ff6600;fill-opacity:1;fill-rule:nonzero;stroke:none" />
      <path
         transform="translate(0,284.36218)"
         inkscape:connector-curvature="0"
         d="m 850.4763,337.68083 c -2.68773,-2.45277 -5.80159,-3.74949 -9.41103,-3.86042 -3.50448,0.18803 -6.3671,1.81658 -8.71999,4.32595 1.12477,-1.02103 2.08324,-2.26263 3.37432,-3.0631 0.45485,-0.282 -0.53338,0.93159 -0.73559,1.4271 -0.87401,2.14176 -0.72236,4.11799 -0.14185,6.29305 1.37049,3.40561 4.2425,4.99609 7.67076,5.73072 4.50301,0.40361 8.00823,-1.90942 11.03413,-4.98047 -1.25354,1.14369 -2.29887,2.56928 -3.76063,3.43105 -0.64453,0.37998 0.82853,-1.24893 1.17982,-1.90954 1.35683,-2.55155 1.78416,-5.11599 1.79744,-7.96481 -0.0415,-3.42137 -2.17351,-5.13179 -3.88174,-7.71238 -0.67193,-1.52925 -0.0961,-1.08352 -1.67733,-1.39964 0,0 0.1049,-0.12304 0.1049,-0.12304 l 0,0 c 2.3829,-0.38258 1.08573,-0.0914 3.86463,-0.98572 0.65318,-0.0475 1.30714,-0.19958 1.95954,-0.14242 2.92077,0.25592 4.50382,3.14944 5.07901,5.67509 0.61129,7.95588 -3.34223,11.56273 -9.05079,17.14757 -3.27732,3.03774 -7.02246,5.20136 -11.65609,4.55833 -3.90305,-1.00629 -6.46054,-2.79648 -7.77109,-6.75555 -1.43976,-7.03521 1.07783,-8.95649 6.24406,-14.22385 2.43441,-2.23941 5.32205,-3.52247 8.68287,-3.48188 3.62979,0.37996 6.67031,1.9584 9.25172,4.55853 0,0 -3.43707,3.45543 -3.43707,3.45543 z"
         id="path4075"
         style="fill:#ff6600;fill-opacity:1;fill-rule:nonzero;stroke:none" />
      <path
         transform="translate(0,284.36218)"
         inkscape:connector-curvature="0"
         d="m 140.90232,300.04431 c 1.90201,-3.79797 3.85697,-7.56894 5.82951,-11.33064 0.90247,-1.71173 1.80386,-3.42387 2.68214,-5.14814 4.65482,-9.76329 6.47868,-3.98675 8.35839,-0.58261 2.25064,4.19509 4.73373,8.25705 7.30374,12.26213 0.74432,1.46948 3.19794,3.65841 2.12213,5.52193 -0.36167,0.6265 -0.85348,1.16823 -1.28022,1.75235 0,0 -0.10916,0.11928 -0.10916,0.11928 l 0,0 c -0.65399,0.50302 -1.24915,1.09361 -1.96198,1.50908 -2.04642,1.19277 -3.57463,-2.29914 -4.47112,-3.43916 -2.61251,-4.02279 -5.05407,-8.15621 -7.21844,-12.43916 -0.51455,-1.02837 -2.03817,-3.82747 -1.93473,-3.96704 6.07599,-8.198 6.86024,-7.19348 4.93382,-5.15398 -1.05363,1.72962 -1.96416,3.54127 -2.93305,5.31846 -1.98695,3.73762 -3.94308,7.49225 -5.80883,11.29211 0,0 -5.5122,4.28539 -5.5122,4.28539 z"
         id="path4077"
         style="fill:#ff6600;fill-opacity:1;fill-rule:nonzero;stroke:none" />
      <path
         transform="translate(0,284.36218)"
         inkscape:connector-curvature="0"
         d="m 333.32521,281.39181 c 2.58319,-1.94361 5.43981,-3.38353 8.663,-3.7731 2.63443,-0.0488 4.12752,1.41815 4.94939,3.77947 0.7054,3.51733 -0.62565,6.90351 -1.93114,10.11073 -1.444,3.19557 -3.22728,6.21904 -4.77677,9.36193 -0.42905,1.07716 -1.4585,2.57459 -0.59073,3.66847 1.58794,0.98341 3.63525,0.89238 5.43767,0.87377 2.06479,0.0613 4.079,-0.66693 6.13506,-0.57145 1.04444,0.27596 -0.0365,1.66778 -0.27662,2.16369 0,0 -0.10338,0.12432 -0.10338,0.12432 l 0,0 c -1.20377,1.07898 -2.36026,2.26633 -3.86435,2.92776 -2.23551,0.93934 -4.58805,1.36383 -7.01826,1.35627 -2.03447,-0.0302 -4.31,-0.0233 -5.94265,-1.41158 -1.06196,-1.51974 -0.3929,-3.03587 0.36948,-4.57662 1.54929,-3.16924 3.35541,-6.20352 4.87324,-9.38916 1.3871,-3.08435 2.7714,-6.34491 2.36898,-9.80276 -0.62063,-2.16214 -1.86849,-3.29199 -4.22764,-3.06598 -3.11593,0.56586 -5.87874,2.04608 -8.36734,3.98926 0,0 4.30206,-5.76502 4.30206,-5.76502 z"
         id="path4079"
         style="fill:#ff6600;fill-opacity:1;fill-rule:nonzero;stroke:none" />
      <path
         transform="translate(0,284.36218)"
         inkscape:connector-curvature="0"
         d="m 495.53202,270.73416 c 2.98566,-2.42257 6.37678,-4.09004 10.16573,-4.71932 2.98738,-0.16887 4.80699,0.52939 5.88033,3.40239 0.51461,2.52836 -0.35873,4.92112 -1.46173,7.15963 -0.49288,0.47656 -0.75286,1.91889 -1.33168,2.17407 1.3922,0.0747 2.77198,0.43357 4.11538,0.78883 2.95331,0.8408 5.38888,2.48642 7.22739,4.92486 1.7092,2.88765 0.40881,5.41983 -1.55061,7.73683 -3.85295,3.99579 -7.75459,9.20842 -13.84948,8.2988 -1.79119,-1.20574 -0.58723,-0.0462 -1.41266,-2.29417 -0.16271,-0.44313 -0.45215,-0.82879 -0.67823,-1.24319 0,0 0.11033,-0.11819 0.11033,-0.11819 l 0,0 c 0.61518,-0.0172 1.24178,0.0677 1.84555,-0.0514 1.44136,-0.28453 2.73862,-1.14748 4.25318,-1.1562 1.67651,-0.33117 3.27954,-0.69022 4.83506,-1.42839 2.55085,-1.2105 6.95654,-5.4582 -1.29473,2.53649 1.89952,-1.94734 3.69676,-4.20708 2.28255,-6.97681 -1.7003,-2.30432 -3.99564,-3.89287 -6.77476,-4.65858 -1.47242,-0.37177 -3.05513,-0.46044 -4.43829,-1.0699 -0.93618,-0.98242 0.31741,-1.99787 0.82827,-2.94662 1.14424,-2.08482 2.10926,-4.30034 1.87258,-6.73711 -0.75363,-2.67509 -2.5042,-2.95451 -5.08386,-2.726 -3.5442,0.69111 -6.75061,2.23742 -9.556,4.52879 0,0 4.01568,-5.42476 4.01568,-5.42476 z"
         id="path4081"
         style="fill:#ff6600;fill-opacity:1;fill-rule:nonzero;stroke:none" />
      <path
         transform="translate(0,284.36218)"
         inkscape:connector-curvature="0"
         d="m 650.19883,259.46005 c 0.7924,4.95793 2.25249,9.74989 4.22894,14.35508 1.71752,3.70201 3.69267,6.28506 7.60561,7.62829 3.5909,0.73655 7.11146,-0.30708 10.49703,-1.43732 1.16458,-0.27337 2.19099,-1.17702 3.4209,-1.21283 1.62518,-0.0473 -0.76553,0.29781 0.79868,0.0368 0,0 -0.0966,0.12963 -0.0966,0.12963 l 0,0 c -2.46882,2.39136 -4.96211,4.78638 -8.1716,6.16376 -3.6853,1.63834 -7.55792,2.9727 -11.61958,1.96885 -4.12342,-1.53625 -6.20787,-4.25302 -7.83516,-8.30146 -1.76607,-4.87185 -3.05637,-9.90319 -3.69787,-15.05347 0,0 4.86968,-4.27733 4.86968,-4.27733 z"
         id="path4083"
         style="fill:#ff6600;fill-opacity:1;fill-rule:nonzero;stroke:none" />
      <path
         transform="translate(0,284.36218)"
         inkscape:connector-curvature="0"
         d="m 670.80009,268.00024 c 0.97261,4.33743 2.26979,8.58856 3.49912,12.85687 0.82144,2.40861 0.5314,3.84761 -0.10336,6.24132 0,0 -0.11761,0.11095 -0.11761,0.11095 l 0,0 c -2.61314,-0.005 -2.7669,-0.0503 -4.11406,-2.38241 -1.77845,-4.04208 -2.83304,-8.32781 -3.86935,-12.61055 0,0 4.70526,-4.21618 4.70526,-4.21618 z"
         id="path4085"
         style="fill:#ff6600;fill-opacity:1;fill-rule:nonzero;stroke:none" />
      <path
         transform="translate(0,284.36218)"
         inkscape:connector-curvature="0"
         d="m 843.75562,266.5698 c -3.55327,-0.17628 -7.11426,-0.0314 -10.34989,1.543 -3.08937,2.67123 1.48942,-1.68883 2.38172,-2.36299 0.29014,-0.21921 -0.36545,0.63598 -0.47116,0.98391 -0.38047,1.25229 0.0177,2.27891 0.47895,3.42784 1.82421,3.1158 5.04687,4.90783 8.02977,6.75096 3.30556,1.8967 6.48506,3.94748 8.69198,7.10383 1.5074,2.84278 0.76728,5.43946 -1.16678,7.8004 2.03896,1.49367 -8.0165,8.7841 -9.82407,5.31318 -0.22186,-0.42602 -0.21675,-0.93588 -0.32512,-1.40383 -0.14013,-0.47643 -0.28025,-0.95286 -0.42038,-1.42929 0,0 0.11339,-0.11526 0.11339,-0.11526 l 0,0 c 0.51224,0.077 1.02448,0.15402 1.53672,0.23103 1.5656,-0.30529 3.18654,-0.5172 4.68307,-1.09673 2.5379,-0.98279 6.06516,-4.72961 -1.56567,2.77416 1.84635,-1.93859 2.75005,-4.25548 1.51645,-6.82108 -2.07287,-3.11994 -5.24775,-5.04175 -8.38175,-6.98871 -3.0624,-2.04197 -6.18619,-4.19811 -7.77078,-7.65309 -1.6323,-5.24104 1.05272,-7.9868 6.06874,-11.06008 3.31028,-1.21863 6.84897,-1.34038 10.34646,-1.11025 0,0 -3.57165,4.113 -3.57165,4.113 z"
         id="path4087"
         style="fill:#ff6600;fill-opacity:1;fill-rule:nonzero;stroke:none" />
      <path
         transform="translate(0,284.36218)"
         inkscape:connector-curvature="0"
         d="m 856.76253,264.67012 c -4.42503,-0.34349 -8.83538,0.25945 -13.24582,0.52117 -1.86911,3.8e-4 -2.49398,0.17745 -3.19621,-1.58158 0,0 0.10301,-0.12462 0.10301,-0.12462 l 0,0 c 2.24563,-1.34455 4.44213,-2.66965 7.08189,-3.08238 4.52064,-0.81997 9.13446,-1.31342 13.72667,-0.84083 0,0 -4.46954,5.10824 -4.46954,5.10824 z"
         id="path4089"
         style="fill:#ff6600;fill-opacity:1;fill-rule:nonzero;stroke:none" />
    </g>
  </g>
</svg>
