<?xml version="1.0" encoding="UTF-8" standalone="no"?>
<!-- Created with Inkscape (http://www.inkscape.org/) -->

<svg
   xmlns:dc="http://purl.org/dc/elements/1.1/"
   xmlns:cc="http://creativecommons.org/ns#"
   xmlns:rdf="http://www.w3.org/1999/02/22-rdf-syntax-ns#"
   xmlns:svg="http://www.w3.org/2000/svg"
   xmlns="http://www.w3.org/2000/svg"
   xmlns:sodipodi="http://sodipodi.sourceforge.net/DTD/sodipodi-0.dtd"
   xmlns:inkscape="http://www.inkscape.org/namespaces/inkscape"
   width="1024"
   height="768"
   id="svg4160"
   version="1.1"
   inkscape:version="0.48.4 r9939"
   sodipodi:docname="git3.svg">
  <defs
     id="defs4162" />
  <sodipodi:namedview
     id="base"
     pagecolor="#ffffff"
     bordercolor="#666666"
     borderopacity="1.0"
     inkscape:pageopacity="0.0"
     inkscape:pageshadow="2"
     inkscape:zoom="0.86588542"
     inkscape:cx="512"
     inkscape:cy="371.18049"
     inkscape:document-units="px"
     inkscape:current-layer="layer1"
     showgrid="false"
     inkscape:window-width="1600"
     inkscape:window-height="886"
     inkscape:window-x="0"
     inkscape:window-y="14"
     inkscape:window-maximized="0" />
  <metadata
     id="metadata4165">
    <rdf:RDF>
      <cc:Work
         rdf:about="">
        <dc:format>image/svg+xml</dc:format>
        <dc:type
           rdf:resource="http://purl.org/dc/dcmitype/StillImage" />
        <dc:title />
      </cc:Work>
    </rdf:RDF>
  </metadata>
  <g
     inkscape:label="Ebene 1"
     inkscape:groupmode="layer"
     id="layer1"
     transform="translate(0,-284.36218)">
    <g
       id="g3594"
       transform="translate(521.27836,-203.85867)">
      <path
         transform="translate(0,284.36218)"
         inkscape:connector-curvature="0"
         d="m 62.928926,484.72974 c -0.936558,8.71104 -1.563967,17.44054 -1.912001,26.19385 -0.391118,9.88172 0.359618,19.74091 1.858559,29.5014 0.152777,3.28907 1.965359,6.66784 1.440352,9.99499 -0.889772,0.66362 -0.280153,0.21691 -1.854213,1.30481 0,0 0.125161,-0.10235 0.125161,-0.10235 l 0,0 c -1.933778,2.83406 -0.782652,2.27294 -2.553855,2.87007 -2.434496,-0.75043 -2.479921,-6.93772 -3.077849,-8.85511 -1.468386,-9.83247 -2.230734,-19.75803 -1.848803,-29.70708 0.365091,-8.7678 1.017665,-17.51128 1.930255,-26.23961 0,0 5.892394,-4.96097 5.892394,-4.96097 z"
         id="path3519"
         style="fill:#000080;fill-opacity:1;fill-rule:nonzero;stroke:none" />
      <path
         transform="translate(0,284.36218)"
         inkscape:connector-curvature="0"
         d="m 28.0234,501.80155 c 3.553021,-6.52917 9.059936,-11.99467 15.189949,-16.12683 6.218201,-3.41763 13.379836,-5.05714 20.484461,-4.45523 1.742437,0.14762 3.453858,0.54989 5.180786,0.82483 9.071507,2.42191 16.650578,8.03021 21.812851,15.87373 0.991518,1.5065 1.768836,3.14354 2.653254,4.71531 3.648061,8.08111 4.025733,16.76755 0.42938,24.95245 -0.701123,1.59568 -1.643492,3.07408 -2.465237,4.61112 -1.040296,1.4197 -1.990442,2.91008 -3.120887,4.2591 -1.12185,1.33876 -2.350834,2.58869 -3.621578,3.78704 -5.675083,5.35178 -7.804848,8.17614 -13.865836,11.11618 -3.898668,1.89116 -4.942774,1.88375 -9.097685,2.82925 -10.063499,1.02668 -15.896982,-1.43758 -23.740465,-7.36835 -2.077482,-2.07571 -3.391986,-3.07656 -4.797099,-5.69426 -0.584872,-1.08961 -0.907906,-2.30064 -1.361858,-3.45096 0,0 0.113956,-0.1147 0.113956,-0.1147 l 0,0 c 3.649241,1.20798 7.123318,2.62613 10.348462,4.7738 7.759638,4.32581 15.265658,7.255 24.33628,5.83777 4.108575,-1.03081 5.093959,-1.03524 8.933715,-2.99647 1.479012,-0.75544 2.61669,-2.37272 4.265042,-2.57544 0.874697,-0.10757 -2.162908,2.70975 -1.426067,2.22629 2.295587,-1.50619 5.27287,-5.78115 6.88019,-7.88633 0.851425,-1.50946 1.820533,-2.95835 2.554276,-4.52839 3.730412,-7.98221 3.570865,-16.51257 0.09328,-24.53811 -0.84713,-1.55867 -1.58566,-3.18148 -2.54139,-4.67603 -4.940142,-7.72532 -12.288638,-13.33291 -21.131043,-15.76851 -1.683118,-0.27027 -3.350668,-0.668 -5.049355,-0.81081 -7.005778,-0.58898 -14.025633,1.06702 -20.061814,4.61476 -4.495971,3.17431 -2.205287,1.83788 0.02113,-1.04914 0.578499,-0.75015 -1.341057,1.34023 -1.966038,2.05211 -1.128273,1.28517 -1.995922,2.50766 -2.908193,3.94094 -0.330695,0.51956 -0.626647,1.06043 -0.939971,1.59065 0,0 -5.202487,4.03423 -5.202487,4.03423 z"
         id="path3521"
         style="fill:#000080;fill-opacity:1;fill-rule:nonzero;stroke:none" />
      <path
         transform="translate(0,284.36218)"
         inkscape:connector-curvature="0"
         d="m 119.33694,528.45529 c 5.24971,2.04984 10.06828,2.68469 15.62668,1.78916 2.01836,-0.63736 2.78554,-0.72308 4.55806,-1.882 0.64194,-0.41971 2.32038,-1.99993 1.78932,-1.44656 -6.67963,6.96023 -3.58631,3.66851 -2.60679,1.56423 0.31417,-0.67492 0.48872,-1.40641 0.73309,-2.10961 0.66963,-3.39125 -0.16781,-6.99148 -3.90872,-8.00212 -0.76705,-0.20723 -1.57557,-0.20697 -2.36335,-0.31046 -7.04811,0.36633 -13.39553,3.74487 -19.21379,7.48643 -0.86554,0.69405 -3.20008,3.0131 -2.59663,2.08213 0.84119,-1.29773 1.94187,-2.55557 3.33661,-3.22371 0.91335,-0.43755 -1.26304,1.59314 -1.76681,2.4717 -1.80787,3.15288 -1.90732,5.6088 -1.84047,9.13021 1.32564,6.68457 6.19684,11.41345 12.45527,13.84451 1.49585,0.58105 3.07943,0.90433 4.61915,1.35649 9.2071,1.83261 18.33411,-0.46771 27.40958,-1.85877 2.21743,8.3e-4 1.45467,-0.44391 2.56957,0.64322 0,0 -0.10056,0.1266 -0.10056,0.1266 l 0,0 c -3.66408,2.56758 -1.70983,1.40584 -5.8833,3.45042 -9.38383,3.44957 -19.2772,5.36795 -29.24633,3.43719 -1.57726,-0.47868 -3.19997,-0.82741 -4.73178,-1.43604 -6.4896,-2.5785 -11.52499,-7.51523 -13.08461,-14.40714 -0.0604,-1.13004 -0.2424,-2.26013 -0.18114,-3.39013 0.44474,-8.20428 7.74235,-13.82044 13.74081,-18.39774 5.90472,-3.61174 12.3377,-6.89747 19.42393,-6.88776 0.84325,0.14942 1.71451,0.18601 2.52975,0.44825 3.92241,1.26173 5.11526,5.05284 4.61371,8.79374 -0.20337,0.73431 -0.33434,1.49264 -0.61012,2.20293 -2.2865,5.88889 -8.40955,10.5552 -14.43863,12.09159 -5.41296,0.67945 -10.74841,0.095 -15.70259,-2.34201 0,0 4.87009,-5.22475 4.87009,-5.22475 z"
         id="path3523"
         style="fill:#000080;fill-opacity:1;fill-rule:nonzero;stroke:none" />
      <path
         transform="translate(0,284.36218)"
         inkscape:connector-curvature="0"
         d="m 171.82994,514.22559 c 5.19199,-2.14338 10.7228,-3.09164 16.30127,-3.39486 4.66297,0.0305 8.1987,1.00416 10.82879,4.98958 2.05013,4.90982 -1.7476,9.23299 -4.57151,12.93009 -4.38494,5.08607 -8.27095,10.48767 -10.86518,16.69817 -1.14672,3.32219 -1.64857,7.06994 1.47941,9.47347 0.59364,0.45615 1.28619,0.76658 1.92928,1.14987 5.92633,2.48939 12.33601,1.74118 18.52667,0.93966 1.91189,0.0983 5.3072,-1.41617 7.196,-0.84044 0.574,0.17496 0.7122,0.93259 0.85461,1.38846 0,0 -0.10206,0.1254 -0.10206,0.1254 l 0,0 c -1.26163,0.8457 -2.64557,1.82555 -4.00871,2.47159 -2.72063,1.28939 -5.76359,1.78057 -8.6463,2.54113 -6.44798,1.1624 -13.13478,1.86125 -19.31061,-0.86408 -0.69284,-0.42536 -1.43792,-0.77551 -2.07853,-1.27609 -3.33248,-2.60408 -3.27698,-6.48727 -2.06476,-10.19469 2.50777,-6.34763 6.37654,-11.86546 10.87766,-16.97979 2.8255,-3.56637 6.7441,-7.66411 5.55542,-12.58187 -2.16468,-3.97689 -5.7459,-4.63663 -10.03628,-4.71966 -5.51591,0.29264 -10.99929,1.24546 -16.06907,3.53325 0,0 4.2039,-5.38919 4.2039,-5.38919 z"
         id="path3525"
         style="fill:#000080;fill-opacity:1;fill-rule:nonzero;stroke:none" />
      <path
         transform="translate(0,284.36218)"
         inkscape:connector-curvature="0"
         d="m 192.40593,537.8926 c -5.37009,0.37394 -10.75184,0.54236 -16.12762,0.81636 -4.88512,0.0932 -9.74903,0.87666 -14.63682,0.72152 -2.20302,-0.27054 -2.27998,-0.0629 -1.72563,-2.25745 0,0 0.10389,-0.12388 0.10389,-0.12388 l 0,0 c 1.96555,-1.43988 3.61672,-2.63941 6.09602,-2.94757 5.00993,-0.90336 10.10317,-1.06827 15.17925,-1.3245 5.27314,-0.2436 10.55004,-0.47135 15.83008,-0.44654 0,0 -4.71917,5.56206 -4.71917,5.56206 z"
         id="path3527"
         style="fill:#000080;fill-opacity:1;fill-rule:nonzero;stroke:none" />
      <path
         transform="translate(0,284.36218)"
         inkscape:connector-curvature="0"
         d="m 218.76428,528.55025 c 4.78027,1.30632 9.62483,1.27347 14.47818,0.51245 3.2502,-0.75483 6.52646,-1.84878 9.16959,-3.96551 0.52263,-0.41854 1.95033,-1.83505 1.45003,-1.39006 -1.40521,1.24985 -2.77694,2.53682 -4.16541,3.80524 1.46166,-2.68495 0.96609,-5.83082 -1.87595,-7.39809 -0.61614,-0.33978 -1.31724,-0.49516 -1.97586,-0.74273 -6.15103,-0.91467 -12.00555,1.45166 -17.27689,4.39246 -0.78548,0.59404 -2.95244,2.5661 -2.35643,1.78212 1.0176,-1.33853 2.17668,-2.67075 3.64914,-3.48253 0.81022,-0.44669 -1.10082,1.49598 -1.53129,2.31493 -1.5188,2.88945 -1.76385,5.83138 -1.94949,9.02005 0.25184,5.80668 2.34901,11.39617 7.19185,14.92264 0.99174,0.72217 2.11921,1.23663 3.17881,1.85494 7.14622,2.9776 14.93769,2.44631 22.47978,1.85952 1.1808,-0.0537 2.93574,-0.21241 4.17638,-0.0213 2.07006,0.31891 0.01,0.46702 1.86952,0.21766 0,0 -0.0995,0.12741 -0.0995,0.12741 l 0,0 c -3.07123,1.98033 -6.19906,3.7455 -9.86103,4.39022 -8.03802,1.55654 -16.26314,2.60386 -23.99621,-0.86015 -1.10024,-0.65347 -2.26982,-1.20226 -3.30071,-1.96043 -4.99256,-3.67178 -7.28626,-9.40143 -7.67307,-15.42336 0.0357,-1.1262 -0.009,-2.25782 0.10724,-3.37859 0.80937,-7.81738 6.47202,-13.43016 12.91854,-17.58016 5.41526,-2.75967 11.41117,-4.95154 17.55808,-3.69364 0.71595,0.29628 1.47986,0.49621 2.14783,0.88886 2.99761,1.76202 3.91944,5.13572 2.63992,8.24525 -6.41318,6.90128 -8.24305,10.01905 -17.30089,11.89511 -4.88774,0.66616 -9.79223,0.70316 -14.50692,-0.97442 0,0 4.85481,-5.35791 4.85481,-5.35791 z"
         id="path3529"
         style="fill:#000080;fill-opacity:1;fill-rule:nonzero;stroke:none" />
      <path
         transform="translate(0,284.36218)"
         inkscape:connector-curvature="0"
         d="m 262.0993,512.83033 c 3.46812,4.49194 5.86622,9.66196 8.02873,14.87357 1.80007,4.49245 2.99781,9.18801 3.45437,14.00319 0.13844,3.90267 -0.84693,4.06599 -6.19893,6.52768 -0.33988,0.15634 -0.91727,-1.35238 -1.42754,-2.5288 -1.52874,-5.83311 0.28034,-11.72123 2.12329,-17.25402 1.71148,-4.13931 3.31633,-8.5172 6.12722,-12.07712 2.37774,-3.01135 5.60978,-5.23764 8.48601,-7.77716 4.87033,-1.65092 9.7085,-0.22713 14.23078,1.75374 6.69263,3.80499 8.79207,8.38131 10.30566,15.65931 0.88285,6.15936 0.31362,12.38376 -0.15128,18.55168 -0.43164,2.56086 -0.008,5.28812 -0.63722,7.82212 -0.30465,1.22669 -0.81867,2.39206 -1.19325,3.59924 0,0 -0.11886,0.1096 -0.11886,0.1096 l 0,0 c -0.43268,-0.0356 -2.12646,-0.13229 -2.48379,-0.3489 -1.8037,-1.09337 -1.14953,-4.70873 -1.32613,-6.32269 0.2707,-6.09043 0.96577,-12.211 0.15072,-18.29123 -1.3222,-6.859 -3.34521,-11.67105 -9.68372,-15.24361 -4.28267,-1.87762 -8.96883,-3.29707 -13.52861,-1.48294 1.12759,-1.3207 2.37646,-2.54682 3.38277,-3.96212 0.45998,-0.64692 -1.21028,1.03654 -1.72951,1.63695 -2.9953,3.46367 -4.629,7.91687 -6.42142,12.05016 -1.84419,5.36558 -3.69192,11.06512 -2.33346,16.76772 0.17979,0.44856 0.31428,0.91804 0.53935,1.34567 0.16571,0.31484 0.81797,0.56703 0.62449,0.8656 -1.25138,1.93109 -3.06705,3.43212 -4.5498,5.19182 -0.0913,0.1083 0.29332,-0.0983 0.36222,-0.22207 0.21672,-0.38914 0.15839,-1.43944 0.16216,-1.76319 -0.48444,-4.76012 -1.55611,-9.43015 -3.26223,-13.90878 -2.0502,-5.25543 -4.3821,-10.41349 -7.50575,-15.13178 0,0 4.57373,-4.44364 4.57373,-4.44364 z"
         id="path3531"
         style="fill:#000080;fill-opacity:1;fill-rule:nonzero;stroke:none" />
      <path
         transform="translate(0,284.36218)"
         inkscape:connector-curvature="0"
         d="m 329.25153,481.58227 c -1.95669,7.81601 -3.2009,15.71389 -3.78027,23.74543 -0.238,6.47784 0.27743,12.99987 2.25699,19.20334 1.13058,3.54294 1.73041,4.46364 3.34779,7.75705 3.13721,5.92773 7.68769,10.77496 12.8579,14.95939 2.33887,1.86132 5.06247,3.17374 7.36797,5.07513 0.73339,0.79852 -0.7815,1.93685 0.48886,1.76694 0,0 -0.0992,0.12766 -0.0992,0.12766 l 0,0 c -1.38126,0.92902 -2.63973,2.11757 -4.32285,2.45546 -3.45347,-0.005 -6.35294,-1.59631 -8.99645,-3.75031 -5.21933,-4.29777 -9.83293,-9.24391 -13.0333,-15.26105 -1.6529,-3.34058 -2.27153,-4.29094 -3.43697,-7.88373 -2.03345,-6.26863 -2.60062,-12.86347 -2.40001,-19.42175 0.52351,-8.0865 1.74748,-16.04804 3.82981,-23.88914 0,0 5.91976,-4.88442 5.91976,-4.88442 z"
         id="path3533"
         style="fill:#000080;fill-opacity:1;fill-rule:nonzero;stroke:none" />
      <path
         transform="translate(0,284.36218)"
         inkscape:connector-curvature="0"
         d="m 346.94557,522.5991 c -6.22477,1.48208 -12.56851,2.33201 -18.92503,2.99335 -5.68053,0.44392 -11.41446,0.81533 -17.08043,0.0452 -3.90201,-0.48789 -0.3903,-1.54979 -1.56569,-2.48806 0,0 0.10643,-0.12172 0.10643,-0.12172 l 0,0 c 1.35028,-0.29153 -0.8531,0.23922 2.32891,-1.5492 0.90791,-0.51028 2.37155,-0.62047 3.34821,-0.76235 5.88289,-0.48273 11.79734,-0.2713 17.67395,-0.87662 6.23445,-0.64468 12.42207,-1.58213 18.59011,-2.69156 0,0 -4.47646,5.45097 -4.47646,5.45097 z"
         id="path3535"
         style="fill:#000080;fill-opacity:1;fill-rule:nonzero;stroke:none" />
      <path
         transform="translate(0,284.36218)"
         inkscape:connector-curvature="0"
         d="m 364.28093,545.18471 c 0.13687,-5.11714 -0.75369,-10.18683 -1.59274,-15.21455 -0.79211,-4.48813 -1.56316,-9.0093 -0.56985,-13.5115 0.51413,-1.57381 1.37638,-2.92401 2.56521,-4.07415 5.59095,-5.40903 5.39511,-6.12393 10.66151,-8.39652 5.07993,-1.95862 10.45701,-2.27866 15.82154,-1.77643 3.38137,0.56152 6.79634,1.58871 9.06065,4.29232 0.96062,1.62521 -0.422,2.83582 -1.57968,3.89002 0,0 -0.13043,0.0956 -0.13043,0.0956 l 0,0 c -1.04281,0.88972 -1.90306,1.91774 -3.32467,1.17074 -2.97466,-1.46378 -5.83531,-3.17957 -9.2368,-3.4538 -5.28747,-0.42643 -10.57824,-0.0167 -15.52471,2.05734 -4.32487,2.05654 -5.30815,4.05082 0.71519,-2.58987 0.36144,-0.39849 -0.80922,0.71289 -1.16861,1.11324 -0.96381,1.07365 -1.00858,1.3686 -1.65927,2.64605 -1.35617,4.43012 -0.6863,8.97311 0.11292,13.46565 0.84151,5.0564 1.7491,10.13517 1.77192,15.27775 0,0 -5.92218,5.00816 -5.92218,5.00816 z"
         id="path3537"
         style="fill:#000080;fill-opacity:1;fill-rule:nonzero;stroke:none" />
      <path
         transform="translate(0,284.36218)"
         inkscape:connector-curvature="0"
         d="m 424.14938,526.79473 c -2.72903,-3.36531 -5.94638,-6.2262 -10.10265,-7.57733 -2.76098,-0.42125 -5.29735,0.44878 -7.56765,2.0128 -0.6766,0.46611 -2.45204,2.1692 -1.92623,1.53787 0.98029,-1.177 2.20316,-2.12868 3.30474,-3.19301 -4.12074,5.11212 -5.16337,9.44779 -4.45263,15.89219 1.11789,4.60665 3.97833,8.52116 8.47714,10.32306 0.86165,0.34512 1.78513,0.50938 2.67769,0.76407 3.89646,0.54782 7.6323,-0.31564 10.81938,-2.66386 0.79404,-0.58505 2.94388,-2.62636 2.21315,-1.96393 -1.1511,1.0435 -2.31619,2.07145 -3.47428,3.10718 3.37587,-4.59905 4.54355,-9.9594 4.35157,-15.56127 -0.32889,-1.64553 -0.40614,-5.49952 -2.66701,-5.83849 -2.09061,1.14802 -6.49138,4.48113 3.61852,-3.81841 0.36816,-0.30223 -0.53108,0.79838 -0.71178,1.2391 -0.61292,1.49491 -0.5518,2.24536 -0.71305,3.88739 -0.0402,5.8614 2.30367,11.03761 5.57705,15.75493 3.00983,4.08562 7.36131,6.72433 11.22424,9.88355 1.60104,0.79156 -0.43671,2.33092 0.9717,2.62016 0,0 -0.10221,0.12528 -0.10221,0.12528 l 0,0 c -1.61708,0.72403 -3.0001,1.82191 -4.89079,1.53659 -5.15083,-1.50171 -9.56588,-4.41972 -12.90352,-8.66284 -3.38386,-4.83165 -5.82412,-10.12136 -5.97039,-16.12869 0.3094,-6.4852 1.6618,-6.49966 7.48697,-11.90387 0.50686,-0.47024 1.10577,-0.34642 1.70049,-0.33271 2.45716,1.15583 2.8358,4.18208 3.22889,6.59641 0.31913,5.69203 -0.72578,11.18855 -3.96911,15.99216 -6.66165,7.00273 -10.73822,13.34894 -21.046,11.93814 -0.93513,-0.2869 -1.90372,-0.48151 -2.80538,-0.86069 -4.70696,-1.97944 -7.71293,-6.0904 -8.90489,-10.95286 -0.11881,-0.98485 -0.31821,-1.9633 -0.35643,-2.95455 -0.19366,-5.02189 1.65898,-9.78088 4.70077,-13.70628 4.65488,-4.63894 9.334,-11.31651 16.75472,-9.73224 4.11206,1.72034 7.21941,4.83539 9.78197,8.44375 0,0 -4.32499,4.1964 -4.32499,4.1964 z"
         id="path3539"
         style="fill:#000080;fill-opacity:1;fill-rule:nonzero;stroke:none" />
      <path
         transform="translate(0,284.36218)"
         inkscape:connector-curvature="0"
         d="m 454.01229,484.06307 c -2.93874,8.15327 -3.0214,16.83987 -2.51773,25.37778 0.8887,9.83107 3.60399,18.06953 8.89997,26.34745 3.35448,4.873 8.06081,8.02902 13.43762,10.2496 1.77319,1.01335 5.62851,1.0922 6.71051,2.97444 -0.50777,1.30146 -0.19258,0.6772 -0.9498,1.87064 0,0 -0.10069,0.1265 -0.10069,0.1265 l 0,0 c -1.56659,1.49576 -0.72585,0.80826 -2.52596,2.05793 -2.89163,0.82255 -5.80833,-0.1906 -8.54293,-1.18576 -5.47889,-2.35796 -10.28798,-5.6475 -13.71681,-10.64676 -5.44256,-8.52864 -8.10479,-16.68415 -8.97562,-26.8167 -0.44212,-8.77619 -0.27658,-17.69542 2.81679,-26.04501 0,0 5.46465,-4.31011 5.46465,-4.31011 z"
         id="path3541"
         style="fill:#000080;fill-opacity:1;fill-rule:nonzero;stroke:none" />
    </g>
    <path
       style="fill:#ff6600;fill-opacity:1;fill-rule:nonzero;stroke:none"
       id="path4185"
       d="m 277.72275,125.58349 c -8.60417,0.26976 -17.10865,1.66922 -25.56513,3.18082 -11.20787,2.18346 -22.33532,4.75009 -33.51645,7.06312 -2.96615,0.53305 -5.91418,1.22874 -8.90389,1.63186 -0.98747,0.13315 -2.05021,0.25748 -2.09859,-0.12213 -0.0449,-0.35226 0.3105,-0.63874 0.46575,-0.9581 0,0 0.72801,-0.93395 0.72801,-0.93395 l 0,0 c 0.5101,-0.48965 0.9644,-1.045 1.53028,-1.46895 2.91788,-2.18603 9.46776,-2.47969 12.83161,-3.71634 11.2213,-2.54436 22.43904,-5.12144 33.73991,-7.29303 8.31311,-1.48933 16.72438,-3.00437 25.20843,-2.53788 0,0 -4.41993,5.15458 -4.41993,5.15458 z"
       inkscape:connector-curvature="0"
       transform="translate(0,284.36218)" />
    <path
       style="fill:#ff6600;fill-opacity:1;fill-rule:nonzero;stroke:none"
       id="path4187"
       d="m 281.41361,125.587 c -0.92776,6.63188 -1.1018,13.32865 -1.16051,20.0143 -0.0181,10.16686 0.93887,20.29578 2.07469,30.38773 0.3514,6.15771 2.29484,12.87344 1.90893,19.04736 -0.0613,0.98085 -0.28636,1.94455 -0.42953,2.91683 -0.11011,0.77312 -0.22022,1.54623 -0.33033,2.31935 0,0 -0.12067,0.10761 -0.12067,0.10761 l 0,0 c -0.35557,-0.36014 -0.71114,-0.72028 -1.06671,-1.08042 -0.41945,-0.47589 -0.94332,-0.87707 -1.25835,-1.42767 -0.72888,-1.2739 -1.33226,-4.01385 -1.62061,-5.31479 -0.89415,-4.03409 -1.48587,-8.12661 -2.05656,-12.21612 -1.29084,-10.068 -2.22394,-20.1944 -2.24531,-30.35403 0.0621,-6.87753 0.29683,-13.78754 1.6352,-20.55554 0,0 4.66976,-3.84461 4.66976,-3.84461 z"
       inkscape:connector-curvature="0"
       transform="translate(0,284.36218)" />
    <path
       style="fill:#ff6600;fill-opacity:1;fill-rule:nonzero;stroke:none"
       id="path4189"
       d="m 283.05453,204.31217 c -6.99964,2.00797 -14.15088,3.43866 -21.27218,4.93814 -11.27455,2.29941 -22.52892,4.69371 -33.77699,7.11878 -7.19782,1.53147 -14.40536,3.0556 -21.69819,4.06501 -1.39707,-0.0278 -4.46921,1.31558 -3.25362,-1.15927 0,0 0.0998,-0.12724 0.0998,-0.12724 l 0,0 c 2.08001,-2.05032 4.37152,-3.23239 7.28639,-3.74751 7.43047,-1.85989 14.9538,-3.31454 22.42948,-4.97694 11.23122,-2.42128 22.47323,-4.79094 33.73627,-7.06022 6.90838,-1.41871 13.81915,-2.8274 20.71218,-4.3194 0,0 -4.2631,5.26865 -4.2631,5.26865 z"
       inkscape:connector-curvature="0"
       transform="translate(0,284.36218)" />
    <path
       style="fill:#ff6600;fill-opacity:1;fill-rule:nonzero;stroke:none"
       id="path4191"
       d="m 204.87364,220.79387 c -0.77128,-8.91909 -1.76178,-17.80744 -3.02512,-26.67043 -0.94698,-7.85246 -3.24519,-15.56207 -3.40965,-23.49594 -0.0749,-2.29626 1.52998,-3.8878 2.00592,-6.01088 0,0 0.12473,-0.10288 0.12473,-0.10288 l 0,0 c -0.30838,2.65837 1.03486,-0.11354 2.002,2.45669 2.72087,7.05573 3.72784,14.64132 5.09306,22.03791 1.32498,8.85762 2.47805,17.74917 3.06483,26.69022 0,0 -5.85577,5.09531 -5.85577,5.09531 z"
       inkscape:connector-curvature="0"
       transform="translate(0,284.36218)" />
    <path
       style="fill:#ff6600;fill-opacity:1;fill-rule:nonzero;stroke:none"
       id="path4193"
       d="m 213.8705,487.60174 c -7.91908,1.37843 -15.78889,3.01984 -23.68134,4.53971 -10.11201,1.96937 -20.24191,3.8472 -30.33849,5.89495 -4.67517,0.95637 -9.32338,2.02658 -13.8467,3.55304 -1.37075,0.42537 -0.6093,0.25261 1.71319,-1.59748 0,0 -0.11298,0.11566 -0.11298,0.11566 l 0,0 c 1.30854,-2.91835 0.37755,-2.03746 2.10233,-3.21939 4.6873,-2.27787 9.77998,-3.51778 14.85634,-4.59791 10.07225,-2.04052 20.18503,-3.87259 30.27788,-5.80735 7.68555,-1.44655 15.37586,-2.99264 23.15713,-3.82649 0,0 -4.12736,4.94526 -4.12736,4.94526 z"
       inkscape:connector-curvature="0"
       transform="translate(0,284.36218)" />
    <path
       style="fill:#ff6600;fill-opacity:1;fill-rule:nonzero;stroke:none"
       id="path4195"
       d="m 215.30512,488.0483 c 0.10409,7.19786 -0.26169,14.39327 -0.32936,21.59179 -0.14639,10.61601 0.53934,21.20626 1.58669,31.76288 0.20971,3.69494 1.112,7.38428 1.00927,11.10231 -0.0681,2.465 -0.41201,3.23055 -1.03231,5.53968 0,0 -0.12079,0.10747 -0.12079,0.10747 l 0,0 c -0.46196,-0.25061 -0.99766,-0.39757 -1.38586,-0.75184 -2.70686,-2.47025 -2.56567,-8.49491 -3.30935,-11.77451 -1.21604,-10.55432 -1.84427,-21.17149 -1.66199,-31.8001 0.12712,-7.34589 0.26923,-14.6982 0.83392,-22.02614 0,0 4.40978,-3.75154 4.40978,-3.75154 z"
       inkscape:connector-curvature="0"
       transform="translate(0,284.36218)" />
    <path
       style="fill:#ff6600;fill-opacity:1;fill-rule:nonzero;stroke:none"
       id="path4197"
       d="m 202.61082,559.72961 c -8.04717,1.84556 -16.12508,3.54264 -24.23101,5.10863 -11.10215,2.12944 -22.34025,3.39174 -33.63384,3.76648 -3.21114,-0.006 -6.44194,-0.007 -9.6361,-0.39508 -0.74504,-0.0905 -1.96804,-0.17375 -2.6251,-0.75482 -0.15994,-0.14144 -0.17951,-0.38746 -0.26926,-0.5812 0.3816,-0.5337 0.7632,-1.0674 1.1448,-1.6011 0,0 0.11016,-0.11835 0.11016,-0.11835 l 0,0 c 0.50868,-0.47587 1.01737,-0.95175 1.52606,-1.42763 4.61181,-1.57368 9.75706,-0.0657 14.50439,-0.73493 11.2635,-0.53666 22.4789,-1.74582 33.56481,-3.85194 7.75246,-1.43064 15.48001,-3.16663 23.32907,-3.9694 0,0 -3.78398,4.55934 -3.78398,4.55934 z"
       inkscape:connector-curvature="0"
       transform="translate(0,284.36218)" />
    <path
       style="fill:#ff6600;fill-opacity:1;fill-rule:nonzero;stroke:none"
       id="path4199"
       d="m 131.09121,569.7255 c -2.09737,-9.27079 -1.79142,-18.94326 -1.93295,-28.39843 0.22455,-10.47212 -1.31208,-21.06909 0.09,-31.48859 0.29253,-0.95268 0.58506,-1.90536 0.87759,-2.85803 0,0 0.12145,-0.10674 0.12145,-0.10674 l 0,0 c 0.46962,0.28809 0.93925,0.57618 1.40887,0.86427 0.35378,0.72154 0.82367,1.39696 1.06135,2.16461 0.57788,1.86643 1.07897,6.38227 1.25011,8.07594 0.61729,6.10885 0.80069,12.24605 0.98269,18.37973 0.26857,9.32816 0.0161,18.83256 2.02452,27.99161 0,0 -5.88364,5.37563 -5.88364,5.37563 z"
       inkscape:connector-curvature="0"
       transform="translate(0,284.36218)" />
    <path
       style="fill:#ff6600;fill-opacity:1;fill-rule:nonzero;stroke:none"
       id="path4201"
       d="m 430.06123,328.30481 c -8.74969,0.81268 -17.47722,1.82388 -26.19534,2.92062 -10.68105,1.42103 -21.35396,2.9137 -32.10771,3.65472 -2.94909,-0.21557 -9.15496,0.9278 -11.88646,-0.42723 0.0993,-1.12351 -0.0641,-0.2728 2.02132,-1.6333 0,0 -0.11741,0.11117 -0.11741,0.11117 l 0,0 c 1.40341,-2.74556 0.46598,-2.07529 1.91462,-2.87865 4.17238,-0.73444 8.53239,0.0219 12.71841,-0.70382 10.74639,-0.93851 21.44364,-2.30926 32.13453,-3.73942 8.65268,-1.07717 17.32119,-2.28422 26.03963,-2.63645 0,0 -4.52159,5.33236 -4.52159,5.33236 z"
       inkscape:connector-curvature="0"
       transform="translate(0,284.36218)" />
    <path
       style="fill:#ff6600;fill-opacity:1;fill-rule:nonzero;stroke:none"
       id="path4203"
       d="m 437.46858,330.95379 c -1.15146,8.2981 -0.93586,16.66296 -0.42083,24.99649 0.81013,10.88803 3.00292,21.58507 5.78686,32.12022 0.71687,4.07418 3.62218,9.16449 2.48243,13.40768 -0.15776,0.58735 -0.47464,1.1199 -0.71196,1.67985 0,0 -0.12017,0.10817 -0.12017,0.10817 l 0,0 c -0.38417,0.007 -0.78234,0.12512 -1.15252,0.0221 -3.15213,-0.87704 -4.33496,-8.4885 -5.31223,-10.88489 -2.81976,-10.57324 -4.98161,-21.33258 -5.81937,-32.26091 -0.52814,-8.37662 -0.83183,-16.80957 0.40488,-25.14557 0,0 4.86291,-4.04316 4.86291,-4.04316 z"
       inkscape:connector-curvature="0"
       transform="translate(0,284.36218)" />
    <path
       style="fill:#ff6600;fill-opacity:1;fill-rule:nonzero;stroke:none"
       id="path4205"
       d="m 423.13439,411.8412 c -10.62475,1.13135 -21.31776,1.3648 -31.99226,1.56511 -11.82505,0.17117 -23.64995,-0.0512 -35.4695,-0.39889 -2.7464,-0.1514 -5.49463,-0.10776 -8.24238,-0.0868 -0.35815,0.003 -0.71631,-0.0192 -1.0744,-0.0125 -0.10533,0.002 -0.39353,0.10708 -0.3137,0.0383 1.01875,-0.87722 2.11197,-1.66405 3.16796,-2.49608 0.38506,1.04418 0.92553,1.65868 1.83583,2.25067 0,0 -0.1084,0.11997 -0.1084,0.11997 l 0,0 c -1.3609,-0.0661 -2.69982,0.0892 -4.05496,-0.078 0.72455,-1.21771 1.3349,-2.51107 2.17363,-3.65314 1.26009,-1.71583 9.27903,-1.10047 11.0679,-1.27646 11.87486,0.0597 23.74932,0.3662 35.62485,0.17807 10.58154,-0.2062 21.15748,-0.5782 31.71713,-1.31147 0,0 -4.3317,5.1612 -4.3317,5.1612 z"
       inkscape:connector-curvature="0"
       transform="translate(0,284.36218)" />
    <path
       style="fill:#ff6600;fill-opacity:1;fill-rule:nonzero;stroke:none"
       id="path4207"
       d="m 356.36892,407.68823 c -2.64924,-7.42556 -3.32982,-15.36877 -4.07515,-23.16287 -0.64487,-8.74378 -0.96445,-17.5055 -1.60334,-26.24975 -0.20602,-3.98258 -1.33345,-8.16707 -0.0562,-12.04582 1.48414,-2.14365 0.83208,-1.18096 1.96767,-2.88024 0,0 0.12653,-0.10066 0.12653,-0.10066 l 0,0 c 0.41557,0.5612 0.0997,0.31896 1.1801,0.18226 1.78547,2.05652 2.04458,7.32846 2.48837,9.88685 0.8391,8.72255 1.02079,17.48364 1.63086,26.22287 0.63598,7.9991 1.48969,15.97318 3.11392,23.84102 0,0 -4.77272,4.30634 -4.77272,4.30634 z"
       inkscape:connector-curvature="0"
       transform="translate(0,284.36218)" />
    <path
       style="fill:#ff6600;fill-opacity:1;fill-rule:nonzero;stroke:none"
       id="path4209"
       d="m 781.39143,530.4261 c -11.21695,0.81183 -22.38133,2.21906 -33.54779,3.53205 -14.25261,1.81313 -28.56001,3.07405 -42.90509,3.83232 -4.34786,0.0376 -8.72579,0.48799 -13.07692,0.23587 -1.22133,-0.0708 -1.0014,0.16447 -1.23931,-0.58605 0.55964,-0.33928 1.11927,-0.67855 1.6789,-1.01783 0,0 -0.11087,0.11768 -0.11087,0.11768 l 0,0 c 0.17119,-0.5453 0.34238,-1.09059 0.51356,-1.63589 1.6083,-0.97653 2.97496,-1.11443 4.86529,-1.28956 3.8624,-0.35784 7.74009,-0.5357 11.60588,-0.84853 14.42439,-1.06124 28.82362,-2.43785 43.17833,-4.21653 11.16819,-1.34115 22.33948,-2.86081 33.577,-3.47109 0,0 -4.53898,5.34756 -4.53898,5.34756 z"
       inkscape:connector-curvature="0"
       transform="translate(0,284.36218)" />
    <path
       style="fill:#ff6600;fill-opacity:1;fill-rule:nonzero;stroke:none"
       id="path4211"
       d="m 777.44401,528.90429 c -0.44785,6.98575 -0.46398,13.98173 -0.36429,20.97781 0.2422,8.53031 0.66707,17.05178 0.63326,25.58731 -0.14966,6.45827 -0.46254,12.91216 -0.61035,19.37043 0.16117,2.83501 -0.72798,5.46652 -1.36174,8.17329 0,0 -0.12189,0.10624 -0.12189,0.10624 l 0,0 c -0.44166,-0.53832 -1.06697,-0.93074 -1.42349,-1.52886 -0.5857,-0.98262 -0.68674,-2.47222 -0.85085,-3.52749 -0.42129,-6.21603 -0.18243,-12.42927 -0.2382,-18.65582 -0.1086,-8.50579 -0.45326,-17.00295 -0.72148,-25.50462 -0.0883,-7.17096 -0.0375,-14.36368 0.87876,-21.48903 0,0 4.18027,-3.50926 4.18027,-3.50926 z"
       inkscape:connector-curvature="0"
       transform="translate(0,284.36218)" />
    <path
       style="fill:#ff6600;fill-opacity:1;fill-rule:nonzero;stroke:none"
       id="path4213"
       d="m 748.62705,610.16873 c -9.92446,-1.35964 -19.99454,-1.19362 -29.99067,-1.24693 -12.38594,-0.0254 -24.76748,0.28536 -37.14639,0.66286 -2.86095,0.0318 -5.72333,0.23089 -8.58521,0.22547 -0.70089,-0.001 -1.97041,0.1786 -1.48652,-0.80658 0.67548,-0.49036 1.35097,-0.98071 2.02646,-1.47106 0,0 -0.10472,0.12319 -0.10472,0.12319 l 0,0 c 0.12054,-0.47732 0.24109,-0.95465 0.36163,-1.43197 2.78546,-2.31104 9.09132,-1.55858 12.45842,-2.15058 12.41011,-0.5932 24.83554,-0.73595 37.25871,-0.74684 10.03503,0.0161 20.18458,-0.22323 30.12414,1.34146 0,0 -4.91585,5.50098 -4.91585,5.50098 z"
       inkscape:connector-curvature="0"
       transform="translate(0,284.36218)" />
    <path
       style="fill:#ff6600;fill-opacity:1;fill-rule:nonzero;stroke:none"
       id="path4215"
       d="m 681.32542,601.21563 c -0.399,-7.02314 -0.71627,-14.051 -0.97995,-21.08052 -0.29506,-7.05763 -0.5334,-14.12099 -0.11095,-21.1766 0.27575,-3.87457 0.89557,-7.64945 2.98872,-10.96228 0.39011,-0.48655 0.78022,-0.97309 1.17033,-1.45964 0,0 0.12317,-0.10474 0.12317,-0.10474 l 0,0 c 0.38277,-0.15274 0.76553,-0.30548 1.1483,-0.45822 0.21862,0.0509 0.49813,-0.007 0.65588,0.15273 0.76361,0.77315 -0.36775,6.73563 -0.26888,7.92041 -0.37882,7.03649 -0.17208,14.08002 0.0719,21.11869 0.2266,7.26736 0.60341,14.56012 0.17595,21.82459 0,0 -4.97443,4.22558 -4.97443,4.22558 z"
       inkscape:connector-curvature="0"
       transform="translate(0,284.36218)" />
    <path
       style="fill:#ff6600;fill-opacity:1;fill-rule:nonzero;stroke:none"
       id="path4217"
       d="m 187.73425,451.14905 c 2.46818,-9.73133 3.72242,-19.71395 5.09045,-29.64351 2.44073,-20.05433 5.15439,-40.06578 8.38586,-60.00815 3.91824,-22.72154 8.37485,-45.35418 13.66,-67.79795 1.97989,-7.08785 3.00721,-14.52951 5.76788,-21.3962 0.72571,-1.80506 1.70972,-3.49519 2.56457,-5.24279 0,0 0.12598,-0.10134 0.12598,-0.10134 l 0,0 c 0.007,1.05016 0.1578,2.10927 0.0208,3.15049 -0.90831,6.90597 -3.74495,13.61098 -4.71043,20.51006 -4.59558,22.33123 -9.30795,44.64817 -12.93738,67.1628 -3.11513,19.87835 -5.81227,39.81012 -8.15009,59.79533 -1.37129,10.13265 -2.7142,20.33132 -5.59782,30.16924 0,0 -4.21987,3.40202 -4.21987,3.40202 z"
       inkscape:connector-curvature="0"
       transform="translate(0,284.36218)" />
    <path
       style="fill:#ff6600;fill-opacity:1;fill-rule:nonzero;stroke:none"
       id="path4219"
       d="m 291.27032,238.87374 c 6.69593,4.45546 12.98885,9.47049 19.18016,14.59278 11.61304,9.92008 22.706,20.42995 33.85779,30.86041 6.10535,5.64722 12.21669,11.28783 18.37647,16.87571 2.93813,2.66533 8.09162,7.2234 10.93001,10.0832 1.58602,1.59798 3.05803,3.30524 4.58704,4.95786 1.4028,1.54992 2.80561,3.09983 4.20841,4.64975 0,0 -0.11306,0.11558 -0.11306,0.11558 l 0,0 c -1.87194,-1.07171 -3.74388,-2.14341 -5.61582,-3.21512 -1.95863,-1.21731 -3.97793,-2.34205 -5.8759,-3.65195 -10.95879,-7.56332 -20.26868,-17.30096 -30.222,-26.06408 -11.17668,-10.39099 -22.26057,-20.89939 -33.92879,-30.74298 -6.17633,-5.10108 -12.37722,-10.21169 -19.11179,-14.57118 0,0 3.72748,-3.88998 3.72748,-3.88998 z"
       inkscape:connector-curvature="0"
       transform="translate(0,284.36218)" />
    <path
       style="fill:#ff6600;fill-opacity:1;fill-rule:nonzero;stroke:none"
       id="path4221"
       d="m 456.55033,425.13783 c 2.92622,3.19428 6.05567,6.17368 9.42651,8.89194 5.1117,3.95385 10.93105,6.78299 16.76373,9.48818 11.50888,5.02689 23.33821,9.26439 35.10152,13.64595 18.12082,6.63155 35.95148,14.01064 53.65517,21.67622 21.52174,9.47624 42.51632,20.09027 63.52608,30.63767 9.99622,5.25699 19.9301,10.5756 30.07281,15.54438 0,0 -0.11001,0.11849 -0.11001,0.11849 l 0,0 c -10.85661,-4.26433 -21.84496,-8.19735 -32.50728,-12.94038 -21.46382,-9.84369 -42.62979,-20.32983 -64.24861,-29.83631 -17.75238,-7.63395 -35.65113,-14.91893 -53.85294,-21.42293 -11.78955,-4.33203 -23.64902,-8.53889 -35.10824,-13.70154 -5.84126,-2.76091 -11.75824,-5.53645 -16.82806,-9.60704 -3.31926,-2.82274 -6.39017,-5.89392 -9.13967,-9.28133 0,0 3.24899,-3.2133 3.24899,-3.2133 z"
       inkscape:connector-curvature="0"
       transform="translate(0,284.36218)" />
    <path
       style="fill:#ff6600;fill-opacity:1;fill-rule:nonzero;stroke:none"
       id="path4229"
       d="m 359.6649,433.03172 c -6.75087,6.14555 -14.10831,11.55558 -21.47145,16.93212 -14.49717,10.42201 -29.39429,20.26641 -44.44016,29.87307 -10.67108,6.77692 -21.53729,13.2379 -32.29865,19.86866 -1.51795,0.97471 -2.68726,1.70293 -4.12819,2.69557 -0.28072,0.19338 -0.89822,0.93466 -0.82723,0.60125 0.0985,-0.46276 0.50274,-0.86653 0.92791,-1.07412 0.21722,-0.10605 -0.11414,0.46978 -0.17121,0.70467 0,0 -0.12204,0.10605 -0.12204,0.10605 l 0,0 c -0.0883,-0.13039 -0.34493,-0.25555 -0.2649,-0.39118 2.00941,-3.40562 5.42703,-5.66236 8.56718,-7.8815 10.76203,-7.15256 21.9623,-13.61164 32.84189,-20.58139 15.01703,-9.60141 29.88483,-19.43871 44.36113,-29.84329 7.16786,-5.20007 14.30778,-10.44873 20.94545,-16.32425 0,0 -3.91973,5.31434 -3.91973,5.31434 z"
       inkscape:connector-curvature="0"
       transform="translate(0,284.36218)" />
  </g>
</svg>
