<?xml version="1.0" encoding="UTF-8" standalone="no"?>
<!-- Created with Inkscape (http://www.inkscape.org/) -->

<svg
   xmlns:dc="http://purl.org/dc/elements/1.1/"
   xmlns:cc="http://creativecommons.org/ns#"
   xmlns:rdf="http://www.w3.org/1999/02/22-rdf-syntax-ns#"
   xmlns:svg="http://www.w3.org/2000/svg"
   xmlns="http://www.w3.org/2000/svg"
   xmlns:sodipodi="http://sodipodi.sourceforge.net/DTD/sodipodi-0.dtd"
   xmlns:inkscape="http://www.inkscape.org/namespaces/inkscape"
   width="1024"
   height="768"
   id="svg4160"
   version="1.1"
   inkscape:version="0.48.4 r9939"
   sodipodi:docname="git4.svg">
  <defs
     id="defs4162" />
  <sodipodi:namedview
     id="base"
     pagecolor="#ffffff"
     bordercolor="#666666"
     borderopacity="1.0"
     inkscape:pageopacity="0.0"
     inkscape:pageshadow="2"
     inkscape:zoom="0.86588542"
     inkscape:cx="512"
     inkscape:cy="371.18049"
     inkscape:document-units="px"
     inkscape:current-layer="layer1"
     showgrid="false"
     inkscape:window-width="1600"
     inkscape:window-height="886"
     inkscape:window-x="0"
     inkscape:window-y="14"
     inkscape:window-maximized="0" />
  <metadata
     id="metadata4165">
    <rdf:RDF>
      <cc:Work
         rdf:about="">
        <dc:format>image/svg+xml</dc:format>
        <dc:type
           rdf:resource="http://purl.org/dc/dcmitype/StillImage" />
        <dc:title></dc:title>
      </cc:Work>
    </rdf:RDF>
  </metadata>
  <g
     inkscape:label="Ebene 1"
     inkscape:groupmode="layer"
     id="layer1"
     transform="translate(0,-284.36218)">
    <g
       id="g3608"
       transform="matrix(0.99838441,0.05682056,-0.05682056,0.99838441,-264.42874,-42.745028)">
      <path
         transform="translate(0,284.36218)"
         inkscape:connector-curvature="0"
         d="m 484.42501,685.85327 c -3.15212,-6.05442 -4.97152,-12.69283 -6.86346,-19.21878 -2.52793,-9.16259 -4.81355,-18.38926 -7.20588,-27.58757 -1.51456,-5.7019 -3.00677,-11.40879 -4.39436,-17.14289 -0.40049,-1.98091 -0.96929,-3.9353 -1.26862,-5.93651 2.05693,-1.58239 3.87964,-3.52833 6.17078,-4.74718 0.38328,-0.20389 0.50689,0.70524 0.74595,1.06762 0.36218,0.54901 0.70797,1.10868 1.05735,1.66592 1.88899,3.0129 3.75268,6.03855 5.66386,9.03778 6.40986,10.16055 13.80596,19.6212 21.81427,28.55797 6.17793,6.69042 13.08842,12.65954 21.44537,16.38462 2.69441,0.86338 5.94741,1.85261 8.62696,0.30902 0.51952,-0.29927 1.82609,-1.55367 1.38499,-1.1476 -1.43224,1.31852 -2.90644,2.59073 -4.35966,3.88609 2.82774,-6.53169 1.06808,-13.89229 -0.37502,-20.56018 -1.70453,-7.23649 -4.37748,-14.17635 -7.32054,-20.98475 -1.36485,-3.25802 -3.068,-6.38119 -4.19949,-9.73382 -0.86067,-2.55967 0.97038,-3.90351 2.25856,-5.88533 0,0 0.12495,-0.10262 0.12495,-0.10262 l 0,0 c 2.07919,0.37951 1.57754,-2.14568 3.14778,0.87839 1.54657,3.14234 2.9366,6.35997 4.37837,9.55088 2.93683,6.87049 5.62501,13.86283 7.36106,21.14724 1.50837,6.80935 3.23736,14.1391 0.91117,20.95613 -0.22196,0.23841 -5.23796,6.8481 -8.26928,8.17805 -2.94201,1.29076 -6.21876,0.29807 -9.06106,-0.69982 -8.37543,-3.89581 -15.25887,-10.0522 -21.45609,-16.83593 -7.98785,-9.00671 -15.37648,-18.51496 -21.89133,-28.65079 -1.92194,-2.98553 -3.81031,-5.99058 -5.71599,-8.98619 -0.34573,-0.54348 -0.69278,-1.08632 -1.05423,-1.61948 -0.22246,-0.32814 -0.91882,-0.63511 -0.69699,-0.96368 1.44848,-2.14546 3.48396,-3.82968 5.22594,-5.74452 -0.31095,1.15966 1.19608,4.5383 1.13203,5.80865 1.28371,5.77749 2.79058,11.5012 4.26809,17.23143 2.34458,9.20687 4.60192,18.43806 7.17117,27.5858 1.89091,6.42204 3.73564,12.95234 6.91333,18.8815 0,0 -5.66998,5.42055 -5.66998,5.42055 z"
         id="path3543"
         style="fill:#000080;fill-opacity:1;fill-rule:nonzero;stroke:none" />
      <path
         transform="translate(0,284.36218)"
         inkscape:connector-curvature="0"
         d="m 543.26392,635.61304 c 1.43057,5.37587 3.22066,10.63703 5.28308,15.80044 1.7233,4.19077 3.90341,8.16615 6.80634,11.6506 1.65258,1.91521 3.76348,3.26931 5.95041,4.48568 1.83801,1.11002 1.91041,1.69244 0.77736,3.46591 0,0 -1.29816,1.45602 -1.29816,1.45602 l 0,0 c -1.62868,1.29008 -3.01817,1.93023 -4.99896,0.90723 -2.25712,-1.28624 -4.42863,-2.7218 -6.13452,-4.7161 -2.94174,-3.56258 -5.16951,-7.60714 -6.9294,-11.87586 -2.07687,-5.17689 -3.89369,-10.44976 -5.38052,-15.82834 0,0 5.92437,-5.34558 5.92437,-5.34558 z"
         id="path3545"
         style="fill:#000080;fill-opacity:1;fill-rule:nonzero;stroke:none" />
      <path
         transform="translate(0,284.36218)"
         inkscape:connector-curvature="0"
         d="m 539.34394,620.18265 c 5.14903,-5.14741 8.33386,-9.45822 15.17331,-5.48855 3.28415,2.79689 3.63383,5.98684 2.27692,9.88897 -2.34545,3.74386 -6.13292,9.14349 -11.06117,9.12953 -1.74108,-0.005 -2.27876,-0.40461 -3.87258,-1.04791 -3.86525,-2.20659 -6.0899,-5.71207 -6.63274,-10.06486 0.0274,-2.47327 0.90493,-4.70577 2.67054,-6.46337 3.33694,-3.32181 2.0079,-3.7265 3.82328,-2.98109 0,0 -0.0978,0.12873 -0.0978,0.12873 l 0,0 c -0.51564,0.47112 -2.24435,1.451 -1.54691,1.41337 0.71757,-0.0387 1.00179,-1.05849 1.62427,-1.41754 0.21566,-0.1244 -0.23119,0.44157 -0.3291,0.67046 -0.53017,1.23947 -0.78537,2.47959 -0.6754,3.83872 0.68367,3.96051 2.8569,7.18764 6.44037,9.13145 1.78544,0.62541 3.32464,1.11708 5.18967,0.38481 0.51603,-0.2026 1.77832,-1.26999 1.44137,-0.82976 -1.20116,1.56935 -2.66162,2.92645 -4.09083,4.29137 -0.42371,0.40465 0.70872,-0.9332 1.06307,-1.3998 1.60014,-3.5049 1.67852,-6.52429 -1.32834,-9.29297 -1.58114,-0.90692 -2.93344,-1.51711 -4.82012,-1.28347 -0.5788,0.0717 -1.15031,0.22423 -1.69598,0.43013 -0.53662,0.20249 -1.85618,1.25898 -1.53004,0.78718 1.0501,-1.51913 2.52234,-2.69809 3.78351,-4.04714 0,0 -5.80528,4.22174 -5.80528,4.22174 z"
         id="path3547"
         style="fill:#000080;fill-opacity:1;fill-rule:nonzero;stroke:none" />
      <path
         transform="translate(0,284.36218)"
         inkscape:connector-curvature="0"
         d="m 592.7433,636.15358 c -3.75698,-3.00005 -7.36907,-2.52287 -11.61434,-0.951 -0.76189,0.41813 -1.55321,0.78662 -2.28567,1.25441 -0.7593,0.48493 -1.49368,1.01409 -2.18008,1.59766 -0.70631,0.60049 -2.73814,2.48958 -1.9875,1.94552 1.24001,-0.89876 1.99128,-2.60116 3.46531,-3.01664 0.88667,-0.24993 -0.9691,1.57389 -1.3394,2.41741 -0.38327,0.87305 -0.608,1.80741 -0.91199,2.71112 -1.03711,5.35871 -0.0895,10.89585 2.81288,15.55561 0.61154,0.98181 1.37598,1.85968 2.06397,2.78952 5.66482,6.11166 11.92481,7.63836 19.9495,8.13574 5.67047,0.26826 11.10275,-1.39591 16.62666,-2.31282 2.05418,-1.21223 0.039,1.23077 1.17271,0.71035 0,0 -0.0955,0.13046 -0.0955,0.13046 l 0,0 c -1.52462,1.6143 -3.04047,3.28629 -5.11758,4.20015 -5.606,2.44592 -11.63104,3.35686 -17.74373,3.22701 -8.23399,-0.62365 -14.65016,-2.32689 -20.45545,-8.59019 -0.71758,-0.95934 -1.5116,-1.866 -2.15274,-2.87802 -3.07757,-4.8578 -4.11373,-10.55858 -3.03462,-16.182 2.05237,-6.52471 3.27896,-6.80919 9.10437,-12.83604 1.85239,-1.91646 4.0793,-3.36174 6.52934,-4.38959 4.5362,-1.38448 8.05958,-1.40438 11.75297,1.91533 0,0 -4.55909,4.56601 -4.55909,4.56601 z"
         id="path3549"
         style="fill:#000080;fill-opacity:1;fill-rule:nonzero;stroke:none" />
      <path
         transform="translate(0,284.36218)"
         inkscape:connector-curvature="0"
         d="m 601.7649,604.32753 c 5.9363,3.87258 10.10565,9.8229 14.19953,15.47793 5.53584,7.87497 10.37776,16.20469 14.79999,24.74637 2.61484,5.02875 4.72814,10.28509 6.7381,15.57652 0.14437,0.3873 0.2866,0.77541 0.43311,1.16191 0.17748,0.46818 0.59072,1.39315 0.57454,1.40577 -6.45719,5.03473 -5.41699,7.01029 -6.58475,3.52104 -1.17757,-3.59989 -2.13068,-7.2676 -2.99787,-10.95289 -1.28989,-5.03107 -1.23655,-10.13994 -0.61621,-15.25231 0.87276,-5.61308 2.90161,-10.86827 6.27621,-15.43048 4.27091,-4.36724 7.99489,-10.63544 14.57223,-7.08665 0.76526,0.41289 1.43856,0.97722 2.15785,1.46584 5.82141,5.18421 9.31933,12.30777 12.75986,19.16816 3.40687,7.00142 6.4357,14.17699 9.43083,21.36139 0.64346,2.13946 2.77641,6.10392 2.32204,8.41821 -0.95658,2.28501 -0.74848,1.32227 -0.97351,2.78997 0,0 -0.1165,0.11211 -0.1165,0.11211 l 0,0 c -0.79164,-0.0462 -1.57264,0.44485 -2.35659,0.32546 -1.82184,-0.27745 -3.78688,-5.11129 -4.53357,-6.39835 -3.185,-7.07455 -6.09662,-14.27183 -9.48092,-21.25625 -3.36727,-6.74489 -6.73568,-13.80291 -12.46612,-18.89076 -2.31817,-1.53046 -4.62795,-2.89221 -7.43086,-1.60133 -0.55802,0.257 -1.92631,1.48068 -1.55271,0.99297 1.13787,-1.48546 2.59422,-2.6973 3.89133,-4.04595 -3.52154,4.38651 -5.60213,9.56942 -6.54045,15.11476 -0.66342,5.0078 -0.71504,10.01289 0.53621,14.94991 0.8745,3.64486 1.84742,7.26668 3.02602,10.82641 1.26613,3.66711 0.68184,0.98681 -5.25117,7.30684 -0.0519,0.0552 -0.0363,-0.14721 -0.0586,-0.21962 -0.13341,-0.43262 -0.27901,-0.86138 -0.41999,-1.29159 -0.12988,-0.39631 -0.26157,-0.79203 -0.39235,-1.18804 -1.85044,-5.33922 -4.01112,-10.56805 -6.54211,-15.62306 -4.37966,-8.5319 -9.14363,-16.8703 -14.64223,-24.73903 -4.00752,-5.55531 -8.05303,-11.49038 -13.9253,-15.23613 0,0 5.164,-5.50913 5.164,-5.50913 z"
         id="path3551"
         style="fill:#000080;fill-opacity:1;fill-rule:nonzero;stroke:none" />
      <path
         transform="translate(0,284.36218)"
         inkscape:connector-curvature="0"
         d="m 683.27117,596.52699 c 0.62544,7.44738 3.06658,14.56695 5.45327,21.59625 3.14252,8.93049 7.08353,17.54321 11.59841,25.85586 2.65149,4.96579 6.10693,9.32689 10.23113,13.12672 1.04144,1.25705 3.90265,2.51791 3.78205,4.49564 -0.0369,0.60555 -0.35354,1.16069 -0.53031,1.74104 0,0 -0.1091,0.11933 -0.1091,0.11933 l 0,0 c -0.72758,0.38674 -1.405,0.88809 -2.18274,1.16022 -2.32649,0.81404 -4.63761,-0.72352 -6.4805,-1.92379 -4.37875,-3.67126 -7.67858,-8.33342 -10.43292,-13.31883 -4.50944,-8.36745 -8.45442,-17.02669 -11.6498,-25.98569 -2.46081,-7.12075 -4.81701,-14.38404 -5.40474,-21.94229 0,0 5.72525,-4.92446 5.72525,-4.92446 z"
         id="path3553"
         style="fill:#000080;fill-opacity:1;fill-rule:nonzero;stroke:none" />
      <path
         transform="translate(0,284.36218)"
         inkscape:connector-curvature="0"
         d="m 700.95229,631.10774 c -5.88406,-0.53672 -11.72308,0.35605 -17.46391,1.56521 -2.63307,0.56699 -5.21199,1.34818 -7.84488,1.91538 -0.3561,0.0767 -2.99059,0.71629 -3.58872,0.37131 -0.3743,-0.21588 -0.35123,-0.78959 -0.52685,-1.18438 0,0 0.10189,-0.12554 0.10189,-0.12554 l 0,0 c 1.06596,-0.71331 2.09427,-1.48636 3.19788,-2.13991 4.18107,-2.47602 9.01665,-3.73828 13.67011,-4.95022 5.79497,-1.17567 11.70486,-2.05159 17.62586,-1.35873 0,0 -5.17138,5.90688 -5.17138,5.90688 z"
         id="path3555"
         style="fill:#000080;fill-opacity:1;fill-rule:nonzero;stroke:none" />
      <path
         transform="translate(0,284.36218)"
         inkscape:connector-curvature="0"
         d="m 767.12886,633.4333 c -6.19018,-0.40393 -12.21416,0.96401 -18.12455,2.63126 -6.78371,2.05303 -13.24223,5.00898 -19.9435,7.29114 -0.13337,0.0361 -2.1335,0.88266 -2.65488,0.26488 -0.1807,-0.21412 -0.004,-0.56034 -0.007,-0.84051 0,0 0.0998,-0.12722 0.0998,-0.12722 l 0,0 c 2.05866,-1.75895 4.13011,-3.45523 6.66754,-4.50114 6.71823,-3.1519 13.62319,-5.93016 20.71677,-8.12226 5.9023,-1.6011 11.94012,-2.93488 18.09345,-2.1715 0,0 -4.84794,5.57535 -4.84794,5.57535 z"
         id="path3557"
         style="fill:#000080;fill-opacity:1;fill-rule:nonzero;stroke:none" />
      <path
         transform="translate(0,284.36218)"
         inkscape:connector-curvature="0"
         d="m 786.72927,586.6284 c 2.68814,7.78787 4.59901,15.82588 6.61314,23.8082 2.71897,10.68496 5.17829,21.43333 7.28675,32.25516 1.08081,5.0861 1.54693,10.304 2.79169,15.35594 0.47259,2.07269 2.71608,1.86142 4.46662,2.04616 4.60314,0.41696 9.20265,-0.13442 13.75601,-0.77418 4.46819,-0.53548 8.83787,-1.9511 13.34971,-2.07022 2.51208,0.31476 2.37576,0.74026 1.5071,3.02146 0,0 -0.11057,0.11796 -0.11057,0.11796 l 0,0 c -1.93923,1.18702 -3.85906,2.10649 -6.11395,2.54085 -4.52153,1.05429 -9.13227,1.70054 -13.70389,2.49541 -4.61986,0.62445 -9.28566,1.15143 -13.94981,0.697 -2.11688,-0.24776 -4.55483,-0.32001 -5.19466,-2.74561 -0.84126,-5.22041 -1.43676,-10.4823 -2.44042,-15.67795 -2.04741,-10.84913 -4.47819,-21.61704 -7.1378,-32.33255 -1.98373,-8.00854 -3.90649,-16.04273 -6.37936,-23.91823 0,0 5.25944,-4.8194 5.25944,-4.8194 z"
         id="path3559"
         style="fill:#000080;fill-opacity:1;fill-rule:nonzero;stroke:none" />
      <path
         transform="translate(0,284.36218)"
         inkscape:connector-curvature="0"
         d="m 836.54428,615.89417 c 0.85302,6.20956 3.06957,12.06621 5.60892,17.7545 2.25287,4.87028 5.16275,9.36256 8.80051,13.30046 0.61835,0.99975 2.83139,2.33452 3.02908,3.55935 0.0921,0.57097 -0.31235,1.80326 -0.45663,2.32427 0,0 -0.10806,0.12028 -0.10806,0.12028 l 0,0 c -3.54266,1.9946 -4.81268,2.26933 -8.0909,-0.41142 -3.77395,-3.93853 -6.64242,-8.60761 -8.93206,-13.5473 -2.52369,-5.83058 -4.71931,-11.83581 -5.46422,-18.18735 0,0 5.61336,-4.91279 5.61336,-4.91279 z"
         id="path3561"
         style="fill:#000080;fill-opacity:1;fill-rule:nonzero;stroke:none" />
      <path
         transform="translate(0,284.36218)"
         inkscape:connector-curvature="0"
         d="m 830.42533,596.83188 c 4.01042,-2.62885 7.84237,-2.30424 12.11775,-0.60216 2.10834,1.16415 4.9395,3.08265 4.26125,5.93522 -0.11132,0.46817 -0.38207,0.88336 -0.57311,1.32504 -4.51648,5.84617 -8.25079,9.29007 -15.29213,9.26641 -2.85047,-0.39582 -6.02184,-1.83805 -6.90519,-4.87365 -0.1652,-0.5677 -0.12882,-1.17547 -0.19323,-1.76321 0.89684,-2.94017 0.37973,-1.5266 1.53373,-4.24711 0,0 0.1234,-0.10448 0.1234,-0.10448 l 0,0 c 1.07788,0.85016 0.43801,0.48964 1.98156,0.96335 2.49617,2.10581 4.79495,4.25321 8.2926,4.34754 1.991,-0.0746 3.74534,-0.28286 5.58366,-1.12898 0.57064,-0.26265 1.99476,-1.44084 1.64543,-0.91874 -1.02908,1.53802 -2.53909,2.69375 -3.76222,4.08244 -0.35068,0.39815 0.76168,-0.73877 1.14253,-1.10816 2.21682,-3.32891 0.24839,-4.74544 -2.75589,-6.43743 -3.86404,-1.50715 -7.80027,-1.86641 -11.28736,0.79249 0,0 4.08722,-5.52857 4.08722,-5.52857 z"
         id="path3563"
         style="fill:#000080;fill-opacity:1;fill-rule:nonzero;stroke:none" />
      <path
         transform="translate(0,284.36218)"
         inkscape:connector-curvature="0"
         d="m 861.27406,612.23441 c 2.68523,7.14973 5.949,14.05762 9.33872,20.89452 3.31219,6.41696 6.71138,12.78799 9.91114,19.26236 2.11184,4.41361 2.85656,3.89339 -4.29669,7.8458 -0.36502,0.20169 -0.38864,-0.73868 -0.55815,-1.11971 -0.24654,-0.55418 -0.45945,-1.12272 -0.68918,-1.68408 -2.14137,-5.64 -3.38632,-11.54297 -4.17717,-17.50684 -0.73882,-6.05393 0.11884,-11.32758 2.95389,-16.69424 3.82066,-4.76594 8.04034,-11.13117 14.57479,-11.79605 0.7774,-0.0791 1.56276,0.0137 2.34414,0.0205 6.6726,1.05942 10.80421,6.26451 14.49188,11.45367 3.82075,5.9809 6.83842,12.45863 8.38461,19.39541 0.5384,2.23635 -0.33207,4.21401 -0.94865,6.30876 0,0 -0.11978,0.10861 -0.11978,0.10861 l 0,0 c -1.6429,-0.37485 -2.81148,-0.35672 -3.6386,-2.11104 -3.14442,-6.06934 -5.44532,-12.57958 -9.27683,-18.28686 -3.52952,-4.96273 -7.5137,-10.03844 -13.93519,-10.94786 -1.9961,0.0757 -2.39909,-0.0785 -4.28178,0.66193 -0.67721,0.26635 -2.28952,1.64081 -1.93899,1.0031 0.86522,-1.57411 2.48045,-2.60565 3.59437,-4.01477 0.99709,-1.26131 -4.65748,4.61273 -3.23668,3.57631 -3.14725,5.3543 -4.04221,10.24742 -3.40896,16.45079 0.73831,5.89941 1.96615,11.73873 4.11136,17.30221 0.22653,0.5424 0.44157,1.08973 0.67958,1.62718 0.15482,0.34959 0.71688,0.71921 0.49849,1.03303 -5.87621,8.44412 -4.3702,6.67942 -6.42765,2.33202 -3.10759,-6.55523 -6.50345,-12.96637 -9.65365,-19.50104 -3.32116,-6.94686 -6.55763,-13.94952 -9.07725,-21.23539 0,0 4.78223,-4.37829 4.78223,-4.37829 z"
         id="path3565"
         style="fill:#000080;fill-opacity:1;fill-rule:nonzero;stroke:none" />
      <path
         transform="translate(0,284.36218)"
         inkscape:connector-curvature="0"
         d="m 931.74959,631.2664 c 4.05596,0.44324 7.99645,-0.0133 11.89563,-1.13357 2.49323,-0.87471 4.8779,-2.10442 6.86014,-3.87413 0.44777,-0.39976 1.7088,-1.68607 1.2674,-1.27928 -1.43395,1.32153 -2.83066,2.6829 -4.24599,4.02434 2.56029,-3.8114 1.76097,-7.12913 -0.27842,-10.94805 -3.57635,-4.81279 -7.39731,-5.69486 -13.11208,-4.94675 -0.84683,0.25361 -1.71593,0.44215 -2.54048,0.76083 -1.69607,0.65552 -3.26903,1.55979 -4.68664,2.69899 -0.69802,0.56093 -2.65342,2.40316 -1.95603,1.84144 3.85075,-3.10166 4.41613,-4.76814 2.25104,-0.78667 -2.37935,6.19236 -0.46934,12.29373 1.94114,18.12942 2.42446,4.90369 5.80807,9.43936 10.67513,12.14252 0.88209,0.48992 1.83365,0.84271 2.75047,1.26407 5.57882,1.97216 11.40885,1.25862 17.10998,0.35078 2.25488,0.0349 1.199,-0.0388 3.17014,0.18209 0,0 -0.1,0.12709 -0.1,0.12709 l 0,0 c -4.23998,2.80532 -2.06539,1.48129 -6.52514,3.96986 -6.42955,2.43795 -12.39118,3.63803 -19.05646,1.16132 -0.94464,-0.449 -1.92489,-0.82968 -2.83391,-1.34699 -4.96878,-2.82761 -8.4645,-7.45976 -10.98593,-12.48956 -2.56088,-6.04903 -4.31135,-12.46223 -2.05879,-18.91164 2.5964,-5.2152 0.96111,-2.51711 8.00709,-9.70545 2.55224,-2.60381 5.89548,-4.12999 9.42026,-4.87638 6.164,-0.58677 9.75712,0.58218 13.83007,5.40712 2.35184,3.81609 3.48983,7.257 1.12838,11.40367 -4.60044,4.82878 -8.22161,9.67857 -14.76048,11.53619 -3.7968,0.90985 -7.66421,1.18088 -11.48981,0.19781 0,0 4.32325,-4.89907 4.32325,-4.89907 z"
         id="path3567"
         style="fill:#000080;fill-opacity:1;fill-rule:nonzero;stroke:none" />
      <path
         transform="translate(0,284.36218)"
         inkscape:connector-curvature="0"
         d="m 981.1035,628.55528 c -0.1898,-4.4823 -2.03886,-8.45377 -4.67025,-11.997 -3.01308,-3.39929 -5.87815,-4.38284 -10.2223,-3.1856 -1.62946,0.7795 -2.01653,0.8526 -3.4558,2.00515 -0.55176,0.44185 -2.07451,1.92124 -1.55706,1.43967 5.51561,-5.13314 3.58974,-3.87611 2.31834,-1.40373 -0.33901,0.65924 -0.56611,1.37026 -0.84916,2.05538 -1.60883,5.62672 0.31056,10.9453 2.95834,15.89258 2.58733,3.89057 6.14638,7.57554 11.01103,8.27391 0.82814,0.11889 1.67293,0.0334 2.50939,0.0501 2.23035,-0.5188 2.78421,-0.45144 4.76699,-1.71563 0.7493,-0.47774 2.67925,-2.32224 2.08434,-1.66212 -7.20653,7.99647 -2.88371,2.49917 -2.10206,1.02742 0.44646,-0.84063 0.74551,-1.75161 1.11827,-2.62742 1.64911,-5.09493 1.08396,-10.33896 -0.18585,-15.43268 -1.69829,-5.80972 -2.73909,-1.75238 4.1951,-8.20961 0.88846,4.03376 3.2173,7.62131 5.39828,11.06497 3.59802,5.44252 8.0469,10.21675 12.7541,14.70297 1.1204,1.35631 4.5143,3.55999 5.0156,5.34378 0.2692,0.95762 -0.2629,1.72514 -0.6223,2.53838 0,0 -0.1086,0.11974 -0.1086,0.11974 l 0,0 c -1.0603,0.65965 -1.8497,1.3684 -3.1666,1.4051 -2.3693,0.066 -4.9634,-2.55265 -6.6501,-3.84075 -4.81787,-4.46855 -9.2523,-9.35342 -12.90095,-14.837 -2.2648,-3.59329 -4.58179,-7.29113 -5.57695,-11.47195 5.95798,-6.52196 5.26902,-8.09838 7.27573,-1.85998 1.37,5.1572 2.11231,10.45008 0.62955,15.68869 -2.30776,6.20441 -3.90773,7.09266 -9.74742,12.63448 -2.00702,1.90465 -4.62342,2.7807 -7.30828,3.08955 -0.88471,-0.0543 -1.78136,-0.008 -2.65413,-0.16276 -5.03694,-0.8925 -8.71783,-4.72546 -11.30326,-8.88172 -2.64407,-5.23219 -4.54403,-10.8176 -2.98756,-16.70216 1.85396,-4.91295 3.83627,-6.26207 8.19904,-10.60492 1.44459,-1.43799 3.22782,-2.429 5.14469,-3.07715 4.77363,-0.94174 7.35296,0.32197 10.54008,3.96116 2.6614,3.71502 4.58222,7.81938 4.73696,12.46917 0,0 -4.5872,3.91002 -4.5872,3.91002 z"
         id="path3569"
         style="fill:#000080;fill-opacity:1;fill-rule:nonzero;stroke:none" />
      <path
         transform="translate(0,284.36218)"
         inkscape:connector-curvature="0"
         d="m 1015.0622,650.81856 c -2.8998,-5.76076 -5.6406,-11.59358 -7.9092,-17.63276 -1.2189,-3.84497 -2.547,-8.1626 -0.9546,-12.11864 0.2531,-0.62858 0.6371,-1.19612 0.9556,-1.79418 5.3752,-7.2461 10.2481,-10.40569 18.4244,-12.20516 4.819,-0.88035 9.7014,-0.60412 14.4586,0.45302 1.7326,0.5969 4.6665,1.47107 4.0255,3.89349 -0.1502,0.56789 -0.4568,1.08241 -0.6853,1.62362 0,0 -0.1165,0.11207 -0.1165,0.11207 l 0,0 c -0.8896,0.33556 -1.7378,0.72709 -2.6967,0.83025 -1.9021,0.20464 -3.8628,-0.46354 -5.7428,-0.58141 -4.736,-0.76404 -9.5125,-1.22059 -14.2595,-0.17921 -2.596,0.63104 -5.0739,1.30231 -7.4399,2.5888 -0.7026,0.38202 -2.4558,1.95345 -2.0323,1.27504 0.9951,-1.59422 2.5714,-2.74185 3.823,-4.14379 0.4788,-0.5364 -1.0028,1.03087 -1.5042,1.54631 -0.3775,0.57421 -0.8172,1.11206 -1.1325,1.72264 -1.9796,3.83314 -0.9635,8.31035 0.053,12.25014 1.956,6.16914 4.5349,12.09111 7.5982,17.79479 0,0 -4.8643,4.56498 -4.8643,4.56498 z"
         id="path3571"
         style="fill:#000080;fill-opacity:1;fill-rule:nonzero;stroke:none" />
    </g>
    <g
       id="g3957"
       transform="matrix(1.1507588,0.18526085,-0.18526085,1.1507588,120.36661,-170.99208)">
      <path
         transform="translate(0,284.36218)"
         inkscape:connector-curvature="0"
         d="m 217.29372,326.68952 c -7.05925,1.49548 -14.02137,3.40872 -20.98131,5.30335 -11.9241,3.32057 -23.93202,6.3251 -35.95652,9.25689 -9.53294,2.30506 -19.08333,4.53513 -28.57478,7.00721 -3.53147,0.93397 -7.05117,1.92746 -10.49654,3.14528 -0.88865,0.31289 -1.74443,0.73357 -2.68382,0.86984 -0.84555,-0.91452 2.13225,-2.56893 2.44157,-2.86682 0,0 -0.10418,0.12365 -0.10418,0.12365 l 0,0 c 0.85127,-1.54727 1.0392,-2.44084 2.40267,-3.2113 0.95258,-0.48278 1.94347,-0.87176 2.96101,-1.19678 3.44351,-1.13273 6.94045,-2.09332 10.45174,-2.99158 9.43633,-2.3939 18.93456,-4.5287 28.40509,-6.78145 11.97029,-2.88531 23.91778,-5.8614 35.80061,-9.091 6.77744,-1.7578 13.55718,-3.64105 20.50524,-4.60144 0,0 -4.17078,5.03415 -4.17078,5.03415 z"
         id="path3889"
         style="fill:#ff6600;fill-opacity:1;fill-rule:nonzero;stroke:none" />
      <path
         transform="translate(0,284.36218)"
         inkscape:connector-curvature="0"
         d="m 222.64487,337.56423 c 4.59164,-4.1593 9.24154,-8.25367 13.85388,-12.38994 2.67758,-2.46777 5.47067,-4.81847 8.03868,-7.40295 -1.57714,1.57309 -3.15315,3.14732 -4.73143,4.71927 -0.0938,0.0935 0.27097,-0.1251 0.3066,-0.25264 0.0246,-0.0882 -0.61872,-0.32365 -1.15876,-0.54803 -2.9909,-1.15227 -6.11547,-1.91009 -9.21417,-2.70839 -5.08838,-1.34286 -10.23422,-2.45803 -15.39202,-3.49767 -4.28461,-0.94022 -8.66012,-1.1295 -13.02591,-1.29009 -3.58461,-0.0271 -2.1968,-1.10201 -0.35875,-3.23501 0,0 0.12682,-0.1003 0.12682,-0.1003 l 0,0 c 1.89934,-2.10372 2.53516,-3.00186 5.45221,-2.726 4.38668,0.20115 8.7781,0.46603 13.08004,1.42044 5.17424,1.05632 10.33972,2.1696 15.44972,3.50668 3.07697,0.85626 6.17855,1.72337 9.08631,3.06419 4.38362,2.3979 -0.71654,4.18736 -3.90948,7.53944 -2.56122,2.45186 -5.26604,4.74921 -7.88569,7.13738 -4.64395,4.14225 -9.31994,8.24997 -13.89304,12.47064 0,0 4.17499,-5.70702 4.17499,-5.70702 z"
         id="path3891"
         style="fill:#ff6600;fill-opacity:1;fill-rule:nonzero;stroke:none" />
      <path
         transform="translate(0,284.36218)"
         inkscape:connector-curvature="0"
         d="m 268.25256,319.24993 c 0.68642,-2.76513 1.71908,-5.41462 3.44143,-7.69534 2.96381,-3.22659 5.18793,-6.53199 9.54258,-6.86085 2.1515,-0.0274 4.03994,0.87212 5.8244,1.97963 2.12626,1.37577 3.71374,3.29746 4.94233,5.48292 1.06881,2.11444 1.17341,4.3798 0.84209,6.67764 -1.16273,4.84847 -5.20055,7.66094 -8.62622,11.09786 -1.8491,1.61948 -4.04364,2.57736 -6.42692,3.07175 -2.81047,0.4043 -5.28462,-0.65386 -7.61167,-2.11326 -2.51272,-1.74076 -4.25963,-4.19702 -5.6914,-6.84904 -0.95156,-1.83401 -1.18744,-3.62877 -0.45724,-5.55656 2.4454,-4.10795 6.13844,-7.41088 10.53188,-9.20341 2.0955,-0.65968 4.1983,-1.59509 6.41937,-1.69221 1.33279,0.53412 -0.46063,1.76472 -0.35394,2.94464 0,0 -0.11248,0.11615 -0.11248,0.11615 l 0,0 c -1.68109,0.22126 -2.46297,2.22557 -4.168,2.60213 -2.18562,0.75432 -4.46602,1.22734 -6.59558,2.14885 -0.88548,0.40182 -1.32765,0.56501 -2.14448,1.07829 -0.30701,0.19292 -1.13164,0.89722 -0.8872,0.6294 8.2521,-9.04122 5.22628,-5.39682 3.42031,-3.40529 -0.92526,1.68666 -0.86267,3.30524 -0.0359,5.05343 1.2942,2.57316 2.96955,4.92961 5.3723,6.58683 2.20269,1.35348 4.50034,2.28633 7.13135,1.75098 2.27151,-0.59085 4.34281,-1.60219 6.04581,-3.25416 -8.85184,8.96753 -2.41357,3.10772 -1.57997,-0.24986 0.45243,-2.15799 0.50417,-4.31728 -0.42894,-6.37075 -1.13229,-2.09672 -2.63167,-3.9287 -4.59367,-5.31209 -1.62352,-1.05109 -3.35852,-1.91269 -5.34928,-1.79363 -3.43136,0.46522 -6.86734,4.63724 0.49335,-2.64327 -1.91125,2.17373 -3.06908,4.83788 -3.82683,7.61725 0,0 -5.11749,4.16197 -5.11749,4.16197 z"
         id="path3893"
         style="fill:#ff6600;fill-opacity:1;fill-rule:nonzero;stroke:none" />
      <path
         transform="translate(0,284.36218)"
         inkscape:connector-curvature="0"
         d="m 310.89516,310.89987 c 5.06501,-1.91169 10.28128,-3.34637 15.53871,-4.61288 6.37234,-1.4959 12.849,-2.44942 19.33056,-3.31885 6.5701,-0.80482 13.15005,-1.526 19.72008,-2.33154 6.04553,-0.7223 12.07774,-1.55129 18.10314,-2.42438 2.204,0.048 4.57793,-1.21775 6.78632,-0.78242 0.83576,1.24747 -1.46947,2.57464 -2.20988,3.21525 0,0 -0.12998,0.0962 -0.12998,0.0962 l 0,0 c -1.84767,0.75496 -0.60005,1.39968 -2.09614,2.04073 -2.29427,0.82069 -4.81076,0.78129 -7.18146,1.25106 -6.01608,0.8363 -12.03776,1.63184 -18.06809,2.35883 -6.56562,0.79361 -13.13907,1.51921 -19.70326,2.32442 -6.43663,0.85004 -12.86624,1.80362 -19.19504,3.27638 -5.21135,1.26295 -10.38323,2.6933 -15.40732,4.5831 0,0 4.51236,-5.67587 4.51236,-5.67587 z"
         id="path3895"
         style="fill:#ff6600;fill-opacity:1;fill-rule:nonzero;stroke:none" />
      <path
         transform="translate(0,284.36218)"
         inkscape:connector-curvature="0"
         d="m 390.3165,315.20246 c 3.51213,-2.04349 6.90198,-4.27185 10.14053,-6.72449 1.52452,-1.2551 1.73417,-1.39003 3.18007,-2.73023 0.50751,-0.47041 1.98417,-1.92965 1.49782,-1.4374 -7.20573,7.29329 -2.55664,2.47382 -1.07563,0.77852 1.65919,-1.93609 3.08152,-4.05447 4.27109,-6.30655 0.37598,-0.90678 1.32388,-2.13576 0.18962,-2.76804 -3.65139,-0.86924 -7.4619,-1.00668 -11.19241,-1.37105 -5.58234,-0.538 -11.14334,-1.27804 -16.65012,-2.34144 -0.74273,-0.19885 -5.08497,-1.10474 -5.23857,-2.13494 -0.38904,-2.60932 0.88022,-0.6944 0.0707,-1.78856 0,0 0.10445,-0.12341 0.10445,-0.12341 l 0,0 c 1.04691,-0.45929 1.94527,-1.21769 2.99375,-1.67337 2.1226,-0.92251 4.83549,0.10504 6.99893,0.14603 5.54948,0.85969 11.10534,1.69186 16.70067,2.19862 3.77458,0.36765 7.77877,0.39126 11.34774,1.76063 1.36459,1.05617 1.17111,2.16506 0.44022,3.62675 -1.1766,2.35479 -2.6555,4.54145 -4.33388,6.56912 -4.09388,4.78062 -8.58469,9.25716 -13.49649,13.19552 -3.27219,2.42346 -6.68811,4.6304 -10.2028,6.68716 0,0 4.25434,-5.56287 4.25434,-5.56287 z"
         id="path3897"
         style="fill:#ff6600;fill-opacity:1;fill-rule:nonzero;stroke:none" />
      <path
         transform="translate(0,284.36218)"
         inkscape:connector-curvature="0"
         d="m 436.40362,300.92374 c 0.12635,-2.94168 0.73667,-5.74814 2.44911,-8.16832 3.47497,-4.12556 6.01422,-6.65609 10.93262,-7.74586 2.26625,-0.46509 4.49555,-0.29459 6.68441,0.39745 2.04519,0.77574 3.54103,2.2094 4.67916,4.03502 0.99972,1.79138 1.14792,3.686 0.70723,5.65237 -1.61171,4.08133 -5.30318,7.24845 -8.75646,9.75975 -1.97015,1.32444 -4.26331,1.91214 -6.55964,2.36958 -2.11064,0.42762 -4.23358,0.40205 -6.34186,0.0157 -1.67079,-0.3751 -3.24873,-1.06479 -4.70494,-1.95604 -1.40935,-0.95703 -1.74608,-2.35805 -1.65616,-3.97108 0.89061,-4.57917 5.3705,-7.5878 8.41907,-10.58336 0.10625,-0.10109 1.80171,-1.15751 1.92683,-0.41458 0.269,1.59728 -0.83784,0.85744 0.31683,1.40803 0,0 -0.10385,0.12392 -0.10385,0.12392 l 0,0 c -2.46854,0.9387 -4.27594,3.23037 -6.43396,4.73113 8.70007,-8.80269 2.65845,-3.50707 1.91731,-0.31978 -0.20745,1.32612 -0.1534,2.5151 1.03395,3.35406 1.35602,0.86699 2.85297,1.48489 4.43494,1.8003 2.03361,0.32033 4.07288,0.26174 6.09162,-0.17128 2.20491,-0.486 4.39885,-1.12674 6.22883,-2.50771 2.46982,-2.01778 1.02131,-0.88134 -3.7924,4.00374 -0.22974,0.23315 0.46944,-0.45688 0.68941,-0.69927 0.6171,-0.68 1.14279,-1.42989 1.50571,-2.27673 0.63929,-1.79253 0.70977,-3.58403 -0.15691,-5.33115 -1.00379,-1.71601 -2.32771,-3.06141 -4.25208,-3.72224 -2.06404,-0.61404 -4.1756,-0.73958 -6.29391,-0.27691 -1.07714,0.27032 -2.12944,0.54566 -3.12835,1.04716 -2.16414,1.08651 -5.31743,4.56365 2.00742,-2.74306 -1.93429,2.24476 -2.63607,4.97022 -2.78692,7.90474 0,0 -5.05701,4.2844 -5.05701,4.2844 z"
         id="path3899"
         style="fill:#ff6600;fill-opacity:1;fill-rule:nonzero;stroke:none" />
      <path
         transform="translate(0,284.36218)"
         inkscape:connector-curvature="0"
         d="m 480.50374,290.36549 c 4.95144,-1.7932 10.04232,-3.15455 15.13219,-4.48762 7.70868,-2.04116 15.49035,-3.7795 23.32191,-5.27478 6.58651,-1.22497 13.23328,-2.07213 19.88666,-2.83238 3.29371,-0.33872 6.5858,-0.69434 9.87989,-1.02893 0.27245,0.0468 2.12339,-0.49124 1.93008,0.25507 0.19811,1.74306 -1.58345,2.20255 -2.8139,3.29822 0,0 -0.13021,0.0958 -0.13021,0.0958 l 0,0 c -1.00009,-0.0879 -1.42623,0.59445 -1.0799,1.41041 -0.80198,0.59578 -1.77832,0.6309 -2.74552,0.72605 -3.27341,0.34263 -6.55281,0.62429 -9.82556,0.97371 -6.62,0.72062 -13.23145,1.55516 -19.77781,2.79209 -7.82831,1.50816 -15.60355,3.26921 -23.30484,5.33521 -5.09114,1.36602 -10.18567,2.75369 -15.12733,4.60348 0,0 4.65434,-5.86638 4.65434,-5.86638 z"
         id="path3901"
         style="fill:#ff6600;fill-opacity:1;fill-rule:nonzero;stroke:none" />
      <path
         transform="translate(0,284.36218)"
         inkscape:connector-curvature="0"
         d="m 549.49231,299.14954 c 3.33665,-2.5129 6.41402,-5.33721 9.44581,-8.20323 1.08194,-1.05391 1.97876,-1.92264 3.049,-2.98411 0.47716,-0.47325 1.9017,-1.90002 1.4253,-1.42599 -7.51806,7.4805 -2.70102,2.66648 -1.11692,0.99137 2.14678,-2.2689 4.10909,-4.70067 6.00363,-7.18115 0.70017,-1.01107 1.53707,-1.94419 2.13804,-3.02237 0.0338,-1.02925 -2.20992,-1.70886 -2.91892,-2.02968 -3.69085,-1.4874 -7.4663,-2.75655 -11.2408,-4.0127 -3.96561,-1.3349 -7.99971,-2.4469 -12.06013,-3.45103 -1.02095,-0.38127 -5.096,-0.9553 -5.06841,-2.45734 0.008,-0.45606 0.22379,-0.8844 0.33568,-1.3266 0,0 0.10465,-0.12326 0.10465,-0.12326 l 0,0 c 0.66955,-0.4585 1.30148,-0.97747 2.00865,-1.37551 2.33867,-1.31637 5.13653,-0.70815 7.63571,-0.32521 4.12397,0.9053 8.1906,2.04075 12.18187,3.42244 3.78505,1.27477 7.59183,2.52598 11.24882,4.13963 1.30352,0.65092 3.07794,1.34667 3.54554,2.87037 -0.13234,1.30114 -1.40002,2.24178 -2.03472,3.30463 -1.94063,2.50488 -3.90204,4.99804 -6.06513,7.31743 -4.31382,4.58278 -8.80557,8.99523 -13.33549,13.36342 -3.05233,2.85979 -6.16393,5.66067 -9.51767,8.16762 0,0 4.23549,-5.65873 4.23549,-5.65873 z"
         id="path3903"
         style="fill:#ff6600;fill-opacity:1;fill-rule:nonzero;stroke:none" />
      <path
         transform="translate(0,284.36218)"
         inkscape:connector-curvature="0"
         d="m 594.02559,275.58185 c 2.39007,-4.8923 6.2024,-9.12632 10.71748,-12.1731 2.47324,-1.43412 4.82558,-1.32003 7.30727,-0.0749 2.49984,1.6186 3.91724,4.12459 4.91948,6.84833 0.71363,2.19998 1.03932,4.44197 0.41323,6.68728 -1.98656,3.99624 -5.6327,7.2432 -9.67817,9.08658 -2.4517,1.1143 -4.85742,0.67077 -7.32568,-0.0943 -3.11841,-1.12157 -5.99781,-2.79591 -8.64977,-4.76673 -2.32502,-1.79177 -2.98232,-4.04299 -2.33443,-6.82558 0.55791,-1.4739 1.46197,-2.75527 2.57551,-3.86433 2.72526,-2.71431 4.46752,-5.49892 7.90088,-6.67012 2.09796,-0.14482 -0.87402,1.17091 1.54439,1.17729 0,0 -0.10479,0.12313 -0.10479,0.12313 l 0,0 c -2.12433,0.0796 -2.71397,1.89229 -4.53712,2.74087 -1.96183,1.4584 -6.47342,5.81142 0.74697,-1.44743 0.25249,-0.25383 -2.60504,2.8232 -2.2391,3.16769 -0.7275,2.46542 -0.22759,4.40365 1.81691,6.07599 2.56291,1.95022 5.3781,3.54776 8.43321,4.59753 2.32322,0.65877 4.57399,0.91296 6.82246,-0.1821 0.80988,-0.41558 1.05436,-0.50514 1.8011,-1.03221 0.27448,-0.19373 1.02274,-0.86702 0.79361,-0.62132 -8.14035,8.72922 -4.76187,5.15269 -3.27486,3.07948 0.94219,-2.10837 0.70163,-4.28679 0.0904,-6.47786 -0.83893,-2.60615 -2.01325,-5.08 -4.39938,-6.60924 -2.27257,-1.1555 -4.44404,-0.99311 -6.62093,0.38647 -2.3697,1.71147 -1.79717,1.4028 2.19121,-2.64762 0.40428,-0.41057 -0.80399,0.82738 -1.17056,1.27194 -0.73626,0.89288 -1.41317,1.92529 -1.98551,2.92988 -0.25398,0.44578 -0.47175,0.91124 -0.70762,1.36685 0,0 -5.04615,3.94754 -5.04615,3.94754 z"
         id="path3905"
         style="fill:#ff6600;fill-opacity:1;fill-rule:nonzero;stroke:none" />
      <path
         transform="translate(0,284.36218)"
         inkscape:connector-curvature="0"
         d="m 633.83446,271.64511 c 4.62752,-2.30692 9.55205,-3.88955 14.49454,-5.35797 6.54254,-1.89697 13.20204,-3.32601 19.91095,-4.48329 5.08328,-0.88792 10.2183,-1.29379 15.37344,-1.21743 2.45434,0.0705 4.89481,0.35537 7.30664,0.80546 1.09928,0.22154 2.20459,0.41117 3.31682,0.55439 0.8624,0.0919 1.73096,0.1073 2.59754,0.11539 0.24152,0.0303 1.00972,-0.0939 0.69681,0.34178 -3.63496,3.7762 -3.98794,5.11251 -3.12652,2.72355 0,0 0.10244,-0.12509 0.10244,-0.12509 l 0,0 c 2.36832,-1.94472 1.58985,-1.48479 -1.23677,2.41422 -0.37558,0.34038 -0.82048,0.34843 -1.31091,0.33361 -0.88819,-0.0221 -1.77742,-0.0539 -2.65773,-0.18441 -1.11038,-0.16585 -2.21182,-0.38022 -3.30996,-0.6133 -2.36137,-0.43664 -4.74964,-0.7151 -7.15134,-0.79403 -5.10116,-0.0768 -10.18448,0.36758 -15.21316,1.2378 -6.68824,1.16013 -13.32856,2.59585 -19.83917,4.53307 -4.9111,1.48788 -9.79771,3.10823 -14.39237,5.42383 0,0 4.43875,-5.70758 4.43875,-5.70758 z"
         id="path3907"
         style="fill:#ff6600;fill-opacity:1;fill-rule:nonzero;stroke:none" />
      <path
         transform="translate(0,284.36218)"
         inkscape:connector-curvature="0"
         d="m 697.11032,288.43456 c 2.78696,-4.15523 5.83702,-8.12357 8.94152,-12.04405 3.06053,-3.86659 6.33563,-7.5524 9.66571,-11.18646 3.53443,-3.76239 7.1767,-7.42689 10.93335,-10.9677 2.06624,-1.88619 5.71216,-4.47741 -3.91943,4.12688 -0.1205,0.10764 -0.29376,-0.1364 -0.44719,-0.18704 -0.26899,-0.0888 -0.54527,-0.1537 -0.8179,-0.23054 -3.38387,-0.72377 -6.79877,-1.28851 -10.18958,-1.97928 -3.48576,-0.72336 -6.98233,-1.38938 -10.4807,-2.04769 -0.49344,-0.20085 -3.29276,-0.35862 -3.26518,-1.33135 0.007,-0.26038 0.15207,-0.49828 0.22811,-0.74742 0.053,-0.20641 0.10591,-0.41282 0.15887,-0.61923 0,0 0.0997,-0.12728 0.0997,-0.12728 l 0,0 c 0.41678,-0.37043 0.83356,-0.74086 1.25035,-1.1113 2.16491,-1.67318 3.66318,-1.98657 6.37473,-1.54783 3.53452,0.54159 7.02788,1.30783 10.52996,2.02416 3.41252,0.67232 6.8551,1.22205 10.23111,2.06031 5.38597,1.9496 -1.76917,5.17306 -4.06735,7.61651 -0.43632,0.40752 -4.16724,4.08813 -2.27476,2.17208 8.02062,-8.12053 2.98042,-2.99256 1.31866,-1.25123 -3.39779,3.63899 -6.71741,7.35218 -9.8278,11.24211 -3.12005,3.8992 -6.18612,7.84686 -8.97417,11.99336 0,0 -5.46802,4.14299 -5.46802,4.14299 z"
         id="path3909"
         style="fill:#ff6600;fill-opacity:1;fill-rule:nonzero;stroke:none" />
      <path
         transform="translate(0,284.36218)"
         inkscape:connector-curvature="0"
         d="m 287.30078,284.04386 c 3.08652,-3.59615 5.8538,-7.44515 8.51248,-11.363 3.69299,-5.66058 7.24065,-11.41397 10.87995,-17.10908 3.7079,-5.9812 7.89814,-11.6136 12.46874,-16.95631 6.35515,-7.03104 13.07453,-13.73391 19.92587,-20.27923 3.07336,-2.91118 6.2262,-5.73605 9.3868,-8.55164 0.3681,-0.31842 0.70129,-0.67782 1.09775,-0.96202 0,0 -4.0067,5.50742 -4.0067,5.50742 l 0,0 c -0.51877,0.56395 -1.04812,1.11784 -1.62466,1.62419 -3.10893,2.80957 -6.26102,5.57201 -9.29386,8.46491 -0.79451,0.7592 -3.00067,3.18687 -2.38355,2.27759 0.72499,-1.0682 1.87149,-1.78489 2.7134,-2.76359 0.78188,-0.90892 -1.69296,1.6982 -2.53289,2.55376 -2.47337,2.51937 -4.91972,5.06702 -7.2762,7.69664 -4.62167,5.32436 -8.86152,10.94368 -12.60404,16.92671 -3.66295,5.69711 -7.22858,11.45553 -10.90055,17.14672 -2.66411,3.96555 -5.4497,7.85206 -8.5516,11.49101 0,0 -5.81094,4.29592 -5.81094,4.29592 z"
         id="path3911"
         style="fill:#ff6600;fill-opacity:1;fill-rule:nonzero;stroke:none" />
      <path
         transform="translate(0,284.36218)"
         inkscape:connector-curvature="0"
         d="m 354.81925,232.92466 c 0.75928,-5.64982 1.66867,-11.27584 2.73595,-16.87531 0.77871,-3.9152 1.6411,-7.81294 2.47793,-11.71589 0.27364,-1.50242 0.72875,-3.02319 0.56779,-4.56261 -0.60227,-1.75145 -2.8516,-2.18376 -4.42171,-2.63162 -3.85589,-0.93577 -7.8263,-0.62812 -11.7282,-0.22499 -3.67572,0.42446 -7.27527,1.27312 -10.84994,2.2023 -2.53593,0.51289 -3.14644,0.84079 -1.26722,-1.98435 0,0 0.10094,-0.1263 0.10094,-0.1263 l 0,0 c 1.82956,-1.9656 3.50625,-3.54092 6.21278,-4.10552 3.59862,-0.89797 7.22413,-1.7049 10.91882,-2.09571 3.99496,-0.37303 8.05483,-0.62131 11.98353,0.39871 1.93275,0.58449 4.21166,1.20735 5.08383,3.23059 0.37796,1.61115 -0.0862,3.237 -0.39881,4.82664 -0.86617,3.98675 -1.87838,7.93935 -2.74962,11.92502 -1.19374,5.59602 -2.18435,11.23247 -2.86628,16.91564 0,0 -5.79979,4.8234 -5.79979,4.8234 z"
         id="path3913"
         style="fill:#ff6600;fill-opacity:1;fill-rule:nonzero;stroke:none" />
      <path
         transform="translate(0,284.36218)"
         inkscape:connector-curvature="0"
         d="m 397.7246,171.30488 c -1.59231,-2.46391 -2.70747,-5.05149 -2.2027,-8.0004 2.01109,-4.45287 6.10399,-7.85287 10.85824,-8.74355 3.72884,-0.43895 6.81744,1.17451 9.6297,3.44197 3.0095,2.75207 4.65631,6.30424 5.35036,10.26161 0.34329,6.53165 -3.56419,8.30483 -8.33721,12.75324 -3.29741,1.46025 -6.43978,0.3648 -9.3215,-1.44301 -3.00539,-2.18726 -4.66114,-5.40659 -5.95734,-8.79063 -0.87135,-2.42059 -1.17415,-3.90582 0.39972,-6.03704 1.67873,-1.62961 3.35746,-3.25921 5.03619,-4.88882 0.17929,-0.003 0.43351,-0.15549 0.53787,-0.01 0.16197,0.22632 0.0344,0.55555 0.0516,0.83332 0,0 -0.0984,0.12829 -0.0984,0.12829 l 0,0 c -1.29414,1.22146 -8.62527,8.1676 -0.3326,0.065 -1.21713,1.41619 -0.51677,3.16717 -0.0124,4.78296 1.19818,3.24517 2.71545,6.37057 5.54671,8.51075 2.64539,1.68587 5.55157,2.66642 8.50895,1.07647 -1.30994,1.40648 -2.64589,2.78917 -3.92981,4.21943 -0.31357,0.3493 0.71275,-0.61663 1.01672,-0.97431 1.36309,-1.60394 1.79009,-3.61995 1.72968,-5.67703 -0.52413,-3.83448 -2.01897,-7.32116 -4.89223,-10.00622 -2.66772,-2.16021 -5.59289,-3.66545 -9.13073,-3.11266 -1.18512,0.27499 -1.57253,0.29083 -2.66133,0.82952 -0.39134,0.19362 -1.3937,1.01779 -1.12186,0.67613 6.28766,-7.90268 3.581,-3.66692 2.13282,-1.96158 -0.93323,2.81252 0.21202,5.37013 1.62889,7.8397 0,0 -4.42932,4.22655 -4.42932,4.22655 z"
         id="path3917"
         style="fill:#ff6600;fill-opacity:1;fill-rule:nonzero;stroke:none" />
      <path
         transform="translate(0,284.36218)"
         inkscape:connector-curvature="0"
         d="m 441.9199,158.85008 c 4.84905,-1.56336 9.81347,-2.72782 14.75524,-3.95272 7.08886,-1.84651 14.21777,-3.5104 21.40726,-4.91373 6.83995,-1.33398 13.74294,-2.28391 20.67404,-2.98273 5.09658,-0.47349 10.20808,-0.76898 15.31803,-1.05524 3.57863,-0.20256 7.16057,-0.36329 10.74388,-0.45594 0.75195,0.24421 2.34102,-0.41571 2.99909,0.17761 0.4784,2.45434 0.88508,1.05546 -4.06508,4.48402 -0.37237,0.25791 0.37675,-0.82387 0.56512,-1.2358 0,0 0.10151,-0.12585 0.10151,-0.12585 l 0,0 c 4.607,-4.23698 -1.84544,0.48499 -1.50924,2.54366 -0.98602,0.31012 -2.12131,-0.0857 -3.12783,0.0819 -3.56283,0.0783 -7.12384,0.23216 -10.68229,0.42279 -5.08893,0.29519 -10.1802,0.57541 -15.25768,1.03377 -6.86209,0.67247 -13.69696,1.59869 -20.47818,2.855 -7.11851,1.3608 -14.18913,2.9442 -21.21256,4.73433 -4.86488,1.19388 -9.73964,2.36148 -14.54709,3.77338 0,0 4.31578,-5.38447 4.31578,-5.38447 z"
         id="path3919"
         style="fill:#ff6600;fill-opacity:1;fill-rule:nonzero;stroke:none" />
      <path
         transform="translate(0,284.36218)"
         inkscape:connector-curvature="0"
         d="m 518.37696,165.6565 c 3.78046,-1.64193 7.44474,-3.50555 10.95218,-5.66834 1.74359,-1.15805 3.41787,-2.42152 4.95144,-3.84875 0.52778,-0.49119 2.05997,-2.01816 1.53662,-1.52226 -1.17153,1.11008 -2.22217,2.35541 -3.48135,3.36497 -0.58711,0.47073 0.96424,-1.15559 1.44636,-1.73339 2.28951,-2.92064 4.23433,-6.10959 5.65746,-9.53835 0.81557,-2.36855 0.006,-2.68989 -2.16408,-3.25126 -4.03052,-0.64308 -8.10159,-0.9961 -12.15497,-1.46644 -3.32904,-0.71527 -7.23642,-0.54983 -10.3106,-2.23998 -0.45411,-0.24966 -0.80939,-0.64734 -1.21409,-0.97102 -0.19649,-0.50572 -0.39298,-1.01145 -0.58947,-1.51717 0,0 0.10675,-0.12144 0.10675,-0.12144 l 0,0 c 0.94118,-0.34244 1.88235,-0.68489 2.82353,-1.02734 4.71921,-0.88503 9.45468,-0.46244 14.19737,0.13824 4.08905,0.44481 8.21984,0.72138 12.25004,1.56198 2.15774,0.71716 3.72959,1.77254 2.90683,4.26907 -1.36986,3.57464 -3.41717,6.84025 -5.73142,9.87909 -4.13681,5.12058 -8.87739,9.94107 -14.4331,13.52031 -3.41184,1.99063 -6.97853,3.67291 -10.64952,5.13322 0,0 3.90002,-4.96114 3.90002,-4.96114 z"
         id="path3921"
         style="fill:#ff6600;fill-opacity:1;fill-rule:nonzero;stroke:none" />
      <path
         transform="translate(0,284.36218)"
         inkscape:connector-curvature="0"
         d="m 565.16528,143.18362 c -0.61819,-7.00524 3.1123,-8.60286 8.29369,-13.34995 3.82231,-1.61475 7.80559,-0.98308 11.64691,0.1644 3.65504,1.23982 6.52702,3.56544 8.85953,6.5757 1.75596,2.5627 2.49026,5.36132 1.9801,8.41377 -2.37614,6.00887 -6.39827,9.03165 -12.354,9.65918 -4.14651,0.14127 -8.10414,-0.97018 -11.79468,-2.77775 -2.32236,-1.36041 -4.60463,-3.09981 -5.32475,-5.79914 0.17632,-3.16699 3.33291,-4.91322 5.46119,-6.86415 0,0 -0.0955,0.13047 -0.0955,0.13047 l 0,0 c -1.58094,1.51908 -0.64513,0.4434 0.0959,0.37472 0.0486,-0.005 -0.077,1.26966 0.12371,1.26144 1.02087,2.29231 2.9598,3.93003 5.10931,5.15543 3.57719,1.7146 7.3888,2.80373 11.39847,2.54785 1.36499,-0.19651 1.95839,-0.18587 3.21653,-0.7215 0.4284,-0.18238 1.5117,-1.04347 1.21969,-0.68081 -7.65579,9.50815 -4.28737,4.71564 -2.95795,2.54128 0.77203,-2.8632 0.20732,-5.56995 -1.40158,-8.06841 -2.13208,-2.96942 -4.8761,-5.19036 -8.36202,-6.41987 -3.64354,-1.09639 -7.48526,-1.70015 -11.03473,0.0672 1.19134,-1.31978 2.41124,-2.61434 3.57401,-3.95936 0.34061,-0.39399 -0.78872,0.69069 -1.10556,1.10403 -1.34598,1.75587 -1.54321,4.03059 -1.43173,6.15578 0,0 -5.11654,4.48973 -5.11654,4.48973 z"
         id="path3923"
         style="fill:#ff6600;fill-opacity:1;fill-rule:nonzero;stroke:none" />
      <path
         transform="translate(0,284.36218)"
         inkscape:connector-curvature="0"
         d="m 741.7224,246.09202 c 3.49215,-2.90593 7.67816,-4.32892 12.09446,-5.04797 3.82091,-0.4292 7.55412,-0.004 10.66802,2.34278 2.6895,2.84128 1.97069,6.4204 0.91892,9.81728 -2.34291,5.65981 -6.37174,10.65568 -11.53413,14.03294 -3.58891,1.67167 -6.56419,-0.20761 -9.17395,-2.66149 -3.07544,-3.42071 -4.6047,-7.66924 -5.1826,-12.16436 -0.30913,-5.02597 2.07741,-6.93861 5.70172,-9.9262 0.19537,0.007 0.39074,0.0141 0.58611,0.0212 0,0 -0.0997,0.12729 -0.0997,0.12729 l 0,0 c -0.4091,0.28024 -0.81819,0.56047 -1.22729,0.84071 0.27788,-0.27582 0.51063,-0.6062 0.83364,-0.82746 0.0636,-0.0436 -0.27083,0.31308 -0.54987,1.21575 -0.42938,1.38896 -0.51915,2.82056 -0.36916,4.2643 0.67051,4.28945 2.05129,8.41912 5.02677,11.69161 2.48001,2.24811 5.23797,3.9169 8.48881,2.06955 1.93079,-1.42267 3.49356,-2.67929 -2.08521,2.50406 -0.4802,0.44616 0.86984,-0.98232 1.26792,-1.50308 1.31681,-1.72266 2.39061,-3.61621 3.22924,-5.61406 1.0971,-3.09293 2.12303,-6.53182 -0.34108,-9.24779 -2.96542,-2.20625 -6.61367,-2.45051 -10.20839,-2.08435 -4.18309,0.66756 -8.15503,1.94889 -11.43608,4.74885 0,0 3.39184,-4.59954 3.39184,-4.59954 z"
         id="path3925"
         style="fill:#ff6600;fill-opacity:1;fill-rule:nonzero;stroke:none" />
      <path
         transform="translate(0,284.36218)"
         inkscape:connector-curvature="0"
         d="m 618.7119,162.57555 c 4.44369,1.61239 8.63885,3.7876 12.72935,6.1368 5.50484,3.21538 10.73957,6.85764 15.95408,10.51662 7.73199,5.42886 15.41984,10.92041 23.09644,16.42725 7.03014,5.07605 13.85408,10.42655 20.69718,15.74919 3.03303,2.47635 6.35537,4.58096 9.38998,7.05231 0.59933,0.5153 1.33221,1.04427 0.89268,1.86683 -0.10404,1.63216 0.11718,0.44884 -2.71065,2.38644 0,0 0.0998,-0.12722 0.0998,-0.12722 l 0,0 c -1.734,1.46412 -1.69002,0.66327 -1.56659,1.82633 -0.69262,0.54002 -1.35358,-0.21068 -1.92116,-0.6226 -3.10822,-2.37276 -6.26264,-4.68505 -9.32554,-7.11704 -6.76784,-5.38703 -13.50253,-10.82043 -20.49041,-15.92282 -7.58418,-5.59931 -15.21601,-11.1339 -22.83619,-16.68393 -5.1427,-3.68581 -10.27561,-7.3922 -15.60068,-10.81308 -3.90336,-2.44436 -7.89056,-4.74363 -12.03352,-6.76209 0,0 3.62523,-3.91299 3.62523,-3.91299 z"
         id="path3939"
         style="fill:#ff6600;fill-opacity:1;fill-rule:nonzero;stroke:none" />
      <path
         transform="translate(0,284.36218)"
         inkscape:connector-curvature="0"
         d="m 703.07627,208.38925 c 3.24475,3.13855 6.13992,6.60232 8.89515,10.17035 2.32612,3.17166 4.59351,6.41933 6.22912,10.00839 1.53922,3.73185 -0.34047,3.99554 -4.45963,7.39732 -0.3034,0.25056 -2.78629,0.34687 -2.89046,0.35392 -6.38516,0.0154 -12.74824,-0.81904 -19.08286,-1.54916 -6.74905,-0.83048 -13.48429,-1.77141 -20.20304,-2.81862 -1.8707,-0.0364 -3.46166,-0.82579 -5.1463,-1.50522 0,0 0.10309,-0.12455 0.10309,-0.12455 l 0,0 c 2.74284,-1.1611 5.43846,-2.38823 8.49322,-2.35049 7.02633,0.006 13.94071,1.23244 20.90484,2.048 6.30116,0.71019 12.62933,1.49968 18.97928,1.46973 0.53651,-0.0646 1.08027,-0.0847 1.60954,-0.1937 0.35491,-0.0731 1.24236,-0.64285 1.02925,-0.34979 -1.06513,1.46472 -2.43628,2.68065 -3.68091,3.99624 -0.14431,0.15253 0.32387,-0.30133 0.37739,-0.50437 0.15005,-0.56923 -0.25497,-1.27839 -0.44056,-1.74105 -1.84032,-3.44008 -3.79686,-6.82018 -6.11622,-9.96517 -2.62743,-3.65551 -5.34172,-7.25363 -8.34805,-10.60965 0,0 3.74715,-3.73218 3.74715,-3.73218 z"
         id="path3941"
         style="fill:#ff6600;fill-opacity:1;fill-rule:nonzero;stroke:none" />
      <path
         transform="translate(0,284.36218)"
         inkscape:connector-curvature="0"
         d="m 465.31915,319.80832 c 4.64723,2.44842 8.85936,5.61426 13.03353,8.77824 6.58426,5.30396 13.43811,10.2421 20.41934,15.00561 7.23465,4.80112 14.62078,9.36508 21.74364,14.33333 3.09836,2.20963 6.10181,4.57167 8.8179,7.24237 0.93067,0.97288 1.89303,1.91056 2.91966,2.78181 0.51781,0.42204 1.01435,0.84378 1.21037,1.4976 -0.41899,-0.0369 -0.48802,0.41971 -2.12415,2.36257 0,0 -0.11076,0.11779 -0.11076,0.11779 l 0,0 c -2.19703,2.44827 -1.15741,2.73846 -2.39742,2.20612 -0.67396,-0.13528 -1.16892,-0.56158 -1.6621,-1.02526 -1.02353,-0.89945 -2.01045,-1.8339 -2.92336,-2.84762 -2.66924,-2.65959 -5.58535,-5.0514 -8.65419,-7.2377 -7.08213,-5.00598 -14.43251,-9.60544 -21.63058,-14.4405 -6.94686,-4.81142 -13.64994,-9.94596 -20.2008,-15.28439 -4.07035,-3.19737 -8.16745,-6.36406 -12.45107,-9.2739 0,0 4.00999,-4.21607 4.00999,-4.21607 z"
         id="path3943"
         style="fill:#ff6600;fill-opacity:1;fill-rule:nonzero;stroke:none" />
      <path
         transform="translate(0,284.36218)"
         inkscape:connector-curvature="0"
         d="m 537.83435,358.2975 c 3.8448,3.92805 6.88145,8.52041 9.58379,13.28034 2.23328,4.08268 3.89215,8.43464 5.24258,12.87775 1.42434,4.56204 -0.22204,8.3417 -6.54878,9.07039 -6.01244,0.0559 -12.00604,-0.79364 -17.97434,-1.4478 -7.21243,-0.76803 -14.39729,-1.76722 -21.57206,-2.82501 -1.06654,-0.26255 -8.08075,-0.79777 -8.37495,-2.05003 -0.0917,-0.3904 0.1478,-0.78831 0.2217,-1.18247 0.002,-0.18835 0.005,-0.3767 0.007,-0.56505 0,0 0.10599,-0.1221 0.10599,-0.1221 l 0,0 c 0.30368,-0.1641 0.60736,-0.32819 0.91104,-0.49229 0.5769,-0.3527 1.11366,-0.78156 1.73069,-1.05811 3.06749,-1.37482 6.91609,0.1282 10.05921,0.16305 7.19831,0.94051 14.38033,2.01135 21.60295,2.75826 5.89247,0.64269 11.80732,1.54926 17.74577,1.43672 0.38385,-0.0723 1.37487,-0.5374 1.15156,-0.21692 -1.14964,1.64991 -2.7504,2.93493 -4.09029,4.43445 -0.14236,0.15932 0.39261,-0.22074 0.49346,-0.4091 0.47357,-0.88446 -0.32079,-2.19388 -0.39301,-3.0405 -1.24998,-4.45807 -2.79695,-8.8276 -4.96945,-12.93059 -2.61594,-4.76632 -5.56701,-9.34739 -9.26837,-13.35725 0,0 4.33531,-4.32374 4.33531,-4.32374 z"
         id="path3945"
         style="fill:#ff6600;fill-opacity:1;fill-rule:nonzero;stroke:none" />
      <path
         transform="translate(0,284.36218)"
         inkscape:connector-curvature="0"
         d="m 581.22115,391.71306 c -2.21483,-2.96657 -4.61243,-4.47631 -8.33223,-4.48306 -0.56502,0.1202 -1.14696,0.17818 -1.69507,0.3606 -1.18788,0.39534 -2.36702,1.09351 -3.3065,1.91476 -0.53042,0.46368 -2.07288,1.87096 -1.4544,1.53357 1.06054,-0.57852 1.61489,-2.17872 2.81888,-2.27789 0.77064,-0.0635 -0.62368,1.41519 -0.93552,2.12278 -1.23113,4.2534 -0.86758,8.83156 1.43422,12.68361 0.46012,0.77 1.05992,1.44741 1.58988,2.17112 4.69537,4.76096 9.48795,5.14626 15.75366,3.84377 2.25672,-0.91085 3.09151,-1.04352 4.98823,-2.61076 0.7124,-0.58864 2.74298,-2.4333 1.9342,-1.98621 -1.34165,0.74166 -2.05531,2.69122 -3.57495,2.89322 -0.92655,0.12316 0.82653,-1.68259 1.1267,-2.56778 0.30134,-0.88865 0.44739,-1.82259 0.67109,-2.73388 0.64077,-4.48382 -0.0736,-8.94848 -2.28891,-12.89523 -0.61078,-1.18162 -1.71478,-1.98575 -2.37186,-3.13303 -0.21466,-0.3748 -0.20021,-0.90204 -0.52801,-1.18328 -0.3291,-0.28236 -0.83607,-0.23047 -1.2541,-0.3457 0,0 0.10517,-0.1228 0.10517,-0.1228 l 0,0 c 3.10609,-0.51387 5.9635,-2.14946 8.67546,0.32097 3.13751,3.74014 3.87166,7.87556 3.3751,12.6947 -0.27896,1.35636 -0.72764,4.32435 -1.61606,5.50273 -2.46625,3.2712 -6.79523,8.83575 -11.16784,10.87085 -0.87833,0.4088 -1.82652,0.64665 -2.73979,0.96998 -6.729,1.14636 -11.26174,0.45861 -16.17146,-4.6129 -0.52105,-0.79136 -1.1169,-1.53825 -1.56315,-2.37407 -2.26049,-4.23378 -2.43558,-9.13655 -1.10261,-13.67189 1.94294,-4.58496 0.62046,-2.13933 6.25696,-8.25439 1.74794,-1.89635 3.9256,-3.00706 6.51119,-3.1369 3.82879,0.3597 6.16232,2.08643 8.16068,5.35866 0,0 -3.29896,3.14845 -3.29896,3.14845 z"
         id="path3947"
         style="fill:#ff6600;fill-opacity:1;fill-rule:nonzero;stroke:none" />
      <path
         transform="translate(0,284.36218)"
         inkscape:connector-curvature="0"
         d="m 625.74786,387.8894 c 7.5169,-0.88181 14.84794,-2.77067 22.11981,-4.80569 10.42199,-3.12776 20.66051,-6.82035 31.0148,-10.15909 5.65602,-1.78039 11.37183,-3.41421 17.22459,-4.40248 0.7029,0.0581 2.51609,-0.75999 2.96391,0.13348 0.15926,0.60851 0.0588,1.24415 -0.0992,1.84314 -0.49304,0.7695 -1.10886,1.4691 -1.67293,2.189 0,0 -0.11634,0.11229 -0.11634,0.11229 l 0,0 c -0.5903,0.39173 -1.28925,1.00734 -2.06485,0.96805 -0.0548,-0.14331 -0.16867,-0.92392 -0.31891,-0.49709 -0.59133,0.79791 -2.44992,0.30232 -3.22075,0.74331 -5.77267,1.03937 -11.44386,2.54715 -17.03354,4.32191 -10.3612,3.32654 -20.60463,7.0131 -31.03074,10.13715 -7.33512,2.06351 -14.73454,3.98373 -22.31955,4.87541 0,0 4.55374,-5.45939 4.55374,-5.45939 z"
         id="path3949"
         style="fill:#ff6600;fill-opacity:1;fill-rule:nonzero;stroke:none" />
      <path
         transform="translate(0,284.36218)"
         inkscape:connector-curvature="0"
         d="m 701.7731,385.67758 c 4.50299,-3.6844 8.87785,-7.52104 13.28408,-11.31957 3.02171,-2.73798 6.36585,-5.10092 9.41111,-7.80826 -1.49729,1.46899 -2.97675,2.95637 -4.49187,4.40695 -0.0624,0.0598 0.15386,-0.14506 0.1257,-0.22677 -0.13682,-0.39702 -0.76201,-0.36364 -1.16711,-0.47428 -1.52333,-0.41604 -1.90801,-0.41688 -3.5904,-0.67198 -6.09049,-0.73155 -12.23736,-0.55584 -18.35746,-0.51597 -4.55512,-0.18111 -9.6306,0.22395 -13.68948,-2.18485 -0.61958,-1.80591 0.003,-1.32395 -1.68048,-1.66146 0,0 0.10487,-0.12306 0.10487,-0.12306 l 0,0 c 2.60792,-0.42942 1.12602,-0.0583 4.36484,-1.39722 5.20027,-0.72257 10.45033,-0.0299 15.68517,-0.24354 6.15151,-0.0435 12.34045,-0.2144 18.45299,0.60736 1.50501,0.29576 3.36544,0.47335 4.66428,1.41338 0.0743,0.0537 1.05925,0.89235 0.71867,1.28797 -1.64585,1.91184 -3.52693,3.60787 -5.2904,5.4118 -3.04979,2.57856 -6.25101,4.9747 -9.26221,7.6005 -4.41553,3.77041 -8.79149,7.5878 -13.27135,11.28219 0,0 3.98905,-5.38319 3.98905,-5.38319 z"
         id="path3951"
         style="fill:#ff6600;fill-opacity:1;fill-rule:nonzero;stroke:none" />
      <path
         transform="translate(0,284.36218)"
         inkscape:connector-curvature="0"
         d="m 771.84296,361.61976 c -3.0388,-3.74257 -6.58304,-5.04881 -11.27937,-5.23745 -5.47499,0.36983 -9.44684,2.30078 -13.25294,6.18378 1.05576,-0.88284 1.82819,-2.3309 3.16728,-2.64854 0.75667,-0.17948 -0.71845,1.38688 -0.96197,2.12544 -0.2449,0.74277 -0.41425,1.51557 -0.49502,2.29348 -0.26742,2.57571 0.47729,4.64631 1.48175,6.95313 3.65409,5.56034 8.238,6.30643 14.49562,5.98461 6.39376,-0.89228 11.61059,-3.47866 16.08966,-8.07923 -1.22012,1.08068 -2.21296,2.49265 -3.66036,3.24205 -0.6392,0.33095 0.75185,-1.23211 1.04663,-1.88877 1.00901,-2.24769 0.97502,-4.19312 0.0205,-6.40161 -1.254,-1.16515 -1.64436,-2.94901 -2.41254,-4.2861 -0.26598,-0.46298 -0.67453,-0.82788 -1.0118,-1.24181 0,0 0.1086,-0.11978 0.1086,-0.11978 l 0,0 c 2.84317,-0.25168 5.79419,-1.09971 8.02601,1.18373 0.31187,0.43862 0.68735,0.83834 0.93563,1.31585 2.86569,5.51146 -4.63298,11.25137 -7.3834,14.14988 -4.57696,4.35425 -10.1467,7.04517 -16.48423,7.70176 -6.71555,0.1747 -11.18343,-0.73307 -15.08255,-6.63744 -1.45818,-3.44341 -2.10877,-6.31386 -0.96515,-10.01453 0.24558,-0.79466 0.45561,-1.64406 0.96638,-2.3005 1.81571,-2.33357 3.96368,-4.38848 5.94551,-6.58273 3.8387,-3.54881 8.09556,-5.43723 13.38679,-5.50695 4.97997,0.47071 8.15125,1.97691 11.27854,5.97358 0,0 -3.95958,3.83815 -3.95958,3.83815 z"
         id="path3953"
         style="fill:#ff6600;fill-opacity:1;fill-rule:nonzero;stroke:none" />
    </g>
  </g>
</svg>
