<?xml version="1.0" encoding="UTF-8" standalone="no"?>
<!-- Created with Inkscape (http://www.inkscape.org/) -->

<svg
   xmlns:dc="http://purl.org/dc/elements/1.1/"
   xmlns:cc="http://creativecommons.org/ns#"
   xmlns:rdf="http://www.w3.org/1999/02/22-rdf-syntax-ns#"
   xmlns:svg="http://www.w3.org/2000/svg"
   xmlns="http://www.w3.org/2000/svg"
   xmlns:sodipodi="http://sodipodi.sourceforge.net/DTD/sodipodi-0.dtd"
   xmlns:inkscape="http://www.inkscape.org/namespaces/inkscape"
   width="1024"
   height="768"
   id="svg4160"
   version="1.1"
   inkscape:version="0.48.4 r9939"
   sodipodi:docname="3.svg">
  <defs
     id="defs4162" />
  <sodipodi:namedview
     id="base"
     pagecolor="#ffffff"
     bordercolor="#666666"
     borderopacity="1.0"
     inkscape:pageopacity="0.0"
     inkscape:pageshadow="2"
     inkscape:zoom="0.86588542"
     inkscape:cx="524.93252"
     inkscape:cy="421.42003"
     inkscape:document-units="px"
     inkscape:current-layer="g3077"
     showgrid="false"
     inkscape:window-width="1600"
     inkscape:window-height="872"
     inkscape:window-x="0"
     inkscape:window-y="14"
     inkscape:window-maximized="0" />
  <metadata
     id="metadata4165">
    <rdf:RDF>
      <cc:Work
         rdf:about="">
        <dc:format>image/svg+xml</dc:format>
        <dc:type
           rdf:resource="http://purl.org/dc/dcmitype/StillImage" />
        <dc:title />
      </cc:Work>
    </rdf:RDF>
  </metadata>
  <g
     inkscape:label="Ebene 1"
     inkscape:groupmode="layer"
     id="layer1"
     transform="translate(0,-284.36218)">
    <g
       transform="translate(-73.426199,-84.028127)"
       id="g4350"
       style="fill:#000080">
      <path
         transform="translate(0,284.36218)"
         inkscape:connector-curvature="0"
         d="m 109.56775,176.9663 c -0.30706,6.474 -0.0816,12.96051 0.0244,19.43728 0.14511,7.94513 0.17954,15.89097 0.014,23.83576 -0.14281,4.942 -0.39324,9.88257 -0.88495,14.80286 -0.21081,0.59151 -0.0342,2.76212 -0.64505,3.19191 -0.55117,0.38782 -1.13748,0.72314 -1.70623,1.08471 0,0 0.09,-0.0706 0.09,-0.0706 l 0,0 c -3.28115,3.24301 -2.27647,2.4999 -2.03778,-0.61087 0.53589,-4.92952 0.85101,-9.87977 0.99421,-14.83634 0.20314,-7.96077 0.18338,-15.92411 0.0759,-23.88649 -0.0647,-6.54261 -0.21488,-13.09599 0.12849,-19.63289 0,0 3.94698,-3.31536 3.94698,-3.31536 z"
         id="path4285"
         style="fill:#000080;fill-opacity:1;fill-rule:nonzero;stroke:none" />
      <path
         transform="translate(0,284.36218)"
         inkscape:connector-curvature="0"
         d="m 86.643207,194.98687 c -0.299466,-3.14706 0.707511,-5.90956 2.412215,-8.49275 3.865267,-5.05405 8.243535,-7.86243 13.893808,-10.23616 4.73666,-1.91566 9.73493,-2.6712 14.81457,-2.6009 4.27446,0.32516 7.30607,1.22708 10.4677,4.15681 2.73732,3.24001 3.33456,7.39912 3.64213,11.48497 0.047,3.39012 -0.22618,6.92705 -1.94161,9.93925 -0.32834,0.57654 -0.74349,1.09911 -1.11523,1.64867 -4.72376,5.79477 -9.13437,8.60796 -15.59005,11.53001 -3.63571,1.58145 -7.42753,2.77853 -11.38268,3.14522 -1.16138,-0.0431 -3.334616,-0.0341 -3.876036,-1.44145 -0.346343,-0.90025 0.102758,-1.84497 0.333148,-2.6762 0,0 0.0817,-0.08 0.0817,-0.08 l 0,0 c 0.923963,-0.21786 1.637178,-0.45578 2.588378,-0.43392 1.48433,0.0341 2.97654,0.61101 4.48408,0.3146 3.89652,-0.44007 7.6352,-1.63279 11.21316,-3.22671 2.22927,-1.02948 4.43358,-2.07558 6.50491,-3.40597 0.65852,-0.42296 2.08489,-2.10909 1.92616,-1.3427 -0.21836,1.05434 -1.51589,1.54086 -2.14776,2.41268 -0.41346,0.57047 0.99164,-1.00109 1.48747,-1.50164 0.39851,-0.53442 0.83891,-1.04003 1.19554,-1.60326 1.86611,-2.94721 2.29322,-6.48021 2.32425,-9.89308 -0.19476,-3.99081 -0.66277,-8.08998 -3.27945,-11.29831 -3.04967,-2.93928 -5.94809,-3.6588 -10.11662,-3.99455 -4.95792,-0.10502 -9.83939,0.60689 -14.46149,2.4849 -2.166244,0.92652 -4.268557,1.87221 -6.232419,3.19171 -0.575014,0.38635 -1.722068,1.92686 -1.670758,1.23601 0.06294,-0.84744 1.157338,-1.24489 1.718793,-1.88276 0.4016,-0.45627 -0.826079,0.89186 -1.239119,1.33779 -1.791029,2.5067 -2.925412,5.1981 -2.71777,8.34565 0,0 -3.317025,2.88206 -3.317025,2.88206 z"
         id="path4287"
         style="fill:#000080;fill-opacity:1;fill-rule:nonzero;stroke:none" />
      <path
         transform="translate(0,284.36218)"
         inkscape:connector-curvature="0"
         d="m 130.30539,207.87139 c 0.28912,4.31882 0.37887,8.64692 0.47668,12.9732 0.0812,4.79584 0.17042,9.5915 0.26111,14.38715 -0.15223,0.58296 0.33995,3.3745 -0.18319,3.82894 -0.0757,0.0658 -0.19498,0.0469 -0.29247,0.0703 -1.55922,1.46714 -1.7442,1.84187 -1.01371,0.73766 0,0 0.0889,-0.0719 0.0889,-0.0719 l 0,0 c 0.86019,0.64055 0.22997,0.0778 -1.47725,2.05988 -0.13687,0.015 -0.5136,0.12374 -0.66625,-0.0405 -0.68705,-0.73915 -0.10047,-2.37508 -0.39121,-3.20633 -0.15148,-4.79976 -0.13677,-9.60302 -0.24492,-14.40383 -0.0855,-4.36124 -0.19364,-8.7219 -0.32969,-13.08187 0,0 3.77197,-3.25277 3.77197,-3.25277 z"
         id="path4289"
         style="fill:#000080;fill-opacity:1;fill-rule:nonzero;stroke:none" />
      <path
         transform="translate(0,284.36218)"
         inkscape:connector-curvature="0"
         d="m 152.41175,211.92042 c -4.01084,0.0668 -7.95984,0.71486 -11.8552,1.62729 -3.69849,0.99954 -7.37302,2.0734 -11.11126,2.9181 -1.75196,0.24813 -3.47366,0.86747 -5.248,0.9552 -0.27438,-0.13155 -0.20783,-0.0258 -0.0496,-0.3715 0,0 2.21841,-2.79782 2.21841,-2.79782 l 0,0 c 0.63086,-0.53895 0.30621,-0.32085 0.95866,-0.6765 1.80099,-0.6913 3.7262,-0.94496 5.5995,-1.37099 3.70977,-0.83819 7.35433,-1.9191 11.04463,-2.83476 3.79659,-0.81033 7.66009,-1.41592 11.55472,-1.07043 0,0 -3.11189,3.62141 -3.11189,3.62141 z"
         id="path4291"
         style="fill:#000080;fill-opacity:1;fill-rule:nonzero;stroke:none" />
      <path
         transform="translate(0,284.36218)"
         inkscape:connector-curvature="0"
         d="m 172.16751,217.67807 c -2.15551,-2.2286 -4.91551,-3.26918 -7.90009,-3.80931 -3.30148,-0.42834 -6.45566,0.33962 -9.42842,1.72981 -0.42302,0.26273 -0.86689,0.49452 -1.26905,0.78819 -0.40059,0.29251 -1.48107,1.31817 -1.13239,0.96539 0.90918,-0.91987 1.75147,-1.93482 2.81623,-2.66904 0.42928,-0.29602 -0.60591,0.85249 -0.85007,1.31325 -0.71456,1.34844 -0.77567,1.93075 -1.17813,3.42621 -0.88042,4.52835 -0.42968,9.10149 0.61902,13.55025 0.75727,2.44446 1.97406,5.25953 4.778,5.8394 0.49295,0.10195 1.00453,0.0672 1.50679,0.10081 2.81152,-0.31345 5.30055,-1.68957 7.39287,-3.55826 0.65225,-0.58253 2.32687,-1.14551 1.83889,-1.87122 -0.4792,-0.71264 -1.3554,1.05493 -2.0331,1.58239 3.01262,-4.3375 4.37407,-9.36431 4.79113,-14.56423 0.27643,-2.61086 0.0498,-1.28789 0.70575,-3.96439 0,0 0.0838,-0.0778 0.0838,-0.0778 l 0,0 c 1.98515,0.32712 1.24185,-0.17566 2.30597,1.38921 0.076,0.58887 0.20767,1.17321 0.22794,1.76661 0.14926,4.37116 -1.59505,8.58599 -3.82069,12.24627 -4.23115,4.66298 -8.36301,10.71087 -15.1912,11.29882 -0.54249,-0.067 -1.09837,-0.0637 -1.62746,-0.20101 -2.93241,-0.76075 -4.30696,-3.60505 -5.13211,-6.25125 -1.07325,-4.53441 -1.43454,-9.22912 -0.67402,-13.85059 0.35894,-1.53211 0.41362,-2.14548 1.07077,-3.54987 1.62079,-3.46379 4.8481,-6.09457 8.11261,-7.96748 3.04369,-1.26139 6.23281,-1.92275 9.52811,-1.33409 3.00525,0.73122 5.70294,2.04306 7.66551,4.5214 0,0 -3.20661,3.15056 -3.20661,3.15056 z"
         id="path4293"
         style="fill:#000080;fill-opacity:1;fill-rule:nonzero;stroke:none" />
      <path
         transform="translate(0,284.36218)"
         inkscape:connector-curvature="0"
         d="m 190.23501,173.04805 c 0.87565,3.81157 1.47073,7.67672 2.02672,11.54522 0.87811,6.17699 1.41072,12.39337 1.89096,18.61143 0.43624,6.33121 0.94415,12.6564 1.56148,18.97252 0.38196,4.05299 0.94874,8.08532 1.36051,12.13492 0.14946,2.0005 0.0141,1.50708 -1.51398,2.87867 0,0 0.0897,-0.0709 0.0897,-0.0709 l 0,0 c -1.19597,1.51002 -2.01654,3.19833 -2.66194,0.77744 -0.67144,-3.999 -1.0398,-8.03987 -1.46444,-12.07049 -0.61254,-6.32278 -1.1225,-12.6541 -1.55641,-18.99168 -0.4794,-6.23342 -1.01405,-12.46427 -1.77765,-18.6703 -0.49561,-4.06986 -1.03162,-8.13993 -1.23972,-12.23739 0,0 3.28479,-2.87942 3.28479,-2.87942 z"
         id="path4295"
         style="fill:#000080;fill-opacity:1;fill-rule:nonzero;stroke:none" />
      <path
         inkscape:connector-curvature="0"
         d="m 203.69708,212.8538 c -4.07146,-1.195 -8.14888,-2.35924 -12.27775,-3.34004 -2.89066,-0.71289 -5.85106,-1.02667 -8.79423,-1.42618 -0.89199,-0.10705 -0.57957,-0.61324 -0.73434,-1.26935 0,0 0.0719,-0.0889 0.0719,-0.0889 l 0,0 c 1.09607,-0.76572 2.13356,-1.68782 3.48151,-1.96328 3.22257,-0.50367 6.41289,-0.0475 9.56276,0.74221 4.11172,0.99697 8.20221,2.10189 12.20543,3.47705 0,0 -3.51526,3.86849 -3.51526,3.86849 z"
         id="path4297"
         style="fill:#000080;fill-opacity:1;fill-rule:nonzero;stroke:none"
         transform="translate(0,284.36218)" />
      <path
         transform="translate(0,284.36218)"
         inkscape:connector-curvature="0"
         d="m 223.06221,224.29779 c 1.08825,-2.81648 1.2521,-5.38989 0.31274,-8.25635 -1.74005,-3.38406 -4.62547,-3.99407 -8.16099,-3.99176 -0.63243,0.10748 -1.2746,0.16824 -1.89729,0.32244 -1.27171,0.31493 -2.52496,0.8214 -3.63768,1.51735 -0.57665,0.36066 -1.99441,1.7999 -1.6326,1.22396 0.52846,-0.84118 1.20819,-1.76034 2.15616,-2.05736 0.69181,-0.21676 -0.8375,1.1836 -1.25625,1.7754 -2.61536,4.72704 -2.79763,10.10398 -2.40186,15.36127 0.35522,2.01662 0.88933,7.08279 3.75538,7.29869 0.44725,0.0337 0.88506,-0.14609 1.32759,-0.21914 -0.16646,1.08335 3.85006,-3.12844 3.12633,-2.10217 -0.57714,0.81841 -1.18351,1.8908 -2.16668,2.08122 -0.82084,0.15898 1.077,-1.28162 1.56041,-1.96379 1.28714,-1.81633 1.53792,-2.50728 2.5339,-4.49567 2.03883,-4.39964 2.34803,-9.19873 2.73352,-13.94867 0.53493,-2.67336 0.2849,-1.38215 0.75335,-3.87299 0,0 0.0852,-0.0763 0.0852,-0.0763 l 0,0 c 1.28473,0.94235 0.68457,0.38826 1.77475,1.68973 1.05199,4.35143 0.33199,8.82622 -1.21344,12.98581 -2.50821,5.48758 -4.57077,7.52289 -9.31243,11.95364 -0.52055,0.48643 -1.11113,0.90162 -1.72847,1.25725 -0.52382,0.30176 -1.11484,0.46789 -1.67227,0.70184 -0.51272,0.0195 -1.0333,0.15004 -1.53817,0.0585 -3.31926,-0.60163 -3.59074,-5.36193 -4.02661,-7.87677 -0.34171,-5.35533 -0.22268,-10.83053 2.28336,-15.7151 3.21556,-4.89402 7.48349,-9.1678 13.51176,-9.53304 3.73682,0.17104 6.59623,1.04217 8.36594,4.60022 1.01901,3.10051 0.87615,5.65723 -0.34581,8.6906 0,0 -3.2898,2.59113 -3.2898,2.59113 z"
         id="path4299"
         style="fill:#000080;fill-opacity:1;fill-rule:nonzero;stroke:none" />
      <path
         transform="translate(0,284.36218)"
         inkscape:connector-curvature="0"
         d="m 239.07941,174.35259 c 0.0774,4.94867 0.44993,9.88282 0.84763,14.81385 0.63024,7.40213 1.34256,14.79665 1.91032,22.20398 0.41916,5.26234 0.69563,10.53507 0.84282,15.81176 0.0437,2.19561 0.1018,4.39229 0.0753,6.58853 -0.0175,1.70094 -0.79649,2.21862 -3.13959,2.97992 -0.55743,0.18112 0.69892,-0.94109 1.04838,-1.41163 0,0 0.0869,-0.0743 0.0869,-0.0743 l 0,0 c 0.3502,-0.12754 1.27516,-0.68009 1.05061,-0.38262 -1.54879,2.05175 -3.14385,4.44254 -3.1217,2.36771 -0.0171,-2.2013 0.0181,-4.40294 -0.0348,-6.60405 -0.11753,-5.2905 -0.34454,-10.57783 -0.75142,-15.85474 -0.57108,-7.42801 -1.28752,-14.8435 -1.83312,-22.27347 -0.33225,-5.07451 -0.69677,-10.16935 -0.40786,-15.25539 0,0 3.42647,-2.90958 3.42647,-2.90958 z"
         id="path4301"
         style="fill:#000080;fill-opacity:1;fill-rule:nonzero;stroke:none" />
      <path
         inkscape:connector-curvature="0"
         d="m 256.78798,207.66914 c -2.68658,1.76759 -5.46253,3.39328 -8.20768,5.06695 -1.81025,1.17432 -3.73377,2.20862 -5.43419,3.54519 -1.40235,1.44265 0.87958,-0.90906 2.67092,-2.6252 0.0722,-0.0692 -0.12113,0.16031 -0.16809,0.24865 -0.16405,0.30864 -0.16164,0.60788 -0.15271,0.9469 0.0909,1.13198 0.59467,2.15488 1.13003,3.13553 1.1813,1.95393 2.85256,3.53511 4.50225,5.08721 2.15964,2.02547 4.70444,3.53462 7.1675,5.14566 0.73758,0.57132 1.93897,1.14946 2.33161,2.08238 0.12539,0.29792 0.19032,1.62947 0.21324,1.97095 0,0 -0.0788,0.0828 -0.0788,0.0828 l 0,0 c -0.24172,0.0455 -2.32796,0.44384 -2.48737,0.44846 -1.17871,0.0341 -2.37095,-0.51311 -3.4288,-0.94213 -2.70993,-1.31566 -5.19989,-3.01996 -7.41137,-5.07181 -1.69795,-1.59929 -3.37705,-3.26473 -4.49466,-5.33872 -0.54648,-1.12245 -1.00954,-2.27455 -1.01296,-3.54447 -8.3e-4,-2.43918 1.7746,-3.78418 3.94407,-5.25806 1.74335,-1.17749 3.55589,-2.25159 5.34245,-3.36104 2.74121,-1.66123 5.50607,-3.28777 8.1733,-5.06705 0,0 -2.59875,3.44776 -2.59875,3.44776 z"
         id="path4303"
         style="fill:#000080;fill-opacity:1;fill-rule:nonzero;stroke:none"
         transform="translate(0,284.36218)" />
      <path
         transform="translate(0,284.36218)"
         inkscape:connector-curvature="0"
         d="m 278.65502,225.22512 c 1.17063,-2.75366 1.44671,-5.63485 1.08674,-8.57664 -0.65543,-3.38604 -2.36546,-5.43299 -5.27964,-7.1348 -3.39016,-1.35171 -5.19436,-1.21906 -7.87364,1.28299 0.83707,-0.74161 1.46163,-1.83876 2.51122,-2.22483 0.59588,-0.21919 -0.66992,1.0811 -0.95039,1.65071 -1.35379,2.74933 -1.89733,5.71659 -2.31066,8.72203 -0.22631,3.71114 -0.41512,7.06007 2.12088,10.03166 2.51817,1.77833 4.90898,-0.14791 6.68763,-2.00936 -0.83275,0.72716 -1.43821,1.86757 -2.49826,2.18147 -0.6532,0.19343 0.72963,-1.1521 1.05083,-1.75286 0.34715,-0.64927 0.63866,-1.32682 0.95198,-1.99308 1.99677,-4.24604 0.14881,-0.43174 2.41174,-5.04186 0,0 0.0882,-0.0727 0.0882,-0.0727 l 0,0 c 0.21301,0.36895 0.53113,0.69472 0.63902,1.10686 0.98279,3.75432 -3.95184,7.94811 -5.72353,9.81103 -2.27003,2.1747 -4.61508,3.73675 -7.55441,1.65488 -0.29654,-0.34845 -0.64025,-0.66171 -0.88963,-1.04533 -1.80212,-2.77222 -1.54481,-6.38291 -1.3329,-9.50882 0.4335,-3.07516 0.98771,-6.10785 2.29477,-8.95325 0.27161,-0.59127 0.49937,-1.22371 0.91521,-1.72416 1.43791,-1.73044 3.0749,-3.28527 4.61234,-4.92791 0.39622,-0.31076 0.7572,-0.67264 1.18866,-0.93226 2.19359,-1.31997 4.72019,-0.65975 6.85762,0.39392 2.92444,1.87727 4.66034,4.16702 5.3429,7.63168 0.37886,3.06897 0.12975,6.07453 -1.15699,8.92896 0,0 -3.18973,2.50166 -3.18973,2.50166 z"
         id="path4305"
         style="fill:#000080;fill-opacity:1;fill-rule:nonzero;stroke:none" />
      <path
         transform="translate(0,284.36218)"
         inkscape:connector-curvature="0"
         d="m 295.02439,174.42951 c -0.90392,5.37339 -0.74668,10.844 -0.57651,16.26689 0.28765,6.84966 1.05434,13.66619 1.83427,20.47356 0.58665,4.88428 1.05661,9.78063 1.47097,14.68211 -0.16107,1.52342 0.59631,3.37942 0.32918,4.89318 -1.61209,-0.42887 0.23529,-0.0271 -3.2526,2.55765 -0.32547,0.2412 0.4821,-0.65125 0.71682,-0.98143 0.29576,-0.41605 0.58302,-0.83807 0.87453,-1.25711 0,0 0.0883,-0.0727 0.0883,-0.0727 l 0,0 c 0.2135,0.006 0.42694,0.0151 0.64051,0.0167 0.17089,10e-4 0.61775,-0.14245 0.51265,-0.008 -2.78441,3.57004 -1.67986,3.71468 -3.51978,3.27683 -0.55109,-0.69249 -0.20905,-4.00381 -0.48728,-4.86882 -0.37073,-4.91861 -0.84059,-9.8289 -1.38889,-14.73093 -0.75234,-6.87377 -1.49604,-13.75597 -1.6722,-20.67446 -0.088,-5.55573 -0.0982,-11.15429 0.86165,-16.64666 0,0 3.56841,-2.9272 3.56841,-2.9272 z"
         id="path4307"
         style="fill:#000080;fill-opacity:1;fill-rule:nonzero;stroke:none" />
      <path
         transform="translate(0,284.36218)"
         inkscape:connector-curvature="0"
         d="m 309.97094,176.26468 c -0.62394,4.21191 -0.80224,8.46668 -0.95479,12.71604 -0.20536,6.14794 -0.28504,12.29901 -0.36362,18.44958 -0.0901,5.33092 -0.0894,10.66146 0.10929,15.98966 0.0905,3.15663 0.41998,6.29591 0.71475,9.43736 0.11234,1.52563 -0.50359,2.04345 -2.28859,2.91081 -0.45147,0.21937 0.63539,-0.77725 0.95309,-1.16587 0,0 0.0896,-0.0711 0.0896,-0.0711 l 0,0 c 0.16555,0.0138 0.5981,-0.09 0.49665,0.0416 -0.8182,1.06094 -2.7454,4.09486 -3.2797,1.8091 -0.45372,-3.12451 -0.62606,-6.28076 -0.78854,-9.43149 -0.19586,-5.34906 -0.20858,-10.70006 -0.08,-16.05145 0.10618,-6.23365 0.21383,-12.47024 0.61895,-18.69329 0.32655,-4.44496 0.6488,-8.91089 1.54765,-13.28455 0,0 3.22532,-2.65639 3.22532,-2.65639 z"
         id="path4309"
         style="fill:#000080;fill-opacity:1;fill-rule:nonzero;stroke:none" />
      <path
         transform="translate(0,284.36218)"
         inkscape:connector-curvature="0"
         d="m 317.08738,232.01518 c -0.38294,-3.93373 -0.6527,-7.87537 -0.85166,-11.82219 0.0896,-2.84316 -0.51535,-5.79392 -0.0487,-8.62621 0.11885,-0.7213 0.36136,-1.41668 0.54205,-2.12502 -0.0664,-0.46695 -0.13273,-0.93391 -0.19909,-1.40087 0,0 0.0857,-0.0756 0.0857,-0.0756 l 0,0 c 0.0826,0.45255 0.16513,0.90511 0.2477,1.35767 0.34716,0.24116 0.76014,0.40799 1.04147,0.72347 1.24304,1.3939 1.83647,5.01821 2.17597,6.8062 0.4626,3.85432 0.73852,7.7247 1.10756,11.58854 0,0 -4.10105,3.57404 -4.10105,3.57404 z"
         id="path4311"
         style="fill:#000080;fill-opacity:1;fill-rule:nonzero;stroke:none" />
      <path
         transform="translate(0,284.36218)"
         inkscape:connector-curvature="0"
         d="m 318.13414,200.75357 c -0.54059,-1.72905 -1.05967,-3.52484 -0.84452,-5.35059 0.616,-2.13022 2.98995,-5.26241 5.09242,-3.71338 0.74336,0.7734 0.66641,1.8518 0.52754,2.83772 -0.38449,2.00732 -2.82297,5.88515 -4.70295,4.15246 -0.71149,-0.96624 -0.33171,-1.90837 0.24343,-2.82902 0.9867,-1.08247 0.46602,-0.55418 1.56546,-1.58151 0,0 0.0918,-0.0682 0.0918,-0.0682 l 0,0 c 0.32448,-0.0564 0.15781,-0.0328 0.5002,-0.0693 0.40601,0.29735 0.47344,0.84519 0.88925,1.13685 0.11053,0.0371 0.42799,-0.0581 0.34873,0.0274 -5.80597,6.2646 -3.19597,4.00833 -2.68531,2.32303 0.16563,-0.78493 0.37862,-1.75133 -0.13668,-2.44812 -0.21434,-0.13411 -0.40618,-0.2375 -0.66143,-0.11305 -0.0769,0.0375 -0.26238,0.21848 -0.20361,0.1563 3.33813,-3.53179 3.94379,-4.45607 2.92371,-2.95599 -0.30423,1.67287 0.56001,3.34841 0.95802,4.93768 0,0 -3.90603,3.55769 -3.90603,3.55769 z"
         id="path4313"
         style="fill:#000080;fill-opacity:1;fill-rule:nonzero;stroke:none" />
      <path
         transform="translate(0,284.36218)"
         inkscape:connector-curvature="0"
         d="m 330.66964,213.54129 c 2.31953,1.86493 4.95332,3.04636 7.86397,3.58176 3.1366,0.31179 5.98971,-0.78863 8.59526,-2.43035 2.89682,-2.56085 -0.9838,1.19393 -1.58254,1.67516 -0.32982,0.26509 0.52559,-0.66612 0.74423,-1.0284 0.66711,-1.10538 0.86365,-2.17354 0.98151,-3.43315 -0.1152,-2.68588 -1.27785,-4.12986 -3.78506,-4.946 -3.11799,-0.54164 -5.87375,0.64467 -8.3818,2.38591 -0.42036,0.38815 -1.67873,1.55548 -1.26108,1.16443 0.83941,-0.78594 1.53142,-1.77255 2.52635,-2.3491 0.5108,-0.29601 -0.6961,0.95582 -0.99776,1.4633 -0.95952,1.61414 -1.46918,3.29978 -1.93979,5.1001 -0.74001,3.36122 -0.29411,6.61706 0.93913,9.78104 1.27497,2.62737 2.96802,4.24288 5.78757,5.00721 2.94683,0.38463 5.67173,-0.85967 8.37555,-1.83584 1.13087,-0.25589 1.6651,-1.05142 1.95202,0.26374 0,0 -0.0707,0.0898 -0.0707,0.0898 l 0,0 c -1.46983,1.19652 -2.93372,2.39634 -4.66918,3.20039 -2.91358,1.48462 -6.01531,2.99601 -9.37586,2.47038 -2.93563,-0.91415 -4.77291,-2.61089 -6.14174,-5.37777 -1.32716,-3.28297 -1.72742,-6.70524 -0.98161,-10.20133 1.4434,-5.82894 3.97712,-9.00708 8.99876,-12.92069 2.63399,-1.64157 5.48728,-2.6807 8.61747,-1.9295 2.59152,1.02029 3.94251,2.56579 4.23989,5.40279 -0.16486,4.70279 -3.25859,7.20823 -7.04745,10.03879 -2.7411,1.59715 -5.69737,2.6338 -8.91897,2.23784 -2.9842,-0.57892 -5.66202,-1.83559 -8.00948,-3.7922 0,0 3.54134,-3.61832 3.54134,-3.61832 z"
         id="path4315"
         style="fill:#000080;fill-opacity:1;fill-rule:nonzero;stroke:none" />
      <path
         transform="translate(0,284.36218)"
         inkscape:connector-curvature="0"
         d="m 364.41774,198.02893 c -0.2677,4.03577 -0.0649,8.074 0.25624,12.09889 0.40578,4.2809 1.00947,8.53913 1.49469,12.81119 0.14925,1.46056 0.35261,2.91571 0.41607,4.38325 0.002,0.37368 -0.0167,0.75368 -0.19285,1.08886 -0.48717,0.61862 -1.09836,0.8334 -1.83138,1.29609 0,0 0.0878,-0.0732 0.0878,-0.0732 l 0,0 c -0.55003,0.56045 -1.20281,1.36551 -1.90869,1.88243 -0.20542,-0.14043 -0.17946,-0.43834 -0.2091,-0.69123 -0.10611,-1.46534 -0.23831,-2.9296 -0.36459,-4.3934 -0.43023,-4.31497 -1.00172,-8.61409 -1.37999,-12.93411 -0.27397,-4.14271 -0.46894,-8.31404 0.0293,-12.44932 0,0 3.60244,-3.01947 3.60244,-3.01947 z"
         id="path4317"
         style="fill:#000080;fill-opacity:1;fill-rule:nonzero;stroke:none" />
      <path
         transform="translate(0,284.36218)"
         inkscape:connector-curvature="0"
         d="m 380.47685,207.97522 c -3.9332,-0.31324 -7.88519,-0.28194 -11.82639,-0.17914 -2.58604,0.009 -5.15272,0.39058 -7.73315,0.47921 -0.55007,-0.0454 -1.00638,0.047 -0.53148,-0.54163 0,0 1.98016,-2.51022 1.98016,-2.51022 l 0,0 c 0.54382,-0.50988 1.0947,-0.79149 1.84957,-0.89509 2.60323,-0.4485 5.25399,-0.50082 7.88828,-0.59408 3.93274,-0.074 7.87474,-0.0706 11.79306,0.32169 0,0 -3.42005,3.91926 -3.42005,3.91926 z"
         id="path4319"
         style="fill:#000080;fill-opacity:1;fill-rule:nonzero;stroke:none" />
      <path
         transform="translate(0,284.36218)"
         inkscape:connector-curvature="0"
         d="m 389.70114,198.83162 c -0.98021,3.5063 -1.25504,7.12472 -1.26186,10.74815 0.0954,3.37121 0.5108,6.75753 1.82716,9.88149 0.79937,1.7043 2.11001,2.31802 3.90293,2.41441 1.56901,0.009 2.85761,-0.49325 3.94001,-1.61033 -5.35764,5.64287 -2.85326,2.96145 -2.01316,1.15972 0.54026,-1.15867 0.92623,-2.37149 1.31948,-3.58496 0.77634,-2.51131 1.34962,-5.07901 1.79658,-7.66756 0.25293,-1.44556 0.40518,-2.90606 0.4654,-4.3718 0.15249,-2.10676 -2.9632,0.94018 3.89249,-3.3007 0.0523,-0.0324 0.0251,0.11523 -0.098,0.94468 -0.55394,2.48118 -0.89063,4.99842 -1.13249,7.52667 -0.35361,3.86119 -0.15222,7.7307 0.33668,11.5677 -0.0466,1.59015 1.04872,3.50226 0.71829,5.07668 -0.33808,0.48444 -0.10102,0.21672 -0.81567,0.69681 0,0 -1.80395,2.14255 -1.80395,2.14255 l 0,0 c -0.77197,0.47955 -0.42051,0.3515 -1.00073,0.50775 -1.06249,-0.45849 -1.02653,-3.79312 -1.31747,-4.72782 -0.48204,-3.89418 -0.71875,-7.81978 -0.33107,-11.73682 0.27251,-2.6031 0.60412,-5.20519 1.29334,-7.73672 0.0883,-0.31897 0.0122,-0.73132 0.25082,-0.96073 5.53682,-5.3245 4.0314,-4.77559 3.85799,-3.24393 -0.13855,1.50558 -0.29195,3.0108 -0.54144,4.50282 -0.45341,2.59749 -1.0006,5.17836 -1.74623,7.70959 -1.46139,4.84029 -1.83964,5.60662 -6.13235,9.58985 -1.24835,1.01965 -2.6928,1.44953 -4.31163,1.40124 -1.93762,-0.20951 -3.44011,-0.95794 -4.32486,-2.79076 -1.32781,-3.25299 -1.67523,-6.75662 -1.71538,-10.25068 0.0699,-3.73061 0.39129,-7.46234 1.44274,-11.06094 0,0 3.50238,-2.82636 3.50238,-2.82636 z"
         id="path4321"
         style="fill:#000080;fill-opacity:1;fill-rule:nonzero;stroke:none" />
      <path
         transform="translate(0,284.36218)"
         inkscape:connector-curvature="0"
         d="m 414.93909,212.9045 c 0.27602,2.0831 0.67793,4.14748 1.19417,6.18389 0.21479,0.75325 0.37914,1.51957 0.61111,2.26779 -4.07503,3.5406 -3.52082,4.29355 -4.759,0.8412 -0.85355,-2.53972 -1.10047,-5.19749 -1.12096,-7.85949 -0.006,-2.80753 0.72433,-5.34938 2.37205,-7.60963 3.04021,-3.65201 6.03643,-6.12376 10.42144,-7.58543 2.3576,-0.64546 3.98087,-0.53773 5.74169,1.22015 1.64102,2.43115 1.96144,5.42551 2.33178,8.26511 0.29641,2.45077 0.41291,4.91771 0.37244,7.38482 -0.0319,2.1391 -0.16277,4.21063 -1.21267,6.10246 -0.24521,0.31245 -0.49041,0.6249 -0.73562,0.93735 0,0 -0.087,0.0742 -0.087,0.0742 l 0,0 c -0.24409,0.10515 -0.48819,0.21031 -0.73229,0.31547 -0.17484,-0.0176 -0.3732,0.0365 -0.52452,-0.0528 -0.73958,-0.43665 -0.56337,-3.20683 -0.70524,-3.95189 -0.11974,-2.41438 -0.16281,-4.83519 -0.45337,-7.23803 -0.32623,-2.74309 -0.61148,-5.63448 -2.05482,-8.0509 -1.53752,-1.68266 -3.11266,-1.51417 -5.19502,-0.92909 -1.66506,0.59181 -3.24563,1.29811 -4.68476,2.34255 -0.35465,0.25739 -1.31048,1.15604 -1.02398,0.82446 0.83951,-0.97162 1.79483,-1.83683 2.69224,-2.75525 -1.75867,2.14319 -2.57617,4.62299 -2.65352,7.40432 -0.0377,2.62925 0.1571,5.25665 0.96098,7.7785 1.11535,3.50404 1.69448,1.51982 -2.57043,5.74578 -0.0605,-0.83986 -0.15464,-1.67398 -0.32412,-2.50084 -0.37506,-2.12513 -0.79218,-4.24454 -1.01551,-6.39329 0,0 3.15491,-2.76142 3.15491,-2.76142 z"
         id="path4323"
         style="fill:#000080;fill-opacity:1;fill-rule:nonzero;stroke:none" />
      <path
         transform="translate(0,284.36218)"
         inkscape:connector-curvature="0"
         d="m 442.41735,212.52696 c 0.3611,-2.39811 0.41856,-4.85752 -0.64716,-7.07794 -1.30343,-1.7341 -2.91939,-0.73292 -4.19592,0.45558 0.76716,-0.70879 1.40759,-1.5861 2.30147,-2.12637 0.38886,-0.23503 -0.50374,0.75882 -0.70929,1.16405 -0.92746,1.82843 -1.11465,3.7302 -1.08947,5.74372 0.26578,1.76874 0.54966,4.48842 2.70512,4.83186 1.18131,-0.22545 2.10262,-1.02553 2.94217,-1.84114 0.24026,-0.2334 0.93868,-0.95589 0.6981,-0.72282 -0.90911,0.88069 -1.80264,1.77732 -2.70395,2.66598 1.50318,-1.71632 3.13625,-3.28367 4.77211,-4.88851 0.3597,-0.35288 0.73541,-0.475 1.21428,-0.55455 2.17647,0.38951 3.40277,2.77045 4.52015,4.44174 3.11066,4.92867 5.25684,10.34844 6.94577,15.90217 1.20342,4.82498 1.9685,10.05034 0.1526,14.84151 -0.33054,0.87212 -0.81775,1.67652 -1.22663,2.51478 -3.95839,5.74404 -9.41333,10.34708 -15.98278,12.72503 -1.01642,0.36791 -2.06921,0.62629 -3.10381,0.93944 -5.82806,1.32526 -10.62836,1.0111 -16.07757,-1.37783 -3.65128,-2.16987 -4.80236,-4.02766 -4.67076,-8.24396 0.76408,-5.28744 4.04031,-7.92695 7.78797,-11.40827 0.54103,0.55364 0.18198,0.37315 1.17828,0.25519 0,0 -0.0714,0.0893 -0.0714,0.0893 l 0,0 c -1.92801,0.92142 -0.86384,0.27166 -3.00475,2.22781 0.52836,-0.53915 1.00288,-1.13694 1.58508,-1.61746 0.34659,-0.28605 -0.60544,0.66644 -0.87156,1.02856 -1.26575,1.72231 -2.02929,3.74429 -2.37226,5.84366 -0.23136,3.90437 0.76276,5.76251 4.15582,7.82733 5.37117,2.45286 9.91996,2.59859 15.67076,1.25632 3.13265,-0.99308 6.05099,-2.07329 8.82922,-3.87725 0.87432,-0.56771 1.49926,-1.63854 2.51947,-1.85282 0.71861,-0.15094 -1.79373,2.29666 -1.47747,1.63396 0.40903,-0.8571 1.17668,-1.491 1.76502,-2.23651 0.43198,-0.8153 0.94248,-1.59361 1.29595,-2.44589 1.94084,-4.67982 1.23172,-9.86788 0.0655,-14.6317 -1.64951,-5.52737 -3.75553,-10.90687 -6.80256,-15.83134 -0.79432,-1.22882 -2.22083,-4.10704 -4.00192,-4.05328 -0.45882,0.19741 -1.28455,0.9761 -0.96541,0.64968 5.74763,-5.87857 3.23129,-3.30176 2.02776,-1.97785 -0.91095,0.92061 -4.73392,5.53228 -7.0319,6.08258 -0.27011,0.0647 -0.55373,0.0442 -0.83059,0.0664 -2.41443,-0.71674 -2.7881,-3.1182 -3.04455,-5.34172 -0.10251,-5.80442 1.22393,-6.96789 5.53672,-11.26161 1.70945,-1.3285 3.26162,-1.80334 4.69849,0.18466 1.05259,2.36186 1.01202,4.93881 0.59921,7.4599 0,0 -3.08525,2.53768 -3.08525,2.53768 z"
         id="path4325"
         style="fill:#000080;fill-opacity:1;fill-rule:nonzero;stroke:none" />
    </g>
    <path
       style="fill:#000000;fill-opacity:1;fill-rule:nonzero;stroke:none"
       id="path5010"
       d="m 2353.2792,1611.2162 c 3.1467,-1.0744 2.9646,-0.9338 6.6777,-2.7169 4.5717,-2.1956 11.8355,-6.0778 16.0018,-8.2308 14.7457,-7.6203 10.7402,-5.5429 26.9435,-13.4392 35.3348,-16.3554 72.0458,-29.9381 109.8646,-39.3356 8.9002,-2.2116 17.9073,-3.9687 26.8609,-5.953 36.9335,-6.8918 74.8262,-9.8407 112.1967,-4.5536 25.9831,3.6761 30.3464,6.2423 55.2825,14.2286 8.7883,4.0702 17.8512,7.5935 26.3649,12.2107 26.9146,14.5966 50.7093,34.369 70.8163,57.3948 18.74,21.4604 21.6038,28.2864 36.5476,52.4133 4.4843,9.4816 9.538,18.7144 13.4528,28.445 7.3289,18.2162 12.7198,37.4099 14.7363,56.9974 0.9206,8.9428 1.4684,18.0263 0.5117,26.9653 -1.7539,16.3868 -8.9697,31.4555 -14.9777,46.471 -11.1658,16.4728 -18.2815,28.9245 -33.891,42.521 -6.3426,5.5247 -13.7883,9.7233 -21.2416,13.6219 -15.7905,8.2596 -33.2029,13.6767 -50.7052,16.7548 -9.2188,1.6213 -18.6151,1.9836 -27.9226,2.9754 -9.4603,-0.2241 -18.9528,0.1397 -28.3808,-0.6723 -33.2659,-2.865 -71.2738,-13.3981 -95.9966,-37.1673 -5.3326,-5.127 -9.2482,-11.5483 -13.8724,-17.3224 -6.1661,-15.4636 -12.2904,-24.8904 -9.5513,-42.4658 1.5759,-10.112 5.7935,-19.6624 9.5912,-29.1658 8.2318,-20.5995 16.5106,-34.3719 31.3169,-51.3265 7.9916,-9.1511 17.2806,-17.0827 25.9209,-25.624 10.8903,-8.1075 21.2498,-16.9818 32.671,-24.3226 59.5798,-38.294 129.5129,-57.6262 198.9749,-67.8548 21.5784,-3.1775 43.3708,-4.6763 65.0562,-7.0144 23.1668,-0.8596 46.3179,-2.466 69.5003,-2.5787 49.4571,-0.2405 99.5331,2.7258 148.664,8.2438 50.8756,5.714 102.5354,14.3443 152.4674,25.6661 24.5017,5.5556 48.6563,12.5436 72.9845,18.8154 22.7644,7.4224 45.7901,14.087 68.2933,22.2673 39.8883,14.5 80.0795,32.004 117.2391,52.6574 29.5317,16.4136 59.6531,36.3637 84.8066,59.1871 10.2377,9.2893 18.9552,20.1273 28.4328,30.1909 12.9268,20.4936 24.194,32.9024 27.5161,57.3754 1.8594,13.6987 -3.2114,34.7299 -9.7377,46.7613 -8.5279,15.7217 -23.7356,27.2911 -36.4877,38.9748 -7.4557,3.3447 -14.6239,7.4229 -22.367,10.0343 -27.1618,9.1606 -61.7008,10.183 -87.2502,-4.5498 -5.2047,-3.0012 -9.4082,-7.4747 -14.1123,-11.212 -6.4312,-10.2698 -13.2814,-17.2534 -11.7486,-30.575 0.8885,-7.7221 4.2711,-14.9892 7.3077,-22.1447 6.5338,-15.3966 13.9739,-25.2272 26.211,-36.9798 7.1642,-6.8805 15.2926,-12.6808 22.9389,-19.0213 30.8045,-20.0352 30.2968,-20.8566 64.7783,-38.1533 13.6468,-6.8456 27.6316,-12.9958 41.4474,-19.4936 0,0 -0.097,0.1248 -0.097,0.1248 l 0,0 c -13.8155,6.498 -27.8546,12.5406 -41.4466,19.4942 -33.1306,16.9495 -36.9188,20.6789 -66.561,40.5675 -17.1655,14.5347 -27.6025,21.2598 -40.3178,39.438 -4.0773,5.8292 -7.9935,12.021 -10.0305,18.8368 -1.2587,4.2112 -0.046,8.8119 0.4623,13.1776 2.1708,18.6247 1.8207,14.2375 11.7486,29.927 4.6667,3.685 8.8421,8.0964 13.9999,11.055 25.4602,14.6042 59.7416,13.5623 86.7436,4.3077 7.7147,-2.6441 14.8431,-6.7613 22.2646,-10.1419 5.4102,-2.885 11.6431,-4.5871 16.2306,-8.6551 10.5853,-9.3864 20.6996,-26.8255 22.669,-40.9651 2.2589,-16.2179 -3.26,-40.1834 -9.9448,-54.5264 -4.9023,-10.5183 -12.1731,-19.7606 -18.2596,-29.641 -9.3712,-10.1325 -17.9679,-21.0407 -28.1136,-30.3977 -24.9178,-22.9807 -54.8631,-43.088 -84.2487,-59.6202 -36.9951,-20.8134 -77.0288,-38.4315 -116.8151,-53.0206 -22.4487,-8.2317 -45.4312,-14.9277 -68.1468,-22.3916 -24.2995,-6.2926 -48.4217,-13.3151 -72.8986,-18.8779 -49.9522,-11.3524 -101.5756,-19.9359 -152.4845,-25.5822 -49.1746,-5.4539 -99.3531,-8.3179 -148.8458,-7.9569 -23.2239,0.1694 -46.4123,1.8442 -69.6185,2.7662 -21.7298,2.4109 -43.5701,3.9761 -65.1894,7.2327 -69.682,10.4963 -139.7941,30.1938 -199.4497,68.8404 -11.4495,7.4173 -21.8275,16.3702 -32.7413,24.5553 -20.7122,20.623 -30.1987,27.3815 -45.1084,52.0454 -4.894,8.0957 -9.5293,16.551 -12.188,25.6297 -1.803,6.1567 -1.0247,12.8077 -0.9471,19.2225 0.3057,25.2579 0.2789,19.2463 9.2854,42.1568 4.5642,5.7549 8.4179,12.1529 13.6924,17.2647 24.5412,23.7841 62.3888,34.2792 95.5288,37.076 9.4112,0.7943 18.8849,0.4042 28.3273,0.6063 23.6256,-2.5969 31.7358,-2.1887 54.3114,-9.7602 20.3366,-6.8205 27.9539,-11.992 45.3439,-24.0136 5.0179,-3.4689 10.5028,-6.5056 14.6218,-11.0052 5.4045,-5.9039 9.0536,-13.202 13.5805,-19.803 3.056,-7.5192 7.2461,-14.672 9.168,-22.5577 2.0686,-8.4874 2.3033,-17.3421 2.6836,-26.0697 0.391,-8.9746 0.5048,-18.0068 -0.3735,-26.947 -1.9246,-19.5895 -7.2302,-38.7475 -14.516,-56.9744 -3.8859,-9.7215 -8.9216,-18.9429 -13.3825,-28.4144 -14.9294,-24.1212 -17.7239,-30.8579 -36.4789,-52.2893 -20.085,-22.9513 -43.8629,-42.6281 -70.7363,-57.1477 -8.5006,-4.5928 -17.5462,-8.0959 -26.3192,-12.1439 -24.8867,-7.9302 -29.2621,-10.4889 -55.188,-14.1211 -37.3395,-5.2312 -75.1904,-2.2294 -112.0752,4.7143 -8.9538,2.0023 -17.962,3.7755 -26.8615,6.0069 -37.9286,9.51 -74.7256,23.2597 -110.1038,39.8384 -16.3273,8.0574 -12.258,5.92 -27.1245,13.7051 -4.1673,2.1822 -11.6337,6.231 -16.2344,8.4465 -3.9065,1.8812 -3.6125,1.6885 -6.9518,2.7496 0,0 5.0041,-6.0614 5.0041,-6.0614 z"
       inkscape:connector-curvature="0"
       transform="translate(0,284.36218)" />
    <path
       style="fill:#000000;fill-opacity:1;fill-rule:nonzero;stroke:none"
       id="path5012"
       d="m 4839.0833,1811.6858 c 7.3677,2.7834 14.387,6.5408 21.7727,9.2599 3.768,1.3872 7.6578,2.4177 11.4866,3.6265 0,0 -0.106,0.1177 -0.106,0.1177 l 0,0 c -4.0866,-0.9242 -8.1551,-1.9328 -12.26,-2.7724 -8.4354,-1.7252 -17.072,-2.73 -25.2694,-5.5039 0,0 4.3761,-4.7278 4.3761,-4.7278 z"
       inkscape:connector-curvature="0"
       transform="translate(0,284.36218)" />
    <path
       style="fill:#000000;fill-opacity:1;fill-rule:nonzero;stroke:none"
       id="path5014"
       d="m 4947.2982,1768.7242 c 0.6029,1.5492 1.9075,3.1847 1.498,4.9717 -0.1083,0.4726 -0.496,0.8333 -0.744,1.2499 0,0 -0.1108,0.1132 -0.1108,0.1132 l 0,0 c -0.4417,0.2599 -0.8215,0.6848 -1.3252,0.7798 -1.7229,0.3246 -3.1609,-1.3725 -4.3986,-2.2162 0,0 5.0806,-4.8984 5.0806,-4.8984 z"
       inkscape:connector-curvature="0"
       transform="translate(0,284.36218)" />
    <path
       style="fill:#000000;fill-opacity:1;fill-rule:nonzero;stroke:none"
       id="path5016"
       d="m 4980.1121,1779.2795 c 1.7236,1.8401 4.3849,2.5081 6.1818,4.2321 0.323,0.31 0.2323,1.0298 0.657,1.1714 0.2886,0.096 0.2734,-0.5437 0.4101,-0.8156 0,0 -0.09,0.1303 -0.09,0.1303 l 0,0 c -0.3404,0.5027 -0.5237,1.16 -1.0211,1.5081 -3.6115,2.5272 -7.7662,0.5167 -11.3883,-0.8059 0,0 5.2505,-5.4204 5.2505,-5.4204 z"
       inkscape:connector-curvature="0"
       transform="translate(0,284.36218)" />
    <path
       style="fill:#000000;fill-opacity:1;fill-rule:nonzero;stroke:none"
       id="path5018"
       d="m 4604.2878,1620.8081 c -4.943,0.7246 -9.9601,1.0495 -14.9447,0.5076 -2.0004,-0.2175 -3.982,-0.5821 -5.973,-0.8731 -11.5401,-3.1106 -5.1494,-1.7912 -19.2652,-3.4771 0,0 0.104,-0.1195 0.104,-0.1195 l 0,0 c 15.2785,1.1466 7.8946,1.1788 22.1515,0.1316 0.1052,-0 10.149,-0.2961 11.4807,-0.3957 3.8754,-0.29 7.6099,-1.4315 11.4774,-1.7805 0,0 -5.0307,6.0067 -5.0307,6.0067 z"
       inkscape:connector-curvature="0"
       transform="translate(0,284.36218)" />
    <path
       style="fill:#000000;fill-opacity:1;fill-rule:nonzero;stroke:none"
       id="path5020"
       d="m 3652.6129,1519.6009 c -2.7248,1.1231 -4.8516,1.8024 -7.2429,3.6845 -1.0911,0.8588 -1.6148,3.5416 -2.8924,2.9978 -1.1937,-0.5081 0.4852,-2.8781 1.5949,-3.5501 0.9591,-0.5808 -0.7186,2.1252 -1.0237,3.2041 -0.2644,0.9351 -0.4558,1.8894 -0.6837,2.834 -0.9542,3.1542 -2.7998,6.894 -5.1369,9.1436 -0.3055,0.294 -0.5097,-0.6776 -0.7646,-1.0163 0,0 0.1003,-0.1226 0.1003,-0.1226 l 0,0 c 0.9722,-0.5968 1.9813,-2.4437 2.9164,-1.7904 0.9485,0.6626 -0.7592,2.2791 -0.5805,3.4223 0.067,0.4269 0.7557,-0.4772 0.9836,-0.8444 0.3233,-0.5209 0.4107,-1.1554 0.616,-1.733 1.5071,-6.8213 3.6505,-14.3094 9.5426,-18.6397 2.4454,-1.7972 4.7213,-2.568 7.4583,-3.7045 0,0 -4.8874,6.1147 -4.8874,6.1147 z"
       inkscape:connector-curvature="0"
       transform="translate(0,284.36218)" />
    <path
       style="fill:#000000;fill-opacity:1;fill-rule:nonzero;stroke:none"
       id="path5022"
       d="m 2245.7675,1180.445 c 2.2847,7.6276 3.9489,15.4285 5.6894,23.194 2.7765,13.5988 6.035,27.0738 9.8801,40.4085 6.1457,20.9664 14.9213,40.974 24.2926,60.6606 13.3575,26.6102 28.3787,52.3397 43.05,78.2362 16.3388,28.7045 31.6913,57.9477 46.8161,87.3043 12.0375,23.2636 23.6193,46.8009 36.9849,69.3477 2.5175,4.2469 5.1648,8.4156 7.7472,12.6234 11.7484,17.5408 23.7126,35.8975 40.627,49.0043 2.7333,2.118 5.7347,3.8655 8.602,5.7983 3.0727,1.3848 6.0318,3.0562 9.2181,4.1545 15.3149,5.2789 31.9912,3.3871 47.3956,-0.3858 5.1217,-1.2545 10.1266,-2.9448 15.19,-4.4172 5.5328,-2.0137 11.1211,-3.8812 16.5986,-6.041 12.7462,-5.0258 25.0676,-10.7175 37.4204,-16.6388 21.8559,-10.4765 43.3393,-21.7241 64.8932,-32.8013 39.5743,-20.1843 78.8976,-40.913 119.1668,-59.6996 8.4706,-3.9517 17.0187,-7.7352 25.5281,-11.6029 45.4267,-19.9663 92.3183,-36.7621 140.4594,-48.906 9.9534,-2.5108 20.0052,-4.6138 30.0078,-6.9207 38.9627,-7.8452 78.8176,-12.8396 118.6191,-9.9274 25.5793,1.8716 29.5581,3.7651 54.2586,9.441 8.3246,2.9355 16.822,5.4207 24.9738,8.8067 23.7489,9.8642 45.8156,23.6715 65.3243,40.3993 17.0639,14.6314 19.604,18.9526 34.0552,35.929 4.5253,6.7086 9.4719,13.1515 13.5758,20.1258 12.1312,20.6161 20.475,43.5556 23.6083,67.317 1.0362,7.8584 1.6744,15.8165 1.3989,23.7381 -0.2692,7.7412 -2.0172,15.3597 -3.0258,23.0396 -5.0396,19.8463 -5.248,25.9349 -15.1616,44.0526 -8.0293,14.674 -16.5843,24.7939 -28.9051,36.0349 -6.6187,6.0386 -13.3338,12.0901 -20.863,16.9463 -6.9949,4.5117 -14.9528,7.3177 -22.4292,10.9765 -8.4315,2.6502 -16.7075,5.8581 -25.2944,7.9507 -39.3629,9.5924 -82.6688,8.822 -122.5907,3.5828 -11.1607,-1.4647 -22.2021,-3.7269 -33.3032,-5.5904 -43.2317,-9.2338 -85.751,-23.2882 -123.8151,-46.1727 -23.6398,-14.2124 -26.336,-18.0792 -46.6912,-35.799 -5.8139,-6.6823 -12.1609,-12.9357 -17.4416,-20.0467 -9.3008,-12.5243 -17.1028,-26.907 -21.0343,-42.1164 -1.7907,-6.9274 -3.1856,-14.1189 -2.901,-21.2683 0.6937,-17.4308 6.7509,-28.4512 13.1526,-44.0522 4.8549,-6.7477 9.0605,-14.0138 14.5648,-20.2431 13.4581,-15.2309 30.6857,-28.2122 47.7289,-38.9855 21.8946,-13.8399 46.8296,-26.0097 70.625,-35.9866 13.87,-5.8154 28.1066,-10.7147 42.1598,-16.072 60.9857,-20.6401 124.3988,-35.1344 188.974,-37.1 43.1706,-1.314 52.0678,1.3161 94.66,6.33 42.2604,9.4325 48.4581,9.3094 89.036,24.3397 14.1893,5.2558 27.929,11.6537 41.8935,17.4805 0,0 -0.1075,0.1163 -0.1075,0.1163 l 0,0 c -13.9642,-5.8265 -27.6757,-12.2999 -41.8925,-17.4796 -39.2893,-14.3145 -48.8173,-14.8442 -89.7162,-23.5567 -42.7834,-4.7596 -51.7491,-7.3258 -95.0695,-5.807 -64.7055,2.2686 -128.2646,16.822 -189.3465,37.6555 -14.0794,5.4001 -28.3437,10.3407 -42.2381,16.2002 -23.8217,10.0459 -48.8311,22.3178 -70.7441,36.2281 -17.0543,10.826 -34.2809,23.8521 -47.7246,39.1471 -5.4981,6.2552 -9.688,13.5489 -14.5319,20.3233 -2.8057,6.9044 -6.7424,13.4511 -8.4169,20.7132 -1.4015,6.0777 -1.0017,12.4711 -0.6711,18.6996 0.379,7.1413 1.0383,14.3388 2.7924,21.2717 3.8384,15.1713 11.5869,29.6878 20.787,42.2105 5.2383,7.1301 11.556,13.4005 17.334,20.1007 20.2536,17.7502 22.9603,21.6642 46.5412,35.8694 38.0489,22.9207 80.6074,36.8909 123.8662,45.9918 11.1173,1.8349 22.1764,4.0673 33.3521,5.5047 40.1378,5.1627 83.2071,5.8433 122.7409,-3.947 8.6029,-2.1305 16.888,-5.3842 25.332,-8.0763 10.5668,-5.2171 30.5396,-14.1798 40.2459,-22.1286 17.396,-14.246 31.1564,-36.2414 38.4661,-57.3225 2.5641,-7.3951 3.8867,-15.1638 5.83,-22.7457 1.0639,-19.3723 2.4665,-28.4981 -0.035,-47.8109 -3.0796,-23.7711 -11.3218,-46.6838 -23.4037,-67.3348 -4.0825,-6.978 -9.0043,-13.4299 -13.5064,-20.1448 -14.3802,-16.9908 -16.9143,-21.3316 -33.9216,-35.9747 -19.4401,-16.7377 -41.4614,-30.5645 -65.153,-40.4466 -8.1317,-3.3918 -16.6105,-5.8827 -24.9157,-8.8241 -24.6161,-5.6936 -28.6509,-7.6137 -54.1575,-9.4744 -39.8,-2.9034 -79.6604,2.1814 -118.6142,10.028 -9.9983,2.3075 -20.0458,4.4109 -29.9948,6.9223 -48.1543,12.156 -95.0458,28.9901 -140.473,48.9937 -8.5062,3.8666 -17.052,7.6472 -25.5185,11.5998 -40.3078,18.8182 -79.678,39.5655 -119.2624,59.8361 -21.6053,11.1622 -43.1507,22.4707 -65.0707,33.0096 -12.5276,6.0232 -24.641,11.6309 -37.5504,16.7579 -5.5187,2.1918 -11.1452,4.1018 -16.7178,6.1526 -5.0967,1.4962 -10.1348,3.2088 -15.2902,4.4885 -15.537,3.8566 -32.247,5.7666 -47.6855,0.3624 -3.1978,-1.1194 -6.1663,-2.8095 -9.2494,-4.2143 -2.8904,-1.9333 -5.9211,-3.6717 -8.6712,-5.7998 -16.7502,-12.9617 -28.9213,-31.8902 -40.4976,-49.2885 -2.5742,-4.2205 -5.2092,-8.4045 -7.7224,-12.6615 -13.3301,-22.5786 -24.9444,-46.1071 -36.9567,-69.3956 -15.1185,-29.3496 -30.4876,-58.5741 -46.8458,-87.257 -14.6751,-25.8875 -29.7594,-51.5713 -43.1926,-78.1366 -9.4348,-19.635 -18.2326,-39.6005 -24.5814,-60.4805 -3.9376,-13.2747 -7.2834,-26.6985 -10.0826,-40.2612 -1.7682,-7.7112 -3.413,-15.4774 -5.8036,-23.0249 0,0 3.3256,-3.0381 3.3256,-3.0381 z"
       inkscape:connector-curvature="0"
       transform="translate(0,284.36218)" />
    <path
       style="fill:#000000;fill-opacity:1;fill-rule:nonzero;stroke:none"
       id="path5024"
       d="m 2123.3123,796.49076 c 14.3395,-6.77833 27.1142,-16.41875 39.457,-26.26916 9.122,-7.55119 17.2716,-16.20144 23.4981,-26.29058 -1.5756,-0.12418 2.6306,-2.66613 1.5827,-3.27754 -0.4585,-0.26753 -0.8996,0.56969 -1.3813,0.7928 -0.2142,0.0992 -0.4738,0.0674 -0.6884,0.16576 -1.0102,0.46304 -1.9959,1.28043 -2.8637,1.91956 -4.7675,4.07822 -9.9679,7.47872 -15.3882,10.60405 0,0 0.096,-0.12596 0.096,-0.12596 l 0,0 c 5.6719,-3.77048 11.1969,-7.74406 16.4748,-12.05358 0.6515,-0.47025 2.0466,-1.60816 2.9595,-1.86193 0.2745,-0.0763 0.8831,-0.22462 0.8527,0.0586 -0.039,0.3621 -2.4766,4.86605 -2.7079,5.31533 -6.4109,10.22155 -14.5601,19.12274 -23.9196,26.74938 -6.5666,5.18366 -7.9102,6.42236 -14.8554,11.18106 -8.1456,5.58121 -16.7584,10.41342 -25.1109,15.66627 0,0 1.9947,-2.5741 1.9947,-2.5741 z"
       inkscape:connector-curvature="0"
       transform="translate(0,284.36218)" />
    <path
       style="fill:#000000;fill-opacity:1;fill-rule:nonzero;stroke:none"
       id="path5030"
       d="m 1562.5848,1014.9242 c 5.1019,5.6526 9.3606,11.9632 13.6255,18.2498 10.7203,15.7176 20.7335,31.8845 30.2553,48.3505 12.8236,23.037 23.9137,46.9734 35.8324,70.4789 10.252,20.474 21.9433,40.1618 34.1231,59.5331 6.9,10.8529 13.9607,21.603 21.1807,32.2456 0.7295,0.6625 2.0435,3.4992 3.2783,3.7359 0.7161,0.1373 2.0696,-3.1073 2.1259,-3.2191 5.1418,-11.3806 8.6409,-23.409 12.0395,-35.3969 4.8847,-18.2125 8.9403,-36.63 13.7736,-54.8554 2.6196,-9.4354 5.9565,-18.6852 10.595,-27.3283 2.7548,-5.1332 4.051,-6.8826 7.2373,-11.751 7.3569,-10.4973 15.3432,-20.5359 23.175,-30.6796 1.9893,-2.3553 3.6392,-5.0007 5.7419,-7.2643 0.2276,-0.245 1.1426,-1.3918 1.8183,-1.0439 0.3807,0.196 0.555,0.652 0.8326,0.9781 0.2297,0.7249 0.5069,1.4365 0.6893,2.1748 1.3944,5.6418 2.1158,11.4994 3.1608,17.2068 1.7622,9.6237 1.8881,9.9564 3.9364,19.9527 3.3237,15.4194 7.4168,30.7134 13.0758,45.4548 3.3498,8.726 4.478,10.6881 8.4083,18.9135 3.3452,6.3778 6.9015,12.6968 11.2422,18.4636 1.1652,1.548 3.3325,4.3696 5.2688,5.3626 0.7369,0.3779 1.6197,0.3457 2.4296,0.5185 0.9064,-0.3645 1.9028,-0.5571 2.7193,-1.0935 4.9482,-3.2512 8.8911,-10.0228 11.6013,-14.9834 4.5924,-8.4055 6.2306,-13.0113 10.0742,-22.1248 10.9645,-28.7856 18.6607,-58.7219 24.7178,-88.8918 1.3211,-6.5802 2.4711,-13.1937 3.7066,-19.7905 5.8174,-33.7826 9.7816,-67.8411 14.898,-101.73014 2.5378,-13.31057 3.7712,-27.16434 8.6806,-39.90518 0.1469,0.55442 0.8333,-2.59214 1.3828,-2.08787 0.1527,0.14016 0.3928,0.42354 0.2469,0.57079 -3.02,3.04754 0.565,-4.36484 -2.2945,3.07725 -0.4296,0.91038 -0.8592,1.82076 -1.2888,2.73114 0,0 -0.031,0.10754 -0.031,0.10754 l 0,0 c 0.3482,-0.6279 0.6964,-1.2558 1.0446,-1.8837 0.6474,-0.37854 0.6614,-0.23072 -0.5201,-1.06422 -0.071,-0.0503 0.077,0.17933 0.041,0.25853 -0.086,0.18594 -0.2685,0.31074 -0.3821,0.48115 -0.5782,0.8674 -0.7228,1.30855 -1.2014,2.3373 -4.6197,12.66921 -5.8518,26.31368 -8.2812,39.48821 -4.997,33.79763 -8.914,67.7544 -14.7271,101.4291 -1.2381,6.5936 -2.3891,13.204 -3.7143,19.7806 -6.0993,30.2703 -13.8801,60.2997 -24.9902,89.1448 -3.9069,9.1566 -5.6005,13.8641 -10.2859,22.3004 -2.6359,4.7461 -7.0519,12.1326 -12.0658,15.006 -0.8996,0.5155 -1.9834,0.6052 -2.975,0.9079 -0.8613,-0.2371 -1.8029,-0.2776 -2.5839,-0.7113 -1.9541,-1.0852 -4.0914,-3.931 -5.2776,-5.5657 -4.2686,-5.8824 -7.7341,-12.3137 -11.0417,-18.7658 -3.8991,-8.3535 -4.9624,-10.2366 -8.2986,-19.0822 -5.5826,-14.802 -9.6694,-30.1237 -13.0512,-45.562 -2.0592,-9.7916 -2.2387,-10.4329 -4.0592,-19.8593 -1.0896,-5.6425 -1.9325,-11.3867 -3.338,-16.9661 -0.1688,-0.67 -0.4064,-1.3208 -0.6095,-1.9812 -0.1379,-0.1834 -0.1923,-0.4897 -0.4136,-0.5503 -0.3934,-0.1077 -1.2513,0.8773 -1.5551,1.2187 -2.0482,2.3017 -3.7532,4.8864 -5.7127,7.2592 -7.8133,10.1163 -15.7872,20.1245 -23.0856,30.6234 -3.1815,4.9043 -4.4461,6.618 -7.1891,11.7874 -4.5877,8.6458 -7.8766,17.8914 -10.464,27.313 -4.7958,18.2371 -8.836,36.6618 -13.7878,54.859 -3.484,12.1112 -7.0541,24.2845 -12.399,35.732 -0.4339,0.7557 -1.0268,2.275 -2.0324,2.7078 -1.5103,0.65 -3.5753,-3.3446 -4.1512,-4.0304 -7.0007,-10.8238 -14.0293,-21.6298 -20.887,-32.5454 -12.117,-19.4501 -23.776,-39.1935 -33.9793,-59.73 -11.8376,-23.5336 -22.9617,-47.4442 -35.8292,-70.4446 -9.5446,-16.4265 -19.5688,-32.5596 -30.3583,-48.2033 -4.2828,-6.2454 -8.5366,-12.543 -13.6862,-18.1228 0,0 3.5896,-3.5264 3.5896,-3.5264 z"
       inkscape:connector-curvature="0"
       transform="translate(0,284.36218)" />
    <g
       id="g3077"
       transform="translate(48.217783,-46.658208)"
       style="fill:#008000">
      <path
         transform="translate(0,284.36218)"
         inkscape:connector-curvature="0"
         d="m 200.17374,317.42271 c 3.41975,3.2669 5.6596,7.521 7.8858,11.63496 3.35653,6.45481 6.16872,13.17106 8.82549,19.93775 2.20363,5.65052 4.16576,11.38926 6.00034,17.16871 1.10195,3.55781 2.14325,7.13357 3.27718,10.68144 0.47335,1.39231 0.89439,2.80626 1.47768,4.15807 0.32268,0.69251 0.677,1.37354 1.10511,2.00719 1.12325,1.40707 3.36776,-1.4561 -3.87525,3.5285 -0.19016,0.13087 0.06,-0.45788 0.081,-0.68776 0.0726,-0.79373 0.13072,-1.91293 0.1755,-2.66845 0.27517,-5.54997 0.46566,-11.10372 0.70179,-16.65545 0.18172,-4.15891 0.33621,-8.32587 0.93692,-12.44941 0.51908,-3.0412 0.98922,-3.28611 4.84406,-5.46391 0.24331,-0.13745 0.303,0.4721 0.41727,0.72712 0.16002,0.3571 0.26846,0.73514 0.40269,1.10272 1.27709,4.54887 2.63815,9.06272 4.27486,13.49616 1.82809,4.76948 4.14061,9.33298 6.6445,13.77839 0.43133,0.45648 1.92485,3.79466 2.62652,3.88633 0.0608,0.008 0.0559,-0.10907 0.0839,-0.1636 -1.2598,1.15306 -2.44042,2.39911 -3.77941,3.45919 -0.2104,0.16657 0.25117,-0.47715 0.33486,-0.73213 0.30514,-0.92964 0.53081,-2.30167 0.6594,-3.21517 0.30742,-2.18394 0.36738,-3.35877 0.555,-5.63034 0.57294,-8.83225 0.56696,-17.68781 0.48006,-26.53386 -0.0734,-6.46999 -0.30429,-12.93695 -0.36855,-19.40699 0.0844,-1.73732 -0.14698,-3.55939 0.33109,-5.25864 0.56031,-1.34416 0.41835,-1.10807 3.16025,-2.53236 0.30075,-0.15622 -0.27272,0.62053 -0.40907,0.93079 0,0 -0.0785,0.0799 -0.0785,0.0799 l 0,0 c -1.88637,1.07688 -1.30056,0.84753 1.60086,-1.98466 0.0266,-0.026 -0.0315,0.0675 -0.0472,0.10118 -0.50899,1.62816 -0.24608,3.42936 -0.38706,5.0986 -0.004,6.49856 0.20049,12.99463 0.26438,19.49262 0.0804,8.84013 0.0979,17.68757 -0.38941,26.51792 -0.17947,2.52172 -0.33426,5.04377 -0.75491,7.54011 -0.003,0.019 -0.39515,2.06757 -0.49654,2.18023 -1.33089,1.47879 -2.85184,2.77479 -4.27776,4.16218 -1.51444,-0.51093 -2.20336,-3.06846 -3.09797,-4.21569 -2.48943,-4.49499 -4.80179,-9.09498 -6.64139,-13.89906 -1.61537,-4.44103 -2.98266,-8.95369 -4.28278,-13.49592 -0.11951,-0.34588 -0.22707,-0.69614 -0.35855,-1.03765 -0.0696,-0.18079 -0.36412,-0.3755 -0.24397,-0.52746 5.63493,-7.12666 3.58441,-4.49542 3.19376,-1.98224 -0.68503,4.12031 -0.85762,8.29775 -1.05033,12.46461 -0.24257,5.53448 -0.42848,11.07098 -0.63679,16.6068 -0.048,1.07335 -0.22588,12.33459 -4.61418,7.25895 -0.44957,-0.65994 -0.82523,-1.36763 -1.17257,-2.0859 -0.60225,-1.37167 -1.00007,-2.81978 -1.47642,-4.23758 -1.11699,-3.56198 -2.15273,-7.14794 -3.23594,-10.72022 -1.80578,-5.79028 -3.74017,-11.54012 -5.90397,-17.20765 -2.62282,-6.77135 -5.37133,-13.50452 -8.70238,-19.96474 -2.17109,-4.07821 -4.35119,-8.28084 -7.68465,-11.5517 0,0 3.62521,-3.69187 3.62521,-3.69187 z"
         id="path3021"
         style="fill:#008000;fill-opacity:1;fill-rule:nonzero;stroke:none" />
      <path
         transform="translate(0,284.36218)"
         inkscape:connector-curvature="0"
         d="m 257.33287,363.91408 c 3.19375,0.72418 6.43052,1.22337 9.68362,1.58433 2.8316,0.29571 5.59772,0.13057 8.10307,-1.28383 0.28841,-0.25119 1.13941,-1.02024 0.86524,-0.75358 -0.83489,0.81198 -1.595,1.72121 -2.54819,2.39036 -0.33988,0.23861 0.46731,-0.68944 0.65381,-1.06048 0.61033,-1.21428 0.78743,-2.45753 0.92509,-3.78819 -0.0381,-2.45964 -0.30466,-4.15405 -2.71625,-5.18286 -2.75791,-0.57987 -5.49537,0.31786 -8.08646,1.20077 -2.34736,0.88008 -4.67402,1.90547 -6.50905,3.64678 0.96927,-0.922 1.85941,-1.93509 2.90782,-2.76599 0.23317,-0.18479 -0.30786,0.51267 -0.41489,0.79027 -0.12661,0.32842 -0.2194,0.67121 -0.28207,1.01757 -0.27176,1.50182 -0.0843,2.99026 0.0808,4.489 0.51084,3.39639 1.50049,6.70251 3.16796,9.70877 1.46707,2.35668 3.02765,2.65288 5.64764,2.57298 2.73094,-0.22388 5.39615,-0.89093 8.12373,-1.13322 0.34388,0.0542 2.41438,-0.40864 2.42006,0.40946 0.006,0.91736 -0.48889,0.52601 -0.0519,0.80508 0,0 -0.0714,0.0862 -0.0714,0.0862 l 0,0 c -1.02644,0.48237 0.3142,-0.18622 -1.4604,1.02295 -1.18207,0.80544 -2.60627,1.07131 -3.95343,1.46088 -2.81472,0.729 -5.67519,1.33657 -8.58066,1.54737 -2.79379,0.01 -4.55003,-0.49239 -6.08077,-2.9888 -1.66233,-3.12257 -2.64124,-6.52661 -3.12883,-10.02852 -0.16672,-1.58901 -0.57964,-5.43148 0.59191,-6.7834 1.25924,-1.45311 2.66324,-2.77417 3.99486,-4.16125 1.91897,-1.53944 4.19549,-2.51489 6.50417,-3.32495 2.67645,-0.84444 5.49063,-1.67223 8.28913,-0.91159 2.50635,1.20275 3.0122,2.86728 3.14745,5.54902 -0.27869,4.63355 -2.23811,7.08629 -6.34802,9.95204 -2.61755,1.29583 -5.43865,1.44781 -8.31895,1.09621 -3.24244,-0.38791 -6.45253,-0.97524 -9.63262,-1.71966 0,0 3.07759,-3.44376 3.07759,-3.44376 z"
         id="path3023"
         style="fill:#008000;fill-opacity:1;fill-rule:nonzero;stroke:none" />
      <path
         transform="translate(0,284.36218)"
         inkscape:connector-curvature="0"
         d="m 283.99779,345.0687 c 1.91721,4.03584 2.80556,8.44322 3.68026,12.79468 0.97639,5.17025 1.79914,10.3678 2.792,15.53487 0.27191,2.45009 1.35031,4.80565 1.43961,7.27641 -0.12685,0.81569 -1.43113,1.72193 -2.04429,1.78459 -0.38217,0.0391 0.27043,-0.71916 0.40564,-1.07874 0,0 0.0854,-0.0724 0.0854,-0.0724 l 0,0 c 1.24143,1.61879 -0.89704,3.23279 -2.13223,2.68814 -1.13919,-1.8444 -1.06965,-5.02532 -1.73705,-7.06538 -0.96738,-5.19118 -1.7776,-10.40889 -2.70492,-15.60715 -0.84044,-4.37193 -1.67175,-8.78877 -3.33804,-12.93697 0,0 3.55359,-3.31807 3.55359,-3.31807 z"
         id="path3025"
         style="fill:#008000;fill-opacity:1;fill-rule:nonzero;stroke:none" />
      <path
         transform="translate(0,284.36218)"
         inkscape:connector-curvature="0"
         d="m 302.1219,350.11422 c -3.17577,-0.17212 -6.22459,0.58355 -9.13759,1.77874 -0.48553,0.24831 -0.98316,0.47427 -1.4566,0.74491 -0.9128,0.5218 -1.82235,1.16139 -2.6281,1.83673 -0.40022,0.33545 -1.52104,1.43088 -1.15486,1.05858 3.5144,-3.57312 2.9741,-2.99986 1.606,-1.34153 -1.27237,1.6383 -2.14802,3.51331 -2.84855,5.45252 -0.0628,1.11585 -1.195,1.47999 -1.34558,2.51585 0,0 -0.0689,0.0882 -0.0689,0.0882 l 0,0 c -0.52999,0.45992 -3.66947,3.41556 -2.70211,0.67389 0.71482,-2.01298 1.58054,-3.97103 2.87289,-5.69014 2.9358,-3.71956 6.36429,-7.22183 10.74472,-9.15053 2.96443,-1.08212 6.0399,-1.73384 9.2161,-1.54051 0,0 -3.0974,3.57325 -3.0974,3.57325 z"
         id="path3027"
         style="fill:#008000;fill-opacity:1;fill-rule:nonzero;stroke:none" />
      <path
         transform="translate(0,284.36218)"
         inkscape:connector-curvature="0"
         d="m 320.80319,310.24472 c 2.78838,5.33635 4.53841,11.115 6.20712,16.87423 2.59859,9.53509 4.48807,19.24302 6.43255,28.92696 1.39268,6.86935 2.76123,13.74366 4.25544,20.59183 0.49724,1.83682 0.73918,3.78667 1.41395,5.56641 -1.30964,0.98031 -2.46219,2.21646 -3.92893,2.94094 -0.32147,0.15879 0.0951,-0.71081 0.13526,-1.0671 0.0537,-0.47651 0.099,-0.95392 0.14601,-1.43112 0.20213,-2.04995 0.4031,-4.09887 0.6253,-6.14683 0.5451,-5.04777 1.24197,-10.07619 2.23325,-15.05603 0.68972,-3.50398 1.89339,-6.81914 4.04362,-9.6807 2.51554,-2.5682 5.15313,-6.34123 9.14608,-6.53948 2.99925,0.75259 3.16163,4.63487 3.53329,7.14719 0.58124,5.867 0.47143,11.7716 0.70885,17.65717 0.22824,3.87411 0.57132,7.86264 2.70367,11.19912 0.34114,1.13415 1.7914,1.23383 2.42056,2.05217 0.20166,0.2623 0.23433,0.61884 0.35149,0.92826 0,0 -0.072,0.0858 -0.072,0.0858 l 0,0 c -2.62686,1.38978 -3.62953,2.04442 -6.30667,0.44284 -0.30534,-0.34574 -0.65569,-0.65643 -0.91603,-1.03721 -2.00045,-2.92583 -1.80214,-6.87072 -2.18796,-10.22073 -0.23736,-5.89175 -0.12325,-11.79718 -0.60904,-17.67685 -0.19774,-1.55141 -0.38486,-5.7946 -2.24081,-6.54155 -0.21239,-0.0855 -0.45227,-0.0716 -0.6784,-0.10736 -0.93246,0.13148 -1.70414,0.38392 -2.52671,0.86512 -1.52723,0.89341 -4.66368,4.04801 0.85131,-1.36846 -2.23706,2.7531 -3.47158,6.0047 -4.17068,9.47244 -1.01361,4.94586 -1.72104,9.94431 -2.20748,14.96974 -0.20526,2.02779 -0.39711,4.05527 -0.56445,6.08655 -0.008,0.0946 -0.19815,2.48003 -0.20518,2.48904 -1.24275,1.59323 -2.78343,2.92982 -4.17514,4.39472 -0.83464,-0.94963 -0.97137,-4.74297 -1.48044,-5.8987 -1.41974,-6.89757 -2.78502,-13.80647 -4.12204,-20.72049 -1.87833,-9.71784 -3.7149,-19.45623 -6.25444,-29.02843 -1.65488,-5.76138 -3.41868,-11.51325 -6.001,-16.94021 0,0 3.43961,-3.22927 3.43961,-3.22927 z"
         id="path3029"
         style="fill:#008000;fill-opacity:1;fill-rule:nonzero;stroke:none" />
      <path
         transform="translate(0,284.36218)"
         inkscape:connector-curvature="0"
         d="m 367.67184,361.87912 c 0.80599,-2.49716 0.79711,-5.04826 -0.0421,-7.51925 -1.10058,-2.30313 -3.1825,-2.2849 -5.38716,-1.80829 -1.43917,0.44388 -2.7878,1.11963 -3.98135,2.04335 -0.4493,0.34772 -1.67828,1.5305 -1.28075,1.1246 0.63803,-0.65145 1.1497,-1.54247 2.00352,-1.86258 0.57127,-0.21417 -0.69631,1.00202 -1.04447,1.50303 -2.29025,4.00778 -2.22285,8.02955 -1.33159,12.41722 0.89997,2.86338 2.28997,6.05305 5.12456,7.5091 0.41923,0.21534 0.88883,0.31384 1.33324,0.47077 0.44663,0.0167 0.89632,0.10489 1.3399,0.0501 0.98307,-0.12132 1.81702,-0.55424 2.56611,-1.18885 0.42328,-0.3586 1.61867,-1.49382 1.14121,-1.21136 -0.89685,0.53056 -1.38445,1.94268 -2.4261,1.97147 -0.7191,0.0199 0.64245,-1.28736 0.96367,-1.93104 1.86732,-4.62825 2.41829,-9.62236 2.9212,-14.54683 0.11191,-1.44018 0.27364,-2.87635 0.37971,-4.31702 0.0137,-0.18659 0.0276,-0.37337 0.031,-0.56044 6e-4,-0.0342 -0.0464,-0.0799 -0.0193,-0.10085 1.25977,-0.97133 2.55638,-1.89391 3.83457,-2.84087 -0.0808,3.89834 0.47902,7.7542 1.17407,11.57753 0.855,4.4456 2.36914,8.6964 4.7622,12.53902 0.28199,0.3653 0.54012,0.75034 0.84596,1.09592 0.60872,0.68782 0.86976,0.87842 1.66248,1.26587 0.65172,0.31853 1.17315,0.32993 1.58365,0.94456 0.22687,-0.14344 0.45374,-0.28689 0.68062,-0.43033 0,0 -0.0673,0.0895 -0.0673,0.0895 l 0,0 c -0.29512,0.22886 -0.59023,0.45771 -0.88534,0.68657 -0.51188,0.3821 -0.9857,0.82135 -1.53563,1.1463 -2.18923,1.29364 -4.40818,0.58838 -6.06576,-1.15757 -2.73848,-3.72175 -4.03442,-8.18049 -4.94821,-12.66671 -0.70087,-3.89478 -1.2894,-7.84525 -1.06534,-11.81559 1.28616,-1.20534 2.55852,-2.42557 3.85848,-3.61601 0.0346,-0.0317 -0.044,0.0844 -0.0524,0.13059 -0.0359,0.19789 -0.0579,0.39815 -0.0799,0.59807 -0.15939,1.44484 -0.23902,2.89751 -0.40049,4.34219 -0.50851,4.92217 -1.06153,9.90064 -2.71605,14.59322 -1.73598,3.90879 -0.58953,1.85414 -5.41955,7.10504 -1.52747,1.66058 -3.34421,2.5106 -5.61007,2.11664 -0.48092,-0.18178 -0.98809,-0.3053 -1.44274,-0.54534 -2.97403,-1.57021 -4.39313,-4.86865 -5.27577,-7.92333 -0.82841,-4.45712 -0.81932,-8.91972 1.43528,-12.99793 2.57099,-3.8812 6.05122,-7.6362 10.67621,-8.84338 2.6017,-0.33162 4.23987,0.044 5.43241,2.5689 0.84529,2.55471 0.88823,5.19849 0.094,7.78683 0,0 -2.76661,2.20716 -2.76661,2.20716 z"
         id="path3031"
         style="fill:#008000;fill-opacity:1;fill-rule:nonzero;stroke:none" />
      <path
         transform="translate(0,284.36218)"
         inkscape:connector-curvature="0"
         d="m 384.84841,310.65856 c -0.50838,5.66882 -0.4953,11.35714 -0.3553,17.04085 0.31362,9.85845 1.60159,19.63463 3.88479,29.22309 1.7321,6.5051 4.02959,11.45945 8.71736,16.27668 1.66611,1.99831 4.39979,2.91409 5.97887,4.96396 -0.0409,0.88865 0.0676,0.44514 -0.3811,1.31572 0,0 -0.0704,0.087 -0.0704,0.087 l 0,0 c -1.31919,1.10309 -0.6238,0.69613 -2.04417,1.28996 -2.83416,-0.11533 -5.13515,-2.21129 -7.22365,-3.92442 -1.44517,-1.46968 -1.96909,-1.89499 -3.20751,-3.62665 -2.76634,-3.8681 -4.40664,-8.36697 -5.63376,-12.92523 -2.21688,-9.66171 -3.54087,-19.49592 -3.8262,-29.41427 -0.12892,-5.82249 -0.16908,-11.67068 0.72848,-17.44358 0,0 3.43261,-2.86315 3.43261,-2.86315 z"
         id="path3033"
         style="fill:#008000;fill-opacity:1;fill-rule:nonzero;stroke:none" />
      <path
         transform="translate(0,284.36218)"
         inkscape:connector-curvature="0"
         d="m 393.21256,346.92377 c -4.33541,0.53121 -8.70879,0.67493 -13.06951,0.86358 -3.95679,0.25234 -7.94369,0.12767 -11.86834,0.74806 -0.99463,0.13775 -0.77664,0.39235 -0.9489,-0.33268 0,0 0.0675,-0.0893 0.0675,-0.0893 l 0,0 c 2.2867,-2.1832 1.11761,-1.3341 3.40275,-2.68533 4.0778,-1.36934 8.38772,-1.37098 12.65009,-1.54326 4.29051,-0.19624 8.58194,-0.38392 12.86688,-0.68208 0,0 -3.10052,3.72101 -3.10052,3.72101 z"
         id="path3035"
         style="fill:#008000;fill-opacity:1;fill-rule:nonzero;stroke:none" />
      <path
         transform="translate(0,284.36218)"
         inkscape:connector-curvature="0"
         d="m 424.43228,338.14914 c 2.64409,3.66057 4.1525,7.95301 5.63816,12.17294 2.34098,7.30454 4.49597,14.66234 7.11463,21.8743 1.08035,2.76544 2.19426,5.52677 3.52378,8.18434 0.27263,0.54498 1.11969,2.23112 1.68612,2.76422 0.18514,0.17424 0.46414,0.20765 0.69621,0.31147 2.05647,-1.77238 -1.29017,1.67794 -2.23455,2.01712 -0.65238,0.23431 0.69012,-1.20473 0.97682,-1.83584 0.35581,-0.78322 0.65361,-1.59204 0.94766,-2.40048 0.72949,-2.00556 1.22646,-3.72215 1.8539,-5.76715 0.8082,-2.60008 1.44136,-5.25766 2.35553,-7.82505 0.16419,-0.46111 0.91678,-2.47966 1.37616,-2.98234 1.37375,-1.50323 2.90303,-2.85656 4.35454,-4.28484 0.30706,0.0412 0.64029,-0.007 0.92116,0.12348 2.03927,0.9491 3.79577,6.15558 4.59666,8.09179 1.72398,4.2642 3.6772,8.44292 6.19482,12.29923 0.23898,0.30129 0.82988,1.24606 1.37637,1.35063 0.47784,0.0914 1.48417,-1.25409 1.08409,-0.97725 -3.24862,2.24793 -3.56754,4.01482 -2.21539,0.51501 1.93466,-6.35638 2.88332,-12.96047 3.87921,-19.51431 0.67574,-4.13987 1.06657,-8.33943 2.01682,-12.43063 0.23855,-1.22657 0.92384,-1.97086 1.812,-2.78644 0,0 1.37987,-1.06986 1.37987,-1.06986 l 0,0 c 1.10449,-0.74579 0.92017,-0.53731 0.81638,0.57 -0.71588,4.12842 -1.48056,8.24899 -2.02676,12.40557 -1.00702,6.55452 -1.95339,13.14974 -3.75296,19.54404 -1.33055,3.92165 -0.42033,2.04739 -5.05949,7.09377 -1.23204,1.34019 -2.42631,0.0969 -3.19201,-0.9871 -2.42673,-3.96424 -4.34776,-8.20249 -6.11409,-12.49662 -0.5739,-1.35827 -2.68419,-7.1547 -4.20305,-7.63072 -0.20195,-0.0633 -0.41806,0.0662 -0.62709,0.0993 0.96517,-1.02743 1.8405,-2.14735 2.89552,-3.08228 0.34589,-0.30651 -0.5321,0.75968 -0.74021,1.17232 -1.52726,3.0282 -2.10147,6.46657 -3.20414,9.64642 -0.64668,2.14539 -1.08186,3.66919 -1.80974,5.77654 -0.11035,0.31947 -1.33671,3.79351 -1.72528,4.2689 -1.39834,1.71079 -2.94285,3.3095 -4.58911,4.78327 -0.25805,0.23101 -0.67524,0.15448 -1.01286,0.23172 -0.29703,-0.15659 -0.64032,-0.24648 -0.8911,-0.46977 -0.74002,-0.65886 -1.39877,-2.01189 -1.79405,-2.82308 -1.31772,-2.70418 -2.359,-5.53622 -3.41825,-8.34715 -2.54404,-7.27377 -4.6877,-14.67069 -6.9478,-22.03574 -1.41389,-4.26144 -2.87448,-8.54059 -5.19923,-12.40969 0,0 3.26075,-3.14004 3.26075,-3.14004 z"
         id="path3037"
         style="fill:#008000;fill-opacity:1;fill-rule:nonzero;stroke:none" />
      <path
         transform="translate(0,284.36218)"
         inkscape:connector-curvature="0"
         d="m 484.77051,364.11262 c -0.98124,-2.89936 -2.3173,-5.65246 -4.25471,-8.02846 -1.9255,-1.89063 -3.36425,-1.85999 -5.45781,-0.32847 -0.29054,0.29919 -1.18989,1.16709 -0.87163,0.89756 0.88939,-0.75322 1.57453,-1.77551 2.58796,-2.35111 0.43143,-0.24503 -0.518,0.84847 -0.73114,1.29651 -0.81686,1.71705 -1.11561,3.47245 -1.39831,5.33406 -0.42568,4.51559 0.59613,8.88276 2.34013,13.01525 0.88159,1.71239 2.32525,4.49158 4.73519,3.58836 0.39611,-0.14846 0.73502,-0.41895 1.10253,-0.62843 0.37433,-0.35085 1.51293,-1.38595 1.12298,-1.05255 -0.85369,0.72989 -1.45556,1.86925 -2.51487,2.2426 -0.64029,0.22567 0.7488,-1.13489 1.06958,-1.73322 1.11743,-2.08424 1.74918,-4.29627 2.36687,-6.56287 0.8663,-3.72952 1.24237,-7.55422 1.17462,-11.37855 -0.0285,-0.5288 -0.0313,-0.8455 -0.10005,-1.34182 -0.0108,-0.0777 -0.11455,-0.27231 -0.0485,-0.23014 0.15053,0.096 0.1976,0.52491 0.33848,0.4152 3.85816,-3.00467 3.6464,-5.3397 3.68384,-2.81165 0.18762,3.81735 0.96006,7.56714 1.86716,11.26881 0.94927,3.40805 2.12404,6.80531 4.00834,9.81797 0.62132,0.71053 1.04643,1.51468 1.41829,2.37121 0,0 -0.0731,0.0848 -0.0731,0.0848 l 0,0 c -1.51474,0.62773 -2.7697,1.22872 -4.40117,0.60196 -0.35819,-0.22883 -0.75039,-0.41157 -1.07456,-0.68648 -2.44147,-2.07046 -2.96176,-5.69395 -3.94964,-8.5371 -0.93577,-3.73454 -1.75223,-7.5161 -1.92901,-11.37495 -0.10408,-3.61127 4.80627,-7.61411 4.21478,-2.96147 -0.002,3.87016 -0.27682,7.74401 -1.13771,11.52795 -1.60856,6.23604 -3.62445,10.46804 -9.26994,14.49881 -0.42558,0.18292 -0.82688,0.43827 -1.27673,0.54876 -2.68499,0.65948 -4.30272,-1.97431 -5.30849,-3.9886 -1.72123,-4.2788 -2.72257,-8.78275 -2.30436,-13.42295 0.80092,-5.59365 2.42448,-8.48332 7.25571,-12.26108 2.3572,-1.31167 3.84009,-0.83698 5.59844,1.18574 1.85059,2.62382 3.13593,5.56106 3.73203,8.72813 0,0 -2.51526,2.25619 -2.51526,2.25619 z"
         id="path3039"
         style="fill:#008000;fill-opacity:1;fill-rule:nonzero;stroke:none" />
      <path
         transform="translate(0,284.36218)"
         inkscape:connector-curvature="0"
         d="m 502.25613,350.49749 c 1.66949,4.25147 3.08117,8.59889 4.63863,12.8922 1.28638,3.63408 2.85342,7.15499 4.58875,10.59395 1.25218,2.19776 2.16586,1.25902 -2.70575,3.9374 -0.28279,0.15548 0.13752,-0.631 0.1871,-0.94988 0.0683,-0.43939 0.11092,-0.88239 0.16638,-1.32359 0.42944,-4.53251 0.87854,-9.06028 1.53104,-13.5668 0.59271,-3.63829 1.29366,-7.33142 3.2155,-10.52413 3.96798,-4.69207 5.09047,-6.35331 9.19047,-2.69373 3.31676,3.69872 5.37652,8.291 7.37455,12.78509 0.99764,2.34233 1.88163,4.7311 2.74529,7.12534 0.36733,1.01831 0.93578,2.37761 0.97272,3.503 0.0188,0.57321 -0.14261,1.13814 -0.21392,1.70722 -0.006,0.35965 -0.0111,0.71931 -0.0166,1.07897 0,0 -0.0803,0.078 -0.0803,0.078 l 0,0 c -0.31766,-0.0562 -0.63531,-0.11232 -0.95296,-0.16849 -0.42826,-0.10867 -0.91494,-0.0843 -1.28479,-0.32601 -0.75544,-0.49376 -1.43478,-2.0973 -1.7688,-2.77798 -1.09159,-2.22451 -2.11693,-4.48177 -3.14701,-6.73505 -2.01845,-4.39953 -4.01913,-8.93411 -7.27517,-12.58191 -0.71574,-0.64 -1.17728,-1.17857 -2.0618,-1.55173 -0.26975,-0.1138 -0.56393,-0.18536 -0.85658,-0.19427 -0.25289,-0.008 -0.89264,0.35096 -0.74493,0.14555 1.08744,-1.51226 4.41368,-4.53184 2.17205,-2.4722 -2.12021,3.08169 -2.8227,6.81013 -3.45307,10.43868 -0.65906,4.4812 -1.10619,8.9843 -1.47424,13.49837 -0.0118,0.11806 -0.21659,2.27159 -0.25904,2.32445 -3.43824,4.28279 -3.36648,5.55723 -4.91089,2.67255 -1.78689,-3.45741 -3.24481,-7.07359 -4.51966,-10.74883 -1.48442,-4.38928 -2.8454,-8.81753 -4.2532,-13.23171 0,0 3.19619,-2.9345 3.19619,-2.9345 z"
         id="path3041"
         style="fill:#008000;fill-opacity:1;fill-rule:nonzero;stroke:none" />
      <path
         transform="translate(0,284.36218)"
         inkscape:connector-curvature="0"
         d="m 530.9637,343.65586 c 1.47278,4.43349 2.76706,8.91916 4.33922,13.32084 1.29454,3.52069 2.87251,6.93796 4.99121,10.0398 0.0572,0.0675 0.56163,0.76022 0.81693,0.80146 0.0813,0.0131 0.25542,-0.20745 0.19503,-0.15151 -1.07596,0.99658 -2.09083,2.06583 -3.24237,2.97403 -0.21742,0.17149 0.28876,-0.47488 0.39687,-0.72982 0.16185,-0.38166 0.27366,-0.78265 0.41049,-1.17398 1.11169,-4.08411 1.97882,-8.22817 3.06444,-12.31967 0.64788,-1.64986 1.03699,-4.65405 2.39289,-5.94811 1.30183,-1.24245 2.6558,-2.42909 3.9837,-3.64363 2.43281,0.64117 3.48333,3.69842 4.4811,5.73478 1.90234,4.1541 3.72947,8.34108 5.67865,12.4738 0.79318,1.71362 1.61182,3.41553 2.40916,5.12712 0.31048,0.66648 1.04445,2.14188 1.09724,2.91772 0.0435,0.63962 -0.13891,1.27465 -0.20836,1.91198 0,0 -0.0799,0.0784 -0.0799,0.0784 l 0,0 c -0.59471,0.006 -1.20719,0.16336 -1.78413,0.019 -2.02531,-0.50694 -4.20147,-4.90684 -5.18481,-6.54738 -2.01875,-4.09423 -3.83475,-8.27924 -5.71488,-12.43794 -0.53807,-1.11748 -2.22707,-5.36476 -3.75222,-5.35753 1.01164,-1.06433 2.03075,-2.1216 3.0349,-3.19299 0.16138,-0.1722 -0.3634,0.30711 -0.50623,0.49499 -1.1781,1.5498 -1.50878,3.62835 -2.17926,5.40076 -1.11536,4.06177 -2.01376,8.17278 -2.97376,12.27291 -0.0201,0.0707 -0.50777,1.87213 -0.61917,1.99412 -2.38597,2.61279 -3.36529,5.27041 -5.27233,2.71657 -2.05756,-3.22588 -3.46411,-6.81595 -4.78842,-10.39066 -1.53301,-4.50824 -2.84007,-9.08551 -3.91267,-13.72612 0,0 2.92667,-2.65894 2.92667,-2.65894 z"
         id="path3043"
         style="fill:#008000;fill-opacity:1;fill-rule:nonzero;stroke:none" />
      <path
         inkscape:connector-curvature="0"
         d="m 236.30909,708.82128 c 2.13863,6.97418 4.51216,13.86552 7.18252,20.65329 2.06889,4.64345 3.91901,9.5511 7.04314,13.62001 0.20817,0.14084 0.37712,0.37822 0.62452,0.4225 0.17737,0.0317 0.32842,-0.14836 0.49263,-0.22253 -1.04872,0.95455 -1.9585,2.08877 -3.14615,2.86366 -0.40512,0.26433 0.50859,-0.8266 0.70293,-1.26957 0.54772,-1.24841 0.93332,-2.80002 1.30003,-4.09069 1.18419,-3.85982 1.44651,-8.04279 3.2108,-11.70951 1.40713,-1.40101 2.67173,-2.9615 4.2214,-4.20302 0.21805,-0.17469 0.57137,0.0394 0.82234,0.16223 1.80689,0.88399 2.74491,3.50206 3.57585,5.14772 1.74646,3.84885 3.4571,7.7104 5.42989,11.45018 0.23949,0.38338 0.70354,1.30295 1.19904,1.57708 0.57167,0.31627 0.91858,-0.5098 0.91274,-0.50481 -1.07408,0.91741 -1.91237,2.15263 -3.14836,2.83646 -0.47071,0.26042 0.4486,-0.97793 0.67291,-1.46689 1.89984,-6.01595 2.05098,-12.41489 2.3447,-18.66826 0.31043,-5.04964 0.002,-10.16584 0.84621,-15.17044 0.79041,-1.93825 0.35324,-1.01152 1.29999,-2.78558 0,0 0.0848,-0.0731 0.0848,-0.0731 l 0,0 c 1.01092,0.0802 0.55493,-0.0899 1.36926,0.50686 1.07969,4.60584 0.24552,9.4873 0.37324,14.15828 -0.24945,6.26609 -0.40944,12.64276 -2.11093,18.71832 -1.27139,3.33674 -0.52413,1.95637 -5.00279,6.2525 -1.16368,1.11626 -2.38725,-0.94358 -2.77672,-1.68417 -1.87612,-3.80841 -3.50653,-7.72946 -5.30029,-11.57642 -0.72049,-1.4446 -1.4011,-3.10454 -2.54826,-4.28732 -0.18447,-0.1902 -0.39436,-0.38187 -0.64698,-0.46181 -0.16884,-0.0534 -0.63436,0.22946 -0.52333,0.0915 0.92551,-1.15 2.02717,-2.14636 3.04076,-3.21954 -2.01234,3.53218 -2.10866,7.87563 -3.36049,11.68687 -1.39938,5.23626 -1.23793,5.73348 -6.20128,9.76798 -0.20523,0.16683 -0.54468,0.055 -0.79258,-0.0372 -0.28486,-0.10592 -0.49332,-0.3551 -0.73998,-0.53265 -3.18886,-4.11233 -4.90225,-9.1897 -6.95652,-13.90784 -2.56737,-6.85904 -4.79002,-13.82896 -7.04568,-20.79458 0,0 3.55064,-3.24947 3.55064,-3.24947 z"
         id="path3045"
         style="fill:#008000;fill-opacity:1;fill-rule:nonzero;stroke:none" />
      <path
         inkscape:connector-curvature="0"
         d="m 299.83756,736.14299 c 1.01668,-3.29373 1.09799,-6.6969 0.87333,-10.10434 -0.43412,-4.51977 -1.80365,-8.82692 -3.94106,-12.81414 -1.93219,-3.02948 -3.73201,-4.49965 -7.33865,-4.76534 -0.43788,0.0442 -0.88173,0.0481 -1.31365,0.13255 -0.88168,0.17243 -1.71505,0.50245 -2.46327,1.00344 -0.40185,0.26907 -1.45871,1.26728 -1.12086,0.92123 3.63133,-3.71938 3.07724,-3.13144 1.67776,-0.99203 -2.3343,4.49466 -2.55874,9.50345 -2.13341,14.44474 0.71685,4.90887 2.38449,8.85624 5.91256,12.3565 1.5097,1.17027 3.34354,2.02758 5.22897,1.14642 0.42642,-0.1993 1.47837,-1.14252 1.17582,-0.78194 -0.79419,0.94654 -1.78253,1.71151 -2.6738,2.56727 2.97176,-3.9627 3.63868,-8.98473 4.25782,-13.76362 0.28266,-2.39327 0.43594,-5.24613 0.53991,-7.46762 1.29873,-1.02636 2.44392,-2.28471 3.89619,-3.07908 0.29162,-0.15951 -0.0703,0.66154 -0.0836,0.99366 -0.0205,0.51008 -0.0294,1.021 -0.0179,1.53136 0.0507,2.25466 0.37937,4.4359 0.75444,6.65506 0.8039,4.35044 2.52455,8.34474 5.33747,11.75109 1.02488,0.88436 2.22647,1.57112 3.61518,1.638 0.6871,0.0331 1.37098,-0.1202 2.05824,-0.14989 0,0 -0.0683,0.0887 -0.0683,0.0887 l 0,0 c -2.20981,1.6908 -4.59345,3.56046 -7.586,2.64175 -0.53185,-0.16328 -0.99893,-0.49013 -1.49839,-0.73519 -0.46252,-0.37674 -0.97441,-0.69992 -1.38756,-1.13023 -2.69009,-2.80187 -3.60524,-6.91573 -4.49932,-10.54492 -0.38081,-2.2461 -0.70874,-4.46127 -0.7941,-6.7414 -0.008,-0.20776 -0.0417,-2.48936 0.0524,-2.60465 1.20167,-1.47204 2.70668,-2.66788 4.06002,-4.00182 0.30653,0.45531 0.11684,1.40928 0.0942,1.88305 -0.0944,1.97901 -0.24105,3.95503 -0.45296,5.92518 -0.59074,4.79988 -1.22742,9.80003 -3.92271,13.94015 -4.33796,4.28381 -6.43139,8.22733 -11.97277,4.12572 -3.60844,-3.62988 -5.35927,-7.63159 -6.10603,-12.69764 -0.43396,-5.03244 -0.25188,-10.11891 1.97568,-14.76081 1.9838,-3.35521 0.96618,-1.92237 5.7498,-6.50427 0.62033,-0.59417 1.63025,-1.10649 2.44222,-1.36789 1.12157,-0.36106 1.521,-0.29858 2.68623,-0.3474 3.70509,0.46608 5.63178,2.05738 7.61718,5.20126 2.18148,4.05201 3.58929,8.41916 4.03723,13.01795 0.23073,3.48567 0.16076,6.96702 -0.88142,10.3369 0,0 -3.78688,3.0522 -3.78688,3.0522 z"
         id="path3047"
         style="fill:#008000;fill-opacity:1;fill-rule:nonzero;stroke:none" />
      <path
         inkscape:connector-curvature="0"
         d="m 322.13536,710.11477 c -0.17699,-2.15543 -0.57542,-4.59395 -2.38307,-6.03229 -0.31334,-0.24932 -0.69075,-0.40525 -1.03613,-0.60787 -2.39353,-0.78209 -4.61752,0.0126 -6.29978,1.77911 0.92479,-0.82764 1.7098,-1.84502 2.77436,-2.48294 0.29296,-0.17555 -0.2368,0.64727 -0.27698,0.98642 -0.0465,0.39245 -0.0359,0.79415 0.0197,1.1854 0.24658,1.73504 1.1586,3.15344 2.05441,4.61132 3.45352,4.64514 8.1544,8.14044 12.52358,11.86757 3.26888,3.07261 7.19535,6.296 8.44581,10.82589 0.18393,0.66629 0.20499,1.36713 0.30748,2.0507 -0.0724,0.65284 -0.0627,1.32009 -0.21712,1.95851 -0.27047,1.11803 -1.00878,2.63095 -1.79099,3.48496 -3.47003,3.78847 -4.59991,5.28504 -8.57004,7.11076 -4.69956,1.37429 -6.72272,0.0488 -9.5613,-3.63807 -2.44805,-4.85259 0.31771,1.32141 -1.09172,-4.77337 -0.14911,-0.64477 -0.63745,-1.15995 -0.95618,-1.73993 0,0 0.081,-0.0773 0.081,-0.0773 l 0,0 c 0.36458,0.53541 0.55318,1.24931 1.09372,1.60623 0.66231,0.43734 1.53044,0.42123 2.29566,0.63185 0.54403,0.43412 1.08806,0.86824 1.63208,1.30237 3.18426,2.50211 5.80298,3.91943 9.85662,2.38808 0.55406,-0.28161 1.13291,-0.51902 1.66218,-0.84485 0.54879,-0.33784 1.89297,-1.69253 1.56162,-1.13979 -0.57969,0.96701 -1.43987,1.76396 -2.34155,2.44083 -0.52138,0.39139 0.84021,-1.00429 1.17395,-1.56434 0.91571,-1.5366 0.81717,-1.87874 1.12609,-3.60358 -0.0634,-0.66185 -0.0431,-1.33717 -0.19033,-1.98554 -1.02439,-4.51186 -4.9737,-7.72639 -8.12873,-10.76744 -4.37434,-3.80157 -9.11879,-7.32917 -12.61109,-12.00723 -1.14543,-1.90468 -2.36655,-3.90966 -2.17073,-6.23754 0.0329,-0.39149 0.0163,-0.83778 0.25344,-1.15104 1.14969,-1.51909 2.55267,-2.8287 3.829,-4.24305 1.85524,-1.52907 4.15434,-1.94554 6.41123,-1.00178 0.35955,0.2413 0.75466,0.43661 1.07863,0.72391 1.80761,1.60298 2.29147,4.12819 2.39996,6.42037 0,0 -2.95483,2.52366 -2.95483,2.52366 z"
         id="path3049"
         style="fill:#008000;fill-opacity:1;fill-rule:nonzero;stroke:none" />
      <path
         inkscape:connector-curvature="0"
         d="m 391.28691,720.87954 c 0.28225,-3.39888 0.18718,-6.78767 -0.27133,-10.16303 -0.58958,-3.1635 -1.63206,-6.37116 -3.92343,-8.73686 -0.40798,-0.42121 -0.88725,-0.76698 -1.33088,-1.15047 -2.45432,-1.61707 -5.35536,-1.97335 -7.99743,-0.51796 -0.57079,0.31442 -1.06809,0.74687 -1.60214,1.1203 0.73652,-0.70918 1.21445,-1.89265 2.20955,-2.12756 0.76424,-0.1804 -0.9642,1.2458 -1.35631,1.92615 -2.01243,3.49177 -2.39866,7.33047 -2.56011,11.26681 0.25245,4.57461 0.97454,9.6022 3.98858,13.27936 0.42067,0.51321 0.95195,0.92477 1.42792,1.38716 2.05068,1.35757 4.26634,1.39549 6.39126,0.13597 0.52764,-0.31276 1.84859,-1.58783 1.47284,-1.10303 -0.68576,0.88478 -1.61429,1.55129 -2.42143,2.32693 2.37332,-2.81603 3.55159,-6.29897 4.49969,-9.79633 0.42018,-2.14384 2.34405,-9.29012 5.8264,-5.47475 2.37828,3.71359 3.74728,7.99033 5.20134,12.12497 2.69167,7.51539 4.52704,15.27205 5.6541,23.16449 0.66454,6.23237 0.54977,12.65533 -1.73333,18.57661 -0.39247,1.01787 -0.91245,1.98187 -1.36867,2.97281 -0.55099,0.86383 -1.03846,1.77162 -1.65296,2.59149 -0.57862,0.772 -1.22008,1.50107 -1.9156,2.16969 -3.06024,2.94186 -4.72891,5.3541 -8.43572,6.54476 -2.3052,0.74045 -2.9096,0.50165 -5.29483,0.40127 -0.91762,-0.25706 -1.86781,-0.4179 -2.75286,-0.77116 -4.11782,-1.64358 -7.35173,-5.02732 -9.73307,-8.67234 -0.6191,-0.94763 -1.12383,-1.96524 -1.68575,-2.94786 -1.70637,-3.70955 -2.93103,-7.83674 -2.08386,-11.95705 1.24065,-3.82833 0.83542,-2.06491 1.38147,-5.24939 0,0 0.0864,-0.0713 0.0864,-0.0713 l 0,0 c -0.12002,0.69805 -0.43252,1.38958 -0.36006,2.09416 0.0609,0.59268 0.55074,1.06178 0.74264,1.62584 0.2459,0.72279 0.3524,1.48639 0.56559,2.2195 0.79795,2.74401 1.84485,5.41286 3.2922,7.88434 3.49869,5.45355 7.40736,10.37068 14.10188,11.70566 2.31754,0.0241 2.88318,0.2394 5.09757,-0.56437 0.81647,-0.29637 1.8331,-1.86977 2.33345,-1.15977 0.51789,0.73488 -2.5389,2.0528 -1.64393,2.13819 0.70612,0.0674 3.5263,-4.40935 3.68822,-4.64963 0.47266,-0.97538 1.00878,-1.92248 1.41798,-2.92614 2.38404,-5.84745 2.57383,-12.23408 1.94819,-18.437 -1.08348,-7.8696 -2.89789,-15.58959 -5.59734,-23.07285 -1.42892,-4.06567 -2.78352,-8.26415 -5.09323,-11.93122 -1.64915,-1.82394 -0.71067,-0.42906 2.98609,-4.47455 0.0719,-0.0787 -0.10066,0.18875 -0.13619,0.28921 -0.28495,0.80556 -0.41734,1.66255 -0.66508,2.47816 -0.93274,3.54515 -2.07044,7.0854 -4.34689,10.02429 -2.9427,2.93037 -6.87109,8.50736 -11.96577,6.58498 -0.59284,-0.2237 -1.10848,-0.61422 -1.66272,-0.92132 -0.50379,-0.48918 -1.06587,-0.92475 -1.51138,-1.46755 -3.09811,-3.77458 -3.86665,-8.90899 -4.12735,-13.61086 0.1418,-4.00518 0.48711,-7.91978 2.41326,-11.52934 0.37795,-0.70825 0.77276,-1.42532 1.31362,-2.01856 1.6574,-1.81791 3.50194,-3.45593 5.25291,-5.18389 0.56211,-0.34567 1.09033,-0.75372 1.68632,-1.037 2.83696,-1.34842 5.84771,-0.77295 8.35292,0.96264 0.46063,0.40766 0.95734,0.77789 1.38189,1.223 2.3361,2.44923 3.44546,5.7253 4.07029,8.98101 0.49064,3.45824 0.59417,6.93632 0.15242,10.41113 0,0 -3.70731,3.11222 -3.70731,3.11222 z"
         id="path3051"
         style="fill:#ff6600;fill-opacity:1;fill-rule:nonzero;stroke:none" />
      <path
         inkscape:connector-curvature="0"
         d="m 411.69912,713.37704 c 3.30274,0.98581 6.63851,1.81852 10.06236,2.23449 1.37757,0.0798 2.85362,0.14042 4.12487,-0.51778 0.364,-0.18847 1.27908,-1.0179 0.99538,-0.72206 -3.68186,3.83938 -3.28811,3.45266 -2.10713,1.31815 1.41055,-3.91075 0.90488,-7.60649 -0.6823,-11.35187 -2.1701,-3.72876 -5.18488,-4.47237 -9.24879,-4.47605 -2.53557,0.21326 -5.07326,0.83446 -7.22955,2.24225 -0.52013,0.33958 -1.87491,1.61555 -1.47201,1.14276 0.75199,-0.88242 1.68741,-1.59037 2.53111,-2.38556 -3.38832,4.68441 -3.26279,9.66889 -2.46514,15.14763 1.01275,4.46707 2.96626,8.81774 6.75817,11.60012 0.63228,0.46396 1.34052,0.81434 2.01078,1.22151 3.23378,1.67906 6.82908,1.75436 10.37046,1.99254 1.03114,0.11629 1.35436,-0.0136 1.53272,1.03826 0,0 -0.07,0.0874 -0.07,0.0874 l 0,0 c -1.36369,1.01168 -2.65995,1.98705 -4.36756,2.33283 -3.88405,0.76441 -7.67923,0.32735 -11.24205,-1.49355 -0.69067,-0.42991 -1.41994,-0.80325 -2.07201,-1.28972 -3.86685,-2.88481 -5.91941,-7.31238 -6.9997,-11.89759 -0.87564,-5.53339 -1.07833,-10.61612 2.11139,-15.49393 5.37262,-5.42996 6.61538,-7.7225 14.05631,-8.27264 4.38904,0.1566 7.23193,1.02011 9.61709,4.95997 1.74997,3.95322 2.24464,7.45646 1.01648,11.66765 -1.46323,3.2435 -0.61561,1.80011 -5.24702,6.12081 -1.40475,1.31051 -3.69484,1.08074 -5.42167,1.0239 -3.42567,-0.45275 -6.77265,-1.28806 -10.05138,-2.38026 0,0 3.48922,-3.84923 3.48922,-3.84923 z"
         id="path3053"
         style="fill:#ff6600;fill-opacity:1;fill-rule:nonzero;stroke:none" />
      <path
         inkscape:connector-curvature="0"
         d="m 454.66257,711.32352 c 0.39274,-2.85345 0.30705,-5.74578 -0.49944,-8.51385 -1.02592,-2.64983 -3.31382,-2.98275 -5.86774,-2.95377 -3.03337,0.26047 -6.00272,1.26895 -8.32063,3.3044 -0.53908,0.47338 -1.00061,1.0284 -1.50091,1.5426 0.67031,-0.51861 1.34116,-2.07514 2.01092,-1.55583 0.65729,0.50965 -0.84021,1.43881 -1.18663,2.19496 -0.37021,0.80806 -0.68761,1.6417 -0.95887,2.48813 -0.88956,2.77569 -1.14307,5.52962 -1.30469,8.41842 0.0827,4.19846 0.82512,8.57516 3.40344,12.02243 0.38397,0.51337 0.85768,0.95306 1.28652,1.42959 2.02943,1.75967 4.5597,2.42912 6.8694,0.72872 0.47892,-0.35258 0.87347,-0.80733 1.31021,-1.21099 -0.77655,0.66801 -1.30995,2.10139 -2.32966,2.00404 -0.8185,-0.0781 0.89632,-1.38071 1.28834,-2.10345 1.91158,-3.52425 3.05472,-7.38155 4.19435,-11.20297 1.13584,-3.96733 1.99207,-8.00577 2.99783,-12.00605 0.64723,-2.34493 0.40473,-1.98764 4.24769,-4.00137 0.24108,-0.12633 0.0149,0.54418 0.0164,0.81635 0.0147,2.56785 -0.0453,-0.13625 0.0451,2.9752 0.19503,5.06558 1.41144,9.96187 3.30132,14.64217 1.39165,2.75004 3.0545,6.02821 6.16684,7.16328 0.43338,0.15806 0.90108,0.19819 1.35162,0.29728 1.35207,-0.0333 1.25966,0.0432 2.54852,-0.27103 0.85503,-0.20848 1.0984,-0.51832 1.75087,0.0381 0,0 -0.0675,0.0893 -0.0675,0.0893 l 0,0 c -2.30008,2.14904 -4.26505,3.96169 -7.59749,3.93307 -0.51723,-0.0908 -1.0506,-0.11535 -1.55169,-0.27245 -3.34466,-1.04863 -5.18011,-4.35497 -6.59672,-7.29365 -1.88394,-4.77504 -3.1148,-9.75747 -3.28245,-14.9122 -0.10237,-4.73103 -0.75442,-3.3983 3.92806,-7.47697 0.28571,-0.24886 -1.07692,1.75877 -0.33776,1.08534 -0.99899,4.02267 -1.95734,8.05595 -3.03158,12.05944 -1.09409,3.79612 -2.18775,7.64294 -3.97106,11.18785 -0.36807,0.73165 -0.69082,1.50584 -1.2132,2.13664 -1.54945,1.87099 -3.31349,3.55336 -4.97024,5.33004 -0.47641,0.38343 -0.91004,0.82714 -1.42923,1.1503 -2.55658,1.59135 -5.28025,0.65594 -7.39039,-1.17555 -0.44537,-0.50217 -0.93735,-0.96659 -1.3361,-1.50653 -2.64288,-3.57868 -3.35409,-8.08737 -3.42745,-12.42483 0.21372,-3.84646 0.66409,-7.5678 2.21583,-11.14039 0.33686,-0.77555 0.63187,-1.59339 1.1522,-2.25989 1.46448,-1.87587 3.1758,-3.54525 4.7637,-5.31787 0.52088,-0.49749 1.00401,-1.03778 1.56264,-1.49248 2.41056,-1.96205 5.44434,-2.85469 8.50199,-3.04805 2.92895,0.0779 5.0387,0.51519 6.18923,3.4945 0.76159,2.90149 0.91851,5.89823 0.4017,8.86454 0,0 -3.33323,2.74349 -3.33323,2.74349 z"
         id="path3055"
         style="fill:#ff6600;fill-opacity:1;fill-rule:nonzero;stroke:none" />
      <path
         inkscape:connector-curvature="0"
         d="m 477.97385,696.17523 c 0.65191,5.21847 1.62239,10.38024 2.77473,15.50887 1.00233,4.2125 2.17048,8.38358 3.36939,12.54372 0.90156,3.06067 1.09851,1.14691 -3.04167,4.55218 0.68463,-2.74064 1.15769,-5.52911 1.64434,-8.31004 0.64844,-3.76354 1.2243,-7.54214 2.14177,-11.25188 0.94221,-3.56632 3.56866,-6.08976 6.57018,-8.23833 1.69609,-1.09429 3.57962,-1.85079 5.45325,-2.58062 1.18805,-0.33977 2.38563,-1.0535 3.65358,-0.9992 1.44449,0.77609 1.26149,3.20577 1.41828,4.59013 0.44704,5.16623 1.51347,10.23046 3.03227,15.18017 1.23982,2.98666 2.36468,6.81086 5.32133,8.61745 0.39863,0.24358 0.85512,0.37644 1.28268,0.56466 1.28245,0.27925 2.14574,0.17273 3.29369,0.81806 0,0 -0.0697,0.0877 -0.0697,0.0877 l 0,0 c -2.03466,1.34595 -3.72789,2.60242 -6.27682,2.44789 -0.54433,-0.12969 -1.11521,-0.1769 -1.633,-0.38907 -3.40104,-1.39367 -4.65012,-5.48734 -5.85898,-8.57406 -1.51829,-5.01527 -2.54483,-10.145 -2.9585,-15.37622 -0.063,-0.5918 -0.0635,-3.82429 -0.89656,-4.00579 -1.23235,0.21514 -2.39185,0.74935 -3.56615,1.15744 -1.83498,0.73798 -3.6886,1.48902 -5.31448,2.63503 -1.68179,1.36286 -1.33116,1.12055 2.33946,-2.52578 0.19886,-0.19755 -0.38629,0.40788 -0.55506,0.63168 -0.62367,0.82707 -0.99623,1.79152 -1.30366,2.77154 -1.02647,3.70115 -1.62544,7.4973 -2.24841,11.28311 -0.46518,2.76041 -0.88401,5.53376 -1.52176,8.26108 -4.14388,4.32773 -3.50315,5.48038 -4.61522,2.00569 -1.21331,-4.18767 -2.34426,-8.40158 -3.29241,-12.65782 -1.09312,-5.23276 -1.98498,-10.50041 -2.47196,-15.82791 0,0 3.32934,-2.91966 3.32934,-2.91966 z"
         id="path3057"
         style="fill:#ff6600;fill-opacity:1;fill-rule:nonzero;stroke:none" />
      <path
         inkscape:connector-curvature="0"
         d="m 525.56538,704.39606 c -0.81226,-2.32751 -1.85987,-4.4845 -3.76436,-6.08897 -2.03666,-1.34668 -4.17467,-1.03824 -6.29376,-0.10819 0.39594,-0.74154 -2.98521,2.40595 -2.26267,1.77575 0.65424,-0.57063 1.08397,-1.58448 1.9381,-1.73971 0.61945,-0.11258 -0.72672,1.03054 -1.04024,1.57653 -0.91292,1.58983 -1.0874,2.25613 -1.75049,3.98852 -1.51138,4.47681 -1.80554,8.86159 -0.92795,13.4792 1.00159,3.76661 3.0894,6.16985 6.34126,8.16948 2.55455,1.27367 4.67295,1.95863 7.40021,0.85919 0.34571,-0.2503 1.32206,-1.06868 1.03712,-0.75091 -0.84327,0.94041 -1.70786,1.88423 -2.72497,2.6332 -0.47963,0.35319 0.74922,-0.92817 1.08117,-1.42275 1.27687,-1.90241 2.19289,-4.00782 3.13569,-6.08514 1.84122,-4.21368 3.47529,-8.51249 4.75995,-12.92795 1.29073,-4.72185 1.4967,-9.62658 1.66976,-14.48999 0.13278,-4.55036 -0.0495,-9.10058 -0.0612,-13.65097 -0.0187,-1.64516 0.0612,-3.29012 0.0222,-4.93506 -0.004,-0.0741 -0.008,-0.14812 -0.0121,-0.22219 0.003,-0.004 0.007,-0.0161 0.009,-0.0118 0.95684,1.53439 -0.82949,0.41279 3.29468,-2.50552 0.24611,-0.17415 -0.22263,0.56072 -0.31812,0.84669 -0.12859,0.38511 -0.23585,0.77701 -0.35377,1.16552 -1.39632,5.20023 -1.64239,10.61045 -1.83535,15.96311 -0.15106,7.64804 0.49389,15.27984 1.53966,22.84853 0.64866,5.01655 1.92186,9.89805 3.80713,14.58422 0.2618,1.41813 1.47283,2.57409 1.69762,3.99913 0.12229,0.77526 -0.14079,2.01278 -0.26595,2.77396 0,0 -0.079,0.0793 -0.079,0.0793 l 0,0 c -0.81762,0.13325 -1.85631,0.43252 -2.68911,0.0701 -1.26323,-0.54979 -1.78119,-2.35562 -2.52486,-3.3479 -2.06899,-4.6645 -3.20108,-9.64781 -3.89421,-14.69415 -0.99907,-7.62099 -1.66037,-15.29557 -1.51025,-22.99011 0.19074,-5.43102 0.48599,-10.90197 1.89397,-16.17906 0.5543,-1.86911 3.16656,-8.70917 4.95042,-5.59343 0.18804,1.63686 -0.0246,3.2967 0.026,4.93845 -0.009,4.55641 0.10117,9.11215 0.0618,13.66862 -0.0944,4.81814 -0.17505,9.68997 -1.35301,14.39154 -1.21922,4.43179 -2.83789,8.73279 -4.66406,12.9501 -2.28046,5.13503 -4.80099,10.221 -10.04048,13.08342 -2.9123,0.88346 -5.0769,0.16995 -7.70284,-1.24276 -3.31405,-2.17883 -5.45195,-4.76496 -6.39436,-8.70253 -0.81049,-4.72058 -0.45416,-9.42875 1.12361,-13.97651 1.90593,-5.004 4.28879,-8.92484 9.23145,-11.68424 2.23474,-0.79274 4.35138,-0.74264 6.27853,0.79342 1.80513,1.80309 2.87897,4.05964 3.60309,6.49496 0,0 -2.43971,2.21689 -2.43971,2.21689 z"
         id="path3059"
         style="fill:#ff6600;fill-opacity:1;fill-rule:nonzero;stroke:none" />
      <path
         inkscape:connector-curvature="0"
         d="m 546.57763,712.6415 c -0.6683,0.65556 -1.25118,1.41145 -2.00491,1.96669 -0.45486,0.33507 0.74964,-0.8467 1.09328,-1.29513 1.53921,-2.00861 2.57368,-4.20578 3.43279,-6.5693 0.77347,-2.64028 1.17535,-5.4507 -0.19199,-7.94238 -1.79731,-1.93167 -3.74325,-1.18332 -5.64471,0.13904 0.78372,-0.7483 1.41023,-1.70746 2.35114,-2.2449 0.505,-0.28846 -0.69293,0.93953 -0.96536,1.45336 -0.31897,0.60158 -0.58291,1.23407 -0.80146,1.87895 -0.84066,2.48045 -0.9772,4.96293 -1.06799,7.55361 0.16599,4.35125 0.98565,8.88087 3.61214,12.47937 0.43947,0.6021 0.98096,1.12264 1.47145,1.68397 3.66744,3.19859 7.31875,2.85593 11.70313,1.5989 1.78683,-0.59294 3.45491,-1.45961 5.09296,-2.37381 0.60933,-0.34007 1.68213,-1.24514 2.4392,-1.1575 -0.0626,0.1847 -0.12514,0.36939 -0.18771,0.55409 0,0 -0.0669,0.0898 -0.0669,0.0898 l 0,0 c -0.43314,0.47311 -0.86627,0.94621 -1.2994,1.41931 -2.6724,2.46948 -5.79858,4.33219 -9.24997,5.51911 -4.61657,1.27818 -8.43482,1.45114 -12.26903,-1.86297 -0.51144,-0.58404 -1.07715,-1.12467 -1.53431,-1.7521 -2.70158,-3.70785 -3.50428,-8.3917 -3.64238,-12.86844 0.15592,-3.37361 0.41748,-6.7264 1.92812,-9.81458 0.26496,-0.54164 0.52344,-1.10556 0.92776,-1.55288 1.39983,-1.54873 2.96979,-2.93474 4.45469,-4.40211 2.19878,-1.20269 4.2034,-1.43254 6.0015,0.58912 1.40639,2.61504 1.1818,5.48728 0.36697,8.28258 -1.70016,4.8721 -4.49472,8.65735 -8.45926,12.03697 0,0 2.51028,-3.40873 2.51028,-3.40873 z"
         id="path3061"
         style="fill:#ff6600;fill-opacity:1;fill-rule:nonzero;stroke:none" />
      <path
         inkscape:connector-curvature="0"
         d="m 568.94806,730.33514 c -1.69255,-4.12956 -3.30001,-8.2853 -4.62508,-12.548 -1.24283,-4.23053 -1.89147,-8.59942 -1.54834,-13.00067 0.78103,-4.5341 4.68857,-7.91904 8.83475,-9.5852 3.49262,-1.18378 7.16137,-1.56162 10.82867,-1.54874 2.35277,0.13182 4.8409,0.39435 6.74612,1.89623 1.13105,1.23707 0.34431,1.77431 -0.1943,3.07366 0,0 -0.0812,0.0772 -0.0812,0.0772 l 0,0 c -1.48123,0.4165 -1.41883,1.02162 -3.09869,0.43853 -2.25657,-0.68228 -4.51609,-1.3794 -6.90617,-1.34643 -3.62296,0.0228 -7.25447,0.41869 -10.66964,1.7023 -2.51932,1.15346 -4.51788,3.18177 0.40643,-1.67703 0.2895,-0.28565 -0.55307,0.60197 -0.77263,0.94432 -0.62333,0.97189 -0.66742,1.4707 -0.98185,2.59078 -0.62476,4.41695 -0.11349,8.83153 1.09481,13.11968 1.27293,4.30286 2.85718,8.48513 4.44513,12.67934 0,0 -3.47806,3.18408 -3.47806,3.18408 z"
         id="path3063"
         style="fill:#ff6600;fill-opacity:1;fill-rule:nonzero;stroke:none" />
      <path
         inkscape:connector-curvature="0"
         d="m 599.40546,670.98735 c -0.62093,5.38909 -1.12191,10.78564 -1.41597,16.20248 -0.44499,8.28197 0.11417,16.54312 1.62083,24.68841 1.25507,5.71494 3.18211,10.25439 7.1822,14.53141 1.18108,1.12322 2.52476,2.02508 4.00835,2.69499 0.20143,0.091 1.82393,0.67678 1.9182,0.81741 0.17002,0.25363 0.0367,0.60958 0.0551,0.91438 0.30266,-0.17939 0.60532,-0.35878 0.90798,-0.53817 0,0 -0.0681,0.0889 -0.0681,0.0889 l 0,0 c -0.30353,0.1787 -0.60706,0.3574 -0.91059,0.53611 -0.68607,0.47495 -1.31052,1.05442 -2.05822,1.42485 -2.65508,1.31538 -5.7039,-0.49744 -7.70428,-2.10512 -0.49592,-0.51033 -1.02924,-0.9868 -1.48775,-1.53098 -3.17104,-3.76354 -4.75893,-8.54632 -5.88043,-13.2553 -1.52829,-8.2233 -1.98722,-16.56844 -1.53885,-24.92581 0.30345,-5.47916 0.73819,-10.95195 1.57438,-16.37931 0,0 3.79717,-3.16425 3.79717,-3.16425 z"
         id="path3065"
         style="fill:#ff6600;fill-opacity:1;fill-rule:nonzero;stroke:none" />
      <path
         inkscape:connector-curvature="0"
         d="m 601.78136,701.25158 c -3.37948,0.73384 -6.8347,0.97765 -10.28384,1.05341 -1.0386,-0.14963 -3.34016,0.18652 -4.22487,-0.59519 -0.23686,-0.20929 -0.24584,-0.58239 -0.36876,-0.87358 0,0 0.0717,-0.086 0.0717,-0.086 l 0,0 c 0.70248,-0.39284 1.36767,-0.86145 2.10745,-1.17853 1.70188,-0.72946 3.60068,-0.66696 5.40338,-0.79018 3.4117,-0.15475 6.81765,-0.42279 10.17986,-1.05039 0,0 -2.8849,3.52049 -2.8849,3.52049 z"
         id="path3067"
         style="fill:#ff6600;fill-opacity:1;fill-rule:nonzero;stroke:none" />
      <path
         inkscape:connector-curvature="0"
         d="m 612.40315,673.01716 c -0.32493,-2.74325 -0.0635,-5.3817 1.2221,-7.8366 3.40231,-4.63627 6.17675,-6.07121 11.33053,-6.83384 2.97357,-0.35558 5.91964,-0.1155 8.69334,1.0216 2.36109,1.26035 2.74207,3.55479 2.84092,6.01017 -0.0681,3.94161 -0.94499,7.80318 -1.95098,11.59527 -1.19016,4.2452 -2.87361,8.326 -4.37788,12.46417 -1.2564,3.37255 -1.76266,6.90088 -1.78083,10.4812 0.0743,2.93996 0.84383,5.7109 2.43274,8.1782 1.06587,1.54298 2.75191,2.32673 4.26853,3.32345 0.96629,0.56544 0.6349,1.25017 0.29725,2.13167 0,0 -0.0742,0.0838 -0.0742,0.0838 l 0,0 c -1.05636,0.70683 -2.03223,1.41354 -3.37061,1.23385 -2.10563,-0.27195 -3.83853,-1.20748 -5.09793,-2.96294 -1.65944,-2.59095 -2.43119,-5.49332 -2.45619,-8.57709 0.0421,-3.73076 0.61142,-7.39413 1.99279,-10.88295 1.58786,-4.18117 3.3728,-8.29631 4.61775,-12.59937 1.01249,-3.76401 1.93302,-7.58634 2.04652,-11.50181 -0.047,-2.27703 -0.24774,-4.46994 -2.49632,-5.61133 -2.71362,-1.10109 -5.64047,-1.19189 -8.52716,-0.83304 -1.61173,0.26453 -3.17863,0.54424 -4.68048,1.22254 -0.4413,0.19931 -1.49807,1.1205 -1.27908,0.68862 0.48563,-0.95772 1.44965,-1.58507 2.14748,-2.40122 0.28422,-0.3324 -0.60392,0.63275 -0.90589,0.94912 -1.51473,2.45636 -1.7949,4.98131 -1.64366,7.83293 0,0 -3.24873,2.82355 -3.24873,2.82355 z"
         id="path3069"
         style="fill:#008000;fill-opacity:1;fill-rule:nonzero;stroke:none" />
      <path
         inkscape:connector-curvature="0"
         d="m 631.31986,732.19985 c -2.13851,-0.0311 -4.08611,-0.73885 -5.39507,-2.45989 -1.26751,-2.71471 1.75157,-5.46256 4.30752,-6.22426 2.14516,-0.27422 3.71319,1.0211 4.94286,2.61841 1.31999,2.2621 1.16363,4.11307 -0.20524,6.27344 -1.99788,2.00154 -4.92704,6.21804 -8.57967,5.74974 -0.34197,-0.0438 -0.66132,-0.19524 -0.99198,-0.29286 -1.46009,-0.99271 -2.10379,-2.86029 -1.57234,-4.59294 0.25066,-0.81718 0.72073,-1.55017 1.08109,-2.32526 0,0 0.0845,-0.0734 0.0845,-0.0734 l 0,0 c 0.4304,0.0718 0.91011,0.003 1.29121,0.21535 0.76523,0.42672 1.34447,2.78859 2.57877,2.92707 1.40126,0.3201 2.58686,0.13038 3.83506,-0.63354 0.3257,-0.19933 1.1686,-0.97102 0.92282,-0.67877 -0.80677,0.95933 -1.74685,1.79815 -2.62028,2.69722 1.51053,-1.96289 1.92933,-3.66345 0.76487,-5.95945 -1.01814,-1.48327 -2.35573,-2.80675 -4.30544,-2.43152 -1.70937,0.79509 -0.76234,0.44029 2.02179,-2.46642 0.13465,-0.14058 -0.28994,0.26689 -0.39279,0.43216 -0.34539,0.55499 -0.26128,1.15613 -0.0253,1.72687 1.14549,1.69012 3.01736,2.24111 5.00306,2.26094 0,0 -2.74551,3.23713 -2.74551,3.23713 z"
         id="path3071"
         style="fill:#008000;fill-opacity:1;fill-rule:nonzero;stroke:none" />
      <path
         inkscape:connector-curvature="0"
         d="m 451.8942,681.17128 c 2.31136,-0.81509 4.4994,-0.50266 6.53958,0.78212 1.34379,1.16966 2.27438,2.33672 1.34182,4.06595 -2.70375,3.08286 -4.6829,5.39248 -8.68441,4.25584 -2.17901,-0.98261 -2.86727,-2.33057 -2.52616,-4.6503 1.06222,-1.74284 0.68634,-0.95891 1.24641,-2.29107 0,0 0.0861,-0.0716 0.0861,-0.0716 l 0,0 c 0.3425,0.62492 0.0595,0.36526 1.13834,0.17798 1.05709,1.14941 1.85375,2.56222 3.4168,3.10086 1.22283,0.30296 2.37868,0.40074 3.5695,-0.12144 0.24566,-0.10772 0.86897,-0.60613 0.69913,-0.39851 -0.81334,0.99428 -1.77113,1.86105 -2.6567,2.79157 1.34292,-1.49227 0.70651,-2.48214 -0.6557,-3.712 -1.84895,-1.3054 -3.84575,-1.61318 -5.99768,-0.78679 0,0 2.48301,-3.14258 2.48301,-3.14258 z"
         id="path3073"
         style="fill:#ff6600;fill-opacity:1;fill-rule:nonzero;stroke:none" />
      <path
         inkscape:connector-curvature="0"
         d="m 430.15023,688.90637 c 0.96764,-3.06927 3.13114,-6.33079 6.28194,-7.4561 1.72076,-0.25867 3.00453,0.65082 3.90156,2.03433 1.22688,2.89085 -2.68062,5.53432 -4.84134,6.74147 -1.90399,0.8884 -3.76585,0.75107 -5.49177,-0.40302 -1.54651,-1.6008 -0.86102,-2.59777 0.0755,-4.36277 0,0 0.0838,-0.0742 0.0838,-0.0742 l 0,0 c 1.785,-0.33928 1.76314,-0.0536 3.20017,0.90313 1.66819,0.84886 3.34525,1.01614 5.05461,0.11599 1.76476,-1.13685 1.00619,-0.72496 -1.97466,2.33499 -0.16974,0.17425 0.34806,-0.34334 0.48962,-0.54117 0.38366,-0.53618 0.41156,-1.05069 0.20514,-1.6607 -0.72012,-1.23268 -1.81026,-2.11983 -3.31384,-1.78073 -1.63997,0.75915 -0.90938,0.52408 1.53066,-2.05114 0.22406,-0.23647 -0.45889,0.46523 -0.65448,0.72572 -0.65108,0.86712 -1.0488,1.88161 -1.37569,2.90515 0,0 -3.17129,2.56905 -3.17129,2.56905 z"
         id="path3075"
         style="fill:#ff6600;fill-opacity:1;fill-rule:nonzero;stroke:none" />
    </g>
    <g
       transform="translate(-4.9726771e-5,-3.8276287e-5)"
       id="g4971">
      <path
         transform="translate(0,284.36218)"
         inkscape:connector-curvature="0"
         d="m 183.66431,351.90536 c -5.18473,0.24483 -10.2446,-1.01289 -15.18005,-2.44798 -6.55085,-1.92911 -12.28932,-5.43263 -17.52695,-9.72757 -5.59521,-4.93099 -9.51279,-11.19331 -12.72367,-17.84175 -3.57816,-8.06223 -4.77125,-16.83153 -5.84667,-25.50488 -1.21902,-10.38063 -1.5798,-20.81434 -0.9994,-31.24442 0.62646,-9.15555 2.79091,-18.06356 5.58085,-26.77214 1.63674,-4.80518 3.53023,-9.53248 5.92849,-14.01067 1.376,-2.41315 2.30255,-3.94508 5.59598,-4.82978 0.50167,-0.13476 -0.33868,0.98215 -0.50801,1.47323 0,0 -0.1184,0.1101 -0.1184,0.1101 l 0,0 c -2.64805,0.32076 -1.42769,0.41592 2.07714,-3.31129 0.18033,-0.19177 -0.30472,0.42945 -0.44943,0.64933 -0.49276,0.7487 -0.4586,0.71492 -0.97782,1.5802 -2.58135,4.52008 -4.65566,9.30885 -6.39496,14.21242 -2.89809,8.66894 -5.09317,17.56339 -5.77043,26.70986 -0.65044,10.39957 -0.37291,20.81283 0.91336,31.16269 1.05849,8.59762 2.26653,17.2833 5.76939,25.28844 3.14841,6.57307 7.01475,12.76275 12.50231,17.66407 5.11856,4.29628 10.78286,7.7163 17.22511,9.66367 4.86661,1.42959 9.86293,2.68625 14.98201,2.29875 0,0 -4.07885,4.87772 -4.07885,4.87772 z"
         id="path4605"
         style="fill:#000000;fill-opacity:1;fill-rule:nonzero;stroke:none" />
      <path
         inkscape:connector-curvature="0"
         d="m 164.16938,657.90576 c 6.80759,-3.26011 13.30264,-7.7308 19.73083,-12.14098 5.93396,-4.1462 11.83037,-8.39238 17.56355,-12.93552 1.76582,-1.49294 3.32211,-2.26146 2.88756,-4.37834 -1.58685,-3.63927 -5.06428,-5.62431 -8.26755,-7.53207 -6.22492,-3.35556 -13.12619,-5.61132 -19.98436,-7.88156 -5.62507,-1.82873 -11.24463,-3.66781 -16.85496,-5.52437 -6.00735,-2.09271 7.41311,2.89498 2.91338,0.84859 -0.25972,-0.11811 -0.48034,-0.29676 -0.74203,-0.41161 -0.56009,-0.24585 -1.14697,-0.44618 -1.72046,-0.66925 0,0 -0.14567,-0.0263 -0.14567,-0.0263 l 0,0 c -7.21153,-3.97563 3.86655,0.0516 7.02282,1.15037 5.57871,1.85738 11.17298,3.68532 16.76694,5.51394 6.79581,2.26838 13.63531,4.53128 19.7232,7.99649 3.1309,1.98876 6.67497,4.05527 7.76919,8.04485 0.0724,2.54766 -1.33193,3.55591 -3.47632,5.24071 -5.83271,4.47097 -11.76191,8.76079 -17.74285,12.93088 -6.43921,4.41706 -12.913,8.89405 -19.6795,12.37369 0,0 -5.76377,-2.59954 -5.76377,-2.59954 z"
         id="path4607"
         style="fill:#000000;fill-opacity:1;fill-rule:nonzero;stroke:none" />
    </g>
  </g>
</svg>
