<?xml version="1.0" encoding="UTF-8" standalone="no"?>
<!-- Created with Inkscape (http://www.inkscape.org/) -->

<svg
   xmlns:dc="http://purl.org/dc/elements/1.1/"
   xmlns:cc="http://creativecommons.org/ns#"
   xmlns:rdf="http://www.w3.org/1999/02/22-rdf-syntax-ns#"
   xmlns:svg="http://www.w3.org/2000/svg"
   xmlns="http://www.w3.org/2000/svg"
   xmlns:sodipodi="http://sodipodi.sourceforge.net/DTD/sodipodi-0.dtd"
   xmlns:inkscape="http://www.inkscape.org/namespaces/inkscape"
   width="1024"
   height="768"
   id="svg2"
   version="1.1"
   inkscape:version="0.48.4 r9939"
   sodipodi:docname="1.svg">
  <defs
     id="defs4" />
  <sodipodi:namedview
     id="base"
     pagecolor="#ffffff"
     bordercolor="#666666"
     borderopacity="1.0"
     inkscape:pageopacity="0.0"
     inkscape:pageshadow="2"
     inkscape:zoom="0.88411458"
     inkscape:cx="517.36061"
     inkscape:cy="369.05365"
     inkscape:document-units="px"
     inkscape:current-layer="layer1"
     showgrid="false"
     width="1024px"
     inkscape:window-width="1600"
     inkscape:window-height="872"
     inkscape:window-x="0"
     inkscape:window-y="14"
     inkscape:window-maximized="0" />
  <metadata
     id="metadata7">
    <rdf:RDF>
      <cc:Work
         rdf:about="">
        <dc:format>image/svg+xml</dc:format>
        <dc:type
           rdf:resource="http://purl.org/dc/dcmitype/StillImage" />
        <dc:title></dc:title>
      </cc:Work>
    </rdf:RDF>
  </metadata>
  <g
     inkscape:label="Ebene 1"
     inkscape:groupmode="layer"
     id="layer1"
     transform="translate(0,-284.3623)">
    <g
       id="g4935"
       transform="translate(67.296046,-10.328283)"
       style="fill:#008000">
      <path
         inkscape:connector-curvature="0"
         d="m 238.17969,438.67252 c -6.57373,-2.19672 -13.50633,-2.78165 -20.38671,-3.03603 -7.66459,-0.10922 -15.26425,1.0088 -22.88014,1.69034 -3.33544,0.29139 -6.70839,0.4338 -10.03077,-0.0526 -5.0338,-0.94316 3.07836,-5.59225 4.72942,-7.15744 1.50457,-0.25249 2.38608,0.77656 3.10756,1.9437 1.5151,3.505 1.34587,7.45723 1.34485,11.19729 -0.27293,7.85385 -0.78699,15.69623 -1.13239,23.54717 -0.41601,8.10772 -0.12513,16.21735 1.21742,24.22434 0.83979,4.6482 2.58285,8.83393 6.21868,11.91175 3.81749,2.57828 8.23609,1.90498 12.51503,1.1679 4.90781,-1.07284 9.71866,-2.54795 14.68406,-3.34529 1.4556,-0.18017 3.03604,-0.63704 3.52197,1.0675 0,0 -0.1141,0.15567 -0.1141,0.15567 l 0,0 c -2.39567,2.08163 -4.85077,3.90316 -7.97466,4.74469 -5.09368,1.7179 -10.26638,3.23834 -15.53295,4.32978 -4.55376,0.7295 -9.17179,1.21969 -13.13378,-1.63743 -3.73407,-3.29876 -5.61129,-7.62998 -6.47181,-12.51499 -1.3265,-8.10807 -1.54281,-16.32395 -1.14967,-24.52622 0.35345,-7.87096 0.90308,-15.73066 1.23641,-23.60225 0.0706,-3.619 0.29547,-7.44627 -1.02033,-10.88931 -0.5632,-1.01177 -1.15151,-1.5636 -2.33958,-1.15456 7.53615,-8.35044 2.83355,-6.3407 5.34239,-5.48946 3.13216,0.77033 6.42732,0.37013 9.60655,0.23509 7.61536,-0.67761 15.22497,-1.68919 22.88687,-1.54726 6.94144,0.28549 13.91747,0.93848 20.52764,3.22708 0,0 -4.77195,5.51057 -4.77195,5.51057 z"
         id="path3799"
         style="fill:#008000;fill-opacity:1;fill-rule:nonzero;stroke:none" />
      <path
         inkscape:connector-curvature="0"
         d="m 216.65489,473.26625 c -5.82923,1.39218 -11.66007,2.77727 -17.4874,4.17796 -0.89062,0.14137 -7.04152,1.9229 -7.43608,0.54484 -0.13234,-0.46224 0.16815,-0.9468 0.25222,-1.42023 0,0 0.11723,-0.15332 0.11723,-0.15332 l 0,0 c 0.78124,-0.65482 1.51361,-1.37281 2.34373,-1.96444 2.9032,-2.06913 6.49707,-2.71924 9.84879,-3.68981 5.72669,-1.42023 11.4585,-2.87183 17.27908,-3.85769 0,0 -4.91757,6.36269 -4.91757,6.36269 z"
         id="path3801"
         style="fill:#008000;fill-opacity:1;fill-rule:nonzero;stroke:none" />
      <path
         inkscape:connector-curvature="0"
         d="m 255.69723,463.9849 c 1.72967,6.53845 2.70272,13.24144 3.56751,19.93907 0.49122,5.03675 1.21851,10.08158 1.22755,15.15136 0.004,2.02427 -1.07671,2.35447 -2.63083,3.4958 0,0 0.14819,-0.12362 0.14819,-0.12362 l 0,0 c -0.0984,0.13431 -3.36532,6.17038 -4.35838,2.88705 -0.57337,-4.97956 -0.59826,-10.01589 -1.31043,-14.9844 -0.8432,-6.71996 -1.95598,-13.39443 -3.3325,-20.02676 0,0 6.68889,-6.33844 6.68889,-6.33844 z"
         id="path3803"
         style="fill:#008000;fill-opacity:1;fill-rule:nonzero;stroke:none" />
      <path
         inkscape:connector-curvature="0"
         d="m 248.32798,451.62333 c 3.40721,-3.49058 8.009,-11.60042 14.14365,-8.40403 2.16354,1.9751 1.81821,4.45419 0.21001,6.62379 -3.75776,4.3043 -7.08071,9.60616 -12.89076,6.96654 -2.15809,-1.40505 -2.84623,-3.56778 -2.49047,-6.01996 1.78557,-4.35386 6.01109,-9.69792 10.78195,-10.72059 2.00118,-0.11677 3.3384,1.00227 4.03633,2.78833 0.6056,4.10138 -3.8321,8.87656 -7.33646,9.78435 -1.05006,-0.56781 1.3909,-3.0866 1.70753,-3.51064 0,0 0.13572,-0.13723 0.13572,-0.13723 l 0,0 c 1.10576,-1.20645 2.1422,-2.50868 3.39715,-3.56351 2.38834,-2.23056 0.26171,-0.26028 -5.32155,5.81589 -0.13401,0.14584 0.29283,-0.26917 0.416,-0.42428 0.41985,-0.52873 0.60811,-1.11344 0.58239,-1.787 -0.33677,-1.50174 -1.49709,-2.20102 -3.01595,-1.85575 -1.32818,0.52058 -3.05444,2.16769 -2.51298,1.55239 9.53566,-10.83601 5.46498,-6.46836 3.93443,-3.83783 -0.61235,2.01558 -0.2915,3.97128 1.56452,5.20861 4.88896,2.06209 9.08567,-4.76911 0.18236,5.07523 1.60883,-1.53889 2.98642,-3.80196 1.09012,-5.70719 -0.96073,-0.44498 -1.07604,-0.64524 -2.22416,-0.51973 -3.40342,0.37206 -8.84719,7.14103 0.10591,-2.46245 0,0 -6.49573,5.13506 -6.49573,5.13506 z"
         id="path3807"
         style="fill:#008000;fill-opacity:1;fill-rule:nonzero;stroke:none" />
      <path
         inkscape:connector-curvature="0"
         d="m 277.73909,460.78735 c -0.15303,7.64577 0.46335,15.27391 1.16596,22.87962 0.59058,5.868 1.278,11.72571 2.03143,17.57487 0.27235,1.82338 0.53151,3.63185 0.36879,5.4743 -0.22078,0.38399 -0.0559,2.50851 -0.64248,2.66667 -0.25261,0.0681 -0.52304,-0.0162 -0.78456,-0.0242 -0.8041,0.84878 -1.60822,1.69756 -2.41234,2.54634 0,0 0.14973,-0.12189 0.14973,-0.12189 l 0,0 c -1.03797,1.25221 -2.07594,2.50444 -3.1139,3.75666 -1.80657,-0.11604 -0.5264,-0.80743 -0.40084,-2.48219 0.34412,-1.81544 0.24449,-3.61985 -0.0379,-5.44458 -0.66897,-5.92156 -1.27256,-11.85032 -1.85037,-17.78142 -0.66544,-7.71996 -1.25516,-15.4681 -0.95685,-23.22268 0,0 6.4833,-5.82157 6.4833,-5.82157 z"
         id="path3809"
         style="fill:#008000;fill-opacity:1;fill-rule:nonzero;stroke:none" />
      <path
         inkscape:connector-curvature="0"
         d="m 280.88503,483.02155 c 4.15213,-6.33413 9.43857,-11.93756 16.16975,-15.4213 4.53508,-2.12507 9.24163,-2.70485 14.03337,-1.28308 5.40387,2.41755 6.81767,7.74545 7.71154,13.11554 0.71327,6.55465 -0.0466,13.13327 -0.90599,19.63325 -0.44892,3.43469 -1.18067,6.81847 -1.91675,10.19963 -0.4265,0.87393 -0.12916,2.30316 -0.78351,3.07446 -5.08419,3.84097 -5.6823,4.89135 -3.18776,1.72839 0,0 0.14577,-0.12647 0.14577,-0.12647 l 0,0 c 3.16176,-1.07074 1.31419,-0.60964 -3.79156,4.27306 0.002,-0.569 0.24945,-1.97938 0.46728,-2.75388 0.73939,-3.39064 1.56079,-6.76648 2.03649,-10.20903 0.94629,-6.46837 1.70577,-13.01091 1.21999,-19.5567 -0.67906,-4.99765 -1.67997,-10.33701 -6.63703,-12.77618 -4.56349,-1.35573 -9.02233,-0.6089 -13.30433,1.43042 -1.98723,1.0969 -2.54025,1.29368 -4.32347,2.71011 -0.65654,0.52148 -2.40165,2.32794 -1.87861,1.67264 7.4648,-9.35253 3.19533,-3.09376 1.50988,-1.02963 0,0 -6.56506,5.31881 -6.56506,5.31881 z"
         id="path3811"
         style="fill:#008000;fill-opacity:1;fill-rule:nonzero;stroke:none" />
      <path
         inkscape:connector-curvature="0"
         d="m 364.47249,449.69569 c -0.23408,-5.63556 -1.02173,-11.22052 -2.14005,-16.74259 -0.99005,-4.83228 -3.03683,-9.10202 -6.48841,-12.61537 -3.94881,-3.30306 -8.63761,-3.41213 -13.46002,-2.49545 -0.81941,0.26939 -1.65836,0.48535 -2.45824,0.80816 -1.53794,0.62067 -3.16073,1.50985 -4.46054,2.54872 -0.66931,0.53493 -2.47203,2.3735 -1.86603,1.76778 5.36556,-5.36316 5.49688,-6.3237 3.36822,-2.00675 -2.5558,9.40993 0.44308,19.24828 2.79249,28.4036 3.53872,12.521 7.60972,24.88193 11.35613,37.34104 2.9083,9.36888 5.11847,18.91959 6.56784,28.61756 0.64911,4.34025 0.83077,8.72219 0.94815,13.10174 0.13848,3.06255 -2.0235,3.21047 -6.08082,5.72105 -0.67478,0.41753 0.84632,-1.34262 1.26185,-2.01866 0.62502,-1.01687 1.23983,-2.04 1.85974,-3.05999 0,0 0.14506,-0.12732 0.14506,-0.12732 l 0,0 c 1.57599,0.29149 2.27444,0.4104 2.22615,0.46743 -1.72907,2.04277 -6.39418,9.47988 -6.52071,5.47076 -0.0271,-4.38401 -0.13496,-8.77199 -0.7472,-13.12178 -1.35768,-9.69286 -3.51672,-19.23681 -6.38796,-28.59791 -3.71469,-12.48062 -7.77513,-24.85548 -11.37445,-37.37051 -2.46343,-9.36106 -5.43397,-19.24606 -3.15054,-28.93508 2.5837,-6.02825 0.87852,-2.83884 8.90806,-11.355 2.3722,-2.51595 5.74821,-3.78483 9.01728,-4.58901 5.05371,-0.69398 9.90827,-0.27019 13.874,3.2892 3.53005,3.70765 5.73764,8.1113 6.59179,13.19343 1.01298,5.78344 1.641,11.6504 1.49705,17.53033 0,0 -5.27884,4.77462 -5.27884,4.77462 z"
         id="path3813"
         style="fill:#008000;fill-opacity:1;fill-rule:nonzero;stroke:none" />
      <path
         inkscape:connector-curvature="0"
         d="m 365.03596,487.04964 c -6.46719,0.0796 -12.92859,0.33696 -19.38649,0.68144 -1.7783,-0.10555 -9.37546,1.07862 -10.68982,-0.23111 -0.21766,-0.21691 -0.18884,-0.58484 -0.28324,-0.87727 0.36701,-1.36342 0.76759,-1.18656 0.0204,-1.31352 0,0 0.12206,-0.14951 0.12206,-0.14951 l 0,0 c 1.11897,-0.0319 0.27025,0.0657 2.1313,-1.42347 4.38007,-2.62944 9.38809,-2.9555 14.41362,-3.17502 6.45553,-0.34826 12.9178,-0.6304 19.38429,-0.61148 0,0 -5.712,7.09983 -5.712,7.09983 z"
         id="path3815"
         style="fill:#008000;fill-opacity:1;fill-rule:nonzero;stroke:none" />
      <path
         inkscape:connector-curvature="0"
         d="m 389.80184,464.06729 c -1.42367,6.77998 -0.83435,13.72285 -0.0425,20.53757 0.90159,7.17433 2.97544,14.06586 6.26079,20.49259 2.01322,3.5844 4.72626,6.65035 8.38896,8.55819 1.15699,0.43965 2.19313,0.49879 3.25668,-0.22306 0.39106,-0.26542 1.38931,-1.27922 1.06771,-0.93291 -6.64057,7.15105 -6.5813,7.2391 -4.0107,3.72404 3.44527,-5.5862 5.15948,-11.96469 6.68,-18.28559 1.17237,-5.24591 1.95426,-10.56617 2.8788,-15.8585 0.88215,-5.59115 1.1106,-3.78598 7.67393,-8.81915 -2.17322,4.89842 -3.19927,10.17422 -4.06483,15.43006 -1.15388,7.38524 -0.84951,14.83636 0.0729,22.2191 -0.65752,0.37806 1.79003,7.13846 1.54838,7.69161 -0.0706,0.16156 -0.2826,0.2109 -0.42391,0.31636 -0.73706,0.71172 -1.47414,1.42348 -2.21121,2.1352 0,0 0.14795,-0.12397 0.14795,-0.12397 l 0,0 c -0.98069,1.32062 -1.96138,2.64123 -2.94205,3.96184 -0.32666,0.0693 -0.64798,0.24449 -0.97993,0.20814 -1.2238,-0.13403 -1.87112,-6.8156 -2.08772,-7.74214 -0.9437,-7.44969 -1.31756,-14.96924 -0.23296,-22.43479 0.8051,-5.27424 1.76705,-10.56149 3.79537,-15.5262 10.82,-10.02766 7.88263,-9.50966 6.90581,-3.60225 -0.98889,5.31951 -1.78604,10.67452 -2.92455,15.96571 -1.47762,6.36888 -3.14773,12.77255 -6.39619,18.50532 -3.04174,4.73407 -1.66118,2.84154 -8.95926,10.04844 -1.42041,1.40266 -3.50409,1.18756 -5.16047,0.48962 -3.77005,-2.09776 -6.64616,-5.24827 -8.75081,-9.01128 -3.34966,-6.51686 -5.49054,-13.50221 -6.45145,-20.77977 -0.80454,-6.99207 -1.31165,-14.11486 0.13365,-21.06622 0,0 6.82768,-5.87792 6.82768,-5.87792 z"
         id="path3817"
         style="fill:#008000;fill-opacity:1;fill-rule:nonzero;stroke:none" />
      <path
         inkscape:connector-curvature="0"
         d="m 413.24939,457.38896 c -1.36233,-2.0231 -3.47767,-4.39184 -3.46384,-7.01697 0.006,-1.17779 0.70945,-2.97618 1.09406,-4.09786 0,0 0.136,-0.13698 0.136,-0.13698 l 0,0 c 0.85101,-0.19354 2.52663,-0.65511 3.37646,-0.4756 2.12747,0.44938 3.95915,3.53498 5.35776,4.98679 0,0 -6.50044,6.74062 -6.50044,6.74062 z"
         id="path3823"
         style="fill:#008000;fill-opacity:1;fill-rule:nonzero;stroke:none" />
      <path
         inkscape:connector-curvature="0"
         d="m 388.8806,446.10004 c -1.69534,-1.81071 -4.38532,-4.12318 -4.24642,-6.92283 0.0508,-1.02552 0.50836,-1.98966 0.76257,-2.98449 0,0 0.13267,-0.14019 0.13267,-0.14019 l 0,0 c 0.95319,-0.27986 1.86851,-0.77102 2.85958,-0.83959 2.70093,-0.18682 4.97817,2.62322 6.85864,4.08014 0,0 -6.36704,6.80696 -6.36704,6.80696 z"
         id="path3825"
         style="fill:#008000;fill-opacity:1;fill-rule:nonzero;stroke:none" />
      <path
         inkscape:connector-curvature="0"
         d="m 428.60928,404.44151 c 1.84405,8.65006 3.33887,17.36957 4.86941,26.07911 1.94252,10.95155 3.6916,21.93412 5.04731,32.97397 1.11259,9.23703 1.69655,18.52428 2.22913,27.80906 0.30144,5.52429 0.60592,11.04856 1.06838,16.56205 0.14805,1.5841 0.26211,3.17101 0.38928,4.75683 -4.7007,3.32956 -7.40305,9.41653 -6.96893,5.09078 0.18645,-1.85796 0.34829,-3.71829 0.53329,-5.57644 0.53186,-6.21099 2.16292,-12.18799 4.47389,-17.95244 3.43288,-8.12347 9.74162,-13.82079 15.7633,-20.07976 2.12346,-1.75221 4.36637,-3.79708 7.27406,-3.64596 3.73719,1.29534 4.53276,5.79283 5.42402,9.1624 1.49804,7.01889 2.31308,14.15732 3.44745,21.23888 0.76117,4.4291 1.5773,8.89542 3.60513,12.94014 0.0188,0.0277 0.96243,1.41282 0.97741,1.47933 0.10093,0.44847 -0.27024,1.0121 0.006,1.37908 0.21761,0.28844 0.72135,0.0427 1.08203,0.0639 0,0 -0.11568,0.15453 -0.11568,0.15453 l 0,0 c -0.70274,0.4187 -1.42217,0.81059 -2.10822,1.25614 -2.1132,1.37237 -3.48366,2.94285 -6.08556,2.12813 -0.34172,-0.29838 -0.75289,-0.53228 -1.02516,-0.89517 -2.10384,-2.80419 -2.34538,-8.75305 -3.2504,-12.04745 -1.1334,-7.05049 -1.93975,-14.15794 -3.41164,-21.15062 -0.67725,-2.68815 -1.21084,-7.51863 -4.43993,-8.34932 -2.66889,0.34876 -4.7276,2.3746 -6.70481,4.03524 1.57627,-1.73072 3.17084,-3.44495 4.7288,-5.19219 0.55197,-0.61901 -1.16257,1.18431 -1.71034,1.80705 -2.53839,2.88566 -4.59316,6.15502 -6.19774,9.64364 -2.37482,5.66623 -4.07749,11.5525 -4.60614,17.70111 -0.82523,8.57736 1.06123,5.14517 -7.73062,13.48054 -0.0413,0.0391 -0.0408,-0.10629 -0.0612,-0.15941 -0.0889,-1.60079 -0.1987,-3.20017 -0.32786,-4.79826 -0.41412,-5.55004 -0.7047,-11.10767 -0.9881,-16.66574 -0.50345,-9.29984 -1.08293,-18.59825 -2.08774,-27.8599 -1.27034,-11.10467 -2.87747,-22.16318 -4.759,-33.18131 -1.42244,-8.79891 -2.8403,-17.60072 -4.51613,-26.35574 0,0 6.17558,-5.83223 6.17558,-5.83223 z"
         id="path3827"
         style="fill:#008000;fill-opacity:1;fill-rule:nonzero;stroke:none" />
      <path
         inkscape:connector-curvature="0"
         d="m 490.08677,460.2695 c 1.17523,8.79579 2.48772,17.57167 3.89251,26.33345 1.08734,6.47008 2.11331,12.95536 3.47437,19.37521 0.0803,0.3502 0.16164,0.70017 0.24088,1.05063 0.36952,1.63415 -0.0266,-0.0557 -0.61156,0.42627 -4.124,3.39767 -6.15876,7.41535 -3.7034,3.01713 0.35844,-0.71225 0.71687,-1.4245 1.07531,-2.13676 0,0 0.14185,-0.13089 0.14185,-0.13089 l 0,0 c 0.42801,-0.002 0.85599,-0.005 1.28399,-0.007 0.35679,10e-4 1.25063,-0.30317 1.07038,0.005 -2.03523,3.47674 -5.36903,9.76494 -6.45639,4.33346 -1.28432,-6.51236 -2.27209,-13.07911 -3.25607,-19.64221 -1.31561,-8.8394 -2.57259,-17.68732 -3.68865,-26.55443 0,0 6.53678,-6.06865 6.53678,-6.06865 z"
         id="path3829"
         style="fill:#008000;fill-opacity:1;fill-rule:nonzero;stroke:none" />
      <path
         inkscape:connector-curvature="0"
         d="m 519.2273,468.40753 c -6.86278,3.34858 -13.9746,6.14784 -21.13977,8.77255 -5.13652,1.82661 -10.32976,3.48634 -15.49319,5.23426 -4.59768,1.40599 -5.56162,3.42126 0.69103,-3.38658 0.0918,0.33503 0.18347,0.67004 0.27519,1.00507 0,0 -0.12031,0.15092 -0.12031,0.15092 l 0,0 c -0.67781,0.3753 -1.35562,0.7506 -2.03342,1.1259 3.16512,-5.49055 2.08859,-4.98774 6.93994,-6.52631 5.13817,-1.70101 10.30293,-3.3243 15.39772,-5.15347 7.16868,-2.64522 14.2883,-5.46506 21.10754,-8.92904 0,0 -5.62473,7.7067 -5.62473,7.7067 z"
         id="path3831"
         style="fill:#008000;fill-opacity:1;fill-rule:nonzero;stroke:none" />
      <path
         inkscape:connector-curvature="0"
         d="m 542.3123,470.14169 c -3.39337,6.54215 -3.34537,14.01741 -2.96931,21.18726 0.62842,6.37519 1.8177,12.85167 5.68392,18.0945 2.80091,2.95413 6.64391,3.42444 10.51194,3.43679 0.60886,-0.0751 1.22615,-0.0993 1.82658,-0.22521 1.22668,-0.25706 2.2588,-0.65804 3.27225,-1.41186 0.53742,-0.39975 1.93902,-1.84766 1.47411,-1.3655 -5.93757,6.15803 -6.09,6.82774 -3.5544,2.64734 3.1086,-6.41566 4.28381,-13.49587 5.26421,-20.49171 0.643,-4.98282 1.11169,-9.99446 1.23448,-15.01857 -0.0277,-1.74368 0.0523,-3.51031 -0.25306,-5.23551 -0.30874,-1.10006 0.1613,0.30603 0.37975,0.11055 6.4286,-5.75274 6.58272,-9.53633 6.16834,-5.37877 -0.42917,6.47704 0.16572,12.96379 0.74401,19.41146 0.68017,7.06636 1.55295,14.11772 3.0004,21.07067 1.10675,3.71229 0.55861,4.78517 -1.75652,7.79443 0,0 -0.13169,0.14109 -0.13169,0.14109 l 0,0 c -3.29168,2.48402 -4.02473,2.83934 -5.04265,-1.40386 -1.42473,-7.00811 -2.28609,-14.10986 -2.99086,-21.22341 -0.60799,-6.44767 -1.23995,-12.92305 -0.98396,-19.4076 0.20128,-3.95823 5.54546,-12.356 7.59948,-7.67362 0.34908,1.80035 0.27165,3.64618 0.28726,5.47084 -0.10251,5.06329 -0.59399,10.11109 -1.20647,15.13589 -0.92788,7.04227 -2.06863,14.14611 -4.94544,20.69715 -3.03942,5.6522 -1.3145,2.92257 -9.2684,11.18158 -1.86185,1.93329 -4.56103,2.48761 -7.12103,2.59729 -4.15432,-0.13827 -8.1906,-0.83966 -11.15388,-4.02896 -3.99159,-5.38892 -5.30707,-11.99511 -5.98507,-18.56782 -0.44521,-7.35678 -0.40038,-14.93896 2.77351,-21.7626 0,0 7.14256,-5.78184 7.14256,-5.78184 z"
         id="path3833"
         style="fill:#008000;fill-opacity:1;fill-rule:nonzero;stroke:none" />
      <path
         inkscape:connector-curvature="0"
         d="m 590.98427,468.30071 c 1.92903,7.35075 2.54149,14.97989 3.28795,22.52166 0.57425,5.81402 1.03668,11.63856 1.70203,17.44326 0.0416,0.33192 0.0767,0.6647 0.1246,0.99576 0.0419,0.28879 0.13303,0.57081 0.15334,0.86193 0.20676,2.97053 -4.45341,3.98603 -6.9381,5.62711 -0.32679,0.21583 0.11384,-0.77494 0.17081,-1.16241 0.54896,-4.32976 1.16853,-8.64728 1.92718,-12.9454 0.92373,-5.30386 2.41224,-10.46622 4.4917,-15.42692 3.14936,-6.26005 8.39099,-12.77022 14.14156,-16.4793 4.60536,-2.12263 6.65613,0.85913 8.78748,4.58472 2.78668,6.41847 4.21557,13.32236 5.62103,20.14765 0.24787,2.53386 1.61381,5.81976 0.36309,8.33164 -1.29673,2.60433 -2.66113,2.2454 -1.21936,2.48644 0,0 -0.12189,0.14964 -0.12189,0.14964 l 0,0 c -1.99063,0.0718 2.43173,-0.17317 -2.88281,1.42126 -2.01072,0.60324 -2.60164,-5.24915 -2.94308,-5.96615 -1.49485,-6.70404 -2.79958,-13.51895 -5.51344,-19.8641 -1.90623,-3.54908 -3.46981,-5.96975 -7.5798,-3.56261 -3.39362,2.53748 -1.57753,1.31367 3.69623,-4.55318 0.45163,-0.50239 -0.94493,0.96738 -1.38061,1.48365 -1.46901,1.74069 -2.64668,3.69355 -3.65831,5.7287 -2.16936,4.88532 -3.69685,9.99864 -4.63964,15.26487 -0.77182,4.26715 -1.40106,8.55496 -1.89306,12.86368 -0.54139,4.26965 -8.25938,13.0142 -7.64249,6.40505 -0.41532,-5.9181 -0.89764,-11.83136 -1.37247,-17.74489 -0.67025,-7.57446 -1.33727,-15.17859 -2.91778,-22.62876 0,0 6.23584,-5.9833 6.23584,-5.9833 z"
         id="path3835"
         style="fill:#008000;fill-opacity:1;fill-rule:nonzero;stroke:none" />
      <path
         inkscape:connector-curvature="0"
         d="m 655.01199,489.69505 c 1.49167,-4.08521 1.15456,-8.07443 -0.7824,-11.90378 -2.97395,-3.90349 -5.62064,-3.91038 -9.70156,-1.63101 -0.62987,0.57191 -2.47985,2.32849 -1.88962,1.71574 1.46539,-1.52132 2.6863,-3.39108 4.51751,-4.4439 0.93951,-0.54016 -1.17529,1.82658 -1.65517,2.79824 -1.59159,3.22271 -2.15869,6.44622 -2.57242,9.97085 0.0795,4.04796 0.22562,9.5117 3.65548,12.40475 0.40899,0.34496 0.93673,0.51736 1.4051,0.77603 2.11689,0.25346 3.7386,-0.73103 5.34177,-2.03357 0.72794,-0.59145 2.68385,-2.61651 2.06265,-1.91382 -8.70522,9.84712 -3.84702,3.86148 -2.40208,2.03051 2.86191,-3.8004 5.13613,-7.98061 7.50335,-12.09235 5.5159,-8.35893 6.90201,-11.21238 12.23749,-5.35002 5.36767,6.88497 8.70792,15.01022 11.75422,23.11262 3.29616,9.95113 5.65022,20.48985 4.37541,31.02968 -0.24711,2.04302 -0.76396,4.04431 -1.14594,6.06647 -0.66543,1.91957 -1.19103,3.89347 -1.9963,5.7587 -3.66195,8.48212 -13.23255,19.56095 -21.38604,22.97115 -1.60897,0.67296 -3.3539,0.95812 -5.03085,1.43716 -1.74524,0.064 -3.49517,0.33727 -5.23567,0.19368 -7.73481,-0.63803 -14.46248,-5.24643 -19.25484,-11.12917 -1.28718,-1.58005 -2.31659,-3.35366 -3.4749,-5.03049 -4.29368,-7.8844 -7.01672,-16.95608 -4.82627,-25.93355 0.32443,-1.32971 0.89894,-2.58563 1.34841,-3.87845 2.98675,-5.33356 8.91107,-13.89538 15.61976,-14.45841 2.18761,-0.1836 2.85269,0.34776 4.80366,1.13395 3.44038,2.15979 3.39518,2.93812 3.72702,6.82273 0,0 -0.13197,0.14086 -0.13197,0.14086 l 0,0 c -2.94956,0.01 -5.6806,-0.29571 -8.54522,-1.05545 -2.81478,-0.0564 -5.42959,-0.0232 -8.00998,1.30905 -0.84545,0.43649 -2.84498,2.41603 -2.3692,1.59205 1.02539,-1.77579 2.44758,-3.37141 4.09875,-4.58735 0.97039,-0.7146 -1.31896,2.01732 -1.97846,3.02596 -0.49362,1.25411 -1.11473,2.46527 -1.48086,3.76234 -2.46756,8.7414 0.12604,17.70722 4.27133,25.46324 1.12341,1.64064 2.11774,3.37758 3.37024,4.92193 4.62168,5.69856 11.16776,10.14204 18.67712,10.5709 1.686,0.0963 3.37018,-0.22217 5.05527,-0.33325 1.61698,-0.51996 3.30626,-0.85353 4.85096,-1.55986 1.59934,-0.73132 2.77696,-2.97156 4.51812,-2.72427 1.24113,0.17628 -3.06174,3.95927 -2.19423,3.05432 4.15083,-4.33002 6.77362,-9.67827 8.54112,-15.34931 0.41069,-1.99223 0.9578,-3.96113 1.23203,-5.97669 1.41769,-10.42009 -0.86633,-20.8741 -4.12577,-30.7247 -3.00463,-7.97348 -6.30198,-15.9741 -11.63821,-22.71472 -0.65659,-0.70547 -1.40894,-1.66818 -2.29627,-2.16933 -0.8187,-0.46241 -1.21405,0.21961 -1.1181,0.11043 8.47178,-9.6404 7.37326,-8.29741 5.18595,-5.53881 -2.45232,4.1093 -4.65446,8.3777 -7.49911,12.2431 -4.04929,5.38315 -2.62819,3.68268 -10.44063,11.66216 -2.25081,2.29892 -5.1004,4.05618 -8.37598,3.2535 -0.54263,-0.33446 -1.14751,-0.58439 -1.62787,-1.00338 -3.58086,-3.12322 -3.98127,-8.65377 -4.13753,-13.01702 1.08966,-10.70429 4.96381,-17.07049 14.24685,-23.89758 4.80762,-2.0599 7.37357,-1.37884 10.60518,2.77961 2.11132,4.00813 2.65086,8.22327 1.15641,12.58236 0,0 -6.83771,5.75615 -6.83771,5.75615 z"
         id="path3837"
         style="fill:#008000;fill-opacity:1;fill-rule:nonzero;stroke:none" />
    </g>
    <g
       id="g4954"
       transform="translate(-300.95125,133.89617)">
      <path
         inkscape:connector-curvature="0"
         d="m 759.16042,470.46041 c -0.4437,6.44314 -0.37809,12.90743 -0.25249,19.36017 0.0722,5.7896 0.54587,11.5545 1.18104,17.30522 0.55952,4.13035 0.56781,5.9739 -1.3957,9.67431 0,0 -0.12228,0.14934 -0.12228,0.14934 l 0,0 c -0.60915,0.4091 -1.15028,0.94465 -1.82741,1.2273 -2.24122,0.93554 -2.67087,-2.96038 -3.04835,-4.19142 -0.93035,-5.72439 -1.15628,-11.5269 -1.31851,-17.31738 -0.13441,-6.44395 -0.19088,-12.89354 0.10714,-19.33425 0,0 6.67661,-6.87329 6.67661,-6.87329 z"
         id="path3839"
         style="fill:#000000;fill-opacity:1;fill-rule:nonzero;stroke:none" />
      <path
         inkscape:connector-curvature="0"
         d="m 753.80012,456.92059 c -0.41571,-4.70169 -0.009,-9.35101 2.11119,-13.59853 4.41559,-5.7032 7.12725,-12.39682 14.3412,-7.93459 3.60891,3.2971 2.96737,7.53694 1.27944,11.64124 -3.62153,5.73241 -7.75777,12.68189 -14.5242,15.04724 -2.79938,0.50578 -4.04848,-1.4073 -4.36675,-3.90486 0.32065,-4.90763 5.22159,-10.7358 8.80031,-12.73605 0.62736,-0.15816 1.90772,-0.83151 2.42258,-0.12758 0,0 -5.2102,7.17567 -5.2102,7.17567 l 0,0 c -0.40492,0.67387 -1.75769,0.45732 -2.21372,1.15235 -2.87403,2.3178 -0.58242,0.54837 4.64061,-6.21995 0.20864,-0.27036 -0.47351,0.49497 -0.675,0.77071 -0.65551,0.897 -1.0302,1.91808 -1.17413,3.01499 -0.0191,2.00636 0.59265,3.49535 2.88693,2.91628 1.22679,-0.4953 1.44676,-0.51043 2.60368,-1.32255 2.39811,-1.68333 7.68099,-7.80002 -1.08302,2.52772 -0.52787,0.62204 0.91027,-1.35412 1.36542,-2.0312 1.77568,-3.62 3.15762,-7.7821 -0.14052,-10.99177 -1.37238,-0.85102 -2.54585,-1.47588 -4.22459,-1.07696 -1.75208,0.41633 -2.73701,1.75828 -2.59017,1.53655 1.24208,-1.87551 2.7458,-3.56399 4.1187,-5.34599 -2.46963,4.11567 -3.11418,8.756 -2.73547,13.5147 0,0 -5.63233,5.99258 -5.63233,5.99258 z"
         id="path3841"
         style="fill:#000000;fill-opacity:1;fill-rule:nonzero;stroke:none" />
      <path
         inkscape:connector-curvature="0"
         d="m 786.63776,463.80704 c -0.64156,9.1492 -0.0854,18.32594 0.52769,27.45979 0.63454,8.12631 1.39707,16.2467 2.56805,24.3148 0.24372,1.44896 0.29282,1.86207 0.57576,3.17527 0.0574,0.26641 0.12092,0.53153 0.19015,0.79512 0.0327,0.12476 0.2386,0.33141 0.11531,0.36929 -0.1364,0.0419 -0.1849,-0.41374 -0.28882,-0.31595 -2.09603,1.97217 -3.99135,4.14732 -5.98704,6.22099 0.70329,-4.9408 1.31707,-9.89189 2.09119,-14.82305 1.07584,-6.94328 3.00569,-13.6787 5.83329,-20.10243 3.47896,-6.17801 7.33747,-13.34154 14.21817,-15.98804 3.48723,-0.99317 6.97065,-0.37207 10.33351,0.74456 5.31774,2.17083 6.48188,7.30554 7.33725,12.46336 0.75362,7.28126 0.27519,14.60831 0.0356,21.90373 0.11299,1.05477 -0.58706,5.94977 0.77734,6.53314 0.23712,0.10142 0.51003,0.0767 0.76503,0.11495 2.52003,0.0524 4.93032,-0.82453 7.43125,-0.98615 1.68467,-0.10885 2.74318,0.0574 4.41179,0.21497 1.88112,1.73006 0.82109,1.07176 3.17036,1.99048 0,0 -0.10946,0.15899 -0.10946,0.15899 l 0,0 c -4.08783,1.25576 -1.93492,0.39143 -6.36858,2.80718 -4.55247,1.74076 -9.21389,3.93265 -14.21038,3.55502 -3.56799,-1.22238 -2.37965,-4.44091 -2.45928,-7.55421 0.2773,-7.25936 0.78556,-14.54585 0.11641,-21.79888 -0.7213,-4.79592 -1.55868,-9.76075 -6.58535,-11.72926 -3.20784,-1.00144 -6.52829,-1.52514 -9.77639,-0.34303 -1.2693,0.61048 -1.56638,0.66387 -2.68556,1.57693 -0.46399,0.37854 -1.65482,1.71814 -1.3119,1.22723 8.78454,-12.57618 3.38575,-4.17814 1.75538,-1.4565 -2.94252,6.3385 -4.92878,13.02041 -6.02123,19.93085 -0.77745,4.90287 -1.41296,9.82286 -1.99272,14.75273 -6.8721,9.07213 -6.56813,11.48618 -7.8417,3.52295 -1.12533,-8.15283 -1.88085,-16.35183 -2.43216,-24.56266 -0.58718,-9.17981 -1.12267,-18.39449 -0.59637,-27.59138 0,0 6.41339,-6.58081 6.41339,-6.58081 z"
         id="path3843"
         style="fill:#000000;fill-opacity:1;fill-rule:nonzero;stroke:none" />
    </g>
    <g
       id="g4886"
       style="fill:#ff6600"
       transform="translate(-14.880366,98.155854)">
      <path
         inkscape:connector-curvature="0"
         d="m 308.64893,625.28901 c -3.51767,-1.97758 -7.06066,-3.91401 -10.74194,-5.57134 -1.90574,-0.84626 -3.87415,-1.57672 -5.93882,-1.90546 -1.79503,-0.25253 -3.56554,0.11113 -5.28546,0.60077 -2.80757,0.82375 -5.29699,2.35451 -7.67254,4.01998 2.39668,-3.05597 -6.99953,6.4536 -4.23778,3.72864 10.58971,-10.44869 5.23845,-5.24793 3.05586,-2.39717 -2.24389,3.06632 -3.98061,6.45245 -5.56239,9.89492 -1.7134,3.63949 -2.90421,7.465 -3.76232,11.38543 -1.09578,5.25185 -0.94595,10.60164 -0.45083,15.90786 0.65103,6.2969 2.64548,12.26847 5.16183,18.03628 2.60481,5.76888 6.35342,10.84203 10.50867,15.57051 3.3412,3.85837 7.41877,6.72907 11.987,8.92137 4.31136,1.90843 8.88591,3.10148 13.4631,4.17262 3.63704,0.80285 7.31132,1.60725 11.05125,1.31579 3.53239,-0.77902 9.32477,-6.51456 -3.25613,4.60073 -0.37126,0.32799 0.58571,-0.80423 0.81063,-1.24561 0.27549,-0.54062 0.45585,-1.12466 0.68378,-1.68699 1.41287,-4.91888 1.63335,-10.08335 1.88404,-15.16711 0.0824,-3.22406 0.42418,-6.51944 -0.46384,-9.66147 -0.88453,-2.22003 -2.88302,-3.59825 -4.78717,-4.89678 -1.89755,-1.27314 -3.96362,-2.21526 -6.14631,-2.86843 -0.95556,-0.37362 -2.11434,-0.12403 -3.03394,-0.58484 2.4234,-2.54736 4.71054,-5.23166 7.27018,-7.64208 0.20776,-0.19564 0.5707,-0.006 0.85605,-0.0102 2.20464,-0.0299 4.38644,-0.20372 6.58043,-0.41802 5.1898,-0.69119 10.36894,-1.42735 15.57468,-1.99251 0.74256,-0.0115 1.48514,-0.0224 2.22771,-0.0335 0.54971,0.14694 1.08089,0.41119 1.64914,0.44082 0.64448,0.0336 1.27949,-0.16984 1.91924,-0.25477 0,0 -0.12608,0.1582 -0.12608,0.1582 l 0,0 c -3.42087,1.71748 -6.62726,3.80614 -10.18393,5.2488 -5.66304,2.06688 -11.43641,3.66696 -17.48099,4.09727 -1.84249,0.17355 -3.6761,0.3227 -5.52534,0.39665 -0.38159,0.0153 -0.76355,0.0206 -1.14502,0.0383 -0.27477,0.0128 -0.98084,0.27901 -0.82348,0.0534 1.84062,-2.63911 4.02566,-5.02047 6.03849,-7.53072 0.98882,0.14946 1.98726,0.29695 2.94599,0.59351 2.27029,0.69756 4.39313,1.76336 6.37059,3.07955 2.08606,1.43957 4.21091,2.9823 5.26713,5.37072 1.06271,3.2235 0.7568,6.62736 0.63522,9.97286 -0.24555,5.1451 -0.47338,10.34366 -1.66823,15.3726 -1.79069,5.68452 -6.45342,11.43844 -12.55508,12.23708 -3.80659,0.0907 -7.53431,-0.69224 -11.22977,-1.54211 -4.63621,-1.1122 -9.27241,-2.33811 -13.62627,-4.31925 -4.66088,-2.29219 -8.82694,-5.2668 -12.24669,-9.22359 -4.21518,-4.80767 -8.03218,-9.95498 -10.71158,-15.7979 -2.58609,-5.83787 -4.65062,-11.88275 -5.37874,-18.26328 -0.56167,-5.36445 -0.79009,-10.7785 0.222,-16.1119 0.78916,-3.97548 1.90881,-7.86689 3.62014,-11.55418 1.57393,-3.50623 3.29834,-6.95757 5.50152,-10.11851 4.19239,-5.74578 9.36591,-10.79832 15.02686,-15.08896 2.45916,-1.60464 5.03599,-3.04627 7.90883,-3.76506 1.83744,-0.39158 3.69468,-0.65785 5.56148,-0.27058 2.09161,0.48469 4.11184,1.19373 6.04702,2.13163 3.65631,1.75012 7.2025,3.71201 10.7615,5.65012 0,0 -6.5497,6.92609 -6.5497,6.92609 z"
         id="path3845"
         style="fill:#ff6600;fill-opacity:1;fill-rule:nonzero;stroke:none" />
      <path
         inkscape:connector-curvature="0"
         d="m 368.73797,664.2609 c 1.71885,6.26557 3.00223,12.64133 4.2834,19.00781 1.05167,5.18355 1.86759,10.40872 2.51783,15.65641 0.28039,4.70484 -0.90385,3.76531 -5.44653,7.37211 1.63345,-2.50829 0.89907,-1.24156 2.21895,-3.79102 0,0 0.15552,-0.12936 0.15552,-0.12936 l 0,0 c 0.95491,0.72457 0.38424,0.51964 1.76916,0.42314 -3.66545,3.83515 -5.42246,7.96374 -6.24324,2.72198 -0.56489,-5.25288 -1.35779,-10.47693 -2.39051,-15.65925 -1.27382,-6.40368 -2.72104,-12.76872 -4.05584,-19.15956 0,0 7.19126,-6.44226 7.19126,-6.44226 z"
         id="path3847"
         style="fill:#ff6600;fill-opacity:1;fill-rule:nonzero;stroke:none" />
      <path
         inkscape:connector-curvature="0"
         d="m 362.30282,647.42059 c -0.57837,-1.81897 -2.38944,-6.89616 -0.873,-8.61955 2.15996,-2.45469 4.5927,-4.65517 6.88904,-6.98276 4.32471,-0.86206 7.58586,2.43244 10.07036,5.52046 2.81812,4.39458 2.76488,7.83324 -0.45011,11.90686 -6.83802,6.55668 -10.99524,13.1239 -19.80139,7.01977 -4.10185,-5.16494 -1.59867,-9.40479 1.14669,-14.51306 0,0 0.15715,-0.12735 0.15715,-0.12735 l 0,0 c 1.30335,3.07662 -0.43168,-0.46889 1.89609,2.46187 1.27947,1.6109 1.82463,3.8336 3.73334,4.97893 2.66003,1.76798 4.85676,2.42587 8.02931,1.36447 0.69736,-0.23331 2.41303,-1.53878 2.00047,-0.93005 -1.44082,2.12589 -3.47615,3.78125 -5.21424,5.67189 3.44318,-3.47229 4.10341,-6.72725 1.57508,-11.07423 -1.85771,-2.46309 -4.80976,-6.42634 -8.34563,-5.2184 1.69732,-1.8039 3.30066,-3.70107 5.09194,-5.4117 0.32388,-0.3093 -0.51398,0.74821 -0.65404,1.17358 -0.78004,2.36907 0.12519,5.01185 0.71513,7.2983 0,0 -5.96619,5.48097 -5.96619,5.48097 z"
         id="path3849"
         style="fill:#ff6600;fill-opacity:1;fill-rule:nonzero;stroke:none" />
      <path
         inkscape:connector-curvature="0"
         d="m 403.16329,619.68182 c 0.34076,9.06464 0.94945,18.10686 1.84167,27.13342 1.17174,10.90611 3.18301,21.70412 6.49053,32.16536 1.96084,5.85345 4.91355,11.10992 10.15587,14.50675 3.98221,2.0327 8.1845,1.15025 12.34478,0.31471 1.85122,-0.11587 4.50781,-1.67315 2.94934,1.37101 0,0 -0.12173,0.16158 -0.12173,0.16158 l 0,0 c -2.5349,2.72877 -5.21329,4.88292 -8.87784,5.90166 -4.45423,1.23917 -8.97572,1.72852 -13.21402,-0.54507 -5.36846,-3.61396 -8.52727,-8.97169 -10.54449,-15.07169 -3.34359,-10.58887 -5.17457,-21.54813 -6.32419,-32.58329 -0.88015,-9.095 -1.45039,-18.21073 -1.65217,-27.34766 0,0 6.9522,-6.00678 6.9522,-6.00678 z"
         id="path3851"
         style="fill:#ff6600;fill-opacity:1;fill-rule:nonzero;stroke:none" />
      <path
         inkscape:connector-curvature="0"
         d="m 416.60239,654.20738 c -7.45604,-1.21079 -14.99938,-1.24695 -22.51692,-0.79462 -5.04029,-0.14274 -10.12338,2.11899 -15.15004,1.38096 -0.83237,-0.9927 0.26112,-1.52352 0.90491,-2.58792 0,0 0.12314,-0.16052 0.12314,-0.16052 l 0,0 c 1.30934,-1.32234 2.27283,-2.54356 3.96179,-3.31053 5.28465,-2.00985 10.94957,-2.4323 16.54536,-2.88322 7.47781,-0.38761 15.04504,-0.4818 22.36198,1.36897 0,0 -6.23016,6.98688 -6.23016,6.98688 z"
         id="path3853"
         style="fill:#ff6600;fill-opacity:1;fill-rule:nonzero;stroke:none" />
    </g>
    <path
       style="fill:#000000;fill-opacity:1;fill-rule:nonzero;stroke:none"
       id="path3855"
       d="m 516.29963,701.17974 c -5.4678,5.6342 -10.547,11.60474 -15.28852,17.85753 -8.3936,11.77673 -15.12976,24.61736 -22.10076,37.25779 -6.22412,11.37178 -12.7938,22.54973 -19.86612,33.41458 -1.5312,2.32584 -3.15676,4.58807 -4.67992,6.91924 -0.18541,0.28375 -0.68222,1.30723 -1.04159,1.59209 -0.97722,-0.97034 -0.57886,-0.62954 -0.85353,0.29437 -0.38945,0.99638 -0.53442,0.90698 0.33707,0.38397 0,0 -0.12008,0.16285 -0.12008,0.16285 l 0,0 c -1.99262,1.99067 -0.93702,0.88895 -3.14029,3.33037 -0.35098,0.3599 -2.37406,3.0868 -3.22538,2.78476 -0.29879,-0.10603 -0.52721,-0.35229 -0.79083,-0.52843 -0.25467,-1.87789 5.03419,-7.23591 5.65171,-8.97671 7.17628,-10.85811 13.80884,-22.05984 20.06523,-33.47239 6.96256,-12.63627 13.64172,-25.49874 21.95335,-37.32125 4.83798,-6.41213 10.03699,-12.51916 15.65327,-18.26801 0,0 7.44633,-5.43076 7.44633,-5.43076 z"
       inkscape:connector-curvature="0" />
    <g
       id="g4121"
       transform="matrix(0.66694284,0,0,0.66694284,303.52353,312.6787)">
      <path
         transform="translate(0,284.3623)"
         inkscape:connector-curvature="0"
         d="m 530.55448,676.09207 c -4.62263,6.01894 -8.61923,12.49459 -12.69209,18.89007 -6.68935,10.52036 -13.06372,21.23416 -19.23672,32.06408 -2.70123,4.92096 -5.49519,9.80803 -7.88885,14.89024 -0.0539,0.12076 -0.0694,0.26755 -0.16167,0.36228 -0.0581,0.0597 -0.0137,-0.18917 0.0478,-0.24537 0.18478,-0.16875 0.43709,-0.24513 0.64377,-0.38622 0.31972,-0.21826 0.58064,-0.53183 0.93369,-0.69062 0.14853,-0.0668 -0.18886,0.26539 -0.28328,0.39809 0.76742,-0.78202 1.53485,-1.56404 2.30227,-2.34607 0.55049,-0.69068 1.10098,-1.38136 1.65147,-2.07204 0,0 0.127,-0.0946 0.127,-0.0946 l 0,0 c -0.51872,0.66761 -1.03743,1.33521 -1.55615,2.00282 -1.10234,1.60525 -5.29237,6.57657 -7.22257,7.39006 -0.90126,0.37984 -0.97579,0.11932 -1.44823,-0.34057 0.23662,-1.56779 1.06376,-2.92449 1.78259,-4.32367 1.79802,-3.4998 3.69145,-6.94938 5.63609,-10.36969 6.23796,-10.86312 12.63719,-21.63384 19.36443,-32.20266 4.18761,-6.55326 8.32591,-13.16923 13.10857,-19.31176 0,0 4.89189,-3.61438 4.89189,-3.61438 z"
         id="path4085"
         style="fill:#000000;fill-opacity:1;fill-rule:nonzero;stroke:none" />
      <path
         transform="translate(0,284.3623)"
         inkscape:connector-curvature="0"
         d="m 532.35862,680.28081 c 1.61913,5.43285 3.0676,10.91728 4.59209,16.37796 2.13885,7.507 4.40829,14.97604 6.81114,22.40258 1.20126,3.77644 2.56964,7.49863 3.74429,11.28339 0.50356,1.71799 1.00923,3.45365 1.23241,5.23462 -0.0182,2.05586 -3.16821,3.36338 -4.37134,4.10797 -0.34869,0.2158 0.27496,-0.94169 1.14175,-2.66316 0,0 0.1163,-0.10747 0.1163,-0.10747 l 0,0 c 1.40812,-0.41559 2.33867,-0.72588 2.14293,-0.45943 -0.77941,1.06095 -2.80846,5.60238 -4.2648,3.80034 -0.57418,-1.6415 -0.80928,-3.38324 -1.3725,-5.03024 -1.21307,-3.78454 -2.4874,-7.54934 -3.67943,-11.34072 -2.33094,-7.49713 -4.6469,-15.00111 -6.64223,-22.59637 -1.46201,-5.58747 -2.85996,-11.19203 -4.05009,-16.84469 0,0 4.59948,-4.16478 4.59948,-4.16478 z"
         id="path4087"
         style="fill:#000000;fill-opacity:1;fill-rule:nonzero;stroke:none" />
      <path
         transform="translate(0,284.3623)"
         inkscape:connector-curvature="0"
         d="m 531.97763,718.66496 c -4.47515,-0.025 -8.91063,0.6133 -13.32858,1.24985 -4.38782,0.66352 -8.79432,1.24515 -13.23684,1.29084 -1.97189,-0.25582 -3.45299,0.26347 -1.99952,-2.0562 0,0 0.86032,-1.01319 0.86032,-1.01319 l 0,0 c 1.68917,-1.58211 3.41771,-2.22112 5.74864,-2.40153 4.49533,-0.53673 9.00568,-0.95582 13.47958,-1.66394 4.35686,-0.59348 8.77613,-1.30281 13.17945,-0.82128 0,0 -4.70305,5.41545 -4.70305,5.41545 z"
         id="path4089"
         style="fill:#000000;fill-opacity:1;fill-rule:nonzero;stroke:none" />
      <path
         transform="translate(0,284.3623)"
         inkscape:connector-curvature="0"
         d="m 561.0537,703.68172 c 0.9704,5.82445 1.89654,11.65614 2.85089,17.48321 0.65633,4.19878 1.44946,8.37452 2.11974,12.57092 0.44604,2.41609 -0.63111,2.23348 -2.94713,4.0497 0.17319,-0.30216 0.34637,-0.60432 0.51955,-0.90648 0,0 0.1193,-0.10414 0.1193,-0.10414 l 0,0 c 0.20361,-0.0211 0.40722,-0.0423 0.61083,-0.0634 -2.04403,2.08698 -2.9958,4.35656 -3.46227,1.58135 -0.73887,-4.21542 -1.36089,-8.45035 -2.007,-12.68064 -0.8752,-5.91154 -1.68282,-11.83269 -2.54562,-17.74595 0,0 4.74171,-4.18456 4.74171,-4.18456 z"
         id="path4091"
         style="fill:#000000;fill-opacity:1;fill-rule:nonzero;stroke:none" />
      <path
         transform="translate(0,284.3623)"
         inkscape:connector-curvature="0"
         d="m 560.88676,727.0543 c -0.46479,-3.57558 0.1845,-6.91116 1.79972,-10.09809 3.4198,-4.81353 7.57507,-8.85934 13.18398,-10.77696 3.45612,-1.0661 6.79159,-0.66376 10.07217,0.70501 3.49499,1.6935 5.57111,4.60546 6.87184,8.16143 0.95755,3.27532 0.47553,6.57749 -0.22173,9.83963 -0.63114,2.13457 -0.85555,4.42599 -1.92232,6.39705 -1.21505,1.48882 -1.06183,0.80841 -1.19406,1.71818 0,0 -0.10808,0.11573 -0.10808,0.11573 l 0,0 c -0.94696,0.25352 -0.31109,0.0457 -1.81123,0.86434 -0.1942,-0.0274 -0.43243,0.044 -0.58261,-0.0822 -0.64832,-0.54456 0.14291,-3.90051 0.23202,-4.60153 0.64169,-3.14028 1.26645,-6.33306 0.4204,-9.50666 -1.15355,-3.39007 -3.08619,-6.19407 -6.38924,-7.81047 -3.17258,-1.26196 -6.34725,-1.57769 -9.63499,-0.43475 -1.40583,0.54462 -1.85597,0.65767 -3.17239,1.41579 -0.5017,0.28892 -1.79531,1.41579 -1.45631,0.94647 0.9743,-1.34885 2.30811,-2.39885 3.40754,-3.64781 0.77515,-0.88059 -3.3651,3.2635 -2.37572,2.59665 -1.82544,3.08759 -2.60619,6.4427 -2.34948,10.04467 0,0 -4.76951,4.1535 -4.76951,4.1535 z"
         id="path4093"
         style="fill:#000000;fill-opacity:1;fill-rule:nonzero;stroke:none" />
      <path
         transform="translate(0,284.3623)"
         inkscape:connector-curvature="0"
         d="m 613.57374,720.57079 c 0.56822,-2.8267 0.0872,-5.38515 -1.66865,-7.65774 -2.24163,-2.24676 -5.02727,-2.27253 -7.88841,-1.40039 -0.50026,0.25681 -1.02602,0.46907 -1.50077,0.77044 -0.5122,0.32513 -1.84699,1.55937 -1.44864,1.1018 0.95325,-1.09499 1.93132,-2.20863 3.12791,-3.03075 0.59595,-0.40946 -0.89734,1.13854 -1.27302,1.75633 -1.11698,1.83683 -1.2536,2.58327 -1.97584,4.63645 -1.56494,5.53476 -1.03895,11.08536 0.83193,16.44304 1.24721,2.6067 3.13546,6.48585 6.64226,6.24449 0.60852,-0.0419 1.18383,-0.29453 1.77575,-0.4418 -0.27646,1.38301 5.0662,-4.16124 4.06854,-2.84171 -0.77546,1.02564 -1.51342,2.77448 -2.79406,2.65947 -1.15128,-0.1034 1.48089,-1.77783 2.15493,-2.71687 1.83192,-2.55216 2.20799,-3.47561 3.68807,-6.24378 2.87316,-5.81855 4.38142,-12.11593 5.43373,-18.47831 0.76248,-4.85526 0.65753,-9.76204 0.3597,-14.64782 -0.16773,-2.60083 -0.473,-5.187 -0.85127,-7.76428 -0.25207,-2.58278 -0.7012,-0.57653 5.06973,-4.54615 0.1514,-0.10415 0.0223,0.36698 0.0249,0.55073 0.009,0.63885 -0.0178,0.94295 -0.0506,1.60404 -0.24993,3.38855 -0.37358,6.7831 -0.48339,10.17848 -0.26655,6.9425 0.23913,13.87172 0.96214,20.77077 0.66401,6.20083 1.85478,12.32383 3.16419,18.41522 0.0826,1.88495 1.66926,4.2878 0.76141,6.1501 -1.17635,0.64744 -0.3317,0.1433 -2.32683,1.81498 0,0 0.11939,-0.10401 0.11939,-0.10401 l 0,0 c -1.91136,2.42122 -0.88792,1.92814 -2.34365,2.47433 -1.36678,0.002 -1.51659,-4.36624 -1.88565,-5.28253 -1.24658,-6.14961 -2.46765,-12.31279 -3.1177,-18.5604 -0.69557,-6.95522 -1.19455,-13.93744 -0.92979,-20.93301 0.13653,-3.50489 0.34329,-7.00911 0.80477,-10.48855 0.0901,-0.86146 2.04725,-17.73764 5.30217,-6.50138 0.36625,2.62543 0.52083,5.27783 0.75604,7.91656 0.32462,4.85402 0.58044,9.73982 -0.0556,14.58259 -0.93394,6.39538 -2.43069,12.70865 -5.20241,18.58409 -3.91025,7.59813 -9.31306,15.27252 -17.23792,19.02599 -0.67389,0.10723 -1.33934,0.32886 -2.02166,0.32169 -3.80089,-0.04 -5.88072,-3.85767 -7.13238,-6.87941 -1.70957,-5.66382 -2.13534,-11.47198 -0.56837,-17.24764 2.06486,-6.24003 5.68113,-11.56046 12.11286,-14.17539 3.10567,-0.66094 5.92017,-0.28295 8.22286,2.09643 1.85121,2.40743 2.54208,5.06674 1.95295,8.09041 0,0 -4.57969,3.75349 -4.57969,3.75349 z"
         id="path4095"
         style="fill:#000000;fill-opacity:1;fill-rule:nonzero;stroke:none" />
      <path
         transform="translate(0,284.3623)"
         inkscape:connector-curvature="0"
         d="m 639.01667,734.04605 c -0.29296,-4.41313 -1.11262,-8.76815 -1.95021,-13.10388 -0.66193,-3.19171 -1.23007,-6.40275 -1.93905,-9.58464 -1.02245,-3.63484 3.56134,-6.60402 6.93503,-7.16775 2.78988,-0.4053 5.60536,-0.0782 8.37811,0.29259 4.19705,0.64757 8.33784,1.59569 12.43519,2.70242 1.07906,0.42658 5.26708,1.38022 5.63331,2.76563 0.0788,0.29801 -0.0503,0.61443 -0.0755,0.92165 -0.1032,0.33004 -0.2064,0.66008 -0.3096,0.99011 0,0 -0.10567,0.11793 -0.10567,0.11793 l 0,0 c -0.41847,0.25352 -0.83693,0.50704 -1.2554,0.76056 -0.44086,0.2113 -0.85802,0.48162 -1.32258,0.6339 -2.3974,0.78586 -5.17804,-0.34048 -7.54103,-0.64174 -4.1389,-0.93505 -8.27412,-1.91564 -12.47723,-2.52411 -2.68583,-0.32966 -5.42353,-0.65647 -8.11682,-0.21168 -0.41,0.10401 -1.48541,0.71114 -1.20649,0.39316 8.43251,-9.61359 4.35718,-6.37878 4.40898,-3.78687 0.39714,3.28733 1.08894,6.52948 1.68908,9.78362 0.84516,4.30684 1.74474,8.6115 2.21858,12.97934 0,0 -5.39872,4.67976 -5.39872,4.67976 z"
         id="path4097"
         style="fill:#000000;fill-opacity:1;fill-rule:nonzero;stroke:none" />
      <path
         transform="translate(0,284.3623)"
         inkscape:connector-curvature="0"
         d="m 674.80646,719.15968 c 2.79984,0.81176 5.59191,0.95932 8.44766,0.45169 2.64346,-0.59106 4.96819,-1.88871 7.0214,-3.61953 -7.51586,7.40695 -2.6436,3.34124 -2.11082,0.85867 0.20885,-0.97317 0.0921,-1.15915 -0.0492,-2.13387 -0.93577,-2.88529 -3.31619,-3.52413 -6.07218,-3.27657 -1.89799,0.41922 -3.63143,1.28706 -5.14878,2.50292 -0.58621,0.46973 -2.20826,2.03756 -1.65032,1.53459 3.81041,-3.43507 4.16881,-4.37019 2.06203,-1.07006 -2.54664,4.73376 -2.57652,9.8821 -1.68693,15.0414 0.91286,3.91129 2.55593,7.58368 6.13147,9.63796 1.5147,0.63388 3.1221,0.34353 4.70913,0.4349 2.17451,0.12518 2.90536,0.24442 5.12543,-0.22107 0,0 -0.0987,0.1238 -0.0987,0.1238 l 0,0 c -4.71694,2.15876 -9.17562,5.75783 -14.58545,4.84199 -0.54006,-0.22897 -1.11836,-0.38315 -1.62018,-0.6869 -3.15629,-1.91047 -4.26844,-5.95615 -5.18004,-9.2516 -0.93032,-5.35963 -0.94049,-10.70776 1.62368,-15.66622 2.71393,-4.48183 1.18558,-2.30337 7.55281,-8.65998 1.88534,-1.88219 4.3323,-3.09413 6.94965,-3.50054 3.17987,0.0228 5.37694,0.88374 6.65759,3.97847 1.2619,5.12324 -3.06891,7.32521 -6.51934,10.7758 -2.18947,1.69658 -4.63279,2.9797 -7.37681,3.51195 -2.90624,0.40559 -5.77011,0.15802 -8.57994,-0.72627 0,0 4.39785,-4.88153 4.39785,-4.88153 z"
         id="path4099"
         style="fill:#000000;fill-opacity:1;fill-rule:nonzero;stroke:none" />
      <path
         transform="translate(0,284.3623)"
         inkscape:connector-curvature="0"
         d="m 719.74333,722.18632 c 0.64203,-3.18103 0.2324,-6.27348 -1.00098,-9.2406 -1.59834,-3.14928 -4.25015,-4.59096 -7.67007,-4.83141 -0.55104,0.062 -1.11118,0.0685 -1.65313,0.18589 -1.17749,0.25497 -2.3083,0.74556 -3.2961,1.43667 -0.53175,0.37204 -1.94937,1.71344 -1.47738,1.26802 3.92792,-3.70683 3.78991,-3.94402 2.04827,-0.89152 -2.18394,5.04305 -1.72957,10.35868 -0.23762,15.50191 0.78298,1.74998 1.97207,6.33044 4.80122,5.71161 0.4162,-0.091 0.77524,-0.3536 1.16286,-0.53041 0.40969,-0.34243 1.60353,-1.40794 1.22907,-1.02729 -0.98049,0.99671 -1.86796,2.13289 -3.05048,2.87883 -0.61632,0.38878 0.88629,-1.15842 1.28749,-1.76672 1.23777,-1.87676 2.16233,-3.90631 3.08471,-5.94768 1.15748,-2.66331 2.1205,-5.40403 3.06182,-8.14921 0.1873,-2.09793 5.38249,-7.73939 5.17544,-3.70284 -0.29404,3.71336 0.21109,7.41206 0.87635,11.05657 0.29415,3.49388 2.744,7.21052 3.12132,10.59234 0.0855,0.7665 -0.032,1.54217 -0.0479,2.31326 0,0 -0.11167,0.11227 -0.11167,0.11227 l 0,0 c -0.80404,0.0238 -1.62657,0.24439 -2.41211,0.0713 -3.31568,-0.73063 -4.54876,-6.23422 -5.2742,-8.90009 -0.71175,-3.69907 -1.29479,-7.46278 -0.92165,-11.23943 0.36184,-3.18823 6.3792,-8.12676 4.44214,-4.17947 -0.91458,2.78649 -1.93287,5.54001 -3.07962,8.23963 -2.57582,5.81253 -5.73649,11.17573 -11.38481,14.69104 -0.48679,0.14975 -0.95402,0.39461 -1.46039,0.44926 -3.29823,0.35593 -4.7048,-3.71668 -5.57074,-6.10187 -1.38141,-5.34815 -1.92521,-10.83037 0.15856,-16.09774 2.24177,-4.38676 0.94886,-2.34841 6.9345,-8.23818 1.78911,-1.76045 4.25019,-2.41935 6.68727,-2.42965 3.55305,0.48219 6.32305,2.15496 8.01451,5.41663 1.34753,3.13355 1.80753,6.3453 1.01447,9.71123 0,0 -4.45113,3.63766 -4.45113,3.63766 z"
         id="path4101"
         style="fill:#000000;fill-opacity:1;fill-rule:nonzero;stroke:none" />
      <path
         transform="translate(0,284.3623)"
         inkscape:connector-curvature="0"
         d="m 743.30997,718.78828 c 0.11149,-1.87694 0.20189,-3.94268 -1.65626,-4.91214 -2.4094,-0.35123 -4.64766,0.83044 -6.60737,2.10033 -1.15748,0.95833 -4.83809,4.04546 2.41054,-2.46728 0.26047,-0.23402 -0.43139,0.69902 -0.27699,1.0133 0.27556,0.56086 1.13895,1.02146 1.56649,1.31458 4.50712,2.09946 8.87661,4.32852 12.89313,7.27694 4.77089,4.15287 6.66247,7.35392 6.83431,13.69348 -0.29722,2.76809 -1.02843,5.69043 -3.12981,7.68109 -5.77716,5.47274 -3.24946,5.04452 -7.2394,5.22564 -2.7065,-1.0202 -2.80562,-2.38867 -3.72806,-4.92195 -0.34247,-0.94053 -0.72677,-1.86529 -1.09016,-2.79794 0,0 0.11342,-0.1105 0.11342,-0.1105 l 0,0 c 0.76287,0.53287 1.4587,1.1777 2.28862,1.59861 1.73524,0.88004 4.26631,1.49325 6.21888,1.63098 3.02956,-0.85702 1.5542,-0.72349 -1.64283,3.10971 -0.37052,0.44424 0.85514,-0.78874 1.20239,-1.2514 1.31664,-1.75419 1.87873,-3.8519 2.13738,-5.99424 0.009,-6.0249 -1.79011,-9.41055 -6.24478,-13.46418 -3.92467,-3.06558 -8.28258,-5.21967 -12.72986,-7.41643 -0.74508,-0.53968 -1.40087,-0.85922 -1.84313,-1.69018 -1.17959,-2.21632 3.65151,-5.36184 5.36273,-6.49524 2.09509,-1.2051 4.48297,-2.44392 6.9357,-1.63147 1.93387,1.34413 1.73977,3.65122 1.48878,5.78707 0,0 -3.26372,2.72122 -3.26372,2.72122 z"
         id="path4103"
         style="fill:#000000;fill-opacity:1;fill-rule:nonzero;stroke:none" />
      <path
         transform="translate(0,284.3623)"
         inkscape:connector-curvature="0"
         d="m 793.28783,682.46519 c 0.10657,8.39249 0.23795,16.78352 0.48936,25.17306 0.2452,8.21485 0.73661,16.42008 1.53907,24.59909 0.0343,2.07411 0.66975,4.1343 0.63018,6.21158 -0.0495,0.23556 -0.11058,0.47738 -0.18237,0.71156 -0.7207,0.45763 -1.41584,0.96273 -2.24629,1.59171 0,0 0.12104,-0.1021 0.12104,-0.1021 l 0,0 c -2.49835,3.64588 -0.72205,2.17459 -2.43714,2.78706 -0.22696,0.012 -0.45005,-0.0845 -0.56514,-0.28854 -0.81691,-1.85648 -0.42099,-4.12995 -0.89948,-6.05563 -0.73248,-8.25977 -1.15125,-16.54267 -1.34362,-24.83264 -0.1812,-8.48312 -0.35575,-16.96996 -0.18747,-25.45484 0,0 5.08186,-4.34031 5.08186,-4.34031 z"
         id="path4105"
         style="fill:#000000;fill-opacity:1;fill-rule:nonzero;stroke:none" />
      <path
         transform="translate(0,284.3623)"
         inkscape:connector-curvature="0"
         d="m 777.5948,700.15372 c -0.54178,-2.19219 -0.83117,-4.41592 -0.70727,-6.67101 0.6651,-4.75347 4.91109,-7.56245 8.12358,-10.71878 3.5517,-2.68502 7.84734,-3.84094 12.14952,-4.65242 4.90029,-0.68045 9.00684,-0.0472 13.04645,2.83917 3.25047,3.11584 3.16162,6.28608 1.87266,10.31328 -1.06342,2.7159 -2.80896,5.055 -4.55982,7.35559 -0.88906,1.13258 -0.42836,1.34744 0.71681,1.95266 3.56816,1.53893 6.92479,3.42991 10.12626,5.6241 3.18562,2.50874 6.4774,5.653 7.06733,9.89603 0.11216,0.80672 0.0265,1.62875 0.0398,2.44313 -0.63284,4.13284 -3.00361,7.44343 -5.98171,10.26772 -8.19828,7.77486 -5.14397,5.70659 -11.11473,9.17907 -6.37011,2.93031 -11.22038,3.28012 -17.72588,0.75947 -2.51663,-1.44318 -5.53009,-3.50664 -6.00412,-6.66652 -0.217,-1.44653 0.27281,-3.78891 0.50005,-5.19637 0,0 0.11807,-0.10552 0.11807,-0.10552 l 0,0 c 2.94086,2.43704 -0.68644,-0.40664 2.93893,1.85979 2.47508,1.54732 4.49285,3.85461 7.41464,4.67979 6.32442,2.05192 11.33732,1.69334 17.34589,-1.32814 0.99086,-0.60883 2.5984,-2.9276 2.97259,-1.82649 0.42891,1.26215 -2.3006,1.77436 -2.54498,3.0848 -0.20695,1.10972 1.6648,-1.53091 2.41286,-2.37631 1.29457,-1.46305 2.5096,-3.23385 3.26742,-5.0493 0.32813,-0.78608 0.485,-1.63314 0.7275,-2.4497 0.0348,-0.77242 0.16946,-1.54678 0.10446,-2.31724 -0.3485,-4.13062 -3.6389,-7.1232 -6.64678,-9.55773 -3.16199,-2.20575 -6.49769,-4.08652 -10.0564,-5.5819 -1.29595,-0.7176 -2.44945,-1.54299 -1.37572,-3.03781 1.78202,-2.29219 3.62622,-4.57088 4.79926,-7.25534 1.32442,-3.49929 1.82785,-6.96949 -1.1156,-9.81388 -3.81982,-2.80118 -7.83561,-3.33299 -12.48438,-2.65833 -4.24439,0.80625 -8.4522,2.0435 -11.84624,4.84412 7.07373,-7.3145 0.87341,-1.60042 0.47723,1.49961 -0.2986,2.25898 -0.0758,4.49349 0.37837,6.72279 0,0 -4.43604,3.94167 -4.43604,3.94167 z"
         id="path4107"
         style="fill:#000000;fill-opacity:1;fill-rule:nonzero;stroke:none" />
      <path
         transform="translate(0,284.3623)"
         inkscape:connector-curvature="0"
         d="m 842.74103,728.75678 c -0.11937,-3.43236 -1.14216,-6.6359 -2.96988,-9.52074 -1.94654,-2.53694 -4.49981,-3.26216 -7.51124,-2.4891 -0.4278,0.21782 -0.88238,0.38956 -1.2834,0.65345 -0.42068,0.27681 -1.52206,1.31643 -1.16722,0.95912 1.07653,-1.08405 2.07348,-2.28256 3.33593,-3.14297 0.47432,-0.32326 -0.63996,0.95769 -0.88862,1.47504 -0.72007,1.49816 -0.76742,2.19378 -1.12626,3.83157 -0.57926,4.24654 0.23818,8.44207 1.40317,12.51095 0.98729,2.70046 0.71696,3.28256 2.70779,1.00525 -8.38166,9.36541 -0.32032,-1.25447 1.23045,-3.3976 2.37638,-2.56072 5.09698,-9.11238 8.68986,-6.3179 1.6567,2.00777 2.94134,4.29627 4.41468,6.44163 0.43204,0.3973 2.10506,3.60725 2.52795,3.76813 0.21384,0.0814 0.45307,-0.0642 0.67961,-0.0963 0,0 -0.0963,0.12568 -0.0963,0.12568 l 0,0 c -2.77482,2.13784 -5.17075,4.023 -8.08271,1.01577 -1.53283,-2.03557 -2.70052,-4.30193 -4.23961,-6.32741 -0.28575,-0.21015 -0.40886,-0.42682 -0.78341,-0.31737 -0.15009,0.0439 -0.51563,0.34436 -0.4087,0.23027 7.87472,-8.40188 4.33937,-4.54231 2.77628,-2.63179 -3.4064,4.59154 -6.20854,9.45949 -10.79247,13.12157 -2.36125,2.0487 -3.2479,0.74253 -3.95904,-1.82245 -1.02376,-4.33476 -1.6366,-8.79844 -1.02624,-13.24648 1.16126,-5.86205 4.01536,-10.22614 9.99191,-12.60326 3.24326,-0.52548 5.89965,0.45704 7.87721,3.17401 1.85571,3.00867 2.987,6.31476 3.05447,9.88207 0,0 -4.35418,3.71882 -4.35418,3.71882 z"
         id="path4109"
         style="fill:#000000;fill-opacity:1;fill-rule:nonzero;stroke:none" />
      <path
         transform="translate(0,284.3623)"
         inkscape:connector-curvature="0"
         d="m 861.11906,684.37587 c -0.68468,5.44779 -0.85254,10.94172 -0.95452,16.42567 -0.12703,7.43104 0.32233,14.84953 1.44182,22.19438 0.46183,4.36654 2.43743,8.35054 3.3609,12.59185 -0.0458,1.91187 -0.49337,1.32158 0.75928,2.0886 0,0 -0.10501,0.11851 -0.10501,0.11851 l 0,0 c -2.06184,0.1401 -0.91246,-0.008 -3.43082,0.56251 -0.52003,-0.14451 -1.08913,-0.16986 -1.56008,-0.43351 -2.97394,-1.66492 -3.57069,-7.39755 -4.31004,-10.27335 -1.13079,-7.41544 -1.56832,-14.90855 -1.37938,-22.41049 0.18023,-5.70998 0.35981,-11.46784 1.56476,-17.07299 0,0 4.61309,-3.79118 4.61309,-3.79118 z"
         id="path4111"
         style="fill:#000000;fill-opacity:1;fill-rule:nonzero;stroke:none" />
      <path
         transform="translate(0,284.3623)"
         inkscape:connector-curvature="0"
         d="m 889.70262,731.24256 c 0.39137,-3.13425 -0.23094,-6.14864 -2.00347,-8.75262 -2.44612,-2.58873 -5.54255,-1.77723 -8.46797,-0.55297 0.52169,-1.21707 -4.19353,3.35786 -3.30881,2.33762 0.79787,-0.92009 1.56956,-1.95284 2.64961,-2.51555 0.66295,-0.34539 -0.92453,1.17948 -1.31208,1.8187 -1.03551,1.70792 -1.07161,2.22217 -1.65946,4.10474 -0.80828,3.86403 0.0116,7.45356 2.77333,10.27368 1.88656,1.32241 3.87541,0.92353 5.70319,-0.34572 0.59293,-0.41174 2.15764,-1.91433 1.65728,-1.39401 -0.96899,1.00766 -2.04483,1.90683 -3.06724,2.86024 4.30476,-5.43126 6.18841,-12.09333 7.58133,-18.75746 1.23114,-6.5667 1.1014,-13.22812 0.48388,-19.84523 -0.43434,-3.85185 -1.13518,-7.66582 -1.98807,-11.44492 -0.84091,-3.42973 -1.26938,-2.82081 3.99572,-5.63572 0.33082,-0.17687 -0.12287,0.74012 -0.1843,1.11019 -0.85618,5.87497 -0.9847,11.80926 -0.93232,17.7348 0.16841,8.21415 1.36849,16.34066 3.21792,24.33105 0.75583,4.0305 2.75755,7.75572 3.44406,11.79097 -0.33979,1.53735 -0.18029,0.82087 -0.47767,2.14963 0,0 -0.10536,0.11821 -0.10536,0.11821 l 0,0 c -1.79459,0.89642 -0.86182,0.5515 -2.79713,1.03795 -0.34861,-0.14028 -0.73973,-0.20286 -1.04583,-0.42083 -2.70668,-1.92741 -3.22304,-7.16181 -4.26965,-9.9801 -1.86765,-8.08134 -3.0298,-16.3076 -3.12404,-24.61594 -0.0258,-6.04865 0.12336,-12.11841 1.17517,-18.09175 0.70937,-3.94034 5.49486,-9.38138 5.76801,-3.69354 0.84809,3.81696 1.49509,7.67868 1.97408,11.55903 0.67153,6.58004 0.92485,13.23036 -0.13155,19.79015 -1.25238,6.65698 -3.03651,13.29102 -7.10466,18.84033 -2.20722,2.25992 -7.01871,9.21074 -11.77206,8.9657 -1.3449,-0.0693 -1.80114,-0.50662 -2.9261,-1.14885 -3.1892,-3.26758 -3.59389,-6.95793 -2.65143,-11.33248 2.0143,-6.34369 6.09954,-11.02666 12.07728,-14.19859 3.16548,-1.11799 6.42468,-1.5026 8.75731,1.39149 1.66067,2.86344 2.32536,6.04253 1.90972,9.34909 0,0 -3.83869,3.16271 -3.83869,3.16271 z"
         id="path4113"
         style="fill:#000000;fill-opacity:1;fill-rule:nonzero;stroke:none" />
      <path
         transform="translate(0,284.3623)"
         inkscape:connector-curvature="0"
         d="m 907.44732,725.947 c 2.01448,0.14228 4.03798,-0.22345 5.71024,-1.41956 0.44703,-0.31974 1.63348,-1.47106 1.23335,-1.09427 -0.99951,0.94121 -2.02121,1.85857 -3.03182,2.78785 1.75077,-2.60294 2.56016,-5.60598 2.27059,-8.71927 -0.65622,-2.65006 -3.00881,-2.79977 -5.32809,-2.49564 -1.38967,0.45098 -1.78996,0.48705 -3.0597,1.29777 -0.51748,0.33041 -1.86966,1.5774 -1.46676,1.11411 6.97273,-8.01798 2.46054,-2.21695 2.05356,-1.48111 -0.31013,0.56072 -0.50877,1.17622 -0.76316,1.76432 -1.3037,4.55752 0.22366,8.84353 2.38515,12.8422 1.96502,3.23152 4.83026,5.55581 8.12587,7.30908 1.48286,0.26513 2.35618,1.40532 3.60413,2.02899 0,0 -0.0995,0.12319 -0.0995,0.12319 l 0,0 c -2.43562,1.38884 -4.75895,2.97102 -7.69525,2.41357 -4.00288,-0.99937 -7.01148,-3.40594 -9.14916,-6.95729 -2.27946,-4.2688 -3.70365,-8.85445 -2.34745,-13.68197 2.13097,-5.26073 6.61708,-10.09554 12.26895,-11.37181 2.61895,-0.13543 5.0587,0.44191 5.85235,3.256 0.50892,3.18065 -0.28767,6.30014 -1.93567,9.05577 -4.33678,4.55946 -6.33952,8.14507 -12.73595,7.94028 0,0 4.10831,-4.71221 4.10831,-4.71221 z"
         id="path4115"
         style="fill:#000000;fill-opacity:1;fill-rule:nonzero;stroke:none" />
      <path
         transform="translate(0,284.3623)"
         inkscape:connector-curvature="0"
         d="m 942.43754,728.07112 c 0.41175,-3.59506 -0.21876,-7.03509 -1.92612,-10.20471 -2.43238,-3.11178 -4.98601,-3.41081 -8.60697,-2.3633 -0.60523,0.30417 -1.23971,0.55605 -1.81569,0.91252 -1.30521,0.80777 -4.91554,3.53994 -3.46791,3.02959 1.00105,-0.35292 1.45782,-2.26991 2.48276,-1.99394 0.84999,0.22886 -0.89524,1.52048 -1.25131,2.32551 -0.36736,0.83054 -0.60847,1.71135 -0.91271,2.56702 -1.43607,5.30736 -0.54522,10.42256 2.11952,15.13781 1.52761,2.1415 3.6045,2.95661 5.95867,1.4602 0.59721,-0.37962 2.13103,-1.85913 1.63385,-1.35554 -0.82198,0.83257 -1.74079,1.56364 -2.61118,2.34546 2.6179,-3.54326 3.91994,-7.75315 4.82227,-12.00857 0.72718,-3.27445 0.27141,-3.11756 5.30453,-5.31303 0.32949,-0.14373 0.082,0.71425 0.12248,1.07145 0.05,0.44197 0.0993,0.88403 0.14896,1.32604 0.25203,2.79834 0.94122,5.51875 1.75215,8.19915 -0.0312,0.1882 0.88934,2.79992 0.94238,2.84797 0.14969,0.1356 0.40372,0.0137 0.60558,0.0206 0,0 -0.0994,0.12326 -0.0994,0.12326 l 0,0 c -1.9075,0.9102 -3.60017,2.2376 -5.693,0.99239 -1.73851,-2.28834 -1.92646,-5.26687 -2.27368,-8.0347 -0.0349,-0.45432 -0.0695,-0.90865 -0.10468,-1.36295 -0.0273,-0.35317 -0.30339,-0.78231 -0.0828,-1.05945 6.8641,-8.62334 4.59733,-5.61857 4.05763,-2.6353 -0.98723,4.30807 -2.19537,8.60957 -4.72189,12.30525 -2.12522,2.21513 -6.75928,9.18554 -11.43103,7.9777 -1.5615,-0.40372 -2.08052,-1.2086 -3.19087,-2.28844 -0.39942,-0.67958 -0.86912,-1.32247 -1.19826,-2.03872 -2.01384,-4.38243 -1.84115,-9.41068 -0.72956,-13.9896 1.97129,-5.63348 2.87262,-6.07895 7.71224,-11.23749 1.53093,-1.63181 3.27784,-2.90659 5.41377,-3.61794 3.82806,-0.76537 6.47111,-0.10921 8.67067,3.31389 1.62843,3.29322 2.30669,6.84974 1.99137,10.52843 0,0 -3.62179,3.01943 -3.62179,3.01943 z"
         id="path4117"
         style="fill:#000000;fill-opacity:1;fill-rule:nonzero;stroke:none" />
      <path
         transform="translate(0,284.3623)"
         inkscape:connector-curvature="0"
         d="m 956.20226,716.4657 c -0.17093,3.79756 0.82501,7.40589 2.40167,10.8207 1.86185,3.34272 3.35269,3.85377 6.12144,1.14875 -1.01241,0.90932 -1.8414,2.07847 -3.03722,2.72797 -0.52795,0.28675 0.62674,-1.0269 0.89503,-1.56447 0.8558,-1.71476 1.39314,-3.58885 1.82607,-5.44815 0.39594,-2.40131 -0.57815,-1.34635 4.78507,-3.81843 0.28939,-0.13338 0.0327,0.63716 0.0745,0.95306 0.14628,1.10536 0.24946,1.29995 0.56784,2.41077 0.62326,2.1503 2.23116,3.85394 3.04728,5.90774 0.25708,0.64693 0.18169,1.43169 0.57087,2.00889 0.33712,0.49997 0.98841,0.69104 1.48261,1.03657 0,0 -0.10738,0.11638 -0.10738,0.11638 l 0,0 c -2.9612,-0.57074 -1.38015,-0.42869 -4.75251,-0.30442 -2.50891,-0.32985 -3.98422,-2.43737 -4.87303,-4.5716 -1.47164,-4.78916 -0.90893,-3.42899 3.99206,-8.21099 0.19224,-0.18757 -1.3325,1.90669 -0.23988,0.76922 -1.40992,5.74882 -2.73272,8.36792 -7.71114,12.71578 -3.23184,2.59834 -5.16631,1.94616 -7.35409,-1.49299 -1.5978,-3.60886 -2.43874,-7.46281 -2.16778,-11.42999 0,0 4.47862,-3.77479 4.47862,-3.77479 z"
         id="path4119"
         style="fill:#000000;fill-opacity:1;fill-rule:nonzero;stroke:none" />
    </g>
    <g
       id="g4959"
       transform="translate(25.664455,93.251776)">
      <path
         transform="translate(0,284.3623)"
         inkscape:connector-curvature="0"
         d="m 575.61635,334.79528 c -2.56789,-1.98927 -5.53888,-3.19151 -8.66299,-3.96922 -3.9464,-0.84563 -7.84107,-0.0746 -11.67524,0.90851 -5.10088,1.39448 -9.83313,3.72697 -14.38683,6.36803 -4.42577,2.62164 -8.38414,5.88316 -11.98578,9.5361 0.94456,-0.88502 1.69033,-2.04824 2.83367,-2.65505 0.7519,-0.39906 -1.08251,1.31477 -1.5925,1.99632 -2.35072,3.14149 -4.12084,6.54359 -5.77673,10.08601 -2.83578,6.23776 -4.14518,12.90933 -4.70936,19.69327 -0.48741,7.34469 1.1793,14.38619 3.85533,21.16161 2.54579,5.50831 6.06208,10.61811 10.7768,14.4999 0.94066,0.77448 1.96401,1.44268 2.94602,2.16402 5.53265,3.54988 11.88032,5.19153 18.44507,4.8749 1.37906,-0.0665 2.74577,-0.29264 4.11866,-0.43897 5.04891,-0.88993 10.04565,-2.44173 14.33345,-5.33294 0.93038,-0.62735 1.5581,-1.82873 2.65369,-2.07134 0.91998,-0.20372 -1.37123,1.29278 -2.05684,1.93917 3.24968,-4.03785 4.99963,-9.02961 4.26186,-14.24208 -0.13828,-0.97702 -0.45068,-1.92137 -0.67603,-2.88206 -2.45737,-6.28847 -6.28811,-8.66903 -12.59461,-10.27183 -4.23448,-0.77209 -8.54594,-0.56794 -12.76089,0.19098 -0.31861,0.0727 -0.6386,0.1397 -0.95583,0.21825 -0.2993,0.0741 -0.75475,0.1986 -1.0656,0.3191 -0.0571,0.0221 -0.20491,0.1282 -0.16409,0.0826 4.98945,-5.57902 2.56374,-4.84075 5.74007,-5.59401 2.79749,-0.73574 5.67584,-1.00948 8.54769,-1.26453 4.03879,-0.31198 8.05632,-0.85391 12.09573,-1.14966 1.93391,0.37184 1.18053,-0.0943 2.35475,1.23256 0,0 -0.10039,0.12245 -0.10039,0.12245 l 0,0 c -3.86186,2.20549 -1.9492,1.2819 -5.70608,2.83586 -4.25135,1.14298 -8.58458,1.86057 -12.98275,2.1333 -2.83832,0.26526 -5.68069,0.56962 -8.44645,1.29203 -2.82853,0.67085 -1.18208,0.4757 2.73657,-4.89993 0.23567,-0.32329 0.78685,-0.1455 1.18165,-0.21024 0.30722,-0.0504 0.61524,-0.0957 0.92287,-0.14353 4.27389,-0.5783 8.61416,-0.7633 12.87101,0.0908 6.49657,1.77601 10.45611,4.35076 12.97497,10.85264 0.24281,0.99385 0.57301,1.97035 0.72844,2.98155 0.81712,5.31614 -0.81182,10.47327 -4.01867,14.70279 -2.18109,2.18525 -4.27778,4.45814 -6.54328,6.55575 -4.65413,4.30924 -11.19641,6.03273 -17.2345,7.17666 -8.88038,0.84613 -15.32602,0.25436 -23.09433,-4.52592 -6.50376,-4.69757 -10.73029,-9.44404 -14.08053,-16.81868 -2.7835,-6.82511 -4.52187,-13.91767 -4.09213,-21.35415 0.50596,-6.86168 1.81227,-13.60103 4.62832,-19.92527 3.27975,-7.19113 7.33366,-13.36029 13.41866,-18.61591 3.63129,-3.57445 7.60234,-6.76643 12.03097,-9.31493 4.59771,-2.59002 9.36859,-4.88646 14.49694,-6.22896 3.85171,-0.92325 7.76592,-1.53072 11.65938,-0.41847 3.13173,0.91894 6.06926,2.28508 8.66096,4.29877 0,0 -3.9111,4.01379 -3.9111,4.01379 z"
         id="path4895"
         style="fill:#333333;fill-opacity:1;fill-rule:nonzero;stroke:none" />
      <path
         transform="translate(0,284.3623)"
         inkscape:connector-curvature="0"
         d="m 605.38877,373.38216 c -0.10508,6.01618 0.27935,12.01655 0.92366,17.99417 0.69367,5.3347 1.60405,10.72261 3.95174,15.60414 1.00935,2.15174 2.85925,1.85104 2.94007,4.2604 0,0 -0.1004,0.12244 -0.1004,0.12244 l 0,0 c -2.63548,1.81591 -5.71389,3.78781 -8.17341,0.63752 -2.7377,-4.82463 -3.28797,-10.51488 -4.01764,-15.91991 -0.55656,-6.16591 -0.92997,-12.36757 -0.42804,-18.55309 0,0 4.90402,-4.14567 4.90402,-4.14567 z"
         id="path4897"
         style="fill:#333333;fill-opacity:1;fill-rule:nonzero;stroke:none" />
      <path
         transform="translate(0,284.3623)"
         inkscape:connector-curvature="0"
         d="m 599.73881,355.79151 c -0.51928,-2.60523 -0.18556,-5.0409 1.33552,-7.22067 4.43875,-4.55312 6.06033,-7.62929 11.7224,-4.61107 3.58533,2.83643 4.59724,5.47033 3.96282,9.96142 -2.60116,6.78844 -8.80615,12.10014 -15.59359,14.4286 -3.32064,0.78578 -6.89359,0.11725 -8.01276,-3.55093 -0.20498,-0.67183 -0.2167,-1.38798 -0.32505,-2.08197 0.27384,-6.1262 3.97305,-9.72424 8.53026,-13.33961 0,0 -0.0946,0.12698 -0.0946,0.12698 l 0,0 c -0.37816,0.292 -0.84132,0.49873 -1.13448,0.87599 -0.0791,0.10183 0.23109,0.21175 0.1934,0.33509 -0.15667,0.51281 -0.51003,0.94425 -0.73324,1.4318 -0.84732,1.85078 -1.40224,3.71603 -1.32313,5.77689 0.0958,0.60861 0.10897,1.23614 0.28743,1.82584 1.01127,3.34154 4.37186,3.56055 7.25794,2.76062 1.99499,-0.76499 2.49583,-0.83447 4.31888,-2.0483 0.69928,-0.4656 2.48306,-2.22511 1.99296,-1.54278 -0.94078,1.30976 -2.12129,2.45179 -3.37469,3.46643 -1.16505,0.94312 3.84931,-4.3175 2.3661,-3.82398 0.1562,-0.64972 0.39216,-1.28532 0.4686,-1.94916 0.34896,-3.03044 -1.17244,-5.85502 -3.39787,-7.78707 -1.4638,-0.89083 -2.89698,-1.54371 -4.61549,-0.86602 -0.34071,0.13435 -1.19042,0.81879 -0.96028,0.5339 1.05852,-1.31033 2.3234,-2.43957 3.4851,-3.65936 -1.80966,2.02955 -2.51969,4.3878 -2.03946,7.10399 0,0 -4.31676,3.85337 -4.31676,3.85337 z"
         id="path4899"
         style="fill:#333333;fill-opacity:1;fill-rule:nonzero;stroke:none" />
      <path
         transform="translate(0,284.3623)"
         inkscape:connector-curvature="0"
         d="m 639.8445,322.61446 c -1.11251,5.18629 -1.96619,10.41671 -2.66976,15.67249 -1.35153,10.21479 -1.01572,20.49917 0.134,30.7055 1.07661,6.35867 2.14555,13.16581 5.77933,18.67209 0.4692,0.71097 1.05092,1.34092 1.57637,2.01139 2.96784,3.21941 7.09918,3.75184 11.1899,4.37569 0.5063,0.0884 2.23428,0.25193 2.70879,0.78856 0.24984,0.28255 0.16182,0.73984 0.29811,1.09152 0.079,0.20388 0.22789,0.37323 0.34184,0.55985 0,0 -0.10339,0.11994 -0.10339,0.11994 l 0,0 c -2.38976,0.93905 -4.53741,2.28621 -7.23464,2.05049 -4.5991,0.0501 -9.02473,-0.44943 -12.45949,-3.84964 -0.55284,-0.69735 -1.16758,-1.34981 -1.65852,-2.09203 -3.72244,-5.62781 -4.63432,-12.6222 -5.72686,-19.1107 -1.08926,-10.32191 -1.41036,-20.7175 -0.007,-31.03598 0.78394,-5.47468 1.69462,-10.93321 3.26878,-16.24622 0,0 4.56229,-3.71295 4.56229,-3.71295 z"
         id="path4901"
         style="fill:#333333;fill-opacity:1;fill-rule:nonzero;stroke:none" />
      <path
         transform="translate(0,284.3623)"
         inkscape:connector-curvature="0"
         d="m 644.83904,367.56722 c -5.06719,-2.11185 -10.42467,-3.03032 -15.85245,-3.57631 -2.23409,-0.60668 -6.54204,0.24684 -8.68416,-0.45954 -0.50824,-0.16759 -0.82876,-0.67732 -1.24313,-1.01598 0,0 0.1,-0.12281 0.1,-0.12281 l 0,0 c 1.32398,-0.75755 2.57825,-1.6526 3.97192,-2.27265 3.32284,-1.47835 7.05417,-1.60669 10.61597,-1.60034 5.45316,0.45756 11.0145,1.26024 15.89835,3.8957 0,0 -4.80646,5.15193 -4.80646,5.15193 z"
         id="path4903"
         style="fill:#333333;fill-opacity:1;fill-rule:nonzero;stroke:none" />
      <path
         transform="translate(0,284.3623)"
         inkscape:connector-curvature="0"
         d="m 675.49447,319.02793 c -0.47506,7.66752 -0.0484,15.34798 0.40526,23.00435 0.94753,12.92596 2.09554,25.83571 3.03554,38.76234 0.56167,7.91728 1.03665,15.84028 1.55673,23.76031 0.12423,2.95712 0.52044,5.89 0.82506,8.83038 0.12002,1.67965 -0.8438,1.64251 -2.38981,2.8371 0,0 0.12369,-0.0989 0.12369,-0.0989 l 0,0 c -0.33656,0.41152 -2.73547,4.87311 -3.50072,2.32722 -0.52036,-2.93288 -0.63457,-5.92174 -0.85159,-8.88717 -0.4385,-7.9747 -0.82297,-15.95251 -1.35906,-23.92161 -0.8772,-12.97567 -1.97943,-25.93379 -2.88032,-38.90774 -0.45168,-7.79304 -0.93384,-15.64827 -0.0707,-23.43161 0,0 5.1059,-4.27471 5.1059,-4.27471 z"
         id="path4905"
         style="fill:#333333;fill-opacity:1;fill-rule:nonzero;stroke:none" />
      <path
         transform="translate(0,284.3623)"
         inkscape:connector-curvature="0"
         d="m 702.5547,375.44191 c -5.67501,-1.75217 -11.54313,-2.59925 -17.44808,-3.04299 -2.78033,-0.18603 -5.56284,-0.0225 -8.3439,-10e-4 -0.20571,0.002 -2.65474,0.004 -3.09089,-0.10873 -0.21369,-0.0551 -0.36053,-0.25456 -0.54079,-0.38184 0.16811,-0.35309 0.33622,-0.70618 0.50432,-1.05927 0,0 0.49562,-0.62245 0.49562,-0.62245 l 0,0 c 0.51968,-0.4791 1.03936,-0.95821 1.55904,-1.43731 4.40995,-2.27522 9.50464,-2.30303 14.3651,-2.09148 5.87768,0.48439 11.81557,1.23094 17.30816,3.50782 0,0 -4.80858,5.2377 -4.80858,5.2377 z"
         id="path4907"
         style="fill:#333333;fill-opacity:1;fill-rule:nonzero;stroke:none" />
      <path
         transform="translate(0,284.3623)"
         inkscape:connector-curvature="0"
         d="m 711.65164,319.92224 c -1.33426,6.95166 -1.88014,14.01165 -2.32822,21.06496 -0.64412,11.1066 -0.16916,22.22651 0.51976,33.31646 0.65214,8.9261 1.52572,17.83375 2.35978,26.74411 0.21235,3.07221 0.6897,6.1363 0.75629,9.21881 -0.0198,0.0904 -10e-4,0.19919 -0.0593,0.27124 -0.13445,0.16682 -0.37861,-0.0184 -0.51748,0.0422 -0.39811,0.17372 -1.08331,1.54138 -1.26129,1.80648 0,0 -0.0935,0.12782 -0.0935,0.12782 l 0,0 c -0.62768,0.78937 -2.0673,3.53774 -3.45883,2.5295 -1.05183,-2.83664 -0.37215,-6.17054 -1.01898,-9.08102 -0.74706,-8.95461 -1.59392,-17.90094 -2.25142,-26.86281 -0.71415,-11.13202 -1.12463,-22.29417 -0.51146,-33.44388 0.44,-7.13262 0.94551,-14.29592 2.45264,-21.29813 0,0 5.41193,-4.43578 5.41193,-4.43578 z"
         id="path4909"
         style="fill:#333333;fill-opacity:1;fill-rule:nonzero;stroke:none" />
      <path
         transform="translate(0,284.3623)"
         inkscape:connector-curvature="0"
         d="m 728.82498,360.43447 c -0.11766,5.51116 -0.009,11.01263 0.31296,16.51494 0.45487,6.87324 1.44906,13.69506 3.54857,20.26297 1.44042,3.89557 3.16044,6.78091 7.26427,8.01334 3.74179,0.54695 6.79533,-1.17775 9.46864,-3.60854 -1.2806,1.20451 -2.3715,2.64969 -3.84181,3.61353 -0.66056,0.43301 0.92869,-1.28115 1.32556,-1.96404 2.07643,-3.57297 2.92573,-7.56298 3.73864,-11.56283 1.0355,-6.14327 1.37778,-12.37372 1.62609,-18.59005 0.15728,-4.87007 -0.62295,-3.31999 5.5008,-7.67335 0.27189,-0.19328 -0.20786,0.63397 -0.3118,0.95095 -1.05879,5.42906 -0.85694,11.01198 -0.68557,16.51107 0.28654,6.44295 1.12053,12.83832 2.25418,19.18159 0.29367,2.41817 1.34862,4.99453 0.5378,7.41923 -0.22759,0.68059 -0.59943,1.30411 -0.89914,1.95616 0,0 -0.1147,0.10918 -0.1147,0.10918 l 0,0 c -0.58869,0.16872 -1.15437,0.47714 -1.76608,0.50615 -2.29222,0.10873 -2.62874,-3.74194 -3.18152,-5.17164 -1.37781,-6.30727 -2.11213,-12.72899 -2.43823,-19.17545 -0.23496,-5.5298 -0.44006,-11.11675 0.45479,-16.60287 0.59553,-2.94723 5.37418,-8.84255 6.31911,-6.13684 0.0864,0.24725 0.0118,1.74857 0.0115,1.75795 -0.0208,0.54209 -0.0497,1.08383 -0.0746,1.62575 -0.34964,6.26013 -0.67418,12.53564 -1.64024,18.73806 -0.71134,3.85665 -1.93633,10.63054 -4.62324,13.66751 -2.11582,2.39147 -4.43753,4.59255 -6.65629,6.88883 -2.93621,2.38837 -6.22064,3.94636 -10.09236,3.1511 -4.28341,-1.49538 -6.17395,-4.43499 -7.6584,-8.6271 -2.04231,-6.6761 -3.05658,-13.58051 -3.49735,-20.54412 -0.35848,-5.61616 -0.56541,-11.2543 -0.005,-16.86688 0,0 5.12361,-4.3446 5.12361,-4.3446 z"
         id="path4911"
         style="fill:#333333;fill-opacity:1;fill-rule:nonzero;stroke:none" />
      <path
         transform="translate(0,284.3623)"
         inkscape:connector-curvature="0"
         d="m 774.45885,321.39323 c 0.22002,6.57692 0.66917,13.14474 1.05174,19.71378 0.66336,11.19098 1.30963,22.38302 1.99966,33.57239 0.49821,8.3365 1.1323,16.66405 1.66129,24.99849 0.10684,1.40029 0.16057,2.80585 0.29363,4.20431 0.0537,0.56402 0.10747,0.6697 0.0912,0.66054 -0.11875,-0.067 -0.17398,-0.20998 -0.26097,-0.31496 -7.0255,6.85708 -5.83354,6.65653 -5.01287,3.48866 0.32087,-1.2386 0.55211,-2.49057 0.78649,-3.74785 0.54469,-4.37289 1.7611,-8.51032 3.7437,-12.43587 4.44596,-7.06878 10.73207,-12.52099 18.164,-16.16607 3.66848,-1.39321 8.12434,-3.19916 11.98477,-1.32626 0.64898,0.31485 1.19457,0.80886 1.79186,1.21329 4.07145,4.31272 4.75962,10.30697 5.00678,15.9776 -0.0974,4.09024 -0.76045,8.26315 -3.01844,11.77002 -2.10481,3.26895 -7.64304,7.71059 -9.35206,9.30319 -3.66414,1.83958 -7.66512,2.02991 -11.49362,0.49917 -0.97553,-0.39004 -1.9922,-0.77876 -2.79538,-1.45603 -0.81841,-0.69011 -1.30265,-1.69919 -1.95398,-2.54879 -0.66191,-0.82653 -1.32382,-1.65306 -1.98573,-2.47959 0,0 0.10896,-0.1149 0.10896,-0.1149 l 0,0 c 1.20543,0.24266 2.41087,0.48532 3.6163,0.72799 1.34558,0.0745 2.69795,0.0692 4.03673,0.22352 1.15173,0.13272 2.27213,0.46913 3.41945,0.63572 4.06431,0.59014 8.03058,0.55456 11.63891,-1.64234 -1.0656,1.22293 -2.13707,2.44077 -3.19679,3.66879 -0.61037,0.70732 1.30631,-1.34596 1.84873,-2.10664 2.39256,-3.35529 3.14073,-7.4534 3.31536,-11.48204 -0.13515,-5.44502 -0.60209,-11.29722 -4.45852,-15.5046 -0.53625,-0.3576 -1.02258,-0.80478 -1.60876,-1.0728 -3.66583,-1.67613 -8.01776,0.23639 -11.4385,1.5492 -2.3143,1.17283 -2.98326,1.40902 -5.1269,2.91443 -0.81281,0.5708 -2.77994,2.72563 -2.35196,1.82936 0.62003,-1.29843 1.91139,-2.15834 2.97289,-3.12971 1.3219,-1.20963 -4.80076,5.03002 -3.32258,4.22562 -2.04702,3.81158 -3.28717,7.85671 -3.77419,12.16775 -1.00086,6.2433 -0.44014,4.78951 -6.64507,10.65613 -1.0286,-1.05089 -0.074,-4.06657 -0.57017,-5.39017 -0.49962,-8.36225 -1.03147,-16.72241 -1.56464,-25.08259 -0.67703,-11.20078 -1.32137,-22.40336 -1.96284,-33.60623 -0.39351,-6.59852 -0.82577,-13.19812 -0.99571,-19.80709 0,0 5.3572,-4.58542 5.3572,-4.58542 z"
         id="path4913"
         style="fill:#333333;fill-opacity:1;fill-rule:nonzero;stroke:none" />
    </g>
  </g>
</svg>
