<?xml version="1.0" encoding="UTF-8" standalone="no"?>
<!-- Created with Inkscape (http://www.inkscape.org/) -->

<svg
   xmlns:dc="http://purl.org/dc/elements/1.1/"
   xmlns:cc="http://creativecommons.org/ns#"
   xmlns:rdf="http://www.w3.org/1999/02/22-rdf-syntax-ns#"
   xmlns:svg="http://www.w3.org/2000/svg"
   xmlns="http://www.w3.org/2000/svg"
   xmlns:sodipodi="http://sodipodi.sourceforge.net/DTD/sodipodi-0.dtd"
   xmlns:inkscape="http://www.inkscape.org/namespaces/inkscape"
   width="1024"
   height="768"
   id="svg4160"
   version="1.1"
   inkscape:version="0.48.4 r9939"
   sodipodi:docname="fragen.svg">
  <defs
     id="defs4162" />
  <sodipodi:namedview
     id="base"
     pagecolor="#ffffff"
     bordercolor="#666666"
     borderopacity="1.0"
     inkscape:pageopacity="0.0"
     inkscape:pageshadow="2"
     inkscape:zoom="0.86588542"
     inkscape:cx="512"
     inkscape:cy="374.84321"
     inkscape:document-units="px"
     inkscape:current-layer="layer1"
     showgrid="false"
     inkscape:window-width="1600"
     inkscape:window-height="886"
     inkscape:window-x="0"
     inkscape:window-y="14"
     inkscape:window-maximized="0" />
  <metadata
     id="metadata4165">
    <rdf:RDF>
      <cc:Work
         rdf:about="">
        <dc:format>image/svg+xml</dc:format>
        <dc:type
           rdf:resource="http://purl.org/dc/dcmitype/StillImage" />
        <dc:title></dc:title>
      </cc:Work>
    </rdf:RDF>
  </metadata>
  <g
     inkscape:label="Ebene 1"
     inkscape:groupmode="layer"
     id="layer1"
     transform="translate(0,-284.36218)">
    <path
       style="fill:#ff6600;fill-opacity:1;fill-rule:nonzero;stroke:none"
       id="path6065"
       d="m 232.08208,508.15636 c -0.3236,13.74419 -0.90004,27.48099 -1.34653,41.22177 -0.80842,24.57079 -0.9365,49.15235 -0.5999,73.73186 0.2915,16.25166 1.1906,32.48274 1.78267,48.72394 -0.53271,3.57228 1.14298,8.40398 -0.63332,11.8291 -0.37828,0.7294 -1.01888,1.28933 -1.52832,1.93399 0,0 -4.448,3.77633 -4.448,3.77633 l 0,0 c -0.4974,0.23627 -0.94768,0.79076 -1.49221,0.70879 -0.84275,-0.1268 -1.57849,-9.06819 -1.53233,-9.94534 -0.85955,-16.27654 -1.3534,-32.57156 -1.67746,-48.86692 -0.30115,-24.6275 -0.067,-49.25566 0.67987,-73.87452 0.45427,-13.95985 0.96808,-27.91718 2.08373,-41.84291 0,0 8.7118,-7.39609 8.7118,-7.39609 z"
       inkscape:connector-curvature="0" />
    <path
       style="fill:#ff6600;fill-opacity:1;fill-rule:nonzero;stroke:none"
       id="path6067"
       d="m 288.38133,508.20203 c -19.38863,1.00125 -38.76606,2.12167 -58.1681,2.84938 -31.12171,0.8957 -62.25697,0.45296 -93.38168,1.17663 -17.18032,0.48571 -34.32303,1.87548 -51.341347,4.26412 -2.752572,0.35496 -1.982371,0.98691 -2.971935,-0.31731 0,0 4.063829,-5.12227 4.063829,-5.12227 l 0,0 c 3.476739,-2.43212 1.57278,-1.45408 5.742798,-2.87319 17.260095,-4.03726 34.996235,-5.14737 52.678385,-5.56087 31.12175,-0.6114 62.25583,-0.14616 93.36959,-1.19858 19.39831,-0.82524 38.7651,-2.28393 58.17303,-2.81141 0,0 -8.16457,9.5935 -8.16457,9.5935 z"
       inkscape:connector-curvature="0" />
    <path
       style="fill:#ff6600;fill-opacity:1;fill-rule:nonzero;stroke:none"
       id="path6069"
       d="m 245.28902,583.70426 c -14.52982,-1.4089 -29.00403,-0.0149 -43.31813,2.48988 -7.00125,1.35661 -13.85368,3.3359 -20.72388,5.21967 -4.32767,1.18661 -7.24273,1.91283 -11.61807,1.25474 0,0 0.16642,-0.20961 0.16642,-0.20961 l 0,0 c 3.68988,-2.2675 8.36303,-5.25346 12.24112,-7.16427 8.8643,-4.36764 18.52996,-7.0055 28.14793,-9.05698 14.35187,-2.44364 28.94683,-3.94294 43.47975,-2.11428 0,0 -8.37514,9.58085 -8.37514,9.58085 z"
       inkscape:connector-curvature="0" />
    <path
       style="fill:#ff6600;fill-opacity:1;fill-rule:nonzero;stroke:none"
       id="path6071"
       d="m 310.27595,586.10553 c 2.06832,14.53834 4.71084,28.98566 7.40015,43.4193 2.45597,12.98218 5.15453,25.92346 8.5375,38.69803 1.51886,6.47127 2.82016,6.87558 -2.97773,10.36058 0,0 0.19748,-0.18065 0.19748,-0.18065 l 0,0 c -0.77321,1.1663 -1.41056,2.4351 -2.31966,3.49891 -2.58189,3.02122 -4.48242,-3.61976 -4.69124,-4.87742 -3.26509,-12.87732 -5.92593,-25.89646 -8.39193,-38.94836 -2.69619,-14.40143 -5.42643,-28.80536 -7.63678,-43.29037 0,0 9.88221,-8.68002 9.88221,-8.68002 z"
       inkscape:connector-curvature="0" />
    <path
       style="fill:#ff6600;fill-opacity:1;fill-rule:nonzero;stroke:none"
       id="path6073"
       d="m 308.49351,610.15095 c 2.20748,-13.50614 10.72786,-19.67769 20.3546,-29.20121 9.53555,-7.55702 21.11827,-10.3982 32.93259,-11.90717 9.22051,-0.63111 18.70488,-0.38097 27.57003,2.44904 5.35963,2.81148 3.69291,4.24808 1.72772,9.02604 0,0 -0.20042,0.17737 -0.20042,0.17737 l 0,0 c -2.93016,-0.10213 0.99885,-0.13259 -3.70566,0.99357 -2.06008,0.49315 -4.38974,-0.59118 -6.42129,-0.63164 -9.0042,-1.83412 -18.10127,-3.10737 -27.3129,-1.97869 -11.61204,1.63227 -23.00954,4.60028 -32.20786,12.2917 1.82683,-1.91629 3.51056,-3.98001 5.48047,-5.74889 1.10558,-0.99278 -1.9936,2.21064 -2.87354,3.40799 -2.78365,3.78767 -4.5301,8.1994 -5.33864,12.80957 0,0 -10.0051,8.31232 -10.0051,8.31232 z"
       inkscape:connector-curvature="0" />
    <path
       style="fill:#ff6600;fill-opacity:1;fill-rule:nonzero;stroke:none"
       id="path6075"
       d="m 427.5352,630.67148 c -0.43357,-8.18713 -4.18508,-15.24228 -9.23061,-21.49127 -6.40317,-6.64029 -13.08395,-7.97843 -21.93607,-6.79235 -1.34067,0.39597 -2.71438,0.69363 -4.022,1.1879 -2.61588,0.98879 -5.21215,2.40377 -7.3851,4.17543 -1.13139,0.92248 -4.29945,3.93886 -3.13684,3.05604 2.26697,-1.72142 3.73817,-4.75772 6.46281,-5.5816 1.52516,-0.46117 -1.42651,2.84959 -2.13976,4.2744 -4.04593,11.59874 -2.04795,22.62222 2.10192,33.82093 3.76068,7.9899 9.28257,15.78718 17.93783,18.92497 1.53803,0.55758 3.17795,0.77875 4.76694,1.16811 6.8987,0.57984 13.60064,-1.19486 19.19883,-5.34097 1.36454,-1.0106 5.1121,-4.46988 3.79502,-3.39816 -2.03438,1.65538 -3.96563,3.43362 -5.94847,5.15043 6.28834,-9.78884 6.37291,-21.28887 5.78524,-32.50531 -0.55605,-7.4331 -1.97595,-14.75648 -4.10026,-21.89212 -1.91831,-5.98161 -3.58293,-2.30882 8.59921,-10.21544 0.44802,-0.29079 -0.0788,1.06791 -0.0545,1.60148 0.0386,0.84486 0.16205,1.68369 0.24311,2.52553 1.72649,10.83387 5.22477,21.28141 8.85209,31.60018 4.19058,12.02365 10.21496,23.10989 18.39105,32.84802 3.48964,3.47574 6.85633,7.07368 10.3478,10.54753 1.12709,1.12137 4.63831,4.23202 5.37484,5.87752 0.50735,1.13351 0.41326,2.44912 0.61991,3.67369 0.34259,0.71274 0.68517,1.42547 1.02776,2.13822 0,0 -0.18499,0.1934 -0.18499,0.1934 l 0,0 c -0.93947,-0.0958 -1.87894,-0.19155 -2.81842,-0.28733 -1.44879,0.0561 -2.91524,0.40042 -4.3464,0.16813 -2.11665,-0.34352 -5.8745,-2.65035 -7.58088,-3.68236 -4.34765,-2.6294 -8.49946,-5.5044 -11.77392,-9.45701 -8.25932,-9.87034 -14.37486,-21.08229 -18.65737,-33.2382 -3.68935,-10.35535 -7.22545,-20.82533 -9.21942,-31.66189 -0.0995,-0.70376 -0.65324,-4.22008 -0.47648,-4.42785 8.48019,-9.96825 8.874,-13.83603 11.29884,-6.94709 2.25798,7.18789 3.66566,14.61179 4.30958,22.12076 0.74321,11.36795 0.77859,23.03267 -5.12262,33.19576 -11.85377,12.68368 -18.01235,22.611 -36.3257,21.16487 -1.65596,-0.45166 -3.3669,-0.73611 -4.96791,-1.35498 -8.87429,-3.43032 -14.64396,-11.37669 -18.58883,-19.65851 -4.33156,-11.3852 -6.49224,-22.63069 -2.82812,-34.57656 4.18312,-9.46065 1.39074,-4.43141 13.76908,-17.33786 3.97471,-4.14428 9.24499,-6.41878 14.81193,-7.44107 9.25362,-0.7503 15.9055,1.13629 22.1166,8.39852 4.91799,6.73124 8.56101,14.20688 8.97422,22.68262 0,0 -7.94001,6.79349 -7.94001,6.79349 z"
       inkscape:connector-curvature="0" />
    <path
       style="fill:#ff6600;fill-opacity:1;fill-rule:nonzero;stroke:none"
       id="path6077"
       d="m 555.30472,627.73322 c -0.54774,-8.78687 -3.95911,-16.63752 -8.9205,-23.77333 -7.56707,-8.90752 -16.01636,-11.92628 -27.37433,-12.84088 -4.93669,0.12067 -9.82652,0.97551 -14.11026,3.58852 -1.33822,0.81629 -4.7699,4.04084 -3.71984,2.87701 9.28522,-10.29144 5.79128,-5.10423 3.4456,-0.84777 -4.46578,12.47057 -1.7851,24.33303 2.99564,36.21044 3.52812,6.6769 8.70793,15.35522 17.38006,15.49807 1.33295,0.022 2.63562,-0.40312 3.95343,-0.60467 -0.72013,3.13798 9.37477,-7.17896 7.62592,-4.74826 -1.44633,2.01023 -3.14416,4.03289 -5.35383,5.15102 -1.55868,0.78871 2.23877,-2.6853 3.26896,-4.09606 2.4248,-3.32056 3.29156,-5.04747 5.31741,-8.57514 2.99664,-5.20518 4.85031,-10.96271 7.66143,-16.25364 3.1421,-3.21315 6.07406,-6.64619 9.42628,-9.63944 1.4272,-1.2744 7.81762,7.41835 8.35439,8.12264 9.21965,12.58772 18.14964,25.38306 26.90368,38.29796 8.69641,13.40172 17.36867,27.4089 20.87014,43.21675 0.6771,3.05695 0.95564,6.18873 1.43348,9.2831 0.99198,16.95277 -4.04552,33.29371 -13.40842,47.39661 -1.90942,2.87607 -4.15919,5.51109 -6.23878,8.26664 -12.86528,13.33941 -24.01263,26.05924 -43.0625,28.94738 -9.50172,1.44056 -12.42038,0.32961 -21.95792,-0.96019 -20.23492,-5.17533 -38.24219,-16.32051 -53.75773,-30.11205 -2.58765,-2.30013 -5.00095,-4.78922 -7.50142,-7.18383 -4.04653,-4.86236 -11.65747,-11.69903 -11.94667,-18.74206 -0.0996,-2.42471 0.99458,-4.75074 1.45261,-7.1339 0.29852,-1.55321 0.54455,-3.11604 0.81681,-4.67407 0,0 0.20533,-0.17167 0.20533,-0.17167 l 0,0 c -0.16222,6.85755 -1.20181,1.80932 3.59226,6.26872 1.35643,1.26176 2.25002,2.94494 3.43327,4.37036 4.98342,6.00339 4.94962,5.6696 10.87503,11.58124 18.00139,15.81939 37.44223,30.64044 61.25058,36.1887 3.7157,0.44697 7.40602,1.23904 11.14713,1.34089 6.9704,0.18977 13.62656,-0.93745 20.12468,-3.45403 3.06713,-1.18782 5.57465,-3.84446 8.80791,-4.44796 1.03316,-0.19284 -1.87512,3.57148 -0.99931,2.99046 2.8232,-1.87292 4.82784,-4.75448 7.24175,-7.13172 2.11158,-2.71488 4.39222,-5.30633 6.33472,-8.14464 9.45199,-13.81088 14.68144,-29.9111 13.9197,-46.68403 -0.43997,-3.05291 -0.67891,-6.14165 -1.31992,-9.15877 -3.33953,-15.7187 -11.95121,-29.63709 -20.58335,-42.92484 -8.76626,-12.87911 -17.74984,-25.61056 -26.84616,-38.25831 -1.23857,-1.6342 -2.86397,-3.86174 -4.2714,-5.45903 -0.39953,-0.45342 -0.81094,-0.90192 -1.27567,-1.28818 -1.01481,-0.8435 -1.21519,0.0738 -1.08832,-0.0584 2.68318,-2.79832 5.39849,-5.56564 8.09774,-8.34847 -3.13327,5.10985 -4.54171,11.1485 -7.69136,16.26985 -6.21688,11.18138 -10.57959,15.87049 -20.85047,25.36836 -1.20482,1.11416 -2.59366,2.03515 -4.03289,2.82352 -1.34832,0.73859 -2.85073,1.152 -4.27609,1.728 -1.45133,0.13888 -2.89892,0.5085 -4.35397,0.41651 -9.05638,-0.57261 -14.4883,-9.30515 -18.26211,-16.43255 -4.88662,-12.15476 -7.63599,-24.30986 -3.57269,-37.18055 4.51054,-9.27488 2.11918,-5.58167 14.40707,-17.2664 4.85128,-4.61316 11.94783,-5.54873 18.29501,-5.59558 11.84074,1.24078 20.13923,4.43681 28.0855,13.65772 5.17006,7.4626 8.59922,15.27298 9.22353,24.44033 0,0 -9.17114,7.88969 -9.17114,7.88969 z"
       inkscape:connector-curvature="0" />
    <path
       style="fill:#ff6600;fill-opacity:1;fill-rule:nonzero;stroke:none"
       id="path6079"
       d="m 615.48656,623.01347 c 7.92594,0.41461 15.82872,0.71925 23.74164,0.003 5.01677,-0.68381 9.94781,-2.17457 14.0265,-5.28323 0.96172,-0.73301 3.57261,-3.26013 2.69629,-2.42689 -2.27985,2.16776 -4.60502,4.28739 -6.90751,6.43109 4.87752,-7.58468 4.31128,-13.88512 0.6946,-21.81694 -0.82886,-1.06004 -1.51547,-2.24869 -2.48659,-3.18015 -6.66887,-6.3965 -15.07778,-3.6626 -22.55048,-0.75205 -5.00984,2.88325 -6.26589,3.27559 -10.67661,7.18632 -1.69365,1.50165 -4.85462,2.56009 -4.78073,4.82237 0.0666,2.03588 3.7187,-5.47887 4.81535,-3.76231 1.21617,1.90366 -2.48021,3.78572 -3.51879,5.7918 -1.02462,1.97912 -1.7708,4.09041 -2.65621,6.13562 -3.49417,10.71473 -3.24599,22.0841 1.93249,32.25008 1.04169,2.04494 2.4136,3.90411 3.62041,5.85617 7.8076,10.05006 18.81275,16.01493 31.50934,17.14636 2.66744,0.2377 5.35539,0.0819 8.03308,0.12299 7.48831,-0.37371 14.74135,-2.21551 21.85516,-4.46189 3.51509,-1.10997 7.23475,-3.26239 10.97135,-3.1781 0.36579,0.0116 0.73159,0.0247 1.09738,0.0369 0,0 -0.1614,0.21349 -0.1614,0.21349 l 0,0 c -1.20245,1.07311 -2.40489,2.1462 -3.60734,3.2193 -1.63859,1.27195 -3.18969,2.66541 -4.91577,3.81583 -9.93101,6.61893 -21.93809,9.38007 -33.67031,10.18083 -2.72776,-0.0809 -5.46873,0.0374 -8.18329,-0.24262 -13.01756,-1.34266 -24.28551,-7.58448 -32.33342,-17.86754 -1.25723,-2.00245 -2.67912,-3.91051 -3.77171,-6.00737 -5.39146,-10.34712 -5.93809,-21.97211 -2.60542,-33.0274 5.42854,-13.36797 7.55888,-14.37561 19.2489,-26.74728 4.59587,-4.86382 9.80666,-8.93426 15.92545,-11.7136 1.87933,-0.66159 3.70666,-1.49527 5.63798,-1.98477 8.67914,-2.19978 15.62797,-0.0884 20.83324,7.21386 4.09909,8.22491 4.86584,14.60903 0.33775,22.89687 -10.42687,10.88269 -14.19763,17.40077 -28.88272,19.20477 -7.6545,0.4566 -15.2953,-0.0425 -22.85445,-1.36565 0,0 7.58587,-8.71002 7.58587,-8.71002 z"
       inkscape:connector-curvature="0" />
    <path
       style="fill:#ff6600;fill-opacity:1;fill-rule:nonzero;stroke:none"
       id="path6081"
       d="m 690.58973,583.95201 c 4.74916,12.02321 9.35542,24.1022 14.17338,36.09916 4.80598,11.97452 9.92385,23.82192 15.31905,35.54222 0.46261,1.01592 0.92237,2.03313 1.38785,3.04775 0.52948,1.15417 1.04915,2.31314 1.60241,3.45611 0.0998,0.20631 0.49106,0.45373 0.32141,0.60785 -10.17008,9.23948 -9.06387,12.20334 -10.25449,6.56529 -1.43403,-8.12051 -1.09959,-16.40181 -0.63287,-24.59116 0.77741,-12.07865 3.62397,-23.76025 8.53327,-34.7948 5.15318,-8.77358 12.03798,-17.99037 21.54873,-22.23661 3.4606,-1.54506 4.70614,-1.47649 8.4298,-2.04667 9.02852,-0.39346 17.41598,2.8319 23.97559,9.0768 1.66852,1.58846 3.08986,3.41783 4.63478,5.12674 10.36456,14.07055 16.22231,30.75291 23.06751,46.67875 6.04294,14.36865 14.41565,27.5434 22.28111,40.9446 1.87833,7.20828 1.18338,3.74696 2.19897,10.3604 0,0 -0.19038,0.18813 -0.19038,0.18813 l 0,0 c -6.16381,-1.52213 -3.03492,-0.43328 -9.32218,-3.44635 -10.9025,-11.72255 -18.22693,-24.53424 -24.42703,-39.27931 -6.7846,-15.78868 -12.56947,-32.34535 -22.85705,-46.28601 -1.50467,-1.6502 -2.88722,-3.42062 -4.51398,-4.95058 -6.3687,-5.9898 -14.51778,-8.94237 -23.21351,-8.26842 -3.60948,0.70815 -4.75462,0.66916 -8.05608,2.35208 -1.23753,0.63084 -4.21733,3.43441 -3.51723,2.23471 1.45282,-2.48963 3.81957,-4.32723 5.90163,-6.32072 2.34425,-2.24454 -9.25432,10.00356 -5.72049,7.87895 -5.15069,10.84022 -8.03168,22.4052 -8.81915,34.40365 -0.48489,8.05431 -0.79518,16.20233 0.55642,24.19648 1.22189,5.83118 0.8294,1.88819 -9.23016,11.12226 -0.17302,0.15874 -0.13061,-0.45185 -0.21596,-0.67064 -0.33669,-0.86286 -1.23966,-2.84197 -1.53763,-3.49595 -0.46344,-1.01713 -0.93367,-2.03114 -1.4005,-3.04671 -5.22892,-11.87838 -10.33628,-23.81295 -14.99994,-35.92675 -4.62508,-12.25388 -9.18254,-24.54013 -13.19582,-37.01074 0,0 8.17254,-7.51051 8.17254,-7.51051 z"
       inkscape:connector-curvature="0" />
    <path
       style="fill:#008000;fill-opacity:1;fill-rule:nonzero;stroke:none"
       id="path6083"
       d="m 838.3664,548.35477 c -2.52542,-5.89762 -3.51331,-12.15434 -3.62163,-18.52343 0.11504,-7.39884 2.43945,-14.39969 5.12975,-21.20517 3.03729,-6.50283 6.25689,-13.30071 11.31705,-18.53025 3.39745,-3.51116 6.94512,-6.87382 10.41769,-10.31073 6.62635,-5.24208 12.74679,-5.4291 20.63865,-3.45457 9.45674,3.22137 17.26228,9.49948 24.30888,16.39113 7.87321,8.66093 10.68697,16.01895 11.24195,27.59801 -0.35369,11.29086 -5.85681,21.0013 -11.61967,30.36657 -5.97378,9.3509 -12.78499,18.12226 -19.43809,26.99026 -6.14093,8.03916 -11.3972,16.66543 -16.06756,25.62389 -4.29817,8.38526 -7.38177,17.27006 -9.40956,26.45364 -1.6866,8.17489 -1.06632,16.29031 1.34582,24.21562 2.12087,5.95483 5.85996,10.69168 11.13018,14.09946 3.70895,2.14722 8.33836,2.27134 11.74215,4.92523 0.87576,2.40441 0.62867,1.08157 0.53872,4.0011 0,0 -0.17943,0.19857 -0.17943,0.19857 l 0,0 c -4.20178,1.84619 -2.12375,1.02083 -6.22539,2.49795 -5.24326,1.01986 -10.34371,0.71011 -15.04495,-2.07293 -5.45777,-3.64858 -9.43612,-8.57781 -11.71903,-14.79258 -2.6051,-8.19225 -3.31948,-16.53631 -1.45566,-25.01215 2.11357,-9.39781 5.28548,-18.48398 9.67609,-27.07759 4.66159,-9.03606 9.89783,-17.75404 16.05474,-25.86387 6.64756,-8.88635 13.51393,-17.62701 19.55538,-26.94734 5.78195,-9.24271 11.51698,-18.79436 12.22211,-29.95919 -0.19561,-11.46242 -2.77624,-18.46233 -10.51436,-27.06025 -6.87652,-6.73077 -14.4946,-12.91266 -23.67587,-16.17682 -7.66036,-1.87901 -13.34019,-1.31986 -19.57237,3.90424 1.59987,-1.66779 3.08566,-3.45303 4.79955,-5.0034 1.029,-0.93083 -1.87186,2.05151 -2.73621,3.13694 -3.66282,4.5996 -6.49107,9.79709 -8.85497,15.16194 -2.73089,6.70581 -5.11272,13.5995 -5.42038,20.90718 -0.0707,6.37851 0.64074,12.67939 2.82529,18.71796 0,0 -7.38887,6.80058 -7.38887,6.80058 z"
       inkscape:connector-curvature="0" />
    <path
       style="fill:#008000;fill-opacity:1;fill-rule:nonzero;stroke:none"
       id="path6085"
       d="m 869.75183,735.2277 c 4.61869,-6.48284 10.65676,-15.83743 19.22237,-16.13557 0.88787,-0.0309 1.76769,0.17987 2.65153,0.2698 6.54425,2.01723 9.01707,7.77665 10.08586,14.02851 0.3236,13.45818 -7.74457,18.67344 -17.0226,27.80219 -7.66431,4.53801 -12.02573,3.62005 -18.49345,-2.16247 -5.81744,-6.74858 -7.34172,-15.09653 -6.70457,-23.73398 1.61499,-8.74264 6.67643,-12.71428 13.74463,-18.8409 0.47072,-0.40802 1.20072,-0.44903 1.82262,-0.41308 0.59532,0.0344 1.11979,0.41034 1.6797,0.61551 1.84978,2.78248 1.18131,1.09877 1.38402,5.25551 0,0 -0.18415,0.19422 -0.18415,0.19422 l 0,0 c -5.14272,1.2189 -2.74062,0.66363 -7.20393,1.67587 -5.07087,1.84382 -9.59314,6.4415 2.12511,-4.73097 0.59982,-0.57186 -1.06841,1.27833 -1.48041,1.99738 -1.30464,2.27689 -1.36668,3.36226 -2.0038,5.9451 -0.75522,8.18809 0.59014,16.2322 6.04831,22.69707 6.00655,5.28563 10.04419,5.80522 16.81132,1.22552 -2.11064,2.21301 -4.1369,4.50968 -6.33193,6.63901 -0.85291,0.82737 1.60506,-1.76007 2.29773,-2.72558 2.79763,-3.89964 4.19165,-8.46393 4.19024,-13.24557 -0.66874,-5.7357 -2.53312,-11.39143 -8.69775,-13.06505 -2.16799,-0.0745 -2.69084,-0.30574 -4.7911,0.50146 -0.83115,0.31943 -2.87465,1.97721 -2.36065,1.25014 1.72363,-2.43801 4.08704,-4.3539 6.10846,-6.55133 0.65752,-0.7148 -1.39558,1.35633 -2.01654,2.10313 -0.55559,0.66816 -1.00217,1.41991 -1.50327,2.12987 0,0 -9.37775,7.27421 -9.37775,7.27421 z"
       inkscape:connector-curvature="0" />
  </g>
</svg>
