<?xml version="1.0" encoding="UTF-8" standalone="no"?>
<!-- Created with Inkscape (http://www.inkscape.org/) -->

<svg
   xmlns:dc="http://purl.org/dc/elements/1.1/"
   xmlns:cc="http://creativecommons.org/ns#"
   xmlns:rdf="http://www.w3.org/1999/02/22-rdf-syntax-ns#"
   xmlns:svg="http://www.w3.org/2000/svg"
   xmlns="http://www.w3.org/2000/svg"
   xmlns:sodipodi="http://sodipodi.sourceforge.net/DTD/sodipodi-0.dtd"
   xmlns:inkscape="http://www.inkscape.org/namespaces/inkscape"
   width="1024"
   height="768"
   id="svg4160"
   version="1.1"
   inkscape:version="0.48.4 r9939"
   sodipodi:docname="git-befehle2.svg">
  <defs
     id="defs4162" />
  <sodipodi:namedview
     id="base"
     pagecolor="#ffffff"
     bordercolor="#666666"
     borderopacity="1.0"
     inkscape:pageopacity="0.0"
     inkscape:pageshadow="2"
     inkscape:zoom="0.86588542"
     inkscape:cx="707.21666"
     inkscape:cy="371.18049"
     inkscape:document-units="px"
     inkscape:current-layer="g4338"
     showgrid="false"
     inkscape:window-width="798"
     inkscape:window-height="884"
     inkscape:window-x="0"
     inkscape:window-y="14"
     inkscape:window-maximized="0" />
  <metadata
     id="metadata4165">
    <rdf:RDF>
      <cc:Work
         rdf:about="">
        <dc:format>image/svg+xml</dc:format>
        <dc:type
           rdf:resource="http://purl.org/dc/dcmitype/StillImage" />
        <dc:title />
      </cc:Work>
    </rdf:RDF>
  </metadata>
  <g
     inkscape:label="Ebene 1"
     inkscape:groupmode="layer"
     id="layer1"
     transform="translate(0,-284.36218)">
    <g
       id="g4356"
       transform="matrix(0.99916797,0.04078434,-0.04078434,0.99916797,18.677246,9.9886709)">
      <path
         style="fill:#000080;fill-opacity:1;fill-rule:nonzero;stroke:none"
         id="path4393"
         d="m 114.82985,65.538887 c -4.70078,-1.731517 -9.64938,-2.413892 -14.62248,-2.698124 -8.14437,-0.267864 -16.001317,1.937421 -23.699037,4.326075 -8.744189,2.768914 -16.929389,6.809668 -24.401296,12.101815 -7.841216,7.263328 -0.436866,-0.07865 -0.339001,-0.0217 1.060634,0.617256 -1.596308,1.86906 -2.302094,2.872959 -2.170412,3.087163 -3.244,6.221196 -4.199638,9.825038 -1.572214,9.761489 0.993468,19.377879 4.032203,28.584849 3.249029,8.29238 7.536064,16.61253 14.745058,22.17306 1.317803,1.01646 2.794085,1.80894 4.191127,2.71342 9.425949,4.80767 19.887593,4.08082 30.101185,3.39465 4.722863,-0.37495 8.138263,-0.9708 12.648313,0.60967 0,0 -0.10264,0.12492 -0.10264,0.12492 l 0,0 c -5.58083,2.54245 -11.224385,4.59701 -17.411225,5.05824 -10.40577,1.01424 -21.074313,1.36689 -30.644576,-3.5488 -1.426119,-0.93499 -2.932299,-1.75801 -4.278358,-2.80498 -7.28817,-5.66879 -11.674457,-14.07008 -15.002391,-22.47726 -3.122573,-9.29749 -5.787431,-19.00443 -4.354934,-28.894757 0.785852,-3.21575 0.79809,-4.033598 2.253991,-7.001224 3.370212,-6.869654 9.531089,-11.947585 15.295907,-16.753707 7.553903,-5.185456 15.779536,-9.162107 24.541963,-11.893743 7.735127,-2.335098 15.652429,-4.324666 23.803183,-4.025642 5.01844,0.360748 9.95981,1.162345 14.70157,2.914105 0,0 -4.95683,5.421135 -4.95683,5.421135 z"
         inkscape:connector-curvature="0"
         transform="matrix(0.99916798,-0.04078434,0.04078434,0.99916798,-7.4715635,274.90696)" />
      <path
         style="fill:#000080;fill-opacity:1;fill-rule:nonzero;stroke:none"
         id="path4395"
         d="m 157.74874,120.1464 c -2.16058,-3.83751 -5.25617,-7.18625 -9.20496,-9.22826 -0.91096,-0.47108 -1.88819,-0.80114 -2.83229,-1.20172 -6.77362,-2.08108 -12.82707,-0.69259 -19.12741,2.0765 0.65641,-2.52553 -6.51371,5.78665 -5.53452,3.77885 0.60504,-1.24063 1.63802,-2.68818 3.00946,-2.84433 1.09587,-0.12477 -1.34807,1.75547 -1.88887,2.71674 -1.51586,2.6944 -1.52178,3.63103 -2.25554,6.63379 -0.75414,6.65115 0.8219,13.37796 4.82869,18.81369 0.79921,1.08424 1.77489,2.02659 2.66233,3.03989 5.55405,4.98034 12.63805,6.67867 19.89129,4.82317 1.52944,-0.39126 2.97652,-1.05329 4.46477,-1.57993 2.88178,-1.63193 5.3593,-2.69993 7.58176,-5.26533 0.75688,-0.87368 -2.18917,3.11359 -2.75526,2.10576 -0.67256,-1.19737 1.38977,-2.38339 1.8784,-3.66685 1.1917,-3.13018 1.03548,-4.53849 1.24364,-7.81568 -0.31847,-5.36205 -2.17704,-10.54215 -4.78699,-15.19916 0,0 0.11126,-0.11731 0.11126,-0.11731 l 0,0 c 2.19776,0.2139 4.15555,0.11098 6.07959,1.45282 2.87288,2.00357 3.72982,5.81108 4.35286,8.97128 0.0526,3.49641 0.35772,4.46044 -0.79665,7.87965 -1.89375,5.60924 -5.39839,8.12056 -9.99744,12.68578 -1.08416,1.07618 -2.31056,2.01391 -3.5901,2.84837 -1.33045,0.86766 -2.80497,1.49125 -4.20746,2.23688 -1.52607,0.49822 -3.01375,1.13469 -4.57821,1.49467 -7.51527,1.72922 -14.79048,-0.1937 -20.48866,-5.32971 -0.91734,-1.04466 -1.92301,-2.01793 -2.75204,-3.13397 -4.16771,-5.61055 -5.76996,-12.50586 -5.08583,-19.3945 0.25851,-1.20635 0.41241,-2.43997 0.77552,-3.61906 2.37234,-7.70338 9.50427,-13.56421 16.37788,-17.28093 6.28548,-2.5276 12.81611,-3.92456 19.39185,-1.47513 0.94394,0.45316 1.92543,0.83524 2.83182,1.3595 3.96003,2.29046 6.97719,5.85056 9.0729,9.86761 0,0 -4.67179,4.36692 -4.67179,4.36692 z"
         inkscape:connector-curvature="0"
         transform="matrix(0.99916798,-0.04078434,0.04078434,0.99916798,-7.4715635,274.90696)" />
      <path
         style="fill:#000080;fill-opacity:1;fill-rule:nonzero;stroke:none"
         id="path4397"
         d="m 176.20873,106.73413 c 4.51344,5.8357 8.78179,11.85776 12.99538,17.91204 3.27697,4.67775 6.39913,9.46983 8.89881,14.61175 1.78429,4.02521 1.21372,3.15765 -5.10116,7.42493 -0.18309,0.12372 -0.76221,-0.86542 -1.37814,-1.83479 -2.62434,-5.13773 -2.97463,-10.92937 -2.972,-16.58828 0.35834,-6.08086 1.61891,-12.28369 4.92145,-17.50411 0.56702,-0.89629 1.26085,-1.70577 1.89127,-2.55866 5.03406,-5.50828 10.27299,-11.598117 18.40973,-10.289529 1.01463,0.163176 1.98786,0.522294 2.98178,0.783441 7.59093,3.000488 11.97023,9.644128 15.68658,16.538298 3.10189,6.37602 5.2744,13.16382 6.23567,20.18736 1.1363,3.36836 -3.24731,12.89256 -6.98201,9.18003 -0.31055,-0.30871 -0.51419,-0.70892 -0.77128,-1.06338 -2.48227,-5.59077 -1.83084,-11.85646 -0.96811,-17.72997 2.17765,-10.45804 7.88069,-18.02975 17.00047,-23.95714 4.99013,-2.381496 10.34209,-2.111663 14.81881,1.28999 0.93644,0.71155 1.72718,1.5968 2.59077,2.3952 5.16196,6.13142 7.53553,13.13197 8.36668,20.99826 -9.7e-4,3.12536 -0.21694,6.21013 -1.96833,8.91712 -0.62749,0.96986 -1.47625,1.77712 -2.21437,2.66568 0,0 -0.12803,0.0987 -0.12803,0.0987 l 0,0 c -0.17417,-0.14634 -0.4352,-0.22894 -0.52252,-0.439 -0.81925,-1.97087 0.14509,-4.38465 -0.71958,-6.35997 -1.37099,-7.29362 -3.38488,-14.55131 -8.37638,-20.27177 -0.82795,-0.75777 -1.5839,-1.60263 -2.48384,-2.27331 -4.338,-3.23288 -9.4697,-3.18317 -14.1309,-0.71354 -0.89484,0.63347 -2.93804,2.96706 -2.68451,1.90041 0.33052,-1.3906 1.56677,-2.8141 2.96833,-3.09451 1.2072,-0.24152 -1.56103,1.91096 -2.22724,2.94624 -2.14075,3.32668 -3.44238,7.06476 -4.26994,10.9109 -0.88508,5.67929 -1.54862,11.70369 0.69763,17.17072 1.92332,2.96364 2.97785,-0.97698 -4.31782,6.26943 -0.18573,0.18448 0.30288,-0.43941 0.37108,-0.69215 0.25405,-0.94148 0.11339,-2.0549 0.0744,-2.98858 -0.95478,-6.93497 -3.02384,-13.66154 -6.05127,-19.97888 -3.58117,-6.714 -7.75167,-13.26927 -15.17249,-16.13569 -4.07601,-0.96426 -7.01698,-1.23346 -10.85202,0.87483 -0.83441,0.45872 -2.7664,2.47162 -2.35892,1.61103 0.66355,-1.40137 2.13085,-2.25299 3.19628,-3.37949 -0.65769,0.8274 -1.37913,1.60791 -1.97307,2.4822 -3.45179,5.08112 -4.79759,11.21453 -5.22622,17.24918 -0.0351,5.50543 0.30425,11.1384 2.79865,16.16065 0.20858,0.34055 0.39824,0.69344 0.62574,1.02166 0.12417,0.17914 0.56025,0.32412 0.42615,0.49595 -6.61606,8.47689 -4.16698,7.07609 -5.70231,3.41679 -2.48206,-5.12365 -5.47069,-9.96911 -8.67746,-14.67037 -4.12645,-6.13756 -8.2062,-12.31035 -12.50438,-18.32961 0,0 4.77859,-4.66011 4.77859,-4.66011 z"
         inkscape:connector-curvature="0"
         transform="matrix(0.99916798,-0.04078434,0.04078434,0.99916798,-7.4715635,274.90696)" />
      <path
         style="fill:#000080;fill-opacity:1;fill-rule:nonzero;stroke:none"
         id="path4399"
         d="m 287.022,109.82119 c 1.68546,5.60062 4.08066,10.93538 6.53245,16.23177 2.24438,4.51037 4.3793,9.0821 6.76277,13.522 1.41186,2.29564 2.08643,0.80878 -5.18753,5.17751 -0.35056,0.21054 -0.14598,-0.80478 -0.2098,-1.20869 -0.35165,-2.22557 -0.27805,-1.88123 -0.53078,-4.37704 -0.72012,-7.591 0.26887,-15.08831 2.32514,-22.38769 2.72706,-7.25301 7.92723,-14.70723 15.06663,-18.162661 0.85999,-0.41623 1.7951,-0.654906 2.69266,-0.982359 7.85681,-1.404596 12.3816,1.686397 17.84591,6.9214 5.00674,5.57179 8.16708,12.26602 9.62968,19.56235 0.0472,1.39621 0.74622,5.32488 -0.45406,6.54657 -6.06078,6.16896 -3.9711,7.41475 -6.92586,4.9913 -2.11574,-4.71195 -0.14085,-10.14477 1.6193,-14.64777 1.51629,-3.14478 3.44316,-6.10427 5.91296,-8.59144 5.57333,-5.61252 7.43502,-7.88583 13.50993,-11.03931 4.29336,-1.742619 9.04711,-2.243869 13.21439,0.16511 0.79258,0.45816 1.48284,1.07404 2.22426,1.61105 4.9454,4.7271 6.43506,11.27334 7.13,17.82845 0.61075,4.13594 -0.70208,7.97042 -1.6688,11.91105 0,0 -0.12269,0.10531 -0.12269,0.10531 l 0,0 c -0.95825,-1.83856 -0.37497,-0.92395 -1.80148,-2.71022 -0.73088,-1.33242 -1.13514,-3.39891 -1.48882,-4.80853 -1.55111,-5.94907 -2.95512,-12.2126 -7.57114,-16.61931 -0.7013,-0.49668 -1.35304,-1.07206 -2.10391,-1.49006 -4.02053,-2.2382 -8.60169,-1.51009 -12.63169,0.24463 -0.89378,0.48926 -1.82104,0.92179 -2.68133,1.46779 -3.10963,1.97357 -4.29505,3.74741 0.28706,-1.29642 0.78052,-0.85918 -1.61472,1.67178 -2.34853,2.57118 -1.98275,2.43017 -2.20455,3.09673 -3.72774,5.80781 -1.78601,4.27245 -3.62211,9.19934 -2.24358,13.8582 2.17535,1.5504 0.37075,0.15789 -4.77716,5.39658 -0.21519,0.21899 0.43051,-0.45357 0.55775,-0.73298 0.40809,-0.89611 0.50733,-2.18716 0.49656,-3.12099 -0.009,-0.77459 -0.11711,-1.54485 -0.17567,-2.31728 -1.45077,-7.11996 -4.46859,-13.71676 -9.37159,-19.15755 -5.13892,-4.92886 -9.69198,-8.12698 -17.09423,-6.44475 -0.85506,0.35501 -1.74973,0.62662 -2.56517,1.06504 -0.84393,0.45374 -2.74864,2.48671 -2.38904,1.59857 0.55989,-1.38278 1.83791,-2.41185 3.06302,-3.26313 0.88954,-0.61812 -1.41503,1.64643 -2.0248,2.54171 -1.72775,2.53674 -2.02981,3.64046 -3.24626,6.48654 -2.19027,7.20534 -3.2452,14.63537 -2.52248,22.17616 0.22055,2.1773 0.19611,2.32346 0.52465,4.30303 0.0668,0.40226 0.47152,0.87307 0.22985,1.20149 -3.88516,5.27973 -4.44596,8.13135 -5.85532,4.87005 -2.11373,-4.61485 -4.5144,-9.09563 -6.56525,-13.74082 -2.41073,-5.4165 -4.71193,-10.91066 -6.23568,-16.65339 0,0 4.89542,-4.41026 4.89542,-4.41026 z"
         inkscape:connector-curvature="0"
         transform="matrix(0.99916798,-0.04078434,0.04078434,0.99916798,-7.4715635,274.90696)" />
      <path
         style="fill:#000080;fill-opacity:1;fill-rule:nonzero;stroke:none"
         id="path4401"
         d="m 391.30684,102.74227 c -0.9251,5.9324 -0.40881,11.90711 0.58942,17.78615 1.41048,6.80646 3.80564,11.10625 9.04153,15.62172 4.76238,3.60311 10.3364,4.57247 16.15747,4.44835 1.55605,-0.0754 2.47998,-0.15423 3.9822,-0.11627 0.36809,0.009 0.7864,-0.11256 1.1019,0.0773 0.36786,0.22132 -0.18018,1.13792 0.24955,0.29811 0,0 0.12913,-0.0973 0.12913,-0.0973 l 0,0 c -2.78532,3.74486 -5.95929,5.47363 -10.61338,5.8816 -5.9862,-8.6e-4 -11.70347,-1.11875 -16.56937,-4.8484 -5.34918,-4.64252 -7.90949,-9.05559 -9.39892,-16.03021 -1.05234,-5.92275 -1.65128,-11.96338 -0.80163,-17.95894 0,0 6.1321,-5.06206 6.1321,-5.06206 z"
         inkscape:connector-curvature="0"
         transform="matrix(0.99916798,-0.04078434,0.04078434,0.99916798,-7.4715635,274.90696)" />
      <path
         style="fill:#000080;fill-opacity:1;fill-rule:nonzero;stroke:none"
         id="path4403"
         d="m 379.70569,83.381354 c -1.05788,-2.80088 -1.72327,-5.897588 0.16795,-8.444542 1.93034,-1.702891 3.70835,-3.595877 5.79101,-5.108673 0.40678,-0.29548 0.99417,-0.179682 1.49692,-0.185107 2.52918,-0.02729 4.73374,1.073383 6.84355,2.328583 3.24489,2.697503 4.59274,4.749065 3.1677,8.912108 -3.19946,4.799835 -7.90311,10.432071 -14.22566,9.228392 -0.74478,-0.14179 -1.44789,-0.450369 -2.17184,-0.675553 -3.48418,-1.776677 -6.3368,-4.748144 -6.36566,-8.880585 -0.005,-0.750495 0.17307,-1.491017 0.2596,-2.236525 1.8918,-3.503387 0.83283,-1.880927 3.13925,-4.891759 0,0 0.12787,-0.09895 0.12787,-0.09895 l 0,0 c 0.28487,0.987513 0.0118,0.512273 0.99932,1.305798 1.22646,3.768447 3.5077,7.167336 7.18311,8.892658 2.11478,0.568943 3.88418,0.901111 6.01828,0.107516 0.60472,-0.224872 2.07997,-1.426844 1.71695,-0.893491 -1.13132,1.662147 -2.7212,2.961055 -4.1123,4.412769 -0.40419,0.421809 0.76708,-0.88135 1.15062,-1.322025 1.85481,-3.707207 0.93595,-5.776032 -2.0469,-8.483815 -1.42916,-1.032877 -2.79443,-1.969382 -4.55863,-2.338064 -0.47806,-0.09991 -0.97033,-0.154765 -1.45848,-0.13973 -0.42658,0.01314 -1.48239,0.588158 -1.26069,0.223475 0.93004,-1.529904 2.37761,-2.677562 3.56641,-4.016343 -2.68318,2.421547 -1.55987,5.062056 -0.93555,8.207826 0,0 -4.49283,4.096034 -4.49283,4.096034 z"
         inkscape:connector-curvature="0"
         transform="matrix(0.99916798,-0.04078434,0.04078434,0.99916798,-7.4715635,274.90696)" />
      <path
         style="fill:#000080;fill-opacity:1;fill-rule:nonzero;stroke:none"
         id="path4405"
         d="m 435.24019,44.734749 c -2.43814,6.89491 -2.68771,14.216466 -2.67479,21.449233 0.41242,10.328052 2.60915,20.530291 6.38096,30.152895 0.78717,2.008212 1.71645,3.957773 2.57467,5.936663 3.95335,8.08925 9.06107,15.78211 16.50538,21.05974 1.14883,0.81446 2.39553,1.48123 3.5933,2.22185 5.884,3.29487 11.19579,3.56827 17.67319,3.7419 2.11664,0.33521 2.77073,-0.77453 2.39845,1.583 0,0 -0.10036,0.12677 -0.10036,0.12677 l 0,0 c -2.34604,1.97233 -3.91948,3.25252 -6.98543,3.85771 -0.8426,0.1271 -1.67727,0.32895 -2.52779,0.38132 -5.54332,0.34133 -11.02324,-1.55569 -15.88529,-4.01126 -1.21575,-0.76703 -2.48105,-1.46064 -3.64726,-2.30107 -7.50362,-5.40747 -12.68385,-13.1945 -16.69593,-21.39867 -0.86899,-1.99344 -1.8078,-3.95788 -2.60698,-5.98031 -3.82018,-9.667493 -6.10023,-19.910706 -6.61136,-30.294707 -0.0925,-7.418467 0.17918,-14.937879 2.84397,-21.962383 0,0 5.76527,-4.562681 5.76527,-4.562681 z"
         inkscape:connector-curvature="0"
         transform="matrix(0.99916798,-0.04078434,0.04078434,0.99916798,-7.4715635,274.90696)" />
      <path
         style="fill:#000080;fill-opacity:1;fill-rule:nonzero;stroke:none"
         id="path4407"
         d="m 461.5227,95.150329 c -8.96228,-0.767736 -17.92198,-1.520408 -26.9048,-2.006963 -11.08546,-0.557014 -22.18636,-0.622838 -33.27237,-0.0987 -4.97296,0.125171 -9.84538,1.067296 -14.73915,1.822347 -1.35749,-0.335425 1.01921,-1.643636 1.37333,-1.862391 0,0 -0.12172,0.106434 -0.12172,0.106434 l 0,0 c 0.7995,-1.727418 1.74642,-3.377023 3.58613,-4.183341 4.81687,-1.470058 10.00247,-1.372696 14.96872,-1.868662 11.09186,-0.441654 22.19434,-0.336153 33.28253,0.203241 8.8007,0.464006 17.68873,0.81429 26.30628,2.809144 0,0 -4.47895,5.078895 -4.47895,5.078895 z"
         inkscape:connector-curvature="0"
         transform="matrix(0.99916798,-0.04078434,0.04078434,0.99916798,-7.4715635,274.90696)" />
    </g>
    <g
       id="g4338"
       transform="matrix(0.87560596,0.05350148,-0.05350148,0.87560596,-5.8337817,89.75078)">
      <path
         inkscape:connector-curvature="0"
         d="m 173.48605,320.23425 c -0.78642,12.84646 0.33054,25.72346 1.34654,38.52505 1.57859,17.36163 3.68424,34.6683 5.38326,52.01797 0.42523,5.53921 1.00879,11.08125 1.14403,16.63966 0.0405,1.66451 0.0455,4.73861 -0.29831,6.50257 -0.13679,0.7018 -0.44626,1.35859 -0.6694,2.03788 -0.2393,0.31455 -0.47861,0.6291 -0.71792,0.94365 0,0 -0.12565,0.10175 -0.12565,0.10175 l 0,0 c -0.16447,0.0353 -0.32894,0.0705 -0.4934,0.10575 -0.26051,-0.25617 -0.61159,-0.44506 -0.78152,-0.76849 -0.60758,-1.15636 -1.12995,-4.0906 -1.29952,-5.10647 -0.87818,-5.26083 -1.30951,-10.59085 -2.00955,-15.87485 -1.95813,-17.25649 -4.01701,-34.50334 -5.66731,-51.79289 -1.08574,-12.8063 -2.27193,-25.69352 -1.52301,-38.55309 0,0 5.71176,-4.77849 5.71176,-4.77849 z"
         id="path4306"
         style="fill:#ff6600;fill-opacity:1;fill-rule:nonzero;stroke:none"
         transform="translate(0,284.36218)" />
      <path
         inkscape:connector-curvature="0"
         d="m 136.65357,319.18112 c 0.0663,11.19765 1.73717,22.29997 3.34011,33.35638 2.8672,18.01852 6.50301,35.90097 9.65593,53.86965 0.7312,4.47233 1.3645,8.12562 1.9649,12.56979 0.54284,4.0181 1.21981,8.04146 -0.0567,11.97148 0,0 -0.11861,0.10988 -0.11861,0.10988 l 0,0 c -0.33393,-0.0124 -0.70818,0.1225 -1.00177,-0.0371 -1.43556,-0.78023 -1.86404,-2.47217 -2.30656,-3.87792 -1.65838,-5.26817 -2.35864,-10.8029 -3.6444,-16.15824 -3.56121,-17.8309 -7.02864,-35.68624 -9.96663,-53.63182 -1.6732,-11.115 -3.45299,-22.32292 -3.26662,-33.59684 0,0 5.40036,-4.57529 5.40036,-4.57529 z"
         id="path4308"
         style="fill:#ff6600;fill-opacity:1;fill-rule:nonzero;stroke:none"
         transform="translate(0,284.36218)" />
      <path
         inkscape:connector-curvature="0"
         d="m 199.57986,350.08561 c -13.56204,0.25791 -27.00865,2.16959 -40.39443,4.21027 -18.87396,3.079 -37.5657,7.12241 -56.07225,11.92093 -6.05743,1.71031 -5.022841,1.32839 -10.349911,3.12423 -2.912032,0.98169 -1.906008,0.43736 -3.765728,1.72694 0,0 0.09584,-0.13022 0.09584,-0.13022 l 0,0 c 0.761467,-0.74717 1.436687,-1.59384 2.284401,-2.24151 4.512665,-3.44776 10.059738,-5.03888 15.318408,-6.91539 18.78691,-5.68128 37.94067,-10.10255 57.30827,-13.30451 13.48311,-2.08337 27.03643,-4.09567 40.70009,-4.39758 0,0 -5.12469,6.00684 -5.12469,6.00684 z"
         id="path4310"
         style="fill:#ff6600;fill-opacity:1;fill-rule:nonzero;stroke:none"
         transform="translate(0,284.36218)" />
      <path
         inkscape:connector-curvature="0"
         d="m 213.76446,376.32482 c -12.38773,3.45607 -25.21772,5.12631 -37.89905,7.1491 -18.2222,2.94446 -36.5045,5.56721 -54.49982,9.72027 -3.35104,1.63481 -7.31926,1.3929 -10.74321,2.79626 -1.47837,0.60592 -2.76642,1.59932 -4.14963,2.39898 0,0 0.0982,-0.12845 0.0982,-0.12845 l 0,0 c 5.75603,-3.5908 11.48296,-7.28314 18.09712,-9.14125 2.66361,-0.78119 5.30853,-1.62917 7.99082,-2.34357 15.76864,-4.19984 31.96329,-6.48072 48.03605,-9.14364 12.61103,-2.05941 25.23988,-4.08138 37.68341,-7.02115 0,0 -4.61389,5.71345 -4.61389,5.71345 z"
         id="path4312"
         style="fill:#ff6600;fill-opacity:1;fill-rule:nonzero;stroke:none"
         transform="translate(0,284.36218)" />
      <path
         inkscape:connector-curvature="0"
         d="m 346.81423,656.19798 c -2.76375,-4.6407 -6.26294,-8.68183 -10.40122,-12.12996 -3.57463,-2.57964 -7.80904,-4.26201 -12.27218,-3.32541 -0.82591,0.17332 -1.60876,0.51042 -2.41314,0.76563 0.68237,-1.75193 -5.61666,4.36303 -4.43802,3.01735 0.97285,-1.11071 1.83627,-2.57467 3.24585,-3.01421 0.97641,-0.30447 -1.21872,1.64912 -1.72253,2.53921 -1.40935,2.48988 -1.46286,3.27818 -2.25502,6.01456 -0.98918,5.58256 0.0277,11.2215 3.19294,15.97324 0.5855,0.87898 1.30776,1.65874 1.96164,2.48811 4.76375,4.5552 7.49943,5.33997 13.19551,1.93409 0.6344,-0.52661 2.44037,-2.20529 1.90319,-1.57982 -1.05006,1.22265 -2.20389,2.36596 -3.45302,3.38438 -0.64677,0.52732 1.1084,-1.24869 1.63124,-1.89908 1.43964,-1.79082 2.67246,-3.73174 3.924,-5.65423 3.05277,-4.64937 7.40645,-10.23173 12.26686,-12.63074 4.17171,-1.40541 7.46813,1.00058 10.49571,3.62215 5.77048,5.81758 8.90188,13.38675 11.52879,20.99942 2.78194,9.51335 3.91218,19.51401 2.6973,29.38585 -0.26228,2.13115 -0.73229,4.23157 -1.09843,6.34735 -3.60627,14.51877 -10.06211,22.81567 -21.2816,32.79016 -1.59221,1.41553 -3.50329,2.42537 -5.25494,3.63806 -10.08665,5.5478 -21.41976,6.70924 -32.5573,3.92573 -2.27066,-0.56749 -4.45778,-1.42827 -6.68667,-2.14241 -8.73219,-3.8296 -17.73757,-8.53984 -24.08556,-15.89123 -0.81542,-0.94431 -1.46306,-2.02138 -2.19459,-3.03207 -2.68122,-5.44196 -1.48982,-7.6571 1.30406,-12.66122 0,0 0.12575,-0.10163 0.12575,-0.10163 l 0,0 c 1.20093,2.57592 2.09149,5.31687 3.90639,7.55388 7.03991,8.2848 15.98193,14.46937 26.12923,18.4255 2.20398,0.69107 4.36683,1.5304 6.61192,2.07322 11.04407,2.67022 22.2283,1.32722 32.10474,-4.3354 1.71668,-1.23318 3.35583,-2.58217 5.15005,-3.69954 0.35176,-0.21906 -1.02849,1.29996 -0.77301,0.97368 1.32413,-1.6911 2.7667,-3.29513 3.97897,-5.06813 3.68516,-5.38971 6.17682,-11.4215 7.78942,-17.72621 0.3951,-2.10775 0.89735,-4.19819 1.18529,-6.32323 1.32647,-9.78973 0.30672,-19.75112 -2.44913,-29.20357 -2.56778,-7.49159 -5.66538,-14.93782 -11.29858,-20.69137 -2.82197,-2.49949 -5.90754,-4.79 -9.77299,-3.10275 -2.99208,1.74683 -1.28456,0.91054 2.58694,-3.33471 0.37149,-0.40735 -0.81681,0.74267 -1.19166,1.14692 -1.29275,1.39414 -2.30485,3.016 -3.34022,4.60007 -3.93229,6.11431 -8.34439,11.95787 -14.45044,16.14807 -0.73861,0.38716 -1.43844,0.85962 -2.21582,1.16148 -4.56902,1.77416 -8.73108,-0.35665 -11.89673,-3.6823 -0.66752,-0.87022 -1.40345,-1.69201 -2.00257,-2.61067 -3.21064,-4.92304 -4.37493,-10.71142 -3.48757,-16.49478 0.28312,-1.07522 0.48875,-2.1739 0.84938,-3.22567 2.37669,-6.93154 8.2691,-12.65967 14.77669,-15.78352 0.83508,-0.21672 1.65338,-0.51358 2.50524,-0.65017 4.6333,-0.74291 8.99972,1.03452 12.66717,3.74535 4.16266,3.5458 7.78098,7.63198 10.42729,12.45111 0,0 -5.14862,4.88946 -5.14862,4.88946 z"
         id="path4314"
         style="fill:#ff6600;fill-opacity:1;fill-rule:nonzero;stroke:none" />
      <path
         inkscape:connector-curvature="0"
         d="m 394.03558,631.8844 c -1.72386,7.57925 -0.21561,15.21246 1.90175,22.5298 2.45968,6.69022 6.02824,13.32883 12.07828,17.4399 0.98466,0.66908 2.08217,1.15474 3.12325,1.73211 5.29005,2.3583 10.56055,1.12866 15.91382,-0.10895 1.25879,-0.35701 1.20092,-0.24504 1.03075,0.74112 0,0 -0.0951,0.13078 -0.0951,0.13078 l 0,0 c -1.45936,1.68081 -2.96995,3.33382 -5.0356,4.28455 -5.78392,2.68769 -11.21845,3.18391 -17.23863,0.68114 -1.07034,-0.61194 -2.19786,-1.13325 -3.21102,-1.83582 -6.13561,-4.25474 -9.8226,-10.97934 -12.37223,-17.81157 -2.21109,-7.42171 -3.8923,-15.20618 -2.14333,-22.92271 0,0 6.04803,-4.86035 6.04803,-4.86035 z"
         id="path4316"
         style="fill:#ff6600;fill-opacity:1;fill-rule:nonzero;stroke:none" />
      <path
         inkscape:connector-curvature="0"
         d="m 381.20554,611.05726 c -2.34393,-1.78831 -4.66134,-3.56581 -4.61698,-6.73669 3.50296,-8.26291 8.77777,-8.51472 15.58205,-6.71775 4.0635,1.5725 8.67156,3.86604 10.5071,8.13378 0.28346,0.65905 0.3611,1.38866 0.54165,2.083 -0.18251,1.63948 -0.0265,2.63074 -1.27575,3.94218 -6.81139,7.15047 -7.82298,8.69741 -16.56805,8.27862 -4.54006,-0.91441 -10.4179,-2.73892 -12.23243,-7.60159 -0.25888,-0.69376 -0.25891,-1.45817 -0.38836,-2.18725 0.32936,-2.78729 1.81648,-4.68106 3.87241,-6.49469 5.15851,-4.55058 2.98022,-4.70067 6.32517,-3.9367 0,0 -0.0997,0.12731 -0.0997,0.12731 l 0,0 c -1.0649,0.76644 -1.97376,1.81893 -3.19469,2.29931 -0.55178,0.2171 1.46797,-1.0462 1.03244,-1.44857 -0.17873,-0.16513 -3.34943,3.73382 -2.30101,4.44787 0.13366,0.60479 0.15734,1.24491 0.40097,1.81436 1.93636,4.52599 7.35044,6.23146 11.74043,6.98336 2.66727,0.0437 3.65111,0.2745 6.21273,-0.50092 0.86923,-0.26312 2.81329,-1.95116 2.49184,-1.10177 -0.65053,1.71896 -2.37116,2.812 -3.64167,4.14009 -0.4727,0.49412 0.94325,-1.01747 1.24258,-1.63229 0.27254,-0.55979 0.29089,-1.21076 0.43633,-1.81615 -0.12181,-0.63694 -0.13411,-1.30499 -0.36541,-1.91081 -1.56798,-4.10683 -6.14715,-6.31005 -9.89418,-7.88953 -1.92675,-0.51839 -2.80202,-0.89107 -4.77719,-0.92139 -0.64181,-0.01 -1.29088,0.042 -1.91682,0.18418 -0.50959,0.11573 -1.75356,1.01113 -1.45574,0.58174 0.96498,-1.39135 6.10841,-6.70979 3.49797,-3.68342 -0.62428,2.89556 1.94673,4.65279 3.92105,6.32951 0,0 -5.07677,5.23421 -5.07677,5.23421 z"
         id="path4318"
         style="fill:#ff6600;fill-opacity:1;fill-rule:nonzero;stroke:none" />
      <path
         inkscape:connector-curvature="0"
         d="m 447.50583,571.90946 c -2.73319,8.87083 -3.10405,18.14508 -3.02951,27.35187 0.60661,13.15808 3.61155,26.11289 8.7664,38.23375 1.05284,2.4756 2.2879,4.86967 3.43185,7.3045 4.95484,8.92141 10.55119,18.41985 19.51892,23.90007 1.2197,0.74536 2.5623,1.2679 3.84344,1.90186 5.9043,2.21863 11.90846,1.27014 17.77883,-0.44177 1.22602,-0.0992 0.69812,-0.0847 1.58203,-0.0851 0,0 -0.0964,0.12984 -0.0964,0.12984 l 0,0 c -3.1099,3.11727 -1.4547,1.6506 -4.97262,4.39207 -7.09492,3.77165 -11.89301,4.36979 -19.6642,1.7307 -1.30592,-0.67075 -2.67461,-1.23126 -3.91774,-2.01224 -9.008,-5.65907 -14.65867,-15.24161 -19.66584,-24.29595 -1.15361,-2.45101 -2.39667,-4.86188 -3.46083,-7.35303 -5.198,-12.16826 -8.29874,-25.16079 -9.02045,-38.37515 -0.117,-9.42907 0.32946,-18.91521 3.34549,-27.94143 0,0 5.56059,-4.43995 5.56059,-4.43995 z"
         id="path4320"
         style="fill:#ff6600;fill-opacity:1;fill-rule:nonzero;stroke:none" />
      <path
         inkscape:connector-curvature="0"
         d="m 469.20026,634.88913 c -7.15889,-0.4096 -14.30795,-0.42284 -21.47136,-0.10118 -6.88089,0.35943 -13.7293,1.11227 -20.57948,1.82409 -2.55266,-0.0223 -4.04527,0.79194 -5.48366,-1.64673 0,0 0.10272,-0.12485 0.10272,-0.12485 l 0,0 c 3.27891,-1.93202 6.54494,-3.6834 10.37861,-4.22207 6.85303,-0.91349 13.75585,-1.40182 20.65447,-1.8223 7.12896,-0.29997 14.32851,-0.53478 21.42624,0.32141 0,0 -5.02754,5.77163 -5.02754,5.77163 z"
         id="path4322"
         style="fill:#ff6600;fill-opacity:1;fill-rule:nonzero;stroke:none" />
      <path
         style="fill:#ff6600;fill-opacity:1;fill-rule:nonzero;stroke:none"
         id="path4409"
         d="m 590.54991,605.28468 c -3.92924,-2.29465 -8.05937,-4.16312 -12.4019,-5.51093 -4.51896,-1.38384 -8.9614,-1.09916 -13.41866,0.26076 -0.7558,0.34093 -1.53504,0.63406 -2.26741,1.02278 -1.62819,0.86423 -3.10476,1.91937 -4.50208,3.11882 -0.75441,0.64758 -2.94448,2.66961 -2.1693,2.04706 2.96373,-2.38023 4.29422,-4.48222 0.99968,-0.0993 -3.41324,5.10191 -5.15839,10.97406 -5.24651,17.10778 -0.0214,1.49618 0.11628,2.99041 0.17442,4.48562 0.9888,8.67343 3.69207,17.1909 8.35602,24.6127 0.88183,1.40328 1.91834,2.70319 2.87751,4.05479 6.75756,7.59478 11.9954,9.27824 21.89114,8.80163 4.80074,0.0445 9.18233,-2.76389 13.93694,-2.61943 0,0 -0.0995,0.12745 -0.0995,0.12745 l 0,0 c -1.86615,1.38092 -3.39017,2.5871 -5.41977,3.75306 -4.08533,2.34691 -8.68926,3.77913 -13.32244,4.50115 -1.30783,0.0787 -2.61343,0.25534 -3.92351,0.23637 -7.58774,-0.10987 -13.91834,-3.58999 -18.70197,-9.38883 -0.97575,-1.37635 -2.03546,-2.69689 -2.92725,-4.12907 -4.69946,-7.54719 -7.37194,-16.23365 -8.44499,-25.01173 -0.0655,-1.52609 -0.21382,-3.05086 -0.19668,-4.57826 0.0707,-6.30354 1.86144,-12.37704 5.28376,-17.66791 3.694,-5.07101 1.81711,-2.75548 8.97758,-9.89055 2.57851,-2.56938 5.61651,-4.62921 9.06756,-5.81925 4.5113,-1.15591 9.04357,-1.22085 13.52351,0.223 4.32124,1.46933 8.45327,3.39252 12.354,5.77253 0,0 -4.40016,4.58979 -4.40016,4.58979 z"
         inkscape:connector-curvature="0" />
      <path
         style="fill:#ff6600;fill-opacity:1;fill-rule:nonzero;stroke:none"
         id="path4411"
         d="m 620.84683,628.82493 c 0.66699,-5.30861 -0.64815,-8.98888 -3.70378,-13.27505 -3.11116,-3.36537 -7.34099,-5.16733 -11.90363,-3.80626 -0.94364,0.28149 -1.81307,0.76909 -2.7196,1.15363 -0.88259,0.62015 -2.40902,2.9124 -2.64777,1.86047 -0.25622,-1.12891 1.97228,-3.3934 2.53008,-2.37902 0.60192,1.09463 -1.52939,1.98535 -2.15059,3.06915 -2.32827,4.06212 -2.89044,7.84212 -3.45616,12.39758 -0.13853,7.40075 1.40778,15.05968 6.14576,20.97117 0.76323,0.95225 1.70426,1.74721 2.55638,2.62082 3.58533,2.71047 7.71899,3.49557 11.7336,1.09306 0.97613,-0.58416 3.4857,-2.91764 2.67333,-2.12131 -0.951,0.93223 -2.06081,1.68728 -3.09121,2.53093 4.58426,-7.00145 4.59718,-15.1239 4.13092,-23.15855 -0.0224,-4.74199 0.0181,-2.43111 -0.1137,-6.93282 0,0 0.11888,-0.10956 0.11888,-0.10956 l 0,0 c 2.77187,2.1065 1.49435,0.88683 3.79576,3.69719 0.3497,1.00989 0.8051,1.98918 1.04911,3.02968 1.50519,6.41841 0.36049,13.18323 -2.77112,18.90689 -1.93266,2.04171 -6.77841,8.24284 -10.67178,10.26711 -4.34565,2.25942 -8.73278,1.1896 -12.44691,-1.67383 -0.87215,-0.92201 -1.83811,-1.76357 -2.61644,-2.76605 -4.76169,-6.13289 -6.21203,-14.11368 -6.13785,-21.68341 0.17611,-1.54912 0.24251,-3.11468 0.52835,-4.64735 1.636,-8.77209 7.49263,-15.89039 15.15759,-20.38024 0.93043,-0.32858 1.82907,-0.76706 2.79127,-0.98572 4.7563,-1.08089 9.04734,1.10917 12.13979,4.60813 3.07973,4.34336 4.58902,8.28552 4.01447,13.67976 0,0 -4.93475,4.0336 -4.93475,4.0336 z"
         inkscape:connector-curvature="0" />
      <path
         style="fill:#ff6600;fill-opacity:1;fill-rule:nonzero;stroke:none"
         id="path4413"
         d="m 647.08871,604.71486 c 1.34749,6.65043 3.66913,13.04969 6.01114,19.40086 2.55983,6.64479 5.19644,13.26027 7.84961,19.86837 0.56019,1.41156 1.10777,2.82805 1.65904,4.24312 0.076,0.19504 0.14855,0.39145 0.22775,0.58521 0.0363,0.0888 0.19631,0.20587 0.11874,0.26249 -2.01804,1.47298 -4.14406,2.79201 -6.2161,4.18801 -2.98249,-5.97775 -3.67749,-12.78573 -4.3714,-19.33887 -0.51156,-7.0788 -0.53465,-14.35502 1.62871,-21.19464 0.36335,-1.14876 0.85855,-2.25158 1.28782,-3.37738 2.8866,-5.68243 9.07361,-14.04783 15.71519,-14.61083 0.93634,-0.0794 1.87558,0.11963 2.81335,0.17944 7.74422,2.28507 11.94851,9.29978 15.49862,16.03124 2.69719,5.5768 4.40423,11.54145 4.9751,17.70209 0.0567,3.60241 -0.55473,3.42401 -6.08375,6.26787 -0.41439,0.21314 -0.36608,-0.86128 -0.47881,-1.31343 -0.43531,-1.74601 -0.44526,-3.08896 -0.58587,-4.91933 -0.0904,-6.14566 0.64942,-12.46102 3.26452,-18.09527 0.45467,-0.97958 1.04303,-1.89137 1.56455,-2.83705 3.21624,-3.85026 7.67202,-11.03498 13.49357,-9.37143 2.17319,0.621 2.96988,1.70883 4.62432,3.19045 5.60511,6.98082 7.55539,15.84724 9.02197,24.47423 0.5052,5.71456 1.41596,12.14424 -1.1004,17.56917 -0.38314,0.826 -0.93297,1.56394 -1.39946,2.34591 -0.49816,0.57477 -0.99632,1.14955 -1.49449,1.72433 0,0 -0.12902,0.0975 -0.12902,0.0975 l 0,0 c -0.045,-0.14282 -0.0901,-0.28565 -0.13515,-0.42847 -0.49245,-1.7304 -0.31819,-3.47237 -0.36471,-5.26249 -0.097,-3.73309 -0.41661,-7.45634 -0.9578,-11.15193 -1.43011,-8.45523 -3.2932,-17.1798 -8.73275,-24.05998 -1.85675,-1.67691 -3.55712,-3.41019 -6.31099,-2.90386 -0.7081,0.13019 -2.28611,1.45488 -2.01032,0.78983 0.61215,-1.47619 2.10349,-2.40656 3.17312,-3.59387 0.64228,-0.71296 -1.26065,1.44709 -1.89096,2.17063 -0.54652,0.92311 -1.16295,1.80826 -1.63955,2.76933 -2.70883,5.46239 -3.43139,11.67305 -3.30726,17.69316 0.17015,2.24757 0.12448,2.69502 0.53146,4.73088 0.0705,0.35295 0.50629,0.76208 0.28083,1.04266 -1.58327,1.97042 -3.59868,3.55061 -5.39807,5.32585 -0.34829,0.34361 2.517,-2.34618 0.42941,-1.40353 -0.36495,-6.08627 -2.22018,-11.97191 -4.75973,-17.48907 -2.88611,-5.5237 -6.27003,-11.79653 -12.1858,-14.61993 -0.86651,-0.41355 -1.82676,-0.59191 -2.74015,-0.88786 -2.36258,-0.0343 -2.90165,-0.30436 -5.10616,0.69253 -0.81577,0.3689 -2.61214,2.24863 -2.2821,1.41637 0.52797,-1.33139 1.74061,-2.36113 2.95676,-3.11766 1.8249,-1.13522 -6.11946,6.33338 -3.55545,5.37857 -0.43522,1.09535 -0.93619,2.16679 -1.30563,3.28601 -2.21959,6.7242 -2.18132,13.92716 -1.70227,20.90832 0.68458,6.41819 1.41953,13.05627 4.27607,18.93441 -1.67929,1.98298 -3.35214,3.97145 -5.03789,5.94895 -0.0449,0.0527 0.1175,-0.10419 0.11439,-0.17335 -0.01,-0.21075 -0.0896,-0.41271 -0.14992,-0.61487 -0.44003,-1.47459 -1.02257,-2.90587 -1.50263,-4.36673 -2.45501,-6.75678 -5.09983,-13.44328 -7.47629,-20.22892 -2.252,-6.52243 -4.46915,-13.0929 -5.59548,-19.92209 0,0 4.49032,-3.93488 4.49032,-3.93488 z"
         inkscape:connector-curvature="0" />
      <path
         style="fill:#ff6600;fill-opacity:1;fill-rule:nonzero;stroke:none"
         id="path4415"
         d="m 736.48068,610.48599 c 1.1381,7.5105 2.83348,14.91846 4.61569,22.29745 1.41102,5.53547 2.72651,11.0997 4.30424,16.59118 0.93836,3.20984 1.21998,2.54233 -5.22789,5.48592 -0.44317,0.20232 -0.17951,-0.95798 -0.2484,-1.44027 -0.2963,-2.07448 -0.33568,-2.94015 -0.52778,-5.15123 -0.71043,-8.66242 -0.14748,-17.32423 1.31907,-25.87159 0.97799,-4.30403 2.26819,-8.76653 5.66197,-11.82894 7.55421,-6.81662 4.44733,-5.64117 10.25391,-6.98801 6.77933,-0.18329 12.59939,3.40468 16.96913,8.3998 1.04998,1.20025 1.92895,2.53995 2.89343,3.80991 4.71758,7.29749 6.63704,15.62743 6.78556,24.21208 -0.26797,1.04906 0.11094,4.48692 -0.74283,5.44875 -0.66992,0.75472 -4.56452,8.30314 -6.54721,4.82384 -0.25923,-0.45491 -0.31443,-0.99885 -0.47165,-1.49828 -0.84785,-6.8998 1.44882,-13.49858 4.30203,-19.66025 1.66815,-3.15037 3.69933,-6.08937 6.29856,-8.54627 2.61617,-2.4729 5.78582,-6.66576 9.79832,-7.86886 0.72318,-0.21684 1.4948,-0.21352 2.24221,-0.32027 0.71121,0.14695 1.46063,0.16794 2.13364,0.44084 4.71411,1.91158 6.05045,7.96868 7.16242,12.30493 1.55736,7.0709 1.20425,14.26936 0.42038,21.40204 -1.00703,3.86841 -0.6565,2.08253 -1.15722,5.33583 0,0 -0.12273,0.10525 -0.12273,0.10525 l 0,0 c -0.76747,-2.01611 -0.27284,-0.99667 -1.5471,-3.02684 -1.43951,-6.22433 -1.98904,-12.57923 -3.16089,-18.85315 -0.99359,-3.92117 -2.17246,-10.03879 -6.59632,-11.66281 -0.60607,-0.22249 -1.27643,-0.19499 -1.91464,-0.29248 -0.6876,0.14151 -1.40218,0.18704 -2.06281,0.42453 -0.7608,0.27349 -2.41803,1.86253 -2.16415,1.09498 0.46826,-1.41568 2.19969,-2.08257 2.92224,-3.38692 0.53062,-0.95788 -1.60614,1.49423 -2.32928,2.31651 -2.06425,2.34723 -2.57706,3.44125 -4.23368,6.12617 -2.86633,5.97078 -5.15218,12.33016 -4.39705,19.07049 0.69754,3.434 0.84755,1.42565 -4.45205,6.29897 -0.29019,0.26685 0.38125,-0.69662 0.49498,-1.07408 0.45265,-1.50228 0.43835,-2.68332 0.56016,-4.27277 -0.0917,-8.45641 -1.83848,-16.6749 -6.44503,-23.90325 -0.92703,-1.25695 -1.76239,-2.58697 -2.78109,-3.77086 -3.37979,-3.92783 -8.0542,-7.37153 -13.34443,-7.97484 -1.0084,-0.115 -2.02968,0.0293 -3.04452,0.0441 -5.01068,1.47265 -1.7553,1.08045 0.0872,-2.76435 0.40188,-0.8386 -1.40974,1.22887 -1.98835,1.95687 -2.19817,2.76569 -3.16054,6.23179 -3.99445,9.58829 -1.55139,8.46394 -2.07917,17.0624 -1.35413,25.65341 0.21179,2.27758 0.24042,2.94544 0.54502,5.05963 0.0665,0.46151 0.50883,1.00241 0.23404,1.37912 -1.50257,2.05987 -3.4294,3.7803 -5.27826,5.53602 -0.35632,0.33837 0.57698,-2.66526 -0.2265,-1.45666 -1.28209,-5.61611 -2.82299,-11.17023 -4.10352,-16.78703 -1.74815,-7.48683 -3.43933,-15.00628 -4.31459,-22.65484 0,0 4.77427,-4.15204 4.77427,-4.15204 z"
         inkscape:connector-curvature="0" />
      <path
         style="fill:#ff6600;fill-opacity:1;fill-rule:nonzero;stroke:none"
         id="path4417"
         d="m 826.78087,604.81745 c -0.53632,7.62798 0.82017,15.15683 2.57456,22.54173 1.9911,6.72521 4.32818,13.70941 9.00117,19.11256 0.67381,0.77911 1.46217,1.45128 2.19324,2.17692 4.46758,3.60596 6.36573,3.08325 11.52558,2.64372 0.18407,0.0506 0.36814,0.10114 0.55221,0.15177 0,0 -0.0977,0.12879 -0.0977,0.12879 l 0,0 c -0.82134,0.75904 -1.64268,1.51807 -2.46402,2.27711 -0.84607,0.56021 -1.63954,1.20937 -2.5382,1.68064 -4.20672,2.20608 -8.90485,1.50076 -12.59605,-1.3058 -0.75191,-0.75728 -1.56161,-1.46127 -2.25576,-2.27185 -4.7174,-5.50868 -7.14535,-12.5776 -9.14237,-19.42157 -1.77336,-7.499 -3.16094,-15.14037 -2.54862,-22.8841 0,0 5.79602,-4.82992 5.79602,-4.82992 z"
         inkscape:connector-curvature="0" />
      <path
         style="fill:#ff6600;fill-opacity:1;fill-rule:nonzero;stroke:none"
         id="path4419"
         d="m 812.08288,585.44307 c 3.06875,-4.41687 7.23871,-9.28625 13.07341,-8.48795 0.75698,0.10357 1.48276,0.36927 2.22415,0.5539 2.98548,1.23535 6.47387,3.5577 6.38961,7.24182 -0.0143,0.6241 -0.24201,1.22485 -0.36302,1.83727 -2.85668,5.27814 -8.1018,10.41643 -14.33752,11.17927 -0.78655,0.0962 -1.58411,0.0471 -2.37617,0.0707 -5.84471,-0.94758 -7.38165,-3.80768 -7.61699,-9.4123 0.39622,-3.53287 1.85601,-6.7504 4.44898,-9.22449 4.42195,-4.21925 2.65675,-4.58932 5.37707,-3.5307 0,0 -0.10033,0.12675 -0.10033,0.12675 l 0,0 c -0.87545,0.63451 -1.62368,1.49893 -2.62633,1.90354 -0.54938,0.2217 0.60625,-1.43953 1.18705,-1.32274 0.55386,0.11137 -0.72035,0.87529 -1.01492,1.35735 -1.12841,1.84658 -1.72947,3.88627 -1.84558,6.04272 0.31009,4.92892 1.94109,7.63671 7.10235,8.30926 2.42003,-0.11246 4.4896,-0.41569 6.64326,-1.63782 0.66755,-0.37882 2.33325,-1.94382 1.8874,-1.31904 -0.98274,1.37712 -2.24575,2.54773 -3.54095,3.63617 -0.51056,0.42906 0.7711,-1.08833 1.15665,-1.6325 0.19144,-0.55859 0.48456,-1.09215 0.57433,-1.67577 0.53358,-3.46901 -2.82647,-5.67993 -5.52932,-6.88207 -2.07757,-0.5353 -3.87924,-0.93202 -5.96203,-0.0873 -0.59571,0.24162 -2.00734,1.51069 -1.67098,0.96286 0.77144,-1.25645 1.9771,-2.19187 3.04787,-3.20541 0.40315,-0.3816 -0.69174,0.86839 -1.03761,1.30259 0,0 -5.09034,3.89393 -5.09034,3.89393 z"
         inkscape:connector-curvature="0" />
      <path
         style="fill:#ff6600;fill-opacity:1;fill-rule:nonzero;stroke:none"
         id="path4421"
         d="m 862.23518,540.84307 c -3.77887,7.6959 -4.28912,16.33858 -4.55591,24.75546 0.0966,11.34954 1.99088,22.62629 5.59625,33.38921 0.73913,2.20647 1.62108,4.36249 2.43161,6.54373 3.73972,8.82728 8.3353,17.54557 15.30161,24.28376 0.99627,0.96365 2.09789,1.81209 3.14685,2.71812 4.26616,3.39807 9.13269,5.03266 14.50583,5.26133 0.96485,0.51265 0.48098,0.47864 1.44008,0.20888 0,0 -0.0974,0.129 -0.0974,0.129 l 0,0 c -2.67276,2.40849 -1.19225,1.23508 -4.49074,3.45724 -0.81676,0.26919 -1.60868,0.6307 -2.45028,0.80757 -5.26953,1.10742 -10.23074,-1.34305 -14.34451,-4.39285 -1.06142,-0.93228 -2.17751,-1.80574 -3.18425,-2.79681 -6.98859,-6.87988 -11.54328,-15.74483 -15.31384,-24.67979 -0.81584,-2.19773 -1.70216,-4.37058 -2.44755,-6.59321 -3.64046,-10.85529 -5.62463,-22.23485 -5.61228,-33.69171 0.33349,-8.6596 1.01538,-17.49451 4.86758,-25.41588 0,0 5.20703,-3.98405 5.20703,-3.98405 z"
         inkscape:connector-curvature="0" />
      <path
         style="fill:#ff6600;fill-opacity:1;fill-rule:nonzero;stroke:none"
         id="path4423"
         d="m 874.28998,595.37885 c -7.00742,-0.70303 -14.011,-1.30402 -21.0515,-1.53001 -7.99711,-0.21749 -15.96004,0.51798 -23.8895,1.4559 -1.00321,0.0924 -2.83917,0.34326 -3.95003,0.19604 -0.29516,-0.0391 -0.8381,-0.008 -0.83944,-0.30525 -0.002,-0.60476 0.55389,-1.07525 0.83084,-1.61288 0,0 0.1013,-0.12602 0.1013,-0.12602 l 0,0 c 0.75,-0.70264 1.41775,-1.50499 2.25004,-2.10792 1.85516,-1.34393 4.49073,-1.45177 6.60723,-2.00653 7.95663,-1.10478 15.99282,-1.57642 24.02651,-1.42311 6.95514,0.23121 13.94198,0.57922 20.77973,1.96671 0,0 -4.86518,5.49307 -4.86518,5.49307 z"
         inkscape:connector-curvature="0" />
    </g>
  </g>
</svg>
