<?xml version="1.0" encoding="UTF-8" standalone="no"?>
<!-- Created with Inkscape (http://www.inkscape.org/) -->

<svg
   xmlns:dc="http://purl.org/dc/elements/1.1/"
   xmlns:cc="http://creativecommons.org/ns#"
   xmlns:rdf="http://www.w3.org/1999/02/22-rdf-syntax-ns#"
   xmlns:svg="http://www.w3.org/2000/svg"
   xmlns="http://www.w3.org/2000/svg"
   xmlns:sodipodi="http://sodipodi.sourceforge.net/DTD/sodipodi-0.dtd"
   xmlns:inkscape="http://www.inkscape.org/namespaces/inkscape"
   width="1024"
   height="768"
   id="svg4160"
   version="1.1"
   inkscape:version="0.48.4 r9939"
   sodipodi:docname="git-befehle8.svg">
  <defs
     id="defs4162" />
  <sodipodi:namedview
     id="base"
     pagecolor="#ffffff"
     bordercolor="#666666"
     borderopacity="1.0"
     inkscape:pageopacity="0.0"
     inkscape:pageshadow="2"
     inkscape:zoom="0.86588542"
     inkscape:cx="512"
     inkscape:cy="464.12054"
     inkscape:document-units="px"
     inkscape:current-layer="layer1"
     showgrid="false"
     inkscape:window-width="1600"
     inkscape:window-height="886"
     inkscape:window-x="0"
     inkscape:window-y="14"
     inkscape:window-maximized="0" />
  <metadata
     id="metadata4165">
    <rdf:RDF>
      <cc:Work
         rdf:about="">
        <dc:format>image/svg+xml</dc:format>
        <dc:type
           rdf:resource="http://purl.org/dc/dcmitype/StillImage" />
        <dc:title></dc:title>
      </cc:Work>
    </rdf:RDF>
  </metadata>
  <g
     inkscape:label="Ebene 1"
     inkscape:groupmode="layer"
     id="layer1"
     transform="translate(0,-284.36218)">
    <path
       style="fill:#000080;fill-opacity:1;fill-rule:nonzero;stroke:none"
       id="path4976"
       d="M 54.440337,131.4333 C 53.4612,122.81111 52.902946,114.14681 52.171735,105.5011 51.095479,93.134183 49.822132,80.785378 48.879438,68.407102 48.403735,61.857897 48.13525,55.291342 48.281236,48.725209 c 0.07567,-1.550325 0.03568,-3.119854 0.36302,-4.644688 2.047466,-1.560821 3.948266,-3.335591 6.142398,-4.682462 0.03075,-0.01888 0.413585,0.636101 0.857525,1.628415 0.879089,1.964975 1.619574,3.995477 2.394247,6.002257 3.378478,9.309907 6.754468,18.616078 10.478763,27.794303 3.032768,6.131016 5.175897,13.97189 10.728456,18.390455 1.888202,0.734254 3.363148,0.192637 4.977758,-0.950193 0.703522,-0.497956 2.549471,-2.310402 1.978857,-1.664411 -1.056766,1.196361 -2.033979,2.580762 -3.445957,3.325312 -1.013755,0.534563 1.453801,-1.772087 2.180702,-2.658131 4.679718,-6.245568 8.057127,-13.30198 11.078621,-20.459568 1.931558,-4.822416 3.531622,-9.775798 4.729144,-14.830499 0.39124,-1.598315 0.5694,-3.204403 0.0665,-4.786562 -0.833846,-2.255349 -0.48223,-0.752768 4.5965,-4.540815 0.19063,-0.142186 -0.16148,0.448027 -0.22238,0.677916 -0.0951,0.358858 -0.16334,0.724281 -0.24502,1.086422 -0.98837,6.541975 -0.80459,13.198964 -0.68036,19.792287 0.34936,12.627047 1.48228,25.210322 2.9417,37.751713 0.64958,6.55002 2.07538,12.97936 3.12247,19.46607 0.32256,2.00881 -0.36627,2.67869 -1.79412,4.03451 0,0 -1.03352,0.99322 -1.03352,0.99322 l 0,0 c -1.3898,1.14987 -2.09907,2.02046 -2.89204,0.0788 -1.83651,-6.32209 -2.23241,-12.98604 -3.25192,-19.46129 -1.401289,-12.615281 -2.413902,-25.277389 -2.804114,-37.967177 -0.114643,-6.759582 -0.33753,-13.613148 0.984063,-20.281471 0.652471,-2.667947 3.633751,-10.166912 6.312991,-6.272603 0.74971,1.568275 0.6763,3.256445 0.38438,4.943043 -0.99193,5.057186 -2.63532,9.959696 -4.45484,14.773816 -2.841014,7.092909 -6.051694,14.083526 -10.532817,20.313033 -3.879424,4.988988 -2.682737,3.677419 -9.783923,10.394033 -2.205486,2.086046 -4.919842,3.291396 -7.795372,1.939274 -0.538385,-0.449302 -1.13356,-0.838205 -1.615157,-1.347906 C 67.827681,93.095879 65.464494,85.510985 62.795582,80.104361 59.070878,70.92452 55.606116,61.645023 52.28611,52.311248 c -0.740091,-2.018396 -1.470095,-4.042306 -2.284712,-6.032424 -0.127351,-0.311118 -0.256018,-0.621968 -0.39853,-0.92644 -0.09052,-0.193405 -0.437975,-0.403014 -0.300032,-0.566023 1.668707,-1.971932 3.630205,-3.676141 5.445307,-5.514211 -0.883599,1.120018 -0.115541,3.19853 -0.557381,4.439312 -0.286207,6.596258 -0.08013,13.199974 0.351681,19.786405 0.882129,12.358874 2.154103,24.68093 3.374742,37.010013 0.753538,8.56762 1.338404,17.15905 2.473415,25.68705 0,0 -5.950263,5.23837 -5.950263,5.23837 z"
       inkscape:connector-curvature="0"
       transform="translate(0,284.36218)" />
    <path
       style="fill:#000080;fill-opacity:1;fill-rule:nonzero;stroke:none"
       id="path4978"
       d="m 124.51052,99.884171 c 4.73258,0.161229 9.04261,-1.193224 13.06387,-3.587306 -0.95171,1.360259 4.74282,-4.135777 3.55229,-3.107376 -1.28239,1.107756 -2.303,2.543439 -3.73638,3.44736 -0.61054,0.385026 0.82172,-1.190428 1.16466,-1.825572 0.87336,-1.617516 0.84543,-1.946313 1.27821,-3.674106 0.27407,-2.465981 -0.35683,-5.37585 -3.31028,-5.659701 -0.57895,-0.05564 -1.16159,0.06175 -1.74239,0.09262 -0.66879,0.194443 -1.36081,0.321915 -2.00638,0.583328 -1.64326,0.665414 -3.13536,1.640135 -4.46798,2.803892 -0.79656,0.695626 -3.22426,2.626845 -2.23575,2.251019 2.65878,-1.010847 5.11851,-5.8801 1.25161,0.54116 -2.9444,6.040127 -4.212,12.808822 -3.2098,19.495812 0.19119,1.27565 0.55795,2.51875 0.83693,3.77812 1.85291,5.80853 5.57599,10.55354 11.37386,12.79632 1.15035,0.44499 2.36982,0.68505 3.55472,1.02758 6.82136,1.39224 13.52362,-0.29458 20.18625,-1.62188 1.7179,0.57652 0.78387,0.57776 2.74308,-0.57204 0,0 -0.0977,0.12881 -0.0977,0.12881 l 0,0 c -3.16356,2.23532 -1.31956,0.90369 -5.497,4.04291 -1.13466,0.58354 -2.23423,1.24106 -3.40399,1.7506 -6.05185,2.63617 -12.75627,3.34552 -19.22095,2.11523 -1.22066,-0.37233 -2.47784,-0.64112 -3.66196,-1.11701 -5.96842,-2.39866 -9.86813,-7.30075 -11.84811,-13.30383 -0.30059,-1.28752 -0.68937,-2.55759 -0.90177,-3.86256 -1.11374,-6.8426 0.11155,-13.76077 3.05198,-19.991382 3.55852,-6.134899 1.49866,-3.126119 9.27615,-11.288373 2.48354,-2.606402 5.44231,-4.611342 9.05376,-5.155321 0.63614,0.02598 1.28314,-0.04196 1.90842,0.07794 3.12547,0.599303 4.24712,3.54903 4.09806,6.402318 -1.35525,7.152085 -6.93639,11.551198 -12.54308,15.773681 -4.1124,2.2612 -8.52471,3.59283 -13.27309,3.1662 0,0 4.76278,-5.508439 4.76278,-5.508439 z"
       inkscape:connector-curvature="0"
       transform="translate(0,284.36218)" />
    <path
       style="fill:#000080;fill-opacity:1;fill-rule:nonzero;stroke:none"
       id="path4980"
       d="m 167.98278,127.51653 c -1.28153,-7.23054 -2.626,-14.4482 -3.81457,-21.69523 -0.72119,-5.38266 -1.93352,-10.79144 -1.53155,-16.247504 0.22056,-1.314301 0.64224,-2.580729 1.61661,-3.541933 4.80361,-4.738716 5.04109,-6.031663 9.79258,-7.59841 4.33751,-1.09141 8.84399,-1.078952 13.28636,-1.236953 3.43663,-0.03045 6.8565,-0.511677 10.29155,-0.513857 1.10418,0.176487 3.25748,0.282817 3.5271,1.76247 0.8197,4.498283 -0.91298,-0.654677 0.26442,2.566002 0,0 -0.11243,0.116195 -0.11243,0.116195 l 0,0 c -2.11207,-0.195135 -0.40114,-0.21414 -3.14936,0.655645 -1.80628,0.571665 -3.74622,0.532586 -5.59358,0.888876 -3.44926,0.329974 -6.91623,0.459092 -10.37742,0.597774 -4.39126,0.155909 -8.86532,0.156542 -13.11356,1.416361 -0.53032,0.207905 -1.07593,0.380398 -1.59098,0.623715 -0.45469,0.214808 -1.62567,1.13909 -1.31067,0.747091 1.37635,-1.712783 3.04683,-3.167045 4.54608,-4.77335 0.27991,-0.299906 -0.62697,0.535854 -0.88709,0.853082 -0.72879,0.888792 -0.70925,1.204569 -1.0589,2.302431 -0.65077,5.411852 0.63823,10.827369 1.2964,16.180105 1.16914,7.22465 2.48462,14.4215 3.92442,21.59725 0,0 -6.00541,5.30024 -6.00541,5.30024 z"
       inkscape:connector-curvature="0"
       transform="translate(0,284.36218)" />
    <path
       style="fill:#000080;fill-opacity:1;fill-rule:nonzero;stroke:none"
       id="path4982"
       d="m 222.34378,91.626673 c -2.17095,-3.277847 -4.95688,-5.880023 -8.57683,-7.418175 -4.78812,-1.279306 -8.07914,0.657231 -11.39171,3.967215 1.02014,-0.848912 1.73333,-2.532886 3.06041,-2.546735 0.95099,-0.0099 -0.95287,1.65192 -1.32154,2.528589 -1.71938,4.088455 -1.66701,8.164411 -1.20143,12.479683 0.7588,3.27478 1.80048,9.01235 5.44692,10.46576 0.48449,0.19311 1.03056,0.1613 1.54584,0.24195 0.54101,-0.14745 1.11281,-0.2097 1.62302,-0.44233 1.81008,-0.82529 4.07733,-3.30915 3.22059,-2.59003 -1.20029,1.00749 -2.0828,2.46232 -3.4922,3.14739 -0.76141,0.37011 0.95725,-1.39802 1.39009,-2.12561 0.4359,-0.73271 0.8092,-1.5009 1.2138,-2.25135 1.59447,-3.2207 2.74782,-6.62757 3.95847,-10.003239 1.1501,-3.177528 1.53694,-2.883953 6.51251,-5.579223 0.0818,-0.04433 0.59334,0.834454 1.02855,1.554712 2.26241,4.147491 4.51669,8.29908 6.72457,12.47595 4.21448,7.85244 8.05563,15.88157 11.03591,24.28345 1.92281,6.25301 3.20906,12.99673 1.12285,19.39533 -0.37478,1.14951 -0.9423,2.22697 -1.41346,3.34046 -0.66228,1.0416 -1.24497,2.13833 -1.98686,3.12482 -0.76072,1.01152 -1.60379,1.96509 -2.50746,2.85125 -4.74592,4.65391 -6.79789,7.38874 -11.92022,10.00029 -3.23093,1.64726 -4.09699,1.67854 -7.58207,2.60299 -9.65066,1.56893 -16.96432,-1.57909 -25.14456,-6.28697 -7.42338,-4.75496 -14.11193,-10.53985 -20.64007,-16.43575 -1.67356,-1.87906 -6.48745,-4.88587 -4.94383,-8.12643 0.33453,-0.7023 0.92168,-1.25342 1.38252,-1.88013 0.74651,-0.63012 1.49303,-1.26024 2.23955,-1.89035 0,0 -0.0957,0.13033 -0.0957,0.13033 l 0,0 c 0.16369,-0.10232 0.32738,-0.20464 0.49106,-0.30697 0.19021,-0.0153 0.40231,-0.13566 0.57064,-0.0458 0.26097,0.13935 3.55205,4.17475 3.88963,4.52034 0.66096,0.67664 1.35158,1.32367 2.02737,1.98551 6.43643,5.90998 13.06583,11.67965 20.46419,16.36948 8.07977,4.58949 15.22885,7.59793 24.70658,5.84608 3.39662,-0.98512 4.27049,-1.04227 7.40169,-2.73253 1.15249,-0.62213 2.42166,-3.05741 3.31874,-2.1032 0.88771,0.94424 -2.97879,1.79283 -2.4843,2.99079 0.94149,2.28085 4.26072,-7.44053 4.63813,-5.7694 0.49709,-1.07646 1.08961,-2.1138 1.49129,-3.22938 2.25014,-6.24921 1.04459,-12.88956 -0.81481,-19.05732 -2.93044,-8.38936 -6.75314,-16.39329 -10.922,-24.23678 -2.17629,-4.21746 -4.36643,-8.42831 -6.49307,-12.671014 -0.14488,-0.29095 -0.28351,-0.5851 -0.43465,-0.872851 -0.12071,-0.229817 -0.53968,-0.474229 -0.38065,-0.679398 8.76264,-11.304583 5.3315,-6.50472 4.39888,-4.090172 -1.23425,3.410253 -2.38315,6.860555 -3.96303,10.133175 -2.71079,5.30225 -3.94558,6.22942 -9.04381,11.42219 -1.53261,1.56103 -3.22396,2.5851 -5.43843,2.70066 -0.60044,-0.13024 -1.23562,-0.15096 -1.80131,-0.39071 -4.1225,-1.74717 -5.05041,-7.20062 -5.83243,-11.00765 -0.34985,-4.50772 -0.33944,-8.82772 1.34962,-13.109744 0.35992,-0.912458 0.67881,-1.876965 1.28784,-2.645857 1.92526,-2.430575 4.17254,-4.587711 6.25881,-6.881567 3.6713,-3.322717 6.90022,-4.885248 11.84142,-3.274296 3.57555,1.866321 6.34677,4.617582 8.38578,8.114011 0,0 -4.20085,4.008536 -4.20085,4.008536 z"
       inkscape:connector-curvature="0"
       transform="translate(0,284.36218)" />
    <path
       style="fill:#000080;fill-opacity:1;fill-rule:nonzero;stroke:none"
       id="path4984"
       d="m 263.2197,105.34549 c 4.52463,0.0593 8.4703,-1.43516 12.02798,-4.13796 -1.1555,1.12438 -2.15955,2.42904 -3.46649,3.37313 -0.62507,0.45153 0.96939,-1.20464 1.3736,-1.8613 1.68829,-2.74271 2.1357,-5.647049 2.09739,-8.80044 -0.77768,-5.022154 -3.57531,-5.574285 -8.08171,-4.9703 -3.70632,0.911573 -7.16528,2.66158 -10.10826,5.099242 -0.81741,0.677056 -3.1455,2.848855 -2.32437,2.176318 1.18598,-0.97136 2.28039,-2.049437 3.42058,-3.074156 -3.43128,4.668308 -5.34276,10.256176 -4.89716,16.094056 0.0896,1.17337 0.36749,2.3247 0.55123,3.48705 1.54185,5.65139 5.05453,10.34215 10.45664,12.81606 1.05413,0.48273 2.18324,0.78122 3.27486,1.17183 6.15195,1.69368 12.40508,0.69504 18.59994,-0.0445 0.30202,-0.004 2.79652,-0.14682 3.24994,0.22345 0.3359,0.27431 0.21811,0.84597 0.41097,1.23439 0.15097,0.30407 0.40514,0.54484 0.60772,0.81726 0,0 -0.10596,0.12213 -0.10596,0.12213 l 0,0 c -3.06252,1.05543 -5.73608,2.99211 -9.0213,3.47697 -6.30155,1.23461 -12.80284,1.66422 -19.07583,-0.0101 -1.12517,-0.42059 -2.28948,-0.74848 -3.3755,-1.26176 -5.56652,-2.63095 -9.24939,-7.48092 -10.93686,-13.3211 -0.2113,-1.19398 -0.51724,-2.37504 -0.63389,-3.58194 -0.57263,-5.92459 1.18576,-11.66753 4.53245,-16.523361 6.2791,-6.592226 11.04208,-12.940055 20.26529,-14.743935 5.25296,-0.346583 7.49146,0.730291 8.67907,6.097444 0.39219,8.55343 -3.43117,11.997592 -9.82622,17.771092 -3.65794,2.49776 -7.66909,3.86378 -12.15538,3.54155 0,0 4.46127,-5.1711 4.46127,-5.1711 z"
       inkscape:connector-curvature="0"
       transform="translate(0,284.36218)" />
    <path
       style="fill:#000080;fill-opacity:1;fill-rule:nonzero;stroke:none"
       id="path4986"
       d="m 299.66322,35.525634 c 1.03046,7.026764 1.60063,14.118313 2.30672,21.184151 1.48082,13.661558 3.17629,27.298745 4.80763,40.942902 1.05768,8.937823 2.17048,17.870253 3.02868,26.830063 -0.0791,0.96343 0.96059,5.37587 -0.0574,6.00712 -7.15539,6.16256 -3.78122,3.22472 -2.51063,0.2222 0.2271,-0.53664 0.30469,-1.1249 0.45703,-1.68736 0,0 0.12365,-0.10417 0.12365,-0.10417 l 0,0 c 0.41454,1.658 -0.13897,0.72365 1.12856,1.37535 1.85039,0.95138 2.70463,8.45992 -3.98847,4.80145 -1.36443,-0.0363 -0.88028,-4.52052 -1.14444,-5.40412 -0.74772,-9.00685 -1.80812,-17.98335 -2.84479,-26.96055 -1.6001,-13.636158 -3.30158,-27.26005 -4.87519,-40.899274 -0.77207,-7.231581 -1.44207,-14.477128 -1.6497,-21.750596 0,0 5.21835,-4.557166 5.21835,-4.557166 z"
       inkscape:connector-curvature="0"
       transform="translate(0,284.36218)" />
    <path
       style="fill:#000080;fill-opacity:1;fill-rule:nonzero;stroke:none"
       id="path4988"
       d="m 330.44902,69.326595 c -3.15718,4.425602 -6.82119,8.44835 -10.6445,12.300257 -4.46837,4.856339 -9.60828,8.989972 -14.36877,13.535951 7.20501,-6.970745 2.14561,-2.712172 1.2903,-0.490007 -0.0925,1.447315 1.97344,2.462994 2.96036,3.185808 4.56493,3.112606 9.20007,6.121496 13.80597,9.173256 6.60744,4.26019 12.75905,9.13503 18.47462,14.52219 3.27572,3.3776 6.96478,6.81158 8.46422,11.39936 -0.17811,1.98441 0.10556,0.947 -1.1125,3.0286 0,0 -0.11653,0.11208 -0.11653,0.11208 l 0,0 c -1.93163,0.97315 -1.00096,0.85732 -2.72563,0.69782 -3.90086,-2.55996 -6.53481,-6.64507 -10.00956,-9.7021 -5.71414,-5.32467 -11.82069,-10.18764 -18.39664,-14.41802 -4.58668,-3.08236 -9.21431,-6.11256 -13.6506,-9.41057 -1.32634,-1.07955 -3.16299,-2.31312 -3.17039,-4.211526 1.15996,-3.79437 6.19144,-5.934518 7.92465,-8.999476 1.98575,-1.840113 4.01839,-3.625089 6.02706,-5.439807 0.64583,-0.583477 2.36316,-2.514579 1.92818,-1.760698 -0.55017,0.953499 -1.52464,1.58834 -2.28697,2.38251 3.83454,-3.808198 7.50367,-7.794311 10.66871,-12.186101 0,0 4.93802,-3.719527 4.93802,-3.719527 z"
       inkscape:connector-curvature="0"
       transform="translate(0,284.36218)" />
    <path
       style="fill:#000080;fill-opacity:1;fill-rule:nonzero;stroke:none"
       id="path4990"
       d="m 371.46047,110.35633 c 1.40523,-5.23851 1.37122,-10.614475 0.53016,-15.929593 -0.89469,-3.929913 -2.89294,-7.465943 -6.95726,-8.71892 -0.78045,-0.240605 -1.60212,-0.318142 -2.40318,-0.477212 -5.00988,-0.294891 -9.97644,1.184711 -13.83961,4.462475 -0.87152,0.73946 -1.61113,1.62163 -2.4167,2.432445 0.92237,-0.673491 2.05342,-2.912102 2.76711,-2.020474 0.78434,0.979897 -1.22473,2.198984 -1.69167,3.364041 -0.48757,1.216526 -0.87573,2.477203 -1.16201,3.756147 -0.92604,4.137021 -0.59252,7.974831 -0.003,12.111131 1.37255,5.18637 3.74336,11.26639 9.20691,13.38682 0.82721,0.32105 1.73307,0.38192 2.59961,0.57288 2.42081,-0.20559 2.98094,-0.008 5.19786,-1.20325 0.84619,-0.45626 2.90153,-2.45804 2.35194,-1.66925 -0.90368,1.29697 -1.94564,2.77526 -3.45339,3.25008 -1.06015,0.33385 1.32942,-1.78845 1.87929,-2.75437 0.58201,-1.02237 1.00385,-2.12795 1.50578,-3.19192 1.86704,-4.37746 2.17942,-9.09482 2.78814,-13.74224 0.27798,-2.12225 0.63979,-4.232719 0.94152,-6.351717 0,0 0.12003,-0.108324 0.12003,-0.108324 l 0,0 c 0.54735,0.414427 1.18207,0.733608 1.64204,1.243281 3.19987,3.54566 1.30682,10.28272 0.38809,14.34084 -2.66213,6.67774 -4.24418,7.86438 -10.59928,13.63337 -1.29014,1.17115 -3.54326,2.11297 -5.24679,2.39333 -0.92527,0.15228 -1.87486,0.0468 -2.81229,0.0702 -0.92032,-0.24436 -1.88431,-0.36136 -2.76097,-0.73307 -5.64756,-2.39459 -8.21114,-8.52773 -9.52682,-14.06986 -0.72054,-5.99635 -0.84357,-10.81307 1.35781,-16.586006 0.45829,-1.201821 0.87483,-2.462752 1.6536,-3.486431 2.12287,-2.790471 4.65532,-5.244149 6.98298,-7.866223 0.83032,-0.7762 1.59787,-1.62553 2.49095,-2.328601 4.05178,-3.189701 9.13799,-4.501056 14.22368,-4.046109 0.834,0.196133 1.6932,0.305817 2.50202,0.588397 4.21639,1.473099 6.33378,5.209222 7.24379,9.36708 0.86946,5.485571 0.88505,11.045343 -0.67087,16.427473 0,0 -4.82905,3.88354 -4.82905,3.88354 z"
       inkscape:connector-curvature="0"
       transform="translate(0,284.36218)" />
    <path
       style="fill:#000080;fill-opacity:1;fill-rule:nonzero;stroke:none"
       id="path4992"
       d="m 382.42676,78.239019 c 2.83084,6.192557 4.49208,12.837274 6.19231,19.406158 1.80955,7.457673 3.60299,14.917833 5.58829,22.331073 0.46125,1.73145 0.94989,3.45528 1.46426,5.17163 0.10549,0.35199 0.48582,1.36743 0.27262,1.06814 -1.9235,1.64212 -3.66881,3.51949 -5.7705,4.92638 -0.2689,0.18 -0.11527,-0.63708 -0.15789,-0.95786 -0.0685,-0.51545 -0.12511,-1.03252 -0.17533,-1.55007 -0.26465,-2.72692 -0.33581,-5.44402 -0.38879,-8.18211 -0.0882,-7.66649 0.62925,-15.30051 2.27314,-22.78489 0.87482,-3.057125 1.84498,-6.346524 4.20966,-8.63094 6.83788,-6.605797 3.94324,-5.491597 8.44058,-6.827134 4.74676,-0.345315 7.81315,3.222048 10.47934,6.643037 4.30954,6.336439 6.09081,13.825747 7.62433,21.217517 1.11231,5.974 1.80174,12.01608 2.35826,18.06389 0.0612,2.14425 0.56016,4.59284 -0.87457,6.37228 -0.27581,0.40481 -0.55163,0.80963 -0.82744,1.21444 0,0 -0.10258,0.12497 -0.10258,0.12497 l 0,0 c -0.56107,0.46125 -1.12213,0.9225 -1.6832,1.38374 -0.3445,0.12545 -0.67031,0.32621 -1.0335,0.37636 -1.23944,0.17113 -1.28685,-3.7662 -1.47304,-4.25556 -0.56373,-6.03739 -1.1323,-12.08254 -2.24237,-18.05013 -1.47594,-7.27963 -3.18686,-14.66668 -7.42365,-20.906789 -2.42477,-3.095374 -5.34226,-6.653461 -9.70619,-6.039049 -3.30352,1.322317 -1.50147,0.831596 2.71246,-3.901499 0.42312,-0.475249 -0.94117,0.864029 -1.33852,1.36102 -1.65116,2.065159 -2.52629,4.583389 -3.26975,7.081505 -1.77044,7.401362 -2.46525,14.978982 -2.33206,22.590092 0.062,2.69485 0.13614,5.37191 0.42103,8.05406 0.0531,0.50011 0.12244,0.99841 0.19098,1.49664 0.0423,0.3077 0.33795,0.68031 0.1416,0.92096 -1.69245,2.07429 -3.72973,3.84155 -5.5946,5.76232 -0.88594,-1.16992 -1.06407,-5.42104 -1.79153,-6.71589 -1.81903,-7.53189 -3.50114,-15.09548 -5.24477,-22.64502 -1.58701,-6.662714 -3.25472,-13.317962 -5.65588,-19.743896 0,0 4.7173,-4.375375 4.7173,-4.375375 z"
       inkscape:connector-curvature="0"
       transform="translate(0,284.36218)" />
    <path
       style="fill:#000080;fill-opacity:1;fill-rule:nonzero;stroke:none"
       id="path4994"
       d="m 473.53732,64.440192 c -0.59865,-5.446406 -2.70878,-10.416328 -5.47001,-15.086215 -2.7588,-3.996166 -6.37834,-7.608599 -11.14345,-9.063618 -0.84136,-0.256908 -1.72378,-0.352381 -2.58566,-0.528572 -2.66444,-0.192033 -5.16955,0.304208 -7.48192,1.680922 -0.79628,0.474078 -2.79047,2.392461 -2.23962,1.647225 0.96784,-1.309393 2.07051,-2.647934 3.52309,-3.383625 0.92331,-0.467629 -1.21036,1.6792 -1.81554,2.5188 -4.61991,8.261581 -3.66623,17.724967 -2.64761,26.758077 2.04579,13.992106 6.27973,27.51758 10.73847,40.893964 3.25817,9.44185 6.84217,18.79462 8.70512,28.63363 0.53046,4.36525 1.35603,7.91791 -1.96582,11.34928 0,0 -0.13036,0.0956 -0.13036,0.0956 l 0,0 c 0.48011,-0.6 -0.72519,0.78078 -1.43022,-0.66095 -0.92188,-1.88517 -0.90315,-4.14678 -1.74961,-6.05787 -2.80717,-9.46327 -5.85493,-18.85091 -9.13356,-28.16189 -4.45248,-13.42015 -8.70282,-26.975515 -10.87351,-40.984761 -1.11905,-9.107728 -2.17509,-18.619865 2.1679,-27.095699 3.20152,-4.8637 8.27933,-11.074057 14.21582,-12.713377 2.27789,-0.629024 2.9604,-0.414614 5.28616,-0.310528 0.89111,0.212413 1.804,0.348321 2.67331,0.637239 4.87281,1.619481 8.61792,5.286768 11.49372,9.410066 2.84452,4.722459 5.02484,9.760335 5.74139,15.27708 0,0 -5.87809,5.145182 -5.87809,5.145182 z"
       inkscape:connector-curvature="0"
       transform="translate(0,284.36218)" />
    <path
       style="fill:#000080;fill-opacity:1;fill-rule:nonzero;stroke:none"
       id="path4996"
       d="m 457.8709,107.80076 c -6.70332,0.0448 -13.34864,1.10847 -19.95891,2.12346 -3.22199,0.4096 -6.45426,0.97598 -9.71199,1.02605 -0.75899,0.0117 -1.55675,0.14484 -2.27502,-0.10074 -4.99524,-1.70788 2.55156,-0.68261 -2.37185,-1.17456 0,0 0.10289,-0.12472 0.10289,-0.12472 l 0,0 c 6.61578,-2.31927 -4.89783,1.81926 5.35727,-2.43519 4.39685,-1.82408 9.32397,-2.19267 13.91682,-3.25087 6.67448,-1.02485 13.38137,-2.05384 20.14714,-2.15115 0,0 -5.20635,6.08772 -5.20635,6.08772 z"
       inkscape:connector-curvature="0"
       transform="translate(0,284.36218)" />
    <path
       style="fill:#000080;fill-opacity:1;fill-rule:nonzero;stroke:none"
       id="path4998"
       d="m 489.3453,29.082024 c -0.69666,7.623685 -0.66014,15.273791 -0.394,22.915664 0.60519,12.750892 2.5975,25.367288 5.23071,37.840009 1.88064,8.563154 4.57238,16.921683 8.50834,24.760413 1.48537,2.43137 2.85283,5.83972 5.9381,6.47971 1.92127,-0.0297 3.7683,-0.57517 5.63271,-0.96322 0.9205,-0.007 0.48717,0.53765 1.37555,0.30871 0,0 -0.0984,0.12829 -0.0984,0.12829 l 0,0 c -1.44182,1.07986 -2.73322,2.33272 -4.2272,3.34636 -2.40556,1.52877 -5.08346,3.41035 -8.05786,3.14684 -3.23477,-1.04736 -4.78092,-4.22526 -6.34428,-7.02722 -3.92643,-7.93494 -6.62772,-16.37637 -8.51825,-25.021749 -2.63238,-12.502929 -4.64493,-25.143451 -5.34207,-37.917264 -0.32819,-7.738688 -0.52687,-15.520241 0.57329,-23.213847 0,0 5.72337,-4.782696 5.72337,-4.782696 z"
       inkscape:connector-curvature="0"
       transform="translate(0,284.36218)" />
    <path
       style="fill:#000080;fill-opacity:1;fill-rule:nonzero;stroke:none"
       id="path5000"
       d="m 524.60377,116.95877 c -1.23442,-6.29848 -2.72007,-12.54517 -3.80752,-18.87106 -0.39276,-4.149502 -1.72824,-8.438926 -1.18585,-12.647356 0.9239,-3.86995 0.61039,-2.058699 1.03553,-5.416453 0,0 0.12176,-0.106374 0.12176,-0.106374 l 0,0 c 2.30048,4.602289 -1.23791,-2.011014 2.12548,2.61479 1.78947,2.461126 2.37625,7.724789 3.50378,10.563024 1.59994,6.128955 2.79569,12.348799 4.19724,18.524829 0,0 -5.99042,5.3386 -5.99042,5.3386 z"
       inkscape:connector-curvature="0"
       transform="translate(0,284.36218)" />
    <path
       style="fill:#000080;fill-opacity:1;fill-rule:nonzero;stroke:none"
       id="path5004"
       d="m 512.64607,57.56034 c 2.55124,-3.489283 5.66903,-8.39161 10.19246,-8.980889 2.58116,0.196815 4.36578,2.079891 5.85797,4.016269 1.66509,2.38056 1.7468,4.77341 0.52083,7.334526 -4.09328,5.627405 -7.55283,8.466907 -13.99482,8.97225 -3.81149,0.0036 -6.95361,-1.569055 -9.30384,-4.50749 -1.65043,-2.683676 -0.82549,-5.068123 1.05164,-7.316084 1.49514,5.826809 4.39455,-7.278446 7.53217,-6.33868 0.56072,0.167944 0.2221,1.27251 0.20345,1.438636 0,0 -0.10144,0.125896 -0.10144,0.125896 l 0,0 c -2.10309,1.706273 -11.19146,9.113894 -1.88003,0.541795 -1.76576,1.849066 -2.75526,3.827945 -1.39947,6.276925 2.10691,2.81685 5.04153,4.252123 8.59821,4.172312 1.81474,-0.1913 3.47811,-0.445563 5.13931,-1.258442 0.48007,-0.234911 1.70116,-1.242536 1.38107,-0.814526 -0.48226,0.644879 -5.98569,6.277943 -2.74734,2.956158 1.48678,-2.310224 1.78655,-4.581663 0.2819,-7.008972 -1.24164,-1.803487 -2.70839,-3.793188 -5.11635,-3.757366 -0.89321,0.222308 -1.03493,0.184096 -1.8493,0.708918 -0.34284,0.220944 -1.23977,1.052285 -0.96871,0.747517 6.3019,-7.085724 2.64063,-2.630683 1.40811,-0.974765 0,0 -4.80582,3.666012 -4.80582,3.666012 z"
       inkscape:connector-curvature="0"
       transform="translate(0,284.36218)" />
    <path
       style="fill:#000080;fill-opacity:1;fill-rule:nonzero;stroke:none"
       id="path5006"
       d="m 552.97614,26.000953 c -0.29124,6.911469 -0.44748,13.827836 -0.65785,20.742112 -0.49975,11.479152 -0.63094,22.964702 -0.52362,34.452697 0.13347,9.426872 0.68019,18.840778 1.35411,28.242348 -0.20736,2.60574 1.28227,6.34784 0.0701,8.82263 -4.21497,3.03287 -4.37439,3.82573 -2.34584,0.6192 0,0 0.12343,-0.10443 0.12343,-0.10443 l 0,0 c 2.89884,-0.11377 1.4223,-0.31845 -2.5359,3.68343 -1.27476,-0.19399 -1.07548,-6.82143 -1.28723,-7.84666 -0.6091,-9.44743 -1.13497,-18.903275 -1.27591,-28.371132 -0.088,-11.549379 0.16668,-23.094504 0.67897,-34.633194 0.34645,-7.127188 0.71223,-14.256025 1.36195,-21.363276 0,0 5.03781,-4.243725 5.03781,-4.243725 z"
       inkscape:connector-curvature="0"
       transform="translate(0,284.36218)" />
    <path
       style="fill:#000080;fill-opacity:1;fill-rule:nonzero;stroke:none"
       id="path5008"
       d="m 577.69059,59.795555 c -1.45115,5.916991 -4.94714,10.96542 -8.53878,15.772708 -5.30207,6.468964 -11.38045,12.273432 -17.86579,17.542862 1.38594,-1.754884 -4.78632,4.266407 -3.09525,2.582708 6.61952,-6.590697 5.88141,-6.347115 4.54292,-4.369733 2.2544,1.480145 4.63384,2.780117 6.9419,4.182441 4.45029,2.743296 8.71939,5.763329 12.67531,9.181359 1.2863,1.64098 3.3444,3.11181 4.18117,5.0945 0.6348,1.50414 0.39711,2.85414 0.33442,4.41984 0,0 -0.11489,0.11376 -0.11489,0.11376 l 0,0 c -1.5674,-0.0163 -2.75468,0.13629 -4.23609,-0.51075 -1.98167,-0.86553 -3.50768,-2.76857 -5.44957,-3.71413 -4.18086,-3.09298 -8.34575,-6.21784 -12.79984,-8.91518 -2.40648,-1.494532 -5.01545,-2.814622 -7.11646,-4.726221 -1.63501,-3.252458 5.70632,-6.422644 8.151,-8.745123 1.49598,-1.210947 2.0864,-1.667411 3.59612,-2.989698 0.75006,-0.656943 1.91287,-2.946892 2.22451,-1.999765 0.32311,0.982 -2.84979,2.996267 -2.14569,2.239321 4.41595,-4.747375 0.6598,-0.478727 4.97345,-5.494999 3.64828,-4.776 7.13176,-9.797146 8.81733,-15.643231 0,0 4.92423,-4.020669 4.92423,-4.020669 z"
       inkscape:connector-curvature="0"
       transform="translate(0,284.36218)" />
    <path
       style="fill:#000080;fill-opacity:1;fill-rule:nonzero;stroke:none"
       id="path5010"
       d="m 599.91229,26.746351 c -2.01529,5.985576 -3.58096,12.083551 -4.81953,18.272664 -2.11166,10.964761 -1.48379,22.102882 -0.16565,33.109767 1.35994,7.875664 2.77517,16.134752 6.98787,23.087988 0.56688,0.93568 1.26378,1.78613 1.89567,2.6792 2.27748,2.52993 4.96616,4.70244 8.17636,5.92418 7.34868,2.79676 -2.7028,-1.40485 3.83725,1.37773 1.91942,1.375 0.79904,1.03915 3.44327,0.67557 0,0 -0.10267,0.12491 -0.10267,0.12491 l 0,0 c -3.50244,0.83846 -1.58762,0.25372 -5.68537,1.93715 -1.02734,0.22723 -2.03578,0.57007 -3.08202,0.6817 -4.80059,0.51223 -9.21833,-1.6496 -12.27176,-5.22763 -0.64974,-0.92414 -1.36578,-1.80504 -1.9492,-2.77241 -4.2517,-7.049766 -5.69585,-15.402632 -7.08811,-23.378232 -1.37329,-11.133156 -2.06112,-22.403516 0.21633,-33.483539 1.49449,-6.590119 3.41331,-13.061595 5.98198,-19.321013 0,0 4.62558,-3.688035 4.62558,-3.688035 z"
       inkscape:connector-curvature="0"
       transform="translate(0,284.36218)" />
    <path
       style="fill:#000080;fill-opacity:1;fill-rule:nonzero;stroke:none"
       id="path5012"
       d="m 604.27219,74.294545 c -7.15182,0.340786 -14.31372,0.136717 -21.45402,-0.32622 -3.39149,-0.362884 -6.85794,-0.46274 -10.20111,-1.20814 -0.77502,-0.1728 -1.61925,-0.250055 -2.27983,-0.690673 -3.16651,-2.112085 1.23616,-1.384131 -2.75737,-1.634909 0,0 0.10456,-0.123329 0.10456,-0.123329 l 0,0 c 5.05162,-0.611701 -1.97501,0.416638 5.63869,-1.709152 4.66542,-1.302611 9.77081,-0.269123 14.51098,-0.449221 7.17776,0.235475 14.35673,0.435746 21.53647,0.125651 0,0 -5.09837,6.015993 -5.09837,6.015993 z"
       inkscape:connector-curvature="0"
       transform="translate(0,284.36218)" />
    <path
       style="fill:#000080;fill-opacity:1;fill-rule:nonzero;stroke:none"
       id="path5014"
       d="m 628.15019,85.82165 c 4.49034,2.319915 9.16998,4.090999 14.19879,4.684097 3.12431,0.07736 6.20789,-0.623791 8.6547,-2.672614 0.54497,-0.456321 2.03104,-1.983315 1.47724,-1.537752 -1.50765,1.213009 -2.89829,2.564677 -4.34743,3.847016 1.47368,-3.12219 1.33961,-6.951037 -1.62891,-9.200893 -0.59278,-0.449266 -1.30564,-0.712883 -1.95845,-1.069324 -6.7266,-1.905897 -12.27047,1.238083 -17.5459,5.123022 -0.94827,0.923747 -2.99433,1.455891 -2.84479,2.77124 0.13901,1.222667 2.33349,-3.376403 2.90017,-2.284108 0.65265,1.258009 -1.5527,2.377798 -2.19656,3.640331 -2.15797,4.231522 -2.85729,8.123273 -3.46905,12.764725 -0.16624,6.44871 0.7259,13.83358 6.05632,18.25176 0.93705,0.77669 2.06414,1.29018 3.0962,1.93527 1.26705,0.39666 2.49894,0.9311 3.80114,1.18999 8.18679,1.6276 16.8788,-0.81064 24.88592,-2.33355 3.37581,-0.31274 6.86328,-1.94673 10.28061,-0.97554 0.52549,0.14935 0.96617,0.51021 1.44926,0.76531 0,0 -0.10281,0.12479 -0.10281,0.12479 l 0,0 c -5.24675,2.51655 -10.57539,4.66658 -16.31518,5.81478 -7.97864,1.88687 -17.29433,4.19724 -25.49041,2.42321 -1.35858,-0.29406 -2.63873,-0.87516 -3.95809,-1.31275 -1.08251,-0.69279 -2.26243,-1.25292 -3.24752,-2.07837 -5.47263,-4.58574 -6.57081,-12.08744 -6.48096,-18.78494 0.17249,-1.50582 0.24596,-3.02631 0.51747,-4.51746 1.89628,-10.41464 7.91681,-16.7755 15.85421,-23.693066 5.75503,-4.004049 11.07346,-6.691738 18.16107,-4.473845 0.70549,0.411338 1.47281,0.731412 2.11647,1.234015 3.10654,2.425718 3.71826,6.374337 2.41721,9.907156 -6.00893,6.661378 -8.17858,11.339338 -17.32009,11.116909 -5.06208,-0.714374 -9.78316,-2.478763 -14.15896,-5.143013 0,0 5.19833,-5.516396 5.19833,-5.516396 z"
       inkscape:connector-curvature="0"
       transform="translate(0,284.36218)" />
    <g
       id="g5052"
       transform="matrix(1.3421176,0,0,1.3421176,-20.598751,-111.07791)">
      <path
         transform="translate(0,284.36218)"
         inkscape:connector-curvature="0"
         d="m 118.27123,392.81897 c 8.23908,-1.41162 16.38358,-3.31973 24.54914,-5.09636 10.88753,-2.45605 21.94525,-3.95262 33.06965,-4.73815 4.72686,0.0226 9.78791,-0.7955 14.40609,0.61068 1.77851,0.79096 1.012,2.22455 0.4222,3.64236 0,0 -0.11875,0.10974 -0.11875,0.10974 l 0,0 c -1.33788,0.25848 -2.62777,0.57963 -4.00982,0.47518 -4.95822,0.0501 -9.92231,-0.22941 -14.87758,0.1222 -11.13369,0.7439 -22.17303,2.35431 -33.05182,4.86839 -8.25625,1.84391 -16.48302,3.84472 -24.80878,5.35764 0,0 4.41967,-5.35168 4.41967,-5.35168 z"
         id="path5016"
         style="fill:#ff6600;fill-opacity:1;fill-rule:nonzero;stroke:none" />
      <path
         transform="translate(0,284.36218)"
         inkscape:connector-curvature="0"
         d="m 199.42046,399.84144 c 3.07113,-2.51932 6.02002,-5.18185 8.89198,-7.92464 3.97103,-3.92694 -1.53428,1.56308 -2.31815,2.32773 -0.42731,0.41684 0.83236,-0.85596 1.24271,-1.2895 1.02855,-1.08668 1.99648,-2.20003 2.92367,-3.3733 1.6358,-2.24377 2.07508,-3.35542 -0.035,-5.39765 -5.12892,-3.28557 -11.46125,-3.77564 -17.36767,-4.46021 -2.76638,-0.56636 -9.95852,-0.58969 -12.23853,-2.17414 -0.53851,-0.37423 -0.67912,-1.13333 -1.1262,-1.61307 -0.36024,-0.38655 -0.84401,-0.63594 -1.26602,-0.95391 0,0 0.10753,-0.12076 0.10753,-0.12076 l 0,0 c 6.69033,-0.61412 -3.41461,0.46022 5.67311,-1.19719 4.55253,-0.83029 9.35078,0.16519 13.90918,0.27007 6.07402,0.68153 12.5959,1.21269 17.73975,4.83398 2.11334,2.29505 2.34343,3.77311 0.5417,6.38165 -3.51414,4.65562 -8.00851,8.47541 -12.06959,12.62786 -2.80844,2.63244 -5.67806,5.20479 -8.71364,7.575 0,0 4.10512,-5.51192 4.10512,-5.51192 z"
         id="path5018"
         style="fill:#ff6600;fill-opacity:1;fill-rule:nonzero;stroke:none" />
      <path
         transform="translate(0,284.36218)"
         inkscape:connector-curvature="0"
         d="m 256.51581,376.48992 c -1.55038,-3.5482 -3.42271,-6.94268 -6.10771,-9.75172 -2.90281,-2.52786 -5.84845,-1.44264 -8.77538,0.38635 -0.54214,0.45726 -2.11136,1.88931 -1.62642,1.37178 1.06927,-1.14113 2.09444,-2.3651 3.38489,-3.24843 0.65886,-0.45101 -1.00192,1.24681 -1.43791,1.91569 -1.52133,2.33396 -2.34555,4.80576 -3.12585,7.45297 -1.44526,6.17048 -0.75285,11.839 1.63659,17.63697 2.16452,4.07398 5.81471,6.77871 10.59721,6.34034 0.93264,-0.0855 1.83459,-0.37788 2.75188,-0.56683 -0.62154,2.2755 6.10727,-4.50349 5.05307,-2.87702 -0.84449,1.30292 -1.9368,2.62175 -3.3725,3.21298 -0.94257,0.38815 1.22371,-1.6386 1.71639,-2.53099 1.30507,-2.36386 1.38443,-3.33639 2.05955,-5.9276 0.61035,-3.70314 0.58875,-7.52203 -0.44559,-11.15241 -0.37344,-1.31075 -0.91953,-2.56604 -1.37869,-3.84928 -0.36609,-2.47496 0.27479,-1.63658 -1.53753,-2.76741 0,0 0.10813,-0.12021 0.10813,-0.12021 l 0,0 c 2.7921,0.0854 1.29118,0.11105 4.50096,-0.14813 0.59578,0.30426 1.27915,0.47772 1.78734,0.91277 3.13727,2.6857 3.04098,8.71119 2.80285,12.36469 -0.20938,1.02921 -0.33463,2.07918 -0.62814,3.08763 -2.08255,7.15531 -8.6841,13.33879 -15.60944,15.79815 -0.96361,0.1524 -1.91626,0.41263 -2.89083,0.45719 -5.04177,0.23053 -8.89825,-2.69991 -11.19547,-6.98701 -2.55892,-6.29352 -2.99229,-11.64435 -1.61524,-18.32032 2.24236,-7.83835 5.69311,-12.58482 12.72452,-17.60687 3.47512,-1.84677 6.08152,-2.29127 9.19017,0.52199 2.6672,2.9169 4.62103,6.33392 6.23104,9.93556 0,0 -4.79789,4.45917 -4.79789,4.45917 z"
         id="path5020"
         style="fill:#ff6600;fill-opacity:1;fill-rule:nonzero;stroke:none" />
      <path
         transform="translate(0,284.36218)"
         inkscape:connector-curvature="0"
         d="m 379.75577,374.29616 c -10.98845,-1.17571 -22.0637,0.0955 -33.01028,1.14617 -13.54317,1.48187 -27.10083,2.79676 -40.69493,3.70459 -3.41549,0.17941 -6.82872,0.43871 -10.24728,0.56109 -0.90403,0.0324 -2.30861,0.25274 -3.15646,-0.25076 0.82923,-1.22904 0.19066,-0.38648 2.31832,-2.16437 0,0 -0.10767,0.12061 -0.10767,0.12061 l 0,0 c 1.00522,-2.20087 0.33811,-1.43808 1.64119,-2.559 4.03187,-1.59777 10.06705,-0.55072 14.28754,-1.32775 13.57445,-0.90668 27.11597,-2.1824 40.63905,-3.67048 10.93683,-1.03803 22.07713,-2.41829 33.02459,-0.838 0,0 -4.69407,5.2779 -4.69407,5.2779 z"
         id="path5022"
         style="fill:#ff6600;fill-opacity:1;fill-rule:nonzero;stroke:none" />
      <path
         transform="translate(0,284.36218)"
         inkscape:connector-curvature="0"
         d="m 374.15208,388.40456 c 5.8204,-3.27869 11.69318,-6.46346 17.55279,-9.67128 6.4854,-3.62405 13.13533,-6.99273 19.28139,-11.18391 4.34444,-3.87257 -1.72313,1.94153 -2.74184,2.73404 -0.007,0.006 0.75051,-0.94573 0.006,-1.86118 -0.72349,-0.88967 -2.05712,-1.32245 -3.01341,-1.76324 -5.92089,-1.89916 -12.17881,-2.32756 -18.2914,-3.31478 -0.85031,-0.18281 -3.41109,-0.53973 -4.18428,-1.35486 -2.57236,-2.71186 1.2928,-1.00808 -1.87675,-2.10713 0,0 0.10738,-0.12087 0.10738,-0.12087 l 0,0 c 3.22773,0.2448 -0.20729,0.20206 4.62416,-1.04392 1.75414,-0.45237 3.9061,-0.36395 5.68556,-0.38291 6.46882,0.15559 13.04282,0.53323 19.20348,2.68312 1.48758,0.72593 3.6977,1.51647 3.98499,3.48143 0.47775,3.26765 -5.29232,6.6889 -7.95903,8.93613 -6.17551,4.0483 -12.77774,7.38056 -19.21308,10.98774 -5.89254,3.21943 -11.78776,6.43587 -17.6164,9.77012 0,0 4.4504,-5.7885 4.4504,-5.7885 z"
         id="path5024"
         style="fill:#ff6600;fill-opacity:1;fill-rule:nonzero;stroke:none" />
      <path
         transform="translate(0,284.36218)"
         inkscape:connector-curvature="0"
         d="m 452.91051,373.48826 c -1.82836,-5.1728 -5.67288,-6.41448 -10.71321,-7.04503 -5.63895,-0.003 -11.25157,1.54133 -15.93574,4.74773 -0.97046,0.6643 -1.83987,1.46536 -2.75981,2.19804 0.86337,-0.79343 1.5526,-2.92661 2.59012,-2.38028 0.98227,0.51724 -1.32554,1.79155 -1.84475,2.77277 -1.47183,2.78148 -2.13828,6.05468 -1.36702,9.15586 0.25173,1.01219 0.7774,1.93578 1.1661,2.90368 0.67278,0.85937 1.23566,1.81748 2.01833,2.57811 3.8285,3.72066 9.48723,4.80529 14.64076,4.33956 1.44006,-0.13013 2.84656,-0.50985 4.26985,-0.76478 3.4958,-1.24085 4.53914,-1.35283 7.60813,-3.44501 1.06085,-0.7232 3.40577,-3.65893 2.97155,-2.45067 -0.45695,1.27148 -1.70605,2.80665 -3.05016,2.66941 -1.08851,-0.11114 1.22383,-1.82269 1.70142,-2.80712 0.4272,-0.88055 0.66651,-1.84045 0.99977,-2.76067 0.84622,-3.98288 -0.0177,-5.32057 -1.84272,-8.60833 -1.60852,-2.89771 -0.16578,-1.29194 -2.63329,-3.41316 0,0 0.10871,-0.11968 0.10871,-0.11968 l 0,0 c 0.34291,0.004 5.60093,0.0455 5.90508,0.11412 3.46809,0.78217 4.41823,4.40229 4.17514,7.44181 -0.24605,0.91807 -0.38474,1.87189 -0.73817,2.75421 -2.23248,5.57332 -10.07525,12.75763 -16.01617,15.25384 -1.33351,0.56031 -2.74986,0.89837 -4.1248,1.34756 -1.45843,0.22658 -2.90274,0.58008 -4.3753,0.67974 -5.36096,0.36282 -11.19614,-0.95363 -15.11474,-4.85481 -0.82514,-0.82148 -1.41279,-1.85116 -2.11918,-2.77675 -0.41184,-1.03971 -0.96452,-2.03416 -1.23551,-3.11914 -2.1912,-8.77311 4.88566,-14.75988 10.50799,-20.13899 0.93516,-0.69762 1.82329,-1.4632 2.8055,-2.09286 4.77868,-3.06345 10.46269,-4.51575 16.10779,-4.24255 5.42867,0.97182 8.97475,2.51283 10.79547,8.07241 0,0 -4.50114,3.99098 -4.50114,3.99098 z"
         id="path5026"
         style="fill:#ff6600;fill-opacity:1;fill-rule:nonzero;stroke:none" />
      <path
         transform="translate(0,284.36218)"
         inkscape:connector-curvature="0"
         d="m 269.43713,345.19986 c 6.12024,-3.43572 12.18931,-6.96103 18.23522,-10.52554 12.74198,-7.66427 25.45785,-15.37043 38.24838,-22.95382 9.81512,-5.77557 19.60447,-11.61669 29.89513,-16.51451 1.57417,-0.47169 6.73668,-3.49928 8.4067,-2.78623 0.27069,0.65633 -0.303,1.26274 -0.25604,1.96251 0,0 -0.10551,0.12251 -0.10551,0.12251 l 0,0 c -1.04796,0.55448 -1.93467,1.30365 -2.91622,1.96022 -3.08405,1.78765 -6.48736,2.94899 -9.66332,4.5564 -10.21009,4.9057 -19.97237,10.65672 -29.72666,16.40233 -12.83459,7.60332 -25.57867,15.35501 -38.34242,23.07616 -6.08065,3.61545 -12.1903,7.18112 -18.35214,10.65679 0,0 4.57688,-5.95682 4.57688,-5.95682 z"
         id="path5028"
         style="fill:#ff6600;fill-opacity:1;fill-rule:nonzero;stroke:none" />
      <path
         transform="translate(0,284.36218)"
         inkscape:connector-curvature="0"
         d="m 372.62457,318.47413 c 3.4978,-5.01237 7.24266,-9.84642 10.9524,-14.70219 3.15662,-4.41878 6.89558,-8.50394 9.46278,-13.31661 0.16943,-0.6685 0.51924,-1.26658 0.0354,-1.91587 -1.2048,-1.61683 -5.58725,-1.86658 -7.32622,-2.1077 -5.84606,-0.60416 -11.7324,-0.54563 -17.57776,-1.14866 -2.23153,-0.34763 -2.80833,-0.20537 -3.72491,-2.25965 0,0 0.10427,-0.12356 0.10427,-0.12356 l 0,0 c 2.52597,-1.2857 4.95761,-2.4902 7.86449,-2.5781 6.14317,-0.45773 12.31882,-0.37912 18.4463,0.29348 2.28589,0.33658 8.02161,0.57675 8.37031,3.88959 0.0458,0.43492 -0.12994,0.86493 -0.19491,1.2974 -2.39928,4.96178 -6.33696,9.01164 -9.47397,13.49761 -3.6905,4.83715 -7.41271,9.65397 -10.92258,14.62503 0,0 -6.01561,4.54923 -6.01561,4.54923 z"
         id="path5030"
         style="fill:#ff6600;fill-opacity:1;fill-rule:nonzero;stroke:none" />
      <path
         transform="translate(0,284.36218)"
         inkscape:connector-curvature="0"
         d="m 448.48433,276.14339 c -3.0645,-3.4001 -7.02059,-5.41257 -11.3427,-6.70238 -5.15201,-1.23516 -10.25711,-0.35715 -15.22343,1.17964 -0.85023,0.35435 -1.72021,0.66457 -2.55067,1.06305 -1.72349,0.82698 -3.29482,1.78018 -4.77399,2.99716 -0.74376,0.61192 -2.83787,2.60421 -2.10533,1.97892 1.24673,-1.0642 2.12121,-2.70241 3.64891,-3.29651 0.91157,-0.3545 -1.04066,1.65636 -1.56099,2.48455 -2.07507,4.35208 -2.6584,9.51839 0.64318,13.48784 0.69131,0.83114 1.5888,1.46647 2.3832,2.19971 1.08298,0.59298 2.10914,1.30425 3.24893,1.77895 5.68886,2.36929 12.34997,2.43156 18.34182,1.44156 1.51899,-0.25098 3.00182,-0.6858 4.50273,-1.02869 3.04679,-1.14875 4.56565,-1.46613 7.16999,-3.38252 0.87534,-0.64412 3.30471,-2.79914 2.37964,-2.22874 -1.42975,0.88158 -2.28149,2.77686 -3.91344,3.17448 -0.83059,0.20237 0.67404,-1.5852 0.83582,-2.42463 0.15158,-0.78646 0.0628,-1.60064 0.0942,-2.40096 -0.45531,-2.88704 -1.73775,-5.54952 -4.02342,-7.4324 -1.98392,-1.3441 -1.05457,-0.63857 -2.79911,-2.10195 -0.28275,-0.43558 -0.5655,-0.87116 -0.84826,-1.30675 0,0 0.105,-0.12295 0.105,-0.12295 l 0,0 c 1.05599,-0.43633 2.11197,-0.87265 3.16796,-1.30898 0.89835,-0.11817 1.78941,-0.38273 2.69506,-0.35449 4.18147,0.13038 6.93502,3.73366 7.75364,7.46981 0.12294,6.97316 -1.60967,6.71448 -7.75407,13.18028 -2.65318,2.79196 -6.21447,4.21872 -9.82209,5.30655 -1.52131,0.31985 -3.02643,0.72984 -4.56393,0.95956 -6.15221,0.9192 -12.93317,0.76793 -18.73542,-1.71232 -1.19326,-0.51007 -2.26777,-1.26228 -3.40166,-1.89342 -0.84832,-0.78013 -1.80073,-1.46042 -2.54498,-2.34039 -3.47725,-4.11142 -3.23112,-9.46774 -1.21159,-14.14597 3.1539,-5.47311 1.25877,-2.65017 8.90044,-10.39354 2.70238,-2.73835 6.11351,-4.57491 9.71672,-5.82969 5.02433,-1.43822 10.16129,-2.1853 15.23556,-0.45812 4.2391,1.69858 8.05384,4.08839 10.74281,7.87859 0,0 -4.39055,4.28475 -4.39055,4.28475 z"
         id="path5032"
         style="fill:#ff6600;fill-opacity:1;fill-rule:nonzero;stroke:none" />
      <path
         transform="translate(0,284.36218)"
         inkscape:connector-curvature="0"
         d="m 488.44511,372.99897 c 8.57997,-1.33343 17.18933,-2.46388 25.79943,-3.58175 13.56947,-1.75141 27.18839,-3.07492 40.82776,-4.13534 9.09925,-0.6872 18.22648,-1.13346 27.34573,-0.6594 3.49468,0.28348 6.96629,0.89331 10.21183,2.24103 2.06978,1.20892 1.12826,1.92705 0.38381,3.71796 0,0 -0.12269,0.10531 -0.12269,0.10531 l 0,0 c -0.73535,-0.22395 0.0358,-0.0625 -1.38599,0.57646 -0.95262,0.42809 -2.05231,0.31626 -3.051,0.21405 -3.59217,-0.68892 -7.2013,-1.21785 -10.87075,-1.24484 -9.08754,-0.33873 -18.18134,7.8e-4 -27.24738,0.68341 -13.64709,1.0706 -27.27246,2.41078 -40.84388,4.21552 -8.65715,1.15287 -17.31105,2.33779 -25.92799,3.76557 0,0 4.88112,-5.89798 4.88112,-5.89798 z"
         id="path5034"
         style="fill:#ff6600;fill-opacity:1;fill-rule:nonzero;stroke:none" />
      <path
         transform="translate(0,284.36218)"
         inkscape:connector-curvature="0"
         d="m 585.07686,378.71411 c 4.32201,-1.65167 8.41065,-3.8121 12.43064,-6.08479 3.32539,-1.95303 6.67133,-3.89182 9.71846,-6.26553 2.99781,-2.81598 -2.59064,2.65273 -3.94295,3.92005 -0.26298,0.24645 0.45637,-0.67874 0.34986,-1.02305 -0.18205,-0.58858 -0.81707,-1.02466 -1.22152,-1.39523 -3.32691,-2.43953 -7.30291,-3.72656 -11.12692,-5.15891 -1.82596,-0.95357 -4.97284,-1.4352 -6.37541,-3.07611 -0.78733,-1.63598 -0.27305,-0.95464 -1.47285,-2.09503 0,0 0.107,-0.12122 0.107,-0.12122 l 0,0 c 1.43579,-0.27186 2.82212,-0.78017 4.26363,-1.0198 2.78658,-0.46323 5.66611,0.39549 8.35922,0.95388 4.06199,1.18424 8.13215,2.61143 11.5756,5.13957 0.64713,0.59174 1.20192,0.96796 1.58996,1.76491 1.43887,2.95512 -4.52227,6.20622 -6.61861,8.14646 -3.06585,2.25511 -6.35787,4.16695 -9.6711,6.03287 -4.00611,2.21242 -8.08239,4.30288 -12.39462,5.86417 0,0 4.42961,-5.58224 4.42961,-5.58224 z"
         id="path5036"
         style="fill:#ff6600;fill-opacity:1;fill-rule:nonzero;stroke:none" />
      <path
         transform="translate(0,284.36218)"
         inkscape:connector-curvature="0"
         d="m 647.54794,363.21063 c -3.01219,-3.3229 -6.68594,-5.75769 -10.7218,-7.64015 -3.36807,-1.28335 -7.16923,-2.18974 -10.67157,-0.80551 -0.68215,0.2696 -1.29738,0.68474 -1.94607,1.02711 -0.60531,0.53382 -2.43439,2.11998 -1.81593,1.60146 1.1036,-0.92528 1.83844,-2.68014 3.2716,-2.82193 0.99487,-0.0984 -1.02696,1.72199 -1.42467,2.6392 -1.38245,3.1883 -1.69092,6.3802 -1.87938,9.79983 0.19594,4.6275 1.37491,10.02533 6.31859,11.76428 0.89077,0.31332 1.85333,0.36299 2.77999,0.54449 4.40344,0.0703 8.65465,-1.26248 12.26705,-3.79512 0.8405,-0.58926 3.06487,-2.72287 2.36603,-1.97101 -1.06789,1.14891 -2.31939,2.11234 -3.47908,3.16851 3.40046,-5.0814 3.13476,-8.37168 1.4975,-13.93787 -0.44009,-3.23057 0.0698,-1.78825 -1.37429,-4.37883 0,0 0.11282,-0.11581 0.11282,-0.11581 l 0,0 c 3.05023,0.89611 1.47244,0.49917 4.73802,1.17218 0.5362,0.47421 1.16813,0.85839 1.6086,1.42263 2.61962,3.35569 1.53653,7.97237 -0.41421,11.28844 -7.47686,7.75846 -11.19107,13.05224 -22.44461,12.88883 -0.97934,-0.23577 -2.00092,-0.33782 -2.93803,-0.70733 -5.18719,-2.04538 -6.54165,-7.59668 -6.63751,-12.61849 0.63287,-9.94703 2.96444,-15.14622 11.75921,-21.47638 0.67869,-0.29685 1.32916,-0.66919 2.03609,-0.89055 3.60563,-1.12905 7.42203,-0.0133 10.75085,1.41871 3.9872,2.08587 7.66933,4.70633 10.4613,8.28892 0,0 -4.2205,4.13439 -4.2205,4.13439 z"
         id="path5038"
         style="fill:#ff6600;fill-opacity:1;fill-rule:nonzero;stroke:none" />
      <path
         transform="translate(0,284.36218)"
         inkscape:connector-curvature="0"
         d="m 487.75557,278.95863 c 4.84172,3.35473 9.63777,6.77288 14.54412,10.03332 2.06319,1.83681 6.76552,3.33508 8.37987,5.56684 0.20919,0.28919 0.27465,0.6589 0.41197,0.98835 -0.70087,2.04975 -0.81621,1.20066 -0.37277,2.54349 0,0 -0.11311,0.11553 -0.11311,0.11553 l 0,0 c -1.57758,-0.23394 -0.57558,-0.24897 -2.85838,0.9315 -4.30741,0.38214 -7.42352,-2.29418 -10.93653,-4.43598 -4.89261,-3.27601 -9.69874,-6.67446 -14.46121,-10.13681 0,0 5.40604,-5.60624 5.40604,-5.60624 z"
         id="path5040"
         style="fill:#ff6600;fill-opacity:1;fill-rule:nonzero;stroke:none" />
      <path
         transform="translate(0,284.36218)"
         inkscape:connector-curvature="0"
         d="m 537.74382,300.98155 c 3.72431,2.18004 7.35807,4.51128 11.02562,6.78514 1.34542,1.07447 4.56996,2.43191 5.05437,4.26021 0.11349,0.42834 0.0485,0.88492 0.0727,1.32738 -0.0516,0.50311 -0.1032,1.00621 -0.15481,1.50932 0,0 -0.11278,0.11586 -0.11278,0.11586 l 0,0 c -0.54691,0.12573 -1.09383,0.25146 -1.64074,0.37719 -3.45162,0.67836 -5.53796,-0.33555 -8.55532,-1.9881 -3.71299,-2.18018 -7.28993,-4.58009 -10.97706,-6.80327 0,0 5.28799,-5.58373 5.28799,-5.58373 z"
         id="path5042"
         style="fill:#ff6600;fill-opacity:1;fill-rule:nonzero;stroke:none" />
      <path
         transform="translate(0,284.36218)"
         inkscape:connector-curvature="0"
         d="m 573.45862,314.40138 c 3.56048,2.50634 7.28963,4.74772 11.04347,6.94736 2.26549,1.30218 4.38427,2.68126 5.05432,5.31737 -0.11678,1.6516 -0.23658,0.91008 0.21377,2.24324 0,0 -0.11383,0.11483 -0.11383,0.11483 l 0,0 c -1.41179,-0.36815 -0.6327,-0.2951 -2.3467,-0.0619 -2.71965,-0.22751 -5.21296,-1.26189 -7.59898,-2.5587 -3.8207,-2.1167 -7.51911,-4.45114 -10.9965,-7.09985 0,0 4.74445,-4.90237 4.74445,-4.90237 z"
         id="path5044"
         style="fill:#ff6600;fill-opacity:1;fill-rule:nonzero;stroke:none" />
      <path
         transform="translate(0,284.36218)"
         inkscape:connector-curvature="0"
         d="m 607.00393,316.41645 c 2.06321,3.53113 4.26935,6.97506 6.49009,10.40834 1.56287,2.367 3.06674,4.78056 4.18022,7.39459 0.38758,1.12332 0.98865,2.37129 0.52469,3.54844 -1.90119,1.77144 -3.70562,3.65277 -5.70357,5.31431 -0.96108,0.79925 -7.29417,0.64461 -8.53628,0.63502 -5.86339,-0.22327 -11.7204,-0.35341 -17.58467,-0.11709 -6.03464,0.34565 -12.02075,1.21533 -18.03197,1.81476 -0.70299,-0.016 -4.12008,0.48164 -4.73591,-0.23745 -0.32432,-0.3787 0.0149,-1.5746 0.0924,-1.95397 0,0 0.10386,-0.12391 0.10386,-0.12391 l 0,0 c 0.96729,-0.69009 2.39644,-1.76091 3.43428,-2.25431 1.86192,-0.88516 4.05049,-0.94929 6.03269,-1.33564 6.03664,-0.78906 12.08606,-1.54641 18.16767,-1.88271 5.84787,-0.20264 11.68556,-0.0381 17.52935,0.23944 1.99364,0.0265 3.99889,0.0831 5.9871,-0.11767 0.40512,-0.0409 0.81033,-0.0937 1.20809,-0.18077 0.27575,-0.0604 0.98782,-0.47608 0.80586,-0.26026 -1.41315,1.67608 -3.04823,3.15171 -4.57235,4.72756 1.22414,-0.70884 0.56693,-2.02398 0.20725,-3.13051 -1.03637,-2.62164 -2.45847,-5.03961 -4.00026,-7.39595 -2.2007,-3.48629 -4.41772,-6.97237 -6.31896,-10.6342 0,0 4.72038,-4.45802 4.72038,-4.45802 z"
         id="path5046"
         style="fill:#ff6600;fill-opacity:1;fill-rule:nonzero;stroke:none" />
      <path
         transform="translate(0,284.36218)"
         inkscape:connector-curvature="0"
         d="m 566.288,202.62636 c -2.72969,6.06583 -4.28407,12.55775 -5.68187,19.03343 -1.1952,5.88154 -2.00924,11.83207 -2.4796,17.81345 0.12961,0.70589 -0.67704,3.28744 0.53474,3.43048 1.74105,0.0436 3.32701,-0.70148 4.84323,-1.4682 3.14796,-1.7684 5.95968,-4.05647 8.75582,-6.32302 2.68986,-2.18749 5.29491,-4.47549 7.89806,-6.76453 0.80181,-0.43814 2.09351,-2.67997 3.11989,-1.96984 0.10774,0.20585 0.29194,0.38733 0.32322,0.61756 0.0866,0.63732 -0.91026,2.25798 -1.10343,2.72642 -0.67811,1.64439 -1.00402,2.54271 -1.66334,4.2756 -2.81688,7.79074 -5.25104,15.71474 -7.69624,23.62817 -2.25124,7.42245 -4.57392,14.82348 -6.78036,22.25945 -0.56575,1.09683 -0.96615,5.09154 -2.19676,5.7693 -0.18278,0.10066 -0.40478,0.1016 -0.60716,0.1524 -3.95177,4.15242 -0.23975,0.3514 0.42924,-0.32884 0,0 0.13017,-0.0959 0.13017,-0.0959 l 0,0 c -1.00814,1.48727 -1.21096,2.28203 -3.08304,3.70956 -0.14743,0.0573 -1.15276,0.62065 -1.56455,0.38487 -1.05083,-0.60167 0.79205,-4.03861 0.70817,-4.6133 2.24952,-7.45619 4.61129,-14.8782 6.86255,-22.33393 2.44281,-7.9442 4.85298,-15.90645 7.71864,-23.71103 0.19192,-0.50258 2.44765,-6.79949 2.9475,-7.0023 0.14011,-0.0568 0.28245,0.10801 0.42367,0.16201 0.0546,0.0563 0.16657,0.0906 0.1638,0.16898 -0.01,0.27425 -2.4939,1.96742 -2.62694,2.30337 -2.61432,2.28745 -5.23157,4.57257 -7.932,6.7587 -2.83978,2.28664 -5.70565,4.59644 -8.95271,6.28797 -1.66911,0.75706 -3.48738,1.57391 -5.35536,1.12877 -1.73925,-0.85976 -1.19838,-2.72443 -1.01281,-4.36106 0.64159,-6.08039 1.4936,-12.14064 2.72564,-18.13196 1.43069,-6.55338 2.9833,-13.13442 5.73549,-19.28153 0,0 5.41634,-4.22505 5.41634,-4.22505 z"
         id="path5048"
         style="fill:#ff0000;fill-opacity:1;fill-rule:nonzero;stroke:none" />
      <path
         transform="translate(0,284.36218)"
         inkscape:connector-curvature="0"
         d="m 577.10594,275.64948 c -2.92936,3.60361 -6.00451,7.08592 -9.11833,10.53029 -3.10803,3.39345 -6.38907,6.63326 -9.70546,9.81922 -0.99876,0.95947 -1.91429,1.38405 -3.25011,1.54214 -3.90642,-1.3144 -4.7444,-6.75627 -5.68131,-10.22674 -1.2371,-4.98777 -2.15044,-10.05732 -3.67684,-14.96965 -0.1088,-0.32885 -0.22208,-0.65626 -0.3264,-0.98656 -0.0988,-0.31284 -0.28779,-0.77991 -0.19805,-1.13908 0.39595,-1.58491 3.44943,-4.78919 3.98076,-2.50065 0,0 -0.10956,0.1189 -0.10956,0.1189 l 0,0 c -0.28057,0.0663 -1.01572,0.42874 -0.84172,0.19888 0.77924,-1.02941 1.85699,-1.79495 2.75333,-2.72418 0.0664,-0.0688 0.0284,-0.26215 0.12392,-0.25863 0.0853,0.003 0.3715,1.90712 0.54626,1.91513 1.49268,4.94388 2.39073,10.03685 3.63367,15.04493 0.59807,2.22034 1.7007,8.03357 4.10113,9.18928 0.23883,0.11499 0.52356,0.0833 0.78535,0.12493 0.958,-0.30456 0.90335,-0.20845 1.79175,-0.86701 0.37023,-0.27445 1.37439,-1.22475 1.05955,-0.8882 -8.75021,9.35364 -3.24556,3.09929 -1.31063,1.24803 3.23222,-3.53135 6.4082,-7.11338 9.50523,-10.76422 0,0 5.93746,-4.40681 5.93746,-4.40681 z"
         id="path5050"
         style="fill:#ff0000;fill-opacity:1;fill-rule:nonzero;stroke:none" />
    </g>
  </g>
</svg>
