<?xml version="1.0" encoding="UTF-8" standalone="no"?>
<!-- Created with Inkscape (http://www.inkscape.org/) -->

<svg
   xmlns:dc="http://purl.org/dc/elements/1.1/"
   xmlns:cc="http://creativecommons.org/ns#"
   xmlns:rdf="http://www.w3.org/1999/02/22-rdf-syntax-ns#"
   xmlns:svg="http://www.w3.org/2000/svg"
   xmlns="http://www.w3.org/2000/svg"
   xmlns:sodipodi="http://sodipodi.sourceforge.net/DTD/sodipodi-0.dtd"
   xmlns:inkscape="http://www.inkscape.org/namespaces/inkscape"
   width="1024"
   height="768"
   id="svg4160"
   version="1.1"
   inkscape:version="0.48.4 r9939"
   sodipodi:docname="git-befehle3.svg">
  <defs
     id="defs4162" />
  <sodipodi:namedview
     id="base"
     pagecolor="#ffffff"
     bordercolor="#666666"
     borderopacity="1.0"
     inkscape:pageopacity="0.0"
     inkscape:pageshadow="2"
     inkscape:zoom="0.86588542"
     inkscape:cx="512"
     inkscape:cy="371.18049"
     inkscape:document-units="px"
     inkscape:current-layer="g4338"
     showgrid="false"
     inkscape:window-width="1600"
     inkscape:window-height="886"
     inkscape:window-x="0"
     inkscape:window-y="14"
     inkscape:window-maximized="0" />
  <metadata
     id="metadata4165">
    <rdf:RDF>
      <cc:Work
         rdf:about="">
        <dc:format>image/svg+xml</dc:format>
        <dc:type
           rdf:resource="http://purl.org/dc/dcmitype/StillImage" />
        <dc:title></dc:title>
      </cc:Work>
    </rdf:RDF>
  </metadata>
  <g
     inkscape:label="Ebene 1"
     inkscape:groupmode="layer"
     id="layer1"
     transform="translate(0,-284.36218)">
    <g
       id="g4338"
       transform="matrix(0.87560596,0.05350148,-0.05350148,0.87560596,-5.8337817,89.75078)">
      <path
         inkscape:connector-curvature="0"
         d="m 173.48605,320.23425 c -0.78642,12.84646 0.33054,25.72346 1.34654,38.52505 1.57859,17.36163 3.68424,34.6683 5.38326,52.01797 0.42523,5.53921 1.00879,11.08125 1.14403,16.63966 0.0405,1.66451 0.0455,4.73861 -0.29831,6.50257 -0.13679,0.7018 -0.44626,1.35859 -0.6694,2.03788 -0.2393,0.31455 -0.47861,0.6291 -0.71792,0.94365 0,0 -0.12565,0.10175 -0.12565,0.10175 l 0,0 c -0.16447,0.0353 -0.32894,0.0705 -0.4934,0.10575 -0.26051,-0.25617 -0.61159,-0.44506 -0.78152,-0.76849 -0.60758,-1.15636 -1.12995,-4.0906 -1.29952,-5.10647 -0.87818,-5.26083 -1.30951,-10.59085 -2.00955,-15.87485 -1.95813,-17.25649 -4.01701,-34.50334 -5.66731,-51.79289 -1.08574,-12.8063 -2.27193,-25.69352 -1.52301,-38.55309 0,0 5.71176,-4.77849 5.71176,-4.77849 z"
         id="path4306"
         style="fill:#ff6600;fill-opacity:1;fill-rule:nonzero;stroke:none"
         transform="translate(0,284.36218)" />
      <path
         inkscape:connector-curvature="0"
         d="m 136.65357,319.18112 c 0.0663,11.19765 1.73717,22.29997 3.34011,33.35638 2.8672,18.01852 6.50301,35.90097 9.65593,53.86965 0.7312,4.47233 1.3645,8.12562 1.9649,12.56979 0.54284,4.0181 1.21981,8.04146 -0.0567,11.97148 0,0 -0.11861,0.10988 -0.11861,0.10988 l 0,0 c -0.33393,-0.0124 -0.70818,0.1225 -1.00177,-0.0371 -1.43556,-0.78023 -1.86404,-2.47217 -2.30656,-3.87792 -1.65838,-5.26817 -2.35864,-10.8029 -3.6444,-16.15824 -3.56121,-17.8309 -7.02864,-35.68624 -9.96663,-53.63182 -1.6732,-11.115 -3.45299,-22.32292 -3.26662,-33.59684 0,0 5.40036,-4.57529 5.40036,-4.57529 z"
         id="path4308"
         style="fill:#ff6600;fill-opacity:1;fill-rule:nonzero;stroke:none"
         transform="translate(0,284.36218)" />
      <path
         inkscape:connector-curvature="0"
         d="m 199.57986,350.08561 c -13.56204,0.25791 -27.00865,2.16959 -40.39443,4.21027 -18.87396,3.079 -37.5657,7.12241 -56.07225,11.92093 -6.05743,1.71031 -5.022841,1.32839 -10.349911,3.12423 -2.912032,0.98169 -1.906008,0.43736 -3.765728,1.72694 0,0 0.09584,-0.13022 0.09584,-0.13022 l 0,0 c 0.761467,-0.74717 1.436687,-1.59384 2.284401,-2.24151 4.512665,-3.44776 10.059738,-5.03888 15.318408,-6.91539 18.78691,-5.68128 37.94067,-10.10255 57.30827,-13.30451 13.48311,-2.08337 27.03643,-4.09567 40.70009,-4.39758 0,0 -5.12469,6.00684 -5.12469,6.00684 z"
         id="path4310"
         style="fill:#ff6600;fill-opacity:1;fill-rule:nonzero;stroke:none"
         transform="translate(0,284.36218)" />
      <path
         inkscape:connector-curvature="0"
         d="m 213.76446,376.32482 c -12.38773,3.45607 -25.21772,5.12631 -37.89905,7.1491 -18.2222,2.94446 -36.5045,5.56721 -54.49982,9.72027 -3.35104,1.63481 -7.31926,1.3929 -10.74321,2.79626 -1.47837,0.60592 -2.76642,1.59932 -4.14963,2.39898 0,0 0.0982,-0.12845 0.0982,-0.12845 l 0,0 c 5.75603,-3.5908 11.48296,-7.28314 18.09712,-9.14125 2.66361,-0.78119 5.30853,-1.62917 7.99082,-2.34357 15.76864,-4.19984 31.96329,-6.48072 48.03605,-9.14364 12.61103,-2.05941 25.23988,-4.08138 37.68341,-7.02115 0,0 -4.61389,5.71345 -4.61389,5.71345 z"
         id="path4312"
         style="fill:#ff6600;fill-opacity:1;fill-rule:nonzero;stroke:none"
         transform="translate(0,284.36218)" />
      <path
         inkscape:connector-curvature="0"
         d="m 346.81423,656.19798 c -2.76375,-4.6407 -6.26294,-8.68183 -10.40122,-12.12996 -3.57463,-2.57964 -7.80904,-4.26201 -12.27218,-3.32541 -0.82591,0.17332 -1.60876,0.51042 -2.41314,0.76563 0.68237,-1.75193 -5.61666,4.36303 -4.43802,3.01735 0.97285,-1.11071 1.83627,-2.57467 3.24585,-3.01421 0.97641,-0.30447 -1.21872,1.64912 -1.72253,2.53921 -1.40935,2.48988 -1.46286,3.27818 -2.25502,6.01456 -0.98918,5.58256 0.0277,11.2215 3.19294,15.97324 0.5855,0.87898 1.30776,1.65874 1.96164,2.48811 4.76375,4.5552 7.49943,5.33997 13.19551,1.93409 0.6344,-0.52661 2.44037,-2.20529 1.90319,-1.57982 -1.05006,1.22265 -2.20389,2.36596 -3.45302,3.38438 -0.64677,0.52732 1.1084,-1.24869 1.63124,-1.89908 1.43964,-1.79082 2.67246,-3.73174 3.924,-5.65423 3.05277,-4.64937 7.40645,-10.23173 12.26686,-12.63074 4.17171,-1.40541 7.46813,1.00058 10.49571,3.62215 5.77048,5.81758 8.90188,13.38675 11.52879,20.99942 2.78194,9.51335 3.91218,19.51401 2.6973,29.38585 -0.26228,2.13115 -0.73229,4.23157 -1.09843,6.34735 -3.60627,14.51877 -10.06211,22.81567 -21.2816,32.79016 -1.59221,1.41553 -3.50329,2.42537 -5.25494,3.63806 -10.08665,5.5478 -21.41976,6.70924 -32.5573,3.92573 -2.27066,-0.56749 -4.45778,-1.42827 -6.68667,-2.14241 -8.73219,-3.8296 -17.73757,-8.53984 -24.08556,-15.89123 -0.81542,-0.94431 -1.46306,-2.02138 -2.19459,-3.03207 -2.68122,-5.44196 -1.48982,-7.6571 1.30406,-12.66122 0,0 0.12575,-0.10163 0.12575,-0.10163 l 0,0 c 1.20093,2.57592 2.09149,5.31687 3.90639,7.55388 7.03991,8.2848 15.98193,14.46937 26.12923,18.4255 2.20398,0.69107 4.36683,1.5304 6.61192,2.07322 11.04407,2.67022 22.2283,1.32722 32.10474,-4.3354 1.71668,-1.23318 3.35583,-2.58217 5.15005,-3.69954 0.35176,-0.21906 -1.02849,1.29996 -0.77301,0.97368 1.32413,-1.6911 2.7667,-3.29513 3.97897,-5.06813 3.68516,-5.38971 6.17682,-11.4215 7.78942,-17.72621 0.3951,-2.10775 0.89735,-4.19819 1.18529,-6.32323 1.32647,-9.78973 0.30672,-19.75112 -2.44913,-29.20357 -2.56778,-7.49159 -5.66538,-14.93782 -11.29858,-20.69137 -2.82197,-2.49949 -5.90754,-4.79 -9.77299,-3.10275 -2.99208,1.74683 -1.28456,0.91054 2.58694,-3.33471 0.37149,-0.40735 -0.81681,0.74267 -1.19166,1.14692 -1.29275,1.39414 -2.30485,3.016 -3.34022,4.60007 -3.93229,6.11431 -8.34439,11.95787 -14.45044,16.14807 -0.73861,0.38716 -1.43844,0.85962 -2.21582,1.16148 -4.56902,1.77416 -8.73108,-0.35665 -11.89673,-3.6823 -0.66752,-0.87022 -1.40345,-1.69201 -2.00257,-2.61067 -3.21064,-4.92304 -4.37493,-10.71142 -3.48757,-16.49478 0.28312,-1.07522 0.48875,-2.1739 0.84938,-3.22567 2.37669,-6.93154 8.2691,-12.65967 14.77669,-15.78352 0.83508,-0.21672 1.65338,-0.51358 2.50524,-0.65017 4.6333,-0.74291 8.99972,1.03452 12.66717,3.74535 4.16266,3.5458 7.78098,7.63198 10.42729,12.45111 0,0 -5.14862,4.88946 -5.14862,4.88946 z"
         id="path4314"
         style="fill:#ff6600;fill-opacity:1;fill-rule:nonzero;stroke:none" />
      <path
         inkscape:connector-curvature="0"
         d="m 394.03558,631.8844 c -1.72386,7.57925 -0.21561,15.21246 1.90175,22.5298 2.45968,6.69022 6.02824,13.32883 12.07828,17.4399 0.98466,0.66908 2.08217,1.15474 3.12325,1.73211 5.29005,2.3583 10.56055,1.12866 15.91382,-0.10895 1.25879,-0.35701 1.20092,-0.24504 1.03075,0.74112 0,0 -0.0951,0.13078 -0.0951,0.13078 l 0,0 c -1.45936,1.68081 -2.96995,3.33382 -5.0356,4.28455 -5.78392,2.68769 -11.21845,3.18391 -17.23863,0.68114 -1.07034,-0.61194 -2.19786,-1.13325 -3.21102,-1.83582 -6.13561,-4.25474 -9.8226,-10.97934 -12.37223,-17.81157 -2.21109,-7.42171 -3.8923,-15.20618 -2.14333,-22.92271 0,0 6.04803,-4.86035 6.04803,-4.86035 z"
         id="path4316"
         style="fill:#ff6600;fill-opacity:1;fill-rule:nonzero;stroke:none" />
      <path
         inkscape:connector-curvature="0"
         d="m 381.20554,611.05726 c -2.34393,-1.78831 -4.66134,-3.56581 -4.61698,-6.73669 3.50296,-8.26291 8.77777,-8.51472 15.58205,-6.71775 4.0635,1.5725 8.67156,3.86604 10.5071,8.13378 0.28346,0.65905 0.3611,1.38866 0.54165,2.083 -0.18251,1.63948 -0.0265,2.63074 -1.27575,3.94218 -6.81139,7.15047 -7.82298,8.69741 -16.56805,8.27862 -4.54006,-0.91441 -10.4179,-2.73892 -12.23243,-7.60159 -0.25888,-0.69376 -0.25891,-1.45817 -0.38836,-2.18725 0.32936,-2.78729 1.81648,-4.68106 3.87241,-6.49469 5.15851,-4.55058 2.98022,-4.70067 6.32517,-3.9367 0,0 -0.0997,0.12731 -0.0997,0.12731 l 0,0 c -1.0649,0.76644 -1.97376,1.81893 -3.19469,2.29931 -0.55178,0.2171 1.46797,-1.0462 1.03244,-1.44857 -0.17873,-0.16513 -3.34943,3.73382 -2.30101,4.44787 0.13366,0.60479 0.15734,1.24491 0.40097,1.81436 1.93636,4.52599 7.35044,6.23146 11.74043,6.98336 2.66727,0.0437 3.65111,0.2745 6.21273,-0.50092 0.86923,-0.26312 2.81329,-1.95116 2.49184,-1.10177 -0.65053,1.71896 -2.37116,2.812 -3.64167,4.14009 -0.4727,0.49412 0.94325,-1.01747 1.24258,-1.63229 0.27254,-0.55979 0.29089,-1.21076 0.43633,-1.81615 -0.12181,-0.63694 -0.13411,-1.30499 -0.36541,-1.91081 -1.56798,-4.10683 -6.14715,-6.31005 -9.89418,-7.88953 -1.92675,-0.51839 -2.80202,-0.89107 -4.77719,-0.92139 -0.64181,-0.01 -1.29088,0.042 -1.91682,0.18418 -0.50959,0.11573 -1.75356,1.01113 -1.45574,0.58174 0.96498,-1.39135 6.10841,-6.70979 3.49797,-3.68342 -0.62428,2.89556 1.94673,4.65279 3.92105,6.32951 0,0 -5.07677,5.23421 -5.07677,5.23421 z"
         id="path4318"
         style="fill:#ff6600;fill-opacity:1;fill-rule:nonzero;stroke:none" />
      <path
         inkscape:connector-curvature="0"
         d="m 447.50583,571.90946 c -2.73319,8.87083 -3.10405,18.14508 -3.02951,27.35187 0.60661,13.15808 3.61155,26.11289 8.7664,38.23375 1.05284,2.4756 2.2879,4.86967 3.43185,7.3045 4.95484,8.92141 10.55119,18.41985 19.51892,23.90007 1.2197,0.74536 2.5623,1.2679 3.84344,1.90186 5.9043,2.21863 11.90846,1.27014 17.77883,-0.44177 1.22602,-0.0992 0.69812,-0.0847 1.58203,-0.0851 0,0 -0.0964,0.12984 -0.0964,0.12984 l 0,0 c -3.1099,3.11727 -1.4547,1.6506 -4.97262,4.39207 -7.09492,3.77165 -11.89301,4.36979 -19.6642,1.7307 -1.30592,-0.67075 -2.67461,-1.23126 -3.91774,-2.01224 -9.008,-5.65907 -14.65867,-15.24161 -19.66584,-24.29595 -1.15361,-2.45101 -2.39667,-4.86188 -3.46083,-7.35303 -5.198,-12.16826 -8.29874,-25.16079 -9.02045,-38.37515 -0.117,-9.42907 0.32946,-18.91521 3.34549,-27.94143 0,0 5.56059,-4.43995 5.56059,-4.43995 z"
         id="path4320"
         style="fill:#ff6600;fill-opacity:1;fill-rule:nonzero;stroke:none" />
      <path
         inkscape:connector-curvature="0"
         d="m 469.20026,634.88913 c -7.15889,-0.4096 -14.30795,-0.42284 -21.47136,-0.10118 -6.88089,0.35943 -13.7293,1.11227 -20.57948,1.82409 -2.55266,-0.0223 -4.04527,0.79194 -5.48366,-1.64673 0,0 0.10272,-0.12485 0.10272,-0.12485 l 0,0 c 3.27891,-1.93202 6.54494,-3.6834 10.37861,-4.22207 6.85303,-0.91349 13.75585,-1.40182 20.65447,-1.8223 7.12896,-0.29997 14.32851,-0.53478 21.42624,0.32141 0,0 -5.02754,5.77163 -5.02754,5.77163 z"
         id="path4322"
         style="fill:#ff6600;fill-opacity:1;fill-rule:nonzero;stroke:none" />
      <path
         style="fill:#ff6600;fill-opacity:1;fill-rule:nonzero;stroke:none"
         id="path4492"
         d="m 492.26684,373.71084 c -2.46464,-2.76628 -5.34866,-4.91455 -8.76804,-6.31731 -4.78464,-1.45857 -9.69421,-0.54028 -14.42621,0.63247 -3.1267,0.93859 -6.2627,2.07376 -8.97264,3.93933 -0.52103,0.35869 -1.91415,1.64442 -1.49016,1.17499 1.03841,-1.14968 2.22941,-2.15174 3.34412,-3.22762 -2.35165,3.0931 -0.0977,5.65755 2.26392,7.85878 5.17547,3.96761 11.54926,5.79266 17.61724,7.92178 4.28359,1.82781 10.37254,3.26568 13.31912,7.22444 0.41361,0.55568 0.63399,1.23186 0.95098,1.84779 0.0507,0.68504 0.24044,1.37389 0.15219,2.05511 -0.20361,1.57162 -1.2003,3.38405 -2.24354,4.51467 -5.23158,5.66971 -7.28303,7.68577 -13.3751,10.8501 -5.26144,2.02945 -11.86041,3.70368 -17.24622,0.93622 -0.90624,-0.46567 -1.62692,-1.22703 -2.44039,-1.84054 -2.07223,-3.63258 -1.00992,-1.85958 -3.18183,-5.32206 0,0 0.11449,-0.11417 0.11449,-0.11417 l 0,0 c 3.45894,2.29313 1.51678,1.44074 5.89827,2.38689 2.01313,0.4238 4.6585,1.04846 6.71976,1.21248 4.97345,0.39573 9.85641,-0.70245 14.37467,-2.74478 1.08767,-0.5961 2.21619,-1.12307 3.263,-1.78831 0.9904,-0.6294 2.32847,-3.14547 2.83511,-2.08699 0.53389,1.11541 -1.48793,2.05382 -2.53969,2.70419 -0.77249,0.47769 1.187,-1.38531 1.66037,-2.16045 1.12754,-1.84632 0.91309,-1.98529 1.03585,-3.96834 -0.23879,-0.58755 -0.37003,-1.23134 -0.71637,-1.76264 -2.5923,-3.97667 -8.90129,-5.38937 -12.94443,-7.17093 -6.14937,-2.16693 -12.59456,-4.05032 -17.83127,-8.08645 -2.52695,-2.37611 -5.00903,-5.22395 -2.83928,-8.70182 1.86628,-1.86854 3.67646,-3.79483 5.59883,-5.6056 2.84492,-2.67975 7.03857,-3.67299 10.60961,-4.88177 4.84536,-1.12961 9.86572,-1.98714 14.71203,-0.35809 3.47526,1.50996 6.36403,3.76709 8.75682,6.72241 0,0 -4.21121,4.15622 -4.21121,4.15622 z"
         inkscape:connector-curvature="0"
         transform="matrix(1.1378182,-0.06952323,0.06952323,1.1378182,20.167797,221.02681)" />
      <path
         style="fill:#ff6600;fill-opacity:1;fill-rule:nonzero;stroke:none"
         id="path4494"
         d="m 536.1518,333.30981 c -1.51098,8.57203 -1.50664,17.30376 -1.36399,25.97611 0.17445,10.45548 1.48485,20.81446 4.21216,30.90431 1.85565,5.47336 4.10778,11.32623 8.70361,15.13385 0.66109,0.54771 1.41939,0.96612 2.12909,1.44918 4.35332,2.18883 8.68632,1.211 12.90931,-0.68881 0.38275,-0.19825 0.7655,-0.3965 1.14824,-0.59476 0,0 -0.096,0.13014 -0.096,0.13014 l 0,0 c -0.98478,0.98987 -1.96956,1.97974 -2.95434,2.96961 -5.35866,4.08971 -9.65491,6.42074 -16.34605,3.74493 -0.77094,-0.49011 -1.59566,-0.90444 -2.31283,-1.47032 -4.81343,-3.79805 -7.05864,-9.87876 -8.95997,-15.47154 -2.68586,-10.19315 -4.0501,-20.6405 -4.17542,-31.19109 -0.0555,-8.8714 0.083,-17.80238 1.78719,-26.54156 0,0 5.31895,-4.35005 5.31895,-4.35005 z"
         inkscape:connector-curvature="0"
         transform="matrix(1.1378182,-0.06952323,0.06952323,1.1378182,20.167797,221.02681)" />
      <path
         style="fill:#ff6600;fill-opacity:1;fill-rule:nonzero;stroke:none"
         id="path4496"
         d="m 555.51954,375.37073 c -7.30473,-1.88988 -14.59326,-3.76849 -22.03244,-5.05397 -7.08851,-1.20564 -14.25171,-1.04784 -21.3549,-0.15324 -1.88064,0.19906 -3.70667,0.67889 -5.54724,1.07994 -0.48411,0.10548 -1.27735,0.38983 -1.06289,-0.35514 0,0 -0.13074,0.0951 -0.13074,0.0951 l 0,0 c 3.49099,-4.01423 6.11949,-5.40959 11.37976,-6.41314 7.21048,-1.18353 14.50018,-1.15356 21.71557,0.097 7.3287,1.33856 14.63265,2.9546 21.59059,5.67697 0,0 -4.55771,5.02643 -4.55771,5.02643 z"
         inkscape:connector-curvature="0"
         transform="matrix(1.1378182,-0.06952323,0.06952323,1.1378182,20.167797,221.02681)" />
      <path
         style="fill:#ff6600;fill-opacity:1;fill-rule:nonzero;stroke:none"
         id="path4498"
         d="m 592.66444,380.71501 c -1.5646,-3.97041 -4.6395,-6.4339 -8.54109,-7.87738 -4.68584,-1.11694 -8.76067,0.56873 -12.41035,3.41846 1.10856,-1.05725 2.01718,-2.37518 3.32568,-3.17175 0.66698,-0.40603 -0.93883,1.2553 -1.30792,1.94342 -1.81682,3.38723 -1.58207,6.85779 -1.0552,10.52274 1.29642,5.11722 3.67613,10.21788 7.86864,13.62 0.72691,0.58987 1.56236,1.03167 2.34354,1.54751 3.48994,1.60407 6.95648,1.23048 10.15121,-0.89909 0.84997,-0.56659 2.99944,-2.74726 2.37007,-1.94267 -0.76211,0.97429 -1.85093,1.64141 -2.7764,2.46211 4.27115,-5.5819 5.57888,-12.32717 6.18206,-19.15647 0.10607,-2.06297 0.17533,-4.1326 0.10094,-6.19829 -0.0115,-0.32007 -0.03,-0.6402 -0.0637,-0.9587 -0.0129,-0.1218 -0.17243,-0.28463 -0.0756,-0.35957 1.73767,-1.34439 3.60585,-2.51105 5.40877,-3.76658 0.33286,5.4082 1.7659,10.64101 3.45696,15.75963 2.31595,6.65092 6.12906,12.46543 10.81551,17.65778 1.4773,1.81802 3.81564,2.87366 4.90472,5.02389 0.27768,0.54823 0.34603,1.17938 0.51905,1.76907 0,0 -0.10837,0.11999 -0.10837,0.11999 l 0,0 c -0.97082,0.2648 -1.91246,0.68206 -2.91246,0.7944 -2.88049,0.32358 -5.08051,-1.2229 -7.27961,-2.82632 -5.61785,-4.99331 -8.82747,-10.49318 -11.45147,-17.51461 -1.75467,-5.20311 -3.26967,-10.54361 -3.46229,-16.06909 1.80168,-1.86192 3.51855,-3.80983 5.40505,-5.58576 0.1146,-0.10788 0.0216,0.3141 0.0277,0.47138 0.0133,0.33814 0.023,0.67644 0.0307,1.01476 0.0475,2.09831 0.0354,4.19807 -0.10354,6.29346 -0.57747,6.81177 -1.74669,13.61772 -5.72924,19.35994 -4.57703,4.75434 -10.08204,12.68416 -17.9576,10.90828 -0.91146,-0.20553 -1.7523,-0.6492 -2.62845,-0.9738 -0.81426,-0.5493 -1.68555,-1.02231 -2.44279,-1.64789 -4.29772,-3.55051 -6.63414,-8.87405 -8.01538,-14.13346 -1.56285,-10.33352 0.91599,-12.25594 8.64365,-19.64754 3.86878,-2.71093 8.10828,-4.15968 12.82576,-2.83716 4.1873,1.66494 7.08265,4.1086 8.94248,8.29339 0,0 -5.00107,4.58592 -5.00107,4.58592 z"
         inkscape:connector-curvature="0"
         transform="matrix(1.1378182,-0.06952323,0.06952323,1.1378182,20.167797,221.02681)" />
      <path
         style="fill:#ff6600;fill-opacity:1;fill-rule:nonzero;stroke:none"
         id="path4500"
         d="m 643.45832,345.51305 c -1.52488,6.63145 -0.53801,13.492 0.53048,20.11012 1.47567,7.22078 3.70078,14.45939 7.92535,20.59033 0.74214,1.07702 1.61196,2.06024 2.41793,3.09036 5.013,5.56072 11.10367,7.85207 18.3152,8.96656 0.72451,0.061 4.26029,0.3204 5.16095,0.52701 0.53283,0.12222 0.98364,0.55671 1.52912,0.59278 0.59494,0.0393 1.16584,-0.25066 1.74876,-0.37599 0,0 -0.10082,0.1264 -0.10082,0.1264 l 0,0 c -4.03514,1.81843 -7.84611,4.05386 -12.45383,3.8568 -8.32753,-0.36017 -13.7776,-2.1854 -19.66508,-8.35717 -0.82815,-1.05089 -1.72256,-2.0528 -2.48446,-3.15266 -4.29813,-6.20465 -6.51506,-13.56736 -8.05242,-20.87257 -1.1011,-6.86251 -2.04066,-13.98233 -0.23478,-20.81658 0,0 5.3636,-4.28539 5.3636,-4.28539 z"
         inkscape:connector-curvature="0"
         transform="matrix(1.1378182,-0.06952323,0.06952323,1.1378182,20.167797,221.02681)" />
      <path
         style="fill:#ff6600;fill-opacity:1;fill-rule:nonzero;stroke:none"
         id="path4502"
         d="m 659.88681,377.55527 c -6.69695,-0.79907 -13.4098,-1.28245 -20.15039,-1.46869 -5.78219,-0.51696 -11.68039,0.81007 -17.42931,0.045 -1.20799,-0.71811 -0.58032,-0.54882 -1.85606,-0.59887 0,0 0.10071,-0.12649 0.10071,-0.12649 l 0,0 c 2.59988,-1.47163 1.15695,-0.66719 4.3362,-2.39998 0.90022,-0.31988 1.77967,-0.70564 2.70065,-0.95964 5.42274,-1.49561 11.22217,-1.21005 16.77734,-1.35034 6.70871,0.18505 13.4366,0.54817 20.0599,1.69249 0,0 -4.53904,5.16648 -4.53904,5.16648 z"
         inkscape:connector-curvature="0"
         transform="matrix(1.1378182,-0.06952323,0.06952323,1.1378182,20.167797,221.02681)" />
      <path
         style="fill:#ff6600;fill-opacity:1;fill-rule:nonzero;stroke:none"
         id="path4504"
         d="m 688.77036,370.58131 c 0.28971,6.08406 2.61945,11.6685 5.34013,17.02057 3.37472,6.22513 8.14917,11.28334 14.1302,15.01416 2.65734,1.32303 5.85618,2.57983 8.71775,0.99292 0.61402,-0.34052 2.15767,-1.79391 1.65175,-1.30707 -1.17014,1.126 -2.4323,2.1523 -3.64845,3.22845 3.69985,-6.32275 3.7214,-13.77472 3.57456,-20.88372 -0.29417,-5.50125 -1.0152,-10.97443 -2.03155,-16.3868 -0.65882,-3.12571 -1.59378,-0.92026 4.73469,-5.42322 0.27036,-0.19236 -0.0426,0.66348 -0.0289,0.99501 0.0219,0.53176 0.0904,1.06058 0.13554,1.59086 0.87696,6.48663 3.49003,12.52099 6.41156,18.3152 3.26622,6.4364 8.04333,11.79778 12.91446,17.03655 2.26701,2.77186 1.38878,1.26136 2.66981,4.51091 0,0 -0.11074,0.11782 -0.11074,0.11782 l 0,0 c -4.43177,0.20607 -2.33148,0.5123 -6.31842,-0.78886 -0.90359,-0.54552 -1.85294,-1.0216 -2.71079,-1.63655 -5.06516,-3.63095 -8.60455,-9.01739 -11.69863,-14.30772 -2.98386,-5.85324 -5.70392,-11.92438 -6.62896,-18.49028 -0.0287,-0.31579 -0.28022,-2.63771 -0.15697,-2.7979 3.41628,-4.43994 5.04079,-7.96597 5.96614,-3.712 1.00254,5.45721 1.74058,10.96787 2.0546,16.51015 0.23186,7.07817 0.34138,14.4778 -2.89374,20.97139 -0.66615,0.70406 -5.45305,6.8954 -8.56004,8.26684 -3.12857,1.38097 -6.42857,0.0858 -9.23082,-1.38698 -5.9931,-3.95326 -10.81448,-9.14987 -14.13632,-15.56148 -2.6886,-5.51601 -4.95313,-11.27639 -5.28225,-17.47959 0,0 5.13544,-4.40866 5.13544,-4.40866 z"
         inkscape:connector-curvature="0"
         transform="matrix(1.1378182,-0.06952323,0.06952323,1.1378182,20.167797,221.02681)" />
      <path
         style="fill:#ff6600;fill-opacity:1;fill-rule:nonzero;stroke:none"
         id="path4506"
         d="m 765.18388,361.43304 c -4.36508,-1.14762 -8.67668,-0.39076 -12.73358,1.38804 0.8595,-1.34803 -3.94453,3.09787 -2.91563,2.38004 1.12305,-0.7835 1.90154,-2.0823 3.15743,-2.62804 0.39617,-0.17215 -0.16454,0.86844 -0.0852,1.29304 0.24688,1.32147 1.07551,2.00257 1.90516,3.0001 5.25873,4.48852 11.17146,8.08228 16.40683,12.61196 3.46691,3.35053 6.8267,7.6788 5.43178,12.81375 -0.22785,0.83877 -0.67492,1.60197 -1.01238,2.40295 -3.79851,5.40885 -8.86601,10.71471 -15.86807,10.51113 -0.83343,-0.0242 -1.65412,-0.21138 -2.48119,-0.31707 -2.8851,-0.66955 -3.82828,-1.73286 -5.36339,-4.10377 0,0 0.1095,-0.11896 0.1095,-0.11896 l 0,0 c 2.98897,-0.19203 5.96759,-0.30969 8.96135,-0.0841 2.77841,-0.11682 5.35633,-0.28507 7.94054,-1.44243 0.81615,-0.36553 2.49236,-2.19027 2.34194,-1.30874 -0.22463,1.31649 -1.7214,2.04393 -2.6338,3.01919 -0.59346,0.63435 1.1174,-1.33034 1.6761,-1.99551 0.37497,-0.75318 0.85395,-1.46301 1.12491,-2.25954 1.67364,-4.91987 -1.54754,-9.14734 -4.87615,-12.4041 -5.20137,-4.57215 -11.00039,-8.39544 -16.01648,-13.16572 -0.65059,-0.86895 -2.89591,-3.6597 -1.9901,-5.02042 2.01765,-3.0309 4.16275,-5.45751 7.26678,-7.08787 4.16668,-1.59129 8.51934,-2.27989 12.90091,-1.06185 0,0 -3.24724,3.57797 -3.24724,3.57797 z"
         inkscape:connector-curvature="0"
         transform="matrix(1.1378182,-0.06952323,0.06952323,1.1378182,20.167797,221.02681)" />
    </g>
    <path
       style="fill:#000080;fill-opacity:1;fill-rule:nonzero;stroke:none"
       id="path4464"
       d="m 123.33336,54.77206 c -0.87945,-5.406385 -4.89499,-9.112707 -8.94317,-12.403289 -4.57385,-3.239259 -9.80183,-5.909371 -15.516448,-6.145467 -1.054891,-0.04358 -2.109781,0.08718 -3.164671,0.130771 -6.765546,0.985417 -12.016249,5.149312 -16.835062,9.698954 0.773232,-0.725932 1.282245,-2.398161 2.319696,-2.177797 0.965921,0.20517 -1.29579,1.491285 -1.909429,2.264941 -1.892961,2.386586 -3.423347,4.797932 -4.303412,7.715787 -0.01918,0.529438 -0.126325,1.063015 -0.05753,1.588315 0.516361,3.942669 6.223037,6.899684 9.124388,8.787092 8.402908,5.168002 16.817326,10.400872 24.285796,16.891102 1.77152,1.539478 3.43869,3.19507 5.15803,4.792605 7.10635,7.40512 14.00282,15.925726 16.02822,26.284796 0.31525,1.6124 0.33365,3.26888 0.50048,4.90332 -0.15453,1.52115 -0.14408,3.06823 -0.4636,4.56344 -1.64616,7.70328 -9.1462,15.13004 -15.93533,18.41741 -1.47191,0.71272 -3.05618,1.16519 -4.58427,1.74778 -9.478592,2.48036 -19.257164,1.32511 -28.159978,-2.69403 -1.880789,-0.84907 -3.646642,-1.93266 -5.469964,-2.89899 -6.659297,-4.44863 -13.447831,-9.74153 -17.041186,-17.12803 -0.437986,-0.90032 -0.718058,-1.86924 -1.077086,-2.80386 -0.669603,-2.60845 0.146661,-4.64471 1.248252,-6.94002 0,0 0.12537,-0.10209 0.12537,-0.10209 l 0,0 c 0.411054,1.47545 1.586922,2.25882 2.200868,3.69848 4.694099,7.76141 11.344892,13.83419 19.313114,18.19559 1.847347,0.89894 3.646861,1.90368 5.542039,2.69684 8.901285,3.72529 18.526761,4.87509 27.874881,2.21493 1.49774,-0.61587 3.05609,-1.10115 4.4932,-1.84762 1.35297,-0.70277 2.33806,-2.23111 3.8419,-2.48184 0.95107,-0.15857 -2.25277,3.06741 -1.92197,2.16174 0.48974,-1.34084 1.76158,-2.26616 2.42229,-3.53152 1.79383,-3.43545 1.61901,-4.71372 2.12697,-8.51586 -0.12466,-1.61434 -0.0966,-3.24781 -0.37397,-4.84303 -1.79174,-10.30534 -8.64837,-18.770617 -15.58578,-26.169099 -1.69716,-1.598243 -3.34342,-3.252317 -5.09147,-4.794729 C 96.10472,79.519368 87.778517,74.212985 79.357966,69.119901 76.01462,66.934022 70.626924,64.21637 69.850568,59.766514 c -0.100514,-0.576117 -0.01212,-1.169575 -0.01819,-1.754363 1.897303,-7.072032 7.950122,-12.127295 12.837805,-17.144503 4.901652,-4.490484 10.234349,-8.497354 17.059629,-9.248377 1.075926,-0.01685 2.153986,-0.120511 3.227766,-0.05053 5.79633,0.377747 11.0809,3.111959 15.72876,6.413939 4.17791,3.386148 8.25755,7.168402 9.37592,12.670786 0,0 -4.7289,4.118597 -4.7289,4.118597 z"
       inkscape:connector-curvature="0"
       transform="translate(0,284.36218)" />
    <path
       style="fill:#000080;fill-opacity:1;fill-rule:nonzero;stroke:none"
       id="path4466"
       d="m 161.94744,43.007099 c -0.42941,-2.169167 -0.91212,-4.3288 -1.28825,-6.508185 -0.27407,-1.742233 -1.12088,-0.499361 3.55475,-3.454841 0.27615,-0.174551 -0.24999,0.604307 -0.35209,0.914629 -0.14806,0.450023 -0.26516,0.909648 -0.39774,1.364472 -1.65741,6.499861 -2.34082,13.189259 -2.86277,19.859595 -0.82484,11.25022 0.9383,22.350625 3.33039,33.297887 2.80317,12.084424 7.05331,23.744844 12.26201,34.983024 2.68005,4.71987 5.27235,11.32331 10.30707,14.13296 0.63904,0.35662 1.365,0.52817 2.0475,0.79226 4.86177,0.7385 9.08148,-1.88677 13.08343,-4.28703 2.06651,-1.17187 1.02171,-0.45506 3.07622,-2.23286 0,0 -0.0955,0.13051 -0.0955,0.13051 l 0,0 c -3.18574,3.16474 -1.47245,1.49494 -5.15329,4.99557 -4.54599,3.68886 -9.59972,7.51498 -15.79099,6.70752 -0.75673,-0.27808 -1.55767,-0.45704 -2.27018,-0.83425 -5.39316,-2.85518 -7.6918,-9.5274 -10.4848,-14.48785 -5.12933,-11.36722 -9.36088,-23.12346 -12.14136,-35.300344 -2.35067,-11.101653 -4.06734,-22.354318 -3.11692,-33.740946 0.56426,-6.841306 1.306,-13.708039 3.21495,-20.327131 0.0125,-0.03755 0.7361,-2.335649 0.937,-2.560468 1.93545,-2.165811 4.34921,-6.413727 4.65108,-3.28734 0.24338,2.379868 0.37842,4.769684 0.55567,7.154991 0,0 -3.06623,2.687827 -3.06623,2.687827 z"
       inkscape:connector-curvature="0"
       transform="translate(0,284.36218)" />
    <path
       style="fill:#000080;fill-opacity:1;fill-rule:nonzero;stroke:none"
       id="path4468"
       d="m 174.26247,97.483514 c -7.57781,-0.808898 -15.1734,-1.266924 -22.79101,-1.418546 -6.8514,-0.13629 -13.6532,0.59989 -20.38017,1.828668 -0.97846,1.453455 -1.2863,-0.484752 -1.94529,-0.183711 0,0 -0.13069,0.09519 -0.13069,0.09519 l 0,0 c 1.59768,-1.768795 3.30301,-3.348284 5.57435,-4.231427 6.89133,-2.331373 14.14434,-2.90197 21.39404,-2.769534 7.52742,0.165351 15.09764,0.468212 22.51415,1.862286 0,0 -4.23538,4.817079 -4.23538,4.817079 z"
       inkscape:connector-curvature="0"
       transform="translate(0,284.36218)" />
    <path
       style="fill:#000080;fill-opacity:1;fill-rule:nonzero;stroke:none"
       id="path4470"
       d="m 238.31629,97.415869 c 0.44914,-0.323284 0.90269,-0.640523 1.34741,-0.969851 0.96951,-0.717947 1.87897,-1.4084 2.77537,-2.216374 0.3892,-0.350803 1.50734,-1.456152 1.12652,-1.096275 -3.52303,3.32923 -4.11807,4.483252 -2.74901,2.23872 1.05035,-3.067317 -2.51223,-4.565395 -4.74255,-5.628902 -5.61606,-2.261394 -11.02426,-2.193923 -16.81696,-0.795663 -2.30667,0.927416 -3.15566,1.109307 -5.19718,2.564254 -0.78875,0.562122 -2.87752,2.586727 -2.21666,1.878654 0.77254,-0.827742 1.46853,-2.562894 2.55369,-2.239764 0.95178,0.283413 -1.12097,1.646474 -1.56787,2.533314 -0.46501,0.92277 -0.7719,1.917065 -1.15785,2.875597 -2.12289,7.385021 -0.16796,14.576641 2.73608,21.422261 2.6377,4.85118 5.94056,10.31716 11.39541,12.40168 0.85774,0.32778 1.78474,0.43283 2.67711,0.64925 3.00434,0.15447 5.73513,-0.64345 8.24092,-2.31457 0.89549,-0.59721 2.80727,-3.06772 2.50817,-2.03375 -0.3204,1.10761 -1.89779,3.22465 -2.58481,2.29866 -0.72705,-0.97993 1.35363,-2.03057 2.03044,-3.04585 3.93515,-7.32305 3.95864,-14.74968 2.64198,-22.73331 -1.10407,-4.670638 -2.6509,-9.364622 -5.42629,-13.328544 -0.24603,-0.236459 -0.65126,-0.805624 -1.12254,-0.74519 -0.38712,0.04964 -1.09812,1.108148 -0.80612,0.849186 4.38051,-3.884867 4.87635,-5.889717 3.88443,-2.951282 -0.70166,5.027238 1.77678,9.713844 4.00605,14.03773 4.08462,7.43752 9.51808,13.93764 15.56655,19.83709 4.17352,4.20746 9.35697,6.75237 14.64896,9.18482 1.79863,1.49175 0.86183,0.86945 2.78501,1.90457 0,0 -0.10489,0.12305 -0.10489,0.12305 l 0,0 c -3.76877,1.08907 -1.8104,0.55745 -5.87882,1.58113 -0.9553,0.002 -1.91485,0.096 -2.8659,0.006 -5.45531,-0.51632 -9.95315,-3.96491 -13.88432,-7.48919 -6.07663,-5.99132 -11.56377,-12.57003 -15.62446,-20.12044 -2.26218,-4.59031 -4.69787,-9.475534 -4.01525,-14.747181 0.97888,-3.578086 0.17995,-1.396118 5.47797,-6.786351 0.88427,-0.899653 2.0456,0.15103 2.59169,0.822912 2.77688,4.064334 4.47204,8.760494 5.63388,13.518078 1.47082,7.972622 1.66385,15.435422 -2.05342,22.891222 -3.39277,5.52419 -1.95057,3.67419 -9.11283,10.54702 -3.11312,2.98733 -7.1576,4.45737 -11.43107,4.14774 -0.94715,-0.24529 -1.93171,-0.37581 -2.84144,-0.73588 -5.62764,-2.22744 -8.95985,-7.8315 -11.55569,-12.94335 -2.88482,-7.10948 -4.76307,-14.54471 -2.67392,-22.16583 0.38249,-1.002217 0.68556,-2.038469 1.14748,-3.006651 2.96404,-6.212733 9.02689,-11.307242 15.51111,-13.484486 5.77012,-1.228725 11.55856,-1.206244 17.08844,1.115525 2.57948,1.262901 6.1304,2.955872 5.36668,6.406156 -2.21408,4.251088 -6.62137,7.299097 -10.516,9.974896 0,0 3.2045,-4.230761 3.2045,-4.230761 z"
       inkscape:connector-curvature="0"
       transform="translate(0,284.36218)" />
    <path
       style="fill:#000080;fill-opacity:1;fill-rule:nonzero;stroke:none"
       id="path4472"
       d="m 284.96456,39.960244 c -0.0844,9.449513 1.74936,18.773452 3.5503,28.006405 2.75643,13.520215 6.41474,26.829674 11.07093,39.814991 2.89145,7.9628 6.86437,14.95088 13.00891,20.79102 2.69178,2.47765 5.95779,4.08618 9.15957,5.76984 0.65939,0.5823 0.40391,0.27432 0.80946,0.88651 0,0 -0.0985,0.12823 -0.0985,0.12823 l 0,0 c -2.59152,2.21467 -1.24454,1.29749 -3.99501,2.8178 -0.60794,0.14112 -1.20254,0.36409 -1.82383,0.42334 -3.70321,0.35314 -6.85223,-2.40183 -9.539,-4.5146 -6.35036,-6.12524 -10.07934,-12.90481 -13.10219,-21.19592 -4.61566,-13.073792 -8.19747,-26.47919 -10.95753,-40.067742 -1.80304,-9.360408 -3.66842,-18.86408 -3.33413,-28.442654 0,0 5.251,-4.41722 5.251,-4.41722 z"
       inkscape:connector-curvature="0"
       transform="translate(0,284.36218)" />
    <path
       style="fill:#000080;fill-opacity:1;fill-rule:nonzero;stroke:none"
       id="path4474"
       d="m 298.77529,84.212328 c -6.18515,1.228972 -12.49504,1.535437 -18.78196,1.730203 -5.9334,-0.15754 -12.01606,0.278135 -17.87186,-0.887386 -1.11961,-0.703728 -0.63072,-0.391458 -1.46963,-0.932144 0,0 0.10114,-0.126148 0.10114,-0.126148 l 0,0 c 2.40552,-1.497883 1.08044,-0.784309 4.01212,-2.0708 6.49921,-1.472717 13.18814,-1.081434 19.80957,-1.387747 6.22465,-0.265509 12.46851,-0.603105 18.61184,-1.703528 0,0 -4.41122,5.37755 -4.41122,5.37755 z"
       inkscape:connector-curvature="0"
       transform="translate(0,284.36218)" />
    <path
       style="fill:#000080;fill-opacity:1;fill-rule:nonzero;stroke:none"
       id="path4476"
       d="m 327.78479,83.31399 c -2.10847,-1.495513 -4.24361,-2.954906 -6.47354,-4.264078 -2.35417,-1.35387 -3.54375,-0.03039 3.66487,-4.263725 0.29243,-0.171735 0.0653,0.675114 0.098,1.012671 0.76097,4.86151 2.54454,9.476046 4.36927,14.01835 3.11519,7.597106 7.15242,14.747722 11.47829,21.708172 3.41559,5.40902 7.12703,10.65783 11.97773,14.86819 3.03275,2.26496 5.67145,3.22159 9.20193,1.58486 0.41214,-0.32496 1.60107,-1.35238 1.23643,-0.97489 -1.26225,1.30673 -2.4818,2.68132 -3.93633,3.76996 -0.56198,0.42061 0.85005,-1.12132 1.2059,-1.72639 1.37775,-2.34265 2.01835,-4.86433 2.66138,-7.47509 1.26021,-6.09555 0.67995,-12.26019 -0.27268,-18.34288 -0.79641,-4.475386 -1.8023,-8.908822 -2.95209,-13.305575 -0.51155,-1.930497 -1.04102,-3.855885 -1.6233,-5.766222 0.23125,-0.05878 -0.25466,-0.328057 -0.1402,-0.422473 6.85331,-5.65316 5.19975,-6.162825 7.30693,-0.06359 2.58996,8.004263 5.42283,15.923218 8.41252,23.785924 2.32801,6.51705 5.44209,12.69085 8.36441,18.94687 0.24594,0.54512 1.17291,2.43606 1.21735,3.12815 0.31233,4.86366 -0.81635,-0.24615 0.0504,3.19149 0,0 -0.11276,0.11587 -0.11276,0.11587 l 0,0 c -3.06091,-0.20858 -3.76179,0.99756 -6.1517,-1.6776 -4.17518,-5.52502 -6.21133,-12.3328 -8.87671,-18.64264 -2.98493,-7.87231 -5.86843,-15.785806 -8.43737,-23.805094 -1.9506,-6.077836 -2.63474,-3.333899 3.69223,-9.829205 0.099,-0.10158 -0.22758,0.869634 0.0642,0.420553 0.45746,1.976568 0.95796,3.942466 1.47755,5.903668 1.14519,4.426678 2.14954,8.889452 2.96009,13.390314 0.9799,6.139284 1.60109,12.364204 0.45843,18.537734 -1.59423,7.41295 -4.08877,12.36853 -11.22678,16.69883 -3.85163,1.38821 -6.66608,0.34307 -9.84523,-2.11057 -4.84298,-4.33576 -8.56563,-9.65995 -11.99612,-15.15428 -4.34089,-7.0151 -8.44,-14.20076 -11.46908,-21.896821 -1.78559,-4.66577 -3.60054,-9.398185 -4.26814,-14.378865 -0.27214,-3.488569 3.14522,-8.795769 5.8439,-5.846388 2.01029,1.594088 4.09286,3.098805 6.02315,4.791662 0,0 -3.98282,4.073112 -3.98282,4.073112 z"
       inkscape:connector-curvature="0"
       transform="translate(0,284.36218)" />
    <path
       style="fill:#000080;fill-opacity:1;fill-rule:nonzero;stroke:none"
       id="path4478"
       d="m 415.23091,80.593508 c -3.67471,-1.004696 -7.30487,-0.973756 -10.91262,0.196536 -1.6997,0.949549 -7.0943,4.421989 0.49065,-1.403351 0.36023,-0.276659 -0.52677,0.74777 -0.70795,1.164278 -0.51385,1.181294 -0.37127,1.537998 -0.3604,2.816048 1.70252,5.997564 7.08558,10.183817 11.49241,14.24969 6.12782,5.641441 12.66937,10.976861 17.84992,17.554501 0.91549,1.16238 1.71896,2.40876 2.57844,3.61313 2.92254,4.86667 4.86231,10.91758 1.41336,16.08967 -0.57084,0.85604 -1.36243,1.54222 -2.04365,2.31333 -2.62225,2.26218 -5.0372,4.78973 -7.86677,6.78654 -0.93863,0.66238 -2.15122,0.83378 -3.27429,1.07564 -5.45396,1.17454 -9.94544,-0.31439 -14.9099,-2.37974 -3.08522,-1.64133 -6.28195,-3.48505 -8.01906,-6.67975 -1.26716,-3.59584 -0.49913,-1.99755 -2.17404,-4.8552 0,0 0.11549,-0.11314 0.11549,-0.11314 l 0,0 c 2.76466,2.47464 0.46842,0.82192 4.54952,2.41965 3.36378,1.3169 6.39746,3.34383 9.81184,4.54925 3.84336,1.17013 7.53032,2.16968 11.60398,1.91824 1.19689,-0.0739 2.39499,-0.2459 3.55556,-0.54766 1.09026,-0.28348 2.80594,-2.26787 3.15992,-1.19841 0.43379,1.3106 -1.63452,2.22526 -2.45177,3.3379 0.7204,-0.71708 1.54406,-1.34358 2.16121,-2.15124 3.70994,-4.85521 1.99757,-10.77565 -0.79985,-15.5683 -0.83979,-1.19343 -1.62509,-2.42713 -2.51938,-3.58029 -5.11726,-6.59855 -11.63365,-11.91553 -17.61478,-17.68121 -4.46594,-4.304106 -9.86315,-8.727928 -11.51206,-14.954572 -0.0186,-0.561193 -0.10592,-1.124329 -0.0557,-1.683579 0.37875,-4.218249 5.38875,-8.143463 9.20157,-9.647988 3.59999,-0.922263 7.29786,-0.992281 10.77355,0.506383 0,0 -3.5352,3.853644 -3.5352,3.853644 z"
       inkscape:connector-curvature="0"
       transform="translate(0,284.36218)" />
  </g>
</svg>
