<?xml version="1.0" encoding="UTF-8" standalone="no"?>
<!-- Created with Inkscape (http://www.inkscape.org/) -->

<svg
   xmlns:dc="http://purl.org/dc/elements/1.1/"
   xmlns:cc="http://creativecommons.org/ns#"
   xmlns:rdf="http://www.w3.org/1999/02/22-rdf-syntax-ns#"
   xmlns:svg="http://www.w3.org/2000/svg"
   xmlns="http://www.w3.org/2000/svg"
   xmlns:sodipodi="http://sodipodi.sourceforge.net/DTD/sodipodi-0.dtd"
   xmlns:inkscape="http://www.inkscape.org/namespaces/inkscape"
   width="1024"
   height="768"
   id="svg4160"
   version="1.1"
   inkscape:version="0.48.4 r9939"
   sodipodi:docname="github.svg">
  <defs
     id="defs4162" />
  <sodipodi:namedview
     id="base"
     pagecolor="#ffffff"
     bordercolor="#666666"
     borderopacity="1.0"
     inkscape:pageopacity="0.0"
     inkscape:pageshadow="2"
     inkscape:zoom="0.86588542"
     inkscape:cx="512"
     inkscape:cy="374.84321"
     inkscape:document-units="px"
     inkscape:current-layer="layer1"
     showgrid="false"
     inkscape:window-width="1600"
     inkscape:window-height="886"
     inkscape:window-x="0"
     inkscape:window-y="14"
     inkscape:window-maximized="0" />
  <metadata
     id="metadata4165">
    <rdf:RDF>
      <cc:Work
         rdf:about="">
        <dc:format>image/svg+xml</dc:format>
        <dc:type
           rdf:resource="http://purl.org/dc/dcmitype/StillImage" />
        <dc:title></dc:title>
      </cc:Work>
    </rdf:RDF>
  </metadata>
  <g
     inkscape:label="Ebene 1"
     inkscape:groupmode="layer"
     id="layer1"
     transform="translate(0,-284.36218)">
    <g
       id="g5399"
       transform="translate(214.33273,-148.09532)">
      <path
         inkscape:connector-curvature="0"
         d="m 177.87832,743.52415 c -2.77568,-3.77974 -6.62377,-5.9756 -11.07013,-7.1793 -6.0324,-1.1353 -11.51825,1.08395 -16.78182,3.78731 1.69075,-1.43831 -7.49711,4.87285 -5.64052,3.62771 1.37246,-0.92045 2.56691,-2.17069 4.10041,-2.78653 1.01717,-0.4085 -1.69287,1.39498 -2.49515,2.14186 -2.23218,2.0781 -2.46006,2.51737 -4.39559,4.87537 -5.21253,6.83638 -6.45975,15.04953 -6.95911,23.38863 -0.31915,12.97201 3.03906,25.45554 7.50403,37.50577 3.59679,8.00796 7.65256,16.89196 15.60219,21.50905 1.18892,0.69051 2.51139,1.11991 3.76708,1.67986 7.91726,2.35924 15.53119,0.14629 22.74801,-3.2347 1.07141,-0.64595 4.10773,-2.81351 3.2142,-1.93787 -1.14389,1.12102 -2.40376,2.4137 -3.98141,2.68974 -1.14895,0.20103 1.74777,-1.55444 2.51486,-2.43313 2.60214,-2.9807 3.40039,-5.59117 4.29923,-9.34341 0.60679,-6.37517 -0.58765,-13.08027 -4.4743,-18.32933 -0.66161,-0.89354 -1.49449,-1.64652 -2.24172,-2.46978 -4.90693,-4.1744 -10.77927,-3.68926 -16.69992,-2.59334 -2.52274,0.6672 -5.17991,1.11212 -7.56358,2.22749 -0.22188,0.10377 -0.42136,0.24998 -0.63204,0.37496 2.66979,-2.02265 5.3396,-4.04531 8.0094,-6.06795 5.35948,-0.80823 10.3782,-2.95517 15.30045,-5.12948 4.94365,-2.20268 9.68936,-4.918 14.94557,-6.31368 0.99929,-0.15645 4.15731,-0.58884 4.34781,1.20205 0.0478,0.45019 -0.59457,2.32381 -0.72013,2.71973 0,0 -0.1474,0.11038 -0.1474,0.11038 l 0,0 c -6.01098,1.04473 3.30275,-0.62596 -3.56257,0.80436 -2.11769,0.4412 -4.34879,0.36652 -6.4068,1.13556 -5.17909,1.70967 -10.00394,4.26004 -14.97147,6.48558 -4.99698,2.15446 -10.11702,4.34997 -15.58363,4.90512 1.7598,-2.0092 3.44632,-4.08503 5.27942,-6.02758 0.79182,-0.83911 6.96202,-1.71757 8.10281,-2.17797 6.20397,-1.01951 12.23531,-1.17443 17.22433,3.28898 0.76878,0.87277 1.62229,1.67764 2.30633,2.61831 3.94885,5.43032 5.31483,12.27716 4.84688,18.86445 -0.24672,1.20577 -0.37933,2.44063 -0.74007,3.61732 -2.65334,8.6551 -11.54961,13.32729 -18.81114,17.59227 -7.45858,3.29099 -15.27249,5.30814 -23.31892,2.76726 -1.29621,-0.60089 -2.65877,-1.07559 -3.88865,-1.80266 -8.06843,-4.76986 -12.39745,-13.60455 -15.99072,-21.85779 -4.51092,-12.13932 -7.93954,-24.71037 -7.74277,-37.77995 0.44917,-8.48618 1.65753,-16.87668 6.80931,-23.92837 5.95152,-7.45883 13.83308,-12.95965 22.08608,-17.67518 5.40638,-2.6333 11.00342,-4.63656 17.08173,-3.22789 4.54942,1.4144 8.49371,3.72892 11.39455,7.61092 0,0 -6.66512,4.76581 -6.66512,4.76581 z"
         id="path5298"
         style="fill:#333333;fill-opacity:1;fill-rule:nonzero;stroke:none" />
      <path
         inkscape:connector-curvature="0"
         d="m 229.77995,784.77411 c -1.80775,8.3376 -0.73902,16.77589 0.82382,25.04594 1.78717,8.09134 4.5185,15.96702 8.73529,23.11505 1.34604,2.0744 3.19361,3.33605 5.33622,1.49908 0,0 0.16376,-0.0843 0.16376,-0.0843 l 0,0 c -2.59491,2.42252 -7.09672,7.73827 -11.20373,5.1143 -0.58864,-0.37607 -1.0237,-0.95066 -1.53555,-1.42599 -4.67919,-7.00242 -6.88667,-15.32989 -8.87361,-23.42248 -1.56444,-8.41822 -2.72213,-17.02335 -0.77766,-25.49629 0,0 7.33146,-4.34533 7.33146,-4.34533 z"
         id="path5300"
         style="fill:#333333;fill-opacity:1;fill-rule:nonzero;stroke:none" />
      <path
         inkscape:connector-curvature="0"
         d="m 227.69706,763.36918 c -2.74857,-3.55963 -3.46382,-6.22546 -1.15203,-10.22007 4.7016,-4.87683 10.47183,-8.87294 17.19491,-6.62193 0.89945,0.30116 1.73457,0.76823 2.60185,1.15235 4.07669,2.45276 7.15135,6.48914 6.02383,11.49441 -0.21854,0.97003 -0.69187,1.86444 -1.03782,2.79665 -0.59993,0.87631 -1.10303,1.82744 -1.79979,2.62889 -0.73242,0.84247 -1.55201,1.62328 -2.46071,2.27172 -5.89078,4.20364 -9.99728,8.25826 -17.11781,7.86433 -1.12227,-0.0621 -2.21929,-0.35796 -3.32893,-0.53699 -4.21228,-1.35118 -9.22449,-4.61673 -8.23732,-9.83977 0.20241,-1.0712 0.77628,-2.03743 1.16444,-3.05614 0.92131,-1.1955 1.84263,-2.39099 2.76396,-3.5865 0,0 0.15952,-0.092 0.15952,-0.092 l 0,0 c 0.33911,0.4251 0.67824,0.85022 1.01735,1.27533 0.12595,0.31722 1.34199,3.39876 1.45355,3.59654 1.8209,3.22757 5.10071,4.96875 8.56348,5.8919 2.84363,0.33916 3.67758,0.66489 6.55635,0.0806 1.11199,-0.22568 3.67641,-2.08108 3.24373,-1.03216 -0.70638,1.71247 -2.86142,2.35346 -4.2801,3.54462 -1.6175,1.35809 6.51142,-5.0593 4.44167,-4.51864 0.38485,-0.85898 0.88436,-1.67528 1.15457,-2.57691 1.37993,-4.60467 -1.276,-8.42934 -5.00158,-10.85682 -2.33862,-1.09991 -4.42888,-1.98884 -7.08687,-1.69328 -0.71363,0.0794 -2.52992,1.07399 -2.09458,0.50297 1.15096,-1.50964 2.97453,-2.36 4.435,-3.57277 0.51733,-0.42959 -1.06979,0.81498 -1.60469,1.22247 -2.77145,3.57083 -2.45778,6.09229 0.16117,9.69176 0,0 -5.73315,4.18949 -5.73315,4.18949 z"
         id="path5302"
         style="fill:#333333;fill-opacity:1;fill-rule:nonzero;stroke:none" />
      <path
         inkscape:connector-curvature="0"
         d="m 274.43374,728.81062 c -1.59423,9.80096 -2.21308,19.67757 -2.36978,29.59384 -0.0505,14.44102 2.31961,28.68507 6.05705,42.5886 2.25886,6.70131 4.60964,14.19255 10.41448,18.75647 0.72027,0.5663 1.53803,0.99621 2.30707,1.49432 0.81071,1.38963 7.51581,1.8162 8.25729,2.74429 1.54811,1.93773 -2.13718,1.99587 1.90023,1.24877 0,0 -0.13671,0.12341 -0.13671,0.12341 l 0,0 c -5.35534,1.10647 3.35196,-0.84028 -5.97562,2.26775 -3.56088,1.18651 -7.6047,0.30978 -10.94535,-1.03974 -0.84253,-0.5106 -1.74242,-0.93676 -2.52758,-1.53181 -6.03469,-4.57342 -8.39381,-12.36103 -10.62999,-19.21815 -3.64836,-14.05659 -5.86441,-28.45588 -5.83219,-43.01336 0.18423,-10.06241 0.88272,-20.10143 2.83262,-29.99532 0,0 6.64848,-4.01907 6.64848,-4.01907 z"
         id="path5304"
         style="fill:#333333;fill-opacity:1;fill-rule:nonzero;stroke:none" />
      <path
         inkscape:connector-curvature="0"
         d="m 285.06131,786.52803 c -6.4246,-1.9077 -13.08736,-2.76973 -19.63282,-4.14361 -4.1674,-1.19923 -2.52294,-0.11584 -5.14421,-2.90504 0,0 0.13975,-0.11996 0.13975,-0.11996 l 0,0 c 7.43801,-1.91202 3.87648,-1.41704 10.64354,-1.75498 7.04411,0.30042 14.04645,1.2455 20.79079,3.38548 0,0 -6.79706,5.53813 -6.79706,5.53813 z"
         id="path5306"
         style="fill:#333333;fill-opacity:1;fill-rule:nonzero;stroke:none" />
      <path
         inkscape:connector-curvature="0"
         d="m 329.89973,733.01174 c 0.92208,13.37655 2.05924,26.72872 3.46425,40.06401 1.7671,15.99927 3.87303,31.95811 5.79737,47.93869 0.10024,3.91774 2.45417,13.03204 0.17529,16.58404 -1.18481,0.28008 -0.64098,0.26326 -1.624,0.1641 0,0 0.17018,-0.0704 0.17018,-0.0704 l 0,0 c -2.09934,2.21331 -0.92842,1.52402 -3.31537,2.37147 -0.31273,-0.0858 -0.70438,-0.0338 -0.93775,-0.25897 -0.39015,-0.3765 -0.99131,-2.89046 -1.01955,-3.02879 -0.7969,-3.90451 -0.88198,-7.91968 -1.42312,-11.85743 -1.7911,-16.01577 -3.85537,-31.99892 -5.66391,-48.0127 -1.44847,-13.30987 -2.79348,-26.63362 -3.6048,-40.0002 0,0 7.9814,-3.89378 7.9814,-3.89378 z"
         id="path5308"
         style="fill:#333333;fill-opacity:1;fill-rule:nonzero;stroke:none" />
      <path
         inkscape:connector-curvature="0"
         d="m 356.55762,787.06545 c -6.92855,-0.29773 -13.85945,-0.50729 -20.79273,-0.65351 -5.91995,-0.13384 -11.87443,0.0997 -17.72194,-0.97757 -2.21605,-0.50757 -0.67458,-1.50697 0.27062,-2.52533 0,0 0.15826,-0.0942 0.15826,-0.0942 l 0,0 c 1.79284,-0.71643 3.56417,-1.52418 5.54637,-1.43554 6.38853,-0.35278 12.77868,-0.16855 19.17192,-0.0325 6.97515,0.15176 13.94745,0.38495 20.92172,0.56497 0,0 -7.55426,5.15371 -7.55426,5.15371 z"
         id="path5310"
         style="fill:#333333;fill-opacity:1;fill-rule:nonzero;stroke:none" />
      <path
         inkscape:connector-curvature="0"
         d="m 370.11679,730.99857 c -2.46727,8.79738 -3.37157,17.91304 -4.06033,26.99073 -0.92627,14.88297 0.50533,29.74286 2.56332,44.46691 1.22607,9.4176 3.85044,18.56539 5.37573,27.92404 0.3984,1.55643 0.32082,2.53503 -0.40435,3.89718 0,0 -0.1529,0.10263 -0.1529,0.10263 l 0,0 c -2.47695,0.79253 -4.04703,1.48467 -6.02137,-0.59103 -1.80186,-3.07554 -2.62187,-6.00561 -3.39977,-9.50342 -1.31991,-5.93479 -2.3772,-11.92706 -3.30945,-17.93361 -2.0481,-14.7754 -3.50693,-29.68055 -2.6823,-44.61613 0.62266,-9.0853 1.48275,-18.18948 3.73185,-27.04136 0,0 8.35957,-3.69597 8.35957,-3.69597 z"
         id="path5312"
         style="fill:#333333;fill-opacity:1;fill-rule:nonzero;stroke:none" />
      <path
         inkscape:connector-curvature="0"
         d="m 392.74019,772.73511 c 0.13598,8.22528 2.5179,16.10873 5.53775,23.68251 2.4182,4.70177 5.29358,11.58522 10.02329,14.50621 0.59006,0.36441 1.28332,0.5263 1.92498,0.78946 0.62976,-0.0145 1.2767,0.10332 1.88925,-0.0435 0.64603,-0.15495 2.33503,-1.24479 1.80612,-0.84276 -1.65611,1.25885 -3.26634,2.69679 -5.21235,3.43193 -0.84663,0.31983 1.2181,-1.34927 1.71009,-2.10888 1.4173,-2.18828 1.68158,-3.47661 2.53432,-5.95518 1.7784,-6.79335 1.53435,-13.85193 0.8766,-20.77834 -0.0882,-0.716 -0.17065,-1.43275 -0.26462,-2.14802 -0.067,-0.50998 -0.13904,-1.01937 -0.21836,-1.52761 -0.046,-0.29528 -0.0947,-0.59047 -0.1578,-0.8826 -0.0183,-0.0847 -0.16008,-0.20053 -0.0859,-0.24547 7.77152,-4.71137 6.89826,-6.98151 7.71101,-2.9706 1.11845,6.50889 3.25096,12.7452 5.79417,18.8178 2.76849,6.285 6.88714,11.78211 11.11875,17.13471 1.11678,2.75178 0.87982,1.31869 0.69891,4.30123 0,0 -0.14549,0.113 -0.14549,0.113 l 0,0 c -4.20187,0.43333 -2.19631,0.58983 -6.02618,-0.3256 -6.16365,-4.02714 -9.98551,-9.54609 -12.98461,-16.22715 -2.59362,-6.12787 -4.76229,-12.42445 -5.84566,-19.01352 -0.68816,-4.15797 -0.5822,-1.1911 7.0443,-6.43687 0.0726,-0.0499 -0.0776,0.16358 -0.0805,0.25155 -0.0103,0.31609 0.0175,0.63251 0.0411,0.94789 0.0396,0.52783 0.0988,1.05402 0.14876,1.58098 0.0697,0.73489 0.14005,1.46971 0.21008,2.20456 0.54932,6.99 0.93669,14.07882 -0.58067,20.98481 -2.53558,8.50519 -4.02761,9.24523 -12.65714,14.79836 -0.60914,0.39198 -1.36155,0.5491 -2.08226,0.62165 -0.70381,0.0709 -1.40847,-0.13299 -2.1127,-0.19941 -0.695,-0.32468 -1.44183,-0.556 -2.085,-0.97408 -5.12894,-3.33394 -7.48398,-9.81205 -10.10137,-14.99126 -2.96292,-7.71685 -5.39847,-15.69059 -5.6026,-24.02651 0,0 7.1737,-4.46916 7.1737,-4.46916 z"
         id="path5314"
         style="fill:#333333;fill-opacity:1;fill-rule:nonzero;stroke:none" />
      <path
         inkscape:connector-curvature="0"
         d="m 453.7568,730.07788 c 1.26443,10.45091 1.9333,20.96458 2.72211,31.45928 0.89738,13.02483 2.11127,26.02238 3.81597,38.96624 0.66321,4.58873 1.35592,9.1737 1.66577,13.80251 -2.87338,0.49322 -5.70646,1.58062 -8.62011,1.47966 -0.5929,-0.0205 0.0807,-1.18445 0.1551,-1.773 0.44741,-3.53556 1.55985,-6.74248 2.95174,-10.00422 5.38161,-10.17795 9.851,-10.4023 20.94289,-14.25568 7.14978,-0.89583 12.42961,2.20849 17.59831,6.77834 4.11805,4.50665 7.26726,10.29303 6.75659,16.60337 -0.0977,1.20809 -0.47102,2.37787 -0.70652,3.5668 -2.05798,5.25631 -6.15106,8.99826 -11.4739,10.89631 -12.49917,4.45706 -9.02635,3.86236 -17.62883,4.3541 -8.07113,-0.53626 -16.11222,-3.47525 -20.91987,-10.34835 -0.87793,-1.25513 -1.47376,-2.68559 -2.21064,-4.02839 0.0253,-6.17935 0.46399,-3.25341 -1.14565,-8.80176 0,0 0.17325,-0.0625 0.17325,-0.0625 l 0,0 c 2.90491,5.28038 0.85187,2.9246 6.60222,6.65527 7.47279,6.92334 14.85426,12.34135 25.47817,12.5198 1.57194,-0.13774 3.91325,-1.77179 4.71583,-0.41318 0.72686,1.23044 -5.10972,1.13427 -3.86995,1.84508 1.27159,0.72909 2.75112,-1.04142 4.03353,-1.75129 3.48902,-1.9313 6.03181,-4.65936 7.59331,-8.31997 0.25655,-1.12113 0.65147,-2.21936 0.76966,-3.36338 0.62701,-6.06734 -2.50234,-11.63372 -6.50158,-15.90057 -5.11663,-4.3666 -10.27835,-7.21633 -17.21169,-5.95178 1.89355,-0.73373 3.73695,-1.61305 5.68067,-2.20116 0.89595,-0.27109 -1.71879,0.75613 -2.51761,1.24409 -3.3326,2.03569 -5.71668,5.17912 -7.5133,8.58221 -1.4227,3.15227 -2.55633,6.25675 -2.99217,9.70813 -0.0714,0.56566 0.33984,1.39552 -0.13914,1.70477 -2.66978,1.72372 -5.77581,2.65249 -8.66371,3.97875 0.39832,-4.57198 -1.37895,-9.19401 -1.48165,-13.73575 -1.61958,-12.98244 -2.82027,-26.00924 -3.66339,-39.0658 -0.77431,-10.488 -1.47851,-20.98626 -2.6109,-31.44322 0,0 8.21546,-2.72471 8.21546,-2.72471 z"
         id="path5316"
         style="fill:#333333;fill-opacity:1;fill-rule:nonzero;stroke:none" />
    </g>
    <g
       id="g5354"
       transform="translate(390.68135,45.141764)">
      <path
         transform="translate(0,284.36218)"
         inkscape:connector-curvature="0"
         d="m 135.52203,91.849772 c -0.11562,-5.074361 -2.36834,-9.529099 -5.45547,-13.424715 -2.78423,-2.874378 -6.51402,-5.02388 -10.64035,-3.957961 -0.755,0.195033 -1.45201,0.569157 -2.17801,0.853735 -0.68124,0.478535 -2.54262,2.102089 -2.04373,1.435605 0.90693,-1.211611 1.88597,-2.581979 3.3019,-3.116445 0.90825,-0.342832 -1.1291,1.589375 -1.56042,2.459097 -1.63891,3.304736 -1.81847,6.652107 -1.9585,10.259251 0.35966,6.275537 2.11469,12.565845 6.03341,17.593961 0.6285,0.80643 1.38788,1.50172 2.08182,2.25258 2.68486,2.21418 5.85919,3.27052 8.96302,1.12079 0.74932,-0.51898 2.75187,-2.38149 2.00385,-1.86063 -1.32242,0.92083 -2.49111,2.04482 -3.73667,3.06723 3.34677,-5.96414 3.31236,-12.766426 2.81203,-19.387998 -0.31334,-2.409178 0.1419,-4.761086 0.11411,-7.170211 0,0 0.1164,-0.11222 0.1164,-0.11222 l 0,0 c 2.08303,0.58639 3.58582,0.90522 4.4324,3.157584 1.83336,6.308276 1.91405,12.770723 -1.14603,18.752255 -4.03167,4.45482 -9.36568,13.78295 -16.85869,9.68927 -0.83857,-0.45814 -1.54776,-1.12106 -2.32164,-1.68158 -0.71839,-0.78461 -1.50227,-1.51394 -2.15518,-2.35382 -4.03983,-5.19667 -5.71973,-11.743486 -6.06771,-18.210281 0.0446,-1.30568 0.003,-2.617166 0.13382,-3.917039 0.77622,-7.711798 5.49737,-13.866212 12.36778,-17.633567 0.76123,-0.233437 1.49946,-0.562649 2.28368,-0.70031 4.34519,-0.762742 8.06072,1.707844 10.77117,4.84711 2.98977,4.244459 5.12984,8.915163 5.22413,14.203591 0,0 -4.51712,3.834718 -4.51712,3.834718 z"
         id="path5322"
         style="fill:#000080;fill-opacity:1;fill-rule:nonzero;stroke:none" />
      <path
         transform="translate(0,284.36218)"
         inkscape:connector-curvature="0"
         d="m 151.13847,67.127042 c 4.35771,6.43328 8.03413,13.296565 11.60917,20.185411 3.44677,6.691251 6.49844,13.578427 9.12375,20.631247 1.56759,4.59477 1.96959,4.73934 -5.59762,7.71921 -0.53414,0.21033 -0.47714,-1.04578 -0.67069,-1.58623 -0.24718,-0.6902 -0.43326,-1.40079 -0.64989,-2.10118 -1.67642,-5.96554 -1.73777,-12.091704 -0.92136,-18.185018 1.09815,-6.478735 4.49437,-11.813243 8.84455,-16.577922 4.00452,-3.515903 9.58388,-11.477942 16.29234,-11.207154 0.70145,0.02831 1.3801,0.258228 2.07015,0.387342 0.67454,0.361165 1.40193,0.637467 2.02363,1.083494 4.63843,3.327742 6.75192,9.572005 8.77618,14.620807 2.38246,6.476767 4.28105,13.130479 5.66427,19.890611 0.73765,4.68454 0.29573,4.75574 -6.36071,7.78246 -0.44507,0.20237 -0.41895,-0.88796 -0.55633,-1.35719 -0.17916,-0.61192 -0.25956,-1.24852 -0.38934,-1.87278 -0.75351,-5.9192 0.69096,-11.646717 2.93637,-17.076162 2.79752,-5.030265 8.14521,-12.970688 14.27914,-12.846216 0.749,0.0152 1.47773,0.247567 2.21659,0.37135 6.6147,2.726551 9.71922,9.416446 12.44187,15.584143 3.07004,7.869425 4.57262,16.213875 5.18933,24.606845 9.5e-4,4.35892 0.20079,9.27718 -2.31691,13.08957 -0.36058,0.54602 -0.83632,1.00657 -1.25449,1.50985 0,0 -0.12725,0.0997 -0.12725,0.0997 l 0,0 c -0.19262,-5.5e-4 -0.41047,0.0936 -0.57786,-0.002 -1.38441,-0.78824 -1.23105,-8.12936 -1.55623,-9.62805 -0.82891,-8.27028 -2.02765,-16.55215 -5.11547,-24.329402 -2.58145,-5.883205 -5.5217,-12.50068 -11.94033,-14.941742 -1.78465,-0.182505 -2.23931,-0.444 -3.96005,0.218592 -0.64829,0.24963 -2.19915,1.598231 -1.8193,1.016589 1.01376,-1.552332 2.45595,-2.785147 3.8049,-4.057063 0.62119,-0.585711 -1.12836,1.286784 -1.61259,1.989954 -0.53085,0.770866 -0.94949,1.613267 -1.42423,2.4199 -2.3296,5.271348 -3.83881,10.854674 -3.1923,16.671862 0.10563,0.58425 0.17418,1.17644 0.31688,1.75276 0.0986,0.39834 0.6415,0.82727 0.40494,1.16259 -1.56284,2.21524 -3.64071,4.01802 -5.47087,6.01808 -0.0989,0.10803 0.24286,-0.1989 0.27641,-0.34144 0.14811,-0.62927 -0.0938,-2.08272 -0.14719,-2.55516 -1.24874,-6.75841 -3.13669,-13.390793 -5.49099,-19.846287 -1.86398,-4.665374 -4.1007,-11.152058 -8.45113,-14.146499 -0.5636,-0.387929 -1.22792,-0.603945 -1.84188,-0.905917 -3.39976,-0.429279 -5.11207,0.204715 -7.9678,2.143278 -0.73425,0.498429 -2.596,2.359497 -2.11991,1.610571 0.87908,-1.382871 2.24718,-2.385516 3.37077,-3.578275 -4.42867,4.613034 -7.95861,9.796603 -9.15539,16.207517 -0.87868,5.975253 -0.86726,11.996552 0.76419,17.862682 0.20561,0.6752 0.38373,1.35939 0.61683,2.02561 0.17602,0.50309 0.887,1.02353 0.60918,1.47839 -6.34082,10.38142 -4.61995,7.53517 -6.07316,3.18927 -2.51349,-7.08606 -5.55177,-13.972071 -8.90052,-20.702324 -3.53933,-6.919541 -7.17992,-13.790381 -11.22105,-20.43339 0,0 5.2514,-5.052674 5.2514,-5.052674 z"
         id="path5324"
         style="fill:#000080;fill-opacity:1;fill-rule:nonzero;stroke:none" />
      <path
         transform="translate(0,284.36218)"
         inkscape:connector-curvature="0"
         d="m 249.85196,70.511947 c 2.80595,6.086425 4.89771,12.474588 7.0487,18.813301 2.32162,6.856283 4.582,13.733322 6.67857,20.661932 0.17485,0.57738 0.35229,1.15399 0.52455,1.73215 0.19517,0.65507 0.70115,2.13811 0.64225,2.18179 -6.50626,4.82517 -5.61022,6.6 -6.50411,2.75782 -1.09763,-5.59443 -0.54337,-11.24479 0.56536,-16.779682 2.55729,-9.79433 7.29385,-13.05292 14.6639,-19.907483 5.23905,-2.828756 8.17198,-2.359607 12.86606,1.092614 4.55356,4.30118 6.74715,10.18228 8.58807,16.019086 0.92241,3.195905 1.6555,6.447035 2.20917,9.726805 -2.03728,1.55265 -3.85228,3.45144 -6.11184,4.65793 -0.38427,0.20518 -0.14646,-0.85952 -0.19025,-1.29293 -0.34496,-3.41489 0.0125,-6.75758 0.48253,-10.13997 1.05727,-4.33048 1.90528,-9.54007 5.11782,-12.93857 2.25618,-2.386787 4.67216,-4.617281 7.00825,-6.925922 4.98363,-2.579895 8.93094,1.278824 12.0896,4.824886 4.93999,6.718003 7.90019,14.589976 10.61142,22.404236 1.0589,4.62122 3.45311,9.81443 2.35192,14.68265 -0.15301,0.67643 -0.49419,1.29601 -0.74128,1.94401 -0.12063,0.29015 -0.24126,0.5803 -0.36188,0.87045 0,0 -0.1231,0.10483 -0.1231,0.10483 l 0,0 c -0.11541,-0.0812 -0.23082,-0.16236 -0.34623,-0.24354 -0.36048,-0.10303 -0.77973,-0.0865 -1.08142,-0.30908 -2.37036,-1.7487 -3.92393,-9.32827 -5.31969,-11.90153 -2.84867,-7.62526 -5.72894,-15.397528 -10.60517,-21.999686 -2.95214,-3.297579 -6.66557,-6.950474 -11.15815,-3.995542 1.33268,-1.398063 2.57611,-2.887018 3.99806,-4.194189 0.56774,-0.521918 -0.99727,1.181358 -1.42136,1.825472 -2.14702,3.260948 -3.22743,7.09323 -4.01586,10.871808 -0.49745,3.309736 -0.84238,6.550857 -0.54281,9.898787 0.0359,0.40094 0.41052,0.88183 0.16007,1.19697 -1.71268,2.15506 -3.86039,3.92525 -5.79058,5.88788 -0.15668,-3.29386 -1.32017,-6.51101 -2.00136,-9.70779 -1.74505,-5.693707 -3.79625,-11.474328 -8.23867,-15.661884 -0.64477,-0.464136 -1.24212,-1.002516 -1.93433,-1.392408 -3.39558,-1.912608 -7.06097,-1.104066 -10.16233,0.941431 1.16017,-1.292463 2.40894,-2.510567 3.4805,-3.877389 0.55675,-0.710154 -1.32985,1.224527 -1.92942,1.898922 -2.73419,3.07544 -4.49181,6.817668 -5.58931,10.755647 -1.18032,5.418781 -1.73973,10.956511 -0.70299,16.458511 0.9109,4.09548 0.67123,1.19771 -5.24482,7.57928 -0.0496,0.0535 0.0551,-0.14085 0.048,-0.21342 -0.0244,-0.25024 -0.0858,-0.49571 -0.14119,-0.74097 -0.0933,-0.41323 -0.20065,-0.82318 -0.3048,-1.23381 -0.15061,-0.59385 -0.3063,-1.18641 -0.45946,-1.77961 -1.97412,-7.00353 -4.19946,-13.9319 -6.42097,-20.860066 -2.08398,-6.444665 -4.11169,-12.912423 -6.44081,-19.273863 0,0 4.74941,-4.419864 4.74941,-4.419864 z"
         id="path5326"
         style="fill:#000080;fill-opacity:1;fill-rule:nonzero;stroke:none" />
      <path
         transform="translate(0,284.36218)"
         inkscape:connector-curvature="0"
         d="m 341.59365,93.833476 c 4.53162,0.63468 9.05081,0.782995 13.54501,-0.11864 1.59795,-0.594606 2.2173,-0.679974 3.56586,-1.741093 0.48938,-0.385065 1.79581,-1.724778 1.32723,-1.314665 -6.35798,5.56462 -4.05113,4.780176 -3.08347,0.500205 0.20853,-3.880164 -1.17366,-6.66217 -4.50208,-8.634743 -1.65974,-0.590048 -3.25181,-0.529522 -4.82961,0.31642 -0.60205,0.322791 -2.1199,1.699384 -1.67465,1.181298 7.34295,-8.54418 3.25041,-2.862531 2.28843,-1.452511 -2.60239,5.175796 -2.9112,11.042045 -1.42767,16.613158 0.35288,1.325195 0.88139,2.597265 1.32208,3.895905 2.80082,6.25856 6.95866,12.03297 12.78546,15.81164 0.97257,0.63071 2.03677,1.1074 3.05516,1.6611 5.93542,2.42153 10.34982,1.14264 15.42006,-2.29704 -1.06564,1.3574 3.0826,-2.78612 2.38552,-2.01354 -0.8638,0.95735 -2.07367,1.64868 -2.68676,2.78305 -0.6185,1.14438 2.04415,-1.67433 2.75549,-2.76342 0,0 0.12812,-0.0986 0.12812,-0.0986 l 0,0 c -0.0765,0.17831 -0.41765,0.48749 -0.22951,0.53492 0.33729,0.0851 1.20145,-0.61679 0.98508,-0.34442 -2.3047,2.90136 -5.16614,5.57192 -7.96863,8.02502 -5.33249,3.5797 -10.11888,4.51008 -16.21301,1.9114 -1.04242,-0.58394 -2.13092,-1.09232 -3.12726,-1.75181 -5.91315,-3.91401 -10.17563,-9.78391 -13.09401,-16.15623 -0.46728,-1.32239 -1.021,-2.61734 -1.40184,-3.96716 -1.62369,-5.754844 -1.38005,-11.753773 1.17812,-17.186391 2.38105,-3.882067 7.16863,-10.195069 12.07934,-10.722922 1.54686,-0.166272 2.00371,0.146636 3.4314,0.609914 3.31764,2.096456 5.29717,5.175652 5.22366,9.203496 -0.76161,5.222639 -2.63349,5.659374 -7.32847,10.513065 -1.4325,1.480929 -3.25583,2.288791 -5.22383,2.786149 -4.45166,0.730339 -8.93559,0.553559 -13.32828,-0.531912 0,0 4.64306,-5.251613 4.64306,-5.251613 z"
         id="path5328"
         style="fill:#000080;fill-opacity:1;fill-rule:nonzero;stroke:none" />
      <path
         transform="translate(0,284.36218)"
         inkscape:connector-curvature="0"
         d="m 390.73247,117.72916 c -4.01241,-5.19666 -7.40073,-10.82175 -10.36453,-16.66953 -1.87271,-4.325071 -3.74991,-9.053222 -3.13415,-13.877658 0.0974,-0.762854 0.34019,-1.49999 0.51029,-2.249985 2.03856,-4.567104 6.05006,-7.638943 10.00558,-10.688794 1.91468,-1.476293 6.37895,-1.485639 8.63095,-1.577445 7.12439,0.190614 13.90519,2.380558 20.38654,5.182822 2.41992,1.340629 8.51731,4.15508 8.57972,7.580714 0.0137,0.750501 -0.33794,1.462721 -0.50691,2.194081 0.0528,0.300509 0.10565,0.601018 0.15848,0.901527 0,0 -0.11806,0.110465 -0.11806,0.110465 l 0,0 c -0.17886,-0.175433 -0.35771,-0.350867 -0.53657,-0.5263 -0.66605,0.115266 -1.32242,0.3634 -1.99814,0.345799 -1.20037,-0.03127 -2.55806,-0.838077 -3.57134,-1.330375 -2.4417,-1.186286 -4.8729,-2.395508 -7.35109,-3.504915 -6.42757,-2.676133 -13.10537,-4.881641 -20.14937,-4.907968 -2.51323,0.173525 -3.55471,0.08555 -5.93753,0.848811 -0.82416,0.263996 -2.69838,1.835248 -2.38355,1.029137 0.67004,-1.715552 2.46705,-2.738395 3.61396,-4.179462 0.91125,-1.144974 -4.11725,4.152523 -2.63698,3.509763 -0.22111,0.727687 -0.51475,1.437177 -0.66331,2.183062 -0.95306,4.785071 0.68554,9.634248 2.36003,14.046094 2.66589,6.004447 5.85678,11.739287 9.82315,16.994977 0,0 -4.71717,4.58518 -4.71717,4.58518 z"
         id="path5330"
         style="fill:#000080;fill-opacity:1;fill-rule:nonzero;stroke:none" />
      <path
         transform="translate(0,284.36218)"
         inkscape:connector-curvature="0"
         d="m 432.85828,80.530725 c 3.12884,-5.06515 7.52253,-10.000362 13.10761,-12.358935 0.76814,-0.324387 1.58028,-0.532737 2.37042,-0.799106 4.25771,-0.962645 8.23221,-0.864669 11.776,1.858696 3.17626,3.708912 1.15898,8.28821 -0.53414,12.204622 -3.20641,6.308083 -7.21586,12.157543 -10.82144,18.237644 -2.29111,4.153724 -4.67662,8.649934 -4.4618,13.550034 0.0359,0.81887 0.21943,1.62455 0.32914,2.43683 1.36008,5.11055 4.3835,8.31012 9.00955,10.64547 3.9153,1.54736 7.40495,1.03535 11.33345,0.0842 0.3718,-0.11172 0.74361,-0.22343 1.11541,-0.33515 0,0 -0.0969,0.12945 -0.0969,0.12945 l 0,0 c -0.98002,0.90255 -1.96004,1.8051 -2.94006,2.70765 -5.04375,3.70059 -8.68041,5.52373 -14.8617,3.21177 -4.79466,-2.52047 -7.99407,-5.88323 -9.52687,-11.19125 -0.13963,-0.84843 -0.35491,-1.68784 -0.41889,-2.5453 -0.37333,-5.00344 1.90951,-9.63915 4.2496,-13.89312 3.61877,-6.153407 7.68478,-12.035208 11.07112,-18.323541 1.67323,-3.553631 4.13522,-8.0678 1.50258,-11.734563 -3.19768,-2.451072 -7.20715,-2.573741 -11.03121,-1.643396 -2.07211,0.754351 -2.52463,0.794148 -4.41034,1.98663 -0.68643,0.434079 -2.36654,2.14571 -1.96601,1.439185 0.68179,-1.202646 1.83715,-2.072816 2.85534,-3.007943 1.00504,-0.92304 -3.39583,3.653808 -2.45758,3.274016 0,0 -5.1933,4.066077 -5.1933,4.066077 z"
         id="path5332"
         style="fill:#000080;fill-opacity:1;fill-rule:nonzero;stroke:none" />
      <path
         transform="translate(0,284.36218)"
         inkscape:connector-curvature="0"
         d="m 465.51786,99.860384 c -6.52302,-0.423874 -13.03619,-0.278223 -19.55115,0.177866 -6.85223,0.57334 -13.63436,1.73348 -20.40066,2.92381 -0.1273,-0.55984 -2.0427,0.85616 -2.52544,0.16434 -0.16725,-0.23969 0.10299,-0.5754 0.15449,-0.8631 0,0 0.0981,-0.12851 0.0981,-0.12851 l 0,0 c 1.97176,-1.89486 3.78227,-3.595539 6.48924,-4.36801 6.88218,-2.230314 14.05461,-3.148984 21.24856,-3.741203 6.47139,-0.437285 13.03609,-0.832573 19.48182,0.102748 0,0 -4.99498,5.732059 -4.99498,5.732059 z"
         id="path5334"
         style="fill:#000080;fill-opacity:1;fill-rule:nonzero;stroke:none" />
      <path
         transform="translate(0,284.36218)"
         inkscape:connector-curvature="0"
         d="m 488.25778,68.981766 c -1.6158,6.609618 -1.21653,13.419136 -0.47246,20.111448 0.94882,7.603591 3.45566,14.757486 7.17315,21.416796 1.36229,2.13657 2.60743,4.07064 2.70529,6.63455 0,0 -0.10556,0.12248 -0.10556,0.12248 l 0,0 c -4.15177,2.05409 -4.9547,2.04945 -8.20833,-1.41815 -4.16337,-6.51486 -6.32388,-13.97743 -7.47522,-21.58871 -0.81652,-6.81006 -1.32606,-13.756365 0.43907,-20.475003 0,0 5.94406,-4.803411 5.94406,-4.803411 z"
         id="path5336"
         style="fill:#000080;fill-opacity:1;fill-rule:nonzero;stroke:none" />
      <path
         transform="translate(0,284.36218)"
         inkscape:connector-curvature="0"
         d="m 480.90317,42.3163 c 4.00519,1.779228 7.48828,4.333412 10.15582,7.807146 0.82217,1.410401 1.69111,3.59798 0.29617,5.02205 -6.17032,6.299195 -3.7498,5.335119 -8.08817,6.581334 -5.28498,0.497938 -8.37898,-1.648078 -11.46262,-5.712676 -1.75391,-3.176963 -2.94055,-7.215201 -0.96433,-10.607954 0.30525,-0.524053 0.75699,-0.947741 1.13548,-1.421612 2.39001,-2.124442 4.59343,-4.479525 7.17004,-6.373326 0.51834,-0.380975 1.26346,-0.290114 1.9067,-0.298043 3.11784,-0.03843 5.46712,1.705738 7.63861,3.702895 1.8044,2.249349 3.90064,5.923324 2.15323,8.841789 -0.52723,0.880573 -1.29164,1.595371 -1.93746,2.393057 -0.25185,0.308716 -0.50369,0.617432 -0.75554,0.926148 0,0 -0.12927,0.09712 -0.12927,0.09712 l 0,0 c 0.11079,-0.193644 0.22157,-0.387289 0.33235,-0.580934 -0.42039,0.110832 -0.84091,0.443828 -1.26116,0.332496 -0.24234,-0.0642 -0.6304,-1.527656 -0.83109,-1.987486 -0.73051,-1.67382 -1.81024,-3.150634 -3.05444,-4.477682 -1.59784,-1.388512 -3.13386,-2.655802 -5.29435,-3.047939 -0.61643,-0.111885 -1.25512,-0.140827 -1.87806,-0.07408 -0.5906,0.06329 -2.01364,0.977008 -1.72158,0.459795 1.00811,-1.785305 2.71156,-3.076007 4.06734,-4.61401 -0.42548,0.410019 -0.92136,0.757757 -1.27645,1.230057 -2.25633,3.001154 -1.22186,6.975357 0.38403,9.974447 2.79403,3.767474 5.74092,5.894081 10.62104,5.186496 3.32108,-1.2694 1.73133,-0.898955 -2.79369,4.010996 -0.28803,0.312538 0.63831,-0.577315 0.86485,-0.936935 0.7848,-1.245857 0.43156,-2.53615 -0.13762,-3.771383 -2.33623,-3.507345 -5.62638,-6.167136 -9.28285,-8.232887 0,0 4.14302,-4.428881 4.14302,-4.428881 z"
         id="path5338"
         style="fill:#000080;fill-opacity:1;fill-rule:nonzero;stroke:none" />
      <path
         transform="translate(0,284.36218)"
         inkscape:connector-curvature="0"
         d="m 520.76082,86.922847 c 4.34267,-1.14227 8.30322,-3.111485 11.77424,-5.940543 -1.34554,1.3014 -2.5528,2.762975 -4.03662,3.904198 -0.55196,0.424514 0.85715,-1.105059 1.1914,-1.715911 1.54234,-2.818637 1.20921,-5.576944 0.46628,-8.55426 -1.41928,-3.75766 -4.34115,-6.760506 -8.64504,-6.429931 -0.87428,0.06715 -1.71771,0.353479 -2.57657,0.530219 0.15836,-2.280352 -6.08306,4.978228 -5.26996,3.107946 0.55764,-1.282678 1.6656,-3.152473 3.03984,-2.892302 1.22026,0.23102 -1.51112,1.982099 -2.11484,3.067423 -1.76379,3.170816 -1.80169,4.337184 -2.69148,7.875488 -1.10717,8.269037 0.55884,16.59442 4.33977,24.012816 0.71188,1.39675 1.5896,2.70257 2.3844,4.05386 3.46832,4.81346 8.28533,9.55332 14.71458,9.24024 1.01775,-0.0496 2.00292,-0.37599 3.00437,-0.56398 3.58784,-1.27249 6.4787,-3.63506 9.08445,-6.32847 0,0 0.13018,-0.0959 0.13018,-0.0959 l 0,0 c -3.84991,4.57884 -7.70318,9.19359 -13.38725,11.54305 -2.92194,0.79365 -4.07588,1.45427 -7.13379,0.95114 -5.32701,-0.87645 -9.07201,-5.29027 -12.08748,-9.35143 -0.81182,-1.3767 -1.70582,-2.70813 -2.43546,-4.13009 -3.85968,-7.52188 -5.63935,-15.956492 -4.70034,-24.37331 0.31996,-1.432376 0.52331,-2.895887 0.95989,-4.297127 2.12873,-6.832326 8.10881,-13.469251 14.30205,-16.711447 0.89016,-0.466007 1.87042,-0.734683 2.80563,-1.102025 0.90941,-0.12891 1.80978,-0.376587 2.72822,-0.386729 4.52486,-0.04997 7.63593,3.200459 9.31421,7.084036 2.7234,9.183699 -1.2464,11.211537 -8.10441,17.893415 -3.56931,2.683325 -7.5509,4.574544 -11.91437,5.599705 0,0 4.8581,-5.990091 4.8581,-5.990091 z"
         id="path5340"
         style="fill:#000080;fill-opacity:1;fill-rule:nonzero;stroke:none" />
      <path
         transform="translate(0,284.36218)"
         inkscape:connector-curvature="0"
         d="m 551.40192,37.76512 c -1.07217,9.074473 -0.54491,18.215075 0.20169,27.288527 1.07284,11.785826 3.63398,23.338349 7.05822,34.644236 0.9987,3.313187 2.33577,6.504177 3.55908,9.735267 0.60962,1.61016 1.13993,2.95432 1.13118,4.66656 0,0 -0.10612,0.12199 -0.10612,0.12199 l 0,0 c -0.72937,0.34003 -1.39753,0.86982 -2.18812,1.02009 -4.27059,0.81177 -6.75023,-7.96633 -7.89157,-10.55123 -3.70774,-11.242816 -6.21007,-22.827908 -7.32917,-34.627103 -0.79208,-9.119601 -1.42799,-18.322349 -0.28449,-27.445146 0,0 5.8493,-4.853191 5.8493,-4.853191 z"
         id="path5342"
         style="fill:#000080;fill-opacity:1;fill-rule:nonzero;stroke:none" />
      <path
         transform="translate(0,284.36218)"
         inkscape:connector-curvature="0"
         d="m 569.50633,30.323554 c -2.89336,7.39177 -3.3358,15.373957 -3.60191,23.216015 -0.16755,12.53271 1.48947,24.96027 3.97098,37.214286 1.72191,8.587661 4.86948,16.680685 9.1558,24.282735 0.7718,1.95668 4.04215,5.15092 4.17867,7.2615 0.33812,5.22754 -0.93292,0.0156 -0.097,3.074 0,0 -0.11281,0.11583 -0.11281,0.11583 l 0,0 c -1.89867,-0.16366 -0.78309,-0.18019 -3.32848,0.35263 -2.44105,-0.10574 -4.9638,-3.82004 -6.26061,-5.45643 -4.6882,-7.47717 -7.44869,-15.88258 -9.33255,-24.475182 -2.49563,-12.302784 -4.21693,-24.781934 -4.07117,-37.366585 0.26313,-8.040638 0.69623,-16.25134 3.83267,-23.776694 0,0 5.66642,-4.442105 5.66642,-4.442105 z"
         id="path5344"
         style="fill:#000080;fill-opacity:1;fill-rule:nonzero;stroke:none" />
      <path
         transform="translate(0,284.36218)"
         inkscape:connector-curvature="0"
         d="m 43.467534,39.150348 c 0.925009,9.023859 2.139227,18.015445 3.295916,27.011743 1.491126,12.088232 3.158031,24.152191 5.004514,36.190999 0.951195,6.44189 2.218615,12.83275 3.21296,19.26707 0.420364,3.11555 0.198221,3.33872 -4.104081,5.37063 -0.516876,0.24411 0.521574,-1.0176 0.764071,-1.53524 0.309426,-0.6605 0.594221,-1.33227 0.891332,-1.9984 0.376076,-0.8241 0.752152,-1.64819 1.128228,-2.47228 0,0 0.124782,-0.10282 0.124782,-0.10282 l 0,0 c 0.160727,0.38224 0.321454,0.76448 0.482181,1.14671 0.114152,0.33142 0.220337,0.66568 0.342457,0.99424 0.09072,0.24408 0.459552,0.52054 0.295803,0.72299 -3.45124,4.26704 -4.510245,6.68273 -5.5617,2.87038 -1.388161,-6.36158 -2.213912,-12.8329 -3.265636,-19.25438 -1.801868,-12.100401 -3.37363,-24.232477 -4.818285,-36.380632 -1.092125,-9.100702 -2.260841,-18.198516 -2.976182,-27.338633 0,0 5.18364,-4.492377 5.18364,-4.492377 z"
         id="path5350"
         style="fill:#000080;fill-opacity:1;fill-rule:nonzero;stroke:none" />
      <path
         transform="translate(0,284.36218)"
         inkscape:connector-curvature="0"
         d="M 77.100563,49.092093 C 75.7346,55.93461 72.54689,62.240305 69.501018,68.459685 c -3.496233,6.943872 -7.152419,13.808048 -10.97107,20.579926 -1.428707,2.48574 -2.880972,4.967628 -4.614943,7.255787 -1.60102,3.260276 -8.809531,9.213062 -5.62254,2.587693 2.985044,-5.168059 7.730465,-9.836824 12.596566,-13.090368 4.470108,-2.57204 7.479665,-3.281655 12.522937,-2.10303 6.833547,2.72228 11.381029,8.791954 15.784416,14.39989 4.326675,5.762057 8.211883,11.835897 11.899066,18.021407 0.71457,1.63328 3.09283,3.96776 1.83492,5.81525 -0.41857,0.37543 -0.83714,0.75086 -1.2557,1.12629 0,0 -1.01352,1.30705 -1.01352,1.30705 l 0,0 c -0.46218,0.39774 -0.924365,0.79548 -1.386551,1.19322 -0.207162,0.0935 -0.39691,0.24551 -0.621488,0.28037 -1.161931,0.18035 -2.766368,-3.6333 -3.282949,-4.27885 -3.619441,-6.19955 -7.446733,-12.28587 -11.706066,-18.06942 -4.221207,-5.502016 -8.59244,-11.56491 -15.285174,-14.150463 -4.798328,-0.951788 -7.897545,-0.09087 -12.032682,2.47908 -3.353677,2.395732 -1.652179,1.342479 2.053309,-2.74452 0.428873,-0.473029 -0.935548,0.87073 -1.37133,1.337401 -0.789109,0.845041 -1.439541,1.705822 -2.069737,2.670215 -0.246961,0.377926 -0.46292,0.775226 -0.694381,1.162839 -2.577402,5.064721 0.956789,-2.944546 -6.334648,6.489638 1.99141,-2.216925 3.461306,-4.829327 4.9847,-7.374479 3.89625,-6.795345 7.588259,-13.706646 11.162809,-20.676186 3.108559,-6.261299 6.281634,-12.585447 7.967135,-19.408453 0,0 5.056466,-4.177879 5.056466,-4.177879 z"
         id="path5352"
         style="fill:#000080;fill-opacity:1;fill-rule:nonzero;stroke:none" />
    </g>
    <g
       id="g5388"
       transform="matrix(0.99695859,0.07793308,-0.07793308,0.99695859,30.210911,103.4427)">
      <path
         transform="translate(0,284.36218)"
         inkscape:connector-curvature="0"
         d="m 45.742709,32.597097 c 0.486327,10.665565 1.943466,21.25706 3.421236,31.821185 1.861352,13.054843 4.318916,26.011706 7.085906,38.901718 0.959326,5.13156 2.541762,10.1518 3.298337,15.32205 0.156397,1.62503 -1.244419,3.25112 -3.139892,3.47246 -0.696632,0.0814 0.695329,-1.21827 1.042993,-1.8274 0,0 0.124127,-0.10361 0.124127,-0.10361 l 0,0 c 0.266807,0.10165 0.945843,0.0592 0.80042,0.30494 -0.326427,0.55153 -2.915561,5.13387 -4.040078,2.8233 C 52.6261,118.44616 51.939978,113.27054 50.67277,108.28802 47.972014,95.330419 45.5165,82.317439 43.717606,69.200139 42.277585,58.544824 40.820483,47.85528 40.495502,37.095772 c 0,0 5.247207,-4.498675 5.247207,-4.498675 z"
         id="path5370"
         style="fill:#000080;fill-opacity:1;fill-rule:nonzero;stroke:none" />
      <path
         transform="translate(0,284.36218)"
         inkscape:connector-curvature="0"
         d="m 87.579572,64.351012 c -7.204375,1.967607 -14.47632,3.681425 -21.70055,5.578391 -7.604696,2.075736 -15.245154,4.013232 -22.895507,5.911899 0.158858,-0.694125 -2.391391,1.036339 -2.808183,0.195656 -0.155841,-0.314337 0.210403,-0.669409 0.315604,-1.004114 0,0 0.09913,-0.127727 0.09913,-0.127727 l 0,0 c 1.904509,-1.787001 3.65786,-3.230595 6.270996,-3.870317 7.851426,-2.546665 15.776913,-4.857154 23.760077,-6.95561 7.214704,-1.896766 14.468239,-3.645918 21.664483,-5.609052 0,0 -4.706054,5.880874 -4.706054,5.880874 z"
         id="path5372"
         style="fill:#000080;fill-opacity:1;fill-rule:nonzero;stroke:none" />
      <path
         transform="translate(0,284.36218)"
         inkscape:connector-curvature="0"
         d="m 88.844927,23.721786 c -1.882865,7.355732 -1.857491,14.951059 -1.57425,22.479761 0.917442,13.200798 4.239859,26.061006 7.680879,38.787177 2.695173,9.96239 6.214914,19.664186 9.662364,29.381766 0.57297,1.7913 1.08908,2.83481 1.06223,4.70316 -0.0132,0.91958 -0.30283,1.81563 -0.39328,2.73085 0,0 -0.11282,0.11581 -0.11282,0.11581 l 0,0 c -3.06528,0.50875 -3.83289,-0.45226 -5.267512,-3.19426 C 95.464072,109.47296 92.341475,99.68561 89.599539,89.810444 86.12982,77.034316 82.760272,64.129985 81.845114,50.870658 81.555283,43.098924 81.645419,35.231676 83.893531,27.711095 c 0,0 4.951396,-3.989309 4.951396,-3.989309 z"
         id="path5374"
         style="fill:#000080;fill-opacity:1;fill-rule:nonzero;stroke:none" />
      <path
         transform="translate(0,284.36218)"
         inkscape:connector-curvature="0"
         d="m 132.36168,83.207721 c -0.6331,-4.815876 -2.70272,-9.11351 -5.47035,-13.039128 -2.53577,-3.045533 -6.01167,-5.159606 -10.11168,-4.623601 -0.79732,0.104236 -1.56221,0.381892 -2.34332,0.572838 0.56728,-1.79717 -5.57796,4.180577 -4.43087,2.850716 0.8319,-0.964449 1.59563,-2.755808 2.85146,-2.54345 1.05431,0.178281 -1.20136,1.778991 -1.65996,2.74493 -1.329,2.79931 -1.2474,3.711783 -1.74058,6.770598 -0.18717,6.670569 2.02815,13.160521 6.52843,18.155345 0.84108,0.933514 1.83586,1.716128 2.75379,2.574192 3.27072,2.368027 7.41431,4.461739 11.43862,2.475174 0.85522,-0.422173 2.96464,-2.383194 2.30711,-1.692336 -1.07994,1.134662 -2.39099,2.024363 -3.58648,3.036541 4.19278,-7.63732 3.22634,-16.526083 2.70744,-24.89485 0.33775,-5.389826 0.019,-2.771757 0.91712,-7.858877 0,0 0.12072,-0.10756 0.12072,-0.10756 l 0,0 c 2.5411,2.231625 1.40519,0.873056 3.23361,4.215186 1.78254,7.913906 2.99859,16.328212 -0.62899,23.922793 -1.53118,1.623963 -6.20386,8.016648 -10.07736,9.532018 -4.31875,1.68956 -8.58351,-0.5124 -11.9684,-3.07234 -0.91921,-0.91676 -1.91749,-1.76056 -2.75765,-2.750265 -4.52798,-5.333939 -6.6731,-12.119391 -6.39869,-19.059311 0.19483,-1.243939 0.28845,-2.508011 0.5845,-3.731818 1.43057,-5.913851 4.98522,-8.910606 9.49075,-13.222259 0.67115,-0.64227 1.45393,-1.169429 2.26144,-1.628646 0.75369,-0.428608 1.59561,-0.67899 2.39341,-1.018485 0.81302,-0.149372 1.61455,-0.38887 2.43905,-0.448115 4.30201,-0.309128 7.75256,2.092211 10.32749,5.313977 2.80871,4.110224 4.7702,8.656965 5.26643,13.659948 0,0 -4.44704,3.866785 -4.44704,3.866785 z"
         id="path5376"
         style="fill:#000080;fill-opacity:1;fill-rule:nonzero;stroke:none" />
      <path
         transform="translate(0,284.36218)"
         inkscape:connector-curvature="0"
         d="m 180.78255,65.427925 c -6.26269,-1.296918 -12.56095,-0.825139 -18.73036,0.645789 -2.31068,0.860773 -3.39645,1.102339 -5.42534,2.458101 -0.66519,0.444507 -2.43478,2.075154 -1.84959,1.529608 6.35624,-5.925559 3.19758,-3.855277 3.14829,-1.494693 -0.0135,0.644866 0.25751,1.264051 0.38626,1.896076 0.43961,0.725959 0.79996,1.506271 1.31882,2.177878 2.42929,3.144452 5.84248,5.542801 8.96553,7.922815 9.74709,7.428081 -1.85389,-1.534969 7.83024,5.97421 3.91427,3.441824 10.80146,8.140241 10.5636,14.148511 -0.0335,0.84652 -0.38961,1.64896 -0.58441,2.47344 -4.53622,7.11343 -10.25608,11.51775 -18.60473,10.77652 -1.08865,-0.0967 -2.15214,-0.38254 -3.22821,-0.57381 -2.75339,-0.85138 -5.45963,-2.18509 -6.77195,-4.9457 -0.40029,-0.84206 -0.48085,-1.80166 -0.72128,-2.70249 0,0 0.1146,-0.11406 0.1146,-0.11406 l 0,0 c 3.82489,1.13272 7.61308,2.43478 11.59135,2.94291 3.49228,0.19676 6.77984,0.27592 10.14736,-0.89167 0.99449,-0.34482 2.90259,-2.37533 2.86705,-1.32336 -0.0519,1.53691 -1.96925,2.36253 -2.94238,3.55324 -0.53441,0.65391 1.08412,-1.29517 1.62618,-1.94275 0.25446,-0.74454 0.66958,-1.4524 0.76338,-2.23361 0.68969,-5.743963 -6.41968,-10.580446 -10.049,-13.810555 -2.57247,-2.034117 -5.17169,-4.034514 -7.73011,-6.086274 -3.12871,-2.509106 -6.46597,-5.102686 -8.91381,-8.32725 -0.5588,-0.736103 -0.96495,-1.576475 -1.44742,-2.364713 -0.18251,-0.720811 -0.50792,-1.419932 -0.54753,-2.162435 -0.19604,-3.674617 4.39624,-6.466365 6.27121,-8.324979 0.54554,-0.54078 1.2047,-0.962053 1.86798,-1.349512 1.96107,-1.145581 3.19058,-1.412263 5.37431,-2.131661 6.20438,-1.343649 12.49791,-1.632409 18.7423,-0.248353 0,0 -4.03234,4.528777 -4.03234,4.528777 z"
         id="path5378"
         style="fill:#000080;fill-opacity:1;fill-rule:nonzero;stroke:none" />
      <path
         transform="translate(0,284.36218)"
         inkscape:connector-curvature="0"
         d="m 208.79216,12.9121 c 0.84144,9.264793 2.04852,18.476468 3.49668,27.665049 2.43168,14.414923 5.78715,28.649572 9.06767,42.888507 0.92345,4.493031 2.09246,8.955093 2.71403,13.507239 0.12616,0.923945 0.33162,1.855785 0.25941,2.785503 -0.10298,1.325762 -0.672,2.574302 -0.94465,3.875812 0,0 -0.1173,0.11127 -0.1173,0.11127 l 0,0 c -0.72295,-0.0579 -2.20912,-0.10208 -2.71374,-0.58982 -0.56141,-0.54263 -0.74374,-1.37712 -1.03219,-2.10267 -1.62098,-4.077365 -2.44969,-8.440311 -3.70046,-12.628982 -3.56139,-14.143256 -6.81897,-28.369268 -9.31978,-42.74269 -1.52186,-9.300912 -3.02794,-18.663382 -3.09952,-28.11186 0,0 5.38985,-4.657358 5.38985,-4.657358 z"
         id="path5380"
         style="fill:#000080;fill-opacity:1;fill-rule:nonzero;stroke:none" />
      <path
         transform="translate(0,284.36218)"
         inkscape:connector-curvature="0"
         d="m 229.68539,63.273986 c -7.93654,1.584728 -15.94498,2.770134 -23.923,4.120222 -3.65122,0.317869 -7.26958,1.737022 -10.95555,1.791736 -3.76465,0.05588 0.20967,-1.277673 -4.01612,0.681396 0,0 0.0995,-0.12748 0.0995,-0.12748 l 0,0 c 3.65244,-1.775638 1.5337,-0.669839 6.27237,-3.473341 4.02939,-2.000634 8.50224,-2.960946 12.83448,-4.024141 8.0924,-1.712864 16.26348,-2.987013 24.35796,-4.685945 0,0 -4.6696,5.717553 -4.6696,5.717553 z"
         id="path5382"
         style="fill:#000080;fill-opacity:1;fill-rule:nonzero;stroke:none" />
      <path
         transform="translate(0,284.36218)"
         inkscape:connector-curvature="0"
         d="m 254.65671,68.219857 c 4.75822,-0.374279 8.87251,-2.488469 12.62238,-5.305528 0.61403,-0.585636 2.48199,-2.314132 1.84207,-1.756909 -1.22683,1.068285 -2.18742,2.49068 -3.60374,3.290919 -0.62871,0.355225 0.79342,-1.213575 1.09133,-1.871374 0.88424,-1.952448 0.75957,-3.394192 0.16341,-5.365447 -0.3685,-0.47895 -0.6579,-1.030838 -1.10549,-1.436849 -2.56579,-2.32743 -6.59924,-2.24849 -9.71687,-1.36433 -1.09491,0.310517 -2.12305,0.820771 -3.18457,1.231156 -1.59863,0.991804 -5.07493,2.892391 -6.08831,4.594078 -0.53082,0.891379 2.22463,-2.882896 2.48206,-1.877875 0.34505,1.347116 -1.47598,2.369195 -2.02945,3.644913 -1.58135,3.644956 -1.3832,4.608076 -1.81632,8.541933 0.38858,9.098459 4.88395,17.116136 11.45831,23.282745 1.39557,1.309018 2.96133,2.423866 4.442,3.635798 6.36867,4.157813 14.03389,7.746403 21.86052,6.357703 0.93411,-0.16574 1.8202,-0.53566 2.7303,-0.8035 2.14791,-0.88866 1.18179,-0.22626 2.83864,-2.07159 0,0 0.13012,-0.096 0.13012,-0.096 l 0,0 c -3.30079,3.88598 -1.41028,1.93687 -5.78354,5.73656 -3.39572,1.68915 -4.08339,2.41256 -7.97857,2.78343 -7.09893,0.6759 -13.54042,-2.48021 -19.24017,-6.35568 -1.50466,-1.23663 -3.09389,-2.37701 -4.51398,-3.709892 -6.77665,-6.360445 -11.41691,-14.506211 -11.74287,-23.910244 0.40852,-4.110148 0.1924,-5.060621 1.77873,-8.889052 2.18373,-5.270192 5.25597,-7.608611 9.67889,-12.094501 0.92517,-0.938341 1.94694,-1.787429 3.02566,-2.544244 1.01978,-0.715458 2.16296,-1.236494 3.24444,-1.854741 1.09841,-0.380939 2.16572,-0.867461 3.29524,-1.142816 4.29725,-1.047594 8.94353,-0.31924 11.59376,3.452154 0.22996,0.608387 0.55872,1.188126 0.68987,1.825162 1.26648,6.151707 -6.29007,11.089258 -9.94358,14.632569 -3.84366,2.710663 -8.05892,4.787736 -12.85905,4.91994 0,0 4.63878,-5.478518 4.63878,-5.478518 z"
         id="path5384"
         style="fill:#000080;fill-opacity:1;fill-rule:nonzero;stroke:none" />
      <path
         transform="translate(0,284.36218)"
         inkscape:connector-curvature="0"
         d="m 301.57711,103.36143 c -3.2882,-4.863717 -5.4678,-10.501856 -6.29789,-16.322947 -0.19367,-1.358146 -0.22698,-2.734365 -0.34047,-4.101548 0.19402,-3.323091 0.0485,-4.486402 1.06165,-7.664127 2.30095,-7.216898 8.5787,-12.571422 14.70031,-16.600092 7.14415,-3.783492 15.16685,-4.580319 23.11362,-4.688186 1.87963,0.164961 8.19816,0.392792 8.93658,2.905458 0.22852,0.777612 -0.0912,1.618423 -0.13685,2.427634 0,0 -0.11246,0.116167 -0.11246,0.116167 l 0,0 c -0.8849,0.205946 -1.75271,0.508967 -2.65472,0.617838 -3.34792,0.40409 -7.69292,-0.635618 -11.11054,-0.09592 -7.86808,0.227412 -15.81407,1.019711 -22.78727,5.007395 -1.01487,0.719268 -2.77071,3.371182 -3.04459,2.157806 -0.30459,-1.34941 1.48326,-2.807956 2.85091,-3.015867 1.18361,-0.179934 -1.50658,1.871952 -2.11372,2.903797 -1.9432,3.302552 -2.68003,6.983855 -2.76057,10.774554 0.0921,1.344226 0.10171,2.696665 0.27635,4.032677 0.75109,5.745869 2.9566,11.204393 6.0542,16.070624 0,0 -5.63454,5.474737 -5.63454,5.474737 z"
         id="path5386"
         style="fill:#000080;fill-opacity:1;fill-rule:nonzero;stroke:none" />
    </g>
    <g
       id="g5473"
       transform="matrix(0.9987318,0.05034679,-0.05034679,0.9987318,382.13546,-39.084793)">
      <path
         transform="translate(0,284.36218)"
         inkscape:connector-curvature="0"
         d="m 85.956283,574.19195 c 3.468609,7.90732 6.211153,16.10922 8.91959,24.30034 2.754118,8.32246 5.276987,16.71836 7.544317,25.18594 1.03609,4.4552 2.55632,8.8436 2.90611,13.42729 0.16937,1.67582 -0.71336,2.84107 -1.84814,3.95024 0,0 -0.10063,0.12655 -0.10063,0.12655 l 0,0 c -0.96584,0.84201 -2.24061,2.02149 -3.21304,0.56198 -2.001848,-3.97794 -2.286239,-8.57639 -3.613399,-12.78466 -2.219937,-8.48061 -4.694824,-16.892 -7.436917,-25.2192 -2.730352,-8.26081 -5.455135,-16.52467 -8.380539,-24.71894 0,0 5.222648,-4.82954 5.222648,-4.82954 z"
         id="path5443"
         style="fill:#000080;fill-opacity:1;fill-rule:nonzero;stroke:none" />
      <path
         transform="translate(0,284.36218)"
         inkscape:connector-curvature="0"
         d="m 60.007403,588.21508 c -0.648987,-4.38683 -1.134642,-8.98176 -0.01454,-13.34255 0.234535,-0.91309 0.612175,-1.78331 0.918262,-2.67497 4.108757,-7.52092 10.143664,-12.18423 18.509624,-12.90609 1.451785,-0.12527 2.91389,-0.0522 4.370835,-0.0783 8.202537,0.52295 16.080346,3.2932 22.889566,7.89847 1.28854,0.87148 2.47697,1.88252 3.71546,2.82377 4.55517,4.101 8.98009,9.48933 7.99494,16.07126 -0.16372,1.09386 -0.60991,2.12634 -0.91487,3.18952 -0.56851,0.99784 -1.03042,2.06449 -1.70554,2.99353 -0.70939,0.97618 -1.54515,1.86189 -2.42387,2.68895 -5.42886,5.1097 -6.58521,7.25562 -12.22749,9.42158 -3.319148,1.27415 -4.608396,1.29441 -8.102942,1.85666 -4.508598,0.0877 -12.23321,0.25804 -15.512805,-3.53472 -0.417071,-0.48233 -0.651247,-1.09647 -0.976871,-1.64471 0,0 0.109044,-0.11938 0.109044,-0.11938 l 0,0 c 2.043021,-0.25815 3.907932,-0.54306 5.981271,-0.58477 5.129044,-0.10319 10.290309,0.70029 15.402883,-0.17974 3.43429,-0.62241 4.69287,-0.65776 7.93163,-2.00747 1.21262,-0.50534 2.747,-2.87445 3.50522,-1.80164 0.78678,1.11322 -2.54995,1.8898 -2.48071,3.25123 0.11705,2.30162 4.87614,-6.85984 4.33136,-5.38888 0.34907,-1.00856 0.83573,-1.97959 1.04721,-3.0257 1.28304,-6.3464 -3.05526,-11.61085 -7.42432,-15.56995 -1.21507,-0.92447 -2.37965,-1.91934 -3.64519,-2.77341 -6.680898,-4.50872 -14.439277,-7.12778 -22.459728,-7.73103 -3.880627,0.0581 -7.57191,0.0962 -11.151735,1.83401 -0.914324,0.44386 -2.859098,2.61518 -2.569979,1.6408 0.414274,-1.39617 1.752998,-2.43909 3.019946,-3.15726 0.800787,-0.45394 -1.012523,1.53754 -1.518784,2.30632 -0.339775,0.86869 -0.75376,1.7119 -1.019324,2.60608 -1.275257,4.2939 -0.929744,8.88209 -0.280188,13.243 0,0 -5.298361,4.69538 -5.298361,4.69538 z"
         id="path5445"
         style="fill:#000080;fill-opacity:1;fill-rule:nonzero;stroke:none" />
      <path
         transform="translate(0,284.36218)"
         inkscape:connector-curvature="0"
         d="m 130.19681,602.46678 c -0.65962,6.59588 1.05394,12.94517 3.3059,19.07098 2.1937,4.89229 4.88246,10.20899 9.67384,13.07117 0.73002,0.43609 1.5496,0.70083 2.3244,1.05125 2.53838,0.62848 4.87848,0.3852 7.13873,-1.00336 0.79282,-0.48706 2.8103,-2.42429 2.19039,-1.73038 -6.22125,6.96388 -2.65882,1.93635 -1.51806,0.14549 3.40497,-6.58736 3.8463,-13.88098 3.47184,-21.13962 -0.30997,-1.19005 -0.46861,-7.33246 -1.43539,-8.17499 -0.1274,-0.11103 0.14335,0.3061 0.21503,0.45914 1.84747,-1.6674 3.46855,-3.62654 5.54243,-5.00221 0.37595,-0.24938 -0.0556,0.90192 -0.0408,1.35282 0.0223,0.68196 0.0758,1.36326 0.15191,2.04133 0.35436,3.15883 1.10917,6.18543 1.91337,9.25352 1.85187,6.98284 5.12075,12.6481 9.57607,18.23413 0.55183,0.64747 1.10366,1.29494 1.65548,1.94241 0.31264,0.76932 0.4613,1.62794 0.9379,2.30798 0.3889,0.5549 1.05193,0.85445 1.5779,1.28168 0,0 -0.10801,0.12032 -0.10801,0.12032 l 0,0 c -0.97081,0.0501 -1.94289,0.0797 -2.91242,0.15029 -4.65029,0.33848 -2.29701,0.81094 -6.20246,-0.75101 -0.76854,-0.61803 -1.61637,-1.14872 -2.30562,-1.8541 -4.24342,-4.34274 -6.10114,-10.6028 -8.08362,-16.15118 -0.84334,-3.08392 -1.62779,-6.12865 -2.06481,-9.30085 -0.0462,-0.33552 -0.38416,-3.36772 -0.29192,-3.49464 1.6852,-2.31879 3.83606,-4.26045 5.75408,-6.39068 0.19149,0.12464 0.43515,0.19282 0.57446,0.3739 0.85462,1.11083 0.94433,7.28032 1.28007,8.65239 0.39884,7.32891 0.0507,14.71606 -3.15633,21.46753 -3.22382,5.61513 -1.75577,3.61745 -9.21192,10.72571 -2.79373,2.66337 -6.44941,3.31778 -10.06633,2.29329 -0.81239,-0.39173 -1.67066,-0.6999 -2.43715,-1.1752 -4.87238,-3.0213 -7.70147,-8.39469 -9.9346,-13.45927 -2.15996,-6.36401 -3.67044,-12.99456 -3.04986,-19.76377 0,0 5.53551,-4.60407 5.53551,-4.60407 z"
         id="path5447"
         style="fill:#000080;fill-opacity:1;fill-rule:nonzero;stroke:none" />
      <path
         transform="translate(0,284.36218)"
         inkscape:connector-curvature="0"
         d="m 195.7073,558.83343 c -1.02361,9.50927 0.65936,19.04488 2.31545,28.38309 1.7911,9.45961 4.32313,18.77033 8.64626,27.3948 2.3875,4.77767 6.53745,7.78515 10.71285,10.84933 1.85751,1.02898 2.10208,2.73149 2.7207,4.57228 0,0 -0.10899,0.11944 -0.10899,0.11944 l 0,0 c -2.4841,0.54417 -4.902,1.36672 -7.39544,0.37446 -5.62836,-2.22336 -8.67344,-5.24402 -11.68371,-10.51989 -4.34275,-8.71039 -6.88477,-18.10396 -8.70442,-27.64509 -1.692,-9.36985 -3.43391,-18.92614 -2.62555,-28.48244 0,0 6.12285,-5.04598 6.12285,-5.04598 z"
         id="path5449"
         style="fill:#000080;fill-opacity:1;fill-rule:nonzero;stroke:none" />
      <path
         transform="translate(0,284.36218)"
         inkscape:connector-curvature="0"
         d="m 225.1322,547.90163 c -1.39941,8.67141 -0.19458,17.45484 1.07129,26.06015 1.65207,9.11569 3.66815,18.35188 7.87863,26.68193 0.69912,1.38316 1.53289,2.69404 2.29933,4.04106 4.20285,6.80316 9.7121,10.22174 16.66087,13.62721 1.34567,1.01049 4.54003,1.45399 5.11818,3.40289 0.19251,0.64891 -0.062,1.35231 -0.0931,2.02847 0,0 -0.1097,0.11877 -0.1097,0.11877 l 0,0 c -0.88397,0.32656 -1.73119,0.77889 -2.65191,0.97969 -2.49178,0.54344 -5.01806,-0.43757 -7.39148,-1.00118 -7.31971,-2.80422 -12.96053,-7.07249 -17.21832,-13.76746 -0.77885,-1.36932 -1.62572,-2.70213 -2.33657,-4.10796 -4.2432,-8.39165 -6.287,-17.69101 -7.99016,-26.86835 -1.31994,-8.63009 -2.63624,-17.46577 -1.35391,-26.18368 0,0 6.11681,-5.01154 6.11681,-5.01154 z"
         id="path5451"
         style="fill:#000080;fill-opacity:1;fill-rule:nonzero;stroke:none" />
      <path
         transform="translate(0,284.36218)"
         inkscape:connector-curvature="0"
         d="m 266.2993,621.74205 c -1.88555,-5.41494 -4.0332,-10.73522 -6.35971,-15.9745 -1.07847,-3.34515 -3.79847,-6.41072 -3.89722,-10.02863 2.94927,-7.63082 9.65759,-7.70121 16.09533,-8.29404 7.06035,-0.62415 14.14889,-0.84587 21.2143,-0.24435 1.41633,0.36193 5.60918,0.78593 6.30555,2.5431 1.55815,3.93177 -1.40505,1.07911 0.84295,2.954 0,0 -0.11265,0.11598 -0.11265,0.11598 l 0,0 c -2.00141,-1.32454 -0.0786,-0.41716 -3.86184,0.40776 -2.71082,0.59107 -5.56097,-0.284 -8.2826,-0.12416 -7.06764,-0.39775 -14.14465,-0.30148 -21.19251,0.42273 -2.49647,0.25942 -5.07757,0.4208 -7.51068,1.09249 -0.48664,0.13435 -1.71847,0.9289 -1.4225,0.51991 2.39888,-3.31493 6.80045,-6.68139 4.07829,-4.56647 -0.52834,2.51039 2.64623,7.56497 3.27836,10.08219 2.10778,5.36874 4.32176,10.69715 6.27455,16.12566 0,0 -5.44962,4.96833 -5.44962,4.96833 z"
         id="path5453"
         style="fill:#000080;fill-opacity:1;fill-rule:nonzero;stroke:none" />
      <path
         transform="translate(0,284.36218)"
         inkscape:connector-curvature="0"
         d="m 318.20298,603.65479 c 5.35199,0.4684 10.38452,-0.84509 15.08033,-3.32494 0.71702,-0.53808 2.71659,-2.30985 2.15107,-1.61425 -1.11452,1.37088 -2.35401,2.68973 -3.82321,3.67101 -0.66243,0.44244 0.95948,-1.28262 1.31475,-1.99561 1.16301,-2.33405 0.97374,-3.88996 0.3555,-6.29115 -0.40948,-0.56339 -0.71785,-1.21648 -1.22844,-1.69016 -3.98363,-3.69566 -10.53444,-1.61041 -14.99433,-0.34541 -3.86288,1.41273 -7.55641,3.30107 -10.68822,6.00494 -0.99752,0.86121 -3.77791,1.9392 -2.78518,2.80591 1.81019,1.58041 6.03212,-8.08988 1.52636,0.91601 -1.88276,5.60772 -2.14432,11.93833 0.51317,17.38177 0.43522,0.89146 1.05416,1.68083 1.58124,2.52124 0.67916,0.63387 1.27177,1.37554 2.03747,1.90161 4.72477,3.24611 11.10032,1.36485 16.14658,0.14603 3.15807,-0.75134 6.22941,-2.16953 9.53855,-2.12028 0.67463,0.01 1.33456,0.19964 2.00184,0.29946 0,0 -0.10133,0.12599 -0.10133,0.12599 l 0,0 c -5.13962,2.75237 -10.30075,5.48452 -15.90018,7.20822 -5.53426,1.66052 -12.04144,3.67172 -17.2749,-0.0348 -0.81269,-0.57557 -1.44793,-1.36765 -2.1719,-2.05148 -0.56006,-0.88208 -1.2135,-1.7114 -1.68019,-2.64625 -2.777,-5.5628 -2.65542,-12.0644 -0.90624,-17.88584 3.09017,-6.72994 1.10333,-3.30053 9.32372,-12.12532 3.77834,-4.05614 8.57,-6.7989 13.79029,-8.56667 4.90272,-1.28313 11.4519,-2.99906 15.68307,0.99236 0.57236,0.53993 0.94034,1.26185 1.41051,1.89277 0.24039,0.72268 0.59222,1.41742 0.72117,2.16803 1.1542,6.71856 -6.83198,12.39827 -11.40486,15.59881 -4.86949,2.3631 -10.03729,3.57355 -15.48323,3.10486 0,0 5.26659,-6.04688 5.26659,-6.04688 z"
         id="path5455"
         style="fill:#000080;fill-opacity:1;fill-rule:nonzero;stroke:none" />
      <path
         transform="translate(0,284.36218)"
         inkscape:connector-curvature="0"
         d="m 381.81713,602.59871 c -2.26422,-4.78213 -5.40152,-8.32236 -9.856,-11.13216 -5.38214,-2.47719 -9.13809,-2.07872 -14.22822,0.74291 -0.66307,0.56093 -2.61083,2.28933 -1.9892,1.6828 1.1385,-1.11084 2.05668,-2.62847 3.54194,-3.19782 0.84996,-0.32581 -0.98986,1.53558 -1.36693,2.36407 -1.26093,2.7705 -1.34489,5.4134 -1.26882,8.38875 0.70325,4.15943 2.4488,8.99222 6.78334,10.63708 0.71448,0.27113 1.49762,0.30515 2.24643,0.45773 0.7914,-0.0907 1.60378,-0.0696 2.37418,-0.27208 1.7107,-0.44969 3.32032,-1.44327 4.68684,-2.52817 0.74878,-0.59447 2.81147,-2.59242 2.1059,-1.94725 -3.93952,3.60226 -4.2673,4.33363 -1.72506,0.89174 1.69201,-2.51477 3.04976,-5.23032 4.33041,-7.97118 1.98927,-1.46259 3.81135,-3.18527 5.96781,-4.38778 0.3149,-0.1756 -0.0168,0.72106 -0.0378,1.08101 -0.033,0.56703 -0.0938,1.13226 -0.12391,1.69945 -0.16447,3.09524 -0.0692,6.1401 0.0808,9.23495 0.83588,10.76062 3.09207,21.34305 5.33851,31.87906 1.8738,8.46433 3.82543,16.9111 5.71408,25.37212 0.12062,0.98618 1.59972,6.63667 0.62131,7.48417 -0.70001,0.60635 -1.54099,1.02764 -2.31148,1.54146 0,0 0.1205,-0.10781 0.1205,-0.10781 l 0,0 c -0.7022,0.80537 -1.31928,1.69373 -2.1066,2.41611 -0.52708,0.48359 -1.34291,-2.14645 -1.70896,-3.64803 -0.19509,-0.80027 -0.34946,-1.60993 -0.52419,-2.41489 -1.81562,-8.5011 -3.74651,-16.97662 -5.61462,-25.46623 -2.24518,-10.55339 -4.51647,-21.14273 -5.49225,-31.90471 -0.19772,-3.13181 -0.35544,-6.18484 -0.1477,-9.31811 0.008,-0.12536 0.19947,-2.67087 0.31384,-2.79074 1.83609,-1.9244 3.95553,-3.55697 5.9333,-5.33546 -1.52186,2.6881 -2.6004,5.62753 -4.40137,8.16321 -3.30707,4.72854 -1.70645,2.68598 -8.65133,9.59726 -2.69742,2.68437 -5.96697,4.48907 -9.8355,4.44142 -0.82104,-0.19122 -1.68009,-0.26132 -2.46311,-0.57366 -4.56608,-1.82134 -6.46698,-6.80532 -7.25718,-11.25431 -0.0469,-1.00275 -0.17677,-2.00504 -0.14081,-3.00824 0.27042,-7.54516 5.64384,-12.93945 11.60133,-17.13619 5.43282,-2.6234 9.12176,-2.68956 14.58356,0.0284 4.51071,3.03492 7.57118,6.6797 9.97164,11.5663 0,0 -5.06467,4.72481 -5.06467,4.72481 z"
         id="path5457"
         style="fill:#000080;fill-opacity:1;fill-rule:nonzero;stroke:none" />
      <path
         transform="translate(0,284.36218)"
         inkscape:connector-curvature="0"
         d="m 392.90064,637.18587 c -7.43985,0.7633 -14.86974,1.62003 -22.29743,2.49273 -3.7015,0.49513 -7.41805,0.87406 -11.14912,1.04794 -1.68738,0.0786 -3.34813,0.3255 -4.95591,-0.37998 -0.49554,-0.21744 -0.85233,-0.66701 -1.2785,-1.00051 0,0 0.10325,-0.12443 0.10325,-0.12443 l 0,0 c 2.89564,-1.39179 3.94288,-2.04534 7.01375,-2.94052 4.96437,-1.44715 10.20039,-1.92327 15.29744,-2.63407 7.46527,-0.87336 14.93361,-1.72056 22.39714,-2.60863 0,0 -5.13062,6.14747 -5.13062,6.14747 z"
         id="path5459"
         style="fill:#000080;fill-opacity:1;fill-rule:nonzero;stroke:none" />
      <path
         transform="translate(0,284.36218)"
         inkscape:connector-curvature="0"
         d="m 415.03649,587.2725 c 0.13935,6.37691 2.77854,12.19707 5.77205,17.69528 3.34379,5.56155 7.51637,10.60346 13.06409,14.03759 2.03509,0.91357 3.9933,1.21758 6.05441,0.14976 0.70196,-0.36368 2.44072,-1.97848 1.9361,-1.3699 -8.91277,10.74895 -2.06113,1.09036 -2.02101,1.03159 3.25362,-6.01235 3.80788,-12.76471 3.5998,-19.46652 -0.43442,-3.76441 -0.70929,-7.88333 -2.74146,-11.19936 -0.13244,-0.0796 -0.24939,-0.28366 -0.39731,-0.23893 -0.1541,0.0466 -0.34623,0.5335 -0.22533,0.42719 1.77888,-1.56403 3.32369,-3.40253 5.22148,-4.81992 0.3697,-0.27612 -0.38795,0.84356 -0.49755,1.29179 -0.41062,1.67928 -0.29404,2.6336 -0.30011,4.40526 0.40248,6.81352 3.29996,12.84042 7.1591,18.33192 2.01212,2.47395 4.36753,4.66336 6.80055,6.71769 1.60471,1.35494 2.70517,1.87235 3.91897,3.60115 0.44516,0.63403 0.69857,1.38298 1.04786,2.07447 0,0 -0.10846,0.11991 -0.10846,0.11991 l 0,0 c -2.96047,0.57804 -3.9549,1.11022 -6.91187,0.44539 -4.33572,-0.97484 -7.70828,-4.17167 -10.42587,-7.47131 -3.95129,-5.59137 -6.94491,-11.71796 -7.51825,-18.64724 -0.21937,-6.89997 0.1054,-6.50961 6.64206,-12.34265 0.43038,-0.38405 1.19001,0.39056 1.40505,0.55983 2.12428,3.43177 2.46668,7.67079 2.93155,11.58319 0.26903,6.79376 -0.22021,13.64033 -3.29082,19.83821 -2.55129,4.14695 -8.06182,11.4955 -13.42404,11.8112 -1.87976,0.11067 -2.63973,-0.41375 -4.34788,-1.08876 -5.60171,-3.58797 -9.87783,-8.69563 -13.30009,-14.36925 -3.0739,-5.57684 -5.75958,-11.45246 -6.14951,-17.90985 0,0 6.10649,-5.19773 6.10649,-5.19773 z"
         id="path5461"
         style="fill:#000080;fill-opacity:1;fill-rule:nonzero;stroke:none" />
      <path
         transform="translate(0,284.36218)"
         inkscape:connector-curvature="0"
         d="m 477.39103,595.31304 c 3.72328,-1.87232 7.52651,-3.5598 10.87093,-6.07261 3.93675,-3.89754 -2.13799,2.14005 -3.1625,2.89802 -0.43328,0.32056 0.55476,-0.93106 0.74303,-1.43608 0.61218,-1.64214 0.32734,-2.8672 -0.27156,-4.42954 -3.11333,-4.10956 -7.69694,-3.25886 -12.01801,-1.84323 0.7511,-2.04408 -6.23476,4.88604 -5.00624,3.30771 0.94279,-1.21125 1.90091,-2.6952 3.37086,-3.13705 1.00452,-0.30196 -1.22832,1.70929 -1.71398,2.639 -1.35943,2.60238 -1.31391,3.40076 -1.90232,6.25804 -0.40752,5.47171 0.79438,11.07586 4.47234,15.3128 0.64496,0.74298 1.42403,1.35798 2.13605,2.03697 3.77982,3.146 8.61364,3.10299 13.21338,3.89927 0,0 -0.10166,0.12573 -0.10166,0.12573 l 0,0 c -7.09162,3.57008 -11.19413,5.55856 -18.62866,1.53289 -0.76833,-0.69572 -1.61389,-1.31469 -2.305,-2.08717 -3.85718,-4.31132 -5.12818,-10.17529 -4.89084,-15.80016 0.19202,-1.12295 0.28505,-2.2674 0.57607,-3.36885 1.97347,-7.46932 8.77864,-13.48087 15.57399,-16.67559 4.98014,-1.36343 9.25477,-1.74301 12.82514,2.60651 0.24661,0.51782 0.56387,1.00758 0.73984,1.55346 1.83765,5.70064 -4.96395,9.6524 -8.44144,12.98582 -3.44765,2.39787 -7.27314,4.09458 -10.98244,6.04121 0,0 4.90302,-6.34715 4.90302,-6.34715 z"
         id="path5463"
         style="fill:#000080;fill-opacity:1;fill-rule:nonzero;stroke:none" />
      <path
         transform="translate(0,284.36218)"
         inkscape:connector-curvature="0"
         d="m 513.70974,586.18636 c -4.06385,-1.18747 -7.95194,-0.22678 -11.53726,1.80105 -0.47885,0.40347 -1.88353,1.64896 -1.43656,1.21043 1.36112,-1.33547 2.64506,-2.77454 4.18162,-3.90374 0.1141,-0.0838 -0.84998,0.91648 -0.37514,2.46789 0.41045,1.34105 1.27513,2.10725 2.16169,3.15992 3.57344,3.63782 7.9343,6.5072 11.0693,10.57766 0.60555,0.78624 1.09967,1.65233 1.6495,2.4785 2.26857,4.53356 1.92111,9.41959 -1.18173,13.49954 -0.62722,0.82474 -1.41359,1.51532 -2.12038,2.27298 -2.64896,2.34969 -5.12009,4.91665 -7.94689,7.04908 -2.77319,2.09198 -8.81138,1.81258 -11.78689,0.36234 -0.92163,-0.44919 -1.69714,-1.15085 -2.54571,-1.72627 -2.32226,-3.55152 -1.02216,-1.91779 -3.87883,-4.91818 0,0 0.11223,-0.11638 0.11223,-0.11638 l 0,0 c 4.16706,1.81261 1.90794,1.18295 6.82372,1.71402 3.28799,0.5856 6.53942,1.29583 9.89702,0.77845 1.04665,-0.16128 2.08321,-0.42201 3.07955,-0.78089 0.99372,-0.35793 2.85627,-2.41555 2.86228,-1.35934 0.009,1.51419 -1.89992,2.35832 -2.84988,3.53748 0.71366,-0.69743 1.50003,-1.32749 2.14096,-2.09228 3.13746,-3.74376 3.82082,-8.37303 1.71738,-12.77252 -0.51787,-0.80539 -0.97514,-1.65314 -1.55361,-2.41617 -3.11083,-4.10327 -7.56926,-6.88934 -11.01838,-10.6654 -0.94909,-1.18558 -1.87239,-2.09934 -2.37539,-3.55854 -1.52231,-4.41615 4.48785,-8.12736 7.63859,-10.29422 3.66522,-1.63843 7.59827,-2.34381 11.44933,-0.81518 0,0 -4.17652,4.50977 -4.17652,4.50977 z"
         id="path5465"
         style="fill:#000080;fill-opacity:1;fill-rule:nonzero;stroke:none" />
      <path
         transform="translate(0,284.36218)"
         inkscape:connector-curvature="0"
         d="m 546.81713,551.83851 c 0.4571,7.8113 0.94639,15.61728 1.64776,23.41115 0.95346,10.36819 2.66312,20.6351 5.08659,30.75604 1.04401,5.53569 4.02937,10.66683 4.54955,16.3032 -0.0959,0.3821 -0.19187,0.76419 -0.28781,1.14629 0,0 -0.10494,0.123 -0.10494,0.123 l 0,0 c -0.66114,0.38508 -1.32228,0.77016 -1.98341,1.15524 -0.56489,-0.0227 -1.16311,0.12439 -1.69467,-0.0681 -3.66676,-1.32787 -5.30431,-10.30754 -6.3128,-13.43528 -2.42247,-10.1568 -4.15023,-20.45511 -5.14428,-30.85402 -0.74274,-7.88571 -1.35777,-15.78885 -1.35537,-23.71559 0,0 5.59938,-4.82192 5.59938,-4.82192 z"
         id="path5467"
         style="fill:#000080;fill-opacity:1;fill-rule:nonzero;stroke:none" />
      <path
         transform="translate(0,284.36218)"
         inkscape:connector-curvature="0"
         d="m 564.33582,597.68647 c -5.09755,-2.06172 -10.46639,-3.19379 -15.89311,-3.93961 -2.98057,-0.81499 -8.21479,0.67172 -10.45389,-1.26342 0,0 0.10077,-0.12644 0.10077,-0.12644 l 0,0 c 1.83425,-1.24049 2.70583,-1.95874 4.76274,-2.83116 3.32169,-1.40886 6.99218,-1.49889 10.53888,-1.44567 5.60382,0.47514 11.098,1.64349 16.32004,3.78309 0,0 -5.37543,5.82321 -5.37543,5.82321 z"
         id="path5469"
         style="fill:#000080;fill-opacity:1;fill-rule:nonzero;stroke:none" />
      <path
         transform="translate(0,284.36218)"
         inkscape:connector-curvature="0"
         d="m 590.43016,585.66457 c -4.90403,-0.56587 -9.76566,0.18031 -14.21675,2.28181 -0.48242,0.35879 -1.86523,1.50852 -1.44726,1.07636 1.2677,-1.31072 2.52257,-2.66535 4.00756,-3.72357 0.31655,-0.22558 -0.33794,0.72517 -0.34529,1.11379 -0.008,0.42537 0.11649,0.85693 0.30079,1.24039 0.63002,1.31085 1.63505,2.06328 2.66685,3.05859 5.57135,4.27547 11.47762,8.03592 16.70431,12.75019 3.00275,3.00706 5.5713,6.96974 3.06873,11.14117 -0.44305,0.7385 -1.075,1.34577 -1.61251,2.01865 -2.59298,2.41502 -5.04259,4.99379 -7.77894,7.24507 -0.76278,0.62756 -1.73198,0.95992 -2.64677,1.33251 -4.32453,1.76139 -7.0817,1.65195 -11.46204,0.43151 -4.37793,-2.20411 -4.17152,-1.9718 -5.03737,-6.67497 0,0 0.11273,-0.11591 0.11273,-0.11591 l 0,0 c 1.28312,-0.005 2.57504,-0.16463 3.84936,-0.0145 1.97067,0.2322 3.76248,1.36871 5.75066,1.53859 4.07628,0.46577 7.80175,0.35528 11.60652,-1.40216 0.8908,-0.41147 2.87419,-2.37613 2.56465,-1.44499 -0.53478,1.60865 -2.2366,2.54807 -3.3549,3.82211 0.57678,-0.61334 1.23073,-1.16234 1.73036,-1.84002 2.80001,-3.79785 0.622,-7.56134 -2.28717,-10.48701 -5.18897,-4.74086 -11.07424,-8.55537 -16.49967,-13.00629 -1.17254,-1.20443 -2.11175,-1.93311 -2.81652,-3.46383 -2.04111,-4.43311 3.69383,-7.85909 7.09036,-9.8895 4.5547,-1.72786 9.41695,-2.3599 14.26979,-1.7603 0,0 -4.21748,4.77229 -4.21748,4.77229 z"
         id="path5471"
         style="fill:#000080;fill-opacity:1;fill-rule:nonzero;stroke:none" />
    </g>
    <g
       id="g5524"
       transform="translate(-280.57017,11.683749)">
      <path
         transform="translate(0,284.36218)"
         inkscape:connector-curvature="0"
         d="m 374.57772,488.24682 c -0.8092,8.38975 -1.42511,16.79533 -2.25522,25.18347 -0.88701,8.88685 -2.29969,17.7047 -3.84881,26.49596 -0.83052,3.36764 -0.79297,6.97509 -2.0656,10.22363 -1.16486,1.63459 -0.64372,0.88034 -1.57387,2.25548 0,0 -0.12026,0.10807 -0.12026,0.10807 l 0,0 c -1.12142,0.42011 -0.5211,0.20575 -1.80372,0.63534 -1.77142,-1.44854 0.0673,-6.8463 0.13144,-8.74387 1.53519,-8.79652 3.05802,-17.59989 3.92822,-26.49378 0.83905,-8.44506 1.48163,-16.90791 2.40906,-25.34372 0,0 5.19876,-4.32058 5.19876,-4.32058 z"
         id="path5508"
         style="fill:#000080;fill-opacity:1;fill-rule:nonzero;stroke:none" />
      <path
         transform="translate(0,284.36218)"
         inkscape:connector-curvature="0"
         d="m 413.12077,480.98655 c -8.71636,-0.15259 -17.33152,1.02373 -25.89625,2.50391 -14.50287,3.00844 -28.76942,7.01869 -43.18306,10.41559 -9.07693,2.07732 -18.22579,3.83271 -27.41409,5.33885 -0.56235,0.0917 -1.12376,0.18948 -1.68706,0.27518 -0.48233,0.0734 -1.07379,0.4246 -1.45833,0.12436 -0.0676,-0.0528 0.103,-0.13795 0.16403,-0.1982 3.15561,-3.11534 1.64594,-3.24479 3.76894,-2.74019 0,0 -0.10359,0.12414 -0.10359,0.12414 l 0,0 c -0.42454,0.13948 -1.31119,0.86373 -1.27361,0.41845 0.27939,-3.31057 3.12777,-3.55404 5.54479,-4.00264 9.1506,-1.53911 18.27689,-3.23467 27.32315,-5.30931 14.42822,-3.39222 28.70377,-7.42609 43.22871,-10.39426 8.45312,-1.4034 17.01581,-2.68926 25.60772,-1.9179 0,0 -4.62135,5.36202 -4.62135,5.36202 z"
         id="path5510"
         style="fill:#000080;fill-opacity:1;fill-rule:nonzero;stroke:none" />
      <path
         transform="translate(0,284.36218)"
         inkscape:connector-curvature="0"
         d="m 377.07265,521.89313 c -6.63891,1.04989 -13.28581,2.02503 -19.89935,3.23218 -6.53803,1.19356 -12.96807,2.86529 -19.3081,4.84456 -0.50134,-0.0597 -3.71755,1.77842 -4.01572,1.1487 0,0 2.27642,-3.0179 2.27642,-3.0179 l 0,0 c 1.78638,-1.66437 3.83335,-2.78758 6.1323,-3.63961 6.44049,-2.47605 13.12404,-4.1939 19.91559,-5.40842 6.54925,-1.18622 13.11812,-2.30293 19.7397,-3.00511 0,0 -4.84084,5.8456 -4.84084,5.8456 z"
         id="path5512"
         style="fill:#000080;fill-opacity:1;fill-rule:nonzero;stroke:none" />
      <path
         transform="translate(0,284.36218)"
         inkscape:connector-curvature="0"
         d="m 398.90044,526.80285 c -1.73754,-2.95418 -4.27849,-5.54311 -7.9658,-5.45974 -0.79983,0.0181 -1.58106,0.2459 -2.37159,0.36885 -2.49032,0.99698 -2.85843,0.96687 -5.10696,2.64299 -0.88711,0.66127 -1.58734,1.56299 -2.51429,2.16715 -0.85624,0.55807 1.95813,-2.9907 2.3001,-2.02755 0.39106,1.10141 -1.4031,1.87545 -1.99662,2.8823 -0.58737,0.99644 -1.02431,2.07422 -1.53646,3.11133 -1.69637,4.67254 -2.21469,10.03146 0.61998,14.40895 0.43954,0.67878 1.03336,1.24415 1.55004,1.86623 3.32751,2.73874 7.53397,2.53598 10.83029,-0.24135 0.71322,-0.60093 1.27575,-1.36074 1.91363,-2.04111 -1.26976,1.00006 -2.19391,2.94541 -3.80927,3.00017 -1.05672,0.0358 0.90883,-1.91417 1.25406,-2.91355 0.35738,-1.03453 0.62698,-2.10017 0.84822,-3.17209 0.61638,-2.98645 0.68999,-6.08662 0.92682,-9.11755 0.85638,-3.7448 0.48134,-1.96311 1.14343,-5.34119 0,0 0.11993,-0.10844 0.11993,-0.10844 l 0,0 c 1.9159,1.04691 0.97656,0.41905 2.78977,1.92517 1.17101,3.76705 1.24551,7.1954 0.19735,11.04826 -0.27452,1.00908 -0.44717,2.1074 -1.06546,2.95079 -2.11087,2.87936 -4.68331,5.39004 -7.02496,8.08506 -0.69334,0.64609 -1.31303,1.38161 -2.08003,1.93826 -3.71576,2.69669 -8.18745,2.3764 -11.56008,-0.6168 -0.53288,-0.68968 -1.15596,-1.31827 -1.59863,-2.06905 -2.79653,-4.74298 -2.13179,-10.48092 -0.4027,-15.43709 3.06847,-6.43059 4.65153,-7.73968 10.51208,-13.44153 2.22859,-2.16824 4.90814,-3.72885 7.89961,-4.55045 0.83025,-0.0733 1.65841,-0.26338 2.49075,-0.21984 3.77115,0.1973 6.33393,3.21621 7.97457,6.30357 0,0 -4.33778,4.05825 -4.33778,4.05825 z"
         id="path5514"
         style="fill:#000080;fill-opacity:1;fill-rule:nonzero;stroke:none" />
      <path
         transform="translate(0,284.36218)"
         inkscape:connector-curvature="0"
         d="m 419.74496,552.37011 c -2.42288,-5.29239 -5.06992,-10.47849 -7.58505,-15.72756 -1.80614,-4.03063 -3.62662,-6.641 -2.10981,-11.05192 4.07932,-7.03073 10.43499,-10.38964 17.6269,-12.89383 5.15618,-1.50759 10.4741,-2.78054 15.87389,-2.72253 2.99256,0.50087 3.08471,0.65918 1.78565,3.41476 0,0 -0.11348,0.11517 -0.11348,0.11517 l 0,0 c -2.21019,1.35412 -3.7837,1.81546 -6.37974,2.06205 -5.41809,0.78259 -10.87453,1.49587 -16.07589,3.29308 -2.63605,0.95594 -5.25754,1.89141 -7.65127,3.38546 -0.64309,0.40139 -2.303,1.93095 -1.84945,1.32351 1.12726,-1.50977 2.55874,-2.76891 3.90948,-4.08254 0.43077,-0.41893 -0.7627,0.92872 -1.14405,1.39309 -0.24024,0.48125 -0.54331,0.93596 -0.72072,1.44374 -1.13583,3.25097 0.7723,6.69909 1.8453,9.66952 2.32496,5.40197 4.84407,10.7172 7.19203,16.10933 0,0 -4.60379,4.26867 -4.60379,4.26867 z"
         id="path5516"
         style="fill:#000080;fill-opacity:1;fill-rule:nonzero;stroke:none" />
      <path
         transform="translate(0,284.36218)"
         inkscape:connector-curvature="0"
         d="m 454.99249,475.80883 c -1.66747,10.29965 -1.01365,20.77907 -0.25328,31.12733 0.95739,11.49784 3.0695,22.84673 5.49218,34.11238 0.5585,3.97295 2.2746,7.83304 2.41182,11.8695 -0.30855,1.12726 -3.62659,5.17347 -2.72062,1.51432 0,0 0.12023,-0.10811 0.12023,-0.10811 l 0,0 c 2.38615,1.06436 -1.12994,3.45311 -2.40458,3.14792 -2.08029,-2.64661 -2.13853,-8.15947 -3.23283,-11.23296 -2.3784,-11.32977 -4.46997,-22.73858 -5.45345,-34.28618 -0.77421,-10.47407 -1.45335,-21.10534 0.38962,-31.51233 0,0 5.65091,-4.63187 5.65091,-4.63187 z"
         id="path5518"
         style="fill:#000080;fill-opacity:1;fill-rule:nonzero;stroke:none" />
      <path
         transform="translate(0,284.36218)"
         inkscape:connector-curvature="0"
         d="m 477.43164,510.5701 c -4.05825,1.87459 -7.82361,4.29319 -11.39867,6.96107 1.0443,-1.26117 -4.1975,3.82977 -3.17427,2.84418 1.08778,-1.04776 2.08079,-2.20481 3.26777,-3.1387 0.44113,-0.34708 -0.69843,0.88139 -1.00023,1.35465 -0.82023,1.28618 -0.81913,1.5525 -1.31711,2.98435 -1.03062,4.00624 0.37428,7.55563 2.37916,10.97099 3.16743,4.737 7.80683,8.02228 12.62914,10.8927 4.26269,2.39396 8.94888,3.84714 12.89449,6.77571 1.57486,1.3841 1.45284,3.09686 1.52744,5.01806 0,0 -0.11471,0.11393 -0.11471,0.11393 l 0,0 c -1.94465,-0.12075 -3.89592,0.10937 -5.79361,-0.43926 -4.8921,-1.32609 -9.58969,-3.15224 -13.97722,-5.72888 -4.92777,-2.96278 -9.7127,-6.3172 -12.82959,-11.27279 -2.01903,-3.79771 -3.17665,-7.7634 -2.06082,-12.05759 1.87596,-5.72066 6.73518,-9.57706 11.29648,-13.28657 3.60734,-2.60807 7.38516,-4.9765 11.44789,-6.81864 0,0 -3.77614,4.82679 -3.77614,4.82679 z"
         id="path5520"
         style="fill:#000080;fill-opacity:1;fill-rule:nonzero;stroke:none" />
      <path
         transform="translate(0,284.36218)"
         inkscape:connector-curvature="0"
         d="m 520.31603,519.12781 c -1.13591,-4.01693 -3.05017,-7.96397 -6.48509,-10.51588 -0.7045,-0.52339 -1.50627,-0.90119 -2.25941,-1.35178 -5.01505,-2.09205 -9.8834,-0.82689 -14.31565,1.92223 -0.54063,0.49114 -2.17903,1.94577 -1.6219,1.47342 1.15264,-0.97723 2.02964,-2.37119 3.40894,-2.98852 0.58692,-0.26268 -0.57735,1.16174 -0.72545,1.78749 -0.56635,2.39302 0.3348,4.29819 1.30878,6.41208 3.7018,5.81025 9.65571,9.5563 15.09131,13.57328 3.22355,2.6954 7.84085,5.56334 8.53325,10.13741 0.10419,0.68833 -0.0126,1.39229 -0.0189,2.08843 -0.52546,2.48369 -1.94396,4.31457 -3.76174,6.02019 -6.03821,5.66561 -6.37958,6.88117 -12.77039,9.04139 -0.94102,0.11977 -1.87446,0.3639 -2.82306,0.3593 -4.15937,-0.0201 -8.20762,-2.66289 -9.60096,-6.66512 -0.46628,-1.33933 -0.48922,-2.79385 -0.73382,-4.19078 0,0 0.1161,-0.11253 0.1161,-0.11253 l 0,0 c 1.13875,0.50392 2.31052,0.939 3.41626,1.51175 1.00706,0.52162 1.9178,1.21352 2.90905,1.76459 3.62903,2.01753 7.18309,2.82399 11.2586,1.62581 0.89692,-0.34441 1.82154,-0.62391 2.69075,-1.03324 0.86848,-0.40899 2.7102,-2.35356 2.50826,-1.41508 -0.31854,1.48029 -2.13124,2.18108 -2.94752,3.45639 -3.17409,4.95904 3.00012,-3.21461 3.26259,-3.66647 0.34755,-0.59833 0.54434,-1.27234 0.8165,-1.90851 0.0563,-0.63288 0.22238,-1.26551 0.16889,-1.89863 -0.37738,-4.4673 -5.12172,-7.25234 -8.13056,-9.85827 -5.49861,-4.13649 -11.40597,-8.11253 -15.11724,-14.05475 -0.36162,-0.81349 -0.81001,-1.59372 -1.08488,-2.44047 -2.04621,-6.30341 3.05219,-10.60638 7.81304,-14.19286 4.66221,-2.55363 9.67004,-3.59967 14.70756,-1.32239 0.78459,0.4787 1.622,0.87999 2.35376,1.43611 3.53547,2.68682 5.52488,6.81229 6.48577,11.04585 0,0 -4.45288,3.95956 -4.45288,3.95956 z"
         id="path5522"
         style="fill:#000080;fill-opacity:1;fill-rule:nonzero;stroke:none" />
    </g>
    <path
       style="fill:#000000;fill-opacity:1;fill-rule:nonzero;stroke:none"
       id="path5534"
       d="m 303.00289,357.6235 c -6.74643,2.32648 -13.16703,2.00828 -20.11981,1.00518 -10.54934,-2.15597 -20.12206,-7.29535 -28.74303,-13.62877 -2.11012,-1.55021 -4.11279,-3.2416 -6.16919,-4.86239 -7.50069,-6.39905 -14.46049,-13.48638 -20.34349,-21.41617 -3.14974,-4.24558 -3.65764,-5.35443 -6.26919,-9.77305 -3.45294,-6.18272 -5.54734,-12.87331 -5.97546,-19.92722 -0.0217,-2.13478 -0.10835,-4.39221 1.21751,-6.17238 0.88744,-0.95922 0.25554,-0.42322 2.18439,-1.18648 0,0 -0.12153,0.10663 -0.12153,0.10663 l 0,0 c 1.68197,-1.90076 1.02092,-1.20372 1.92603,-2.14384 0.0941,-0.0157 0.19753,-0.0909 0.28227,-0.0471 0.30363,0.15693 -0.12151,4.32807 -0.0509,4.75396 0.24075,7.00744 2.21402,13.65691 5.58259,19.82439 0.90847,1.57604 1.75443,3.18982 2.72543,4.72813 6.33112,10.03013 14.71873,18.60685 23.63812,26.34304 2.04314,1.61147 4.03148,3.29496 6.12942,4.8344 8.54784,6.27231 18.04124,11.36364 28.52169,13.40377 6.61586,0.88715 13.3135,1.22263 19.72242,-1.03543 0,0 -4.13728,5.19331 -4.13728,5.19331 z"
       inkscape:connector-curvature="0"
       transform="translate(0,284.36218)" />
    <path
       style="fill:#000000;fill-opacity:1;fill-rule:nonzero;stroke:none"
       id="path5536"
       d="m 234.72232,286.68835 c -6.22709,-3.92552 -12.48985,-7.79403 -18.73682,-11.68782 -5.29778,-2.85751 -11.5085,-7.93899 -17.50867,-9.12845 -0.74993,-0.14867 -1.52623,-0.0929 -2.28935,-0.13941 0.38995,-1.68337 -4.3108,2.7872 -3.24212,2.07658 1.39451,-0.9273 2.28118,-2.88235 3.93914,-3.11833 0.9305,-0.13244 -0.64435,1.76957 -0.87118,2.68166 -0.5927,2.38328 -0.72607,4.36206 -0.99863,6.80681 -0.50012,6.50395 -0.44852,13.02733 -1.31369,19.49971 -0.22156,2.42646 -1.42005,4.40905 -2.63042,6.44591 0,0 -0.12357,0.10427 -0.12357,0.10427 l 0,0 c -1.85707,-0.18803 -1.85394,-0.60788 -2.03418,-2.50005 -0.33742,-6.26569 0.0339,-12.54462 0.42014,-18.80042 0.19541,-1.92787 0.61456,-8.16399 1.71867,-9.74627 1.82203,-2.61112 4.05505,-4.91506 6.2272,-7.24305 1.27668,-1.36828 1.76258,-1.16002 3.47963,-1.43787 0.7578,0.12616 1.53286,0.17412 2.27342,0.37848 6.39492,1.76475 11.7912,6.20577 17.47606,9.39261 6.19472,3.96587 12.39883,7.91575 18.63235,11.81967 0,0 -4.41798,4.59597 -4.41798,4.59597 z"
       inkscape:connector-curvature="0"
       transform="translate(0,284.36218)" />
    <path
       style="fill:#000000;fill-opacity:1;fill-rule:nonzero;stroke:none"
       id="path5542"
       d="m 734.93616,311.3822 c 3.1969,-1.49861 6.15494,-3.4773 8.79133,-5.82577 0.87186,-0.77664 1.97138,-1.39967 2.52517,-2.42759 0.50026,-0.92855 -1.57036,1.40849 -2.35554,2.11274 7.08431,-8.09482 11.06244,-17.99515 14.24122,-28.12124 3.20712,-11.11266 4.0096,-22.61507 3.38759,-34.10776 -0.2468,-5.83141 -1.88438,-11.44959 -2.8345,-17.16755 -0.19496,-1.21658 -0.3444,-1.94185 0.44159,-2.90069 0,0 1.20106,-1.41864 1.20106,-1.41864 l 0,0 c 1.27661,-0.82673 1.74901,-0.85744 2.57028,0.49114 2.5552,5.04419 3.17037,10.9058 3.91129,16.42368 0.73734,11.53863 0.0407,23.07691 -3.16519,34.25264 -3.14147,10.17152 -7.03359,20.1453 -14.03451,28.35313 -5.75648,5.95299 -11.15773,12.43766 -18.9503,15.74748 0,0 4.27051,-5.41157 4.27051,-5.41157 z"
       inkscape:connector-curvature="0"
       transform="translate(0,284.36218)" />
    <path
       style="fill:#000000;fill-opacity:1;fill-rule:nonzero;stroke:none"
       id="path5544"
       d="m 787.58929,236.06436 c -3.93409,-5.29985 -7.91608,-10.53976 -12.32628,-15.45454 -4.21457,-4.62292 -9.20266,-8.27442 -14.85622,-10.90307 -2.35458,-0.83963 -4.78884,-1.96851 -7.32664,-2.11466 -0.45925,0.13342 -0.2811,-0.004 -0.52324,0.42664 1.71508,-1.65891 3.36083,-3.39264 5.14525,-4.97672 0.21844,-0.19391 -0.28756,0.50918 -0.41092,0.77394 -0.49062,1.053 -0.91027,2.13764 -1.36314,3.20742 -2.92254,7.04189 -6.78712,13.62469 -10.7741,20.10325 -3.5341,5.59003 -7.3534,10.99291 -11.23032,16.34858 -1.23766,2.06851 -3.09751,3.51356 -4.79682,5.15589 0,0 -0.1076,0.12068 -0.1076,0.12068 l 0,0 c -2.11154,1.33682 -3.36755,2.35819 -1.18655,-0.6923 3.72387,-5.37087 7.58376,-10.65069 11.08183,-16.17484 4.00095,-6.44491 7.85406,-13.00233 10.83128,-19.99617 1.54259,-3.62678 3.64701,-10.17688 8.36418,-10.05713 2.56816,0.40027 5.02002,1.4426 7.42022,2.38727 5.69912,2.74128 10.7482,6.46927 15.00887,11.17268 4.41437,4.93467 8.40477,10.19307 12.3091,15.53715 0,0 -5.2589,5.13593 -5.2589,5.13593 z"
       inkscape:connector-curvature="0"
       transform="translate(0,284.36218)" />
    <path
       style="fill:#000000;fill-opacity:1;fill-rule:nonzero;stroke:none"
       id="path5548"
       d="m 373.02727,718.84509 c 0.81832,6.76864 0.45852,13.5528 -0.40498,20.29021 -1.13662,7.09478 -3.43427,13.98339 -7.45683,19.9836 -0.84647,1.26264 -1.81786,2.43691 -2.72679,3.65536 -5.93822,6.70341 -12.31638,13.09972 -20.43292,17.05626 -3.65662,1.78248 -4.87396,2.02602 -8.70654,3.25925 -6.56246,1.77176 -13.3676,2.38944 -20.14663,2.37802 -0.58647,-0.24529 -3.27474,0.29113 -3.65775,-0.68177 -0.0395,-0.10034 0.19819,-1.77164 0.22307,-1.95556 0,0 0.10617,-0.12194 0.10617,-0.12194 l 0,0 c 1.01257,-0.60776 1.95449,-1.3373 3.00542,-1.87602 1.60511,-0.82279 3.48291,-0.86863 5.22002,-1.14597 6.76104,-0.54592 13.60561,-0.71097 20.14949,-2.71691 4.49066,-1.50706 8.70065,-3.1307 12.71812,-5.70032 1.34624,-0.86107 2.34093,-2.44405 3.90214,-2.78525 0.97931,-0.21403 -2.68253,2.94982 -1.88378,2.34414 1.2367,-0.93776 2.14893,-2.23996 3.22339,-3.35994 0.92854,-1.19987 1.91863,-2.35453 2.78561,-3.5996 4.14162,-5.94783 6.59222,-12.82044 7.87675,-19.91474 1.00313,-6.7904 1.44957,-13.63158 0.88338,-20.49057 0,0 5.32266,-4.61825 5.32266,-4.61825 z"
       inkscape:connector-curvature="0" />
    <path
       style="fill:#000000;fill-opacity:1;fill-rule:nonzero;stroke:none"
       id="path5550"
       d="m 312.60099,767.13215 c -4.07067,4.27087 -7.74839,8.89419 -11.4334,13.49564 -2.95764,3.76105 -5.97075,7.48056 -8.83261,11.31577 -1.428,1.9716 -1.17312,1.58758 1.08035,2.12155 4.48237,0.86192 8.91128,1.93945 13.28706,3.23483 3.06439,1.04873 6.43496,1.90295 8.83911,4.19831 0.95174,1.22237 -0.35677,1.99112 -0.89145,3.11081 0,0 -0.11169,0.11691 -0.11169,0.11691 l 0,0 c -1.23817,0.75192 -1.99768,1.9958 -3.59477,1.67363 -3.30084,-0.70314 -6.31967,-2.33073 -9.57586,-3.20435 -4.37997,-1.28463 -8.81685,-2.32335 -13.30413,-3.16237 -2.22744,-0.5691 -3.94488,-1.04995 -2.00285,-3.40279 3.0217,-3.86051 6.05157,-7.7147 9.1108,-11.54559 3.71942,-4.61631 7.42241,-9.25778 11.46333,-13.60023 0,0 5.96611,-4.35212 5.96611,-4.35212 z"
       inkscape:connector-curvature="0" />
    <path
       style="fill:#000000;fill-opacity:1;fill-rule:nonzero;stroke:none"
       id="path5552"
       d="m 770.53511,366.41505 c 5.96405,-0.5072 11.80254,0.47287 17.55091,1.96743 8.37815,2.5954 16.04937,7.11214 22.32154,13.26371 1.46023,1.43215 2.76737,3.01247 4.15105,4.51871 6.85751,8.5046 10.99897,18.67345 12.13441,29.54057 0.22484,2.15185 0.21326,4.32188 0.31989,6.48281 -0.0468,12.31112 -3.66236,22.58787 -9.196,33.37185 -3.17895,5.78508 -6.94283,11.23151 -11.26343,16.21895 -1.94765,2.36748 -9.59521,10.42348 -6.47175,4.77239 0.2537,-0.45901 0.57777,-0.87543 0.86666,-1.31314 0,0 0.12157,-0.1066 0.12157,-0.1066 l 0,0 c 0.32804,-0.13775 0.68884,-0.21478 0.98412,-0.41326 0.49918,-0.33554 0.91995,-0.94739 1.32695,-1.39368 0.19103,-0.20947 0.79384,-0.80973 0.59262,-0.61002 -1.55497,1.54338 -3.09405,3.10276 -4.654,4.64112 -0.27609,0.27226 0.53472,-0.56168 0.80208,-0.84252 4.43816,-4.93442 8.2581,-10.39109 11.51929,-16.17075 5.6189,-10.67227 9.34848,-20.84898 9.51034,-33.10225 -0.0873,-2.1409 -0.0599,-4.28956 -0.26191,-6.42269 -1.01932,-10.76156 -4.9375,-20.88753 -11.67523,-29.35546 -1.35987,-1.49142 -2.64005,-3.05961 -4.07962,-4.47426 -6.17451,-6.06763 -13.78516,-10.48249 -22.02013,-13.07291 -5.64197,-1.43587 -11.38635,-2.41892 -17.23452,-1.97129 0,0 4.65516,-5.52871 4.65516,-5.52871 z"
       inkscape:connector-curvature="0"
       transform="translate(0,284.36218)" />
    <path
       style="fill:#000000;fill-opacity:1;fill-rule:nonzero;stroke:none"
       id="path5554"
       d="m 791.38221,734.86634 c -2.26268,5.47309 -4.48847,10.95084 -6.36923,16.56859 -1.49264,5.27125 -2.86228,10.93988 -1.55927,16.4126 0.20831,0.87495 0.5728,1.70517 0.85921,2.55776 3.12064,5.92774 8.41608,6.38776 14.50758,6.46961 6.30234,-0.32258 12.54656,-1.2583 18.84492,-1.64664 0.68003,0.11563 5.14319,-0.73646 5.17082,0.92156 0.005,0.32419 -0.14089,0.63298 -0.21134,0.94946 -1.70244,1.85726 -0.6296,0.79216 -3.36812,3.03722 0,0 0.0954,-0.13058 0.0954,-0.13058 l 0,0 c -0.94894,0.57491 -0.57166,0.41866 -1.06362,0.60785 -0.0773,0.74806 -5.04001,0.61448 -5.7539,0.69632 -6.30016,0.37776 -12.54862,1.32047 -18.85738,1.56114 -6.45442,-0.18443 -11.89096,-0.92841 -15.22465,-7.11431 -0.31408,-0.88921 -0.70861,-1.75397 -0.94224,-2.66762 -1.43182,-5.59956 -0.13384,-11.41116 1.4517,-16.81414 1.8769,-5.65716 4.1008,-11.16937 6.42328,-16.65684 0,0 5.99689,-4.75198 5.99689,-4.75198 z"
       inkscape:connector-curvature="0" />
  </g>
</svg>
