<?xml version="1.0" encoding="UTF-8" standalone="no"?>
<!-- Created with Inkscape (http://www.inkscape.org/) -->

<svg
   xmlns:dc="http://purl.org/dc/elements/1.1/"
   xmlns:cc="http://creativecommons.org/ns#"
   xmlns:rdf="http://www.w3.org/1999/02/22-rdf-syntax-ns#"
   xmlns:svg="http://www.w3.org/2000/svg"
   xmlns="http://www.w3.org/2000/svg"
   xmlns:sodipodi="http://sodipodi.sourceforge.net/DTD/sodipodi-0.dtd"
   xmlns:inkscape="http://www.inkscape.org/namespaces/inkscape"
   width="1024"
   height="768"
   id="svg4160"
   version="1.1"
   inkscape:version="0.48.4 r9939"
   sodipodi:docname="5.svg">
  <defs
     id="defs4162" />
  <sodipodi:namedview
     id="base"
     pagecolor="#ffffff"
     bordercolor="#666666"
     borderopacity="1.0"
     inkscape:pageopacity="0.0"
     inkscape:pageshadow="2"
     inkscape:zoom="0.86588542"
     inkscape:cx="512"
     inkscape:cy="384"
     inkscape:document-units="px"
     inkscape:current-layer="g4983"
     showgrid="false"
     inkscape:window-width="1600"
     inkscape:window-height="872"
     inkscape:window-x="0"
     inkscape:window-y="14"
     inkscape:window-maximized="0" />
  <metadata
     id="metadata4165">
    <rdf:RDF>
      <cc:Work
         rdf:about="">
        <dc:format>image/svg+xml</dc:format>
        <dc:type
           rdf:resource="http://purl.org/dc/dcmitype/StillImage" />
        <dc:title />
      </cc:Work>
    </rdf:RDF>
  </metadata>
  <g
     inkscape:label="Ebene 1"
     inkscape:groupmode="layer"
     id="layer1"
     transform="translate(0,-284.36218)">
    <g
       transform="translate(-74.577143,466.03579)"
       id="g4466"
       style="fill:#000080">
      <path
         style="fill:#000080;fill-opacity:1;fill-rule:nonzero;stroke:none"
         id="path4432"
         d="m 122.59343,171.51981 c -1.70513,6.60308 -3.56149,13.16589 -5.38821,19.73602 -2.85408,10.1605 -5.51353,20.37385 -8.21421,30.57575 -1.70075,6.42769 -3.50533,12.82714 -5.39622,19.20133 -0.96038,3.14375 -0.66477,3.3221 -3.983097,5.38162 -0.385105,0.23901 0.561767,-0.71145 0.842647,-1.06717 1.81037,-2.43146 0.89239,-1.14041 2.73774,-3.88463 0,0 0.0904,-0.07 0.0904,-0.07 l 0,0 c -0.38139,1.55427 -0.24758,0.84164 -0.44141,2.13001 -0.43057,1.61617 -3.410014,4.39537 -3.858766,3.49909 -0.212057,-0.42354 0.127661,-0.94149 0.252984,-1.39826 0.128669,-0.46897 0.267935,-0.93497 0.401902,-1.40245 1.88657,-6.41133 3.79578,-12.81675 5.51054,-19.27697 2.77727,-10.27703 5.53597,-20.55948 8.4725,-30.79259 1.89449,-6.6544 3.79214,-13.30789 5.68268,-19.96341 0,0 3.29056,-2.6683 3.29056,-2.6683 z"
         inkscape:connector-curvature="0"
         transform="translate(8.2085357,290.90713)" />
      <path
         style="fill:#000080;fill-opacity:1;fill-rule:nonzero;stroke:none"
         id="path4434"
         d="m 119.61433,187.54783 c 0.53325,-1.6038 1.34275,-3.09282 1.9814,-4.65417 0.2052,-0.5168 0.21223,-1.0141 -0.0907,-1.483 -0.11405,-0.19616 -0.27724,-0.26361 -0.48439,-0.30641 -0.0499,0.0392 -0.0229,0.0855 -0.17647,0.15645 2.13072,3.70429 2.72487,-5.5658 2.89916,-1.16778 0.0148,0.37278 0.0289,0.74559 0.0434,1.11839 0.29475,5.95976 1.36479,11.84335 2.44071,17.70098 1.8237,9.22034 4.22844,18.31163 6.5847,27.40639 1.52248,5.90128 3.0895,11.79425 4.37983,17.75188 -0.0267,0.84607 0.99589,3.0875 0.46649,3.88939 -4.73382,4.22068 -3.26814,2.33491 -2.06595,-0.12454 0,0 0.0858,-0.0755 0.0858,-0.0755 l 0,0 c 2.77195,0.0317 2.00897,0.18624 -1.55446,3.33243 -0.35871,0.067 -0.74524,-3.11115 -0.87139,-3.51135 -1.25744,-5.9926 -2.74201,-11.93355 -4.21062,-17.87716 -2.26079,-9.16811 -4.6342,-18.31569 -6.42931,-27.59019 -1.06716,-5.96205 -2.09024,-11.96739 -2.1699,-18.0404 0.0209,-1.21011 0.19208,-7.64847 3.06459,-5.61251 -0.0124,0.15666 0.10282,0.26296 0.0524,0.38149 -0.10957,0.25784 -0.19839,0.51875 -0.14829,0.80471 0.16648,0.63832 0.26889,1.2318 -0.0417,1.85902 -0.92435,1.84145 -1.94631,3.63357 -2.96478,5.42393 0,0 -0.79051,0.61799 -0.79051,0.61799 z"
         inkscape:connector-curvature="0"
         transform="translate(8.2085357,290.90713)" />
      <path
         style="fill:#000080;fill-opacity:1;fill-rule:nonzero;stroke:none"
         id="path4436"
         d="m 130.00608,226.90303 c -4.37496,-1.553 -8.88676,-2.51464 -13.48152,-3.10665 -2.45626,-0.2542 -4.92354,-0.34704 -7.39093,-0.39425 -1.4248,-0.0273 -2.79825,0.0402 -4.18891,-0.27891 0.0571,-0.31523 0.11416,-0.63046 0.17123,-0.94569 0,0 0.0722,-0.0887 0.0722,-0.0887 l 0,0 c 0.57005,-0.4374 1.14009,-0.8748 1.71014,-1.3122 4.1817,-1.40903 8.68784,-1.21223 13.03418,-0.86716 4.56294,0.60299 9.16384,1.41677 13.32755,3.477 0,0 -3.25394,3.51651 -3.25394,3.51651 z"
         inkscape:connector-curvature="0"
         transform="translate(8.2085357,290.90713)" />
      <path
         style="fill:#000080;fill-opacity:1;fill-rule:nonzero;stroke:none"
         id="path4438"
         d="m 146.20756,208.08925 c 0.88205,4.93045 1.61953,9.88563 2.38366,14.83538 0.72659,4.62355 1.46004,9.24596 2.16287,13.8732 0.49954,3.77344 0.89385,2.70593 -2.67544,5.469 1.04874,-1.46769 0.78091,-0.73797 1.05271,-2.0808 0,0 0.0866,-0.0747 0.0866,-0.0747 l 0,0 c 0.36693,0.78032 0.0582,0.55116 1.12782,0.24199 -3.69215,3.63783 -3.00137,3.81986 -3.61413,-0.0188 -0.64182,-4.66289 -1.38363,-9.31123 -2.04974,-13.97065 -0.71197,-5.04433 -1.4172,-10.09023 -2.02337,-15.14857 0,0 3.54904,-3.12611 3.54904,-3.12611 z"
         inkscape:connector-curvature="0"
         transform="translate(8.2085357,290.90713)" />
      <path
         style="fill:#000080;fill-opacity:1;fill-rule:nonzero;stroke:none"
         id="path4440"
         d="m 168.53099,214.28002 c -4.84628,0.27284 -9.55012,1.56396 -14.19473,2.88858 -3.19776,0.8416 -6.2648,2.14272 -9.46931,2.95471 -0.4551,0.0242 -0.39043,0.13316 -0.27286,-0.26458 0,0 1.98164,-2.53158 1.98164,-2.53158 l 0,0 c 0.75504,-0.66505 0.35167,-0.38533 1.20309,-0.8492 3.13661,-1.2986 6.43782,-2.15772 9.67299,-3.16712 4.62997,-1.29211 9.34597,-2.61775 14.18836,-2.65047 0,0 -3.10918,3.61966 -3.10918,3.61966 z"
         inkscape:connector-curvature="0"
         transform="translate(8.2085357,290.90713)" />
      <path
         style="fill:#000080;fill-opacity:1;fill-rule:nonzero;stroke:none"
         id="path4442"
         d="m 191.76697,215.17128 c -2.9074,-1.96323 -5.29287,-2.12588 -8.64686,-1.40188 -2.82929,0.9175 -5.34018,2.56036 -7.53386,4.55078 -0.63326,0.57458 -2.62978,1.54025 -1.81822,1.80956 0.84568,0.28063 1.35318,-1.15957 2.02977,-1.73936 -2.69323,3.52374 -4.37714,7.65926 -4.52993,12.12177 -0.0297,0.86673 0.0542,1.73363 0.0812,2.60045 0.50988,3.65789 1.79732,7.69128 5.42013,9.38802 0.61723,0.28908 1.29997,0.4102 1.94996,0.6153 4.07821,0.57947 7.71262,-1.18101 11.26696,-2.91516 1.05881,-0.31125 0.54697,-0.0906 1.5295,-0.67562 0,0 -0.0682,0.0918 -0.0682,0.0918 l 0,0 c -1.98548,1.84219 -0.90583,0.86164 -3.24941,2.93014 -3.9031,2.79534 -8.2113,5.20975 -13.18629,4.65268 -0.70729,-0.21865 -1.45262,-0.33944 -2.12187,-0.65595 -3.75757,-1.77707 -5.17261,-5.99968 -5.766,-9.79338 -0.0427,-0.88621 -0.14696,-1.7716 -0.1281,-2.65864 0.0974,-4.58304 1.80613,-8.85833 4.50035,-12.51998 4.37029,-4.64234 8.49222,-9.97125 14.89134,-11.76704 3.47749,-0.48468 5.7242,-0.0379 8.48917,2.20315 0,0 -3.10971,3.16337 -3.10971,3.16337 z"
         inkscape:connector-curvature="0"
         transform="translate(8.2085357,290.90713)" />
      <path
         style="fill:#000080;fill-opacity:1;fill-rule:nonzero;stroke:none"
         id="path4444"
         d="m 201.35287,185.67218 c 0.63074,5.28315 1.30494,10.55865 2.10351,15.81927 1.15895,7.34664 2.64792,14.63468 4.17902,21.91101 0.80298,3.7156 1.48757,7.45482 2.23372,11.18176 0.49464,2.29501 0.63747,1.28973 -3.86388,3.80638 -0.21312,0.11915 0.009,-0.48824 0.0153,-0.73231 0.008,-0.31131 0.0193,-0.62254 0.029,-0.93381 0.0843,-3.2627 0.79481,-6.44463 1.69831,-9.56534 1.21322,-4.06315 3.61102,-7.4186 6.53985,-10.40904 3.16609,-2.94896 6.55666,-7.19164 11.16323,-8.03975 0.26791,0.0452 0.55471,0.0269 0.80373,0.13559 1.79267,0.78219 1.82808,4.73728 1.99473,6.29316 0.41918,5.52954 1.39936,10.98222 2.63041,16.38177 0.67326,3.31309 1.99571,6.55963 2.01024,9.97666 -0.20666,1.0989 -0.36612,1.03756 -1.48694,1.39104 0,0 0.0867,-0.0745 0.0867,-0.0745 l 0,0 c -0.51858,0.75668 -0.77049,2.00536 -1.67192,1.43974 -1.73073,-2.7262 -1.93868,-6.18023 -2.89968,-9.19348 -1.22833,-5.43317 -2.20813,-10.91769 -2.61699,-16.48061 -0.1273,-1.37365 -0.1067,-4.30983 -1.01334,-5.4836 -0.34113,-0.44164 -0.61384,-0.34328 -1.11442,-0.37587 -1.64068,0.42412 -3.0689,1.24516 -4.44575,2.22897 -0.48532,0.34678 -1.72014,1.60447 -1.41986,1.08908 0.52562,-0.90216 1.41715,-1.53375 2.12573,-2.30062 -2.93839,2.88237 -5.35631,6.1152 -6.57514,10.109 -0.91046,3.05471 -1.61196,6.17529 -1.68802,9.37698 -0.007,0.30664 -0.0142,0.61327 -0.0199,0.91993 -0.005,0.24494 0.14604,0.54662 -0.0107,0.73486 -3.95871,4.75323 -3.80399,5.94512 -4.27602,3.25406 -0.62824,-3.77439 -1.3371,-7.53402 -2.10447,-11.28281 -1.44431,-7.36532 -2.91766,-14.73084 -3.93124,-22.17106 -0.68933,-5.36658 -1.23633,-10.74661 -1.75551,-16.13189 0,0 3.28029,-2.87457 3.28029,-2.87457 z"
         inkscape:connector-curvature="0"
         transform="translate(8.2085357,290.90713)" />
      <path
         style="fill:#000080;fill-opacity:1;fill-rule:nonzero;stroke:none"
         id="path4446"
         d="m 235.34289,237.80628 c -0.77973,-4.62713 -1.00714,-9.31264 -1.00755,-13.99687 0.17251,-3.2 0.12895,-6.48346 0.98125,-9.60275 1.21876,-4.46042 0.53912,-0.51317 1.05781,-4.07568 0,0 0.087,-0.0742 0.087,-0.0742 l 0,0 c 0.62194,3.33075 -0.31274,-0.70159 0.98156,2.34225 1.05378,2.47819 0.33889,5.45136 0.82869,8.02743 0.28962,4.54961 0.54493,9.11839 1.31192,13.61785 0,0 -4.24063,3.762 -4.24063,3.762 z"
         inkscape:connector-curvature="0"
         transform="translate(8.2085357,290.90713)" />
      <path
         style="fill:#000080;fill-opacity:1;fill-rule:nonzero;stroke:none"
         id="path4448"
         d="m 232.64564,203.40442 c 0.0974,-2.26787 -0.27576,-4.79235 0.63407,-6.95202 0.21365,-0.50714 0.54644,-0.95539 0.81966,-1.43309 0.33493,-0.39527 0.66986,-0.79055 1.0048,-1.18582 0,0 0.0894,-0.0713 0.0894,-0.0713 l 0,0 c 0.21982,-0.065 0.43963,-0.12994 0.65944,-0.1949 0.18696,0.0828 0.44711,0.0786 0.56088,0.24846 0.63656,0.95061 0.19846,4.76304 0.39032,6.02982 0,0 -4.15854,3.55884 -4.15854,3.55884 z"
         inkscape:connector-curvature="0"
         transform="translate(8.2085357,290.90713)" />
      <path
         style="fill:#000080;fill-opacity:1;fill-rule:nonzero;stroke:none"
         id="path4450"
         d="m 248.17641,206.43285 c 2.47493,5.70517 4.4109,11.62695 6.49306,17.48253 1.89621,5.46657 3.9612,10.87024 6.27672,16.17283 0.17163,0.35173 0.33348,0.7084 0.51487,1.05519 0.16172,0.30915 0.28215,0.89687 0.62616,0.83873 0.0954,-0.0161 0.18804,-0.33057 0.11573,-0.26626 -3.60833,3.20895 -4.62438,4.90281 -3.24003,2.75841 1.23854,-2.52342 2.25838,-5.15089 3.32872,-7.74932 1.56045,-3.58749 2.43437,-7.39834 3.22926,-11.21187 0.95688,-5.20274 2.06692,-10.36764 3.57957,-15.4381 0.7493,-1.87314 1.6941,-5.64336 3.49001,-6.87985 0.46135,-0.31764 1.00421,-0.49649 1.50631,-0.74474 0,0 -0.0801,0.0815 -0.0801,0.0815 l 0,0 c 0.33562,-0.38779 0.63881,-0.80622 1.00686,-1.16338 0.18746,-0.1819 -0.0666,0.52198 -0.15278,0.76858 -0.53149,1.52167 -1.11256,3.02653 -1.58674,4.5681 -1.473,5.01272 -2.53889,10.11914 -3.44021,15.26418 -0.77006,3.8303 -1.59383,7.66937 -3.14161,11.27628 -1.06912,2.6129 -2.13323,5.23013 -3.2898,7.80557 -0.92322,1.89946 -4.1436,6.6204 -5.62024,4.55085 -0.31737,-0.44479 -0.66436,-1.37838 -0.84617,-1.81215 -2.19258,-5.41597 -4.15769,-10.91971 -6.01677,-16.45858 -1.97005,-5.87248 -3.82804,-11.81574 -6.42851,-17.44746 0,0 3.67571,-3.45109 3.67571,-3.45109 z"
         inkscape:connector-curvature="0"
         transform="translate(8.2085357,290.90713)" />
      <path
         style="fill:#000080;fill-opacity:1;fill-rule:nonzero;stroke:none"
         id="path4452"
         d="m 278.19158,230.64596 c -0.002,-4.2722 0.13546,-8.54182 0.2808,-12.81092 0.19828,-3.38015 0.23532,-6.88531 1.34804,-10.12769 0.23586,-0.6873 0.55629,-1.34261 0.83444,-2.01391 0,0 0.0875,-0.0735 0.0875,-0.0735 l 0,0 c 0.20068,0.26742 0.46301,0.49821 0.60204,0.80228 0.9593,2.09799 0.48979,6.00904 0.78633,8.2883 0.14853,4.1091 0.28518,8.2188 0.2808,12.33127 0,0 -4.21999,3.6042 -4.21999,3.6042 z"
         inkscape:connector-curvature="0"
         transform="translate(8.2085357,290.90713)" />
      <path
         style="fill:#000080;fill-opacity:1;fill-rule:nonzero;stroke:none"
         id="path4454"
         d="m 282.72026,196.48855 c -0.0398,-2.60624 0.84193,-4.37721 2.06123,-6.59421 0,0 0.0885,-0.0724 0.0885,-0.0724 l 0,0 c 0.24422,0.29084 0.6443,0.43298 0.8638,0.7429 0.54088,0.76368 0.36246,1.92352 0.63315,2.77198 0,0 -3.64667,3.15172 -3.64667,3.15172 z"
         inkscape:connector-curvature="0"
         transform="translate(8.2085357,290.90713)" />
      <path
         style="fill:#000080;fill-opacity:1;fill-rule:nonzero;stroke:none"
         id="path4456"
         d="m 290.8629,209.57791 c 1.4511,2.92393 3.3987,5.46104 5.8582,7.59239 2.82144,2.1996 6.0746,3.43363 9.61733,3.72289 1.47676,-0.0228 2.92489,-0.26795 4.17726,-1.10571 0.37904,-0.25355 1.37098,-1.20272 1.03799,-0.89116 -3.02609,2.83129 -3.06343,3.30328 -1.93395,1.03397 0.95337,-3.5176 0.31608,-6.02715 -2.02339,-8.76395 -2.98187,-2.46436 -5.96548,-2.07506 -9.34385,-0.73306 0.5406,-1.29324 -3.9716,3.21926 -3.16664,2.21387 0.58686,-0.73299 1.16833,-1.62577 2.05935,-1.92204 0.62713,-0.20852 -0.80722,1.05051 -1.14559,1.61821 -0.88824,1.49025 -0.9441,1.99719 -1.46129,3.63528 -0.94961,4.38943 0.75621,8.28838 2.88182,12.02615 2.33284,3.68809 5.40106,6.76554 9.09964,9.06125 0.91634,0.99234 4.6121,1.288 5.34178,2.15527 0.14492,0.17224 0.18913,0.40853 0.2837,0.6128 0,0 -0.0726,0.0883 -0.0726,0.0883 l 0,0 c -3.3919,2.06246 -5.40777,2.68204 -9.16188,0.92357 -3.78584,-2.33441 -6.87603,-5.51195 -9.24304,-9.28604 -2.19303,-3.882 -3.89064,-7.95163 -2.96325,-12.49749 0.49763,-1.7079 0.54305,-2.21868 1.4137,-3.78731 2.04333,-3.68141 5.44018,-6.68521 9.14054,-8.62503 3.69883,-1.26662 6.54976,-1.41755 9.70752,1.19652 2.42132,2.79907 3.23817,5.41158 2.47346,9.08916 -1.26664,3.18107 -0.41614,1.53257 -4.83233,5.92028 -1.47699,1.46746 -3.62744,1.83477 -5.61155,1.88192 -3.64609,-0.34303 -6.99539,-1.60913 -9.86995,-3.92815 -2.50764,-2.26161 -4.48355,-4.86302 -5.65749,-8.06607 0,0 3.39448,-3.16586 3.39448,-3.16586 z"
         inkscape:connector-curvature="0"
         transform="translate(8.2085357,290.90713)" />
      <path
         style="fill:#000080;fill-opacity:1;fill-rule:nonzero;stroke:none"
         id="path4458"
         d="m 321.01824,233.75736 c 1.01767,-3.72805 0.76713,-7.60467 0.36903,-11.39994 -0.44074,-3.51297 -1.35739,-6.93702 -2.05628,-10.4011 -0.72096,-4.13392 0.64013,-3.77702 4.36655,-7.37563 1.57254,-0.42291 3.2361,-0.3404 4.8515,-0.37889 2.93058,-0.12526 5.8607,-0.25039 8.79316,-0.32208 1.3602,0.17941 3.91898,-0.36978 5.15105,0.24494 0.31829,0.1588 0.87232,1.02188 1.06704,1.30039 0,0 -0.0744,0.0868 -0.0744,0.0868 l 0,0 c -1.10583,0.44717 -2.17811,0.98295 -3.30903,1.36223 -1.98666,0.66627 -4.14885,0.69512 -6.2027,0.99087 -2.98093,0.23346 -5.9682,0.38143 -8.95598,0.49533 -1.52715,0.0523 -3.22574,-0.089 -4.62967,0.59984 1.16252,-1.19186 2.33651,-2.37264 3.48756,-3.57557 0.10101,-0.10556 -0.24494,0.16728 -0.33576,0.28173 -0.60149,0.75803 -0.32229,1.93048 -0.2593,2.7873 0.61205,3.5065 1.51228,6.95751 2.0193,10.48349 0.47872,3.82459 0.7447,7.72327 -0.16458,11.51152 0,0 -4.1175,3.30875 -4.1175,3.30875 z"
         inkscape:connector-curvature="0"
         transform="translate(8.2085357,290.90713)" />
      <path
         style="fill:#000080;fill-opacity:1;fill-rule:nonzero;stroke:none"
         id="path4460"
         d="m 353.3068,200.31233 c -1.6627,3.90201 -1.66428,8.07427 -1.20014,12.21037 0.70143,4.24334 2.31904,8.23908 5.32271,11.35108 1.39157,1.12034 2.95918,1.27408 4.4333,0.17495 0.37664,-0.28083 1.37926,-1.27543 1.02004,-0.97264 -0.82582,0.69612 -1.614,1.43571 -2.421,2.15357 2.0601,-3.13054 2.78121,-6.80004 3.23531,-10.45541 0.25812,-2.54496 0.2539,-5.1116 -0.10675,-7.6445 -0.34715,-2.18301 -0.5358,-1.43546 3.43256,-3.76602 0.24162,-0.1419 -0.0743,0.55546 -0.11139,0.83319 -0.39035,4.10501 -0.18183,8.22821 0.19326,12.32405 0.5742,5.30823 1.89084,10.48938 3.41196,15.59415 0.0816,0.58572 1.49933,4.19478 0.95049,4.64419 -0.29347,0.2403 -0.63964,0.40785 -0.95946,0.61177 0,0 0.0894,-0.0713 0.0894,-0.0713 l 0,0 c -0.47255,0.6411 -0.86031,1.35437 -1.41765,1.92331 -1.10969,1.13278 -2.44683,-3.22427 -2.55706,-3.57968 -1.56248,-5.12657 -2.86144,-10.34734 -3.47109,-15.68188 -0.39347,-4.15337 -0.6432,-8.33697 -0.17442,-12.49761 0.0436,-0.29946 -0.0591,-0.66273 0.13074,-0.89837 3.12322,-3.87602 3.79068,-5.64805 4.16668,-2.65554 0.22999,2.60774 0.29921,5.23087 0.048,7.84121 -0.4145,3.67034 -1.04871,7.35804 -2.97603,10.57826 -1.44699,1.55034 -2.85287,3.1401 -4.34099,4.65102 -1.80837,1.83609 -4.08183,1.9313 -6.11866,0.43162 -3.29247,-3.26204 -4.66275,-7.24958 -5.35302,-11.77482 -0.38565,-4.25118 -0.37353,-8.57225 1.27954,-12.58877 0,0 3.4937,-2.73622 3.4937,-2.73622 z"
         inkscape:connector-curvature="0"
         transform="translate(8.2085357,290.90713)" />
      <path
         style="fill:#000080;fill-opacity:1;fill-rule:nonzero;stroke:none"
         id="path4462"
         d="m 380.38104,223.27034 c 0.91683,2.3886 1.69835,4.82443 2.64173,7.20312 1.2943,3.30229 1.53392,1.70414 -2.75345,4.8545 -1.00376,-3.0129 -1.34118,-6.18373 -1.57228,-9.33363 -0.22386,-4.62637 0.35951,-8.56587 2.65747,-12.60766 2.32772,-2.74431 5.72116,-7.6137 9.96118,-7.3498 0.43697,0.0272 0.85631,0.18295 1.28446,0.27442 0.3997,0.23165 0.8402,0.40407 1.1991,0.69497 2.7027,2.19068 3.24976,6.42242 3.9319,9.57886 0.85127,4.53485 1.42943,9.11504 1.87777,13.70549 0.13893,1.22986 -0.39874,2.31178 -0.4057,3.517 0,0 -0.0799,0.0817 -0.0799,0.0817 l 0,0 c -1.09977,0.0731 -1.88651,0.17601 -2.56164,-0.8809 -1.5091,-4.16156 -1.94052,-8.58697 -2.7682,-12.91401 -0.59974,-2.83277 -1.23551,-7.26294 -3.6688,-9.20986 -0.31488,-0.25195 -0.70591,-0.39015 -1.05887,-0.58523 -1.35313,-0.20779 -2.37153,-0.16032 -3.63083,0.47561 -0.43491,0.21963 -1.50506,1.18309 -1.23954,0.77458 0.33335,-0.51285 4.46021,-4.76129 1.28072,-1.31415 -2.5622,4.04619 -3.2776,7.83456 -3.13765,12.60683 0.18684,3.13445 0.53185,6.26492 1.45199,9.28116 -4.15872,4.47251 -2.93392,4.64411 -3.88237,1.18229 -0.66254,-2.61787 -1.42249,-5.21357 -1.92911,-7.86814 0,0 2.40207,-2.16717 2.40207,-2.16717 z"
         inkscape:connector-curvature="0"
         transform="translate(8.2085357,290.90713)" />
      <path
         style="fill:#000080;fill-opacity:1;fill-rule:nonzero;stroke:none"
         id="path4464"
         d="m 410.40462,224.49107 c 1.85775,-2.38338 2.72196,-5.16462 2.96033,-8.13639 -0.067,-2.79408 -0.77847,-4.86525 -3.28253,-6.26121 -2.44869,-0.8579 -4.59807,0.0137 -6.33944,1.77572 0.78482,-0.70064 1.44599,-1.57133 2.35446,-2.10194 0.0639,-0.0374 -0.50978,0.71265 -0.60499,1.97658 -0.0817,1.08377 0.27063,1.95396 0.71394,2.91088 1.02176,1.75577 2.64242,2.86186 4.48611,3.60906 1.63206,0.54665 3.35089,0.73249 5.02781,1.09089 1.74034,0.32502 3.16024,1.12415 4.45325,2.30209 2.55659,2.78348 3.94512,6.37687 5.31373,9.83961 2.26084,6.00279 3.84829,12.2175 4.79499,18.55504 0.35311,3.73608 0.36363,7.66265 -1.44669,11.07354 -1.63513,3.08079 -4.621,5.28817 -7.01677,7.63964 -4.84521,3.26376 -10.59819,4.90947 -16.41242,5.22048 -1.16394,0.0623 -2.33121,-0.002 -3.49682,-0.004 -4.53621,-0.31124 -9.27766,-1.36268 -12.49395,-4.83653 -0.47356,-0.51149 -0.84219,-1.11096 -1.26329,-1.66644 -0.98227,-1.90959 -2.31754,-4.37863 -1.5838,-6.62628 0.22963,-0.70339 0.67399,-1.31746 1.01099,-1.97619 0,0 0.0861,-0.0753 0.0861,-0.0753 l 0,0 c 0.41461,-0.008 0.86552,-0.19432 1.24383,-0.0245 0.94202,0.42293 1.7908,4.5127 2.80659,5.22502 0.41647,0.51794 0.78944,1.07409 1.2494,1.55382 3.17307,3.30946 7.73872,4.34375 12.14835,4.67207 1.15181,-0.009 2.30577,0.0428 3.45544,-0.0281 5.76709,-0.3555 11.45168,-2.03619 16.16908,-5.42151 -0.45056,0.51571 -1.58448,2.19116 -1.35169,1.54713 0.30071,-0.83191 1.12468,-1.37571 1.56669,-2.14195 1.91085,-3.31242 1.96354,-7.21198 1.66073,-10.90689 -0.86634,-6.33022 -2.39993,-12.5479 -4.64622,-18.5368 -1.34013,-3.39771 -2.67392,-6.92981 -5.17356,-9.67003 -1.23605,-1.11785 -2.61184,-1.84633 -4.27721,-2.11324 -1.69756,-0.33102 -3.4491,-0.52398 -5.044,-1.23094 -1.86558,-0.92921 -3.48164,-2.18138 -4.53849,-4.0195 -2.08267,-4.46063 -0.068,-5.75069 3.33776,-9.29309 1.9393,-1.67572 4.22496,-2.34155 6.69345,-1.35764 2.60177,1.54369 3.50423,3.62971 3.57589,6.62859 -0.23287,3.21886 -1.30156,6.16487 -3.32052,8.71794 0,0 -2.81648,2.09007 -2.81648,2.09007 z"
         inkscape:connector-curvature="0"
         transform="translate(8.2085357,290.90713)" />
    </g>
    <g
       id="g4983"
       transform="translate(-28.850841,-16.766939)">
      <path
         transform="translate(0,284.36218)"
         inkscape:connector-curvature="0"
         d="m 418.0622,519.06081 c 3.12542,4.42428 5.48345,9.29348 7.55693,14.27819 3.23431,7.7235 4.16564,15.94537 4.34633,24.23365 -0.006,10.26997 -2.90825,19.63467 -7.18251,28.85057 -4.40489,8.57631 -10.42366,16.14503 -16.66304,23.43862 -5.52437,6.12136 -11.10549,12.29836 -17.84048,17.10678 -3.57977,2.37299 -7.21667,4.65593 -10.74733,7.10264 -1.9761,0.92758 -6.63457,5.80892 -0.73724,-0.44794 0,0 -0.10238,0.12513 -0.10238,0.12513 l 0,0 c 0.43466,-0.87846 0.82268,-1.78159 1.30399,-2.63538 0.70133,-1.24409 3.10584,-1.95214 4.02604,-2.98877 3.53859,-2.40141 7.16557,-4.66701 10.70094,-7.07281 1.56681,-1.15165 2.10686,-1.50345 3.5983,-2.78704 0.65206,-0.56118 2.45791,-2.39803 1.91356,-1.73185 -0.88956,1.08863 -1.92086,2.05706 -2.95632,3.00797 -1.81306,1.66502 7.41292,-7.41643 5.04012,-5.39743 6.3015,-7.28292 12.38201,-14.84111 16.90957,-23.38639 4.53301,-9.34568 7.43402,-18.32882 7.64681,-28.82578 -0.0276,-8.25511 -0.8913,-16.45116 -4.03993,-24.16866 -2.06107,-4.95181 -4.39158,-9.78334 -7.41,-14.23484 0,0 4.63664,-4.46666 4.63664,-4.46666 z"
         id="path4613"
         style="fill:#000000;fill-opacity:1;fill-rule:nonzero;stroke:none" />
      <path
         inkscape:connector-curvature="0"
         d="m 441.9511,815.43467 c -4.2475,-3.44754 -8.39966,-7.01136 -12.55572,-10.56813 -3.67605,-3.16143 -7.3963,-6.29679 -11.5601,-8.80054 -2.85795,-1.6159 -4.33215,-1.33929 -6.84324,0.63565 -3.61088,3.51844 -5.95148,8.05332 -8.15218,12.52682 -1.91082,3.99909 -3.33186,8.202 -4.77695,12.3842 -0.84673,1.90261 -0.67396,3.7285 -2.73331,1.74801 -0.33421,-0.48313 -0.66842,-0.96625 -1.00262,-1.44938 0,0 -0.0659,-0.14766 -0.0659,-0.14766 l 0,0 c -0.21667,-0.40003 -0.43336,-0.80008 -0.65003,-1.20012 -1.15581,-2.04421 -0.78549,-3.21245 0.007,-5.37918 1.45655,-4.19355 2.95713,-8.38322 4.90518,-12.37926 2.31839,-4.50739 4.81948,-9.03764 8.53662,-12.56013 2.72592,-2.07212 4.6093,-2.64047 7.73065,-0.87447 4.24623,2.58748 8.04839,5.80549 11.80148,9.05245 4.14974,3.56368 8.29849,7.13039 12.53224,10.59424 0,0 2.82667,6.4175 2.82667,6.4175 z"
         id="path4615"
         style="fill:#000000;fill-opacity:1;fill-rule:nonzero;stroke:none" />
      <g
         id="g4217"
         transform="translate(-33.491729,-15.970274)">
        <path
           transform="translate(28.850841,301.12912)"
           inkscape:connector-curvature="0"
           d="m 204.30662,186.13763 c 1.70071,2.66852 3.18189,5.46656 4.56642,8.30929 1.68646,3.49254 3.05918,7.11965 4.34652,10.77411 1.42675,4.27348 2.78961,8.56734 4.24558,12.83114 1.90057,5.60809 4.09203,11.10969 6.36415,16.57563 2.39114,5.62967 4.90368,11.20612 7.16023,16.89189 1.47259,3.70646 2.6014,7.53241 3.53866,11.40501 0.30961,1.1571 0.46421,2.35451 0.79543,3.50604 -0.0306,0.38575 -2.11563,1.96073 -4.26037,3.29907 -0.17539,0.10945 -0.0303,-0.41236 -0.048,-0.61833 -0.0242,-0.28187 -0.0519,-0.56343 -0.0779,-0.84515 -0.0328,-0.38496 -0.0656,-0.76991 -0.0983,-1.15487 -0.41013,-4.81973 -0.41771,-9.65782 -0.3089,-14.48956 0.2071,-6.47781 0.97632,-12.92009 2.16607,-19.28668 0.55285,-2.63042 1.13086,-5.2887 2.24344,-7.74861 3.75504,-6.83055 4.93225,-4.62381 6.95483,-0.83505 2.82286,5.82441 5.38664,11.76905 8.13649,17.62821 3.19215,6.60905 6.47788,13.1737 9.84243,19.69669 1.03131,1.9723 2.06515,3.94413 3.15842,5.88309 0.44933,0.79691 0.86578,1.61372 1.49652,2.28073 1.29615,-1.56057 -1.28062,1.5592 -3.65002,3.22586 -0.29455,0.20719 0.29099,-0.66106 0.39201,-1.00671 0.65334,-2.23556 0.857,-4.6155 1.15396,-6.91259 0.91068,-8.41185 1.39989,-16.86194 1.94926,-25.30301 0.44361,-7.09477 0.91743,-14.1875 1.42604,-21.27789 0.35298,-4.85613 0.75896,-9.7112 1.47371,-14.52893 0.4887,-3.33648 1.2308,-4.63749 4.74071,-6.4141 0.2904,-0.14699 -0.0873,0.64509 -0.13089,0.96763 -1.11306,2.02279 -0.95546,1.08227 -0.96943,2.69165 0,0 -0.087,0.0742 -0.087,0.0742 l 0,0 c -0.005,-1.31828 0.30402,-0.98064 -1.14562,-0.75568 -1.95239,-0.38524 -0.73074,-5.1e-4 2.64987,-3.30487 0.20691,-0.20223 -0.19088,0.54754 -0.25495,0.82968 -0.23547,1.03696 -0.24941,1.17025 -0.47134,2.32584 -0.77866,4.81539 -1.19484,9.67756 -1.55762,14.53986 -0.52368,7.1046 -1.02221,14.21098 -1.48204,21.32004 -0.55975,8.43011 -1.04553,16.86816 -1.87023,25.27774 -0.29773,2.54522 -0.88371,13.95648 -6.20529,12.25441 -2.04541,-2.29723 -2.98775,-5.83568 -4.6254,-8.40357 -3.28116,-6.58685 -6.57123,-13.17014 -9.75036,-19.80699 -2.7193,-5.85937 -5.28732,-11.78982 -8.13124,-17.59002 -0.47913,-0.87643 -0.82229,-1.58455 -1.38911,-2.37853 -0.11701,-0.16391 -0.23798,-0.33074 -0.39414,-0.4579 -0.0603,-0.0492 -0.27999,0.009 -0.22831,-0.049 1.13139,-1.27387 2.34789,-2.46977 3.54343,-3.68364 0.0908,-0.0922 -0.15073,0.21029 -0.2261,0.31544 -1.1707,2.43001 -1.80727,5.0708 -2.39022,7.69238 -1.23932,6.33915 -2.07863,12.75699 -2.23374,19.22195 -0.0606,4.77051 0.003,9.54276 0.44168,14.29728 0.39228,4.18716 0.91511,2.13009 -3.91195,6.97447 -0.0529,0.053 -0.10843,-0.21739 -0.0837,-0.20845 -0.12633,-1.21623 -0.40091,-2.41071 -0.6442,-3.60723 -0.88599,-3.87457 -1.98631,-7.69824 -3.41815,-11.40959 -2.22445,-5.70668 -4.7093,-11.30326 -7.08812,-16.94639 -2.25164,-5.49628 -4.42089,-11.02747 -6.32901,-16.65398 -1.44138,-4.29333 -2.76986,-8.6212 -4.12239,-12.94309 -1.20637,-3.6956 -2.50556,-7.36443 -4.12055,-10.90476 -1.33171,-2.86695 -2.74069,-5.70145 -4.38853,-8.40251 0,0 3.30717,-3.16168 3.30717,-3.16168 z"
           id="path4109"
           style="fill:#008000;fill-opacity:1;fill-rule:nonzero;stroke:none" />
        <path
           transform="translate(28.850841,301.12912)"
           inkscape:connector-curvature="0"
           d="m 289.64586,230.64433 c 0.90864,5.44387 2.25151,10.79383 3.71654,16.11022 1.81073,6.43455 3.99628,12.74804 6.47313,18.95387 1.17725,2.65724 2.21395,5.45778 4.00146,7.78352 0.72455,0.72203 0.63974,0.33663 0.15528,0.78646 -2.14276,1.98956 -2.63908,3.07574 -1.29953,0.79074 0,0 0.0861,-0.0753 0.0861,-0.0753 l 0,0 c 0.29207,-0.0228 1.00481,-0.3317 0.8762,-0.0685 -0.28399,0.58122 -2.04946,3.291 -3.18979,3.09397 -0.24912,-0.043 -0.56065,-0.42583 -0.69856,-0.5661 -1.79827,-2.39311 -2.84239,-5.2505 -4.02461,-7.97244 -2.46033,-6.24832 -4.70372,-12.58724 -6.42579,-19.08322 -1.40647,-5.40874 -2.75147,-10.84974 -3.48659,-16.39776 0,0 3.81621,-3.35551 3.81621,-3.35551 z"
           id="path4111"
           style="fill:#008000;fill-opacity:1;fill-rule:nonzero;stroke:none" />
        <path
           transform="translate(28.850841,301.12912)"
           inkscape:connector-curvature="0"
           d="m 287.30009,216.90895 c 1.94326,-2.07596 5.33595,-6.42519 8.78776,-4.03154 0.3166,0.21955 0.55673,0.53274 0.83509,0.7991 1.53515,2.6088 0.36491,5.34685 -1.19797,7.62577 -2.40551,2.60268 -5.60747,7.31396 -9.76533,5.04532 -0.44268,-0.24154 -0.82066,-0.5863 -1.23099,-0.87945 -1.64669,-1.68154 -3.57766,-4.20403 -2.84987,-6.75407 0.14303,-0.50115 0.45075,-0.93981 0.67613,-1.40971 0.26942,-0.32802 0.53884,-0.65604 0.80826,-0.98406 0,0 0.0904,-0.07 0.0904,-0.07 l 0,0 c 0.0868,0.0235 0.17353,0.0469 0.2603,0.0704 0.20889,0.0646 0.44752,0.0685 0.62666,0.19386 0.45001,0.31496 0.99154,1.28682 1.25635,1.66752 0.84839,1.21965 1.74807,2.41538 2.91872,3.34876 1.13231,0.7075 2.13308,1.33347 3.53591,1.12092 1.39497,-0.21137 2.28417,-1.19517 2.13624,-1.00741 -0.83386,1.05838 -1.86867,1.94165 -2.80301,2.91247 1.61523,-2.04853 2.99332,-4.62597 1.88263,-7.23902 -1.04851,-1.20353 -2.04685,-1.60822 -3.6426,-1.0452 -0.34957,0.12334 -1.20639,0.8045 -0.99241,0.50181 0.72292,-1.02266 1.71536,-1.8252 2.57304,-2.7378 0,0 -3.9053,2.87234 -3.9053,2.87234 z"
           id="path4113"
           style="fill:#008000;fill-opacity:1;fill-rule:nonzero;stroke:none" />
        <path
           transform="translate(28.850841,301.12912)"
           inkscape:connector-curvature="0"
           d="m 316.22014,243.25638 c 3.02663,1.40651 6.19277,2.31515 9.49116,2.76877 3.47771,0.3864 6.67018,-0.48332 9.65737,-2.20837 0.42101,-0.32772 1.61596,-1.38328 1.26304,-0.98315 -0.87841,0.99592 -1.81254,1.95484 -2.85057,2.78306 -0.40871,0.3261 0.66531,-0.81107 0.93808,-1.25714 0.93462,-1.52839 1.11371,-2.97674 1.20365,-4.72372 -0.36168,-3.32901 -1.69551,-6.8459 -4.42475,-8.97763 -0.49792,-0.38891 -1.08702,-0.64428 -1.63053,-0.96643 -0.6022,-0.14519 -1.18958,-0.38068 -1.8066,-0.43557 -3.97036,-0.35317 -7.39475,2.52375 -10.17966,4.92411 0.68988,-0.64283 1.20106,-2.29558 2.06962,-1.92849 0.81783,0.34565 -1.11933,1.38222 -1.60767,2.12373 -0.48819,0.74128 -0.93207,1.51462 -1.3156,2.31507 -1.23534,2.57815 -1.60493,5.09454 -1.8594,7.90422 0.0117,6.49453 2.20264,11.38257 5.79865,16.64044 2.58334,3.24474 5.84935,6.18744 10.11845,6.7757 0.69419,0.0957 1.40025,0.059 2.10038,0.0885 2.52431,-0.0251 4.81363,-1.1315 7.22918,-1.67595 0.38753,-0.0873 0.77661,-0.21496 1.17376,-0.20629 0.25101,0.005 0.47427,0.16498 0.7114,0.24747 0.23012,0.0658 0.46023,0.13165 0.69034,0.19747 0,0 -0.0712,0.0895 -0.0712,0.0895 l 0,0 c -0.56155,0.35448 -1.1231,0.70895 -1.68465,1.06342 -3.55304,2.42755 -7.29163,4.44967 -11.71148,4.52286 -0.72514,-0.0531 -1.45823,-0.0398 -2.17542,-0.15924 -4.36632,-0.72747 -7.71896,-3.74019 -10.38015,-7.08902 -3.66405,-5.33417 -5.93908,-10.32179 -6.06047,-16.91412 0.0662,-0.94325 0.0688,-1.89316 0.19876,-2.82976 0.92529,-6.66882 5.22428,-11.21272 10.06723,-15.6141 3.57022,-2.91586 7.64118,-5.69826 12.3987,-3.92618 0.57146,0.35475 1.18871,0.64463 1.71437,1.06426 2.79133,2.22828 4.28959,5.74969 4.85872,9.17761 0.004,1.51988 0.12053,1.98679 -0.31505,3.43943 -1.13244,3.77659 -4.87374,6.57589 -7.89618,8.78846 -3.09459,1.62953 -6.37611,2.41573 -9.88891,1.91215 -3.26269,-0.55744 -6.41658,-1.54448 -9.27853,-3.24771 0,0 3.45393,-3.68336 3.45393,-3.68336 z"
           id="path4115"
           style="fill:#008000;fill-opacity:1;fill-rule:nonzero;stroke:none" />
        <path
           inkscape:connector-curvature="0"
           d="m 412.24487,482.48174 c 1.85731,7.85697 3.52061,15.75838 5.19279,23.65637 2.40759,11.55347 4.7981,23.1107 7.14579,34.67651 1.42218,6.95692 2.68065,13.94829 3.56334,20.99505 0.1568,1.31062 0.27778,2.62494 0.40123,3.93893 0.0161,0.1713 0.22827,0.82289 -0.0533,0.7907 -5.79865,4.29806 -3.19985,2.79431 -2.00978,0.85726 0.2209,-0.35954 0.27836,-0.79673 0.41753,-1.1951 0,0 0.0901,-0.0703 0.0901,-0.0703 l 0,0 c 0.0547,0.25001 -0.0582,0.62348 0.16422,0.75005 1.4908,0.84822 7.24967,-6.15322 -2.67742,3.42116 -0.0819,-0.0412 -0.19421,-0.0478 -0.24581,-0.1236 -0.35539,-0.52202 0.0179,-4.39014 -0.4111,-4.81969 -0.79651,-7.07229 -2.01753,-14.0863 -3.41066,-21.06417 -2.30315,-11.57577 -4.6767,-23.1379 -7.12709,-34.68339 -1.70374,-7.88643 -3.5109,-15.74925 -5.20612,-23.63718 0,0 4.1663,-3.49258 4.1663,-3.49258 z"
           id="path4117"
           style="fill:#008000;fill-opacity:1;fill-rule:nonzero;stroke:none" />
        <path
           inkscape:connector-curvature="0"
           d="m 446.26511,516.64535 c -3.34234,3.46312 -6.23434,7.32092 -9.08696,11.18681 -2.77931,3.80321 -5.35388,7.75067 -7.68089,11.84559 -0.70797,1.34763 -1.49086,2.68167 -1.97063,4.13441 -0.0366,0.41401 -0.32158,-0.0884 0.0468,-0.11426 1.59993,0.0355 3.15675,0.55154 4.67188,1.02011 4.20947,1.38883 8.20891,3.32052 12.12891,5.37071 5.09795,2.74821 9.77957,6.16554 14.30587,9.75784 1.27815,1.23414 4.93379,3.80068 5.16834,5.7705 0.0359,0.30137 -0.0911,0.60014 -0.13664,0.9002 -0.24791,0.35513 -0.49583,0.71026 -0.74375,1.0654 0,0 -0.0863,0.075 -0.0863,0.075 l 0,0 c -0.32432,0.17514 -0.64864,0.35028 -0.97297,0.52542 -0.28273,0.0208 -0.56809,0.10624 -0.84823,0.0626 -2.04523,-0.31823 -4.74637,-3.43529 -6.40379,-4.53484 -4.48454,-3.58869 -9.13913,-6.98497 -14.22274,-9.68807 -3.90976,-2.0168 -7.90145,-3.88647 -12.08321,-5.27648 -1.46949,-0.4626 -2.96604,-0.96505 -4.52591,-0.9443 -0.48664,-0.0456 -0.74622,-0.4254 -0.49711,-0.86387 0.60612,-1.49895 1.32919,-2.94545 2.126,-4.35238 2.37505,-4.12583 4.95976,-8.12725 7.76506,-11.97502 2.87187,-3.90006 5.78489,-7.78828 9.12985,-11.30174 0,0 3.9164,-2.66369 3.9164,-2.66369 z"
           id="path4119"
           style="fill:#008000;fill-opacity:1;fill-rule:nonzero;stroke:none" />
        <path
           inkscape:connector-curvature="0"
           d="m 477.85527,544.93417 c 1.16198,-2.99484 1.23128,-6.15023 0.96689,-9.30524 -0.44573,-3.71176 -1.61624,-6.85406 -4.09686,-9.65891 -2.86071,-2.4969 -5.61996,-2.4084 -9.05942,-1.32125 -1.49032,0.70066 -1.86523,0.79244 -3.21453,1.7709 -0.5136,0.37244 -1.92998,1.64575 -1.47106,1.20769 4.47469,-4.27123 2.19118,-2.00224 1.30384,-0.61843 -0.35758,0.55766 -0.63395,1.16341 -0.95093,1.74513 -2.11203,4.80012 -1.52825,9.88087 -0.50971,14.85896 1.27032,5.10246 3.34224,9.97149 6.71462,14.0284 1.97823,1.97413 4.51552,2.81728 7.02125,1.2076 0.49173,-0.31589 0.90519,-0.73959 1.35778,-1.10939 -0.92004,0.76709 -1.61114,1.96254 -2.76011,2.30128 -0.69732,0.20559 0.83087,-1.19665 1.17868,-1.83505 1.67657,-3.07725 2.28495,-6.45834 2.81235,-9.87616 0.52695,-4.37187 0.47314,-8.78091 0.38066,-13.17437 -0.0752,-3.11093 -0.64694,-2.89783 4.30528,-4.93047 0.32473,-0.13328 0.12907,0.69008 0.19905,1.03405 0.10051,0.49409 0.20829,0.98667 0.31244,1.48 0.97589,4.65658 2.50686,9.15862 4.31509,13.55045 1.2604,3.27363 3.29461,6.06244 5.43597,8.79179 0.63282,1.08004 2.38497,2.40397 2.22293,3.83677 -0.0628,0.55572 -0.36795,1.05628 -0.55192,1.58443 0,0 -0.0833,0.0782 -0.0833,0.0782 l 0,0 c -0.54968,0.16449 -1.07759,0.44198 -1.64904,0.49346 -1.50322,0.13542 -2.89881,-1.48304 -3.97058,-2.25697 -2.47032,-2.54185 -4.23711,-5.61611 -5.62347,-8.86777 -1.81903,-4.41642 -3.38978,-8.93893 -4.40179,-13.61514 -0.0998,-0.50143 -0.20356,-1.0021 -0.29945,-1.5043 -0.0669,-0.35046 -0.40719,-0.77131 -0.18894,-1.05356 4.89908,-6.33605 4.07212,-5.27187 4.27272,-2.07698 0.0945,4.42584 0.0757,8.86495 -0.35988,13.27418 -0.47081,3.42562 -1.01413,6.84486 -2.57272,9.97706 -0.3279,0.65895 -0.62163,1.35959 -1.11468,1.90606 -1.68042,1.86252 -3.57721,3.51778 -5.36582,5.27666 -0.49057,0.34254 -0.9431,0.74729 -1.47168,1.02761 -2.75676,1.46197 -5.47511,0.34307 -7.52222,-1.72194 -3.4239,-4.1658 -5.49892,-9.11328 -6.76806,-14.33902 -1.06204,-5.08041 -1.67199,-10.28301 0.37104,-15.22132 0.31152,-0.60934 0.58067,-1.24228 0.93456,-1.82802 2.4576,-4.06764 6.56399,-7.35296 10.93605,-9.15047 3.61062,-0.92904 6.4258,-0.76634 9.27421,1.88645 2.49902,2.94822 3.67446,6.21666 4.08082,10.0567 0.22934,3.31736 0.078,6.63061 -1.22084,9.74453 0,0 -3.16921,2.34633 -3.16921,2.34633 z"
           id="path4121"
           style="fill:#008000;fill-opacity:1;fill-rule:nonzero;stroke:none" />
        <path
           inkscape:connector-curvature="0"
           d="m 496.57814,522.59432 c 2.5362,5.29776 4.83501,10.70708 7.13018,16.11259 2.59781,6.09386 5.13247,12.21409 7.58238,18.36885 0.79872,1.99509 1.53326,4.01527 2.32938,6.01135 -1.50286,1.03517 -2.8473,2.35033 -4.50858,3.10551 -0.29651,0.13478 -0.1623,-0.6309 -0.23856,-0.94755 -0.10388,-0.43137 -0.20533,-0.86334 -0.30182,-1.29642 -0.41203,-1.84924 -0.76964,-3.70874 -1.12386,-5.56969 -0.90438,-4.53551 -1.40936,-9.1155 -1.18388,-13.73643 0.38874,-4.76008 2.52366,-8.88089 5.27268,-12.68122 3.59118,-3.81585 7.14263,-8.58506 12.42317,-9.91046 0.36731,0.0208 0.74506,-0.0282 1.10197,0.061 2.79209,0.69798 4.23399,5.07217 5.18667,7.33906 2.44456,6.57281 4.36291,13.32681 6.32895,20.054 1.00407,4.27973 2.82512,8.42097 3.34504,12.80592 0.11329,1.15186 -0.12083,1.63258 -0.83016,2.49826 0,0 -1.42325,1.2305 -1.42325,1.2305 l 0,0 c -0.96465,0.4966 -1.09358,0.51602 -1.66038,-0.42543 -1.74862,-3.97768 -2.15787,-8.45729 -3.64754,-12.53082 -1.9403,-6.70809 -3.85292,-13.43867 -6.3194,-19.97669 -0.80398,-1.89223 -2.29282,-6.42583 -4.7938,-6.81164 -0.3216,-0.0496 -0.65025,0.0269 -0.97537,0.0405 -1.14146,0.36423 -1.24138,0.33069 -2.34059,0.98283 -0.47002,0.27886 -1.68545,1.35295 -1.36249,0.91205 0.72037,-0.98345 1.76673,-1.68318 2.58755,-2.58449 0.97574,-1.07142 -4.34817,4.13881 -3.04356,3.10433 -2.79146,3.69674 -4.99171,7.72262 -5.46218,12.41733 -0.28789,4.58221 0.19526,9.12682 1.10256,13.62564 0.43953,2.27638 0.8869,4.55061 1.45038,6.80024 0.077,0.30748 0.43092,0.66708 0.24003,0.92013 -1.19862,1.58889 -2.77535,2.85348 -4.16303,4.28022 -0.52048,-2.08559 -1.58791,-4.028 -2.19375,-6.08565 -2.36602,-6.20899 -4.85219,-12.37107 -7.39952,-18.50782 -2.27014,-5.4391 -4.54027,-10.87826 -6.91573,-16.27252 0,0 3.80651,-3.33342 3.80651,-3.33342 z"
           id="path4123"
           style="fill:#008000;fill-opacity:1;fill-rule:nonzero;stroke:none" />
        <path
           inkscape:connector-curvature="0"
           d="m 543.22033,520.21372 c 2.06722,6.33432 4.19768,12.64713 6.37747,18.94359 2.29097,6.50152 4.58001,13.00312 6.75753,19.54366 0.8617,2.55643 1.61489,5.14751 2.45246,7.71157 0.7707,2.32344 0.5486,0.1994 -4.04496,3.9438 -0.23736,-2.63418 -0.68371,-5.25111 -1.03225,-7.87406 -0.76103,-5.01076 -0.78754,-10.04107 -0.17866,-15.06132 0.70283,-5.03814 2.74299,-9.61463 5.46896,-13.85521 1.09877,-1.58783 2.34154,-3.07192 3.77613,-4.36739 2.84428,-2.56848 4.02772,-4.73006 7.35878,-5.28374 0.36826,0.0761 0.75674,0.0858 1.10477,0.22824 3.01912,1.23509 4.6643,5.91856 5.83619,8.61246 2.57706,6.58783 4.55905,13.3882 6.28657,20.24174 1.16299,4.62237 1.82265,9.34211 2.20872,14.08607 -0.0931,1.21415 0.4216,2.61761 0.0151,3.81512 -0.12694,0.37397 -0.63278,0.98188 -0.82003,1.23351 0.0525,0.0215 0.10501,0.0431 0.15751,0.0646 0,0 -0.0724,0.0885 -0.0724,0.0885 l 0,0 c -0.25499,0.20046 -0.50998,0.40093 -0.76497,0.6014 -0.39643,0.25699 -0.7597,0.57434 -1.18926,0.771 -1.55825,0.71335 -1.39053,-2.4012 -1.57768,-3.09827 -0.55134,-4.69135 -1.02176,-9.40327 -2.19398,-13.99388 -1.68816,-6.83569 -3.65257,-13.61439 -6.22637,-20.17491 -0.98175,-2.3001 -2.70835,-7.32205 -5.43967,-8.2196 -0.3031,-0.0996 -0.63514,-0.0614 -0.95271,-0.0921 -2.57643,0.71382 -3.44447,2.51693 0.82218,-1.95592 0.39045,-0.40932 -0.85079,0.74712 -1.2488,1.14909 -1.22937,1.24162 -1.54995,1.74139 -2.6497,3.14823 -2.78244,4.16474 -4.88449,8.67306 -5.63809,13.67294 -0.63543,4.96006 -0.63788,9.93458 0.17238,14.88403 0.37127,2.61709 0.82712,5.22014 1.21819,7.83334 -3.78641,3.9241 -3.88272,6.13788 -4.60272,3.176 -0.69817,-2.62306 -1.50831,-5.21551 -2.31749,-7.80587 -2.12171,-6.58308 -4.3648,-13.12518 -6.60056,-19.67019 -2.1233,-6.35706 -4.20072,-12.72964 -6.15706,-19.14034 0,0 3.6944,-3.15613 3.6944,-3.15613 z"
           id="path4125"
           style="fill:#008000;fill-opacity:1;fill-rule:nonzero;stroke:none" />
        <path
           inkscape:connector-curvature="0"
           d="m 615.65457,521.44444 c -0.38355,5.58035 -0.0537,11.16715 0.39894,16.73107 0.60957,6.73464 1.75821,13.41177 3.70228,19.89014 1.11184,3.20272 2.14582,5.60042 5.29133,7.10672 1.77363,0.77407 3.73667,0.61028 5.58584,1.00372 0.79797,0.38462 0.2285,0.88893 -0.15079,1.44815 0,0 -0.59381,0.69235 -0.59381,0.69235 l 0,0 c -0.85447,0.76582 -1.57708,1.46633 -2.74093,1.68713 -2.06812,0.29369 -4.15175,-0.0825 -6.09459,-0.82975 -3.24494,-1.67533 -4.39996,-4.10668 -5.54634,-7.49672 -1.94643,-6.5588 -3.012,-13.32671 -3.58359,-20.14063 -0.40108,-5.66184 -0.70918,-11.35201 -0.17471,-17.01779 0,0 3.90637,-3.07439 3.90637,-3.07439 z"
           id="path4127"
           style="fill:#008000;fill-opacity:1;fill-rule:nonzero;stroke:none" />
        <path
           inkscape:connector-curvature="0"
           d="m 611.81474,515.84706 c -2.74355,-0.82266 -4.9324,-2.4075 -6.54725,-4.74833 -1.05081,-1.92136 -1.10826,-3.82076 0.16864,-5.60448 4.08681,-4.04299 4.80705,-5.31291 9.83842,-4.48485 2.42853,0.48835 4.62661,1.50173 6.39592,3.23759 1.52113,1.942 1.34423,3.53757 0.0778,5.53607 -3.0958,3.38171 -5.62893,6.52578 -10.23304,5.87266 -2.72892,-1.07102 -2.52972,-2.06609 -1.60195,-4.58341 0,0 0.0853,-0.0761 0.0853,-0.0761 l 0,0 c 0.48396,-0.0798 0.96183,-0.21875 1.45189,-0.23941 1.32648,-0.0559 2.48063,0.84904 3.80395,0.86357 1.1165,0.043 2.0933,-0.002 3.1493,-0.42658 0.35376,-0.14238 1.2618,-0.80912 1.02319,-0.51168 -1.02737,1.28067 -4.74036,4.53496 -2.19664,2.28478 1.25229,-1.58676 1.86361,-3.25082 0.47627,-4.99294 -1.66882,-1.6611 -3.81273,-2.57896 -6.10736,-3.04966 -1.40856,-0.21027 -2.82325,-0.36547 -4.17994,0.20221 -0.27115,0.11347 -0.97053,0.64153 -0.77352,0.42339 1.0003,-1.10756 2.14,-2.08075 3.20999,-3.12114 -1.4294,1.49368 -1.58153,3.29146 -0.69104,5.1611 1.40651,2.3171 3.48535,3.82151 6.00258,4.81272 0,0 -3.35253,3.44447 -3.35253,3.44447 z"
           id="path4129"
           style="fill:#008000;fill-opacity:1;fill-rule:nonzero;stroke:none" />
        <path
           inkscape:connector-curvature="0"
           d="m 650.52424,529.83338 c -3.28891,-0.96438 -6.65251,-1.40855 -10.07002,-1.20894 -0.56986,0.11075 -1.1495,0.17951 -1.70958,0.33222 -1.1262,0.30708 -2.12139,0.75317 -3.09669,1.39542 -0.49088,0.32326 -1.80672,1.49794 -1.39519,1.07828 0.82268,-0.83895 1.61395,-1.75971 2.63448,-2.34208 0.55404,-0.31616 -0.78395,1.0065 -1.17594,1.50976 -2.87304,4.37958 -3.24909,9.51574 -3.15517,14.60308 0.376,4.42196 1.19239,9.04207 3.8289,12.73986 0.44129,0.61893 0.98251,1.16013 1.47377,1.7402 3.98984,3.60574 7.81413,3.78704 12.8908,2.97669 2.12624,-0.42894 4.13529,-1.24721 6.17927,-1.94419 0.87064,-0.29687 1.86365,-0.77442 2.79809,-0.60052 -0.0924,0.26332 -0.18479,0.52665 -0.27719,0.78998 0,0 -0.0735,0.0876 -0.0735,0.0876 l 0,0 c -0.48265,0.42654 -0.96531,0.85308 -1.44796,1.27962 -3.27442,2.27084 -6.96054,3.7995 -10.8769,4.57376 -5.27224,0.71879 -9.21358,0.37744 -13.3006,-3.36906 -0.50984,-0.60357 -1.07023,-1.16784 -1.52951,-1.81071 -2.69376,-3.77062 -3.5758,-8.46237 -3.9952,-12.97688 -0.15422,-5.18473 0.14564,-10.42072 2.98623,-14.93989 2.22415,-3.03278 5.63739,-6.84214 9.3253,-8.18794 1.35744,-0.49537 1.82251,-0.45912 3.24963,-0.61636 3.34806,0.033 6.6426,0.60523 9.80461,1.73014 0,0 -3.06759,3.16001 -3.06759,3.16001 z"
           id="path4131"
           style="fill:#008000;fill-opacity:1;fill-rule:nonzero;stroke:none" />
        <path
           inkscape:connector-curvature="0"
           d="m 665.35344,499.36922 c 1.85227,4.70598 3.24242,9.57408 4.64718,14.42692 2.47338,8.78468 4.80123,17.60941 7.17458,26.42143 1.61489,5.90094 3.26698,11.79186 4.96898,17.6683 0.95596,3.2315 1.13839,2.25817 -3.94543,5.19955 -0.0312,0.018 -0.15391,-0.48031 -0.38049,-1.36263 -0.63441,-2.56642 -0.81787,-5.19981 -0.81977,-7.83387 0.0859,-4.233 1.73388,-8.0705 3.73672,-11.71848 1.16256,-1.88698 2.50605,-3.67172 4.13544,-5.18405 3.26428,-3.02979 4.75162,-4.93726 8.3636,-6.41385 3.85847,-0.94642 5.60186,1.47217 7.45908,4.44904 2.62888,5.1263 4.07659,10.75038 5.47519,16.30936 0.95925,3.83938 1.62934,7.73915 2.2762,11.64017 0.28177,1.66315 -0.37462,2.6793 -1.27864,4.01905 0,0 -0.083,0.0787 -0.083,0.0787 l 0,0 c -1.54865,0.80172 -2.4356,1.5694 -2.99329,-0.49404 -0.59931,-3.90966 -1.229,-7.81755 -2.17448,-11.66202 -1.36285,-5.50686 -2.78751,-11.07658 -5.39276,-16.14887 -1.7607,-2.81404 -3.26534,-5.03588 -6.89078,-3.88852 -2.66923,1.24692 -4.38306,3.25863 -0.12645,-1.04107 0.4877,-0.49264 -1.01463,0.94674 -1.48444,1.45645 -1.34839,1.46289 -1.60958,1.96489 -2.74972,3.61127 -2.03089,3.55433 -3.72401,7.30635 -3.87697,11.46853 -0.0256,2.58683 0.14136,5.17326 0.76276,7.69467 0.0627,0.24734 0.12102,0.49582 0.188,0.74202 0.051,0.18749 0.29375,0.41247 0.16591,0.55879 -4.82243,5.51922 -3.73977,5.42956 -4.66114,2.15735 -1.60389,-5.92916 -3.25057,-11.84665 -4.84956,-17.77714 -2.36304,-8.82921 -4.662,-17.67563 -7.08235,-26.48937 -1.36604,-4.90851 -2.72882,-9.82098 -4.29861,-14.66913 0,0 3.73426,-3.21848 3.73426,-3.21848 z"
           id="path4133"
           style="fill:#008000;fill-opacity:1;fill-rule:nonzero;stroke:none" />
        <path
           inkscape:connector-curvature="0"
           d="m 276.29155,635.13166 c -0.53335,-3.15601 -1.82009,-6.04394 -3.65136,-8.64577 -1.66226,-2.15793 -3.8984,-3.31781 -6.53152,-3.78285 -2.16928,-0.28561 -4.25589,0.0693 -6.24571,0.93253 0.54221,-1.11378 -3.62045,2.9125 -2.61506,1.88314 5.85085,-5.99036 2.80715,-2.83216 1.67881,-1.18321 -1.59245,2.4557 -2.02237,5.20234 -2.02533,8.06974 0.22816,4.44711 1.88053,8.5783 3.78768,12.54038 2.0292,4.03286 4.84025,7.48939 8.38354,10.2632 2.41093,1.73438 5.06227,2.53094 7.99518,2.13995 0.3647,-0.10107 0.7371,-0.17763 1.09411,-0.3032 0.72253,-0.25414 1.4612,-0.62887 2.08865,-1.0677 0.34323,-0.24005 1.26543,-1.09375 0.97739,-0.78967 -4.36741,4.61064 -3.55141,3.64734 -2.17488,1.82016 2.09348,-3.41913 1.82648,-7.33898 1.39346,-11.15851 -0.67714,-4.44356 -1.89504,-8.78022 -3.11654,-13.09856 -0.63582,-1.56435 -0.72012,-3.44199 -1.572,-4.92703 1.42399,-1.0939 2.69717,-2.41891 4.27196,-3.28169 0.25666,-0.14061 0.0831,0.5795 0.13428,0.86764 0.0713,0.40113 0.14958,0.80104 0.23302,1.19982 0.39325,1.8796 0.87535,3.73686 1.3536,5.59607 1.46811,5.6743 3.44499,11.19195 5.63511,16.62215 1.64038,3.8995 3.46508,7.75683 6.04427,11.12978 0.81737,0.99076 1.6879,1.68447 2.97758,1.3106 0.94612,-0.19726 -0.41195,1.2328 -0.47886,1.32286 0,0 0.0919,-0.068 0.0919,-0.068 l 0,0 c -0.92251,1.18744 -1.78287,2.54724 -3.23207,3.13936 -1.46796,0.13317 -2.50716,-0.64507 -3.40617,-1.76721 -2.57642,-3.44318 -4.42057,-7.34884 -6.07728,-11.30209 -2.1985,-5.4435 -4.19778,-10.96882 -5.71496,-16.64561 -0.59928,-2.25035 -1.20727,-4.5003 -1.67347,-6.78304 -0.0596,-0.29177 -0.34508,-0.63978 -0.1661,-0.87778 1.21028,-1.60938 2.75789,-2.93489 4.13684,-4.40234 0.94446,1.48986 0.93523,3.50846 1.61269,5.10295 1.20843,4.35239 2.42417,8.71715 3.15424,13.1804 0.49118,3.88293 0.83497,7.87357 -1.09609,11.44867 -2.41365,3.63374 -5.71375,7.19635 -10.11669,8.06955 -3.05321,0.24475 -5.81074,-0.64111 -8.29107,-2.46221 -3.58713,-2.84978 -6.4585,-6.36504 -8.53956,-10.46437 -1.95664,-4.01208 -3.65798,-8.19168 -3.98346,-12.69555 -0.072,-2.93172 0.26099,-5.76918 1.81438,-8.33111 2.18563,-3.4032 5.1248,-6.55081 8.78096,-8.34138 2.04819,-0.71023 4.15625,-0.92334 6.3058,-0.53613 2.7117,0.60756 5.02133,1.87927 6.73793,4.12705 1.86708,2.66081 3.17706,5.60516 3.79356,8.81237 0,0 -3.76873,3.33669 -3.76873,3.33669 z"
           id="path4135"
           style="fill:#ff6600;fill-opacity:1;fill-rule:nonzero;stroke:none" />
        <path
           inkscape:connector-curvature="0"
           d="m 315.43678,593.01878 c -1.87625,4.69495 -2.04443,9.7966 -2.23291,14.78153 -0.15785,8.3921 0.52143,16.76213 1.67015,25.06724 1.03725,6.17165 2.48315,12.38386 5.4422,17.95117 0.44513,0.83749 0.97104,1.62948 1.45656,2.44423 2.01063,3.11523 4.68299,5.33346 8.23445,6.35669 1.53473,0.65271 3.33864,-0.11069 4.84816,0.46388 0.56167,0.52159 -0.26495,1.33765 -0.54966,1.77178 0,0 -0.0716,0.0891 -0.0716,0.0891 l 0,0 c -0.79988,0.7879 -1.53364,1.63461 -2.63748,1.98595 -1.7665,0.49811 -3.61318,0.29146 -5.38232,-0.12624 -3.63802,-1.15988 -6.40654,-3.47579 -8.47176,-6.70716 -0.49239,-0.8315 -1.02516,-1.64038 -1.47717,-2.49451 -2.97633,-5.62429 -4.45652,-11.88588 -5.51232,-18.11548 -1.1675,-8.31875 -1.86194,-16.70136 -1.76597,-25.1094 0.14755,-5.14712 0.38813,-10.40931 2.43111,-15.21702 0,0 4.01855,-3.1418 4.01855,-3.1418 z"
           id="path4137"
           style="fill:#ff6600;fill-opacity:1;fill-rule:nonzero;stroke:none" />
        <path
           inkscape:connector-curvature="0"
           d="m 340.61072,594.24598 c 0.29285,5.73004 0.88196,11.43655 1.52619,17.13586 0.97388,7.8898 2.22787,15.74264 3.58778,23.57415 0.69018,4.3798 1.79593,8.6752 2.65892,13.01983 0.35252,1.92365 0.42409,2.31276 -0.85799,3.81642 0,0 -0.0723,0.0886 -0.0723,0.0886 l 0,0 c -1.57182,1.32703 -1.99239,1.52302 -2.93054,-0.41465 -1.61348,-4.10742 -2.07097,-8.54985 -2.93895,-12.84976 -1.33825,-7.84758 -2.58445,-15.71328 -3.59271,-23.6107 -0.68394,-5.82004 -1.37549,-11.68278 -1.14124,-17.55325 0,0 3.76079,-3.20651 3.76079,-3.20651 z"
           id="path4139"
           style="fill:#ff6600;fill-opacity:1;fill-rule:nonzero;stroke:none" />
        <path
           inkscape:connector-curvature="0"
           d="m 353.38089,622.91088 c -4.39175,0.23211 -8.79567,0.15126 -13.19089,0.0631 -4.61352,-0.15213 -9.22945,-0.21454 -13.83629,0.10579 -1.15388,-0.0863 -4.08113,0.76778 -5.15992,0.41363 -0.51849,-0.17022 -0.29211,-0.67125 -0.2455,-0.99795 0,0 0.0704,-0.0901 0.0704,-0.0901 l 0,0 c 2.98251,-2.63386 4.97254,-3.39055 8.95381,-3.6181 4.61211,-0.27261 9.2297,-0.19185 13.84578,-0.0451 4.37961,0.0787 8.75615,0.0372 13.13436,-0.0274 0,0 -3.57171,4.19604 -3.57171,4.19604 z"
           id="path4141"
           style="fill:#ff6600;fill-opacity:1;fill-rule:nonzero;stroke:none" />
        <path
           inkscape:connector-curvature="0"
           d="m 368.6416,633.53285 c 3.56458,0.5207 7.14177,0.54699 10.71387,0.13761 3.66699,-0.56217 7.06407,-1.94215 9.69702,-4.58199 -1.05732,0.96819 -1.98102,2.10647 -3.17196,2.90458 -0.32958,0.22088 0.36681,-0.71047 0.46972,-1.09365 0.5192,-1.93322 -0.49809,-3.50572 -1.57037,-4.99887 -2.20428,-2.34471 -5.18651,-3.79281 -8.43401,-3.8755 -0.68238,-0.0174 -1.36252,0.0855 -2.04377,0.12823 -0.67159,0.16478 -1.36123,0.26834 -2.01476,0.49434 -1.34938,0.46664 -2.60136,1.17542 -3.68539,2.10687 -0.56769,0.48778 -2.25848,1.88196 -1.55882,1.61611 2.4489,-0.93049 3.56923,-4.20144 1.43933,0.32028 -1.66414,5.01381 -1.40615,10.37121 0.20904,15.37218 0.33936,1.05075 0.80063,2.05814 1.20094,3.08721 1.91633,3.66747 4.49216,8.22607 8.98255,9.08319 0.66493,0.12692 1.35315,0.0444 2.02972,0.0667 2.77239,-0.45305 5.0495,-2.06059 7.19724,-3.77316 1.44594,-1.15296 0.66956,-0.82429 1.66248,-1.16581 0.21378,-0.1772 0.42757,-0.35441 0.64135,-0.53162 0,0 0.0925,-0.0672 0.0925,-0.0672 l 0,0 c -0.46713,0.50536 -0.93426,1.01072 -1.40138,1.51608 -3.24869,3.66908 -6.7347,7.57924 -11.85693,8.26175 -0.71647,-0.06 -1.44913,-0.017 -2.14942,-0.17991 -4.59683,-1.06911 -7.26626,-5.61577 -9.27135,-9.4588 -0.41384,-1.04533 -0.8877,-2.06885 -1.2415,-3.13599 -1.67932,-5.06511 -2.02223,-10.49694 -0.48657,-15.63339 1.98124,-4.63856 0.6498,-2.21281 6.24343,-8.28669 2.04259,-2.21795 4.59606,-3.56966 7.58772,-3.97094 0.70612,-0.0219 1.41291,-0.10353 2.11835,-0.0656 3.38496,0.18189 6.47041,1.73545 8.78091,4.17382 1.18378,1.60111 2.30832,3.29461 1.95326,5.40211 -0.0703,0.41714 -0.11995,0.87986 -0.38563,1.20903 -1.43868,1.7824 -3.10918,3.36453 -4.66376,5.04679 -2.80496,2.49682 -6.25223,3.83257 -9.96698,4.32792 -3.51216,0.30324 -7.03088,0.23593 -10.46439,-0.66228 0,0 3.34757,-3.77333 3.34757,-3.77333 z"
           id="path4143"
           style="fill:#ff6600;fill-opacity:1;fill-rule:nonzero;stroke:none" />
        <path
           inkscape:connector-curvature="0"
           d="m 449.10696,607.99891 c 0.0869,-2.55588 -0.73078,-5.13603 -2.54952,-6.99416 -0.41923,-0.4283 -0.92441,-0.76304 -1.38661,-1.14457 -3.99544,-2.41854 -8.30957,-1.37326 -12.43732,0.0751 -0.76329,0.34883 -1.54097,0.66777 -2.28987,1.0465 -1.365,0.69029 -2.9675,1.65 -4.21187,2.54657 -0.62125,0.44761 -2.39841,1.90493 -1.80015,1.427 3.21431,-2.56781 3.36443,-3.01363 1.49233,-0.59517 -2.32073,4.28611 -1.31399,6.90738 1.41085,10.6224 4.22766,4.50204 9.90692,7.22747 15.1566,10.3366 4.70408,2.9782 9.54658,6.2559 12.66896,10.99188 0.4977,0.7549 0.87116,1.58478 1.30674,2.37716 0.24583,0.78679 0.58614,1.55008 0.73749,2.36036 1.24116,6.64484 -4.85157,10.47395 -9.15876,14.20695 -3.82923,2.49113 -8.29451,4.09748 -12.91931,3.87011 -0.83645,-0.0411 -1.66171,-0.20995 -2.49255,-0.31492 -5.40144,-1.3004 -9.27095,-4.68414 -12.61594,-8.95196 -0.93539,-1.51085 -1.64217,-2.27866 -1.88334,-4.08567 -0.0989,-0.74078 0.0461,-1.49397 0.0691,-2.24096 0,0 0.0878,-0.0733 0.0878,-0.0733 l 0,0 c 0.62715,0.19506 1.28601,0.30802 1.88145,0.58517 1.40517,0.65402 2.36181,1.62694 3.52135,2.62407 3.86955,3.38778 7.66684,7.13449 12.89159,8.19798 0.80982,0.0863 1.61541,0.23507 2.42946,0.25881 4.56493,0.13326 8.93721,-1.54372 12.63796,-4.11622 -0.70075,0.62795 -1.16381,1.95262 -2.10222,1.88383 -0.84016,-0.0615 1.16507,-1.22596 1.64651,-1.91724 1.88165,-2.70169 2.11236,-5.70467 0.96647,-8.74505 -0.41315,-0.77344 -0.76312,-1.58409 -1.23944,-2.32031 -3.04384,-4.70476 -7.86086,-7.92056 -12.50294,-10.85419 -5.32515,-3.13759 -11.07417,-5.89375 -15.35614,-10.45775 -2.84261,-3.81991 -4.03387,-6.64069 -1.84994,-11.18513 3.60618,-5.07542 9.46532,-9.12505 15.22668,-11.52116 4.41004,-1.42328 8.47507,-2.20765 12.5379,0.6088 0.44876,0.43911 0.94386,0.83539 1.3463,1.31732 1.77125,2.12111 2.50052,4.91606 2.31531,7.63342 0,0 -3.53479,2.54768 -3.53479,2.54768 z"
           id="path4145"
           style="fill:#ff6600;fill-opacity:1;fill-rule:nonzero;stroke:none" />
        <path
           inkscape:connector-curvature="0"
           d="m 469.65547,598.90209 c -0.78088,6.03138 -1.13447,12.07971 -1.08526,18.1581 0.23357,6.59208 1.14053,13.22088 3.33719,19.46715 0.37676,1.07132 0.842,2.10944 1.263,3.16415 2.35929,5.18955 5.04469,8.10777 10.07216,10.66046 1.85784,1.28797 5.77212,1.26182 7.51057,2.495 0.21484,0.1524 0.32649,0.41343 0.48973,0.62015 -0.0963,0.35089 -0.19263,0.70178 -0.28894,1.05266 0,0 -0.0802,0.0815 -0.0802,0.0815 l 0,0 c -0.59235,0.33736 -1.1847,0.67473 -1.77704,1.01209 -0.5136,0.13418 -1.01571,0.32468 -1.54082,0.40255 -2.89988,0.43006 -5.79946,-0.80964 -8.41862,-1.85138 -5.09943,-2.67406 -7.88324,-5.69926 -10.27951,-11.00721 -0.42599,-1.06939 -0.896,-2.12228 -1.27797,-3.20816 -2.21287,-6.29088 -3.15416,-12.96197 -3.42868,-19.60079 -0.0345,-6.127 0.32576,-12.22927 1.18489,-18.30047 0,0 4.31949,-3.14579 4.31949,-3.14579 z"
           id="path4147"
           style="fill:#ff6600;fill-opacity:1;fill-rule:nonzero;stroke:none" />
        <path
           inkscape:connector-curvature="0"
           d="m 482.02123,627.05591 c -5.24077,-0.66742 -10.43121,-1.67492 -15.65253,-2.48087 -5.42608,-0.83228 -10.8796,-1.51132 -16.37491,-1.5046 -0.45147,-0.0331 -4.08486,0.38799 -4.11712,-0.28488 -0.0128,-0.2663 0.18063,-0.50167 0.27095,-0.75251 0,0 0.0772,-0.0843 0.0772,-0.0843 l 0,0 c 2.53976,-1.97484 4.39655,-2.90143 7.69459,-2.8839 5.499,0.0728 10.95301,0.78124 16.38431,1.61113 5.12214,0.78639 10.30796,1.44512 15.29666,2.87933 0,0 -3.57912,3.50063 -3.57912,3.50063 z"
           id="path4149"
           style="fill:#ff6600;fill-opacity:1;fill-rule:nonzero;stroke:none" />
        <path
           inkscape:connector-curvature="0"
           d="m 516.21302,638.0829 c -1.19656,-3.24437 -2.74474,-5.77719 -5.60997,-7.77055 -3.07746,-1.53695 -6.02519,-0.29902 -8.77454,1.3062 -0.47468,0.36497 -1.88348,1.47889 -1.42405,1.0949 0.94911,-0.79323 1.776,-1.79318 2.89365,-2.32316 0.573,-0.2717 -0.82094,0.97129 -1.16549,1.50369 -1.23786,1.91271 -1.65203,3.87075 -2.02781,6.0779 -0.30028,4.39132 0.79158,8.75161 3.15805,12.47626 0.44626,0.70237 0.9878,1.33945 1.48169,2.00917 2.13541,2.34557 5.15099,4.37496 8.3984,2.9074 0.53115,-0.24003 0.9842,-0.62474 1.4763,-0.9371 -0.96735,0.76511 -1.75164,1.85063 -2.90204,2.2953 -0.61516,0.23779 0.81381,-1.04356 1.14269,-1.61523 1.48815,-2.58681 1.86799,-5.52491 2.15902,-8.43506 0.11466,-1.72916 0.0765,-3.46252 -0.0452,-5.1896 -0.0213,-0.30289 -0.0526,-0.60502 -0.0804,-0.90737 -0.0123,-0.13426 -0.15265,-0.32792 -0.0403,-0.40247 1.50734,-1.0002 3.13996,-1.79738 4.70993,-2.69607 0.94341,3.98282 2.70289,7.67243 4.696,11.22197 1.8082,2.86143 3.79927,5.85439 6.95261,7.32824 0.67878,0.17217 1.39151,0.23835 2.08896,0.14514 0.14909,-0.0199 0.53797,-0.15255 0.45026,-0.0303 -0.11097,0.15467 -0.27107,0.26738 -0.40661,0.40107 0,0 0.096,-0.0619 0.096,-0.0619 l 0,0 c -1.62491,1.93661 -3.54903,4.36544 -6.36691,3.40281 -3.18298,-1.65287 -5.26727,-4.64235 -7.12096,-7.62846 -2.01889,-3.57629 -3.81251,-7.28596 -4.85479,-11.27791 1.43471,-1.41014 2.79732,-2.8976 4.30412,-4.23043 0.10284,-0.091 0.005,0.27479 0.0128,0.4119 0.019,0.31152 0.0499,0.62223 0.0691,0.93374 0.10855,1.75886 0.16157,3.52253 0.0591,5.28362 -0.25919,2.97086 -0.60665,5.95784 -1.99153,8.65595 -0.30742,0.59891 -0.59559,1.23634 -1.07295,1.71105 -1.75473,1.74495 -3.7175,3.2674 -5.57625,4.9011 -0.53229,0.27689 -1.03096,0.63132 -1.59687,0.8307 -3.47586,1.22454 -6.58856,-0.94461 -8.81996,-3.41216 -0.50768,-0.6903 -1.06255,-1.34825 -1.523,-2.0709 -2.42654,-3.80829 -3.60119,-8.25432 -3.3964,-12.75526 0.11012,-0.77959 0.16414,-1.56918 0.33041,-2.33875 1.13319,-5.24655 5.34071,-8.59749 9.65555,-11.4925 2.96057,-1.58071 6.07148,-2.62669 9.20856,-0.82981 2.69701,2.13448 4.54996,4.97727 5.57394,8.27075 0,0 -4.12118,3.23626 -4.12118,3.23626 z"
           id="path4151"
           style="fill:#ff6600;fill-opacity:1;fill-rule:nonzero;stroke:none" />
        <path
           inkscape:connector-curvature="0"
           d="m 519.3622,619.87326 c -1.39434,-1.61422 -2.68005,-3.46387 -2.12569,-5.66221 3.00605,-4.44651 5.4807,-5.72985 9.30588,-3.26049 2.189,1.86389 2.86668,3.92785 2.3459,6.71289 -1.43767,3.27216 -4.8858,7.03563 -8.66681,6.86424 -0.40329,-0.0182 -0.79702,-0.1291 -1.19553,-0.19362 -2.43754,-0.95191 -3.91446,-2.08745 -3.83564,-4.84918 0.38707,-1.57461 1.74808,-2.56727 2.80985,-3.69799 0,0 0.096,-0.0621 0.096,-0.0621 l 0,0 c -0.44919,1.21911 0.71822,-0.31985 0.87785,0.8561 0.83027,1.78155 2.08526,3.25034 4.05801,3.76257 0.9566,0.0849 1.24715,0.2036 2.19049,-0.086 0.35496,-0.10896 1.26204,-0.73862 1.01308,-0.46313 -0.99448,1.10053 -2.16802,2.02638 -3.29606,2.98954 -0.29115,0.2486 0.55688,-0.53172 0.78101,-0.8421 0.22497,-0.31156 0.37083,-0.67323 0.55625,-1.00984 0.69642,-2.55038 0.1477,-4.44583 -1.91123,-6.16924 -0.86939,-0.53547 -1.69729,-1.05504 -2.76465,-1.02844 -0.26307,0.007 -0.95044,0.34281 -0.77587,0.14588 1.54737,-1.74562 5.08528,-4.44304 2.9532,-2.80182 -0.97132,1.91002 0.38363,3.84829 1.5597,5.3537 0,0 -3.97572,3.44126 -3.97572,3.44126 z"
           id="path4153"
           style="fill:#ff6600;fill-opacity:1;fill-rule:nonzero;stroke:none" />
        <path
           inkscape:connector-curvature="0"
           d="m 502.11148,611.94025 c 2.42756,-0.61935 4.90174,-0.18214 6.62841,1.67951 0.64584,1.123 0.51283,2.35775 -0.51225,3.22824 -5.08679,4.31968 -3.1171,3.61438 -6.33893,4.49773 -2.9995,0.32666 -5.15155,-0.9073 -6.81256,-3.33413 -1.33757,-2.90134 0.039,-4.34705 2.11743,-6.33689 0,0 0.0961,-0.0619 0.0961,-0.0619 l 0,0 c 0.34818,0.73565 -0.34025,-0.57047 0.70347,0.40253 0.48291,0.45018 0.60541,2.11148 1.28035,2.43153 1.6925,1.98577 3.7176,3.33808 6.44115,2.73601 2.51814,-0.95909 1.19279,-0.60498 -2.28443,2.6785 -0.22871,0.21597 0.50908,-0.37567 0.72365,-0.60571 0.58166,-0.62359 0.73213,-1.24138 0.41053,-2.02589 -1.53117,-1.71733 -3.89053,-1.97013 -6.02904,-1.33191 0,0 3.5761,-3.95761 3.5761,-3.95761 z"
           id="path4155"
           style="fill:#ff6600;fill-opacity:1;fill-rule:nonzero;stroke:none" />
        <path
           inkscape:connector-curvature="0"
           d="m 539.11364,628.33849 c -0.27341,4.23605 0.58497,8.44697 1.3939,12.58332 0.76713,3.72118 1.60439,7.42789 2.47192,11.12688 0.82076,3.21889 0.89588,1.01177 -4.02306,4.83145 -0.37001,-2.03084 -0.60505,-4.07508 -0.76672,-6.1323 -0.33198,-3.90726 0.1774,-7.71279 1.46838,-11.39799 2.41467,-5.68312 7.37843,-9.10753 12.00469,-12.9219 2.04047,-1.22162 4.56464,-2.82454 7.08188,-2.17331 0.38215,0.0989 0.7259,0.31032 1.08885,0.46548 0.31804,0.27617 0.68071,0.50813 0.95413,0.82854 2.14098,2.50888 2.31073,7.08752 2.66706,10.18591 0.52008,5.79845 0.95317,11.60439 1.43119,17.40649 0.1557,2.81558 0.77521,5.66144 0.078,8.44242 -0.4993,0.82539 -0.17853,0.44839 -0.99431,1.103 0,0 -1.34701,1.07378 -1.34701,1.07378 l 0,0 c -0.78361,0.50388 -0.40145,0.4349 -1.08836,0.41556 -1.42062,-2.02551 -0.58778,-5.36927 -1.10263,-7.66972 -0.44889,-5.80152 -0.8772,-11.60529 -1.40732,-17.4 -0.33024,-2.85379 -0.48025,-7.49376 -2.46598,-9.80562 -0.23447,-0.27298 -0.55405,-0.45939 -0.83109,-0.68909 -0.3225,-0.11521 -0.63087,-0.28273 -0.9675,-0.34578 -2.44269,-0.45752 -4.81595,1.21788 -6.75653,2.41375 0.87055,-0.80355 1.7758,-1.57106 2.61164,-2.41066 0.49093,-0.49313 -1.07032,0.89099 -1.57532,1.3697 -1.97242,1.8697 -3.62848,4.04657 -4.76196,6.52355 -1.36538,3.60172 -1.91808,7.33686 -1.5957,11.19324 0.16021,2.03943 0.37427,4.07279 0.81194,6.07439 -4.51924,4.19028 -4.14055,5.6521 -4.88573,2.01605 -0.76813,-3.75844 -1.63455,-7.49703 -2.31118,-11.27397 -0.74027,-4.23724 -1.51598,-8.5268 -1.30825,-12.8465 0,0 4.12509,-2.98667 4.12509,-2.98667 z"
           id="path4157"
           style="fill:#ff6600;fill-opacity:1;fill-rule:nonzero;stroke:none" />
        <path
           inkscape:connector-curvature="0"
           d="m 587.26238,639.65346 c 0.64164,-3.45034 -0.28714,-6.70865 -2.03163,-9.66878 -1.42563,-1.88681 -3.50399,-3.48916 -6.01676,-3.0411 -0.46495,0.0829 -0.90198,0.28043 -1.35296,0.42066 0.56062,-0.62607 -3.72225,2.38449 -2.69407,1.96315 0.84313,-0.34552 1.38274,-1.82495 2.25151,-1.55018 0.70759,0.2238 -0.83137,1.23316 -1.17635,1.89022 -1.01872,1.94034 -1.10697,2.62763 -1.73708,4.74705 -1.23332,5.50871 -0.52661,10.26073 1.66368,15.38296 1.24339,2.19284 3.01667,5.37579 6.00366,5.21693 0.46981,-0.025 0.91883,-0.20284 1.37824,-0.30427 -0.44556,0.88222 3.87823,-2.62818 2.95962,-1.89984 -0.86065,0.68237 -1.50955,1.88867 -2.59941,2.02492 -0.79658,0.0996 1.0374,-1.22844 1.49643,-1.88704 1.36456,-1.95785 1.60168,-2.6924 2.64631,-4.87734 2.66234,-6.26616 3.2427,-13.00966 3.23709,-19.7377 -0.18014,-5.90913 -1.16995,-11.74704 -2.21946,-17.55183 -0.43856,-2.39089 -0.92499,-4.77252 -1.38529,-7.15921 -0.18308,-0.88737 0.0181,0.0933 0.20536,-0.0248 1.35162,-0.85258 2.39554,-2.15274 3.78448,-2.94309 0.24373,-0.13868 -0.066,0.55725 -0.0836,0.83712 -0.0234,0.37647 -0.0269,0.75392 -0.0403,1.13088 -0.003,4.72041 1.06143,9.35208 2.15874,13.91564 1.67129,6.6464 3.85955,13.14592 6.0574,19.63222 1.33076,3.94434 2.81094,7.84138 3.96548,11.84285 0.18285,1.14646 0.79462,2.77829 0.12838,3.90432 -1.79462,3.03317 -0.71277,0.3799 -1.26179,1.7943 0,0 -0.0933,0.066 -0.0933,0.066 l 0,0 c 0.0364,-0.80945 0.10152,-0.0163 -1.10393,0.0497 -0.69508,0.0381 -1.6234,-2.05625 -1.8354,-2.50013 -1.53922,-3.84701 -2.75271,-7.81375 -4.11931,-11.72334 -2.19216,-6.5071 -4.37823,-13.02432 -6.07575,-19.68218 -1.09606,-4.63981 -2.16866,-9.33536 -2.11303,-14.13348 0.006,-0.17352 0.0521,-1.95741 0.11495,-2.03573 0.49135,-0.6115 3.64447,-6.19779 4.52631,-3.39106 0.48201,2.39302 0.93261,4.79223 1.3522,7.19704 1.02442,5.83591 2.02372,11.69916 2.2637,17.63018 0.0917,6.73923 -0.37368,13.49807 -2.93973,19.81881 -2.84761,6.24097 -3.91013,7.08339 -9.67356,11.98376 -1.2917,1.09827 -1.6788,1.1315 -3.16921,1.75017 -0.5058,0.0607 -1.00838,0.20204 -1.51742,0.1821 -3.15768,-0.12376 -4.99391,-3.27988 -6.26312,-5.73193 -2.14594,-5.46848 -2.63755,-10.23473 -1.3776,-16.02674 0.5929,-2.08131 1.32657,-5.16139 2.83537,-6.82333 1.50063,-1.65294 3.19343,-3.12162 4.83665,-4.63288 1.26042,-1.15922 1.37648,-1.09364 2.84188,-1.81915 0.47526,-0.1063 0.9409,-0.27346 1.42578,-0.31889 2.66168,-0.24942 4.72468,1.53023 6.16184,3.56108 1.76905,3.11188 2.72221,6.48433 2.04363,10.07918 0,0 -3.45867,2.44277 -3.45867,2.44277 z"
           id="path4159"
           style="fill:#ff6600;fill-opacity:1;fill-rule:nonzero;stroke:none" />
        <path
           inkscape:connector-curvature="0"
           d="m 613.15775,632.25681 c 2.79161,-0.46811 5.14203,-1.9224 7.27243,-3.71182 -5.71841,4.92177 -1.79947,1.75102 -1.23112,-0.12488 0.21044,-0.69459 0.12638,-0.79562 0.0384,-1.48299 -1.01762,-2.159 -3.68441,-2.01833 -5.71198,-1.83088 -1.25585,0.3219 -1.74425,0.35595 -2.88948,1.02564 -0.46834,0.27387 -1.73469,1.30249 -1.3179,0.95517 4.19771,-3.49807 2.43528,-2.18578 1.55765,-0.52174 -0.28193,0.53454 -0.45623,1.11927 -0.68434,1.67891 -1.23207,4.86296 0.46152,8.88726 2.94546,12.9979 2.50164,3.44737 5.91701,6.03363 10.18177,6.77896 0.82464,0.14412 1.66674,0.15869 2.50011,0.23797 4.75431,0.0827 9.28125,-1.53549 13.95229,-2.12873 1.54026,-0.12746 1.99011,-0.22584 2.67193,1.13474 0,0 -0.0801,0.0816 -0.0801,0.0816 l 0,0 c -1.88036,0.77051 -3.7406,1.61522 -5.71617,2.12088 -4.79724,1.47354 -9.70669,2.8551 -14.77318,2.73768 -0.85447,-0.0996 -1.71929,-0.13286 -2.56344,-0.29876 -4.37141,-0.85747 -7.87721,-3.5563 -10.46102,-7.09931 -0.46132,-0.75459 -0.97651,-1.47878 -1.38398,-2.26376 -1.83406,-3.53333 -2.50764,-7.52685 -1.50276,-11.40058 0.23943,-0.60607 0.4271,-1.23522 0.71827,-1.81819 1.89344,-3.79091 6.04235,-6.8768 10.20159,-7.70077 2.35115,-0.14567 5.04993,-0.0859 6.28195,2.27874 0.95847,3.88612 -3.72689,6.37277 -6.0042,8.47294 -2.16232,1.68597 -4.54872,3.00429 -7.31335,3.35477 0,0 3.31115,-3.4735 3.31115,-3.4735 z"
           id="path4161"
           style="fill:#ff6600;fill-opacity:1;fill-rule:nonzero;stroke:none" />
        <path
           inkscape:connector-curvature="0"
           d="m 253.96122,697.22369 c 1.57726,4.64964 2.69637,9.44019 3.89286,14.19776 1.45345,5.80114 2.98608,11.58188 4.707,17.30961 0.92144,3.015 1.9836,5.98349 3.1011,8.93048 0.49666,1.15387 0.80854,2.39917 1.42524,3.49976 0.0178,0.0136 0.0356,0.0273 0.0533,0.0409 -1.44423,1.04055 -2.80209,2.21291 -4.3327,3.12163 -0.19949,0.11844 0.14381,-0.44166 0.19846,-0.66714 0.3684,-1.51988 0.60224,-3.08448 0.88372,-4.62109 0.94907,-5.27983 2.06181,-10.52708 3.4055,-15.72039 0.94988,-3.67894 2.27603,-7.23993 3.94397,-10.65012 2.24263,-4.34271 2.13366,-3.59271 7.15457,-6.9484 0.1472,0.23459 0.32796,0.4512 0.4416,0.70376 0.60161,1.33705 0.78705,2.96534 1.06349,4.38325 0.15275,0.78352 0.81273,4.26866 0.93449,4.91049 1.23507,6.46234 2.54771,12.90947 3.90649,19.34684 0.96241,3.24515 1.1035,6.80096 2.41978,9.9435 1.85082,0.39518 0.54107,0.0776 -4.06561,3.19415 -0.21479,0.14532 0.3338,-0.40076 0.46066,-0.62693 0.80255,-1.4307 1.24302,-3.09823 1.74415,-4.644 1.75397,-5.98027 2.87157,-12.12169 4.04889,-18.23445 0.84827,-4.59234 1.78773,-9.16659 3.13122,-13.64161 0.84803,-2.68036 1.96051,-5.2647 3.04536,-7.85485 0.61958,-1.50944 1.19141,-3.02421 2.27239,-4.2658 0,0 3.61867,-2.41054 3.61867,-2.41054 l 0,0 c 0.39219,0.29829 -1.09871,3.00141 -1.23972,3.47265 -1.08856,2.58365 -2.20879,5.15868 -3.09537,7.82091 -1.39951,4.46788 -2.38173,9.04328 -3.23756,13.64405 -1.18227,6.1096 -2.28503,12.24788 -3.95702,18.24768 -0.56564,1.84372 -3.37085,12.0189 -7.13613,8.88314 -1.32974,-3.19147 -1.39892,-6.81817 -2.38032,-10.11085 -1.33803,-6.44053 -2.65216,-12.886 -3.93129,-19.3385 -0.62442,-3.175 -1.04537,-6.49692 -2.19265,-9.52522 7.04742,-6.33362 3.23906,-3.4733 1.65964,-0.11802 -1.72281,3.3788 -3.08712,6.92324 -4.06318,10.59157 -1.37024,5.16813 -2.48873,10.39649 -3.40391,15.66469 -0.14208,0.81584 -1.5454,13.54357 -5.73362,9.05563 -0.63325,-1.12836 -0.94752,-2.40606 -1.44737,-3.5932 -1.10545,-2.97372 -2.15083,-5.96997 -3.06637,-9.00833 -1.69983,-5.74676 -3.21962,-11.54327 -4.6903,-17.35259 -1.20059,-4.71831 -2.31804,-9.47671 -3.95334,-14.06801 0,0 4.41385,-3.56242 4.41385,-3.56242 z"
           id="path4163"
           style="fill:#ff6600;fill-opacity:1;fill-rule:nonzero;stroke:none" />
        <path
           inkscape:connector-curvature="0"
           d="m 317.1045,706.71565 c -0.39132,4.88874 -0.0877,9.7984 0.28656,14.67746 0.41747,5.20599 1.25967,10.36406 2.70373,15.38325 0.63608,2.0547 1.41603,4.06958 2.54019,5.90828 0.85288,1.0683 -0.30467,1.18353 -1.50132,2.12843 0,0 0.0933,-0.066 0.0933,-0.066 l 0,0 c -0.83171,0.90321 -1.89942,3.1291 -2.94872,1.58829 -1.14018,-1.89338 -1.93646,-3.96001 -2.5791,-6.07083 -1.44129,-5.06381 -2.28769,-10.26343 -2.72223,-15.51019 -0.39985,-4.93057 -0.72168,-9.8935 -0.24999,-14.8326 0,0 4.37758,-3.20603 4.37758,-3.20603 z"
           id="path4165"
           style="fill:#ff6600;fill-opacity:1;fill-rule:nonzero;stroke:none" />
        <path
           inkscape:connector-curvature="0"
           d="m 315.48394,697.23636 c -1.34359,-1.67776 -2.23548,-3.72361 -1.35799,-5.79891 4.12437,-3.81368 4.82354,-5.67342 9.25725,-2.64238 2.00599,1.70032 2.81762,3.4963 2.39159,6.09351 -1.5263,3.60609 -5.12411,6.97629 -9.13964,7.08203 -2.36389,-0.348 -3.70497,-2.04964 -4.51921,-4.1544 -0.64895,-2.39619 0.2136,-4.61723 1.4678,-6.63899 1.58114,-1.67687 0.68331,-0.86 2.73864,-2.40006 0,0 0.0969,-0.0607 0.0969,-0.0607 l 0,0 c 0.55591,-0.18998 0.41204,-0.30815 0.53258,0.16831 -0.49383,1.76645 -0.90588,3.55238 -0.42771,5.37885 0.67209,1.91386 1.84981,3.4763 4.02708,3.61798 0.87827,-0.10375 1.10187,-0.0576 1.91957,-0.451 0.31246,-0.15031 1.13137,-0.79045 0.88531,-0.54615 -6.18367,6.13953 -2.9928,2.91943 -2.09826,1.23985 0.65452,-2.39595 0.0261,-4.07218 -1.80815,-5.74365 -1.04015,-0.73916 -2.2366,-1.54399 -3.59453,-1.20483 -0.23863,0.0596 -0.84152,0.48588 -0.66957,0.31002 1.02589,-1.04922 2.17303,-1.9726 3.25954,-2.9589 -1.2903,1.85298 -0.2598,3.73514 0.82857,5.43458 0,0 -3.78977,3.27483 -3.78977,3.27483 z"
           id="path4167"
           style="fill:#ff6600;fill-opacity:1;fill-rule:nonzero;stroke:none" />
        <path
           inkscape:connector-curvature="0"
           d="m 335.53525,721.67851 c 2.74871,1.24758 5.62001,1.7024 8.61264,1.56793 3.41884,-0.29572 6.42831,-1.737 9.13469,-3.76894 -1.02907,0.86788 -1.99746,1.8133 -3.0872,2.60365 -0.38094,0.27627 0.65331,-0.6796 0.94426,-1.04945 1.04886,-1.33339 1.4676,-2.68721 1.56884,-4.35101 -0.17175,-2.60945 -1.71338,-4.47496 -3.70945,-5.99808 -2.5136,-1.64149 -5.2771,-1.80221 -8.13301,-1.19231 -1.22314,0.46354 -1.57176,0.51787 -2.67536,1.25169 -0.42846,0.2849 -1.61088,1.28024 -1.21972,0.94599 5.12077,-4.37597 3.16712,-2.86958 1.95932,-1.17634 -0.35487,0.49752 -0.64752,1.0366 -0.97129,1.55491 -2.31312,4.41621 -2.86538,9.39285 -3.17701,14.2911 -0.0886,4.49086 0.14242,9.1251 1.84487,13.34396 0.29047,0.71983 0.67216,1.39938 1.00824,2.09909 1.86179,3.12913 4.66272,5.32406 8.3716,5.66689 0.77877,0.072 1.56417,0.005 2.34626,0.008 3.28587,-0.28169 6.40203,-1.40534 9.50033,-2.45951 2.17616,-0.74042 1.11901,-0.53686 2.9061,-0.7394 0.17255,0.12628 0.34509,0.25255 0.51764,0.37883 0,0 -0.0763,0.0851 -0.0763,0.0851 l 0,0 c -0.74061,0.50889 -1.48121,1.01779 -2.22181,1.52668 -4.45809,2.67682 -9.268,4.84335 -14.52649,5.21056 -0.8085,-0.0249 -1.62242,0.0222 -2.4255,-0.0745 -3.84739,-0.46331 -6.76358,-2.80124 -8.7105,-6.05362 -0.3486,-0.71921 -0.74336,-1.41783 -1.04582,-2.15764 -1.74667,-4.27233 -2.02176,-8.96654 -1.96132,-13.52506 0.27155,-4.94559 0.78693,-9.96172 2.97829,-14.48036 2.17263,-3.76781 3.2502,-4.29255 7.34452,-7.7799 1.17004,-0.99659 2.58544,-1.6197 4.0592,-2.00168 2.98272,-0.46701 5.86084,-0.16228 8.4357,1.54942 2.11332,1.62943 3.81063,3.59307 4.11813,6.35025 -0.0236,5.25899 -3.76515,7.08919 -7.6242,10.44875 -2.81242,1.96032 -5.90764,3.33821 -9.37935,3.53443 -2.99299,0.01 -5.87683,-0.53048 -8.50315,-2.04273 0,0 3.79687,-3.56664 3.79687,-3.56664 z"
           id="path4169"
           style="fill:#ff6600;fill-opacity:1;fill-rule:nonzero;stroke:none" />
        <path
           inkscape:connector-curvature="0"
           d="m 386.43069,716.56029 c -1.404,-2.25876 -3.37204,-3.84707 -5.77778,-4.91229 -2.7881,-0.938 -5.57384,-0.39165 -8.28868,0.48578 -0.44267,0.18811 -0.89398,0.35706 -1.32802,0.56433 -0.87115,0.416 -1.6915,0.90233 -2.48194,1.45584 -0.3865,0.27066 -1.47776,1.17222 -1.1268,0.85682 4.61762,-4.14972 3.73826,-3.29541 2.17486,-1.64025 -2.42884,2.79757 -3.16694,6.22259 -3.40976,9.81547 -0.0456,5.80361 1.75457,11.32743 3.99876,16.60568 1.75481,3.35512 3.6782,7.25749 7.1798,9.14291 0.50745,0.27323 1.07322,0.42051 1.60984,0.63077 1.87053,0.34336 3.59276,0.003 5.25496,-0.92396 0.64421,-0.35922 2.29189,-1.82309 1.82378,-1.25308 -0.64472,0.7851 -1.39133,2.1927 -2.36916,1.91718 -0.87504,-0.24655 1.16696,-1.39434 1.75043,-2.09152 3.80419,-5.26331 5.36455,-11.50696 6.28726,-17.82583 0.60915,-5.50766 0.26085,-11.05067 -0.12297,-16.55939 -0.29455,-3.99531 -0.63672,-7.98665 -1.03425,-11.97297 -0.1978,-1.70781 -0.3258,-3.43317 -0.75103,-5.10367 -0.56063,-1.96596 -0.25121,-0.73227 4.32435,-3.48608 0.002,-8.5e-4 -0.0101,0.21281 -0.0586,1.07935 -0.13625,1.98503 -0.21577,3.97301 -0.20882,5.96264 0.0928,3.22405 0.60807,6.41752 1.10418,9.59865 0.86804,5.773 2.02253,11.49253 3.36965,17.17101 1.39187,5.67011 3.04854,11.27218 4.97665,16.78241 0.17276,1.15976 1.91325,3.40545 1.23143,4.58243 -0.13919,0.24027 -0.34926,0.43179 -0.52389,0.64769 -0.2712,0.29034 -0.54241,0.58067 -0.81363,0.871 0,0 -0.0807,0.0809 -0.0807,0.0809 l 0,0 c -0.36911,0.27664 -0.73823,0.55327 -1.10734,0.82989 -0.27546,0.12627 -0.53305,0.30278 -0.82639,0.37877 -1.29286,0.33497 -1.87866,-3.19165 -2.25115,-3.88342 -1.88528,-5.55096 -3.54051,-11.17826 -4.9565,-16.86768 -1.36677,-5.67646 -2.54692,-11.3932 -3.4481,-17.16366 -0.52163,-3.19271 -1.06086,-6.39682 -1.19638,-9.63426 -0.0277,-1.99318 0.0443,-3.98511 0.16216,-5.97488 0.0123,-0.20046 0.0235,-0.40101 0.0358,-0.60147 0.009,-0.16129 -0.0868,-0.37088 0.0284,-0.48386 3.60213,-3.52227 3.83485,-5.72262 4.6838,-3.41517 0.5239,1.68365 0.55487,3.47254 0.77992,5.20974 0.37776,4.00089 0.71677,8.00513 1.00665,12.01343 0.38247,5.54807 0.73386,11.12821 0.16033,16.67761 -0.88276,6.37158 -2.39418,12.67485 -6.09599,18.059 -3.0335,3.84924 -1.93128,2.71936 -7.7174,7.43558 -2.13891,1.74341 -4.81575,2.41347 -7.48837,1.81977 -0.56328,-0.24251 -1.15701,-0.42392 -1.68985,-0.72754 -3.54562,-2.02038 -5.54023,-5.94437 -7.33666,-9.41604 -2.28185,-5.33605 -4.12858,-10.91369 -4.19128,-16.78018 0.16251,-3.65567 0.8088,-7.17243 3.15977,-10.10838 3.0819,-3.52377 6.76467,-6.75105 11.22116,-8.32507 2.77747,-0.77334 5.57016,-1.12546 8.30564,0.0502 2.43193,1.21101 4.42157,2.91798 5.779,5.3084 0,0 -3.72751,3.11737 -3.72751,3.11737 z"
           id="path4171"
           style="fill:#ff6600;fill-opacity:1;fill-rule:nonzero;stroke:none" />
        <path
           inkscape:connector-curvature="0"
           d="m 414.68245,724.75697 c 3.21379,-0.08 6.38429,-0.48873 9.49197,-1.30472 1.25664,-0.4473 1.85744,-0.5971 3.01251,-1.25444 0.43249,-0.24612 1.60087,-1.17333 1.2412,-0.82944 -7.14889,6.83517 -2.93389,2.55978 -2.36235,1.68029 0.2297,-0.35347 0.37712,-0.75405 0.56569,-1.13108 0.83039,-2.96003 -0.24514,-5.24021 -2.40851,-7.24637 -3.05624,-1.88084 -5.3173,-1.22963 -8.03312,0.82538 1.00784,-0.78375 1.82258,-1.91795 3.02352,-2.35126 0.60623,-0.21875 -0.7437,1.0583 -1.03434,1.63353 -1.52113,3.01075 -1.67466,6.35835 -1.75023,9.65489 0.22955,3.94068 0.71597,8.19365 3.04036,11.53262 0.34563,0.49651 0.78604,0.91983 1.17907,1.37975 3.3997,2.76305 6.98592,1.36181 10.68688,0.0469 1.46187,-0.32442 4.54168,-2.12164 6.05437,-1.35849 0.23908,0.12062 0.34053,0.41336 0.5108,0.62004 0,0 -0.0781,0.0835 -0.0781,0.0835 l 0,0 c -3.33777,1.76537 -6.72701,3.43405 -10.25197,4.79891 -3.98255,1.33961 -7.62985,2.49303 -11.16897,-0.5156 -0.41277,-0.48847 -0.87369,-0.94003 -1.2383,-1.46542 -2.37496,-3.42212 -2.92684,-7.74937 -3.19736,-11.78998 0.0314,-3.3562 0.14952,-6.74617 1.54788,-9.86858 0.26883,-0.60028 0.51066,-1.24512 0.96398,-1.72167 1.67953,-1.76564 3.58737,-3.2991 5.38106,-4.94864 3.07174,-1.97665 5.33977,-2.2578 8.50528,-0.22264 2.19298,2.07001 3.57543,4.63361 2.91359,7.72741 -1.77414,4.50761 -6.44271,7.43529 -10.92026,8.84987 -3.07035,0.73977 -6.20672,1.13253 -9.37165,0.98026 0,0 3.69702,-3.80496 3.69702,-3.80496 z"
           id="path4173"
           style="fill:#ff6600;fill-opacity:1;fill-rule:nonzero;stroke:none" />
        <path
           inkscape:connector-curvature="0"
           d="m 447.50777,712.44725 c 0.28387,4.99748 1.23023,9.92062 2.21024,14.8187 1.08849,5.28472 2.43949,10.51016 3.83108,15.72168 0.0338,1.18421 1.54254,3.45077 0.89382,4.57533 -0.68808,0.28018 -1.37615,0.56037 -2.06423,0.84056 0,0 0.0897,-0.0709 0.0897,-0.0709 l 0,0 c -0.56309,0.74341 -1.12617,1.4868 -1.68925,2.2302 -1.01869,0.0898 -1.32264,-3.44423 -1.63236,-4.09759 -1.35081,-5.24195 -2.69631,-10.48786 -3.80121,-15.7884 -0.97237,-4.95919 -1.87464,-9.95351 -2.09913,-15.01265 0,0 4.26137,-3.21689 4.26137,-3.21689 z"
           id="path4175"
           style="fill:#ff6600;fill-opacity:1;fill-rule:nonzero;stroke:none" />
        <path
           inkscape:connector-curvature="0"
           d="m 448.30302,725.78064 c 1.01758,-3.32678 3.0349,-6.03531 5.52252,-8.40081 4.17112,-4.13835 8.23555,-6.81857 13.91385,-7.76436 2.46407,-0.30135 4.80407,0.17952 6.95555,1.37853 1.15685,0.94516 2.12712,1.61592 1.42211,3.15844 -0.33097,0.35586 -0.66195,0.71171 -0.99294,1.06756 0,0 -0.0891,0.0717 -0.0891,0.0717 l 0,0 c -0.37122,0.24398 -0.74245,0.48796 -1.11367,0.73195 -1.44006,0.40612 -2.1022,-0.56692 -3.35564,-1.17599 -2.09703,-1.07238 -4.32598,-1.48706 -6.67845,-1.12293 -2.25845,0.43188 -4.37933,1.07345 -6.40469,2.19394 -0.54382,0.30084 -1.95068,1.48281 -1.58678,0.97899 0.71666,-0.99218 1.7914,-1.66823 2.68709,-2.50235 -2.52711,2.25568 -4.60953,4.8606 -5.66051,8.13506 0,0 -4.61936,3.25029 -4.61936,3.25029 z"
           id="path4177"
           style="fill:#ff6600;fill-opacity:1;fill-rule:nonzero;stroke:none" />
        <path
           inkscape:connector-curvature="0"
           d="m 479.14488,688.2681 c 0.92454,6.88481 2.34007,13.68692 3.80694,20.47236 1.92681,8.75611 4.27966,17.40856 6.77483,26.01721 1.29759,4.29526 2.52889,8.61357 3.9756,12.8621 0.76524,2.24237 1.03263,1.33845 -4.26824,3.60749 -0.28822,0.12338 -0.0536,-0.62474 -0.0792,-0.93721 -0.12479,-1.52077 -0.0891,-1.08682 -0.20012,-2.73664 -0.24988,-3.79523 -0.30452,-7.59758 -0.15343,-11.3972 0.10954,-3.90675 1.19406,-7.56007 2.93633,-11.02522 2.50613,-4.18192 6.64722,-8.11831 10.7922,-10.47334 2.73097,-1.25693 4.11926,-0.46727 5.86097,1.77976 2.45958,4.4403 3.34398,9.55446 4.34939,14.47618 0.80509,4.55657 1.70629,9.10423 2.34452,13.68819 0.0168,1.31056 0.48388,2.65339 0.27593,3.97172 -0.82754,5.24658 -0.13693,-1.52373 -0.50735,2.48893 0,0 -0.0874,0.0736 -0.0874,0.0736 l 0,0 c -0.3023,-0.0756 -0.59986,-0.17375 -0.90692,-0.22695 -0.39941,-0.0692 -0.83167,0.011 -1.20808,-0.13951 -1.08181,-0.43253 -1.39647,-1.9416 -1.82576,-2.84448 -1.17144,-4.45387 -1.45348,-9.09906 -2.46467,-13.59116 -0.98144,-4.8337 -1.85348,-9.85585 -4.2507,-14.22357 -1.7361,-2.21706 -2.74721,-2.46056 -5.29184,-1.1954 -2.30109,1.43708 -1.17471,0.82118 2.00716,-2.11978 0.3841,-0.35501 -0.80296,0.67182 -1.17941,1.03494 -1.27359,1.22847 -2.35516,2.63176 -3.25765,4.15234 -1.80238,3.38352 -2.94512,6.96534 -3.08186,10.82917 -0.17265,3.77711 -0.12572,7.55829 0.13615,11.33129 0.0995,1.38372 0.0929,1.40988 0.21581,2.70803 0.0294,0.31009 0.29681,0.69253 0.0948,0.9296 -4.03803,4.73838 -3.89389,5.95192 -4.67419,3.37729 -1.36054,-4.30372 -2.58264,-8.64981 -3.86396,-12.97735 -2.46875,-8.63527 -4.82788,-17.30611 -6.75566,-26.08066 -1.45445,-6.85583 -2.82492,-13.74456 -3.57128,-20.71955 0,0 4.05718,-3.11221 4.05718,-3.11221 z"
           id="path4179"
           style="fill:#ff6600;fill-opacity:1;fill-rule:nonzero;stroke:none" />
        <path
           inkscape:connector-curvature="0"
           d="m 521.17968,728.12824 c 3.25896,0.72311 6.53767,0.97179 9.85059,0.58605 1.27884,-0.31346 1.76032,-0.33397 2.9041,-0.98624 0.40327,-0.22997 1.48576,-1.11206 1.13075,-0.81295 -5.31824,4.48084 -3.19394,3.08574 -2.44856,1.32123 0.1874,-0.44363 0.26381,-0.92635 0.39571,-1.38952 0.38607,-3.24236 -0.69766,-6.23669 -2.87271,-8.61246 -2.38942,-1.89606 -4.983,-1.17661 -7.4267,0.1718 -0.38766,0.30272 -1.54107,1.22279 -1.16297,0.90819 0.98732,-0.82149 1.87754,-1.78896 2.99098,-2.4292 0.44461,-0.25564 -0.64742,0.79928 -0.91609,1.23614 -1.01717,1.65392 -1.3393,3.36729 -1.65479,5.25091 -0.49729,5.27802 0.90728,10.33938 2.99556,15.12769 1.55057,2.8708 3.55925,6.09093 6.93409,7.01229 0.51807,0.14144 1.06368,0.14899 1.59553,0.22348 0.55046,-0.0506 1.10754,-0.0528 1.65141,-0.15168 1.01011,-0.18371 2.2553,-0.6435 3.20203,-1.03467 0.81613,-0.33719 1.99428,-1.22775 2.91258,-1.05484 0.25422,-0.17619 0.50845,-0.3524 0.76267,-0.5286 0,0 -0.0739,0.0873 -0.0739,0.0873 l 0,0 c -0.42618,0.37608 -0.85235,0.75216 -1.27853,1.12823 -3.18356,2.80401 -6.69801,5.60366 -11.16287,5.52588 -0.56273,-0.10761 -1.14208,-0.14965 -1.68819,-0.32283 -3.4586,-1.09695 -5.55749,-4.34397 -7.17516,-7.36088 -2.13594,-4.86179 -3.59358,-9.99312 -3.21279,-15.36194 0.9299,-6.25474 3.09411,-8.42687 8.81621,-12.25805 2.69135,-1.27012 5.41779,-1.68247 7.87303,0.35715 2.29301,2.47928 3.50988,5.53662 3.28883,8.95345 -0.10286,0.49583 -0.15131,1.00617 -0.30861,1.48749 -1.25466,3.83782 -5.94745,6.70853 -9.83635,7.46662 -3.26341,0.2696 -6.49803,-0.034 -9.61968,-1.07798 0,0 3.53381,-3.462 3.53381,-3.462 z"
           id="path4181"
           style="fill:#ff6600;fill-opacity:1;fill-rule:nonzero;stroke:none" />
        <path
           inkscape:connector-curvature="0"
           d="m 550.82433,741.97333 c -2.15895,-3.41366 -4.24519,-6.86758 -6.13671,-10.43696 -1.57825,-3.05682 -2.84086,-6.25946 -3.10819,-9.70696 -0.0788,-1.90323 0.5061,-3.47589 1.82653,-4.81922 4.52913,-4.16829 5.73744,-5.11891 11.18228,-5.83102 2.79878,-0.21496 5.66137,-0.0826 8.36324,0.7175 1.55483,0.8471 1.07044,1.30776 0.27085,2.69479 0,0 -0.0841,0.0774 -0.0841,0.0774 l 0,0 c -1.37497,0.7694 -2.49523,1.34081 -4.10585,1.09101 -2.75436,-0.42171 -5.51615,-0.89241 -8.31122,-0.48419 -1.40576,0.21825 -2.77299,0.45447 -4.11469,0.94628 -2.06607,0.75735 -5.06813,3.35602 1.60557,-2.22355 -1.41501,1.15388 -2.13431,2.55124 -2.12926,4.41514 0.14395,3.39621 1.38418,6.54716 2.91323,9.55587 1.87586,3.55915 3.94633,7.00608 6.17586,10.35578 0,0 -4.34748,3.64814 -4.34748,3.64814 z"
           id="path4183"
           style="fill:#ff6600;fill-opacity:1;fill-rule:nonzero;stroke:none" />
        <path
           inkscape:connector-curvature="0"
           d="m 585.44208,717.52104 c 0.0704,-2.53761 -0.51474,-4.8539 -2.33089,-6.66375 -2.48022,-1.6517 -5.25372,-0.74832 -7.76973,0.32057 -0.46843,0.26367 -0.95386,0.49919 -1.40529,0.791 -0.43898,0.28376 -1.64925,1.28212 -1.26082,0.93237 0.90549,-0.81534 1.79048,-1.6724 2.81507,-2.33188 0.38792,-0.24968 -0.6118,0.6944 -0.86754,1.07836 -0.67804,1.01799 -0.65551,1.26494 -0.9918,2.41878 -0.39587,3.54989 1.80952,6.3857 3.96002,8.95681 2.97383,3.13764 6.35718,5.83595 9.39602,8.90893 2.06352,2.32556 4.08343,5.05263 4.09559,8.31476 0.002,0.57926 -0.12746,1.1515 -0.19119,1.72724 -0.47373,1.74494 -1.35145,3.26746 -2.74505,4.44483 -4.61067,3.89526 -4.60312,4.82137 -9.28078,5.39522 -4.58223,-0.19109 -7.44406,-2.28669 -10.22052,-5.75219 -1.12766,-2.65781 -0.79807,-1.22201 -0.86363,-4.33422 0,0 0.0869,-0.0743 0.0869,-0.0743 l 0,0 c 2.86685,0.71511 1.53885,0.1814 4.00347,1.55189 3.27238,2.29782 6.66972,4.65552 10.84883,4.52091 0.58583,-0.10256 1.18588,-0.14345 1.75749,-0.30768 2.46634,-0.70857 2.78359,-2.01922 -1.07709,1.99856 -0.40721,0.42378 0.90666,-0.75499 1.29692,-1.19442 1.05079,-1.18321 1.06482,-1.53289 1.66972,-2.95616 0.0912,-0.54229 0.24766,-1.07757 0.27379,-1.62687 0.15019,-3.15564 -1.86208,-5.80076 -3.84861,-8.02253 -3.04756,-3.08632 -6.46019,-5.77738 -9.41037,-8.9607 -2.25219,-2.73718 -4.43977,-5.76259 -4.12054,-9.49167 0.11149,-0.45646 0.17541,-0.92722 0.3343,-1.36942 1.32666,-3.69191 5.79846,-6.64218 9.20583,-8.46484 2.71246,-1.03186 5.59253,-1.73089 8.07086,0.23706 1.88214,2.11179 2.39054,4.49386 2.19574,7.28746 0,0 -3.62666,2.66591 -3.62666,2.66591 z"
           id="path4185"
           style="fill:#ff6600;fill-opacity:1;fill-rule:nonzero;stroke:none" />
        <path
           inkscape:connector-curvature="0"
           d="m 603.96092,693.24837 c 0.0316,6.11742 0.63446,12.20873 1.30726,18.28263 0.91906,7.9441 2.48542,15.7874 4.26378,23.5773 0.91733,4.23966 2.19599,8.38472 3.32411,12.5683 0.35635,1.5781 0.20426,1.42563 -0.81202,2.57733 0,0 0.0967,-0.0611 0.0967,-0.0611 l 0,0 c -1.04725,1.11164 -2.50093,2.97046 -3.60643,0.93356 -1.5015,-4.08147 -2.228,-8.4158 -3.35237,-12.60557 -1.75959,-7.81744 -3.32525,-15.68327 -4.27446,-23.64609 -0.70238,-6.107 -1.31683,-12.23816 -1.26877,-18.39378 0,0 4.32225,-3.2326 4.32225,-3.2326 z"
           id="path4187"
           style="fill:#ff6600;fill-opacity:1;fill-rule:nonzero;stroke:none" />
        <path
           inkscape:connector-curvature="0"
           d="m 614.36694,718.86427 c -3.72545,-0.5539 -7.44293,-1.13226 -11.19467,-1.48094 -3.64638,-0.29579 -7.30148,-0.0835 -10.93248,0.28698 -0.75971,-0.0976 -2.47195,0.61653 -3.19734,0.29074 -1.71481,-0.77012 1.36857,-0.38681 -0.86486,-0.54072 0,0 0.0771,-0.0844 0.0771,-0.0844 l 0,0 c 1.83521,-0.94978 0.8286,-0.38216 2.98606,-1.7614 1.3213,-0.72081 2.82227,-1.05847 4.27749,-1.37204 3.71973,-0.61889 7.48563,-0.81334 11.24752,-0.44941 3.66658,0.35758 7.32692,0.87544 10.88309,1.86516 0,0 -3.28186,3.24609 -3.28186,3.24609 z"
           id="path4189"
           style="fill:#ff6600;fill-opacity:1;fill-rule:nonzero;stroke:none" />
        <path
           inkscape:connector-curvature="0"
           d="m 627.02119,729.28172 c 3.55627,0.3391 7.09722,0.33103 10.63281,-0.17232 2.54074,-0.51917 5.00732,-1.43691 7.12075,-2.96726 0.45548,-0.32982 1.73953,-1.42595 1.29811,-1.07755 -1.05776,0.83488 -2.09823,1.69142 -3.14734,2.53714 1.20481,-1.54204 2.08804,-3.69616 0.71775,-5.45424 -0.25176,-0.32301 -0.59738,-0.56037 -0.89607,-0.84055 -3.34218,-1.91631 -7.17582,-1.11482 -10.67162,-0.10069 -1.55897,0.65327 -2.22359,0.82995 -3.60798,1.80838 -0.52879,0.37375 -2.02956,1.60392 -1.48817,1.24866 1.01856,-0.66838 1.74609,-1.88406 2.92495,-2.19147 0.6257,-0.16316 -0.70478,1.0905 -0.96795,1.68114 -0.27659,0.62079 -0.42876,1.28983 -0.64313,1.93474 -0.92858,4.72108 0.39821,9.26186 2.49158,13.4656 1.7339,2.92879 4.26645,5.20701 7.71543,5.77856 0.67861,0.11245 1.37198,0.10164 2.05789,0.15346 2.80695,0.0837 5.46963,-0.77029 8.17424,-1.34543 3.03206,-0.64477 -0.21506,0.24098 2.57515,-0.56671 0,0 -0.0755,0.0859 -0.0755,0.0859 l 0,0 c -4.49277,3.06076 -9.00881,5.71966 -14.61381,5.81108 -0.71142,-0.074 -1.4322,-0.0853 -2.13426,-0.22206 -3.56543,-0.69454 -6.20329,-3.09172 -8.0152,-6.13731 -2.16125,-4.3023 -3.5458,-8.94076 -2.76041,-13.79748 0.29056,-1.02026 0.70205,-2.95322 1.47765,-3.80037 3.14608,-3.43626 6.2957,-6.50788 10.68357,-8.0304 3.69457,-0.9787 7.67379,-1.65356 11.10664,0.48435 0.33774,0.32272 0.72341,0.60179 1.01321,0.96816 1.49378,1.88844 0.95123,4.21685 -0.3141,6.03696 -4.98491,4.54812 -7.27968,7.38425 -13.87449,8.61241 -3.5632,0.44938 -7.14524,0.46978 -10.72041,0.0913 0,0 3.94063,-3.99356 3.94063,-3.99356 z"
           id="path4191"
           style="fill:#ff6600;fill-opacity:1;fill-rule:nonzero;stroke:none" />
        <path
           inkscape:connector-curvature="0"
           d="m 656.55572,687.52622 c -1.18583,5.46679 -1.03097,11.09501 -0.80913,16.64743 0.42866,8.25369 1.95626,16.37409 4.20521,24.31067 1.44871,4.99917 3.60918,9.39373 7.12082,13.23161 2.07487,2.08024 4.58779,3.62648 6.6025,5.76812 0.7016,0.86571 0.32194,1.5424 -0.11679,2.41307 0,0 -0.0819,0.0798 -0.0819,0.0798 l 0,0 c -1.07675,0.583 -2.02209,1.13898 -3.27209,0.67797 -2.82102,-1.19368 -5.20911,-3.08759 -7.36318,-5.25208 -3.55202,-3.92586 -5.75567,-8.3938 -7.21388,-13.48919 -2.25316,-7.99687 -3.83287,-16.17373 -4.18017,-24.49537 -0.17804,-5.68663 -0.31185,-11.48476 1.07805,-17.04814 0,0 4.03052,-2.84389 4.03052,-2.84389 z"
           id="path4193"
           style="fill:#ff6600;fill-opacity:1;fill-rule:nonzero;stroke:none" />
        <path
           inkscape:connector-curvature="0"
           d="m 678.26127,690.69883 c 1.27946,6.34743 2.29661,12.74468 3.4729,19.11202 1.21648,7.0038 3.07416,13.85645 5.38808,20.57024 1.6743,4.6233 3.65253,9.14243 6.35418,13.26008 0.76967,1.01172 1.60923,1.97694 2.59429,2.78598 0.21584,0.17728 0.50755,0.27356 0.67396,0.49788 0.2852,0.38443 0.30375,0.90795 0.46528,1.35855 0,0 -0.0785,0.0831 -0.0785,0.0831 l 0,0 c -3.72371,1.94196 -5.18634,2.52291 -7.94946,-1.10335 -2.70414,-4.17547 -4.70975,-8.74029 -6.37607,-13.42086 -2.30783,-6.78061 -4.05359,-13.72387 -5.24271,-20.79107 -1.10201,-6.44608 -2.11697,-12.90625 -3.13289,-19.36638 0,0 3.83095,-2.98619 3.83095,-2.98619 z"
           id="path4199"
           style="fill:#ff6600;fill-opacity:1;fill-rule:nonzero;stroke:none" />
        <path
           inkscape:connector-curvature="0"
           d="m 707.34657,725.73487 c 3.22791,0.30551 6.46133,0.37993 9.69395,0.13896 1.36928,-0.17032 2.78098,-0.3642 4.01816,-1.02565 0.33671,-0.18003 1.23296,-0.89756 0.94637,-0.64529 -4.05827,3.57206 -4.21731,4.00752 -2.88324,1.971 1.05427,-2.79776 -0.0913,-4.87588 -2.14345,-6.77824 -3.09591,-2.07318 -6.03261,-1.78828 -9.32514,-0.40503 -0.48777,0.32131 -1.87686,1.37642 -1.46331,0.96394 0.88328,-0.88096 1.77556,-1.81419 2.88592,-2.38284 0.56122,-0.2874 -0.82226,0.96227 -1.15628,1.49706 -1.2199,1.95316 -1.52439,3.98128 -1.80569,6.2169 -0.0947,4.1045 0.70647,8.30461 2.88903,11.84033 0.3777,0.61188 0.8464,1.16268 1.26959,1.74403 2.36047,2.78727 5.63136,3.56928 9.10333,3.88685 1.12305,0.52204 0.54519,0.3361 1.73013,0.56844 0,0 -0.0774,0.0842 -0.0774,0.0842 l 0,0 c -2.7013,1.35819 -1.29321,0.66861 -4.22763,2.0619 -4.91722,1.25949 -7.19861,0.75276 -10.78969,-2.96992 -0.43848,-0.60382 -0.9227,-1.17695 -1.31546,-1.81147 -2.23824,-3.61591 -3.10381,-7.89949 -3.09216,-12.10358 0.0784,-0.7988 0.0996,-1.60531 0.2352,-2.39641 0.90173,-5.26054 5.00099,-8.88569 9.57922,-11.37599 3.59616,-1.29963 6.49491,-1.35091 9.76056,0.86089 2.20875,2.07276 3.48213,4.25135 2.64063,7.34623 -2.09452,4.22621 -6.24255,6.52506 -10.67201,6.9158 -3.24119,0.19718 -6.49116,0.14194 -9.71817,-0.25065 0,0 3.91746,-3.95146 3.91746,-3.95146 z"
           id="path4201"
           style="fill:#ff6600;fill-opacity:1;fill-rule:nonzero;stroke:none" />
        <path
           inkscape:connector-curvature="0"
           d="m 733.04048,716.54796 c 2.08688,3.7641 4.03008,7.60436 5.91344,11.47355 1.42659,2.87246 2.6938,5.81696 3.96224,8.76096 -0.69813,0.0638 0.46496,0.45771 0.28854,0.58463 -4.25318,3.05986 -4.13171,4.63847 -4.49537,2.07257 -0.18378,-1.29668 -0.16681,-1.3763 -0.28323,-2.79544 -0.34397,-4.39971 -0.024,-8.77293 1.1278,-13.02889 1.38491,-3.7204 5.00737,-8.70544 9.04464,-9.23695 0.42686,-0.0562 0.86086,0.0195 1.29129,0.0292 3.66434,0.93964 5.65686,4.28547 7.44323,7.34727 2.0059,3.68529 3.29281,7.68217 4.40751,11.70869 0.27774,1.41609 0.7904,3.00627 0.59003,4.47818 -0.11848,0.87027 -0.7154,2.19214 -1.03935,2.98871 0,0 -0.0882,0.0727 -0.0882,0.0727 l 0,0 c -0.71316,0.0293 -1.71891,0.22747 -2.36774,-0.29916 -0.83213,-0.67541 -1.1817,-2.84037 -1.50056,-3.75308 -1.07384,-3.99204 -2.32311,-7.9553 -4.30092,-11.60638 -1.66886,-2.86499 -3.54994,-6.18463 -7.07069,-6.87354 -0.38724,0.0303 -0.78432,-9.8e-4 -1.16171,0.0909 -1.63847,0.39889 -4.1071,2.84905 1.97843,-2.40525 0.3844,-0.3319 -0.73781,0.70359 -1.04889,1.10502 -0.90506,1.16792 -1.12009,1.8624 -1.73913,3.22021 -1.28963,4.19347 -1.65191,8.52877 -1.29334,12.90514 0.11166,1.27333 0.11343,1.55212 0.29136,2.73147 0.0404,0.268 0.31933,0.59425 0.14335,0.80038 -4.42534,5.18357 -3.49888,5.48587 -4.36945,3.24345 -1.24489,-2.95567 -2.49313,-5.9104 -3.86854,-8.80868 -1.84146,-3.94346 -3.59596,-7.92508 -5.36867,-11.89963 0,0 3.51394,-2.90606 3.51394,-2.90606 z"
           id="path4203"
           style="fill:#ff6600;fill-opacity:1;fill-rule:nonzero;stroke:none" />
        <path
           inkscape:connector-curvature="0"
           d="m 771.05346,671.24893 c -0.95774,-2.67193 -1.03706,-5.37024 -0.26366,-8.07993 0.48566,-1.2759 1.26413,-2.34825 2.24218,-3.2906 3.3683,-3.24542 3.71782,-4.00583 7.03922,-5.60712 2.83234,-1.22642 5.86335,-1.54816 8.91595,-1.49302 2.738,0.11963 5.14923,1.0025 7.04303,2.98844 1.84035,2.46692 1.60582,5.49906 1.23267,8.3865 -0.56454,3.33362 -1.58655,6.56063 -2.73131,9.73369 -1.0948,3.05994 -2.78805,5.81832 -4.64953,8.46039 -1.74797,2.3552 -3.6341,4.60236 -5.42149,6.92717 -1.82979,2.32166 -3.27626,4.86997 -4.33362,7.62392 -0.88591,2.53622 -1.0279,5.15184 -0.46508,7.7626 0.4676,1.69865 1.42995,2.83934 3.12513,3.30262 0.79,0.32408 1.94983,0.0693 2.59239,0.72367 0.30067,0.30618 0.4428,0.73534 0.67456,1.09651 0,0 -0.0736,0.0875 -0.0736,0.0875 l 0,0 c -2.22268,1.08967 -4.40907,2.62703 -7.00682,2.29535 -1.82706,-0.6238 -2.97182,-1.86497 -3.52866,-3.73694 -0.65427,-2.72007 -0.50142,-5.45949 0.38731,-8.12336 1.05212,-2.83338 2.51248,-5.45618 4.36749,-7.84995 1.80595,-2.35927 3.72589,-4.62707 5.5312,-6.98683 1.88746,-2.60929 3.63413,-5.32235 4.75013,-8.36487 1.20843,-3.165 2.27196,-6.39866 2.90568,-9.73286 0.41673,-2.76583 0.75907,-5.6666 -0.84594,-8.1366 -1.77864,-1.91671 -4.09561,-2.67177 -6.68645,-2.80184 -3.00846,-0.0524 -5.98805,0.35498 -8.73994,1.64496 -2.74403,1.43048 -3.59824,2.93825 -0.15336,-1.06042 0.29179,-0.33869 -0.66477,0.60038 -0.96329,0.93316 -0.81228,0.90553 -0.85643,1.1323 -1.43407,2.1912 -0.92371,2.61563 -0.92012,5.25933 -0.006,7.89852 0,0 -3.50456,3.20818 -3.50456,3.20818 z"
           id="path4213"
           style="fill:#008000;fill-opacity:1;fill-rule:nonzero;stroke:none" />
        <path
           inkscape:connector-curvature="0"
           d="m 781.25643,731.11164 c 0.28991,-1.10699 0.67877,-2.26394 1.51994,-3.09169 3.01144,-2.9634 3.26151,-4.57442 6.56664,-4.20957 2.81722,1.07635 3.45467,3.26778 3.16738,6.06048 -1.23506,3.71935 -4.99717,7.95184 -8.96005,8.59572 -0.51093,0.083 -1.03405,0.0499 -1.55108,0.0748 -2.06943,-0.24151 -4.91451,-1.19808 -5.10449,-3.71086 -0.0351,-0.46373 0.11327,-0.92319 0.16991,-1.38479 1.28338,-2.33511 0.50022,-1.18403 2.41933,-3.40463 0,0 0.0909,-0.0693 0.0909,-0.0693 l 0,0 c 0.33356,0.50982 0.16213,0.22181 0.49755,0.87375 0.96633,2.44368 2.91636,3.30558 5.45964,3.49639 1.28211,-0.13223 1.64919,-0.0589 2.83629,-0.62776 0.44344,-0.21252 1.53102,-1.18756 1.24933,-0.7845 -0.73284,1.04858 -1.69603,1.9229 -2.64474,2.78112 -0.36727,0.33224 0.63375,-0.76626 0.88755,-1.19153 0.24144,-0.40456 0.39334,-0.85623 0.59001,-1.28434 0.49043,-2.45479 0.23274,-4.67939 -2.43016,-5.59092 -0.31303,-0.009 -0.62948,-0.0744 -0.9391,-0.0273 -0.31833,0.0484 -1.09325,0.57723 -0.91518,0.30898 0.71767,-1.08117 1.74673,-1.91961 2.62092,-2.87866 0.26275,-0.28826 -0.55914,0.54941 -0.78659,0.86626 -0.55452,0.77246 -0.63239,1.19145 -0.93344,2.06117 0,0 -3.81056,3.13724 -3.81056,3.13724 z"
           id="path4215"
           style="fill:#008000;fill-opacity:1;fill-rule:nonzero;stroke:none" />
      </g>
    </g>
  </g>
</svg>
